<?xml version="1.0" encoding="utf-8"?>
<!-- Generator: Adobe Illustrator 22.0.1, SVG Export Plug-In . SVG Version: 6.00 Build 0)  -->
<svg version="1.1" id="Layer_1" xmlns="http://www.w3.org/2000/svg" xmlns:xlink="http://www.w3.org/1999/xlink" x="0px" y="0px"
	 viewBox="0 0 2592 1900.8" style="enable-background:new 0 0 2592 1900.8;" xml:space="preserve">
<style type="text/css">
	.st0{fill:none;stroke:#FF1212;stroke-miterlimit:10;}
</style>
<g transform="translate(0 0)">
	<g transform="translate(490.0334882479915 398.872553126398) rotate(180)">
		<path class="st0" d="M346.7,51.2l-2.8,7.5l-3.2,7.8l-3.6,8l-4,8.3l-4.3,8.4l-4.7,8.4l-4.9,8.3l-5.1,8.1l-5.2,7.8l-5.3,7.3
			l-5.3,6.8l-5.2,6.3l-5.2,5.7l-5.1,5.2l0,0.1l9.5,2.6l0,0l14,2.8v0l8.8,1.7l0.1,0l-2.6,4.5l-2.9,4.8l-3.1,5l-3.4,5.3l-3.7,5.6
			l-4,5.8l-4.2,5.9l-4.4,6l-9,11.9l-4.6,5.8l-4.6,5.6l-4.6,5.4l-4.5,5.1l-4.5,4.9l-4.4,4.6l-0.1,0l5.4,1.7l5.4,1.6l5.4,1.5l5.4,1.4
			l5.2,1.2l2.5,0.5l2.4,0.4l2.3,0.4l2.2,0.3l2.1,0.2l2,0.2l0,0l-0.8,1.4l-1,1.7l-1.2,2l-1.4,2.3l-1.6,2.5l-1.8,2.7l-3.9,5.8l-4.1,6
			l-4.1,5.7l-8.2,10.8l-4.4,5.5l-4.8,5.9l-5.1,6.2l-5.2,6.3l-5.2,6.1l-4.9,5.6l-2.3,2.6l-2.3,2.4l-2.2,2.3l-2.1,2.1l-0.1,0l5.4,1.9
			l6,1.8l6.6,1.8l7.2,1.7l7.8,1.7l8.3,1.6l17.5,2.9l8.8,1.3l8.5,1.1l8,1l7.3,0.8l3.3,0.3l3.1,0.3l2.9,0.2l2.7,0.2l2.4,0.1l2.2,0.1h2
			h1.7l-0.1,0v31.3l0,0c0,1.8,1.5,3.3,3.3,3.3l0,0h12.8h0h6.3l0,0h12.9l0.1,0c1.8,0,3.3-1.5,3.3-3.3v0l-0.1,0v-31.4l0,0h1.7h2
			l2.2-0.1l2.4-0.1l2.7-0.2l2.9-0.2l3.1-0.3l3.3-0.3l7.3-0.8l8-1l8.5-1.1l8.8-1.3l17.5-2.9l8.3-1.6l7.8-1.7l7.2-1.7l6.6-1.8l6-1.8
			l5.4-1.9l0,0.1l-2.1-2.1l-2.2-2.3l-2.3-2.4l-2.3-2.6l-4.9-5.6l-5.2-6.1l-5.2-6.3l-5.1-6.2l-4.8-5.9l-4.4-5.5l-8.2-10.8l-4.1-5.7
			l-4.1-6l-3.9-5.8l-1.8-2.7l-1.6-2.5l-1.4-2.3l-1.2-2l-1-1.7l-0.8-1.4l0,0l2.1-0.2l2.1-0.2l2.2-0.3l2.3-0.4l2.4-0.4l2.5-0.5
			l5.2-1.2l5.4-1.4l5.4-1.5l5.4-1.6l5.4-1.7h0.1l-4.5-4.6l-4.5-4.9l-4.5-5.1l-4.6-5.4l-4.6-5.6L433,217l-9-11.9l-4.4-6l-4.2-5.9
			l-4-5.8l-3.7-5.6l-3.4-5.3l-3.1-5l-2.9-4.8l-2.6-4.5l-0.1,0l8.8-1.7l0,0l14-2.8l0,0l9.5-2.6l0-0.1l-5.1-5.2l-5.2-5.7l-5.2-6.3
			l-5.3-6.8l-5.3-7.3l-5.2-7.8l-5.1-8.1l-4.9-8.3l-4.7-8.4l-4.3-8.4l-4-8.3l-3.6-8l-3.2-7.8l-2.8-7.5l-1.7-4.9h0v162.1v0h-14.2l0,0
			V46.3L346.7,51.2z"/>
	</g>
	<g transform="translate(983.8825245 401.31012409999994) rotate(180)">
		<path class="st0" d="M691.1,206.3h-14.4v0V17.8h0h-8.8l0,0c-1.8,0-3.3,1.5-3.3,3.3c0,0,0,0,0,0l0,0v31.3l0.1-0.1h-1.7h-2l-2.2,0.1
			l-2.4,0.1l-2.7,0.2l-2.9,0.2l-3.1,0.3l-3.3,0.3l-7.3,0.8l-8,1l-8.5,1.1l-8.8,1.3l-17.5,2.9l-8.3,1.6l-7.8,1.7l-7.2,1.7l-6.6,1.8
			l-6,1.8l-5.4,1.9l0,0l2.1,2.1l2.2,2.3l2.3,2.4l2.3,2.6l4.9,5.6l5.2,6.1l5.2,6.3l5.1,6.2l4.8,5.9l4.4,5.5l8.2,10.8l4.1,5.7l4.2,6
			l3.9,5.8l1.8,2.7l1.6,2.5l1.4,2.3l1.2,2l1,1.7l0.8,1.4l0-0.1l-2,0.2l-2.1,0.3l-2.2,0.3l-2.3,0.4l-2.4,0.4l-2.5,0.5l-5.2,1.2
			l-5.4,1.4l-5.4,1.5l-5.4,1.6l-5.4,1.7l0,0l4.4,4.7l4.5,4.9l4.5,5.1l4.6,5.4l4.6,5.6l4.6,5.8l9,11.9l4.4,6l4.2,5.9l4,5.8l3.7,5.6
			l3.4,5.3l3.2,5l2.8,4.8l2.6,4.5l0,0l-8.8,1.7l0,0.1l-14,2.8l0-0.1l-9.5,2.6l0,0.1l6,6.1l6.1,6.9l6.2,7.6l6.2,8.3l6.1,9l6,9.4
			l5.8,9.8l5.4,9.9l4.9,9.8l4.4,9.5l3.8,9.2l3.3,8.8l2.8,8.4l2.4,7.9l1.9,7.5l1.5,7.1l0.1-0.1l1.5-7.1l1.9-7.5l2.3-7.9l2.8-8.4
			l3.3-8.8l3.8-9.2l4.4-9.5l4.9-9.8l5.4-9.9l5.8-9.8l6-9.5l6.1-9l6.2-8.3l6.2-7.6l6.1-6.9l6-6.1h0L747,257h0l-14-2.7l0,0l-8.8-1.7
			l0,0l2.6-4.5l2.9-4.8l3.1-5l3.4-5.3l3.7-5.6l4-5.8l4.2-5.9l4.4-6l9-11.9l4.6-5.8l4.6-5.6l4.6-5.4l4.5-5.1l4.5-4.9l4.5-4.7l0,0
			l-5.4-1.7l-5.4-1.6l-5.4-1.5l-5.4-1.4l-5.2-1.2l-2.5-0.5l-2.4-0.4l-2.3-0.4l-2.2-0.3l-2.1-0.3l-2-0.2l0,0l0.8-1.4l1-1.7l1.2-2
			l1.4-2.3l1.6-2.5l1.8-2.7l3.9-5.8l4.2-5.9l4.1-5.7l8.2-10.8l4.4-5.5l4.8-5.9l5.1-6.2l5.2-6.3l5.2-6.1l4.9-5.6l2.3-2.6l2.3-2.4
			l2.2-2.3l2.1-2.1l0,0.1l-5.4-1.9l-6-1.8l-6.6-1.8l-7.2-1.7l-7.8-1.7l-8.3-1.6l-17.5-2.9l-8.8-1.3l-8.5-1.1l-8-1l-7.3-0.8l-3.3-0.3
			l-3.1-0.3l-2.9-0.2l-2.7-0.2l-2.4-0.1l-2.2-0.1h-2h-1.7v-0.1V21.1v0c0-1.8-1.5-3.3-3.3-3.3v0H691l0,0L691.1,206.3L691.1,206.3z"/>
	</g>
	<g transform="translate(160.43298800000005 192.42497860000003) rotate(270)">
		<path class="st0" d="M0.4,300.6c0-52.1,42.2-94.3,94.3-94.3c52.1,0,94.3,42.2,94.3,94.3c0,52.1-42.2,94.3-94.3,94.3c0,0,0,0,0,0
			C42.6,394.9,0.4,352.7,0.4,300.6z"/>
	</g>
	<g transform="translate(419.0682288 392.3033199) rotate(270)">
		<path class="st0" d="M113.8,0.4C67.5,0.4,30,37.9,30,84.1s37.5,83.8,83.8,83.8s83.8-37.5,83.8-83.8
			C197.6,37.9,160.1,0.4,113.8,0.4C113.8,0.4,113.8,0.4,113.8,0.4z"/>
		<polygon class="st0" points="133.2,91.2 120.9,91.2 120.9,103.5 106.7,103.5 106.7,91.2 94.5,91.2 94.5,77.1 106.7,77.1 
			106.7,64.8 120.9,64.8 120.9,77.1 133.2,77.1 		"/>
	</g>
</g>
</svg>
