  0
SECTION
  2
HEADER
  9
$ACADVER
  1
AC1024
  9
$ACADMAINTVER
 70
     6
  9
$DWGCODEPAGE
  3
ANSI_1252
  9
$INSBASE
 10
0.0
 20
0.0
 30
0.0
  9
$EXTMIN
 10
1.000000000000000E+20
 20
1.000000000000000E+20
 30
1.000000000000000E+20
  9
$EXTMAX
 10
-1.000000000000000E+20
 20
-1.000000000000000E+20
 30
-1.000000000000000E+20
  9
$LIMMIN
 10
0.0
 20
0.0
  9
$LIMMAX
 10
12.0
 20
9.0
  9
$ORTHOMODE
 70
     0
  9
$REGENMODE
 70
     1
  9
$FILLMODE
 70
     1
  9
$QTEXTMODE
 70
     0
  9
$MIRRTEXT
 70
     1
  9
$LTSCALE
 40
1.0
  9
$ATTMODE
 70
     1
  9
$TEXTSIZE
 40
0.2
  9
$TRACEWID
 40
0.05
  9
$TEXTSTYLE
  7
Standard
  9
$CLAYER
  8
0
  9
$CELTYPE
  6
ByLayer
  9
$CECOLOR
 62
   256
  9
$CELTSCALE
 40
1.0
  9
$DISPSILH
 70
     0
  9
$DIMSCALE
 40
1.0
  9
$DIMASZ
 40
0.18
  9
$DIMEXO
 40
0.0625
  9
$DIMDLI
 40
0.38
  9
$DIMRND
 40
0.0
  9
$DIMDLE
 40
0.0
  9
$DIMEXE
 40
0.18
  9
$DIMTP
 40
0.0
  9
$DIMTM
 40
0.0
  9
$DIMTXT
 40
0.18
  9
$DIMCEN
 40
0.09
  9
$DIMTSZ
 40
0.0
  9
$DIMTOL
 70
     0
  9
$DIMLIM
 70
     0
  9
$DIMTIH
 70
     1
  9
$DIMTOH
 70
     1
  9
$DIMSE1
 70
     0
  9
$DIMSE2
 70
     0
  9
$DIMTAD
 70
     0
  9
$DIMZIN
 70
     0
  9
$DIMBLK
  1

  9
$DIMASO
 70
     1
  9
$DIMSHO
 70
     1
  9
$DIMPOST
  1

  9
$DIMAPOST
  1

  9
$DIMALT
 70
     0
  9
$DIMALTD
 70
     2
  9
$DIMALTF
 40
25.4
  9
$DIMLFAC
 40
1.0
  9
$DIMTOFL
 70
     0
  9
$DIMTVP
 40
0.0
  9
$DIMTIX
 70
     0
  9
$DIMSOXD
 70
     0
  9
$DIMSAH
 70
     0
  9
$DIMBLK1
  1

  9
$DIMBLK2
  1

  9
$DIMSTYLE
  2
Standard
  9
$DIMCLRD
 70
     0
  9
$DIMCLRE
 70
     0
  9
$DIMCLRT
 70
     0
  9
$DIMTFAC
 40
1.0
  9
$DIMGAP
 40
0.09
  9
$DIMJUST
 70
     0
  9
$DIMSD1
 70
     0
  9
$DIMSD2
 70
     0
  9
$DIMTOLJ
 70
     1
  9
$DIMTZIN
 70
     0
  9
$DIMALTZ
 70
     0
  9
$DIMALTTZ
 70
     0
  9
$DIMUPT
 70
     0
  9
$DIMDEC
 70
     4
  9
$DIMTDEC
 70
     4
  9
$DIMALTU
 70
     2
  9
$DIMALTTD
 70
     2
  9
$DIMTXSTY
  7
Standard
  9
$DIMAUNIT
 70
     0
  9
$DIMADEC
 70
     0
  9
$DIMALTRND
 40
0.0
  9
$DIMAZIN
 70
     0
  9
$DIMDSEP
 70
    46
  9
$DIMATFIT
 70
     3
  9
$DIMFRAC
 70
     0
  9
$DIMLDRBLK
  1

  9
$DIMLUNIT
 70
     2
  9
$DIMLWD
 70
    -2
  9
$DIMLWE
 70
    -2
  9
$DIMTMOVE
 70
     0
  9
$DIMFXL
 40
1.0
  9
$DIMFXLON
 70
     0
  9
$DIMJOGANG
 40
0.7853981633974483
  9
$DIMTFILL
 70
     0
  9
$DIMTFILLCLR
 70
     0
  9
$DIMARCSYM
 70
     0
  9
$DIMLTYPE
  6

  9
$DIMLTEX1
  6

  9
$DIMLTEX2
  6

  9
$DIMTXTDIRECTION
 70
     0
  9
$LUNITS
 70
     2
  9
$LUPREC
 70
     4
  9
$SKETCHINC
 40
0.1
  9
$FILLETRAD
 40
0.5
  9
$AUNITS
 70
     0
  9
$AUPREC
 70
     0
  9
$MENU
  1
.
  9
$ELEVATION
 40
0.0
  9
$PELEVATION
 40
0.0
  9
$THICKNESS
 40
0.0
  9
$LIMCHECK
 70
     0
  9
$CHAMFERA
 40
0.5
  9
$CHAMFERB
 40
0.5
  9
$CHAMFERC
 40
1.0
  9
$CHAMFERD
 40
0.0
  9
$SKPOLY
 70
     0
  9
$TDCREATE
 40
2458445.635767049
  9
$TDUCREATE
 40
2458445.969100382
  9
$TDUPDATE
 40
2458445.635767407
  9
$TDUUPDATE
 40
2458445.969100741
  9
$TDINDWG
 40
0.0000000116
  9
$TDUSRTIMER
 40
0.0000000116
  9
$USRTIMER
 70
     1
  9
$ANGBASE
 50
0.0
  9
$ANGDIR
 70
     0
  9
$PDMODE
 70
     0
  9
$PDSIZE
 40
0.0
  9
$PLINEWID
 40
0.0
  9
$SPLFRAME
 70
     0
  9
$SPLINETYPE
 70
     6
  9
$SPLINESEGS
 70
     8
  9
$HANDSEED
  5
6A
  9
$SURFTAB1
 70
     6
  9
$SURFTAB2
 70
     6
  9
$SURFTYPE
 70
     6
  9
$SURFU
 70
     6
  9
$SURFV
 70
     6
  9
$UCSBASE
  2

  9
$UCSNAME
  2

  9
$UCSORG
 10
0.0
 20
0.0
 30
0.0
  9
$UCSXDIR
 10
1.0
 20
0.0
 30
0.0
  9
$UCSYDIR
 10
0.0
 20
1.0
 30
0.0
  9
$UCSORTHOREF
  2

  9
$UCSORTHOVIEW
 70
     0
  9
$UCSORGTOP
 10
0.0
 20
0.0
 30
0.0
  9
$UCSORGBOTTOM
 10
0.0
 20
0.0
 30
0.0
  9
$UCSORGLEFT
 10
0.0
 20
0.0
 30
0.0
  9
$UCSORGRIGHT
 10
0.0
 20
0.0
 30
0.0
  9
$UCSORGFRONT
 10
0.0
 20
0.0
 30
0.0
  9
$UCSORGBACK
 10
0.0
 20
0.0
 30
0.0
  9
$PUCSBASE
  2

  9
$PUCSNAME
  2

  9
$PUCSORG
 10
0.0
 20
0.0
 30
0.0
  9
$PUCSXDIR
 10
1.0
 20
0.0
 30
0.0
  9
$PUCSYDIR
 10
0.0
 20
1.0
 30
0.0
  9
$PUCSORTHOREF
  2

  9
$PUCSORTHOVIEW
 70
     0
  9
$PUCSORGTOP
 10
0.0
 20
0.0
 30
0.0
  9
$PUCSORGBOTTOM
 10
0.0
 20
0.0
 30
0.0
  9
$PUCSORGLEFT
 10
0.0
 20
0.0
 30
0.0
  9
$PUCSORGRIGHT
 10
0.0
 20
0.0
 30
0.0
  9
$PUCSORGFRONT
 10
0.0
 20
0.0
 30
0.0
  9
$PUCSORGBACK
 10
0.0
 20
0.0
 30
0.0
  9
$USERI1
 70
     0
  9
$USERI2
 70
     0
  9
$USERI3
 70
     0
  9
$USERI4
 70
     0
  9
$USERI5
 70
     0
  9
$USERR1
 40
0.0
  9
$USERR2
 40
0.0
  9
$USERR3
 40
0.0
  9
$USERR4
 40
0.0
  9
$USERR5
 40
0.0
  9
$WORLDVIEW
 70
     1
  9
$SHADEDGE
 70
     3
  9
$SHADEDIF
 70
    70
  9
$TILEMODE
 70
     1
  9
$MAXACTVP
 70
    64
  9
$PINSBASE
 10
0.0
 20
0.0
 30
0.0
  9
$PLIMCHECK
 70
     0
  9
$PEXTMIN
 10
1.000000000000000E+20
 20
1.000000000000000E+20
 30
1.000000000000000E+20
  9
$PEXTMAX
 10
-1.000000000000000E+20
 20
-1.000000000000000E+20
 30
-1.000000000000000E+20
  9
$PLIMMIN
 10
0.0
 20
0.0
  9
$PLIMMAX
 10
12.0
 20
9.0
  9
$UNITMODE
 70
     0
  9
$VISRETAIN
 70
     1
  9
$PLINEGEN
 70
     0
  9
$PSLTSCALE
 70
     1
  9
$TREEDEPTH
 70
  3020
  9
$CMLSTYLE
  2
Standard
  9
$CMLJUST
 70
     0
  9
$CMLSCALE
 40
1.0
  9
$PROXYGRAPHICS
 70
     1
  9
$MEASUREMENT
 70
     0
  9
$CELWEIGHT
370
    -1
  9
$ENDCAPS
280
     0
  9
$JOINSTYLE
280
     0
  9
$LWDISPLAY
290
     1
  9
$INSUNITS
 70
     1
  9
$HYPERLINKBASE
  1

  9
$STYLESHEET
  1

  9
$XEDIT
290
     1
  9
$CEPSNTYPE
380
     0
  9
$PSTYLEMODE
290
     1
  9
$FINGERPRINTGUID
  2
{114F9182-A019-4C9F-86F6-076F9843BA55}
  9
$VERSIONGUID
  2
{FAEB1C32-E019-11D5-929B-00C0DF256EC4}
  9
$EXTNAMES
290
     1
  9
$PSVPSCALE
 40
0.0
  9
$OLESTARTUP
290
     0
  9
$SORTENTS
280
   127
  9
$INDEXCTL
280
     0
  9
$HIDETEXT
280
     1
  9
$XCLIPFRAME
280
     2
  9
$HALOGAP
280
     0
  9
$OBSCOLOR
 70
   257
  9
$OBSLTYPE
280
     0
  9
$INTERSECTIONDISPLAY
280
     0
  9
$INTERSECTIONCOLOR
 70
   257
  9
$DIMASSOC
280
     2
  9
$PROJECTNAME
  1

  9
$CAMERADISPLAY
290
     0
  9
$LENSLENGTH
 40
50.0
  9
$CAMERAHEIGHT
 40
0.0
  9
$STEPSPERSEC
 40
2.0
  9
$STEPSIZE
 40
6.0
  9
$3DDWFPREC
 40
2.0
  9
$PSOLWIDTH
 40
0.25
  9
$PSOLHEIGHT
 40
4.0
  9
$LOFTANG1
 40
1.570796326794897
  9
$LOFTANG2
 40
1.570796326794897
  9
$LOFTMAG1
 40
0.0
  9
$LOFTMAG2
 40
0.0
  9
$LOFTPARAM
 70
     7
  9
$LOFTNORMALS
280
     1
  9
$LATITUDE
 40
37.795
  9
$LONGITUDE
 40
-122.394
  9
$NORTHDIRECTION
 40
0.0
  9
$TIMEZONE
 70
 -8000
  9
$LIGHTGLYPHDISPLAY
280
     1
  9
$TILEMODELIGHTSYNCH
280
     1
  9
$CMATERIAL
347
3C
  9
$SOLIDHIST
280
     1
  9
$SHOWHIST
280
     1
  9
$DWFFRAME
280
     2
  9
$DGNFRAME
280
     2
  9
$REALWORLDSCALE
290
     1
  9
$INTERFERECOLOR
 62
   256
  9
$CSHADOW
280
     0
  9
$SHADOWPLANELOCATION
 40
0.0
  0
ENDSEC
  0
SECTION
  2
CLASSES
  0
CLASS
  1
ACDBDICTIONARYWDFLT
  2
AcDbDictionaryWithDefault
  3
ObjectDBX Classes
 90
        0
 91
        4
280
     0
281
     0
  0
CLASS
  1
VISUALSTYLE
  2
AcDbVisualStyle
  3
ObjectDBX Classes
 90
     4095
 91
        4
280
     0
281
     0
  0
CLASS
  1
MATERIAL
  2
AcDbMaterial
  3
ObjectDBX Classes
 90
     1153
 91
        4
280
     0
281
     0
  0
CLASS
  1
SUN
  2
AcDbSun
  3
SCENEOE
 90
     1024
 91
        4
280
     0
281
     0
  0
ENDSEC
  0
SECTION
  2
TABLES
  0
TABLE
  2
VPORT
  5
8
330
0
100
AcDbSymbolTable
 70
     1
  0
VPORT
  5
29
330
8
100
AcDbSymbolTableRecord
100
AcDbViewportTableRecord
  2
*Active
 70
     0
 10
0.0
 20
0.0
 11
1.0
 21
1.0
 12
0.0
 22
0.0
 13
0.0
 23
0.0
 14
0.5
 24
0.5
 15
0.5
 25
0.5
 16
0.0
 26
0.0
 36
1.0
 17
18.0
 27
13.1999994913737
 37
0.0
 40
26.39999898274739
 41
1.363636416180405
 42
50.0
 43
0.0
 44
0.0
 50
0.0
 51
0.0
 71
     0
 72
   100
 73
     1
 74
     3
 75
     0
 76
     0
 77
     0
 78
     0
281
     0
 65
     1
110
0.0
120
0.0
130
0.0
111
1.0
121
0.0
131
0.0
112
0.0
122
1.0
132
0.0
 79
     0
146
0.0
 60
     3
 61
     5
292
     1
282
     1
141
0.0
142
0.0
 63
   250
361
3F
  0
ENDTAB
  0
TABLE
  2
LTYPE
  5
5
330
0
100
AcDbSymbolTable
 70
     1
  0
LTYPE
  5
14
330
5
100
AcDbSymbolTableRecord
100
AcDbLinetypeTableRecord
  2
ByBlock
 70
     0
  3

 72
    65
 73
     0
 40
0.0
  0
LTYPE
  5
15
330
5
100
AcDbSymbolTableRecord
100
AcDbLinetypeTableRecord
  2
ByLayer
 70
     0
  3

 72
    65
 73
     0
 40
0.0
  0
LTYPE
  5
16
330
5
100
AcDbSymbolTableRecord
100
AcDbLinetypeTableRecord
  2
Continuous
 70
     0
  3
Solid line
 72
    65
 73
     0
 40
0.0
  0
ENDTAB
  0
TABLE
  2
LAYER
  5
2
330
0
100
AcDbSymbolTable
 70
     2
  0
LAYER
  5
10
330
2
100
AcDbSymbolTableRecord
100
AcDbLayerTableRecord
  2
0
 70
     0
 62
     7
  6
Continuous
370
    -3
390
F
347
3E
  0
LAYER
  5
40
330
2
100
AcDbSymbolTableRecord
100
AcDbLayerTableRecord
  2
Layer 1
 70
     0
 62
     7
  6
Continuous
370
    -3
390
F
347
3E
  0
ENDTAB
  0
TABLE
  2
STYLE
  5
3
330
0
100
AcDbSymbolTable
 70
     1
  0
STYLE
  5
11
330
3
100
AcDbSymbolTableRecord
100
AcDbTextStyleTableRecord
  2
Standard
 70
     0
 40
0.0
 41
1.0
 50
0.0
 71
     0
 42
0.2
  3
txt
  4

  0
ENDTAB
  0
TABLE
  2
VIEW
  5
6
330
0
100
AcDbSymbolTable
 70
     0
  0
ENDTAB
  0
TABLE
  2
UCS
  5
7
330
0
100
AcDbSymbolTable
 70
     0
  0
ENDTAB
  0
TABLE
  2
APPID
  5
9
330
0
100
AcDbSymbolTable
 70
     1
  0
APPID
  5
12
330
9
100
AcDbSymbolTableRecord
100
AcDbRegAppTableRecord
  2
ACAD
 70
     0
  0
ENDTAB
  0
TABLE
  2
DIMSTYLE
  5
A
330
0
100
AcDbSymbolTable
 70
     1
100
AcDbDimStyleTable
  0
DIMSTYLE
105
27
330
A
100
AcDbSymbolTableRecord
100
AcDbDimStyleTableRecord
  2
Standard
 70
     0
178
     0
340
11
  0
ENDTAB
  0
TABLE
  2
BLOCK_RECORD
  5
1
330
0
100
AcDbSymbolTable
 70
     6
  0
BLOCK_RECORD
  5
1F
330
1
100
AcDbSymbolTableRecord
100
AcDbBlockTableRecord
  2
*Model_Space
340
22
 70
     0
280
     1
281
     0
  0
BLOCK_RECORD
  5
1B
330
1
100
AcDbSymbolTableRecord
100
AcDbBlockTableRecord
  2
*Paper_Space
340
1E
 70
     0
280
     1
281
     0
  0
BLOCK_RECORD
  5
23
330
1
100
AcDbSymbolTableRecord
100
AcDbBlockTableRecord
  2
*Paper_Space0
340
26
 70
     0
280
     1
281
     0
  0
BLOCK_RECORD
  5
41
330
1
100
AcDbSymbolTableRecord
100
AcDbBlockTableRecord
  2
block 2
340
0
102
{BLKREFS
331
42
102
}
 70
     0
280
     1
281
     0
  0
BLOCK_RECORD
  5
45
330
1
100
AcDbSymbolTableRecord
100
AcDbBlockTableRecord
  2
block 3
340
0
102
{BLKREFS
331
46
102
}
 70
     0
280
     1
281
     0
  0
BLOCK_RECORD
  5
4A
330
1
100
AcDbSymbolTableRecord
100
AcDbBlockTableRecord
  2
block 4
340
0
102
{BLKREFS
331
4B
102
}
 70
     0
280
     1
281
     0
  0
BLOCK_RECORD
  5
4F
330
1
100
AcDbSymbolTableRecord
100
AcDbBlockTableRecord
  2
block 5
340
0
102
{BLKREFS
331
50
102
}
 70
     0
280
     1
281
     0
  0
BLOCK_RECORD
  5
54
330
1
100
AcDbSymbolTableRecord
100
AcDbBlockTableRecord
  2
block 6
340
0
102
{BLKREFS
331
55
102
}
 70
     0
280
     1
281
     0
  0
ENDTAB
  0
ENDSEC
  0
SECTION
  2
BLOCKS
  0
BLOCK
  5
20
330
1F
100
AcDbEntity
  8
0
100
AcDbBlockBegin
  2
*Model_Space
 70
     0
 10
0.0
 20
0.0
 30
0.0
  3
*Model_Space
  1

  0
ENDBLK
  5
21
330
1F
100
AcDbEntity
  8
0
100
AcDbBlockEnd
  0
BLOCK
  5
1C
330
1B
100
AcDbEntity
 67
     1
  8
0
100
AcDbBlockBegin
  2
*Paper_Space
 70
     0
 10
0.0
 20
0.0
 30
0.0
  3
*Paper_Space
  1

  0
ENDBLK
  5
1D
330
1B
100
AcDbEntity
 67
     1
  8
0
100
AcDbBlockEnd
  0
BLOCK
  5
24
330
23
100
AcDbEntity
  8
0
100
AcDbBlockBegin
  2
*Paper_Space0
 70
     0
 10
0.0
 20
0.0
 30
0.0
  3
*Paper_Space0
  1

  0
ENDBLK
  5
25
330
23
100
AcDbEntity
  8
0
100
AcDbBlockEnd
  0
BLOCK
  5
43
330
41
100
AcDbEntity
  8
0
100
AcDbBlockBegin
  2
block 2
 70
     0
 10
0.0
 20
0.0
 30
0.0
  3
block 2
  1

  0
INSERT
  5
46
330
41
100
AcDbEntity
  8
Layer 1
100
AcDbBlockReference
  2
block 3
 10
0.0
 20
0.0
 30
0.0
  0
INSERT
  5
4B
330
41
100
AcDbEntity
  8
Layer 1
100
AcDbBlockReference
  2
block 4
 10
0.0
 20
0.0
 30
0.0
  0
INSERT
  5
50
330
41
100
AcDbEntity
  8
Layer 1
100
AcDbBlockReference
  2
block 5
 10
0.0
 20
0.0
 30
0.0
  0
INSERT
  5
55
330
41
100
AcDbEntity
  8
Layer 1
100
AcDbBlockReference
  2
block 6
 10
0.0
 20
0.0
 30
0.0
  0
ENDBLK
  5
44
330
41
100
AcDbEntity
  8
0
100
AcDbBlockEnd
  0
BLOCK
  5
47
330
45
100
AcDbEntity
  8
0
100
AcDbBlockBegin
  2
block 3
 70
     0
 10
0.0
 20
0.0
 30
0.0
  3
block 3
  1

  0
SPLINE
  5
49
330
45
100
AcDbEntity
  8
Layer 1
 62
     1
420
 16716306
370
    35
100
AcDbSpline
210
0.0
220
0.0
230
1.0
 70
    11
 71
     3
 72
   611
 73
   607
 74
     0
 42
0.0000000001
 43
0.0000000001
 12
1.0
 22
0.0
 32
0.0
 13
1.0
 23
0.0
 33
0.0
 40
0.0
 40
0.0
 40
0.0
 40
0.0
 40
1.0
 40
1.0
 40
1.0
 40
2.0
 40
2.0
 40
2.0
 40
3.0
 40
3.0
 40
3.0
 40
4.0
 40
4.0
 40
4.0
 40
5.0
 40
5.0
 40
5.0
 40
6.0
 40
6.0
 40
6.0
 40
7.0
 40
7.0
 40
7.0
 40
8.0
 40
8.0
 40
8.0
 40
9.0
 40
9.0
 40
9.0
 40
10.0
 40
10.0
 40
10.0
 40
11.0
 40
11.0
 40
11.0
 40
12.0
 40
12.0
 40
12.0
 40
13.0
 40
13.0
 40
13.0
 40
14.0
 40
14.0
 40
14.0
 40
15.0
 40
15.0
 40
15.0
 40
16.0
 40
16.0
 40
16.0
 40
17.0
 40
17.0
 40
17.0
 40
18.0
 40
18.0
 40
18.0
 40
19.0
 40
19.0
 40
19.0
 40
20.0
 40
20.0
 40
20.0
 40
21.0
 40
21.0
 40
21.0
 40
22.0
 40
22.0
 40
22.0
 40
23.0
 40
23.0
 40
23.0
 40
24.0
 40
24.0
 40
24.0
 40
25.0
 40
25.0
 40
25.0
 40
26.0
 40
26.0
 40
26.0
 40
27.0
 40
27.0
 40
27.0
 40
28.0
 40
28.0
 40
28.0
 40
29.0
 40
29.0
 40
29.0
 40
30.0
 40
30.0
 40
30.0
 40
31.0
 40
31.0
 40
31.0
 40
32.0
 40
32.0
 40
32.0
 40
33.0
 40
33.0
 40
33.0
 40
34.0
 40
34.0
 40
34.0
 40
35.0
 40
35.0
 40
35.0
 40
36.0
 40
36.0
 40
36.0
 40
37.0
 40
37.0
 40
37.0
 40
38.0
 40
38.0
 40
38.0
 40
39.0
 40
39.0
 40
39.0
 40
40.0
 40
40.0
 40
40.0
 40
41.0
 40
41.0
 40
41.0
 40
42.0
 40
42.0
 40
42.0
 40
43.0
 40
43.0
 40
43.0
 40
44.0
 40
44.0
 40
44.0
 40
45.0
 40
45.0
 40
45.0
 40
46.0
 40
46.0
 40
46.0
 40
47.0
 40
47.0
 40
47.0
 40
48.0
 40
48.0
 40
48.0
 40
49.0
 40
49.0
 40
49.0
 40
50.0
 40
50.0
 40
50.0
 40
51.0
 40
51.0
 40
51.0
 40
52.0
 40
52.0
 40
52.0
 40
53.0
 40
53.0
 40
53.0
 40
54.0
 40
54.0
 40
54.0
 40
55.0
 40
55.0
 40
55.0
 40
56.0
 40
56.0
 40
56.0
 40
57.0
 40
57.0
 40
57.0
 40
58.0
 40
58.0
 40
58.0
 40
59.0
 40
59.0
 40
59.0
 40
60.0
 40
60.0
 40
60.0
 40
61.0
 40
61.0
 40
61.0
 40
62.0
 40
62.0
 40
62.0
 40
63.0
 40
63.0
 40
63.0
 40
64.0
 40
64.0
 40
64.0
 40
65.0
 40
65.0
 40
65.0
 40
66.0
 40
66.0
 40
66.0
 40
67.0
 40
67.0
 40
67.0
 40
68.0
 40
68.0
 40
68.0
 40
69.0
 40
69.0
 40
69.0
 40
70.0
 40
70.0
 40
70.0
 40
71.0
 40
71.0
 40
71.0
 40
72.0
 40
72.0
 40
72.0
 40
73.0
 40
73.0
 40
73.0
 40
74.0
 40
74.0
 40
74.0
 40
75.0
 40
75.0
 40
75.0
 40
76.0
 40
76.0
 40
76.0
 40
77.0
 40
77.0
 40
77.0
 40
78.0
 40
78.0
 40
78.0
 40
79.0
 40
79.0
 40
79.0
 40
80.0
 40
80.0
 40
80.0
 40
81.0
 40
81.0
 40
81.0
 40
82.0
 40
82.0
 40
82.0
 40
83.0
 40
83.0
 40
83.0
 40
84.0
 40
84.0
 40
84.0
 40
85.0
 40
85.0
 40
85.0
 40
86.0
 40
86.0
 40
86.0
 40
87.0
 40
87.0
 40
87.0
 40
88.0
 40
88.0
 40
88.0
 40
89.0
 40
89.0
 40
89.0
 40
90.0
 40
90.0
 40
90.0
 40
91.0
 40
91.0
 40
91.0
 40
92.0
 40
92.0
 40
92.0
 40
93.0
 40
93.0
 40
93.0
 40
94.0
 40
94.0
 40
94.0
 40
95.0
 40
95.0
 40
95.0
 40
96.0
 40
96.0
 40
96.0
 40
97.0
 40
97.0
 40
97.0
 40
98.0
 40
98.0
 40
98.0
 40
99.0
 40
99.0
 40
99.0
 40
100.0
 40
100.0
 40
100.0
 40
101.0
 40
101.0
 40
101.0
 40
102.0
 40
102.0
 40
102.0
 40
103.0
 40
103.0
 40
103.0
 40
104.0
 40
104.0
 40
104.0
 40
105.0
 40
105.0
 40
105.0
 40
106.0
 40
106.0
 40
106.0
 40
107.0
 40
107.0
 40
107.0
 40
108.0
 40
108.0
 40
108.0
 40
109.0
 40
109.0
 40
109.0
 40
110.0
 40
110.0
 40
110.0
 40
111.0
 40
111.0
 40
111.0
 40
112.0
 40
112.0
 40
112.0
 40
113.0
 40
113.0
 40
113.0
 40
114.0
 40
114.0
 40
114.0
 40
115.0
 40
115.0
 40
115.0
 40
116.0
 40
116.0
 40
116.0
 40
117.0
 40
117.0
 40
117.0
 40
118.0
 40
118.0
 40
118.0
 40
119.0
 40
119.0
 40
119.0
 40
120.0
 40
120.0
 40
120.0
 40
121.0
 40
121.0
 40
121.0
 40
122.0
 40
122.0
 40
122.0
 40
123.0
 40
123.0
 40
123.0
 40
124.0
 40
124.0
 40
124.0
 40
125.0
 40
125.0
 40
125.0
 40
126.0
 40
126.0
 40
126.0
 40
127.0
 40
127.0
 40
127.0
 40
128.0
 40
128.0
 40
128.0
 40
129.0
 40
129.0
 40
129.0
 40
130.0
 40
130.0
 40
130.0
 40
131.0
 40
131.0
 40
131.0
 40
132.0
 40
132.0
 40
132.0
 40
133.0
 40
133.0
 40
133.0
 40
134.0
 40
134.0
 40
134.0
 40
135.0
 40
135.0
 40
135.0
 40
136.0
 40
136.0
 40
136.0
 40
137.0
 40
137.0
 40
137.0
 40
138.0
 40
138.0
 40
138.0
 40
139.0
 40
139.0
 40
139.0
 40
140.0
 40
140.0
 40
140.0
 40
141.0
 40
141.0
 40
141.0
 40
142.0
 40
142.0
 40
142.0
 40
143.0
 40
143.0
 40
143.0
 40
144.0
 40
144.0
 40
144.0
 40
145.0
 40
145.0
 40
145.0
 40
146.0
 40
146.0
 40
146.0
 40
147.0
 40
147.0
 40
147.0
 40
148.0
 40
148.0
 40
148.0
 40
149.0
 40
149.0
 40
149.0
 40
150.0
 40
150.0
 40
150.0
 40
151.0
 40
151.0
 40
151.0
 40
152.0
 40
152.0
 40
152.0
 40
153.0
 40
153.0
 40
153.0
 40
154.0
 40
154.0
 40
154.0
 40
155.0
 40
155.0
 40
155.0
 40
156.0
 40
156.0
 40
156.0
 40
157.0
 40
157.0
 40
157.0
 40
158.0
 40
158.0
 40
158.0
 40
159.0
 40
159.0
 40
159.0
 40
160.0
 40
160.0
 40
160.0
 40
161.0
 40
161.0
 40
161.0
 40
162.0
 40
162.0
 40
162.0
 40
163.0
 40
163.0
 40
163.0
 40
164.0
 40
164.0
 40
164.0
 40
165.0
 40
165.0
 40
165.0
 40
166.0
 40
166.0
 40
166.0
 40
167.0
 40
167.0
 40
167.0
 40
168.0
 40
168.0
 40
168.0
 40
169.0
 40
169.0
 40
169.0
 40
170.0
 40
170.0
 40
170.0
 40
171.0
 40
171.0
 40
171.0
 40
172.0
 40
172.0
 40
172.0
 40
173.0
 40
173.0
 40
173.0
 40
174.0
 40
174.0
 40
174.0
 40
175.0
 40
175.0
 40
175.0
 40
176.0
 40
176.0
 40
176.0
 40
177.0
 40
177.0
 40
177.0
 40
178.0
 40
178.0
 40
178.0
 40
179.0
 40
179.0
 40
179.0
 40
180.0
 40
180.0
 40
180.0
 40
181.0
 40
181.0
 40
181.0
 40
182.0
 40
182.0
 40
182.0
 40
183.0
 40
183.0
 40
183.0
 40
184.0
 40
184.0
 40
184.0
 40
185.0
 40
185.0
 40
185.0
 40
186.0
 40
186.0
 40
186.0
 40
187.0
 40
187.0
 40
187.0
 40
188.0
 40
188.0
 40
188.0
 40
189.0
 40
189.0
 40
189.0
 40
190.0
 40
190.0
 40
190.0
 40
191.0
 40
191.0
 40
191.0
 40
192.0
 40
192.0
 40
192.0
 40
193.0
 40
193.0
 40
193.0
 40
194.0
 40
194.0
 40
194.0
 40
195.0
 40
195.0
 40
195.0
 40
196.0
 40
196.0
 40
196.0
 40
197.0
 40
197.0
 40
197.0
 40
198.0
 40
198.0
 40
198.0
 40
199.0
 40
199.0
 40
199.0
 40
200.0
 40
200.0
 40
200.0
 40
201.0
 40
201.0
 40
201.0
 40
202.0
 40
202.0
 40
202.0
 40
202.0
 10
1.991160922580295
 20
21.57176902559068
 30
0.0
 10
1.991160922580295
 20
21.57176902559068
 30
0.0
 10
2.029911041259766
 20
21.67593569225735
 30
0.0
 10
2.029911041259766
 20
21.67593569225735
 30
0.0
 10
2.029911041259766
 20
21.67593569225735
 30
0.0
 10
2.073939005533854
 20
21.78413009643555
 30
0.0
 10
2.073939005533854
 20
21.78413009643555
 30
0.0
 10
2.073939005533854
 20
21.78413009643555
 30
0.0
 10
2.123522016737196
 20
21.89524120754666
 30
0.0
 10
2.123522016737196
 20
21.89524120754666
 30
0.0
 10
2.123522016737196
 20
21.89524120754666
 30
0.0
 10
2.179077572292752
 20
22.00996345943875
 30
0.0
 10
2.179077572292752
 20
22.00996345943875
 30
0.0
 10
2.179077572292752
 20
22.00996345943875
 30
0.0
 10
2.239355723063151
 20
22.12635231018066
 30
0.0
 10
2.239355723063151
 20
22.12635231018066
 30
0.0
 10
2.239355723063151
 20
22.12635231018066
 30
0.0
 10
2.304216596815321
 20
22.24301899804009
 30
0.0
 10
2.304216596815321
 20
22.24301899804009
 30
0.0
 10
2.304216596815321
 20
22.24301899804009
 30
0.0
 10
2.372827741834852
 20
22.35843563079834
 30
0.0
 10
2.372827741834852
 20
22.35843563079834
 30
0.0
 10
2.372827741834852
 20
22.35843563079834
 30
0.0
 10
2.443938785129123
 20
22.47065787845188
 30
0.0
 10
2.443938785129123
 20
22.47065787845188
 30
0.0
 10
2.443938785129123
 20
22.47065787845188
 30
0.0
 10
2.516716851128472
 20
22.57829676734076
 30
0.0
 10
2.516716851128472
 20
22.57829676734076
 30
0.0
 10
2.516716851128472
 20
22.57829676734076
 30
0.0
 10
2.589911142985026
 20
22.67982461717394
 30
0.0
 10
2.589911142985026
 20
22.67982461717394
 30
0.0
 10
2.589911142985026
 20
22.67982461717394
 30
0.0
 10
2.663244459364149
 20
22.77440791659885
 30
0.0
 10
2.663244459364149
 20
22.77440791659885
 30
0.0
 10
2.663244459364149
 20
22.77440791659885
 30
0.0
 10
2.736022101508246
 20
22.86149130927192
 30
0.0
 10
2.736022101508246
 20
22.86149130927192
 30
0.0
 10
2.736022101508246
 20
22.86149130927192
 30
0.0
 10
2.80810546875
 20
22.94107458326551
 30
0.0
 10
2.80810546875
 20
22.94107458326551
 30
0.0
 10
2.80810546875
 20
22.94107458326551
 30
0.0
 10
2.879494561089409
 20
23.01315795050727
 30
0.0
 10
2.879494561089409
 20
23.01315795050727
 30
0.0
 10
2.879494561089409
 20
23.01315795050727
 30
0.0
 10
2.879911210801866
 20
23.01399124993218
 30
0.0
 10
2.879911210801866
 20
23.01399124993218
 30
0.0
 10
2.879911210801866
 20
23.01399124993218
 30
0.0
 10
2.747550116644965
 20
23.05038007100423
 30
0.0
 10
2.747550116644965
 20
23.05038007100423
 30
0.0
 10
2.747550116644965
 20
23.05038007100423
 30
0.0
 10
2.747550116644965
 20
23.05038007100423
 30
0.0
 10
2.747550116644965
 20
23.05038007100423
 30
0.0
 10
2.747550116644965
 20
23.05038007100423
 30
0.0
 10
2.553105672200521
 20
23.08857451544867
 30
0.0
 10
2.553105672200521
 20
23.08857451544867
 30
0.0
 10
2.553105672200521
 20
23.08857451544867
 30
0.0
 10
2.553105672200521
 20
23.08871353997124
 30
0.0
 10
2.553105672200521
 20
23.08871353997124
 30
0.0
 10
2.553105672200521
 20
23.08871353997124
 30
0.0
 10
2.431022220187717
 20
23.11288007100423
 30
0.0
 10
2.431022220187717
 20
23.11288007100423
 30
0.0
 10
2.431022220187717
 20
23.11288007100423
 30
0.0
 10
2.428938971625434
 20
23.1130190955268
 30
0.0
 10
2.428938971625434
 20
23.1130190955268
 30
0.0
 10
2.428938971625434
 20
23.1130190955268
 30
0.0
 10
2.464772118462456
 20
23.1755190955268
 30
0.0
 10
2.464772118462456
 20
23.1755190955268
 30
0.0
 10
2.464772118462456
 20
23.1755190955268
 30
0.0
 10
2.50435553656684
 20
23.24176894293891
 30
0.0
 10
2.50435553656684
 20
23.24176894293891
 30
0.0
 10
2.50435553656684
 20
23.24176894293891
 30
0.0
 10
2.547966851128472
 20
23.31121338738335
 30
0.0
 10
2.547966851128472
 20
23.31121338738335
 30
0.0
 10
2.547966851128472
 20
23.31121338738335
 30
0.0
 10
2.5956056382921
 20
23.38496335347493
 30
0.0
 10
2.5956056382921
 20
23.38496335347493
 30
0.0
 10
2.5956056382921
 20
23.38496335347493
 30
0.0
 10
2.646994272867838
 20
23.46232456631131
 30
0.0
 10
2.646994272867838
 20
23.46232456631131
 30
0.0
 10
2.646994272867838
 20
23.46232456631131
 30
0.0
 10
2.702549828423394
 20
23.54246351453993
 30
0.0
 10
2.702549828423394
 20
23.54246351453993
 30
0.0
 10
2.702549828423394
 20
23.54246351453993
 30
0.0
 10
2.760466681586371
 20
23.62482452392578
 30
0.0
 10
2.760466681586371
 20
23.62482452392578
 30
0.0
 10
2.760466681586371
 20
23.62482452392578
 30
0.0
 10
2.821022033691406
 20
23.70815785725911
 30
0.0
 10
2.821022033691406
 20
23.70815785725911
 30
0.0
 10
2.821022033691406
 20
23.70815785725911
 30
0.0
 10
2.946022033691406
 20
23.87385241190592
 30
0.0
 10
2.946022033691406
 20
23.87385241190592
 30
0.0
 10
2.946022033691406
 20
23.87385241190592
 30
0.0
 10
3.009772406684028
 20
23.95399114820692
 30
0.0
 10
3.009772406684028
 20
23.95399114820692
 30
0.0
 10
3.009772406684028
 20
23.95399114820692
 30
0.0
 10
3.073383331298828
 20
24.03149117363824
 30
0.0
 10
3.073383331298828
 20
24.03149117363824
 30
0.0
 10
3.073383331298828
 20
24.03149117363824
 30
0.0
 10
3.136716630723741
 20
24.10579681396484
 30
0.0
 10
3.136716630723741
 20
24.10579681396484
 30
0.0
 10
3.136716630723741
 20
24.10579681396484
 30
0.0
 10
3.199633280436198
 20
24.17690785725911
 30
0.0
 10
3.199633280436198
 20
24.17690785725911
 30
0.0
 10
3.199633280436198
 20
24.17690785725911
 30
0.0
 10
3.261855655246311
 20
24.24482451544867
 30
0.0
 10
3.261855655246311
 20
24.24482451544867
 30
0.0
 10
3.261855655246311
 20
24.24482451544867
 30
0.0
 10
3.323661168416341
 20
24.30926895141602
 30
0.0
 10
3.323661168416341
 20
24.30926895141602
 30
0.0
 10
3.323661168416341
 20
24.30926895141602
 30
0.0
 10
3.324494467841254
 20
24.30940797593858
 30
0.0
 10
3.324494467841254
 20
24.30940797593858
 30
0.0
 10
3.324494467841254
 20
24.30940797593858
 30
0.0
 10
3.249772389729817
 20
24.33343569437663
 30
0.0
 10
3.249772389729817
 20
24.33343569437663
 30
0.0
 10
3.249772389729817
 20
24.33343569437663
 30
0.0
 10
3.174494425455729
 20
24.35593562655979
 30
0.0
 10
3.174494425455729
 20
24.35593562655979
 30
0.0
 10
3.174494425455729
 20
24.35593562655979
 30
0.0
 10
3.09935548570421
 20
24.37676895989312
 30
0.0
 10
3.09935548570421
 20
24.37676895989312
 30
0.0
 10
3.09935548570421
 20
24.37676895989312
 30
0.0
 10
3.024911244710286
 20
24.39565785725911
 30
0.0
 10
3.024911244710286
 20
24.39565785725911
 30
0.0
 10
3.024911244710286
 20
24.39565785725911
 30
0.0
 10
2.95296647813585
 20
24.41176901923285
 30
0.0
 10
2.95296647813585
 20
24.41176901923285
 30
0.0
 10
2.95296647813585
 20
24.41176901923285
 30
0.0
 10
2.918383280436198
 20
24.41857443915473
 30
0.0
 10
2.918383280436198
 20
24.41857443915473
 30
0.0
 10
2.918383280436198
 20
24.41857443915473
 30
0.0
 10
2.884911007351346
 20
24.42468558417426
 30
0.0
 10
2.884911007351346
 20
24.42468558417426
 30
0.0
 10
2.884911007351346
 20
24.42468558417426
 30
0.0
 10
2.852550082736545
 20
24.42982440524631
 30
0.0
 10
2.852550082736545
 20
24.42982440524631
 30
0.0
 10
2.852550082736545
 20
24.42982440524631
 30
0.0
 10
2.821716732449002
 20
24.43412992689344
 30
0.0
 10
2.821716732449002
 20
24.43412992689344
 30
0.0
 10
2.821716732449002
 20
24.43412992689344
 30
0.0
 10
2.791994306776258
 20
24.43746354844835
 30
0.0
 10
2.791994306776258
 20
24.43746354844835
 30
0.0
 10
2.791994306776258
 20
24.43746354844835
 30
0.0
 10
2.763522254096137
 20
24.43996344672309
 30
0.0
 10
2.763522254096137
 20
24.43996344672309
 30
0.0
 10
2.763522254096137
 20
24.43996344672309
 30
0.0
 10
2.762827979193793
 20
24.4396858215332
 30
0.0
 10
2.762827979193793
 20
24.4396858215332
 30
0.0
 10
2.762827979193793
 20
24.4396858215332
 30
0.0
 10
2.774216545952691
 20
24.45968585544162
 30
0.0
 10
2.774216545952691
 20
24.45968585544162
 30
0.0
 10
2.774216545952691
 20
24.45968585544162
 30
0.0
 10
2.78810543484158
 20
24.48343573676215
 30
0.0
 10
2.78810543484158
 20
24.48343573676215
 30
0.0
 10
2.78810543484158
 20
24.48343573676215
 30
0.0
 10
2.805188920762804
 20
24.51121351453993
 30
0.0
 10
2.805188920762804
 20
24.51121351453993
 30
0.0
 10
2.805188920762804
 20
24.51121351453993
 30
0.0
 10
2.825188954671224
 20
24.54246351453993
 30
0.0
 10
2.825188954671224
 20
24.54246351453993
 30
0.0
 10
2.825188954671224
 20
24.54246351453993
 30
0.0
 10
2.847688886854383
 20
24.57704671223958
 30
0.0
 10
2.847688886854383
 20
24.57704671223958
 30
0.0
 10
2.847688886854383
 20
24.57704671223958
 30
0.0
 10
2.872550116644965
 20
24.61440785725911
 30
0.0
 10
2.872550116644965
 20
24.61440785725911
 30
0.0
 10
2.872550116644965
 20
24.61440785725911
 30
0.0
 10
2.927133348253038
 20
24.69496324327257
 30
0.0
 10
2.927133348253038
 20
24.69496324327257
 30
0.0
 10
2.927133348253038
 20
24.69496324327257
 30
0.0
 10
2.984772152370877
 20
24.7782965766059
 30
0.0
 10
2.984772152370877
 20
24.7782965766059
 30
0.0
 10
2.984772152370877
 20
24.7782965766059
 30
0.0
 10
3.042133331298828
 20
24.85801908704969
 30
0.0
 10
3.042133331298828
 20
24.85801908704969
 30
0.0
 10
3.042133331298828
 20
24.85801908704969
 30
0.0
 10
3.155605740017361
 20
25.00746324327257
 30
0.0
 10
3.155605740017361
 20
25.00746324327257
 30
0.0
 10
3.155605740017361
 20
25.00746324327257
 30
0.0
 10
3.216438717312283
 20
25.08426920572916
 30
0.0
 10
3.216438717312283
 20
25.08426920572916
 30
0.0
 10
3.216438717312283
 20
25.08426920572916
 30
0.0
 10
3.282549964057075
 20
25.16635216606988
 30
0.0
 10
3.282549964057075
 20
25.16635216606988
 30
0.0
 10
3.282549964057075
 20
25.16635216606988
 30
0.0
 10
3.353244357638889
 20
25.25288009643555
 30
0.0
 10
3.353244357638889
 20
25.25288009643555
 30
0.0
 10
3.353244357638889
 20
25.25288009643555
 30
0.0
 10
3.425883399115668
 20
25.34051895141602
 30
0.0
 10
3.425883399115668
 20
25.34051895141602
 30
0.0
 10
3.425883399115668
 20
25.34051895141602
 30
0.0
 10
3.497688929239909
 20
25.4249636332194
 30
0.0
 10
3.497688929239909
 20
25.4249636332194
 30
0.0
 10
3.497688929239909
 20
25.4249636332194
 30
0.0
 10
3.56616104973687
 20
25.50301912095811
 30
0.0
 10
3.56616104973687
 20
25.50301912095811
 30
0.0
 10
3.56616104973687
 20
25.50301912095811
 30
0.0
 10
3.598661210801866
 20
25.53885226779514
 30
0.0
 10
3.598661210801866
 20
25.53885226779514
 30
0.0
 10
3.598661210801866
 20
25.53885226779514
 30
0.0
 10
3.63005002339681
 20
25.57274119059245
 30
0.0
 10
3.63005002339681
 20
25.57274119059245
 30
0.0
 10
3.63005002339681
 20
25.57274119059245
 30
0.0
 10
3.66005007425944
 20
25.60426881578233
 30
0.0
 10
3.66005007425944
 20
25.60426881578233
 30
0.0
 10
3.66005007425944
 20
25.60426881578233
 30
0.0
 10
3.688938988579644
 20
25.63371361626519
 30
0.0
 10
3.688938988579644
 20
25.63371361626519
 30
0.0
 10
3.688938988579644
 20
25.63371361626519
 30
0.0
 10
3.690049913194444
 20
25.63315794203016
 30
0.0
 10
3.690049913194444
 20
25.63315794203016
 30
0.0
 10
3.690049913194444
 20
25.63315794203016
 30
0.0
 10
3.615049997965495
 20
25.65926912095811
 30
0.0
 10
3.615049997965495
 20
25.65926912095811
 30
0.0
 10
3.615049997965495
 20
25.65926912095811
 30
0.0
 10
3.531716664632161
 20
25.68468560112847
 30
0.0
 10
3.531716664632161
 20
25.68468560112847
 30
0.0
 10
3.531716664632161
 20
25.68468560112847
 30
0.0
 10
3.439633263481988
 20
25.70940780639648
 30
0.0
 10
3.439633263481988
 20
25.70940780639648
 30
0.0
 10
3.439633263481988
 20
25.70940780639648
 30
0.0
 10
3.339216656155056
 20
25.73343573676215
 30
0.0
 10
3.339216656155056
 20
25.73343573676215
 30
0.0
 10
3.339216656155056
 20
25.73343573676215
 30
0.0
 10
3.230883280436198
 20
25.75649134318034
 30
0.0
 10
3.230883280436198
 20
25.75649134318034
 30
0.0
 10
3.230883280436198
 20
25.75649134318034
 30
0.0
 10
3.115605672200521
 20
25.77857462565104
 30
0.0
 10
3.115605672200521
 20
25.77857462565104
 30
0.0
 10
3.115605672200521
 20
25.77857462565104
 30
0.0
 10
2.872966766357422
 20
25.81885231865777
 30
0.0
 10
2.872966766357422
 20
25.81885231865777
 30
0.0
 10
2.872966766357422
 20
25.81885231865777
 30
0.0
 10
2.751160939534505
 20
25.83663007948133
 30
0.0
 10
2.751160939534505
 20
25.83663007948133
 30
0.0
 10
2.751160939534505
 20
25.83663007948133
 30
0.0
 10
2.633244408501519
 20
25.85218556722005
 30
0.0
 10
2.633244408501519
 20
25.85218556722005
 30
0.0
 10
2.633244408501519
 20
25.85218556722005
 30
0.0
 10
2.522133297390408
 20
25.86607445610894
 30
0.0
 10
2.522133297390408
 20
25.86607445610894
 30
0.0
 10
2.522133297390408
 20
25.86607445610894
 30
0.0
 10
2.420883178710938
 20
25.87676917182074
 30
0.0
 10
2.420883178710938
 20
25.87676917182074
 30
0.0
 10
2.420883178710938
 20
25.87676917182074
 30
0.0
 10
2.374494340684679
 20
25.8812132941352
 30
0.0
 10
2.374494340684679
 20
25.8812132941352
 30
0.0
 10
2.374494340684679
 20
25.8812132941352
 30
0.0
 10
2.331161075168186
 20
25.88482454087999
 30
0.0
 10
2.331161075168186
 20
25.88482454087999
 30
0.0
 10
2.331161075168186
 20
25.88482454087999
 30
0.0
 10
2.291022406684028
 20
25.88788011338976
 30
0.0
 10
2.291022406684028
 20
25.88788011338976
 30
0.0
 10
2.291022406684028
 20
25.88788011338976
 30
0.0
 10
2.253938886854383
 20
25.89024141099718
 30
0.0
 10
2.253938886854383
 20
25.89024141099718
 30
0.0
 10
2.253938886854383
 20
25.89024141099718
 30
0.0
 10
2.220188988579644
 20
25.891908009847
 30
0.0
 10
2.220188988579644
 20
25.891908009847
 30
0.0
 10
2.220188988579644
 20
25.891908009847
 30
0.0
 10
2.189633263481988
 20
25.89287990993924
 30
0.0
 10
2.189633263481988
 20
25.89287990993924
 30
0.0
 10
2.189633263481988
 20
25.89287990993924
 30
0.0
 10
2.16185548570421
 20
25.89287990993924
 30
0.0
 10
2.16185548570421
 20
25.89287990993924
 30
0.0
 10
2.16185548570421
 20
25.89287990993924
 30
0.0
 10
2.137688954671224
 20
25.89287990993924
 30
0.0
 10
2.137688954671224
 20
25.89287990993924
 30
0.0
 10
2.137688954671224
 20
25.89287990993924
 30
0.0
 10
2.13935555352105
 20
25.89274130927192
 30
0.0
 10
2.13935555352105
 20
25.89274130927192
 30
0.0
 10
2.13935555352105
 20
25.89274130927192
 30
0.0
 10
2.13935555352105
 20
26.32760238647461
 30
0.0
 10
2.13935555352105
 20
26.32760238647461
 30
0.0
 10
2.13935555352105
 20
26.32760238647461
 30
0.0
 10
2.138938903808594
 20
26.32718573676215
 30
0.0
 10
2.138938903808594
 20
26.32718573676215
 30
0.0
 10
2.138938903808594
 20
26.35249879625108
 30
0.0
 10
2.118418799506293
 20
26.37301890055338
 30
0.0
 10
2.093105740017361
 20
26.37301890055338
 30
0.0
 10
2.093105740017361
 20
26.37301890055338
 30
0.0
 10
2.092827690972222
 20
26.37357457478841
 30
0.0
 10
2.092827690972222
 20
26.37357457478841
 30
0.0
 10
2.092827690972222
 20
26.37357457478841
 30
0.0
 10
1.914494408501519
 20
26.37357457478841
 30
0.0
 10
1.914494408501519
 20
26.37357457478841
 30
0.0
 10
1.914494408501519
 20
26.37357457478841
 30
0.0
 10
1.914772033691406
 20
26.37357457478841
 30
0.0
 10
1.914772033691406
 20
26.37357457478841
 30
0.0
 10
1.914772033691406
 20
26.37357457478841
 30
0.0
 10
1.82699457804362
 20
26.37357457478841
 30
0.0
 10
1.82699457804362
 20
26.37357457478841
 30
0.0
 10
1.82699457804362
 20
26.37357457478841
 30
0.0
 10
1.826716528998481
 20
26.37343555026584
 30
0.0
 10
1.826716528998481
 20
26.37343555026584
 30
0.0
 10
1.826716528998481
 20
26.37343555026584
 30
0.0
 10
1.647688971625434
 20
26.37343555026584
 30
0.0
 10
1.647688971625434
 20
26.37343555026584
 30
0.0
 10
1.647688971625434
 20
26.37343555026584
 30
0.0
 10
1.646022372775608
 20
26.37371359931098
 30
0.0
 10
1.646022372775608
 20
26.37371359931098
 30
0.0
 10
1.620709313286675
 20
26.37371359931098
 30
0.0
 10
1.600188785129123
 20
26.35319349500868
 30
0.0
 10
1.600188785129123
 20
26.32788043551975
 30
0.0
 10
1.600188785129123
 20
26.32788043551975
 30
0.0
 10
1.600188785129123
 20
26.32788001166449
 30
0.0
 10
1.600188785129123
 20
26.32788001166449
 30
0.0
 10
1.600188785129123
 20
26.32788001166449
 30
0.0
 10
1.60185538397895
 20
26.32829666137695
 30
0.0
 10
1.60185538397895
 20
26.32829666137695
 30
0.0
 10
1.60185538397895
 20
26.32829666137695
 30
0.0
 10
1.60185538397895
 20
25.89274130927192
 30
0.0
 10
1.60185538397895
 20
25.89274130927192
 30
0.0
 10
1.60185538397895
 20
25.89274130927192
 30
0.0
 10
1.60185538397895
 20
25.89274130927192
 30
0.0
 10
1.60185538397895
 20
25.89274130927192
 30
0.0
 10
1.60185538397895
 20
25.89274130927192
 30
0.0
 10
1.577688852945963
 20
25.89274130927192
 30
0.0
 10
1.577688852945963
 20
25.89274130927192
 30
0.0
 10
1.577688852945963
 20
25.89274130927192
 30
0.0
 10
1.549911075168186
 20
25.89274130927192
 30
0.0
 10
1.549911075168186
 20
25.89274130927192
 30
0.0
 10
1.549911075168186
 20
25.89274130927192
 30
0.0
 10
1.519355350070529
 20
25.89176898532443
 30
0.0
 10
1.519355350070529
 20
25.89176898532443
 30
0.0
 10
1.519355350070529
 20
25.89176898532443
 30
0.0
 10
1.48560545179579
 20
25.89010238647461
 30
0.0
 10
1.48560545179579
 20
25.89010238647461
 30
0.0
 10
1.48560545179579
 20
25.89010238647461
 30
0.0
 10
1.448660956488715
 20
25.88774108886719
 30
0.0
 10
1.448660956488715
 20
25.88774108886719
 30
0.0
 10
1.448660956488715
 20
25.88774108886719
 30
0.0
 10
1.408383263481988
 20
25.88468551635742
 30
0.0
 10
1.408383263481988
 20
25.88468551635742
 30
0.0
 10
1.408383263481988
 20
25.88468551635742
 30
0.0
 10
1.365049997965495
 20
25.88107469346788
 30
0.0
 10
1.365049997965495
 20
25.88107469346788
 30
0.0
 10
1.365049997965495
 20
25.88107469346788
 30
0.0
 10
1.318661159939236
 20
25.87663014729818
 30
0.0
 10
1.318661159939236
 20
25.87663014729818
 30
0.0
 10
1.318661159939236
 20
25.87663014729818
 30
0.0
 10
1.217550065782335
 20
25.86593585544162
 30
0.0
 10
1.217550065782335
 20
25.86593585544162
 30
0.0
 10
1.217550065782335
 20
25.86593585544162
 30
0.0
 10
1.106438954671224
 20
25.85204696655273
 30
0.0
 10
1.106438954671224
 20
25.85204696655273
 30
0.0
 10
1.106438954671224
 20
25.85204696655273
 30
0.0
 10
0.9886610243055555
 20
25.83649105495877
 30
0.0
 10
0.9886610243055555
 20
25.83649105495877
 30
0.0
 10
0.9886610243055555
 20
25.83649105495877
 30
0.0
 10
0.8668556213378906
 20
25.8187132941352
 30
0.0
 10
0.8668556213378906
 20
25.8187132941352
 30
0.0
 10
0.8668556213378906
 20
25.8187132941352
 30
0.0
 10
0.6240776909722222
 20
25.77843560112847
 30
0.0
 10
0.6240776909722222
 20
25.77843560112847
 30
0.0
 10
0.6240776909722222
 20
25.77843560112847
 30
0.0
 10
0.5089386834038628
 20
25.75635231865777
 30
0.0
 10
0.5089386834038628
 20
25.75635231865777
 30
0.0
 10
0.5089386834038628
 20
25.75635231865777
 30
0.0
 10
0.4004664950900607
 20
25.73329671223958
 30
0.0
 10
0.4004664950900607
 20
25.73329671223958
 30
0.0
 10
0.4004664950900607
 20
25.73329671223958
 30
0.0
 10
0.3000500996907552
 20
25.70926920572916
 30
0.0
 10
0.3000500996907552
 20
25.70926920572916
 30
0.0
 10
0.3000500996907552
 20
25.70926920572916
 30
0.0
 10
0.208105723063151
 20
25.6845465766059
 30
0.0
 10
0.208105723063151
 20
25.6845465766059
 30
0.0
 10
0.208105723063151
 20
25.6845465766059
 30
0.0
 10
0.1247723897298177
 20
25.65913009643555
 30
0.0
 10
0.1247723897298177
 20
25.65913009643555
 30
0.0
 10
0.1247723897298177
 20
25.65913009643555
 30
0.0
 10
0.0499110751681858
 20
25.6330189175076
 30
0.0
 10
0.0499110751681858
 20
25.6330189175076
 30
0.0
 10
0.0499110751681858
 20
25.6330189175076
 30
0.0
 10
0.0503277248806424
 20
25.63385221693251
 30
0.0
 10
0.0503277248806424
 20
25.63385221693251
 30
0.0
 10
0.0503277248806424
 20
25.63385221693251
 30
0.0
 10
0.0790778266059028
 20
25.6044078403049
 30
0.0
 10
0.0790778266059028
 20
25.6044078403049
 30
0.0
 10
0.0790778266059028
 20
25.6044078403049
 30
0.0
 10
0.109077877468533
 20
25.57288021511502
 30
0.0
 10
0.109077877468533
 20
25.57288021511502
 30
0.0
 10
0.109077877468533
 20
25.57288021511502
 30
0.0
 10
0.1404664781358507
 20
25.53899129231771
 30
0.0
 10
0.1404664781358507
 20
25.53899129231771
 30
0.0
 10
0.1404664781358507
 20
25.53899129231771
 30
0.0
 10
0.1729668511284722
 20
25.50315772162543
 30
0.0
 10
0.1729668511284722
 20
25.50315772162543
 30
0.0
 10
0.1729668511284722
 20
25.50315772162543
 30
0.0
 10
0.241438971625434
 20
25.42510223388672
 30
0.0
 10
0.241438971625434
 20
25.42510223388672
 30
0.0
 10
0.241438971625434
 20
25.42510223388672
 30
0.0
 10
0.3132442898220486
 20
25.34065797593858
 30
0.0
 10
0.3132442898220486
 20
25.34065797593858
 30
0.0
 10
0.3132442898220486
 20
25.34065797593858
 30
0.0
 10
0.3858833312988281
 20
25.25301912095811
 30
0.0
 10
0.3858833312988281
 20
25.25301912095811
 30
0.0
 10
0.3858833312988281
 20
25.25301912095811
 30
0.0
 10
0.4565777248806424
 20
25.16649119059245
 30
0.0
 10
0.4565777248806424
 20
25.16649119059245
 30
0.0
 10
0.4565777248806424
 20
25.16649119059245
 30
0.0
 10
0.522688971625434
 20
25.08440780639648
 30
0.0
 10
0.522688971625434
 20
25.08440780639648
 30
0.0
 10
0.522688971625434
 20
25.08440780639648
 30
0.0
 10
0.5835223727756076
 20
25.00760226779514
 30
0.0
 10
0.5835223727756076
 20
25.00760226779514
 30
0.0
 10
0.5835223727756076
 20
25.00760226779514
 30
0.0
 10
0.6969943576388888
 20
24.85815768771701
 30
0.0
 10
0.6969943576388888
 20
24.85815768771701
 30
0.0
 10
0.6969943576388888
 20
24.85815768771701
 30
0.0
 10
0.7543555365668403
 20
24.77843560112847
 30
0.0
 10
0.7543555365668403
 20
24.77843560112847
 30
0.0
 10
0.7543555365668403
 20
24.77843560112847
 30
0.0
 10
0.8119943406846788
 20
24.69510226779514
 30
0.0
 10
0.8119943406846788
 20
24.69510226779514
 30
0.0
 10
0.8119943406846788
 20
24.69510226779514
 30
0.0
 10
0.8665775722927517
 20
24.61454688178168
 30
0.0
 10
0.8665775722927517
 20
24.61454688178168
 30
0.0
 10
0.8665775722927517
 20
24.61454688178168
 30
0.0
 10
0.8914388020833333
 20
24.57718573676215
 30
0.0
 10
0.8914388020833333
 20
24.57718573676215
 30
0.0
 10
0.8914388020833333
 20
24.57718573676215
 30
0.0
 10
0.913938734266493
 20
24.5426025390625
 30
0.0
 10
0.913938734266493
 20
24.5426025390625
 30
0.0
 10
0.913938734266493
 20
24.5426025390625
 30
0.0
 10
0.9339387681749132
 20
24.5113525390625
 30
0.0
 10
0.9339387681749132
 20
24.5113525390625
 30
0.0
 10
0.9339387681749132
 20
24.5113525390625
 30
0.0
 10
0.951022254096137
 20
24.48357476128472
 30
0.0
 10
0.951022254096137
 20
24.48357476128472
 30
0.0
 10
0.951022254096137
 20
24.48357476128472
 30
0.0
 10
0.964911142985026
 20
24.45982445610894
 30
0.0
 10
0.964911142985026
 20
24.45982445610894
 30
0.0
 10
0.964911142985026
 20
24.45982445610894
 30
0.0
 10
0.9763001335991753
 20
24.43982442220052
 30
0.0
 10
0.9763001335991753
 20
24.43982442220052
 30
0.0
 10
0.9763001335991753
 20
24.43982442220052
 30
0.0
 10
0.9763001335991753
 20
24.43982442220052
 30
0.0
 10
0.9763001335991753
 20
24.43982442220052
 30
0.0
 10
0.9763001335991753
 20
24.43982442220052
 30
0.0
 10
0.947827657063802
 20
24.43732452392578
 30
0.0
 10
0.947827657063802
 20
24.43732452392578
 30
0.0
 10
0.947827657063802
 20
24.43732452392578
 30
0.0
 10
0.9182442559136285
 20
24.43399132622613
 30
0.0
 10
0.9182442559136285
 20
24.43399132622613
 30
0.0
 10
0.9182442559136285
 20
24.43399132622613
 30
0.0
 10
0.8872723049587673
 20
24.42968580457899
 30
0.0
 10
0.8872723049587673
 20
24.42968580457899
 30
0.0
 10
0.8872723049587673
 20
24.42968580457899
 30
0.0
 10
0.8550499810112847
 20
24.42454698350694
 30
0.0
 10
0.8550499810112847
 20
24.42454698350694
 30
0.0
 10
0.8550499810112847
 20
24.42454698350694
 30
0.0
 10
0.8215777079264323
 20
24.41843583848741
 30
0.0
 10
0.8215777079264323
 20
24.41843583848741
 30
0.0
 10
0.8215777079264323
 20
24.41843583848741
 30
0.0
 10
0.78685548570421
 20
24.41163020663791
 30
0.0
 10
0.78685548570421
 20
24.41163020663791
 30
0.0
 10
0.78685548570421
 20
24.41163020663791
 30
0.0
 10
0.714911142985026
 20
24.39551904466417
 30
0.0
 10
0.714911142985026
 20
24.39551904466417
 30
0.0
 10
0.714911142985026
 20
24.39551904466417
 30
0.0
 10
0.6404664781358507
 20
24.37663014729818
 30
0.0
 10
0.6404664781358507
 20
24.37663014729818
 30
0.0
 10
0.6404664781358507
 20
24.37663014729818
 30
0.0
 10
0.5653279622395833
 20
24.35579681396484
 30
0.0
 10
0.5653279622395833
 20
24.35579681396484
 30
0.0
 10
0.5653279622395833
 20
24.35579681396484
 30
0.0
 10
0.4901890224880642
 20
24.33329688178168
 30
0.0
 10
0.4901890224880642
 20
24.33329688178168
 30
0.0
 10
0.4901890224880642
 20
24.33329688178168
 30
0.0
 10
0.4153277079264323
 20
24.30926895141602
 30
0.0
 10
0.4153277079264323
 20
24.30926895141602
 30
0.0
 10
0.4153277079264323
 20
24.30926895141602
 30
0.0
 10
0.413938734266493
 20
24.30926895141602
 30
0.0
 10
0.413938734266493
 20
24.30926895141602
 30
0.0
 10
0.413938734266493
 20
24.30926895141602
 30
0.0
 10
0.4757444593641493
 20
24.24482451544867
 30
0.0
 10
0.4757444593641493
 20
24.24482451544867
 30
0.0
 10
0.4757444593641493
 20
24.24482451544867
 30
0.0
 10
0.5379668341742622
 20
24.17690785725911
 30
0.0
 10
0.5379668341742622
 20
24.17690785725911
 30
0.0
 10
0.5379668341742622
 20
24.17690785725911
 30
0.0
 10
0.6008834838867188
 20
24.10579681396484
 30
0.0
 10
0.6008834838867188
 20
24.10579681396484
 30
0.0
 10
0.6008834838867188
 20
24.10579681396484
 30
0.0
 10
0.6642167833116319
 20
24.03149117363824
 30
0.0
 10
0.6642167833116319
 20
24.03149117363824
 30
0.0
 10
0.6642167833116319
 20
24.03149117363824
 30
0.0
 10
0.7279667324490017
 20
23.95399114820692
 30
0.0
 10
0.7279667324490017
 20
23.95399114820692
 30
0.0
 10
0.7279667324490017
 20
23.95399114820692
 30
0.0
 10
0.791577657063802
 20
23.87385241190592
 30
0.0
 10
0.791577657063802
 20
23.87385241190592
 30
0.0
 10
0.791577657063802
 20
23.87385241190592
 30
0.0
 10
0.916577657063802
 20
23.70815785725911
 30
0.0
 10
0.916577657063802
 20
23.70815785725911
 30
0.0
 10
0.916577657063802
 20
23.70815785725911
 30
0.0
 10
0.9769944085015191
 20
23.62482452392578
 30
0.0
 10
0.9769944085015191
 20
23.62482452392578
 30
0.0
 10
0.9769944085015191
 20
23.62482452392578
 30
0.0
 10
1.034911261664496
 20
23.54246351453993
 30
0.0
 10
1.034911261664496
 20
23.54246351453993
 30
0.0
 10
1.034911261664496
 20
23.54246351453993
 30
0.0
 10
1.090466817220052
 20
23.46232456631131
 30
0.0
 10
1.090466817220052
 20
23.46232456631131
 30
0.0
 10
1.090466817220052
 20
23.46232456631131
 30
0.0
 10
1.14185545179579
 20
23.38496335347493
 30
0.0
 10
1.14185545179579
 20
23.38496335347493
 30
0.0
 10
1.14185545179579
 20
23.38496335347493
 30
0.0
 10
1.189494238959418
 20
23.31121338738335
 30
0.0
 10
1.189494238959418
 20
23.31121338738335
 30
0.0
 10
1.189494238959418
 20
23.31121338738335
 30
0.0
 10
1.23310555352105
 20
23.24176894293891
 30
0.0
 10
1.23310555352105
 20
23.24176894293891
 30
0.0
 10
1.23310555352105
 20
23.24176894293891
 30
0.0
 10
1.272827572292752
 20
23.1755190955268
 30
0.0
 10
1.272827572292752
 20
23.1755190955268
 30
0.0
 10
1.272827572292752
 20
23.1755190955268
 30
0.0
 10
1.308522118462456
 20
23.1130190955268
 30
0.0
 10
1.308522118462456
 20
23.1130190955268
 30
0.0
 10
1.308522118462456
 20
23.1130190955268
 30
0.0
 10
1.310188717312283
 20
23.11288007100423
 30
0.0
 10
1.310188717312283
 20
23.11288007100423
 30
0.0
 10
1.310188717312283
 20
23.11288007100423
 30
0.0
 10
1.188105689154731
 20
23.08871353997124
 30
0.0
 10
1.188105689154731
 20
23.08871353997124
 30
0.0
 10
1.188105689154731
 20
23.08871353997124
 30
0.0
 10
1.188105689154731
 20
23.08871353997124
 30
0.0
 10
1.188105689154731
 20
23.08871353997124
 30
0.0
 10
1.188105689154731
 20
23.08871353997124
 30
0.0
 10
0.9936612447102864
 20
23.0505190955268
 30
0.0
 10
0.9936612447102864
 20
23.0505190955268
 30
0.0
 10
0.9936612447102864
 20
23.0505190955268
 30
0.0
 10
0.9936612447102864
 20
23.0505190955268
 30
0.0
 10
0.9936612447102864
 20
23.0505190955268
 30
0.0
 10
0.9936612447102864
 20
23.0505190955268
 30
0.0
 10
0.8613001505533854
 20
23.01413006252713
 30
0.0
 10
0.8613001505533854
 20
23.01413006252713
 30
0.0
 10
0.8613001505533854
 20
23.01413006252713
 30
0.0
 10
0.8608835008409288
 20
23.01315795050727
 30
0.0
 10
0.8608835008409288
 20
23.01315795050727
 30
0.0
 10
0.8608835008409288
 20
23.01315795050727
 30
0.0
 10
0.9322721693250867
 20
22.94107458326551
 30
0.0
 10
0.9322721693250867
 20
22.94107458326551
 30
0.0
 10
0.9322721693250867
 20
22.94107458326551
 30
0.0
 10
1.00449456108941
 20
22.86149130927192
 30
0.0
 10
1.00449456108941
 20
22.86149130927192
 30
0.0
 10
1.00449456108941
 20
22.86149130927192
 30
0.0
 10
1.077272203233507
 20
22.77440791659885
 30
0.0
 10
1.077272203233507
 20
22.77440791659885
 30
0.0
 10
1.077272203233507
 20
22.77440791659885
 30
0.0
 10
1.150466495090061
 20
22.67982461717394
 30
0.0
 10
1.150466495090061
 20
22.67982461717394
 30
0.0
 10
1.150466495090061
 20
22.67982461717394
 30
0.0
 10
1.223799811469184
 20
22.57829676734076
 30
0.0
 10
1.223799811469184
 20
22.57829676734076
 30
0.0
 10
1.223799811469184
 20
22.57829676734076
 30
0.0
 10
1.296438852945963
 20
22.47065787845188
 30
0.0
 10
1.296438852945963
 20
22.47065787845188
 30
0.0
 10
1.296438852945963
 20
22.47065787845188
 30
0.0
 10
1.367549896240234
 20
22.35843563079834
 30
0.0
 10
1.367549896240234
 20
22.35843563079834
 30
0.0
 10
1.367549896240234
 20
22.35843563079834
 30
0.0
 10
1.436161041259766
 20
22.24301899804009
 30
0.0
 10
1.436161041259766
 20
22.24301899804009
 30
0.0
 10
1.436161041259766
 20
22.24301899804009
 30
0.0
 10
1.501022338867188
 20
22.12635231018066
 30
0.0
 10
1.501022338867188
 20
22.12635231018066
 30
0.0
 10
1.501022338867188
 20
22.12635231018066
 30
0.0
 10
1.561300065782335
 20
22.00996345943875
 30
0.0
 10
1.561300065782335
 20
22.00996345943875
 30
0.0
 10
1.561300065782335
 20
22.00996345943875
 30
0.0
 10
1.616855621337891
 20
21.89524120754666
 30
0.0
 10
1.616855621337891
 20
21.89524120754666
 30
0.0
 10
1.616855621337891
 20
21.89524120754666
 30
0.0
 10
1.666300031873915
 20
21.78413009643555
 30
0.0
 10
1.666300031873915
 20
21.78413009643555
 30
0.0
 10
1.666300031873915
 20
21.78413009643555
 30
0.0
 10
1.710327572292752
 20
21.67593569225735
 30
0.0
 10
1.710327572292752
 20
21.67593569225735
 30
0.0
 10
1.710327572292752
 20
21.67593569225735
 30
0.0
 10
1.749077690972222
 20
21.57176902559068
 30
0.0
 10
1.749077690972222
 20
21.57176902559068
 30
0.0
 10
1.749077690972222
 20
21.57176902559068
 30
0.0
 10
1.772133297390408
 20
21.50385231441922
 30
0.0
 10
1.772133297390408
 20
21.50385231441922
 30
0.0
 10
1.772133297390408
 20
21.50385231441922
 30
0.0
 10
1.772410922580295
 20
21.50385231441922
 30
0.0
 10
1.772410922580295
 20
21.50385231441922
 30
0.0
 10
1.772410922580295
 20
21.50385231441922
 30
0.0
 10
1.772410922580295
 20
23.75524118211534
 30
0.0
 10
1.772410922580295
 20
23.75524118211534
 30
0.0
 10
1.772410922580295
 20
23.75524118211534
 30
0.0
 10
1.772410922580295
 20
23.75496334499783
 30
0.0
 10
1.772410922580295
 20
23.75496334499783
 30
0.0
 10
1.772410922580295
 20
23.75496334499783
 30
0.0
 10
1.969355689154731
 20
23.75496334499783
 30
0.0
 10
1.969355689154731
 20
23.75496334499783
 30
0.0
 10
1.969355689154731
 20
23.75496334499783
 30
0.0
 10
1.969355689154731
 20
23.75496334499783
 30
0.0
 10
1.969355689154731
 20
23.75496334499783
 30
0.0
 10
1.969355689154731
 20
23.75496334499783
 30
0.0
 10
1.969355689154731
 20
21.50385231441922
 30
0.0
 10
1.969355689154731
 20
21.50385231441922
 30
0.0
 10
1.969355689154731
 20
21.50385231441922
 30
0.0
 10
1.991160922580295
 20
21.57176902559068
 30
0.0
 10
1.991160922580295
 20
21.57176902559068
 30
0.0
  0
ENDBLK
  5
48
330
45
100
AcDbEntity
  8
0
100
AcDbBlockEnd
  0
BLOCK
  5
4C
330
4A
100
AcDbEntity
  8
0
100
AcDbBlockBegin
  2
block 4
 70
     0
 10
0.0
 20
0.0
 30
0.0
  3
block 4
  1

  0
SPLINE
  5
4E
330
4A
100
AcDbEntity
  8
Layer 1
 62
     1
420
 16716306
370
    35
100
AcDbSpline
210
0.0
220
0.0
230
1.0
 70
    11
 71
     3
 72
   614
 73
   610
 74
     0
 42
0.0000000001
 43
0.0000000001
 12
1.0
 22
0.0
 32
0.0
 13
1.0
 23
0.0
 33
0.0
 40
0.0
 40
0.0
 40
0.0
 40
0.0
 40
1.0
 40
1.0
 40
1.0
 40
2.0
 40
2.0
 40
2.0
 40
3.0
 40
3.0
 40
3.0
 40
4.0
 40
4.0
 40
4.0
 40
5.0
 40
5.0
 40
5.0
 40
6.0
 40
6.0
 40
6.0
 40
7.0
 40
7.0
 40
7.0
 40
8.0
 40
8.0
 40
8.0
 40
9.0
 40
9.0
 40
9.0
 40
10.0
 40
10.0
 40
10.0
 40
11.0
 40
11.0
 40
11.0
 40
12.0
 40
12.0
 40
12.0
 40
13.0
 40
13.0
 40
13.0
 40
14.0
 40
14.0
 40
14.0
 40
15.0
 40
15.0
 40
15.0
 40
16.0
 40
16.0
 40
16.0
 40
17.0
 40
17.0
 40
17.0
 40
18.0
 40
18.0
 40
18.0
 40
19.0
 40
19.0
 40
19.0
 40
20.0
 40
20.0
 40
20.0
 40
21.0
 40
21.0
 40
21.0
 40
22.0
 40
22.0
 40
22.0
 40
23.0
 40
23.0
 40
23.0
 40
24.0
 40
24.0
 40
24.0
 40
25.0
 40
25.0
 40
25.0
 40
26.0
 40
26.0
 40
26.0
 40
27.0
 40
27.0
 40
27.0
 40
28.0
 40
28.0
 40
28.0
 40
29.0
 40
29.0
 40
29.0
 40
30.0
 40
30.0
 40
30.0
 40
31.0
 40
31.0
 40
31.0
 40
32.0
 40
32.0
 40
32.0
 40
33.0
 40
33.0
 40
33.0
 40
34.0
 40
34.0
 40
34.0
 40
35.0
 40
35.0
 40
35.0
 40
36.0
 40
36.0
 40
36.0
 40
37.0
 40
37.0
 40
37.0
 40
38.0
 40
38.0
 40
38.0
 40
39.0
 40
39.0
 40
39.0
 40
40.0
 40
40.0
 40
40.0
 40
41.0
 40
41.0
 40
41.0
 40
42.0
 40
42.0
 40
42.0
 40
43.0
 40
43.0
 40
43.0
 40
44.0
 40
44.0
 40
44.0
 40
45.0
 40
45.0
 40
45.0
 40
46.0
 40
46.0
 40
46.0
 40
47.0
 40
47.0
 40
47.0
 40
48.0
 40
48.0
 40
48.0
 40
49.0
 40
49.0
 40
49.0
 40
50.0
 40
50.0
 40
50.0
 40
51.0
 40
51.0
 40
51.0
 40
52.0
 40
52.0
 40
52.0
 40
53.0
 40
53.0
 40
53.0
 40
54.0
 40
54.0
 40
54.0
 40
55.0
 40
55.0
 40
55.0
 40
56.0
 40
56.0
 40
56.0
 40
57.0
 40
57.0
 40
57.0
 40
58.0
 40
58.0
 40
58.0
 40
59.0
 40
59.0
 40
59.0
 40
60.0
 40
60.0
 40
60.0
 40
61.0
 40
61.0
 40
61.0
 40
62.0
 40
62.0
 40
62.0
 40
63.0
 40
63.0
 40
63.0
 40
64.0
 40
64.0
 40
64.0
 40
65.0
 40
65.0
 40
65.0
 40
66.0
 40
66.0
 40
66.0
 40
67.0
 40
67.0
 40
67.0
 40
68.0
 40
68.0
 40
68.0
 40
69.0
 40
69.0
 40
69.0
 40
70.0
 40
70.0
 40
70.0
 40
71.0
 40
71.0
 40
71.0
 40
72.0
 40
72.0
 40
72.0
 40
73.0
 40
73.0
 40
73.0
 40
74.0
 40
74.0
 40
74.0
 40
75.0
 40
75.0
 40
75.0
 40
76.0
 40
76.0
 40
76.0
 40
77.0
 40
77.0
 40
77.0
 40
78.0
 40
78.0
 40
78.0
 40
79.0
 40
79.0
 40
79.0
 40
80.0
 40
80.0
 40
80.0
 40
81.0
 40
81.0
 40
81.0
 40
82.0
 40
82.0
 40
82.0
 40
83.0
 40
83.0
 40
83.0
 40
84.0
 40
84.0
 40
84.0
 40
85.0
 40
85.0
 40
85.0
 40
86.0
 40
86.0
 40
86.0
 40
87.0
 40
87.0
 40
87.0
 40
88.0
 40
88.0
 40
88.0
 40
89.0
 40
89.0
 40
89.0
 40
90.0
 40
90.0
 40
90.0
 40
91.0
 40
91.0
 40
91.0
 40
92.0
 40
92.0
 40
92.0
 40
93.0
 40
93.0
 40
93.0
 40
94.0
 40
94.0
 40
94.0
 40
95.0
 40
95.0
 40
95.0
 40
96.0
 40
96.0
 40
96.0
 40
97.0
 40
97.0
 40
97.0
 40
98.0
 40
98.0
 40
98.0
 40
99.0
 40
99.0
 40
99.0
 40
100.0
 40
100.0
 40
100.0
 40
101.0
 40
101.0
 40
101.0
 40
102.0
 40
102.0
 40
102.0
 40
103.0
 40
103.0
 40
103.0
 40
104.0
 40
104.0
 40
104.0
 40
105.0
 40
105.0
 40
105.0
 40
106.0
 40
106.0
 40
106.0
 40
107.0
 40
107.0
 40
107.0
 40
108.0
 40
108.0
 40
108.0
 40
109.0
 40
109.0
 40
109.0
 40
110.0
 40
110.0
 40
110.0
 40
111.0
 40
111.0
 40
111.0
 40
112.0
 40
112.0
 40
112.0
 40
113.0
 40
113.0
 40
113.0
 40
114.0
 40
114.0
 40
114.0
 40
115.0
 40
115.0
 40
115.0
 40
116.0
 40
116.0
 40
116.0
 40
117.0
 40
117.0
 40
117.0
 40
118.0
 40
118.0
 40
118.0
 40
119.0
 40
119.0
 40
119.0
 40
120.0
 40
120.0
 40
120.0
 40
121.0
 40
121.0
 40
121.0
 40
122.0
 40
122.0
 40
122.0
 40
123.0
 40
123.0
 40
123.0
 40
124.0
 40
124.0
 40
124.0
 40
125.0
 40
125.0
 40
125.0
 40
126.0
 40
126.0
 40
126.0
 40
127.0
 40
127.0
 40
127.0
 40
128.0
 40
128.0
 40
128.0
 40
129.0
 40
129.0
 40
129.0
 40
130.0
 40
130.0
 40
130.0
 40
131.0
 40
131.0
 40
131.0
 40
132.0
 40
132.0
 40
132.0
 40
133.0
 40
133.0
 40
133.0
 40
134.0
 40
134.0
 40
134.0
 40
135.0
 40
135.0
 40
135.0
 40
136.0
 40
136.0
 40
136.0
 40
137.0
 40
137.0
 40
137.0
 40
138.0
 40
138.0
 40
138.0
 40
139.0
 40
139.0
 40
139.0
 40
140.0
 40
140.0
 40
140.0
 40
141.0
 40
141.0
 40
141.0
 40
142.0
 40
142.0
 40
142.0
 40
143.0
 40
143.0
 40
143.0
 40
144.0
 40
144.0
 40
144.0
 40
145.0
 40
145.0
 40
145.0
 40
146.0
 40
146.0
 40
146.0
 40
147.0
 40
147.0
 40
147.0
 40
148.0
 40
148.0
 40
148.0
 40
149.0
 40
149.0
 40
149.0
 40
150.0
 40
150.0
 40
150.0
 40
151.0
 40
151.0
 40
151.0
 40
152.0
 40
152.0
 40
152.0
 40
153.0
 40
153.0
 40
153.0
 40
154.0
 40
154.0
 40
154.0
 40
155.0
 40
155.0
 40
155.0
 40
156.0
 40
156.0
 40
156.0
 40
157.0
 40
157.0
 40
157.0
 40
158.0
 40
158.0
 40
158.0
 40
159.0
 40
159.0
 40
159.0
 40
160.0
 40
160.0
 40
160.0
 40
161.0
 40
161.0
 40
161.0
 40
162.0
 40
162.0
 40
162.0
 40
163.0
 40
163.0
 40
163.0
 40
164.0
 40
164.0
 40
164.0
 40
165.0
 40
165.0
 40
165.0
 40
166.0
 40
166.0
 40
166.0
 40
167.0
 40
167.0
 40
167.0
 40
168.0
 40
168.0
 40
168.0
 40
169.0
 40
169.0
 40
169.0
 40
170.0
 40
170.0
 40
170.0
 40
171.0
 40
171.0
 40
171.0
 40
172.0
 40
172.0
 40
172.0
 40
173.0
 40
173.0
 40
173.0
 40
174.0
 40
174.0
 40
174.0
 40
175.0
 40
175.0
 40
175.0
 40
176.0
 40
176.0
 40
176.0
 40
177.0
 40
177.0
 40
177.0
 40
178.0
 40
178.0
 40
178.0
 40
179.0
 40
179.0
 40
179.0
 40
180.0
 40
180.0
 40
180.0
 40
181.0
 40
181.0
 40
181.0
 40
182.0
 40
182.0
 40
182.0
 40
183.0
 40
183.0
 40
183.0
 40
184.0
 40
184.0
 40
184.0
 40
185.0
 40
185.0
 40
185.0
 40
186.0
 40
186.0
 40
186.0
 40
187.0
 40
187.0
 40
187.0
 40
188.0
 40
188.0
 40
188.0
 40
189.0
 40
189.0
 40
189.0
 40
190.0
 40
190.0
 40
190.0
 40
191.0
 40
191.0
 40
191.0
 40
192.0
 40
192.0
 40
192.0
 40
193.0
 40
193.0
 40
193.0
 40
194.0
 40
194.0
 40
194.0
 40
195.0
 40
195.0
 40
195.0
 40
196.0
 40
196.0
 40
196.0
 40
197.0
 40
197.0
 40
197.0
 40
198.0
 40
198.0
 40
198.0
 40
199.0
 40
199.0
 40
199.0
 40
200.0
 40
200.0
 40
200.0
 40
201.0
 40
201.0
 40
201.0
 40
202.0
 40
202.0
 40
202.0
 40
203.0
 40
203.0
 40
203.0
 40
203.0
 10
4.066980997721354
 20
23.69194179111057
 30
0.0
 10
4.066980997721354
 20
23.69194179111057
 30
0.0
 10
4.266981336805555
 20
23.69194179111057
 30
0.0
 10
4.266981336805555
 20
23.69194179111057
 30
0.0
 10
4.266981336805555
 20
23.69194179111057
 30
0.0
 10
4.266981336805555
 20
23.69221962822808
 30
0.0
 10
4.266981336805555
 20
23.69221962822808
 30
0.0
 10
4.266981336805555
 20
23.69221962822808
 30
0.0
 10
4.266981336805555
 20
21.07360842492845
 30
0.0
 10
4.266981336805555
 20
21.07360842492845
 30
0.0
 10
4.266981336805555
 20
21.07360842492845
 30
0.0
 10
4.26739756266276
 20
21.07360842492845
 30
0.0
 10
4.26739756266276
 20
21.07360842492845
 30
0.0
 10
4.26739756266276
 20
21.07360842492845
 30
0.0
 10
4.390313890245226
 20
21.07360842492845
 30
0.0
 10
4.390313890245226
 20
21.07360842492845
 30
0.0
 10
4.390313890245226
 20
21.07360842492845
 30
0.0
 10
4.390313890245226
 20
21.07360842492845
 30
0.0
 10
4.390313890245226
 20
21.07360842492845
 30
0.0
 10
4.415626525878906
 20
21.07360805405511
 30
0.0
 10
4.436147901746962
 20
21.09412802590264
 30
0.0
 10
4.436147901746962
 20
21.11944108539157
 30
0.0
 10
4.436147901746962
 20
21.1194412973192
 30
0.0
 10
4.436147901746962
 20
21.11944153573778
 30
0.0
 10
4.436147901746962
 20
21.11944177415636
 30
0.0
 10
4.436147901746962
 20
21.11944177415636
 30
0.0
 10
4.436147901746962
 20
21.11944177415636
 30
0.0
 10
4.436147901746962
 20
21.11944177415636
 30
0.0
 10
4.436147901746962
 20
21.11944177415636
 30
0.0
 10
4.436147901746962
 20
21.5544417699178
 30
0.0
 10
4.436147901746962
 20
21.5544417699178
 30
0.0
 10
4.436147901746962
 20
21.5544417699178
 30
0.0
 10
4.435314602322048
 20
21.55305290222168
 30
0.0
 10
4.435314602322048
 20
21.55305290222168
 30
0.0
 10
4.435314602322048
 20
21.55305290222168
 30
0.0
 10
4.459481133355035
 20
21.55305290222168
 30
0.0
 10
4.459481133355035
 20
21.55305290222168
 30
0.0
 10
4.459481133355035
 20
21.55305290222168
 30
0.0
 10
4.487258911132812
 20
21.55305290222168
 30
0.0
 10
4.487258911132812
 20
21.55305290222168
 30
0.0
 10
4.487258911132812
 20
21.55305290222168
 30
0.0
 10
4.517814636230469
 20
21.55402512020535
 30
0.0
 10
4.517814636230469
 20
21.55402512020535
 30
0.0
 10
4.517814636230469
 20
21.55402512020535
 30
0.0
 10
4.551564534505208
 20
21.55569177203708
 30
0.0
 10
4.551564534505208
 20
21.55569177203708
 30
0.0
 10
4.551564534505208
 20
21.55569177203708
 30
0.0
 10
4.5886476304796
 20
21.55805285771688
 30
0.0
 10
4.5886476304796
 20
21.55805285771688
 30
0.0
 10
4.5886476304796
 20
21.55805285771688
 30
0.0
 10
4.62878672281901
 20
21.56110843022664
 30
0.0
 10
4.62878672281901
 20
21.56110843022664
 30
0.0
 10
4.62878672281901
 20
21.56110843022664
 30
0.0
 10
4.672119988335504
 20
21.56485843658447
 30
0.0
 10
4.672119988335504
 20
21.56485843658447
 30
0.0
 10
4.672119988335504
 20
21.56485843658447
 30
0.0
 10
4.71850840250651
 20
21.56916401121351
 30
0.0
 10
4.71850840250651
 20
21.56916401121351
 30
0.0
 10
4.71850840250651
 20
21.56916401121351
 30
0.0
 10
4.819758945041232
 20
21.57999732759264
 30
0.0
 10
4.819758945041232
 20
21.57999732759264
 30
0.0
 10
4.819758945041232
 20
21.57999732759264
 30
0.0
 10
4.930870056152344
 20
21.59388621648153
 30
0.0
 10
4.930870056152344
 20
21.59388621648153
 30
0.0
 10
4.930870056152344
 20
21.59388621648153
 30
0.0
 10
5.048786587185329
 20
21.6095806757609
 30
0.0
 10
5.048786587185329
 20
21.6095806757609
 30
0.0
 10
5.048786587185329
 20
21.6095806757609
 30
0.0
 10
5.170592414008246
 20
21.62721951802571
 30
0.0
 10
5.170592414008246
 20
21.62721951802571
 30
0.0
 10
5.170592414008246
 20
21.62721951802571
 30
0.0
 10
5.413230895996094
 20
21.66749731699625
 30
0.0
 10
5.413230895996094
 20
21.66749731699625
 30
0.0
 10
5.413230895996094
 20
21.66749731699625
 30
0.0
 10
5.528508504231771
 20
21.68958065244886
 30
0.0
 10
5.528508504231771
 20
21.68958065244886
 30
0.0
 10
5.528508504231771
 20
21.68958065244886
 30
0.0
 10
5.636841668023004
 20
21.7127751244439
 30
0.0
 10
5.636841668023004
 20
21.7127751244439
 30
0.0
 10
5.636841668023004
 20
21.7127751244439
 30
0.0
 10
5.737258911132812
 20
21.736664030287
 30
0.0
 10
5.737258911132812
 20
21.736664030287
 30
0.0
 10
5.737258911132812
 20
21.736664030287
 30
0.0
 10
5.829342312282986
 20
21.76152504814996
 30
0.0
 10
5.829342312282986
 20
21.76152504814996
 30
0.0
 10
5.829342312282986
 20
21.76152504814996
 30
0.0
 10
5.912675645616319
 20
21.78694174024794
 30
0.0
 10
5.912675645616319
 20
21.78694174024794
 30
0.0
 10
5.912675645616319
 20
21.78694174024794
 30
0.0
 10
5.987675136990017
 20
21.81305291917589
 30
0.0
 10
5.987675136990017
 20
21.81305291917589
 30
0.0
 10
5.987675136990017
 20
21.81305291917589
 30
0.0
 10
5.987397935655381
 20
21.81360838148329
 30
0.0
 10
5.987397935655381
 20
21.81360838148329
 30
0.0
 10
5.987397935655381
 20
21.81360838148329
 30
0.0
 10
5.958508809407552
 20
21.84291394551595
 30
0.0
 10
5.958508809407552
 20
21.84291394551595
 30
0.0
 10
5.958508809407552
 20
21.84291394551595
 30
0.0
 10
5.92850833468967
 20
21.87458070119222
 30
0.0
 10
5.92850833468967
 20
21.87458070119222
 30
0.0
 10
5.92850833468967
 20
21.87458070119222
 30
0.0
 10
5.897120157877604
 20
21.90833070543077
 30
0.0
 10
5.897120157877604
 20
21.90833070543077
 30
0.0
 10
5.897120157877604
 20
21.90833070543077
 30
0.0
 10
5.864619784884982
 20
21.94430287679036
 30
0.0
 10
5.864619784884982
 20
21.94430287679036
 30
0.0
 10
5.864619784884982
 20
21.94430287679036
 30
0.0
 10
5.796147664388021
 20
22.02221955193414
 30
0.0
 10
5.796147664388021
 20
22.02221955193414
 30
0.0
 10
5.796147664388021
 20
22.02221955193414
 30
0.0
 10
5.724342346191406
 20
22.10666402180989
 30
0.0
 10
5.724342346191406
 20
22.10666402180989
 30
0.0
 10
5.724342346191406
 20
22.10666402180989
 30
0.0
 10
5.651702880859375
 20
22.19430287679036
 30
0.0
 10
5.651702880859375
 20
22.19430287679036
 30
0.0
 10
5.651702880859375
 20
22.19430287679036
 30
0.0
 10
5.581008911132812
 20
22.28083070119222
 30
0.0
 10
5.581008911132812
 20
22.28083070119222
 30
0.0
 10
5.581008911132812
 20
22.28083070119222
 30
0.0
 10
5.514897664388021
 20
22.36291397942437
 30
0.0
 10
5.514897664388021
 20
22.36291397942437
 30
0.0
 10
5.514897664388021
 20
22.36291397942437
 30
0.0
 10
5.454064263237847
 20
22.43971951802571
 30
0.0
 10
5.454064263237847
 20
22.43971951802571
 30
0.0
 10
5.454064263237847
 20
22.43971951802571
 30
0.0
 10
5.340592278374566
 20
22.58930291069878
 30
0.0
 10
5.340592278374566
 20
22.58930291069878
 30
0.0
 10
5.340592278374566
 20
22.58930291069878
 30
0.0
 10
5.283231099446614
 20
22.66902499728733
 30
0.0
 10
5.283231099446614
 20
22.66902499728733
 30
0.0
 10
5.283231099446614
 20
22.66902499728733
 30
0.0
 10
5.225591871473524
 20
22.75166405571832
 30
0.0
 10
5.225591871473524
 20
22.75166405571832
 30
0.0
 10
5.225591871473524
 20
22.75166405571832
 30
0.0
 10
5.171008639865451
 20
22.83221944173177
 30
0.0
 10
5.171008639865451
 20
22.83221944173177
 30
0.0
 10
5.171008639865451
 20
22.83221944173177
 30
0.0
 10
5.146286858452691
 20
22.86971961127387
 30
0.0
 10
5.146286858452691
 20
22.86971961127387
 30
0.0
 10
5.146286858452691
 20
22.86971961127387
 30
0.0
 10
5.123647901746962
 20
22.90430280897352
 30
0.0
 10
5.123647901746962
 20
22.90430280897352
 30
0.0
 10
5.123647901746962
 20
22.90430280897352
 30
0.0
 10
5.103647867838541
 20
22.93555280897352
 30
0.0
 10
5.103647867838541
 20
22.93555280897352
 30
0.0
 10
5.103647867838541
 20
22.93555280897352
 30
0.0
 10
5.086563958062066
 20
22.9633305867513
 30
0.0
 10
5.086563958062066
 20
22.9633305867513
 30
0.0
 10
5.086563958062066
 20
22.9633305867513
 30
0.0
 10
5.072675069173177
 20
22.98708067999945
 30
0.0
 10
5.072675069173177
 20
22.98708067999945
 30
0.0
 10
5.072675069173177
 20
22.98708067999945
 30
0.0
 10
5.061286926269531
 20
23.00694168938531
 30
0.0
 10
5.061286926269531
 20
23.00694168938531
 30
0.0
 10
5.061286926269531
 20
23.00694168938531
 30
0.0
 10
5.060869852701822
 20
23.00610838996039
 30
0.0
 10
5.060869852701822
 20
23.00610838996039
 30
0.0
 10
5.060869852701822
 20
23.00610838996039
 30
0.0
 10
5.089341905381944
 20
23.00860850016276
 30
0.0
 10
5.089341905381944
 20
23.00860850016276
 30
0.0
 10
5.089341905381944
 20
23.00860850016276
 30
0.0
 10
5.119064331054688
 20
23.01208072238498
 30
0.0
 10
5.119064331054688
 20
23.01208072238498
 30
0.0
 10
5.119064331054688
 20
23.01208072238498
 30
0.0
 10
5.150036282009548
 20
23.01638624403212
 30
0.0
 10
5.150036282009548
 20
23.01638624403212
 30
0.0
 10
5.150036282009548
 20
23.01638624403212
 30
0.0
 10
5.182258605957031
 20
23.02152506510416
 30
0.0
 10
5.182258605957031
 20
23.02152506510416
 30
0.0
 10
5.182258605957031
 20
23.02152506510416
 30
0.0
 10
5.215731302897135
 20
23.02749739752875
 30
0.0
 10
5.215731302897135
 20
23.02749739752875
 30
0.0
 10
5.215731302897135
 20
23.02749739752875
 30
0.0
 10
5.250314500596788
 20
23.0344418419732
 30
0.0
 10
5.250314500596788
 20
23.0344418419732
 30
0.0
 10
5.250314500596788
 20
23.0344418419732
 30
0.0
 10
5.322258843315972
 20
23.05055279201931
 30
0.0
 10
5.322258843315972
 20
23.05055279201931
 30
0.0
 10
5.322258843315972
 20
23.05055279201931
 30
0.0
 10
5.396703084309896
 20
23.06930287679036
 30
0.0
 10
5.396703084309896
 20
23.06930287679036
 30
0.0
 10
5.396703084309896
 20
23.06930287679036
 30
0.0
 10
5.471842447916666
 20
23.09027502271864
 30
0.0
 10
5.471842447916666
 20
23.09027502271864
 30
0.0
 10
5.471842447916666
 20
23.09027502271864
 30
0.0
 10
5.547119988335504
 20
23.11277516682943
 30
0.0
 10
5.547119988335504
 20
23.11277516682943
 30
0.0
 10
5.547119988335504
 20
23.11277516682943
 30
0.0
 10
5.621842278374566
 20
23.13666407267252
 30
0.0
 10
5.621842278374566
 20
23.13666407267252
 30
0.0
 10
5.621842278374566
 20
23.13666407267252
 30
0.0
 10
5.622258504231771
 20
23.13735834757487
 30
0.0
 10
5.622258504231771
 20
23.13735834757487
 30
0.0
 10
5.622258504231771
 20
23.13735834757487
 30
0.0
 10
5.560591803656684
 20
23.20194180806478
 30
0.0
 10
5.560591803656684
 20
23.20194180806478
 30
0.0
 10
5.560591803656684
 20
23.20194180806478
 30
0.0
 10
5.498230828179254
 20
23.26971944173177
 30
0.0
 10
5.498230828179254
 20
23.26971944173177
 30
0.0
 10
5.498230828179254
 20
23.26971944173177
 30
0.0
 10
5.435314602322048
 20
23.34083069695367
 30
0.0
 10
5.435314602322048
 20
23.34083069695367
 30
0.0
 10
5.435314602322048
 20
23.34083069695367
 30
0.0
 10
5.371981302897135
 20
23.41527514987522
 30
0.0
 10
5.371981302897135
 20
23.41527514987522
 30
0.0
 10
5.371981302897135
 20
23.41527514987522
 30
0.0
 10
5.308369954427083
 20
23.49263615078396
 30
0.0
 10
5.308369954427083
 20
23.49263615078396
 30
0.0
 10
5.308369954427083
 20
23.49263615078396
 30
0.0
 10
5.244619581434462
 20
23.57291391160753
 30
0.0
 10
5.244619581434462
 20
23.57291391160753
 30
0.0
 10
5.244619581434462
 20
23.57291391160753
 30
0.0
 10
5.119619581434462
 20
23.73846944173177
 30
0.0
 10
5.119619581434462
 20
23.73846944173177
 30
0.0
 10
5.119619581434462
 20
23.73846944173177
 30
0.0
 10
5.059064229329427
 20
23.8218027750651
 30
0.0
 10
5.059064229329427
 20
23.8218027750651
 30
0.0
 10
5.059064229329427
 20
23.8218027750651
 30
0.0
 10
5.001147800021701
 20
23.90416399637858
 30
0.0
 10
5.001147800021701
 20
23.90416399637858
 30
0.0
 10
5.001147800021701
 20
23.90416399637858
 30
0.0
 10
4.945592244466146
 20
23.98444175720215
 30
0.0
 10
4.945592244466146
 20
23.98444175720215
 30
0.0
 10
4.945592244466146
 20
23.98444175720215
 30
0.0
 10
4.894203186035156
 20
24.06166394551595
 30
0.0
 10
4.894203186035156
 20
24.06166394551595
 30
0.0
 10
4.894203186035156
 20
24.06166394551595
 30
0.0
 10
4.846703423394097
 20
24.1355529361301
 30
0.0
 10
4.846703423394097
 20
24.1355529361301
 30
0.0
 10
4.846703423394097
 20
24.1355529361301
 30
0.0
 10
4.802953084309896
 20
24.20499738057454
 30
0.0
 10
4.802953084309896
 20
24.20499738057454
 30
0.0
 10
4.802953084309896
 20
24.20499738057454
 30
0.0
 10
4.763370090060763
 20
24.27124722798665
 30
0.0
 10
4.763370090060763
 20
24.27124722798665
 30
0.0
 10
4.763370090060763
 20
24.27124722798665
 30
0.0
 10
4.727536519368489
 20
24.33374722798665
 30
0.0
 10
4.727536519368489
 20
24.33374722798665
 30
0.0
 10
4.727536519368489
 20
24.33374722798665
 30
0.0
 10
4.727536519368489
 20
24.33374722798665
 30
0.0
 10
4.727536519368489
 20
24.33374722798665
 30
0.0
 10
4.727536519368489
 20
24.33374722798665
 30
0.0
 10
4.849758572048611
 20
24.35777515835232
 30
0.0
 10
4.849758572048611
 20
24.35777515835232
 30
0.0
 10
4.849758572048611
 20
24.35777515835232
 30
0.0
 10
4.849619547526041
 20
24.35888629489475
 30
0.0
 10
4.849619547526041
 20
24.35888629489475
 30
0.0
 10
4.849619547526041
 20
24.35888629489475
 30
0.0
 10
5.044063991970486
 20
24.39708073933919
 30
0.0
 10
5.044063991970486
 20
24.39708073933919
 30
0.0
 10
5.044063991970486
 20
24.39708073933919
 30
0.0
 10
5.044203016493055
 20
24.39596939086914
 30
0.0
 10
5.044203016493055
 20
24.39596939086914
 30
0.0
 10
5.044203016493055
 20
24.39596939086914
 30
0.0
 10
5.176564534505208
 20
24.43235863579644
 30
0.0
 10
5.176564534505208
 20
24.43235863579644
 30
0.0
 10
5.176564534505208
 20
24.43235863579644
 30
0.0
 10
5.176841735839844
 20
24.43319193522135
 30
0.0
 10
5.176841735839844
 20
24.43319193522135
 30
0.0
 10
5.176841735839844
 20
24.43319193522135
 30
0.0
 10
5.09350840250651
 20
24.51833046807183
 30
0.0
 10
5.09350840250651
 20
24.51833046807183
 30
0.0
 10
5.09350840250651
 20
24.51833046807183
 30
0.0
 10
5.008786519368489
 20
24.61388609144423
 30
0.0
 10
5.008786519368489
 20
24.61388609144423
 30
0.0
 10
5.008786519368489
 20
24.61388609144423
 30
0.0
 10
4.923369513617621
 20
24.71985838148329
 30
0.0
 10
4.923369513617621
 20
24.71985838148329
 30
0.0
 10
4.923369513617621
 20
24.71985838148329
 30
0.0
 10
4.837397257486979
 20
24.83555306328667
 30
0.0
 10
4.837397257486979
 20
24.83555306328667
 30
0.0
 10
4.837397257486979
 20
24.83555306328667
 30
0.0
 10
4.751981099446614
 20
24.96055306328667
 30
0.0
 10
4.751981099446614
 20
24.96055306328667
 30
0.0
 10
4.751981099446614
 20
24.96055306328667
 30
0.0
 10
4.668647766113281
 20
25.09180280897352
 30
0.0
 10
4.668647766113281
 20
25.09180280897352
 30
0.0
 10
4.668647766113281
 20
25.09180280897352
 30
0.0
 10
4.58878665500217
 20
25.22721947564019
 30
0.0
 10
4.58878665500217
 20
25.22721947564019
 30
0.0
 10
4.58878665500217
 20
25.22721947564019
 30
0.0
 10
4.514203389485677
 20
25.3640251159668
 30
0.0
 10
4.514203389485677
 20
25.3640251159668
 30
0.0
 10
4.514203389485677
 20
25.3640251159668
 30
0.0
 10
4.446425543891059
 20
25.49971940782335
 30
0.0
 10
4.446425543891059
 20
25.49971940782335
 30
0.0
 10
4.446425543891059
 20
25.49971940782335
 30
0.0
 10
4.38600836859809
 20
25.63194190131293
 30
0.0
 10
4.38600836859809
 20
25.63194190131293
 30
0.0
 10
4.38600836859809
 20
25.63194190131293
 30
0.0
 10
4.333091735839844
 20
25.75958082411024
 30
0.0
 10
4.333091735839844
 20
25.75958082411024
 30
0.0
 10
4.333091735839844
 20
25.75958082411024
 30
0.0
 10
4.28753662109375
 20
25.88180287679036
 30
0.0
 10
4.28753662109375
 20
25.88180287679036
 30
0.0
 10
4.28753662109375
 20
25.88180287679036
 30
0.0
 10
4.248647901746962
 20
25.99819183349609
 30
0.0
 10
4.248647901746962
 20
25.99819183349609
 30
0.0
 10
4.248647901746962
 20
25.99819183349609
 30
0.0
 10
4.216008504231771
 20
26.10846964518229
 30
0.0
 10
4.216008504231771
 20
26.10846964518229
 30
0.0
 10
4.216008504231771
 20
26.10846964518229
 30
0.0
 10
4.189203050401476
 20
26.21277491251627
 30
0.0
 10
4.189203050401476
 20
26.21277491251627
 30
0.0
 10
4.189203050401476
 20
26.21277491251627
 30
0.0
 10
4.168091668023004
 20
26.31110848320855
 30
0.0
 10
4.168091668023004
 20
26.31110848320855
 30
0.0
 10
4.168091668023004
 20
26.31110848320855
 30
0.0
 10
4.166981167263454
 20
26.31027518378363
 30
0.0
 10
4.166981167263454
 20
26.31027518378363
 30
0.0
 10
4.166981167263454
 20
26.31027518378363
 30
0.0
 10
4.145869784884982
 20
26.21194161309136
 30
0.0
 10
4.145869784884982
 20
26.21194161309136
 30
0.0
 10
4.145869784884982
 20
26.21194161309136
 30
0.0
 10
4.119064331054688
 20
26.10763634575738
 30
0.0
 10
4.119064331054688
 20
26.10763634575738
 30
0.0
 10
4.119064331054688
 20
26.10763634575738
 30
0.0
 10
4.08642578125
 20
25.99735853407118
 30
0.0
 10
4.08642578125
 20
25.99735853407118
 30
0.0
 10
4.08642578125
 20
25.99735853407118
 30
0.0
 10
4.047536214192708
 20
25.88096957736545
 30
0.0
 10
4.047536214192708
 20
25.88096957736545
 30
0.0
 10
4.047536214192708
 20
25.88096957736545
 30
0.0
 10
4.001981099446614
 20
25.75874752468533
 30
0.0
 10
4.001981099446614
 20
25.75874752468533
 30
0.0
 10
4.001981099446614
 20
25.75874752468533
 30
0.0
 10
3.949203491210938
 20
25.63110860188802
 30
0.0
 10
3.949203491210938
 20
25.63110860188802
 30
0.0
 10
3.949203491210938
 20
25.63110860188802
 30
0.0
 10
3.888786315917969
 20
25.49888610839844
 30
0.0
 10
3.888786315917969
 20
25.49888610839844
 30
0.0
 10
3.888786315917969
 20
25.49888610839844
 30
0.0
 10
3.820869445800781
 20
25.36319181654188
 30
0.0
 10
3.820869445800781
 20
25.36319181654188
 30
0.0
 10
3.820869445800781
 20
25.36319181654188
 30
0.0
 10
3.746286180284288
 20
25.22638617621528
 30
0.0
 10
3.746286180284288
 20
25.22638617621528
 30
0.0
 10
3.746286180284288
 20
25.22638617621528
 30
0.0
 10
3.666425069173177
 20
25.09096950954861
 30
0.0
 10
3.666425069173177
 20
25.09096950954861
 30
0.0
 10
3.666425069173177
 20
25.09096950954861
 30
0.0
 10
3.583091735839844
 20
24.95971934000651
 30
0.0
 10
3.583091735839844
 20
24.95971934000651
 30
0.0
 10
3.583091735839844
 20
24.95971934000651
 30
0.0
 10
3.497675577799479
 20
24.83471934000651
 30
0.0
 10
3.497675577799479
 20
24.83471934000651
 30
0.0
 10
3.497675577799479
 20
24.83471934000651
 30
0.0
 10
3.411842346191406
 20
24.71902508205838
 30
0.0
 10
3.411842346191406
 20
24.71902508205838
 30
0.0
 10
3.411842346191406
 20
24.71902508205838
 30
0.0
 10
3.326286315917969
 20
24.61305279201931
 30
0.0
 10
3.326286315917969
 20
24.61305279201931
 30
0.0
 10
3.326286315917969
 20
24.61305279201931
 30
0.0
 10
3.241564432779948
 20
24.51749716864692
 30
0.0
 10
3.241564432779948
 20
24.51749716864692
 30
0.0
 10
3.241564432779948
 20
24.51749716864692
 30
0.0
 10
3.158231099446614
 20
24.43235863579644
 30
0.0
 10
3.158231099446614
 20
24.43235863579644
 30
0.0
 10
3.158231099446614
 20
24.43235863579644
 30
0.0
 10
3.158092074924045
 20
24.43235863579644
 30
0.0
 10
3.158092074924045
 20
24.43235863579644
 30
0.0
 10
3.158092074924045
 20
24.43235863579644
 30
0.0
 10
3.290453592936198
 20
24.39596939086914
 30
0.0
 10
3.290453592936198
 20
24.39596939086914
 30
0.0
 10
3.290453592936198
 20
24.39596939086914
 30
0.0
 10
3.290175543891059
 20
24.39596939086914
 30
0.0
 10
3.290175543891059
 20
24.39596939086914
 30
0.0
 10
3.290175543891059
 20
24.39596939086914
 30
0.0
 10
3.484619988335503
 20
24.35777515835232
 30
0.0
 10
3.484619988335503
 20
24.35777515835232
 30
0.0
 10
3.484619988335503
 20
24.35777515835232
 30
0.0
 10
3.484898037380642
 20
24.35833062065972
 30
0.0
 10
3.484898037380642
 20
24.35833062065972
 30
0.0
 10
3.484898037380642
 20
24.35833062065972
 30
0.0
 10
3.606981065538194
 20
24.33430290222168
 30
0.0
 10
3.606981065538194
 20
24.33430290222168
 30
0.0
 10
3.606981065538194
 20
24.33430290222168
 30
0.0
 10
3.607120090060764
 20
24.33374722798665
 30
0.0
 10
3.607120090060764
 20
24.33374722798665
 30
0.0
 10
3.607120090060764
 20
24.33374722798665
 30
0.0
 10
3.571425543891059
 20
24.27124722798665
 30
0.0
 10
3.571425543891059
 20
24.27124722798665
 30
0.0
 10
3.571425543891059
 20
24.27124722798665
 30
0.0
 10
3.531703525119358
 20
24.20499738057454
 30
0.0
 10
3.531703525119358
 20
24.20499738057454
 30
0.0
 10
3.531703525119358
 20
24.20499738057454
 30
0.0
 10
3.488092210557725
 20
24.1355529361301
 30
0.0
 10
3.488092210557725
 20
24.1355529361301
 30
0.0
 10
3.488092210557725
 20
24.1355529361301
 30
0.0
 10
3.440453423394097
 20
24.06166394551595
 30
0.0
 10
3.440453423394097
 20
24.06166394551595
 30
0.0
 10
3.440453423394097
 20
24.06166394551595
 30
0.0
 10
3.389064364963108
 20
23.98444175720215
 30
0.0
 10
3.389064364963108
 20
23.98444175720215
 30
0.0
 10
3.389064364963108
 20
23.98444175720215
 30
0.0
 10
3.333508809407552
 20
23.90416399637858
 30
0.0
 10
3.333508809407552
 20
23.90416399637858
 30
0.0
 10
3.333508809407552
 20
23.90416399637858
 30
0.0
 10
3.275592380099826
 20
23.8218027750651
 30
0.0
 10
3.275592380099826
 20
23.8218027750651
 30
0.0
 10
3.275592380099826
 20
23.8218027750651
 30
0.0
 10
3.215175204806858
 20
23.73846944173177
 30
0.0
 10
3.215175204806858
 20
23.73846944173177
 30
0.0
 10
3.215175204806858
 20
23.73846944173177
 30
0.0
 10
3.090175204806858
 20
23.57291391160753
 30
0.0
 10
3.090175204806858
 20
23.57291391160753
 30
0.0
 10
3.090175204806858
 20
23.57291391160753
 30
0.0
 10
3.026564704047309
 20
23.49263615078396
 30
0.0
 10
3.026564704047309
 20
23.49263615078396
 30
0.0
 10
3.026564704047309
 20
23.49263615078396
 30
0.0
 10
2.962814331054688
 20
23.41527514987522
 30
0.0
 10
2.962814331054688
 20
23.41527514987522
 30
0.0
 10
2.962814331054688
 20
23.41527514987522
 30
0.0
 10
2.899481031629774
 20
23.34083069695367
 30
0.0
 10
2.899481031629774
 20
23.34083069695367
 30
0.0
 10
2.899481031629774
 20
23.34083069695367
 30
0.0
 10
2.836563958062066
 20
23.26971944173177
 30
0.0
 10
2.836563958062066
 20
23.26971944173177
 30
0.0
 10
2.836563958062066
 20
23.26971944173177
 30
0.0
 10
2.774342007107205
 20
23.20194180806478
 30
0.0
 10
2.774342007107205
 20
23.20194180806478
 30
0.0
 10
2.774342007107205
 20
23.20194180806478
 30
0.0
 10
2.712536282009549
 20
23.13735834757487
 30
0.0
 10
2.712536282009549
 20
23.13735834757487
 30
0.0
 10
2.712536282009549
 20
23.13735834757487
 30
0.0
 10
2.712259080674913
 20
23.13777499728733
 30
0.0
 10
2.712259080674913
 20
23.13777499728733
 30
0.0
 10
2.712259080674913
 20
23.13777499728733
 30
0.0
 10
2.787119547526042
 20
23.11388630337185
 30
0.0
 10
2.787119547526042
 20
23.11388630337185
 30
0.0
 10
2.787119547526042
 20
23.11388630337185
 30
0.0
 10
2.862258911132812
 20
23.09138615926107
 30
0.0
 10
2.862258911132812
 20
23.09138615926107
 30
0.0
 10
2.862258911132812
 20
23.09138615926107
 30
0.0
 10
2.93739742702908
 20
23.07041401333279
 30
0.0
 10
2.93739742702908
 20
23.07041401333279
 30
0.0
 10
2.93739742702908
 20
23.07041401333279
 30
0.0
 10
3.011841668023003
 20
23.05166392856174
 30
0.0
 10
3.011841668023003
 20
23.05166392856174
 30
0.0
 10
3.011841668023003
 20
23.05166392856174
 30
0.0
 10
3.083786858452691
 20
23.03555297851562
 30
0.0
 10
3.083786858452691
 20
23.03555297851562
 30
0.0
 10
3.083786858452691
 20
23.03555297851562
 30
0.0
 10
3.118509080674913
 20
23.02860853407118
 30
0.0
 10
3.118509080674913
 20
23.02860853407118
 30
0.0
 10
3.118509080674913
 20
23.02860853407118
 30
0.0
 10
3.151980929904514
 20
23.02263620164659
 30
0.0
 10
3.151980929904514
 20
23.02263620164659
 30
0.0
 10
3.151980929904514
 20
23.02263620164659
 30
0.0
 10
3.184203253851996
 20
23.01749738057454
 30
0.0
 10
3.184203253851996
 20
23.01749738057454
 30
0.0
 10
3.184203253851996
 20
23.01749738057454
 30
0.0
 10
3.215175204806858
 20
23.01319185892741
 30
0.0
 10
3.215175204806858
 20
23.01319185892741
 30
0.0
 10
3.215175204806858
 20
23.01319185892741
 30
0.0
 10
3.244758605957031
 20
23.00971963670519
 30
0.0
 10
3.244758605957031
 20
23.00971963670519
 30
0.0
 10
3.244758605957031
 20
23.00971963670519
 30
0.0
 10
3.273230658637153
 20
23.00721952650282
 30
0.0
 10
3.273230658637153
 20
23.00721952650282
 30
0.0
 10
3.273230658637153
 20
23.00721952650282
 30
0.0
 10
3.273230658637153
 20
23.00721952650282
 30
0.0
 10
3.273230658637153
 20
23.00721952650282
 30
0.0
 10
3.273230658637153
 20
23.00721952650282
 30
0.0
 10
3.261841668023003
 20
22.98735851711697
 30
0.0
 10
3.261841668023003
 20
22.98735851711697
 30
0.0
 10
3.261841668023003
 20
22.98735851711697
 30
0.0
 10
3.247952779134114
 20
22.96360842386881
 30
0.0
 10
3.247952779134114
 20
22.96360842386881
 30
0.0
 10
3.247952779134114
 20
22.96360842386881
 30
0.0
 10
3.230869717068142
 20
22.93583064609104
 30
0.0
 10
3.230869717068142
 20
22.93583064609104
 30
0.0
 10
3.230869717068142
 20
22.93583064609104
 30
0.0
 10
3.210869683159722
 20
22.90458064609104
 30
0.0
 10
3.210869683159722
 20
22.90458064609104
 30
0.0
 10
3.210869683159722
 20
22.90458064609104
 30
0.0
 10
3.188369750976562
 20
22.86999723646376
 30
0.0
 10
3.188369750976562
 20
22.86999723646376
 30
0.0
 10
3.188369750976562
 20
22.86999723646376
 30
0.0
 10
3.163508945041233
 20
22.83249727884928
 30
0.0
 10
3.163508945041233
 20
22.83249727884928
 30
0.0
 10
3.163508945041233
 20
22.83249727884928
 30
0.0
 10
3.108925713433159
 20
22.7519416809082
 30
0.0
 10
3.108925713433159
 20
22.7519416809082
 30
0.0
 10
3.108925713433159
 20
22.7519416809082
 30
0.0
 10
3.051286485460069
 20
22.66930283440484
 30
0.0
 10
3.051286485460069
 20
22.66930283440484
 30
0.0
 10
3.051286485460069
 20
22.66930283440484
 30
0.0
 10
2.994064331054688
 20
22.58958064185248
 30
0.0
 10
2.994064331054688
 20
22.58958064185248
 30
0.0
 10
2.994064331054688
 20
22.58958064185248
 30
0.0
 10
2.880453321668837
 20
22.43999735514323
 30
0.0
 10
2.880453321668837
 20
22.43999735514323
 30
0.0
 10
2.880453321668837
 20
22.43999735514323
 30
0.0
 10
2.819619920518663
 20
22.36319181654188
 30
0.0
 10
2.819619920518663
 20
22.36319181654188
 30
0.0
 10
2.819619920518663
 20
22.36319181654188
 30
0.0
 10
2.753508673773871
 20
22.28110843234592
 30
0.0
 10
2.753508673773871
 20
22.28110843234592
 30
0.0
 10
2.753508673773871
 20
22.28110843234592
 30
0.0
 10
2.682814704047309
 20
22.19458060794407
 30
0.0
 10
2.682814704047309
 20
22.19458060794407
 30
0.0
 10
2.682814704047309
 20
22.19458060794407
 30
0.0
 10
2.610175238715278
 20
22.1069417529636
 30
0.0
 10
2.610175238715278
 20
22.1069417529636
 30
0.0
 10
2.610175238715278
 20
22.1069417529636
 30
0.0
 10
2.538369920518663
 20
22.02249728308783
 30
0.0
 10
2.538369920518663
 20
22.02249728308783
 30
0.0
 10
2.538369920518663
 20
22.02249728308783
 30
0.0
 10
2.469897800021701
 20
21.94458060794407
 30
0.0
 10
2.469897800021701
 20
21.94458060794407
 30
0.0
 10
2.469897800021701
 20
21.94458060794407
 30
0.0
 10
2.43739742702908
 20
21.90860843658447
 30
0.0
 10
2.43739742702908
 20
21.90860843658447
 30
0.0
 10
2.43739742702908
 20
21.90860843658447
 30
0.0
 10
2.40600840250651
 20
21.87485843234592
 30
0.0
 10
2.40600840250651
 20
21.87485843234592
 30
0.0
 10
2.40600840250651
 20
21.87485843234592
 30
0.0
 10
2.376008775499132
 20
21.84319178263346
 30
0.0
 10
2.376008775499132
 20
21.84319178263346
 30
0.0
 10
2.376008775499132
 20
21.84319178263346
 30
0.0
 10
2.347258673773871
 20
21.8138862186008
 30
0.0
 10
2.347258673773871
 20
21.8138862186008
 30
0.0
 10
2.347258673773871
 20
21.8138862186008
 30
0.0
 10
2.346703423394097
 20
21.81471951802571
 30
0.0
 10
2.346703423394097
 20
21.81471951802571
 30
0.0
 10
2.346703423394097
 20
21.81471951802571
 30
0.0
 10
2.421563890245225
 20
21.78860844506158
 30
0.0
 10
2.421563890245225
 20
21.78860844506158
 30
0.0
 10
2.421563890245225
 20
21.78860844506158
 30
0.0
 10
2.504897223578559
 20
21.7631917529636
 30
0.0
 10
2.504897223578559
 20
21.7631917529636
 30
0.0
 10
2.504897223578559
 20
21.7631917529636
 30
0.0
 10
2.596842447916667
 20
21.73833062913683
 30
0.0
 10
2.596842447916667
 20
21.73833062913683
 30
0.0
 10
2.596842447916667
 20
21.73833062913683
 30
0.0
 10
2.697258843315972
 20
21.71444177627563
 30
0.0
 10
2.697258843315972
 20
21.71444177627563
 30
0.0
 10
2.697258843315972
 20
21.71444177627563
 30
0.0
 10
2.805731031629774
 20
21.6912473042806
 30
0.0
 10
2.805731031629774
 20
21.6912473042806
 30
0.0
 10
2.805731031629774
 20
21.6912473042806
 30
0.0
 10
2.920869615342882
 20
21.66916396882799
 30
0.0
 10
2.920869615342882
 20
21.66916396882799
 30
0.0
 10
2.920869615342882
 20
21.66916396882799
 30
0.0
 10
3.163647969563802
 20
21.62888622283936
 30
0.0
 10
3.163647969563802
 20
21.62888622283936
 30
0.0
 10
3.163647969563802
 20
21.62888622283936
 30
0.0
 10
3.285452948676215
 20
21.61124732759264
 30
0.0
 10
3.285452948676215
 20
21.61124732759264
 30
0.0
 10
3.285452948676215
 20
21.61124732759264
 30
0.0
 10
3.403231302897135
 20
21.59555286831326
 30
0.0
 10
3.403231302897135
 20
21.59555286831326
 30
0.0
 10
3.403231302897135
 20
21.59555286831326
 30
0.0
 10
3.514342414008246
 20
21.58166397942437
 30
0.0
 10
3.514342414008246
 20
21.58166397942437
 30
0.0
 10
3.514342414008246
 20
21.58166397942437
 30
0.0
 10
3.615453084309896
 20
21.57083066304525
 30
0.0
 10
3.615453084309896
 20
21.57083066304525
 30
0.0
 10
3.615453084309896
 20
21.57083066304525
 30
0.0
 10
3.661842346191406
 20
21.5665250884162
 30
0.0
 10
3.661842346191406
 20
21.5665250884162
 30
0.0
 10
3.661842346191406
 20
21.5665250884162
 30
0.0
 10
3.705175611707899
 20
21.56277508205838
 30
0.0
 10
3.705175611707899
 20
21.56277508205838
 30
0.0
 10
3.705175611707899
 20
21.56277508205838
 30
0.0
 10
3.745452880859375
 20
21.55971956253052
 30
0.0
 10
3.745452880859375
 20
21.55971956253052
 30
0.0
 10
3.745452880859375
 20
21.55971956253052
 30
0.0
 10
3.782397800021701
 20
21.55735842386881
 30
0.0
 10
3.782397800021701
 20
21.55735842386881
 30
0.0
 10
3.782397800021701
 20
21.55735842386881
 30
0.0
 10
3.816147698296441
 20
21.55569177203708
 30
0.0
 10
3.816147698296441
 20
21.55569177203708
 30
0.0
 10
3.816147698296441
 20
21.55569177203708
 30
0.0
 10
3.846703423394097
 20
21.55471955405341
 30
0.0
 10
3.846703423394097
 20
21.55471955405341
 30
0.0
 10
3.846703423394097
 20
21.55471955405341
 30
0.0
 10
3.874481201171875
 20
21.55471955405341
 30
0.0
 10
3.874481201171875
 20
21.55471955405341
 30
0.0
 10
3.874481201171875
 20
21.55471955405341
 30
0.0
 10
3.898647732204861
 20
21.55471955405341
 30
0.0
 10
3.898647732204861
 20
21.55471955405341
 30
0.0
 10
3.898647732204861
 20
21.55471955405341
 30
0.0
 10
3.898647732204861
 20
21.55388620164659
 30
0.0
 10
3.898647732204861
 20
21.55388620164659
 30
0.0
 10
3.898647732204861
 20
21.55388620164659
 30
0.0
 10
3.898647732204861
 20
21.11944177415636
 30
0.0
 10
3.898647732204861
 20
21.11944177415636
 30
0.0
 10
3.898647732204861
 20
21.11944177415636
 30
0.0
 10
3.898647732204861
 20
21.11888620588514
 30
0.0
 10
3.898647732204861
 20
21.11888620588514
 30
0.0
 10
3.898647732204861
 20
21.09357322586907
 30
0.0
 10
3.919168260362413
 20
21.07305296262105
 30
0.0
 10
3.944480895996094
 20
21.07305288314819
 30
0.0
 10
3.944480895996094
 20
21.07305288314819
 30
0.0
 10
3.944480895996094
 20
21.07360842492845
 30
0.0
 10
3.944480895996094
 20
21.07360842492845
 30
0.0
 10
3.944480895996094
 20
21.07360842492845
 30
0.0
 10
4.067397223578559
 20
21.07360842492845
 30
0.0
 10
4.067397223578559
 20
21.07360842492845
 30
0.0
 10
4.067397223578559
 20
21.07360842492845
 30
0.0
 10
4.067397223578559
 20
21.07360842492845
 30
0.0
 10
4.067397223578559
 20
21.07360842492845
 30
0.0
 10
4.067397223578559
 20
21.07360842492845
 30
0.0
 10
4.067397223578559
 20
23.69194179111057
 30
0.0
 10
4.067397223578559
 20
23.69194179111057
 30
0.0
 10
4.067397223578559
 20
23.69194179111057
 30
0.0
 10
4.066980997721354
 20
23.69194179111057
 30
0.0
 10
4.066980997721354
 20
23.69194179111057
 30
0.0
  0
ENDBLK
  5
4D
330
4A
100
AcDbEntity
  8
0
100
AcDbBlockEnd
  0
BLOCK
  5
51
330
4F
100
AcDbEntity
  8
0
100
AcDbBlockBegin
  2
block 5
 70
     0
 10
0.0
 20
0.0
 30
0.0
  3
block 5
  1

  0
SPLINE
  5
53
330
4F
100
AcDbEntity
  8
Layer 1
 62
     1
420
 16716306
370
    35
100
AcDbSpline
210
0.0
220
0.0
230
1.0
 70
    11
 71
     3
 72
    20
 73
    16
 74
     0
 42
0.0000000001
 43
0.0000000001
 12
1.0
 22
0.0
 32
0.0
 13
1.0
 23
0.0
 33
0.0
 40
0.0
 40
0.0
 40
0.0
 40
0.0
 40
1.0
 40
1.0
 40
1.0
 40
2.0
 40
2.0
 40
2.0
 40
3.0
 40
3.0
 40
3.0
 40
4.0
 40
4.0
 40
4.0
 40
5.0
 40
5.0
 40
5.0
 40
5.0
 10
6.403237660725911
 20
23.732291030801
 30
0.0
 10
5.68012809753418
 20
23.73221420496702
 30
0.0
 10
5.093869951036241
 20
24.3183479309082
 30
0.0
 10
5.093793021308051
 20
25.04145738813612
 30
0.0
 10
5.093716303507486
 20
25.76456684536404
 30
0.0
 10
5.67985004848904
 20
26.3508252037896
 30
0.0
 10
6.402959611680772
 20
26.35090192159017
 30
0.0
 10
7.126068962944878
 20
26.35097885131836
 30
0.0
 10
7.712327321370442
 20
25.7648451063368
 30
0.0
 10
7.712404039171006
 20
25.04173564910889
 30
0.0
 10
7.712404039171006
 20
25.04164293077257
 30
0.0
 10
7.712404039171006
 20
25.04155031840006
 30
0.0
 10
7.712404039171006
 20
25.04145770602756
 30
0.0
 10
7.712327321370442
 20
24.31845675574408
 30
0.0
 10
7.126238505045572
 20
23.73236782807443
 30
0.0
 10
6.403237660725911
 20
23.732291030801
 30
0.0
  0
ENDBLK
  5
52
330
4F
100
AcDbEntity
  8
0
100
AcDbBlockEnd
  0
BLOCK
  5
56
330
54
100
AcDbEntity
  8
0
100
AcDbBlockBegin
  2
block 6
 70
     0
 10
0.0
 20
0.0
 30
0.0
  3
block 6
  1

  0
SPLINE
  5
58
330
54
100
AcDbEntity
  8
Layer 1
 62
     1
420
 16716306
370
    35
100
AcDbSpline
210
0.0
220
0.0
230
1.0
 70
    11
 71
     3
 72
    20
 73
    16
 74
     0
 42
0.0000000001
 43
0.0000000001
 12
1.0
 22
0.0
 32
0.0
 13
1.0
 23
0.0
 33
0.0
 40
0.0
 40
0.0
 40
0.0
 40
0.0
 40
1.0
 40
1.0
 40
1.0
 40
2.0
 40
2.0
 40
2.0
 40
3.0
 40
3.0
 40
3.0
 40
4.0
 40
4.0
 40
4.0
 40
5.0
 40
5.0
 40
5.0
 40
5.0
 10
5.82525499123666
 20
22.53203625149197
 30
0.0
 10
5.82525499123666
 20
21.88931486341688
 30
0.0
 10
6.346283594767252
 20
21.36828634474012
 30
0.0
 10
6.989004982842339
 20
21.36828634474012
 30
0.0
 10
7.631726370917426
 20
21.36828634474012
 30
0.0
 10
8.152755101521809
 20
21.8893149693807
 30
0.0
 10
8.152755101521809
 20
22.53203635745578
 30
0.0
 10
8.152755101521809
 20
23.17475763956705
 30
0.0
 10
7.631726370917426
 20
23.69578637017144
 30
0.0
 10
6.989004982842339
 20
23.69578637017144
 30
0.0
 10
6.346360312567817
 20
23.695863087972
 30
0.0
 10
5.825331713590357
 20
23.17495875888401
 30
0.0
 10
5.825255006551743
 20
22.5323141945733
 30
0.0
 10
5.825254995375872
 20
22.53222147623698
 30
0.0
 10
5.825254995375872
 20
22.53212886386448
 30
0.0
 10
5.82525499123666
 20
22.53203625149197
 30
0.0
  0
POLYLINE
  5
59
330
54
100
AcDbEntity
  8
Layer 1
 62
     1
420
 16716306
370
    35
100
AcDb2dPolyline
 66
     1
 10
0.0
 20
0.0
 30
0.0
  0
VERTEX
  5
5A
330
59
100
AcDbEntity
  8
Layer 1
 62
     1
420
 16716306
370
    35
100
AcDbVertex
100
AcDb2dVertex
 10
7.087477260165744
 20
22.80078633626302
 30
0.0
  0
VERTEX
  5
5B
330
59
100
AcDbEntity
  8
Layer 1
 62
     1
420
 16716306
370
    35
100
AcDbVertex
100
AcDb2dVertex
 10
7.087477260165744
 20
22.63050852881537
 30
0.0
  0
VERTEX
  5
5C
330
59
100
AcDbEntity
  8
Layer 1
 62
     1
420
 16716306
370
    35
100
AcDbVertex
100
AcDb2dVertex
 10
7.257754961649576
 20
22.63050852881537
 30
0.0
  0
VERTEX
  5
5D
330
59
100
AcDbEntity
  8
Layer 1
 62
     1
420
 16716306
370
    35
100
AcDbVertex
100
AcDb2dVertex
 10
7.257754961649576
 20
22.43370299869114
 30
0.0
  0
VERTEX
  5
5E
330
59
100
AcDbEntity
  8
Layer 1
 62
     1
420
 16716306
370
    35
100
AcDbVertex
100
AcDb2dVertex
 10
7.087477260165744
 20
22.43370299869114
 30
0.0
  0
VERTEX
  5
5F
330
59
100
AcDbEntity
  8
Layer 1
 62
     1
420
 16716306
370
    35
100
AcDbVertex
100
AcDb2dVertex
 10
7.087477260165744
 20
22.26342519124349
 30
0.0
  0
VERTEX
  5
60
330
59
100
AcDbEntity
  8
Layer 1
 62
     1
420
 16716306
370
    35
100
AcDbVertex
100
AcDb2dVertex
 10
6.890532811482747
 20
22.26342519124349
 30
0.0
  0
VERTEX
  5
61
330
59
100
AcDbEntity
  8
Layer 1
 62
     1
420
 16716306
370
    35
100
AcDbVertex
100
AcDb2dVertex
 10
6.890532811482747
 20
22.43370299869114
 30
0.0
  0
VERTEX
  5
62
330
59
100
AcDbEntity
  8
Layer 1
 62
     1
420
 16716306
370
    35
100
AcDbVertex
100
AcDb2dVertex
 10
6.720255004035102
 20
22.43370299869114
 30
0.0
  0
VERTEX
  5
63
330
59
100
AcDbEntity
  8
Layer 1
 62
     1
420
 16716306
370
    35
100
AcDbVertex
100
AcDb2dVertex
 10
6.720255004035102
 20
22.63050852881537
 30
0.0
  0
VERTEX
  5
64
330
59
100
AcDbEntity
  8
Layer 1
 62
     1
420
 16716306
370
    35
100
AcDbVertex
100
AcDb2dVertex
 10
6.890532811482747
 20
22.63050852881537
 30
0.0
  0
VERTEX
  5
65
330
59
100
AcDbEntity
  8
Layer 1
 62
     1
420
 16716306
370
    35
100
AcDbVertex
100
AcDb2dVertex
 10
6.890532811482747
 20
22.80078633626302
 30
0.0
  0
VERTEX
  5
66
330
59
100
AcDbEntity
  8
Layer 1
 62
     1
420
 16716306
370
    35
100
AcDbVertex
100
AcDb2dVertex
 10
7.087477260165744
 20
22.80078633626302
 30
0.0
  0
SEQEND
  5
67
330
59
100
AcDbEntity
  8
Layer 1
 62
     1
420
 16716306
370
    35
  0
ENDBLK
  5
57
330
54
100
AcDbEntity
  8
0
100
AcDbBlockEnd
  0
ENDSEC
  0
SECTION
  2
ENTITIES
  0
INSERT
  5
42
330
1F
100
AcDbEntity
  8
Layer 1
100
AcDbBlockReference
  2
block 2
 10
0.0
 20
0.0
 30
0.0
  0
ENDSEC
  0
SECTION
  2
OBJECTS
  0
DICTIONARY
  5
C
330
0
100
AcDbDictionary
281
     1
  3
ACAD_GROUP
350
D
  3
ACAD_LAYOUT
350
1A
  3
ACAD_MATERIAL
350
3B
  3
ACAD_MLEADERSTYLE
350
69
  3
ACAD_MLINESTYLE
350
17
  3
ACAD_PLOTSETTINGS
350
19
  3
ACAD_PLOTSTYLENAME
350
E
  3
ACAD_TABLESTYLE
350
68
  3
ACAD_VISUALSTYLE
350
2A
  0
SUN
  5
3F
330
29
100
AcDbSun
 90
        1
290
     0
 63
     7
421
 16777215
 40
1.0
291
     1
 91
  2455826
 92
 54000000
292
     0
 70
     2
 71
   256
280
     1
  0
DICTIONARY
  5
D
102
{ACAD_REACTORS
330
C
102
}
330
C
100
AcDbDictionary
281
     1
  0
DICTIONARY
  5
1A
102
{ACAD_REACTORS
330
C
102
}
330
C
100
AcDbDictionary
281
     1
  3
Layout1
350
1E
  3
Layout2
350
26
  3
Model
350
22
  0
DICTIONARY
  5
3B
102
{ACAD_REACTORS
330
C
102
}
330
C
100
AcDbDictionary
281
     1
  3
ByBlock
350
3D
  3
ByLayer
350
3C
  3
Global
350
3E
  0
DICTIONARY
  5
69
102
{ACAD_REACTORS
330
C
102
}
330
C
100
AcDbDictionary
281
     1
  0
DICTIONARY
  5
17
102
{ACAD_REACTORS
330
C
102
}
330
C
100
AcDbDictionary
281
     1
  3
Standard
350
18
  0
DICTIONARY
  5
19
102
{ACAD_REACTORS
330
C
102
}
330
C
100
AcDbDictionary
281
     1
  0
ACDBDICTIONARYWDFLT
  5
E
102
{ACAD_REACTORS
330
C
102
}
330
C
100
AcDbDictionary
281
     1
  3
Normal
350
F
100
AcDbDictionaryWithDefault
340
F
  0
DICTIONARY
  5
68
102
{ACAD_REACTORS
330
C
102
}
330
C
100
AcDbDictionary
281
     1
  0
DICTIONARY
  5
2A
102
{ACAD_REACTORS
330
C
102
}
330
C
100
AcDbDictionary
281
     1
  3
2dWireframe
350
2F
  3
3D Hidden
350
31
  3
3dWireframe
350
30
  3
Basic
350
32
  3
Brighten
350
36
  3
ColorChange
350
3A
  3
Conceptual
350
34
  3
Dim
350
35
  3
Facepattern
350
39
  3
Flat
350
2B
  3
FlatWithEdges
350
2C
  3
Gouraud
350
2D
  3
GouraudWithEdges
350
2E
  3
Linepattern
350
38
  3
Realistic
350
33
  3
Thicken
350
37
  0
LAYOUT
  5
1E
102
{ACAD_REACTORS
330
1A
102
}
330
1A
100
AcDbPlotSettings
  1

  2
none_device
  4

  6

 40
0.0
 41
0.0
 42
0.0
 43
0.0
 44
0.0
 45
0.0
 46
0.0
 47
0.0
 48
0.0
 49
0.0
140
0.0
141
0.0
142
1.0
143
1.0
 70
   688
 72
     0
 73
     0
 74
     5
  7

 75
    16
 76
     0
 77
     2
 78
   300
147
1.0
148
0.0
149
0.0
100
AcDbLayout
  1
Layout1
 70
     1
 71
     1
 10
0.0
 20
0.0
 11
12.0
 21
9.0
 12
0.0
 22
0.0
 32
0.0
 14
1.000000000000000E+20
 24
1.000000000000000E+20
 34
1.000000000000000E+20
 15
-1.000000000000000E+20
 25
-1.000000000000000E+20
 35
-1.000000000000000E+20
146
0.0
 13
0.0
 23
0.0
 33
0.0
 16
1.0
 26
0.0
 36
0.0
 17
0.0
 27
1.0
 37
0.0
 76
     0
330
1B
  0
LAYOUT
  5
26
102
{ACAD_REACTORS
330
1A
102
}
330
1A
100
AcDbPlotSettings
  1

  2
none_device
  4

  6

 40
0.0
 41
0.0
 42
0.0
 43
0.0
 44
0.0
 45
0.0
 46
0.0
 47
0.0
 48
0.0
 49
0.0
140
0.0
141
0.0
142
1.0
143
1.0
 70
   688
 72
     0
 73
     0
 74
     5
  7

 75
    16
 76
     0
 77
     2
 78
   300
147
1.0
148
0.0
149
0.0
100
AcDbLayout
  1
Layout2
 70
     1
 71
     2
 10
0.0
 20
0.0
 11
0.0
 21
0.0
 12
0.0
 22
0.0
 32
0.0
 14
0.0
 24
0.0
 34
0.0
 15
0.0
 25
0.0
 35
0.0
146
0.0
 13
0.0
 23
0.0
 33
0.0
 16
1.0
 26
0.0
 36
0.0
 17
0.0
 27
1.0
 37
0.0
 76
     0
330
23
  0
LAYOUT
  5
22
102
{ACAD_REACTORS
330
1A
102
}
330
1A
100
AcDbPlotSettings
  1

  2
none_device
  4

  6

 40
0.0
 41
0.0
 42
0.0
 43
0.0
 44
0.0
 45
0.0
 46
0.0
 47
0.0
 48
0.0
 49
0.0
140
0.0
141
0.0
142
1.0
143
1.0
 70
  1712
 72
     0
 73
     0
 74
     0
  7

 75
     0
 76
     0
 77
     2
 78
   300
147
1.0
148
0.0
149
0.0
100
AcDbLayout
  1
Model
 70
     1
 71
     0
 10
0.0
 20
0.0
 11
12.0
 21
9.0
 12
0.0
 22
0.0
 32
0.0
 14
1.000000000000000E+20
 24
1.000000000000000E+20
 34
1.000000000000000E+20
 15
-1.000000000000000E+20
 25
-1.000000000000000E+20
 35
-1.000000000000000E+20
146
0.0
 13
0.0
 23
0.0
 33
0.0
 16
1.0
 26
0.0
 36
0.0
 17
0.0
 27
1.0
 37
0.0
 76
     0
330
1F
331
29
  0
MATERIAL
  5
3D
102
{ACAD_REACTORS
330
3B
102
}
330
3B
100
AcDbMaterial
  1
ByBlock
 72
     1
 94
      127
  0
MATERIAL
  5
3C
102
{ACAD_REACTORS
330
3B
102
}
330
3B
100
AcDbMaterial
  1
ByLayer
 72
     1
 94
      127
  0
MATERIAL
  5
3E
102
{ACAD_REACTORS
330
3B
102
}
330
3B
100
AcDbMaterial
  1
Global
 72
     1
 94
      127
  0
MLINESTYLE
  5
18
102
{ACAD_REACTORS
330
17
102
}
330
17
100
AcDbMlineStyle
  2
Standard
 70
     0
  3

 62
   256
 51
90.0
 52
90.0
 71
     2
 49
0.5
 62
   256
  6
BYLAYER
 49
-0.5
 62
   256
  6
BYLAYER
  0
ACDBPLACEHOLDER
  5
F
102
{ACAD_REACTORS
330
E
102
}
330
E
  0
VISUALSTYLE
  5
2F
102
{ACAD_REACTORS
330
2A
102
}
330
2A
100
AcDbVisualStyle
  2
2dWireframe
 70
     4
177
     2
291
     0
 71
     0
176
     1
 72
     2
176
     1
 73
     0
176
     1
 90
        0
176
     1
 40
-0.6
176
     1
 41
-30.0
176
     1
 62
     5
 63
     7
421
 16777215
176
     1
 74
     1
176
     1
 91
        4
176
     1
 64
     7
176
     1
 65
   257
176
     1
 75
     1
176
     1
175
     1
176
     1
 42
1.0
176
     1
 92
        0
176
     1
 66
   257
176
     1
 43
1.0
176
     1
 76
     1
176
     1
 77
     6
176
     1
 78
     2
176
     1
 67
     7
176
     1
 79
     5
176
     1
170
     0
176
     1
171
     0
176
     1
290
     0
176
     1
 93
        1
176
     1
 44
0.0
176
     1
173
     0
176
     1
  0
VISUALSTYLE
  5
31
102
{ACAD_REACTORS
330
2A
102
}
330
2A
100
AcDbVisualStyle
  2
3D Hidden
 70
     6
177
     2
291
     0
 71
     1
176
     1
 72
     2
176
     1
 73
     2
176
     1
 90
        0
176
     1
 40
-0.6
176
     1
 41
-30.0
176
     1
 62
     5
 63
     7
421
 16777215
176
     1
 74
     2
176
     1
 91
        2
176
     1
 64
     7
176
     1
 65
   257
176
     1
 75
     2
176
     1
175
     1
176
     1
 42
40.0
176
     1
 92
        0
176
     1
 66
   257
176
     1
 43
1.0
176
     1
 76
     1
176
     1
 77
     6
176
     1
 78
     2
176
     1
 67
     7
176
     1
 79
     3
176
     1
170
     0
176
     1
171
     0
176
     1
290
     0
176
     1
 93
        1
176
     1
 44
0.0
176
     1
173
     0
176
     1
  0
VISUALSTYLE
  5
30
102
{ACAD_REACTORS
330
2A
102
}
330
2A
100
AcDbVisualStyle
  2
3dWireframe
 70
     5
177
     2
291
     0
 71
     0
176
     1
 72
     2
176
     1
 73
     0
176
     1
 90
        0
176
     1
 40
-0.6
176
     1
 41
-30.0
176
     1
 62
     5
 63
     7
421
 16777215
176
     1
 74
     1
176
     1
 91
        4
176
     1
 64
     7
176
     1
 65
   257
176
     1
 75
     1
176
     1
175
     1
176
     1
 42
1.0
176
     1
 92
        0
176
     1
 66
   257
176
     1
 43
1.0
176
     1
 76
     1
176
     1
 77
     6
176
     1
 78
     2
176
     1
 67
     7
176
     1
 79
     5
176
     1
170
     0
176
     1
171
     0
176
     1
290
     0
176
     1
 93
        1
176
     1
 44
0.0
176
     1
173
     0
176
     1
  0
VISUALSTYLE
  5
32
102
{ACAD_REACTORS
330
2A
102
}
330
2A
100
AcDbVisualStyle
  2
Basic
 70
     7
177
     2
291
     1
 71
     1
176
     1
 72
     0
176
     1
 73
     1
176
     1
 90
        0
176
     1
 40
-0.6
176
     1
 41
-30.0
176
     1
 62
     5
 63
     7
421
 16777215
176
     1
 74
     0
176
     1
 91
        4
176
     1
 64
     7
176
     1
 65
   257
176
     1
 75
     1
176
     1
175
     1
176
     1
 42
1.0
176
     1
 92
        8
176
     1
 66
     7
176
     1
 43
1.0
176
     1
 76
     1
176
     1
 77
     6
176
     1
 78
     2
176
     1
 67
     7
176
     1
 79
     5
176
     1
170
     0
176
     1
171
     0
176
     1
290
     0
176
     1
 93
        1
176
     1
 44
0.0
176
     1
173
     0
176
     1
  0
VISUALSTYLE
  5
36
102
{ACAD_REACTORS
330
2A
102
}
330
2A
100
AcDbVisualStyle
  2
Brighten
 70
    12
177
     2
291
     1
 71
     2
176
     1
 72
     2
176
     1
 73
     0
176
     1
 90
        0
176
     1
 40
-0.6
176
     1
 41
-30.0
176
     1
 62
     5
 63
     7
421
 16777215
176
     1
 74
     1
176
     1
 91
        4
176
     1
 64
     7
176
     1
 65
   257
176
     1
 75
     1
176
     1
175
     1
176
     1
 42
1.0
176
     1
 92
        8
176
     1
 66
     7
176
     1
 43
1.0
176
     1
 76
     1
176
     1
 77
     6
176
     1
 78
     2
176
     1
 67
     7
176
     1
 79
     5
176
     1
170
     0
176
     1
171
     0
176
     1
290
     0
176
     1
 93
        1
176
     1
 44
50.0
176
     1
173
     0
176
     1
  0
VISUALSTYLE
  5
3A
102
{ACAD_REACTORS
330
2A
102
}
330
2A
100
AcDbVisualStyle
  2
ColorChange
 70
    16
177
     2
291
     1
 71
     2
176
     1
 72
     2
176
     1
 73
     3
176
     1
 90
        0
176
     1
 40
-0.6
176
     1
 41
-30.0
176
     1
 62
     5
 63
     8
421
  8421504
176
     1
 74
     1
176
     1
 91
        4
176
     1
 64
     7
176
     1
 65
   257
176
     1
 75
     1
176
     1
175
     1
176
     1
 42
1.0
176
     1
 92
        8
176
     1
 66
     8
424
  8421504
176
     1
 43
1.0
176
     1
 76
     1
176
     1
 77
     6
176
     1
 78
     2
176
     1
 67
     7
176
     1
 79
     5
176
     1
170
     0
176
     1
171
     0
176
     1
290
     0
176
     1
 93
        1
176
     1
 44
0.0
176
     1
173
     0
176
     1
  0
VISUALSTYLE
  5
34
102
{ACAD_REACTORS
330
2A
102
}
330
2A
100
AcDbVisualStyle
  2
Conceptual
 70
     9
177
     2
291
     0
 71
     3
176
     1
 72
     2
176
     1
 73
     0
176
     1
 90
        0
176
     1
 40
-0.6
176
     1
 41
-30.0
176
     1
 62
     5
 63
     7
421
 16777215
176
     1
 74
     2
176
     1
 91
        2
176
     1
 64
     7
176
     1
 65
   257
176
     1
 75
     1
176
     1
175
     1
176
     1
 42
40.0
176
     1
 92
        8
176
     1
 66
     7
176
     1
 43
1.0
176
     1
 76
     1
176
     1
 77
     6
176
     1
 78
     2
176
     1
 67
     7
176
     1
 79
     3
176
     1
170
     0
176
     1
171
     0
176
     1
290
     0
176
     1
 93
        1
176
     1
 44
0.0
176
     1
173
     0
176
     1
  0
VISUALSTYLE
  5
35
102
{ACAD_REACTORS
330
2A
102
}
330
2A
100
AcDbVisualStyle
  2
Dim
 70
    11
177
     2
291
     1
 71
     2
176
     1
 72
     2
176
     1
 73
     0
176
     1
 90
        0
176
     1
 40
-0.6
176
     1
 41
-30.0
176
     1
 62
     5
 63
     7
421
 16777215
176
     1
 74
     1
176
     1
 91
        4
176
     1
 64
     7
176
     1
 65
   257
176
     1
 75
     1
176
     1
175
     1
176
     1
 42
1.0
176
     1
 92
        8
176
     1
 66
     7
176
     1
 43
1.0
176
     1
 76
     1
176
     1
 77
     6
176
     1
 78
     2
176
     1
 67
     7
176
     1
 79
     5
176
     1
170
     0
176
     1
171
     0
176
     1
290
     0
176
     1
 93
        1
176
     1
 44
-50.0
176
     1
173
     0
176
     1
  0
VISUALSTYLE
  5
39
102
{ACAD_REACTORS
330
2A
102
}
330
2A
100
AcDbVisualStyle
  2
Facepattern
 70
    15
177
     2
291
     1
 71
     2
176
     1
 72
     2
176
     1
 73
     0
176
     1
 90
        0
176
     1
 40
-0.6
176
     1
 41
-30.0
176
     1
 62
     5
 63
     7
421
 16777215
176
     1
 74
     1
176
     1
 91
        4
176
     1
 64
     7
176
     1
 65
   257
176
     1
 75
     1
176
     1
175
     1
176
     1
 42
1.0
176
     1
 92
        8
176
     1
 66
     7
176
     1
 43
1.0
176
     1
 76
     1
176
     1
 77
     6
176
     1
 78
     2
176
     1
 67
     7
176
     1
 79
     5
176
     1
170
     0
176
     1
171
     0
176
     1
290
     0
176
     1
 93
        1
176
     1
 44
0.0
176
     1
173
     0
176
     1
  0
VISUALSTYLE
  5
2B
102
{ACAD_REACTORS
330
2A
102
}
330
2A
100
AcDbVisualStyle
  2
Flat
 70
     0
177
     2
291
     1
 71
     2
176
     1
 72
     1
176
     1
 73
     1
176
     1
 90
        2
176
     1
 40
-0.6
176
     1
 41
30.0
176
     1
 62
     5
 63
     7
421
 16777215
176
     1
 74
     0
176
     1
 91
        4
176
     1
 64
     7
176
     1
 65
   257
176
     1
 75
     1
176
     1
175
     1
176
     1
 42
1.0
176
     1
 92
        8
176
     1
 66
     7
176
     1
 43
1.0
176
     1
 76
     1
176
     1
 77
     6
176
     1
 78
     2
176
     1
 67
     7
176
     1
 79
     5
176
     1
170
     0
176
     1
171
     0
176
     1
290
     0
176
     1
 93
       13
176
     1
 44
0.0
176
     1
173
     0
176
     1
  0
VISUALSTYLE
  5
2C
102
{ACAD_REACTORS
330
2A
102
}
330
2A
100
AcDbVisualStyle
  2
FlatWithEdges
 70
     1
177
     2
291
     1
 71
     2
176
     1
 72
     1
176
     1
 73
     1
176
     1
 90
        2
176
     1
 40
-0.6
176
     1
 41
30.0
176
     1
 62
     5
 63
     7
421
 16777215
176
     1
 74
     1
176
     1
 91
        4
176
     1
 64
     7
176
     1
 65
   257
176
     1
 75
     1
176
     1
175
     1
176
     1
 42
1.0
176
     1
 92
        0
176
     1
 66
   257
176
     1
 43
1.0
176
     1
 76
     1
176
     1
 77
     6
176
     1
 78
     2
176
     1
 67
     7
176
     1
 79
     5
176
     1
170
     0
176
     1
171
     0
176
     1
290
     0
176
     1
 93
       13
176
     1
 44
0.0
176
     1
173
     0
176
     1
  0
VISUALSTYLE
  5
2D
102
{ACAD_REACTORS
330
2A
102
}
330
2A
100
AcDbVisualStyle
  2
Gouraud
 70
     2
177
     2
291
     1
 71
     2
176
     1
 72
     2
176
     1
 73
     1
176
     1
 90
        2
176
     1
 40
-0.6
176
     1
 41
30.0
176
     1
 62
     5
 63
     7
421
 16777215
176
     1
 74
     0
176
     1
 91
        4
176
     1
 64
     7
176
     1
 65
   257
176
     1
 75
     1
176
     1
175
     1
176
     1
 42
1.0
176
     1
 92
        0
176
     1
 66
     7
176
     1
 43
1.0
176
     1
 76
     1
176
     1
 77
     6
176
     1
 78
     2
176
     1
 67
     7
176
     1
 79
     5
176
     1
170
     0
176
     1
171
     0
176
     1
290
     0
176
     1
 93
       13
176
     1
 44
0.0
176
     1
173
     0
176
     1
  0
VISUALSTYLE
  5
2E
102
{ACAD_REACTORS
330
2A
102
}
330
2A
100
AcDbVisualStyle
  2
GouraudWithEdges
 70
     3
177
     2
291
     1
 71
     2
176
     1
 72
     2
176
     1
 73
     1
176
     1
 90
        2
176
     1
 40
-0.6
176
     1
 41
30.0
176
     1
 62
     5
 63
     7
421
 16777215
176
     1
 74
     1
176
     1
 91
        4
176
     1
 64
     7
176
     1
 65
   257
176
     1
 75
     1
176
     1
175
     1
176
     1
 42
1.0
176
     1
 92
        0
176
     1
 66
   257
176
     1
 43
1.0
176
     1
 76
     1
176
     1
 77
     6
176
     1
 78
     2
176
     1
 67
     7
176
     1
 79
     5
176
     1
170
     0
176
     1
171
     0
176
     1
290
     0
176
     1
 93
       13
176
     1
 44
0.0
176
     1
173
     0
176
     1
  0
VISUALSTYLE
  5
38
102
{ACAD_REACTORS
330
2A
102
}
330
2A
100
AcDbVisualStyle
  2
Linepattern
 70
    14
177
     2
291
     1
 71
     2
176
     1
 72
     2
176
     1
 73
     0
176
     1
 90
        0
176
     1
 40
-0.6
176
     1
 41
-30.0
176
     1
 62
     5
 63
     7
421
 16777215
176
     1
 74
     1
176
     1
 91
        4
176
     1
 64
     7
176
     1
 65
   257
176
     1
 75
     7
176
     1
175
     7
176
     1
 42
1.0
176
     1
 92
        8
176
     1
 66
     7
176
     1
 43
1.0
176
     1
 76
     1
176
     1
 77
     6
176
     1
 78
     2
176
     1
 67
     7
176
     1
 79
     5
176
     1
170
     0
176
     1
171
     0
176
     1
290
     0
176
     1
 93
        1
176
     1
 44
0.0
176
     1
173
     0
176
     1
  0
VISUALSTYLE
  5
33
102
{ACAD_REACTORS
330
2A
102
}
330
2A
100
AcDbVisualStyle
  2
Realistic
 70
     8
177
     2
291
     0
 71
     2
176
     1
 72
     2
176
     1
 73
     0
176
     1
 90
        0
176
     1
 40
-0.6
176
     1
 41
-30.0
176
     1
 62
     5
 63
     7
421
 16777215
176
     1
 74
     1
176
     1
 91
        0
176
     1
 64
     7
176
     1
 65
   257
176
     1
 75
     1
176
     1
175
     1
176
     1
 42
1.0
176
     1
 92
        8
176
     1
 66
     8
424
  7895160
176
     1
 43
1.0
176
     1
 76
     1
176
     1
 77
     6
176
     1
 78
     2
176
     1
 67
     7
176
     1
 79
     5
176
     1
170
     0
176
     1
171
     0
176
     1
290
     0
176
     1
 93
       13
176
     1
 44
0.0
176
     1
173
     0
176
     1
  0
VISUALSTYLE
  5
37
102
{ACAD_REACTORS
330
2A
102
}
330
2A
100
AcDbVisualStyle
  2
Thicken
 70
    13
177
     2
291
     1
 71
     2
176
     1
 72
     2
176
     1
 73
     0
176
     1
 90
        0
176
     1
 40
-0.6
176
     1
 41
-30.0
176
     1
 62
     5
 63
     7
421
 16777215
176
     1
 74
     1
176
     1
 91
        4
176
     1
 64
     7
176
     1
 65
   257
176
     1
 75
     1
176
     1
175
     1
176
     1
 42
1.0
176
     1
 92
       12
176
     1
 66
     7
176
     1
 43
1.0
176
     1
 76
     1
176
     1
 77
     6
176
     1
 78
     2
176
     1
 67
     7
176
     1
 79
     5
176
     1
170
     0
176
     1
171
     0
176
     1
290
     0
176
     1
 93
        1
176
     1
 44
0.0
176
     1
173
     0
176
     1
  0
ENDSEC
  0
EOF
