<?xml version="1.0" encoding="utf-8"?>
<!-- Generator: Adobe Illustrator 22.0.1, SVG Export Plug-In . SVG Version: 6.00 Build 0)  -->
<svg version="1.1" id="Layer_1" xmlns="http://www.w3.org/2000/svg" xmlns:xlink="http://www.w3.org/1999/xlink" x="0px" y="0px"
	 viewBox="0 0 2592 1900.8" style="enable-background:new 0 0 2592 1900.8;" xml:space="preserve">
<style type="text/css">
	.st0{fill:none;stroke:#FF1212;stroke-miterlimit:10;}
</style>
<g transform="translate(1336.3115925231314 -540.5167287835525) rotate(90)">
	<path class="st0" d="M1243.9,503.5l-32.7,9l0,0l-48.1,9.5v0l-30.2,5.9l0.1,0l8.9,15.5l9.8,16.5l10.8,17.4l11.8,18.3l12.7,19.1
		l13.6,19.8l14.3,20.3l14.9,20.5l31,40.9l15.7,19.8l15.7,19.1l15.7,18.4l15.5,17.6l15.4,16.8l15.3,16l0,0l-18.4,5.9l-18.5,5.5
		l-18.5,5.1l-18.4,4.7l-17.8,4l-8.6,1.7l-8.3,1.5l-8,1.3l-7.7,1.1l-7.4,0.9l-7.1,0.6l0,0l2.9,5l3.6,5.9l4.3,6.9l5,7.8l5.6,8.6
		l6.2,9.3l13.5,19.9l14.2,20.4l14.2,19.7l28,36.9l15,19l16.3,20.3l17.4,21.3l17.9,21.6l17.7,20.8l16.9,19.2l8,8.9l7.7,8.4l7.4,7.8
		l7.1,7.3h0.1l-18.6,6.5l-20.6,6.3l-22.7,6.1l-24.8,5.9l-26.7,5.7l-28.4,5.5l-59.8,9.9l-30,4.4l-29.1,3.9l-27.4,3.3l-25,2.7l-22.2,2
		l-10,0.8l-9.2,0.6l-8.4,0.4l-7.6,0.3l-6.9,0.1l-6.1-0.1l0,0v107.6v0c0,6.3-5.1,11.3-11.3,11.3l0,0v0h-55.1l-0.1,0h-55.1l0.1,0
		c-6.3,0-11.3-5.1-11.3-11.3h-0.1v-107.6h0l-6.1,0.1l-6.9-0.1l-7.6-0.3l-8.4-0.4l-9.2-0.6l-10-0.8l-22.2-2l-25-2.7l-27.4-3.3
		l-29.1-3.9l-30-4.4l-59.8-9.9l-28.4-5.5l-26.7-5.7l-24.8-5.9l-22.7-6.1l-20.6-6.3l-18.6-6.5l0,0l7.1-7.3l7.4-7.8l7.7-8.4l8-8.9
		l16.9-19.2l17.7-20.8l17.9-21.6l17.4-21.3l16.3-20.3l15-19l28-36.9l14.2-19.7l14.2-20.4l13.5-19.9l6.2-9.3l5.6-8.6l5-7.8l4.3-6.9
		l3.6-5.9l2.9-5l0.1,0l-7.1-0.6l-7.4-0.8l-7.7-1.1l-8-1.3l-8.3-1.5l-8.6-1.7l-17.8-4l-18.3-4.7l-18.5-5.2l-18.5-5.6l-18.4-5.9l0,0
		l15.3-16l15.4-16.7l15.5-17.6l15.6-18.4l15.7-19.1l15.7-19.8l31-40.9l14.9-20.6l14.3-20.3l13.6-19.8l12.7-19.1l11.8-18.3l10.8-17.4
		l9.8-16.5l8.9-15.5h-0.1l-30.2-5.9l0,0l-48.1-9.5l0,0l-32.7-9l0,0.1l19-19.2L783,463l19.3-23.5l19.4-25.5l19.4-27.5l19.1-29
		l18.6-30.2l17.7-30.8l16.5-30.9l15-30.6l13.5-29.8l11.9-28.9l10.4-27.8l9-26.6l7.7-25.3l6.5-24.1l0-0.1l0.2,614.1l0,0h7.2l0,0h7.2
		l0,0l0.2-614.1l0,0l6.5,24.1l7.7,25.3l9,26.6l10.4,27.8l12,28.8l13.5,29.8l15,30.5l16.5,30.9l17.7,30.8l18.6,30.2l19.1,29
		l19.4,27.5l19.4,25.5l19.3,23.5l19.2,21.4L1243.9,503.5L1243.9,503.5z"/>
</g>
<g transform="translate(1356.1091772 -553.2589573999999) rotate(90)">
	<path class="st0" d="M1531.6,56h47.9l0,0c6.3,0,11.3,5.1,11.3,11.3c0,0,0,0,0,0l0,0v107.5l0,0l6.1-0.1l6.9,0.1l7.6,0.3l8.4,0.4
		l9.2,0.6l10,0.8l22.2,2l25,2.7l27.4,3.3l29.1,3.9l30,4.4l59.8,9.9l28.4,5.5l26.7,5.7l24.8,5.9l22.7,6.1l20.7,6.3l18.6,6.5v0
		l-7.1,7.3l-7.4,7.8l-7.7,8.4l-8,8.9l-16.9,19.2l-17.7,20.9l-17.9,21.6l-17.4,21.4l-16.3,20.3l-15,19l-28,36.9l-14.2,19.7
		l-14.3,20.3l-13.5,19.9l-6.2,9.3l-5.6,8.6l-5,7.8l-4.3,6.9l-3.6,6l-2.9,5l0,0l7.1,0.6l7.4,0.8l7.7,1.1l8,1.3l8.3,1.5l8.6,1.7
		l17.8,4l18.3,4.7l18.5,5.1l18.5,5.6l18.5,5.9v0l-15.3,16l-15.5,16.8l-15.5,17.6l-15.7,18.4l-15.7,19.1l-15.7,19.8l-31,40.9
		l-14.9,20.6l-14.3,20.3l-13.6,19.8l-12.6,19.1l-11.8,18.3l-10.8,17.4l-9.8,16.5l-8.9,15.5l0,0l30.2,5.9l0,0l48.1,9.5l0,0l32.7,9
		l0,0l-20.7,21.1l-20.9,23.7l-21.1,26.2l-21.2,28.6l-21.1,30.7l-20.6,32.4l-19.7,33.4l-18.4,33.7l-16.8,33.5l-14.9,32.7l-13.1,31.6
		l-11.3,30.2l-9.6,28.8l-8.1,27.3l-6.6,25.9l-5.3,24.4v0l-5.3-24.4l-6.6-25.9l-8.1-27.3l-9.6-28.8l-11.3-30.2l-13.1-31.6l-14.9-32.7
		l-16.8-33.5l-18.4-33.8l-19.7-33.4l-20.6-32.4l-21.1-30.7l-21.2-28.6l-21.1-26.1l-20.9-23.6l-20.7-21.1v0l32.7-9v0l48.1-9.5l0,0
		l30.2-5.9l0,0l-8.9-15.5l-9.8-16.5l-10.8-17.4l-11.8-18.3l-12.7-19.1l-13.6-19.8l-14.3-20.3l-14.9-20.6l-31-40.9l-15.7-19.8
		l-15.7-19.1l-15.6-18.4l-15.5-17.6l-15.4-16.8l-15.3-16l0,0.1l18.4-5.9l18.5-5.6l18.5-5.2l18.3-4.6l17.8-4l8.6-1.7l8.3-1.5l8-1.3
		l7.7-1.1l7.4-0.8l7.1-0.6l0,0l-2.9-5l-3.6-6l-4.3-6.9l-5-7.8l-5.6-8.6l-6.2-9.3l-13.5-19.9l-14.2-20.4l-14.2-19.7l-28-36.9l-15-19
		l-16.3-20.3l-17.4-21.4l-18-21.5l-17.7-20.8l-16.9-19.2l-8-8.9l-7.7-8.4l-7.4-7.8l-7.1-7.3v-0.1l18.6-6.5l20.7-6.3l22.7-6.1
		l24.8-5.9l26.7-5.7l28.4-5.5l59.8-9.9l30-4.4l29.1-3.9l27.4-3.3l25-2.7l22.2-2l10-0.8l9.2-0.6l8.4-0.4l7.6-0.3l6.9-0.1l6.1,0.1l0,0
		V67.3l0,0c0-6.3,5-11.4,11.3-11.4c0,0,0.1,0,0.1,0l-0.1,0h47.9v0v647.4l0,0h7.2l0,0h7.2l0,0V56L1531.6,56z"/>
</g>
<g transform="translate(1756.1834183 286.06916870000003) rotate(90)">
	<path class="st0" d="M95.3,288.3c0-159.1,128.9-288,288-288s288,128.9,288,288s-128.9,288-288,288S95.3,447.4,95.3,288.3z"/>
	<polygon class="st0" points="390.4,354.8 383.4,354.8 376.1,354.8 376.1,295.4 316.9,295.4 316.9,288.3 316.9,281.3 376.1,281.3 
		376.1,221.9 383.4,221.9 390.4,221.9 390.4,281.3 449.8,281.3 449.8,288.3 449.8,295.4 390.4,295.4 	"/>
</g>
<g transform="translate(1211.0962011000001 360.3565711) rotate(0)">
	<path class="st0" d="M-16.7,907.8c0-169,137-306,306-306s306,137,306,306s-137,306-306,306S-16.7,1076.8-16.7,907.8z"/>
</g>
</svg>
