  0
SECTION
  2
HEADER
  9
$ACADVER
  1
AC1024
  9
$ACADMAINTVER
 70
     6
  9
$DWGCODEPAGE
  3
ANSI_1252
  9
$INSBASE
 10
0.0
 20
0.0
 30
0.0
  9
$EXTMIN
 10
1.000000000000000E+20
 20
1.000000000000000E+20
 30
1.000000000000000E+20
  9
$EXTMAX
 10
-1.000000000000000E+20
 20
-1.000000000000000E+20
 30
-1.000000000000000E+20
  9
$LIMMIN
 10
0.0
 20
0.0
  9
$LIMMAX
 10
12.0
 20
9.0
  9
$ORTHOMODE
 70
     0
  9
$REGENMODE
 70
     1
  9
$FILLMODE
 70
     1
  9
$QTEXTMODE
 70
     0
  9
$MIRRTEXT
 70
     1
  9
$LTSCALE
 40
1.0
  9
$ATTMODE
 70
     1
  9
$TEXTSIZE
 40
0.2
  9
$TRACEWID
 40
0.05
  9
$TEXTSTYLE
  7
Standard
  9
$CLAYER
  8
0
  9
$CELTYPE
  6
ByLayer
  9
$CECOLOR
 62
   256
  9
$CELTSCALE
 40
1.0
  9
$DISPSILH
 70
     0
  9
$DIMSCALE
 40
1.0
  9
$DIMASZ
 40
0.18
  9
$DIMEXO
 40
0.0625
  9
$DIMDLI
 40
0.38
  9
$DIMRND
 40
0.0
  9
$DIMDLE
 40
0.0
  9
$DIMEXE
 40
0.18
  9
$DIMTP
 40
0.0
  9
$DIMTM
 40
0.0
  9
$DIMTXT
 40
0.18
  9
$DIMCEN
 40
0.09
  9
$DIMTSZ
 40
0.0
  9
$DIMTOL
 70
     0
  9
$DIMLIM
 70
     0
  9
$DIMTIH
 70
     1
  9
$DIMTOH
 70
     1
  9
$DIMSE1
 70
     0
  9
$DIMSE2
 70
     0
  9
$DIMTAD
 70
     0
  9
$DIMZIN
 70
     0
  9
$DIMBLK
  1

  9
$DIMASO
 70
     1
  9
$DIMSHO
 70
     1
  9
$DIMPOST
  1

  9
$DIMAPOST
  1

  9
$DIMALT
 70
     0
  9
$DIMALTD
 70
     2
  9
$DIMALTF
 40
25.4
  9
$DIMLFAC
 40
1.0
  9
$DIMTOFL
 70
     0
  9
$DIMTVP
 40
0.0
  9
$DIMTIX
 70
     0
  9
$DIMSOXD
 70
     0
  9
$DIMSAH
 70
     0
  9
$DIMBLK1
  1

  9
$DIMBLK2
  1

  9
$DIMSTYLE
  2
Standard
  9
$DIMCLRD
 70
     0
  9
$DIMCLRE
 70
     0
  9
$DIMCLRT
 70
     0
  9
$DIMTFAC
 40
1.0
  9
$DIMGAP
 40
0.09
  9
$DIMJUST
 70
     0
  9
$DIMSD1
 70
     0
  9
$DIMSD2
 70
     0
  9
$DIMTOLJ
 70
     1
  9
$DIMTZIN
 70
     0
  9
$DIMALTZ
 70
     0
  9
$DIMALTTZ
 70
     0
  9
$DIMUPT
 70
     0
  9
$DIMDEC
 70
     4
  9
$DIMTDEC
 70
     4
  9
$DIMALTU
 70
     2
  9
$DIMALTTD
 70
     2
  9
$DIMTXSTY
  7
Standard
  9
$DIMAUNIT
 70
     0
  9
$DIMADEC
 70
     0
  9
$DIMALTRND
 40
0.0
  9
$DIMAZIN
 70
     0
  9
$DIMDSEP
 70
    46
  9
$DIMATFIT
 70
     3
  9
$DIMFRAC
 70
     0
  9
$DIMLDRBLK
  1

  9
$DIMLUNIT
 70
     2
  9
$DIMLWD
 70
    -2
  9
$DIMLWE
 70
    -2
  9
$DIMTMOVE
 70
     0
  9
$DIMFXL
 40
1.0
  9
$DIMFXLON
 70
     0
  9
$DIMJOGANG
 40
0.7853981633974483
  9
$DIMTFILL
 70
     0
  9
$DIMTFILLCLR
 70
     0
  9
$DIMARCSYM
 70
     0
  9
$DIMLTYPE
  6

  9
$DIMLTEX1
  6

  9
$DIMLTEX2
  6

  9
$DIMTXTDIRECTION
 70
     0
  9
$LUNITS
 70
     2
  9
$LUPREC
 70
     4
  9
$SKETCHINC
 40
0.1
  9
$FILLETRAD
 40
0.5
  9
$AUNITS
 70
     0
  9
$AUPREC
 70
     0
  9
$MENU
  1
.
  9
$ELEVATION
 40
0.0
  9
$PELEVATION
 40
0.0
  9
$THICKNESS
 40
0.0
  9
$LIMCHECK
 70
     0
  9
$CHAMFERA
 40
0.5
  9
$CHAMFERB
 40
0.5
  9
$CHAMFERC
 40
1.0
  9
$CHAMFERD
 40
0.0
  9
$SKPOLY
 70
     0
  9
$TDCREATE
 40
2458445.636288576
  9
$TDUCREATE
 40
2458445.96962191
  9
$TDUPDATE
 40
2458445.636288773
  9
$TDUUPDATE
 40
2458445.969622106
  9
$TDINDWG
 40
0.0000000116
  9
$TDUSRTIMER
 40
0.0000000116
  9
$USRTIMER
 70
     1
  9
$ANGBASE
 50
0.0
  9
$ANGDIR
 70
     0
  9
$PDMODE
 70
     0
  9
$PDSIZE
 40
0.0
  9
$PLINEWID
 40
0.0
  9
$SPLFRAME
 70
     0
  9
$SPLINETYPE
 70
     6
  9
$SPLINESEGS
 70
     8
  9
$HANDSEED
  5
6A
  9
$SURFTAB1
 70
     6
  9
$SURFTAB2
 70
     6
  9
$SURFTYPE
 70
     6
  9
$SURFU
 70
     6
  9
$SURFV
 70
     6
  9
$UCSBASE
  2

  9
$UCSNAME
  2

  9
$UCSORG
 10
0.0
 20
0.0
 30
0.0
  9
$UCSXDIR
 10
1.0
 20
0.0
 30
0.0
  9
$UCSYDIR
 10
0.0
 20
1.0
 30
0.0
  9
$UCSORTHOREF
  2

  9
$UCSORTHOVIEW
 70
     0
  9
$UCSORGTOP
 10
0.0
 20
0.0
 30
0.0
  9
$UCSORGBOTTOM
 10
0.0
 20
0.0
 30
0.0
  9
$UCSORGLEFT
 10
0.0
 20
0.0
 30
0.0
  9
$UCSORGRIGHT
 10
0.0
 20
0.0
 30
0.0
  9
$UCSORGFRONT
 10
0.0
 20
0.0
 30
0.0
  9
$UCSORGBACK
 10
0.0
 20
0.0
 30
0.0
  9
$PUCSBASE
  2

  9
$PUCSNAME
  2

  9
$PUCSORG
 10
0.0
 20
0.0
 30
0.0
  9
$PUCSXDIR
 10
1.0
 20
0.0
 30
0.0
  9
$PUCSYDIR
 10
0.0
 20
1.0
 30
0.0
  9
$PUCSORTHOREF
  2

  9
$PUCSORTHOVIEW
 70
     0
  9
$PUCSORGTOP
 10
0.0
 20
0.0
 30
0.0
  9
$PUCSORGBOTTOM
 10
0.0
 20
0.0
 30
0.0
  9
$PUCSORGLEFT
 10
0.0
 20
0.0
 30
0.0
  9
$PUCSORGRIGHT
 10
0.0
 20
0.0
 30
0.0
  9
$PUCSORGFRONT
 10
0.0
 20
0.0
 30
0.0
  9
$PUCSORGBACK
 10
0.0
 20
0.0
 30
0.0
  9
$USERI1
 70
     0
  9
$USERI2
 70
     0
  9
$USERI3
 70
     0
  9
$USERI4
 70
     0
  9
$USERI5
 70
     0
  9
$USERR1
 40
0.0
  9
$USERR2
 40
0.0
  9
$USERR3
 40
0.0
  9
$USERR4
 40
0.0
  9
$USERR5
 40
0.0
  9
$WORLDVIEW
 70
     1
  9
$SHADEDGE
 70
     3
  9
$SHADEDIF
 70
    70
  9
$TILEMODE
 70
     1
  9
$MAXACTVP
 70
    64
  9
$PINSBASE
 10
0.0
 20
0.0
 30
0.0
  9
$PLIMCHECK
 70
     0
  9
$PEXTMIN
 10
1.000000000000000E+20
 20
1.000000000000000E+20
 30
1.000000000000000E+20
  9
$PEXTMAX
 10
-1.000000000000000E+20
 20
-1.000000000000000E+20
 30
-1.000000000000000E+20
  9
$PLIMMIN
 10
0.0
 20
0.0
  9
$PLIMMAX
 10
12.0
 20
9.0
  9
$UNITMODE
 70
     0
  9
$VISRETAIN
 70
     1
  9
$PLINEGEN
 70
     0
  9
$PSLTSCALE
 70
     1
  9
$TREEDEPTH
 70
  3020
  9
$CMLSTYLE
  2
Standard
  9
$CMLJUST
 70
     0
  9
$CMLSCALE
 40
1.0
  9
$PROXYGRAPHICS
 70
     1
  9
$MEASUREMENT
 70
     0
  9
$CELWEIGHT
370
    -1
  9
$ENDCAPS
280
     0
  9
$JOINSTYLE
280
     0
  9
$LWDISPLAY
290
     1
  9
$INSUNITS
 70
     1
  9
$HYPERLINKBASE
  1

  9
$STYLESHEET
  1

  9
$XEDIT
290
     1
  9
$CEPSNTYPE
380
     0
  9
$PSTYLEMODE
290
     1
  9
$FINGERPRINTGUID
  2
{71E1F554-40B1-4A64-8BFA-9ABFD76C3F03}
  9
$VERSIONGUID
  2
{FAEB1C32-E019-11D5-929B-00C0DF256EC4}
  9
$EXTNAMES
290
     1
  9
$PSVPSCALE
 40
0.0
  9
$OLESTARTUP
290
     0
  9
$SORTENTS
280
   127
  9
$INDEXCTL
280
     0
  9
$HIDETEXT
280
     1
  9
$XCLIPFRAME
280
     2
  9
$HALOGAP
280
     0
  9
$OBSCOLOR
 70
   257
  9
$OBSLTYPE
280
     0
  9
$INTERSECTIONDISPLAY
280
     0
  9
$INTERSECTIONCOLOR
 70
   257
  9
$DIMASSOC
280
     2
  9
$PROJECTNAME
  1

  9
$CAMERADISPLAY
290
     0
  9
$LENSLENGTH
 40
50.0
  9
$CAMERAHEIGHT
 40
0.0
  9
$STEPSPERSEC
 40
2.0
  9
$STEPSIZE
 40
6.0
  9
$3DDWFPREC
 40
2.0
  9
$PSOLWIDTH
 40
0.25
  9
$PSOLHEIGHT
 40
4.0
  9
$LOFTANG1
 40
1.570796326794897
  9
$LOFTANG2
 40
1.570796326794897
  9
$LOFTMAG1
 40
0.0
  9
$LOFTMAG2
 40
0.0
  9
$LOFTPARAM
 70
     7
  9
$LOFTNORMALS
280
     1
  9
$LATITUDE
 40
37.795
  9
$LONGITUDE
 40
-122.394
  9
$NORTHDIRECTION
 40
0.0
  9
$TIMEZONE
 70
 -8000
  9
$LIGHTGLYPHDISPLAY
280
     1
  9
$TILEMODELIGHTSYNCH
280
     1
  9
$CMATERIAL
347
3C
  9
$SOLIDHIST
280
     1
  9
$SHOWHIST
280
     1
  9
$DWFFRAME
280
     2
  9
$DGNFRAME
280
     2
  9
$REALWORLDSCALE
290
     1
  9
$INTERFERECOLOR
 62
   256
  9
$CSHADOW
280
     0
  9
$SHADOWPLANELOCATION
 40
0.0
  0
ENDSEC
  0
SECTION
  2
CLASSES
  0
CLASS
  1
ACDBDICTIONARYWDFLT
  2
AcDbDictionaryWithDefault
  3
ObjectDBX Classes
 90
        0
 91
        4
280
     0
281
     0
  0
CLASS
  1
VISUALSTYLE
  2
AcDbVisualStyle
  3
ObjectDBX Classes
 90
     4095
 91
        4
280
     0
281
     0
  0
CLASS
  1
MATERIAL
  2
AcDbMaterial
  3
ObjectDBX Classes
 90
     1153
 91
        4
280
     0
281
     0
  0
CLASS
  1
SUN
  2
AcDbSun
  3
SCENEOE
 90
     1024
 91
        4
280
     0
281
     0
  0
ENDSEC
  0
SECTION
  2
TABLES
  0
TABLE
  2
VPORT
  5
8
330
0
100
AcDbSymbolTable
 70
     1
  0
VPORT
  5
29
330
8
100
AcDbSymbolTableRecord
100
AcDbViewportTableRecord
  2
*Active
 70
     0
 10
0.0
 20
0.0
 11
1.0
 21
1.0
 12
0.0
 22
0.0
 13
0.0
 23
0.0
 14
0.5
 24
0.5
 15
0.5
 25
0.5
 16
0.0
 26
0.0
 36
1.0
 17
18.0
 27
13.1999994913737
 37
0.0
 40
26.39999898274739
 41
1.363636416180405
 42
50.0
 43
0.0
 44
0.0
 50
0.0
 51
0.0
 71
     0
 72
   100
 73
     1
 74
     3
 75
     0
 76
     0
 77
     0
 78
     0
281
     0
 65
     1
110
0.0
120
0.0
130
0.0
111
1.0
121
0.0
131
0.0
112
0.0
122
1.0
132
0.0
 79
     0
146
0.0
 60
     3
 61
     5
292
     1
282
     1
141
0.0
142
0.0
 63
   250
361
3F
  0
ENDTAB
  0
TABLE
  2
LTYPE
  5
5
330
0
100
AcDbSymbolTable
 70
     1
  0
LTYPE
  5
14
330
5
100
AcDbSymbolTableRecord
100
AcDbLinetypeTableRecord
  2
ByBlock
 70
     0
  3

 72
    65
 73
     0
 40
0.0
  0
LTYPE
  5
15
330
5
100
AcDbSymbolTableRecord
100
AcDbLinetypeTableRecord
  2
ByLayer
 70
     0
  3

 72
    65
 73
     0
 40
0.0
  0
LTYPE
  5
16
330
5
100
AcDbSymbolTableRecord
100
AcDbLinetypeTableRecord
  2
Continuous
 70
     0
  3
Solid line
 72
    65
 73
     0
 40
0.0
  0
ENDTAB
  0
TABLE
  2
LAYER
  5
2
330
0
100
AcDbSymbolTable
 70
     2
  0
LAYER
  5
10
330
2
100
AcDbSymbolTableRecord
100
AcDbLayerTableRecord
  2
0
 70
     0
 62
     7
  6
Continuous
370
    -3
390
F
347
3E
  0
LAYER
  5
40
330
2
100
AcDbSymbolTableRecord
100
AcDbLayerTableRecord
  2
Layer 1
 70
     0
 62
     7
  6
Continuous
370
    -3
390
F
347
3E
  0
ENDTAB
  0
TABLE
  2
STYLE
  5
3
330
0
100
AcDbSymbolTable
 70
     1
  0
STYLE
  5
11
330
3
100
AcDbSymbolTableRecord
100
AcDbTextStyleTableRecord
  2
Standard
 70
     0
 40
0.0
 41
1.0
 50
0.0
 71
     0
 42
0.2
  3
txt
  4

  0
ENDTAB
  0
TABLE
  2
VIEW
  5
6
330
0
100
AcDbSymbolTable
 70
     0
  0
ENDTAB
  0
TABLE
  2
UCS
  5
7
330
0
100
AcDbSymbolTable
 70
     0
  0
ENDTAB
  0
TABLE
  2
APPID
  5
9
330
0
100
AcDbSymbolTable
 70
     1
  0
APPID
  5
12
330
9
100
AcDbSymbolTableRecord
100
AcDbRegAppTableRecord
  2
ACAD
 70
     0
  0
ENDTAB
  0
TABLE
  2
DIMSTYLE
  5
A
330
0
100
AcDbSymbolTable
 70
     1
100
AcDbDimStyleTable
  0
DIMSTYLE
105
27
330
A
100
AcDbSymbolTableRecord
100
AcDbDimStyleTableRecord
  2
Standard
 70
     0
178
     0
340
11
  0
ENDTAB
  0
TABLE
  2
BLOCK_RECORD
  5
1
330
0
100
AcDbSymbolTable
 70
     5
  0
BLOCK_RECORD
  5
1F
330
1
100
AcDbSymbolTableRecord
100
AcDbBlockTableRecord
  2
*Model_Space
340
22
 70
     0
280
     1
281
     0
  0
BLOCK_RECORD
  5
1B
330
1
100
AcDbSymbolTableRecord
100
AcDbBlockTableRecord
  2
*Paper_Space
340
1E
 70
     0
280
     1
281
     0
  0
BLOCK_RECORD
  5
23
330
1
100
AcDbSymbolTableRecord
100
AcDbBlockTableRecord
  2
*Paper_Space0
340
26
 70
     0
280
     1
281
     0
  0
BLOCK_RECORD
  5
41
330
1
100
AcDbSymbolTableRecord
100
AcDbBlockTableRecord
  2
block 2
340
0
102
{BLKREFS
331
42
102
}
 70
     0
280
     1
281
     0
  0
BLOCK_RECORD
  5
46
330
1
100
AcDbSymbolTableRecord
100
AcDbBlockTableRecord
  2
block 3
340
0
102
{BLKREFS
331
47
102
}
 70
     0
280
     1
281
     0
  0
BLOCK_RECORD
  5
4B
330
1
100
AcDbSymbolTableRecord
100
AcDbBlockTableRecord
  2
block 4
340
0
102
{BLKREFS
331
4C
102
}
 70
     0
280
     1
281
     0
  0
BLOCK_RECORD
  5
63
330
1
100
AcDbSymbolTableRecord
100
AcDbBlockTableRecord
  2
block 5
340
0
102
{BLKREFS
331
64
102
}
 70
     0
280
     1
281
     0
  0
ENDTAB
  0
ENDSEC
  0
SECTION
  2
BLOCKS
  0
BLOCK
  5
20
330
1F
100
AcDbEntity
  8
0
100
AcDbBlockBegin
  2
*Model_Space
 70
     0
 10
0.0
 20
0.0
 30
0.0
  3
*Model_Space
  1

  0
ENDBLK
  5
21
330
1F
100
AcDbEntity
  8
0
100
AcDbBlockEnd
  0
BLOCK
  5
1C
330
1B
100
AcDbEntity
 67
     1
  8
0
100
AcDbBlockBegin
  2
*Paper_Space
 70
     0
 10
0.0
 20
0.0
 30
0.0
  3
*Paper_Space
  1

  0
ENDBLK
  5
1D
330
1B
100
AcDbEntity
 67
     1
  8
0
100
AcDbBlockEnd
  0
BLOCK
  5
24
330
23
100
AcDbEntity
  8
0
100
AcDbBlockBegin
  2
*Paper_Space0
 70
     0
 10
0.0
 20
0.0
 30
0.0
  3
*Paper_Space0
  1

  0
ENDBLK
  5
25
330
23
100
AcDbEntity
  8
0
100
AcDbBlockEnd
  0
BLOCK
  5
43
330
41
100
AcDbEntity
  8
0
100
AcDbBlockBegin
  2
block 2
 70
     0
 10
0.0
 20
0.0
 30
0.0
  3
block 2
  1

  0
SPLINE
  5
45
330
41
100
AcDbEntity
  8
Layer 1
 62
     1
420
 16716306
370
    35
100
AcDbSpline
210
0.0
220
0.0
230
1.0
 70
    11
 71
     3
 72
   614
 73
   610
 74
     0
 42
0.0000000001
 43
0.0000000001
 12
1.0
 22
0.0
 32
0.0
 13
1.0
 23
0.0
 33
0.0
 40
0.0
 40
0.0
 40
0.0
 40
0.0
 40
1.0
 40
1.0
 40
1.0
 40
2.0
 40
2.0
 40
2.0
 40
3.0
 40
3.0
 40
3.0
 40
4.0
 40
4.0
 40
4.0
 40
5.0
 40
5.0
 40
5.0
 40
6.0
 40
6.0
 40
6.0
 40
7.0
 40
7.0
 40
7.0
 40
8.0
 40
8.0
 40
8.0
 40
9.0
 40
9.0
 40
9.0
 40
10.0
 40
10.0
 40
10.0
 40
11.0
 40
11.0
 40
11.0
 40
12.0
 40
12.0
 40
12.0
 40
13.0
 40
13.0
 40
13.0
 40
14.0
 40
14.0
 40
14.0
 40
15.0
 40
15.0
 40
15.0
 40
16.0
 40
16.0
 40
16.0
 40
17.0
 40
17.0
 40
17.0
 40
18.0
 40
18.0
 40
18.0
 40
19.0
 40
19.0
 40
19.0
 40
20.0
 40
20.0
 40
20.0
 40
21.0
 40
21.0
 40
21.0
 40
22.0
 40
22.0
 40
22.0
 40
23.0
 40
23.0
 40
23.0
 40
24.0
 40
24.0
 40
24.0
 40
25.0
 40
25.0
 40
25.0
 40
26.0
 40
26.0
 40
26.0
 40
27.0
 40
27.0
 40
27.0
 40
28.0
 40
28.0
 40
28.0
 40
29.0
 40
29.0
 40
29.0
 40
30.0
 40
30.0
 40
30.0
 40
31.0
 40
31.0
 40
31.0
 40
32.0
 40
32.0
 40
32.0
 40
33.0
 40
33.0
 40
33.0
 40
34.0
 40
34.0
 40
34.0
 40
35.0
 40
35.0
 40
35.0
 40
36.0
 40
36.0
 40
36.0
 40
37.0
 40
37.0
 40
37.0
 40
38.0
 40
38.0
 40
38.0
 40
39.0
 40
39.0
 40
39.0
 40
40.0
 40
40.0
 40
40.0
 40
41.0
 40
41.0
 40
41.0
 40
42.0
 40
42.0
 40
42.0
 40
43.0
 40
43.0
 40
43.0
 40
44.0
 40
44.0
 40
44.0
 40
45.0
 40
45.0
 40
45.0
 40
46.0
 40
46.0
 40
46.0
 40
47.0
 40
47.0
 40
47.0
 40
48.0
 40
48.0
 40
48.0
 40
49.0
 40
49.0
 40
49.0
 40
50.0
 40
50.0
 40
50.0
 40
51.0
 40
51.0
 40
51.0
 40
52.0
 40
52.0
 40
52.0
 40
53.0
 40
53.0
 40
53.0
 40
54.0
 40
54.0
 40
54.0
 40
55.0
 40
55.0
 40
55.0
 40
56.0
 40
56.0
 40
56.0
 40
57.0
 40
57.0
 40
57.0
 40
58.0
 40
58.0
 40
58.0
 40
59.0
 40
59.0
 40
59.0
 40
60.0
 40
60.0
 40
60.0
 40
61.0
 40
61.0
 40
61.0
 40
62.0
 40
62.0
 40
62.0
 40
63.0
 40
63.0
 40
63.0
 40
64.0
 40
64.0
 40
64.0
 40
65.0
 40
65.0
 40
65.0
 40
66.0
 40
66.0
 40
66.0
 40
67.0
 40
67.0
 40
67.0
 40
68.0
 40
68.0
 40
68.0
 40
69.0
 40
69.0
 40
69.0
 40
70.0
 40
70.0
 40
70.0
 40
71.0
 40
71.0
 40
71.0
 40
72.0
 40
72.0
 40
72.0
 40
73.0
 40
73.0
 40
73.0
 40
74.0
 40
74.0
 40
74.0
 40
75.0
 40
75.0
 40
75.0
 40
76.0
 40
76.0
 40
76.0
 40
77.0
 40
77.0
 40
77.0
 40
78.0
 40
78.0
 40
78.0
 40
79.0
 40
79.0
 40
79.0
 40
80.0
 40
80.0
 40
80.0
 40
81.0
 40
81.0
 40
81.0
 40
82.0
 40
82.0
 40
82.0
 40
83.0
 40
83.0
 40
83.0
 40
84.0
 40
84.0
 40
84.0
 40
85.0
 40
85.0
 40
85.0
 40
86.0
 40
86.0
 40
86.0
 40
87.0
 40
87.0
 40
87.0
 40
88.0
 40
88.0
 40
88.0
 40
89.0
 40
89.0
 40
89.0
 40
90.0
 40
90.0
 40
90.0
 40
91.0
 40
91.0
 40
91.0
 40
92.0
 40
92.0
 40
92.0
 40
93.0
 40
93.0
 40
93.0
 40
94.0
 40
94.0
 40
94.0
 40
95.0
 40
95.0
 40
95.0
 40
96.0
 40
96.0
 40
96.0
 40
97.0
 40
97.0
 40
97.0
 40
98.0
 40
98.0
 40
98.0
 40
99.0
 40
99.0
 40
99.0
 40
100.0
 40
100.0
 40
100.0
 40
101.0
 40
101.0
 40
101.0
 40
102.0
 40
102.0
 40
102.0
 40
103.0
 40
103.0
 40
103.0
 40
104.0
 40
104.0
 40
104.0
 40
105.0
 40
105.0
 40
105.0
 40
106.0
 40
106.0
 40
106.0
 40
107.0
 40
107.0
 40
107.0
 40
108.0
 40
108.0
 40
108.0
 40
109.0
 40
109.0
 40
109.0
 40
110.0
 40
110.0
 40
110.0
 40
111.0
 40
111.0
 40
111.0
 40
112.0
 40
112.0
 40
112.0
 40
113.0
 40
113.0
 40
113.0
 40
114.0
 40
114.0
 40
114.0
 40
115.0
 40
115.0
 40
115.0
 40
116.0
 40
116.0
 40
116.0
 40
117.0
 40
117.0
 40
117.0
 40
118.0
 40
118.0
 40
118.0
 40
119.0
 40
119.0
 40
119.0
 40
120.0
 40
120.0
 40
120.0
 40
121.0
 40
121.0
 40
121.0
 40
122.0
 40
122.0
 40
122.0
 40
123.0
 40
123.0
 40
123.0
 40
124.0
 40
124.0
 40
124.0
 40
125.0
 40
125.0
 40
125.0
 40
126.0
 40
126.0
 40
126.0
 40
127.0
 40
127.0
 40
127.0
 40
128.0
 40
128.0
 40
128.0
 40
129.0
 40
129.0
 40
129.0
 40
130.0
 40
130.0
 40
130.0
 40
131.0
 40
131.0
 40
131.0
 40
132.0
 40
132.0
 40
132.0
 40
133.0
 40
133.0
 40
133.0
 40
134.0
 40
134.0
 40
134.0
 40
135.0
 40
135.0
 40
135.0
 40
136.0
 40
136.0
 40
136.0
 40
137.0
 40
137.0
 40
137.0
 40
138.0
 40
138.0
 40
138.0
 40
139.0
 40
139.0
 40
139.0
 40
140.0
 40
140.0
 40
140.0
 40
141.0
 40
141.0
 40
141.0
 40
142.0
 40
142.0
 40
142.0
 40
143.0
 40
143.0
 40
143.0
 40
144.0
 40
144.0
 40
144.0
 40
145.0
 40
145.0
 40
145.0
 40
146.0
 40
146.0
 40
146.0
 40
147.0
 40
147.0
 40
147.0
 40
148.0
 40
148.0
 40
148.0
 40
149.0
 40
149.0
 40
149.0
 40
150.0
 40
150.0
 40
150.0
 40
151.0
 40
151.0
 40
151.0
 40
152.0
 40
152.0
 40
152.0
 40
153.0
 40
153.0
 40
153.0
 40
154.0
 40
154.0
 40
154.0
 40
155.0
 40
155.0
 40
155.0
 40
156.0
 40
156.0
 40
156.0
 40
157.0
 40
157.0
 40
157.0
 40
158.0
 40
158.0
 40
158.0
 40
159.0
 40
159.0
 40
159.0
 40
160.0
 40
160.0
 40
160.0
 40
161.0
 40
161.0
 40
161.0
 40
162.0
 40
162.0
 40
162.0
 40
163.0
 40
163.0
 40
163.0
 40
164.0
 40
164.0
 40
164.0
 40
165.0
 40
165.0
 40
165.0
 40
166.0
 40
166.0
 40
166.0
 40
167.0
 40
167.0
 40
167.0
 40
168.0
 40
168.0
 40
168.0
 40
169.0
 40
169.0
 40
169.0
 40
170.0
 40
170.0
 40
170.0
 40
171.0
 40
171.0
 40
171.0
 40
172.0
 40
172.0
 40
172.0
 40
173.0
 40
173.0
 40
173.0
 40
174.0
 40
174.0
 40
174.0
 40
175.0
 40
175.0
 40
175.0
 40
176.0
 40
176.0
 40
176.0
 40
177.0
 40
177.0
 40
177.0
 40
178.0
 40
178.0
 40
178.0
 40
179.0
 40
179.0
 40
179.0
 40
180.0
 40
180.0
 40
180.0
 40
181.0
 40
181.0
 40
181.0
 40
182.0
 40
182.0
 40
182.0
 40
183.0
 40
183.0
 40
183.0
 40
184.0
 40
184.0
 40
184.0
 40
185.0
 40
185.0
 40
185.0
 40
186.0
 40
186.0
 40
186.0
 40
187.0
 40
187.0
 40
187.0
 40
188.0
 40
188.0
 40
188.0
 40
189.0
 40
189.0
 40
189.0
 40
190.0
 40
190.0
 40
190.0
 40
191.0
 40
191.0
 40
191.0
 40
192.0
 40
192.0
 40
192.0
 40
193.0
 40
193.0
 40
193.0
 40
194.0
 40
194.0
 40
194.0
 40
195.0
 40
195.0
 40
195.0
 40
196.0
 40
196.0
 40
196.0
 40
197.0
 40
197.0
 40
197.0
 40
198.0
 40
198.0
 40
198.0
 40
199.0
 40
199.0
 40
199.0
 40
200.0
 40
200.0
 40
200.0
 40
201.0
 40
201.0
 40
201.0
 40
202.0
 40
202.0
 40
202.0
 40
203.0
 40
203.0
 40
203.0
 40
203.0
 10
11.56669108072917
 20
16.63092549641927
 30
0.0
 10
11.56669108072917
 20
16.63092549641927
 30
0.0
 10
11.44169108072917
 20
17.0852305094401
 30
0.0
 10
11.44169108072917
 20
17.0852305094401
 30
0.0
 10
11.44169108072917
 20
17.0852305094401
 30
0.0
 10
11.44169108072917
 20
17.0852305094401
 30
0.0
 10
11.44169108072917
 20
17.0852305094401
 30
0.0
 10
11.44169108072917
 20
17.0852305094401
 30
0.0
 10
11.31044091118707
 20
17.75287034776476
 30
0.0
 10
11.31044091118707
 20
17.75287034776476
 30
0.0
 10
11.31044091118707
 20
17.75287034776476
 30
0.0
 10
11.31057993570963
 20
17.75287034776476
 30
0.0
 10
11.31057993570963
 20
17.75287034776476
 30
0.0
 10
11.31057993570963
 20
17.75287034776476
 30
0.0
 10
11.22807990180121
 20
18.1723141140408
 30
0.0
 10
11.22807990180121
 20
18.1723141140408
 30
0.0
 10
11.22807990180121
 20
18.1723141140408
 30
0.0
 10
11.22794087727864
 20
18.17120361328125
 30
0.0
 10
11.22794087727864
 20
18.17120361328125
 30
0.0
 10
11.22794087727864
 20
18.17120361328125
 30
0.0
 10
11.01224687364366
 20
18.04759216308594
 30
0.0
 10
11.01224687364366
 20
18.04759216308594
 30
0.0
 10
11.01224687364366
 20
18.04759216308594
 30
0.0
 10
10.78377448187934
 20
17.91078694661458
 30
0.0
 10
10.78377448187934
 20
17.91078694661458
 30
0.0
 10
10.78377448187934
 20
17.91078694661458
 30
0.0
 10
10.54252454969618
 20
17.76064724392361
 30
0.0
 10
10.54252454969618
 20
17.76064724392361
 30
0.0
 10
10.54252454969618
 20
17.76064724392361
 30
0.0
 10
10.28863525390625
 20
17.59703742133247
 30
0.0
 10
10.28863525390625
 20
17.59703742133247
 30
0.0
 10
10.28863525390625
 20
17.59703742133247
 30
0.0
 10
10.0232187906901
 20
17.4205084906684
 30
0.0
 10
10.0232187906901
 20
17.4205084906684
 30
0.0
 10
10.0232187906901
 20
17.4205084906684
 30
0.0
 10
9.747802734375
 20
17.23189798990885
 30
0.0
 10
9.747802734375
 20
17.23189798990885
 30
0.0
 10
9.747802734375
 20
17.23189798990885
 30
0.0
 10
9.465441385904947
 20
17.03287082248264
 30
0.0
 10
9.465441385904947
 20
17.03287082248264
 30
0.0
 10
9.465441385904947
 20
17.03287082248264
 30
0.0
 10
9.180024888780382
 20
16.82661946614583
 30
0.0
 10
9.180024888780382
 20
16.82661946614583
 30
0.0
 10
9.180024888780382
 20
16.82661946614583
 30
0.0
 10
8.612247043185764
 20
16.39606391059028
 30
0.0
 10
8.612247043185764
 20
16.39606391059028
 30
0.0
 10
8.612247043185764
 20
16.39606391059028
 30
0.0
 10
8.33738538953993
 20
16.17773098415799
 30
0.0
 10
8.33738538953993
 20
16.17773098415799
 30
0.0
 10
8.33738538953993
 20
16.17773098415799
 30
0.0
 10
8.071690877278645
 20
15.95939805772569
 30
0.0
 10
8.071690877278645
 20
15.95939805772569
 30
0.0
 10
8.071690877278645
 20
15.95939805772569
 30
0.0
 10
7.816552056206596
 20
15.74203660753038
 30
0.0
 10
7.816552056206596
 20
15.74203660753038
 30
0.0
 10
7.816552056206596
 20
15.74203660753038
 30
0.0
 10
7.571829901801215
 20
15.52731492784288
 30
0.0
 10
7.571829901801215
 20
15.52731492784288
 30
0.0
 10
7.571829901801215
 20
15.52731492784288
 30
0.0
 10
7.33891381157769
 20
15.31328667534722
 30
0.0
 10
7.33891381157769
 20
15.31328667534722
 30
0.0
 10
7.33891381157769
 20
15.31328667534722
 30
0.0
 10
7.116691589355469
 20
15.10106404622396
 30
0.0
 10
7.116691589355469
 20
15.10106404622396
 30
0.0
 10
7.116691589355469
 20
15.10106404622396
 30
0.0
 10
7.117246839735243
 20
15.10078599717882
 30
0.0
 10
7.117246839735243
 20
15.10078599717882
 30
0.0
 10
7.117246839735243
 20
15.10078599717882
 30
0.0
 10
7.035302056206596
 20
15.35689798990885
 30
0.0
 10
7.035302056206596
 20
15.35689798990885
 30
0.0
 10
7.035302056206596
 20
15.35689798990885
 30
0.0
 10
6.958218892415364
 20
15.61412048339844
 30
0.0
 10
6.958218892415364
 20
15.61412048339844
 30
0.0
 10
6.958218892415364
 20
15.61412048339844
 30
0.0
 10
6.886691623263888
 20
15.87161933051215
 30
0.0
 10
6.886691623263888
 20
15.87161933051215
 30
0.0
 10
6.886691623263888
 20
15.87161933051215
 30
0.0
 10
6.822107950846354
 20
16.12648179796007
 30
0.0
 10
6.822107950846354
 20
16.12648179796007
 30
0.0
 10
6.822107950846354
 20
16.12648179796007
 30
0.0
 10
6.766552395290798
 20
16.37370300292969
 30
0.0
 10
6.766552395290798
 20
16.37370300292969
 30
0.0
 10
6.766552395290798
 20
16.37370300292969
 30
0.0
 10
6.742802090115017
 20
16.49259270562066
 30
0.0
 10
6.742802090115017
 20
16.49259270562066
 30
0.0
 10
6.742802090115017
 20
16.49259270562066
 30
0.0
 10
6.721968756781684
 20
16.60786946614583
 30
0.0
 10
6.721968756781684
 20
16.60786946614583
 30
0.0
 10
6.721968756781684
 20
16.60786946614583
 30
0.0
 10
6.704191419813368
 20
16.71898057725694
 30
0.0
 10
6.704191419813368
 20
16.71898057725694
 30
0.0
 10
6.704191419813368
 20
16.71898057725694
 30
0.0
 10
6.689469231499565
 20
16.82592603895399
 30
0.0
 10
6.689469231499565
 20
16.82592603895399
 30
0.0
 10
6.689469231499565
 20
16.82592603895399
 30
0.0
 10
6.677663167317708
 20
16.92870415581597
 30
0.0
 10
6.677663167317708
 20
16.92870415581597
 30
0.0
 10
6.677663167317708
 20
16.92870415581597
 30
0.0
 10
6.668774922688802
 20
17.02731492784288
 30
0.0
 10
6.668774922688802
 20
17.02731492784288
 30
0.0
 10
6.668774922688802
 20
17.02731492784288
 30
0.0
 10
6.668913099500868
 20
17.02717590332031
 30
0.0
 10
6.668913099500868
 20
17.02717590332031
 30
0.0
 10
6.668913099500868
 20
17.02717590332031
 30
0.0
 10
6.599468655056423
 20
16.98717583550347
 30
0.0
 10
6.599468655056423
 20
16.98717583550347
 30
0.0
 10
6.599468655056423
 20
16.98717583550347
 30
0.0
 10
6.516830444335938
 20
16.93731519911024
 30
0.0
 10
6.516830444335938
 20
16.93731519911024
 30
0.0
 10
6.516830444335938
 20
16.93731519911024
 30
0.0
 10
6.421274820963541
 20
16.87773132324219
 30
0.0
 10
6.421274820963541
 20
16.87773132324219
 30
0.0
 10
6.421274820963541
 20
16.87773132324219
 30
0.0
 10
6.313357883029513
 20
16.80828687879774
 30
0.0
 10
6.313357883029513
 20
16.80828687879774
 30
0.0
 10
6.313357883029513
 20
16.80828687879774
 30
0.0
 10
6.194051954481337
 20
16.7303704155816
 30
0.0
 10
6.194051954481337
 20
16.7303704155816
 30
0.0
 10
6.194051954481337
 20
16.7303704155816
 30
0.0
 10
6.06516350640191
 20
16.64495340983073
 30
0.0
 10
6.06516350640191
 20
16.64495340983073
 30
0.0
 10
6.06516350640191
 20
16.64495340983073
 30
0.0
 10
5.78863525390625
 20
16.4575924343533
 30
0.0
 10
5.78863525390625
 20
16.4575924343533
 30
0.0
 10
5.78863525390625
 20
16.4575924343533
 30
0.0
 10
5.505024380154079
 20
16.2598147922092
 30
0.0
 10
5.505024380154079
 20
16.2598147922092
 30
0.0
 10
5.505024380154079
 20
16.2598147922092
 30
0.0
 10
5.231691148546006
 20
16.06314765082465
 30
0.0
 10
5.231691148546006
 20
16.06314765082465
 30
0.0
 10
5.231691148546006
 20
16.06314765082465
 30
0.0
 10
4.718635559082031
 20
15.67425876193576
 30
0.0
 10
4.718635559082031
 20
15.67425876193576
 30
0.0
 10
4.718635559082031
 20
15.67425876193576
 30
0.0
 10
4.454746670193142
 20
15.46592542860243
 30
0.0
 10
4.454746670193142
 20
15.46592542860243
 30
0.0
 10
4.454746670193142
 20
15.46592542860243
 30
0.0
 10
4.173080444335938
 20
15.23912048339844
 30
0.0
 10
4.173080444335938
 20
15.23912048339844
 30
0.0
 10
4.173080444335938
 20
15.23912048339844
 30
0.0
 10
3.87669203016493
 20
14.99703640407986
 30
0.0
 10
3.87669203016493
 20
14.99703640407986
 30
0.0
 10
3.87669203016493
 20
14.99703640407986
 30
0.0
 10
3.576829698350694
 20
14.74814860026042
 30
0.0
 10
3.576829698350694
 20
14.74814860026042
 30
0.0
 10
3.576829698350694
 20
14.74814860026042
 30
0.0
 10
3.287663777669271
 20
14.50231424967448
 30
0.0
 10
3.287663777669271
 20
14.50231424967448
 30
0.0
 10
3.287663777669271
 20
14.50231424967448
 30
0.0
 10
3.020580715603299
 20
14.26773071289062
 30
0.0
 10
3.020580715603299
 20
14.26773071289062
 30
0.0
 10
3.020580715603299
 20
14.26773071289062
 30
0.0
 10
2.897247314453125
 20
14.15661960177951
 30
0.0
 10
2.897247314453125
 20
14.15661960177951
 30
0.0
 10
2.897247314453125
 20
14.15661960177951
 30
0.0
 10
2.781273735894097
 20
14.04911973741319
 30
0.0
 10
2.781273735894097
 20
14.04911973741319
 30
0.0
 10
2.781273735894097
 20
14.04911973741319
 30
0.0
 10
2.672663370768229
 20
13.94592624240451
 30
0.0
 10
2.672663370768229
 20
13.94592624240451
 30
0.0
 10
2.672663370768229
 20
13.94592624240451
 30
0.0
 10
2.571690877278646
 20
13.84689839680989
 30
0.0
 10
2.571690877278646
 20
13.84689839680989
 30
0.0
 10
2.571690877278646
 20
13.84689839680989
 30
0.0
 10
2.571690877278646
 20
13.84620327419705
 30
0.0
 10
2.571690877278646
 20
13.84620327419705
 30
0.0
 10
2.571690877278646
 20
13.84620327419705
 30
0.0
 10
2.481969197591146
 20
14.10412089029948
 30
0.0
 10
2.481969197591146
 20
14.10412089029948
 30
0.0
 10
2.481969197591146
 20
14.10412089029948
 30
0.0
 10
2.394607543945312
 20
14.39092508951823
 30
0.0
 10
2.394607543945312
 20
14.39092508951823
 30
0.0
 10
2.394607543945312
 20
14.39092508951823
 30
0.0
 10
2.309607611762153
 20
14.70675828721788
 30
0.0
 10
2.309607611762153
 20
14.70675828721788
 30
0.0
 10
2.309607611762153
 20
14.70675828721788
 30
0.0
 10
2.227386474609375
 20
15.05106438530816
 30
0.0
 10
2.227386474609375
 20
15.05106438530816
 30
0.0
 10
2.227386474609375
 20
15.05106438530816
 30
0.0
 10
2.148079766167535
 20
15.4223141140408
 30
0.0
 10
2.148079766167535
 20
15.4223141140408
 30
0.0
 10
2.148079766167535
 20
15.4223141140408
 30
0.0
 10
2.072246975368924
 20
15.81675889756944
 30
0.0
 10
2.072246975368924
 20
15.81675889756944
 30
0.0
 10
2.072246975368924
 20
15.81675889756944
 30
0.0
 10
1.934190538194444
 20
16.6473151312934
 30
0.0
 10
1.934190538194444
 20
16.6473151312934
 30
0.0
 10
1.934190538194444
 20
16.6473151312934
 30
0.0
 10
1.87363518608941
 20
17.06398179796007
 30
0.0
 10
1.87363518608941
 20
17.06398179796007
 30
0.0
 10
1.87363518608941
 20
17.06398179796007
 30
0.0
 10
1.820024278428819
 20
17.46787007649739
 30
0.0
 10
1.820024278428819
 20
17.46787007649739
 30
0.0
 10
1.820024278428819
 20
17.46787007649739
 30
0.0
 10
1.774468315972222
 20
17.84814792209201
 30
0.0
 10
1.774468315972222
 20
17.84814792209201
 30
0.0
 10
1.774468315972222
 20
17.84814792209201
 30
0.0
 10
1.737386067708333
 20
18.19537014431424
 30
0.0
 10
1.737386067708333
 20
18.19537014431424
 30
0.0
 10
1.737386067708333
 20
18.19537014431424
 30
0.0
 10
1.709608289930555
 20
18.50425889756944
 30
0.0
 10
1.709608289930555
 20
18.50425889756944
 30
0.0
 10
1.709608289930555
 20
18.50425889756944
 30
0.0
 10
1.699191623263889
 20
18.64314778645833
 30
0.0
 10
1.699191623263889
 20
18.64314778645833
 30
0.0
 10
1.699191623263889
 20
18.64314778645833
 30
0.0
 10
1.690995958116319
 20
18.77106391059028
 30
0.0
 10
1.690995958116319
 20
18.77106391059028
 30
0.0
 10
1.690995958116319
 20
18.77106391059028
 30
0.0
 10
1.685302734375
 20
18.88800896538628
 30
0.0
 10
1.685302734375
 20
18.88800896538628
 30
0.0
 10
1.685302734375
 20
18.88800896538628
 30
0.0
 10
1.681830512152778
 20
18.99412027994791
 30
0.0
 10
1.681830512152778
 20
18.99412027994791
 30
0.0
 10
1.681830512152778
 20
18.99412027994791
 30
0.0
 10
1.680579291449653
 20
19.08939785427517
 30
0.0
 10
1.680579291449653
 20
19.08939785427517
 30
0.0
 10
1.680579291449653
 20
19.08939785427517
 30
0.0
 10
1.681552463107639
 20
19.17384168836805
 30
0.0
 10
1.681552463107639
 20
19.17384168836805
 30
0.0
 10
1.681552463107639
 20
19.17384168836805
 30
0.0
 10
1.681552463107639
 20
19.17384168836805
 30
0.0
 10
1.681552463107639
 20
19.17384168836805
 30
0.0
 10
1.681552463107639
 20
19.17384168836805
 30
0.0
 10
0.1878017849392361
 20
19.17384168836805
 30
0.0
 10
0.1878017849392361
 20
19.17384168836805
 30
0.0
 10
0.1878017849392361
 20
19.17384168836805
 30
0.0
 10
0.1879408094618056
 20
19.17384168836805
 30
0.0
 10
0.1879408094618056
 20
19.17384168836805
 30
0.0
 10
0.1009555392795139
 20
19.17384168836805
 30
0.0
 10
0.0304412841796875
 20
19.24435763888889
 30
0.0
 10
0.0304412841796875
 20
19.33134290907118
 30
0.0
 10
0.0304412841796875
 20
19.33134290907118
 30
0.0
 10
0.0304412841796875
 20
19.33134290907118
 30
0.0
 10
0.0304412841796875
 20
19.33134290907118
 30
0.0
 10
0.0304412841796875
 20
19.33134290907118
 30
0.0
 10
0.0303022596571181
 20
19.33134290907118
 30
0.0
 10
0.0303022596571181
 20
19.33134290907118
 30
0.0
 10
0.0303022596571181
 20
19.33134290907118
 30
0.0
 10
0.0303022596571181
 20
20.09675937228733
 30
0.0
 10
0.0303022596571181
 20
20.09675937228733
 30
0.0
 10
0.0303022596571181
 20
20.09675937228733
 30
0.0
 10
0.0300242106119792
 20
20.09814792209201
 30
0.0
 10
0.0300242106119792
 20
20.09814792209201
 30
0.0
 10
0.0300242106119792
 20
20.09814792209201
 30
0.0
 10
0.0300242106119792
 20
20.86356438530816
 30
0.0
 10
0.0300242106119792
 20
20.86356438530816
 30
0.0
 10
0.0300242106119792
 20
20.86356438530816
 30
0.0
 10
0.0303022596571181
 20
20.86217583550347
 30
0.0
 10
0.0303022596571181
 20
20.86217583550347
 30
0.0
 10
0.0303022596571181
 20
20.94916025797526
 30
0.0
 10
0.1008165147569444
 20
21.01967536078559
 30
0.0
 10
0.1878017849392361
 20
21.01967536078559
 30
0.0
 10
0.1878017849392361
 20
21.01967536078559
 30
0.0
 10
0.1878017849392361
 20
21.02092573377821
 30
0.0
 10
0.1878017849392361
 20
21.02092573377821
 30
0.0
 10
0.1878017849392361
 20
21.02092573377821
 30
0.0
 10
1.681552463107639
 20
21.02092573377821
 30
0.0
 10
1.681552463107639
 20
21.02092573377821
 30
0.0
 10
1.681552463107639
 20
21.02092573377821
 30
0.0
 10
1.681552463107639
 20
21.02023145887587
 30
0.0
 10
1.681552463107639
 20
21.02023145887587
 30
0.0
 10
1.681552463107639
 20
21.02023145887587
 30
0.0
 10
1.680579291449653
 20
21.10467529296875
 30
0.0
 10
1.680579291449653
 20
21.10467529296875
 30
0.0
 10
1.680579291449653
 20
21.10467529296875
 30
0.0
 10
1.681830512152778
 20
21.19995371500651
 30
0.0
 10
1.681830512152778
 20
21.19995371500651
 30
0.0
 10
1.681830512152778
 20
21.19995371500651
 30
0.0
 10
1.685302734375
 20
21.30606418185764
 30
0.0
 10
1.685302734375
 20
21.30606418185764
 30
0.0
 10
1.685302734375
 20
21.30606418185764
 30
0.0
 10
1.690995958116319
 20
21.42300923665364
 30
0.0
 10
1.690995958116319
 20
21.42300923665364
 30
0.0
 10
1.690995958116319
 20
21.42300923665364
 30
0.0
 10
1.699191623263889
 20
21.55092536078559
 30
0.0
 10
1.699191623263889
 20
21.55092536078559
 30
0.0
 10
1.699191623263889
 20
21.55092536078559
 30
0.0
 10
1.709608289930555
 20
21.68981424967448
 30
0.0
 10
1.709608289930555
 20
21.68981424967448
 30
0.0
 10
1.709608289930555
 20
21.68981424967448
 30
0.0
 10
1.737386067708333
 20
21.99870385064019
 30
0.0
 10
1.737386067708333
 20
21.99870385064019
 30
0.0
 10
1.737386067708333
 20
21.99870385064019
 30
0.0
 10
1.774468315972222
 20
22.34592607286241
 30
0.0
 10
1.774468315972222
 20
22.34592607286241
 30
0.0
 10
1.774468315972222
 20
22.34592607286241
 30
0.0
 10
1.820024278428819
 20
22.72620307074653
 30
0.0
 10
1.820024278428819
 20
22.72620307074653
 30
0.0
 10
1.820024278428819
 20
22.72620307074653
 30
0.0
 10
1.87363518608941
 20
23.13009219699436
 30
0.0
 10
1.87363518608941
 20
23.13009219699436
 30
0.0
 10
1.87363518608941
 20
23.13009219699436
 30
0.0
 10
1.934190538194444
 20
23.54675886366102
 30
0.0
 10
1.934190538194444
 20
23.54675886366102
 30
0.0
 10
1.934190538194444
 20
23.54675886366102
 30
0.0
 10
2.072246975368924
 20
24.37731424967448
 30
0.0
 10
2.072246975368924
 20
24.37731424967448
 30
0.0
 10
2.072246975368924
 20
24.37731424967448
 30
0.0
 10
2.148079766167535
 20
24.77175903320312
 30
0.0
 10
2.148079766167535
 20
24.77175903320312
 30
0.0
 10
2.148079766167535
 20
24.77175903320312
 30
0.0
 10
2.227386474609375
 20
25.14300876193576
 30
0.0
 10
2.227386474609375
 20
25.14300876193576
 30
0.0
 10
2.227386474609375
 20
25.14300876193576
 30
0.0
 10
2.309607611762153
 20
25.48731486002604
 30
0.0
 10
2.309607611762153
 20
25.48731486002604
 30
0.0
 10
2.309607611762153
 20
25.48731486002604
 30
0.0
 10
2.394607543945312
 20
25.80314805772569
 30
0.0
 10
2.394607543945312
 20
25.80314805772569
 30
0.0
 10
2.394607543945312
 20
25.80314805772569
 30
0.0
 10
2.481969197591146
 20
26.08995310465495
 30
0.0
 10
2.481969197591146
 20
26.08995310465495
 30
0.0
 10
2.481969197591146
 20
26.08995310465495
 30
0.0
 10
2.571690877278646
 20
26.34786987304688
 30
0.0
 10
2.571690877278646
 20
26.34786987304688
 30
0.0
 10
2.571690877278646
 20
26.34786987304688
 30
0.0
 10
2.571690877278646
 20
26.34786987304688
 30
0.0
 10
2.571690877278646
 20
26.34786987304688
 30
0.0
 10
2.571690877278646
 20
26.34786987304688
 30
0.0
 10
2.672663370768229
 20
26.24884202745226
 30
0.0
 10
2.672663370768229
 20
26.24884202745226
 30
0.0
 10
2.672663370768229
 20
26.24884202745226
 30
0.0
 10
2.781273735894097
 20
26.14564768473307
 30
0.0
 10
2.781273735894097
 20
26.14564768473307
 30
0.0
 10
2.781273735894097
 20
26.14564768473307
 30
0.0
 10
2.897247314453125
 20
26.03814782036675
 30
0.0
 10
2.897247314453125
 20
26.03814782036675
 30
0.0
 10
2.897247314453125
 20
26.03814782036675
 30
0.0
 10
3.020580715603299
 20
25.92703670925564
 30
0.0
 10
3.020580715603299
 20
25.92703670925564
 30
0.0
 10
3.020580715603299
 20
25.92703670925564
 30
0.0
 10
3.287663777669271
 20
25.69245317247179
 30
0.0
 10
3.287663777669271
 20
25.69245317247179
 30
0.0
 10
3.287663777669271
 20
25.69245317247179
 30
0.0
 10
3.576829698350694
 20
25.44662051730685
 30
0.0
 10
3.576829698350694
 20
25.44662051730685
 30
0.0
 10
3.576829698350694
 20
25.44662051730685
 30
0.0
 10
3.87669203016493
 20
25.19773101806641
 30
0.0
 10
3.87669203016493
 20
25.19773101806641
 30
0.0
 10
3.87669203016493
 20
25.19773101806641
 30
0.0
 10
4.173080444335938
 20
24.95564778645833
 30
0.0
 10
4.173080444335938
 20
24.95564778645833
 30
0.0
 10
4.173080444335938
 20
24.95564778645833
 30
0.0
 10
4.454746670193142
 20
24.72884199354383
 30
0.0
 10
4.454746670193142
 20
24.72884199354383
 30
0.0
 10
4.454746670193142
 20
24.72884199354383
 30
0.0
 10
4.718635559082031
 20
24.5205086602105
 30
0.0
 10
4.718635559082031
 20
24.5205086602105
 30
0.0
 10
4.718635559082031
 20
24.5205086602105
 30
0.0
 10
5.231691148546006
 20
24.13161977132161
 30
0.0
 10
5.231691148546006
 20
24.13161977132161
 30
0.0
 10
5.231691148546006
 20
24.13161977132161
 30
0.0
 10
5.505024380154079
 20
23.93495347764757
 30
0.0
 10
5.505024380154079
 20
23.93495347764757
 30
0.0
 10
5.505024380154079
 20
23.93495347764757
 30
0.0
 10
5.78863525390625
 20
23.73717583550347
 30
0.0
 10
5.78863525390625
 20
23.73717583550347
 30
0.0
 10
5.78863525390625
 20
23.73717583550347
 30
0.0
 10
6.06516350640191
 20
23.54981486002604
 30
0.0
 10
6.06516350640191
 20
23.54981486002604
 30
0.0
 10
6.06516350640191
 20
23.54981486002604
 30
0.0
 10
6.194051954481337
 20
23.46439785427517
 30
0.0
 10
6.194051954481337
 20
23.46439785427517
 30
0.0
 10
6.194051954481337
 20
23.46439785427517
 30
0.0
 10
6.313357883029513
 20
23.38648139105903
 30
0.0
 10
6.313357883029513
 20
23.38648139105903
 30
0.0
 10
6.313357883029513
 20
23.38648139105903
 30
0.0
 10
6.421274820963541
 20
23.31703694661458
 30
0.0
 10
6.421274820963541
 20
23.31703694661458
 30
0.0
 10
6.421274820963541
 20
23.31703694661458
 30
0.0
 10
6.516830444335938
 20
23.25745307074653
 30
0.0
 10
6.516830444335938
 20
23.25745307074653
 30
0.0
 10
6.516830444335938
 20
23.25745307074653
 30
0.0
 10
6.599468655056423
 20
23.2075924343533
 30
0.0
 10
6.599468655056423
 20
23.2075924343533
 30
0.0
 10
6.599468655056423
 20
23.2075924343533
 30
0.0
 10
6.668913099500868
 20
23.16759236653646
 30
0.0
 10
6.668913099500868
 20
23.16759236653646
 30
0.0
 10
6.668913099500868
 20
23.16759236653646
 30
0.0
 10
6.668357849121094
 20
23.16634199354383
 30
0.0
 10
6.668357849121094
 20
23.16634199354383
 30
0.0
 10
6.668357849121094
 20
23.16634199354383
 30
0.0
 10
6.677246941460503
 20
23.26495361328125
 30
0.0
 10
6.677246941460503
 20
23.26495361328125
 30
0.0
 10
6.677246941460503
 20
23.26495361328125
 30
0.0
 10
6.689052157931857
 20
23.36773088243272
 30
0.0
 10
6.689052157931857
 20
23.36773088243272
 30
0.0
 10
6.689052157931857
 20
23.36773088243272
 30
0.0
 10
6.703774346245659
 20
23.47467549641927
 30
0.0
 10
6.703774346245659
 20
23.47467549641927
 30
0.0
 10
6.703774346245659
 20
23.47467549641927
 30
0.0
 10
6.721552530924479
 20
23.58578660753038
 30
0.0
 10
6.721552530924479
 20
23.58578660753038
 30
0.0
 10
6.721552530924479
 20
23.58578660753038
 30
0.0
 10
6.742385864257812
 20
23.70106421576606
 30
0.0
 10
6.742385864257812
 20
23.70106421576606
 30
0.0
 10
6.742385864257812
 20
23.70106421576606
 30
0.0
 10
6.76613532172309
 20
23.81995307074653
 30
0.0
 10
6.76613532172309
 20
23.81995307074653
 30
0.0
 10
6.76613532172309
 20
23.81995307074653
 30
0.0
 10
6.821690877278646
 20
24.06717597113715
 30
0.0
 10
6.821690877278646
 20
24.06717597113715
 30
0.0
 10
6.821690877278646
 20
24.06717597113715
 30
0.0
 10
6.88627454969618
 20
24.32203674316406
 30
0.0
 10
6.88627454969618
 20
24.32203674316406
 30
0.0
 10
6.88627454969618
 20
24.32203674316406
 30
0.0
 10
6.957802666558159
 20
24.57953643798828
 30
0.0
 10
6.957802666558159
 20
24.57953643798828
 30
0.0
 10
6.957802666558159
 20
24.57953643798828
 30
0.0
 10
7.035302056206596
 20
24.83689795600043
 30
0.0
 10
7.035302056206596
 20
24.83689795600043
 30
0.0
 10
7.035302056206596
 20
24.83689795600043
 30
0.0
 10
7.117246839735243
 20
25.09300910101996
 30
0.0
 10
7.117246839735243
 20
25.09300910101996
 30
0.0
 10
7.117246839735243
 20
25.09300910101996
 30
0.0
 10
7.117107815212673
 20
25.09287007649739
 30
0.0
 10
7.117107815212673
 20
25.09287007649739
 30
0.0
 10
7.117107815212673
 20
25.09287007649739
 30
0.0
 10
7.339330037434896
 20
24.88064829508463
 30
0.0
 10
7.339330037434896
 20
24.88064829508463
 30
0.0
 10
7.339330037434896
 20
24.88064829508463
 30
0.0
 10
7.571829901801215
 20
24.66620381673177
 30
0.0
 10
7.571829901801215
 20
24.66620381673177
 30
0.0
 10
7.571829901801215
 20
24.66620381673177
 30
0.0
 10
7.815996805826822
 20
24.45036994086371
 30
0.0
 10
7.815996805826822
 20
24.45036994086371
 30
0.0
 10
7.815996805826822
 20
24.45036994086371
 30
0.0
 10
8.07113562689887
 20
24.23300933837891
 30
0.0
 10
8.07113562689887
 20
24.23300933837891
 30
0.0
 10
8.07113562689887
 20
24.23300933837891
 30
0.0
 10
8.336830139160156
 20
24.01467556423611
 30
0.0
 10
8.336830139160156
 20
24.01467556423611
 30
0.0
 10
8.336830139160156
 20
24.01467556423611
 30
0.0
 10
8.611690945095486
 20
23.79634263780382
 30
0.0
 10
8.611690945095486
 20
23.79634263780382
 30
0.0
 10
8.611690945095486
 20
23.79634263780382
 30
0.0
 10
9.179468790690104
 20
23.36578708224826
 30
0.0
 10
9.179468790690104
 20
23.36578708224826
 30
0.0
 10
9.179468790690104
 20
23.36578708224826
 30
0.0
 10
9.465441385904947
 20
23.15842607286241
 30
0.0
 10
9.465441385904947
 20
23.15842607286241
 30
0.0
 10
9.465441385904947
 20
23.15842607286241
 30
0.0
 10
9.747802734375
 20
22.95939805772569
 30
0.0
 10
9.747802734375
 20
22.95939805772569
 30
0.0
 10
9.747802734375
 20
22.95939805772569
 30
0.0
 10
10.0232187906901
 20
22.77078670925564
 30
0.0
 10
10.0232187906901
 20
22.77078670925564
 30
0.0
 10
10.0232187906901
 20
22.77078670925564
 30
0.0
 10
10.28863525390625
 20
22.59425862630208
 30
0.0
 10
10.28863525390625
 20
22.59425862630208
 30
0.0
 10
10.28863525390625
 20
22.59425862630208
 30
0.0
 10
10.54252454969618
 20
22.43064795600043
 30
0.0
 10
10.54252454969618
 20
22.43064795600043
 30
0.0
 10
10.54252454969618
 20
22.43064795600043
 30
0.0
 10
10.78377448187934
 20
22.28050910101996
 30
0.0
 10
10.78377448187934
 20
22.28050910101996
 30
0.0
 10
10.78377448187934
 20
22.28050910101996
 30
0.0
 10
11.01224687364366
 20
22.14370388454861
 30
0.0
 10
11.01224687364366
 20
22.14370388454861
 30
0.0
 10
11.01224687364366
 20
22.14370388454861
 30
0.0
 10
11.22794087727864
 20
22.0200924343533
 30
0.0
 10
11.22794087727864
 20
22.0200924343533
 30
0.0
 10
11.22794087727864
 20
22.0200924343533
 30
0.0
 10
11.22794087727864
 20
22.02120378282335
 30
0.0
 10
11.22794087727864
 20
22.02120378282335
 30
0.0
 10
11.22794087727864
 20
22.02120378282335
 30
0.0
 10
11.31044091118707
 20
22.44064754909939
 30
0.0
 10
11.31044091118707
 20
22.44064754909939
 30
0.0
 10
11.31044091118707
 20
22.44064754909939
 30
0.0
 10
11.31044091118707
 20
22.44064754909939
 30
0.0
 10
11.31044091118707
 20
22.44064754909939
 30
0.0
 10
11.31044091118707
 20
22.44064754909939
 30
0.0
 10
11.44169108072917
 20
23.10828653971354
 30
0.0
 10
11.44169108072917
 20
23.10828653971354
 30
0.0
 10
11.44169108072917
 20
23.10828653971354
 30
0.0
 10
11.44169108072917
 20
23.10828653971354
 30
0.0
 10
11.44169108072917
 20
23.10828653971354
 30
0.0
 10
11.44169108072917
 20
23.10828653971354
 30
0.0
 10
11.56669108072917
 20
23.56259240044488
 30
0.0
 10
11.56669108072917
 20
23.56259240044488
 30
0.0
 10
11.56669108072917
 20
23.56259240044488
 30
0.0
 10
11.56585778130425
 20
23.5620371500651
 30
0.0
 10
11.56585778130425
 20
23.5620371500651
 30
0.0
 10
11.56585778130425
 20
23.5620371500651
 30
0.0
 10
11.83280224270291
 20
23.29814826117621
 30
0.0
 10
11.83280224270291
 20
23.29814826117621
 30
0.0
 10
11.83280224270291
 20
23.29814826117621
 30
0.0
 10
12.12946912977431
 20
23.03203667534722
 30
0.0
 10
12.12946912977431
 20
23.03203667534722
 30
0.0
 10
12.12946912977431
 20
23.03203667534722
 30
0.0
 10
12.45557996961806
 20
22.76356421576606
 30
0.0
 10
12.45557996961806
 20
22.76356421576606
 30
0.0
 10
12.45557996961806
 20
22.76356421576606
 30
0.0
 10
12.81030231051975
 20
22.49370320638021
 30
0.0
 10
12.81030231051975
 20
22.49370320638021
 30
0.0
 10
12.81030231051975
 20
22.49370320638021
 30
0.0
 10
13.19155248006185
 20
22.22439829508463
 30
0.0
 10
13.19155248006185
 20
22.22439829508463
 30
0.0
 10
13.19155248006185
 20
22.22439829508463
 30
0.0
 10
13.59433025783963
 20
21.95884195963541
 30
0.0
 10
13.59433025783963
 20
21.95884195963541
 30
0.0
 10
13.59433025783963
 20
21.95884195963541
 30
0.0
 10
14.01349682278103
 20
21.70106421576606
 30
0.0
 10
14.01349682278103
 20
21.70106421576606
 30
0.0
 10
14.01349682278103
 20
21.70106421576606
 30
0.0
 10
14.44127443101671
 20
21.4557868109809
 30
0.0
 10
14.44127443101671
 20
21.4557868109809
 30
0.0
 10
14.44127443101671
 20
21.4557868109809
 30
0.0
 10
14.87058003743489
 20
21.22717539469401
 30
0.0
 10
14.87058003743489
 20
21.22717539469401
 30
0.0
 10
14.87058003743489
 20
21.22717539469401
 30
0.0
 10
15.29488563537598
 20
21.01884206136068
 30
0.0
 10
15.29488563537598
 20
21.01884206136068
 30
0.0
 10
15.29488563537598
 20
21.01884206136068
 30
0.0
 10
15.70933002895779
 20
20.83162011040582
 30
0.0
 10
15.70933002895779
 20
20.83162011040582
 30
0.0
 10
15.70933002895779
 20
20.83162011040582
 30
0.0
 10
16.11058002048069
 20
20.66620381673177
 30
0.0
 10
16.11058002048069
 20
20.66620381673177
 30
0.0
 10
16.11058002048069
 20
20.66620381673177
 30
0.0
 10
16.49599668714735
 20
20.52148098415799
 30
0.0
 10
16.49599668714735
 20
20.52148098415799
 30
0.0
 10
16.49599668714735
 20
20.52148098415799
 30
0.0
 10
16.86488564809163
 20
20.39648098415799
 30
0.0
 10
16.86488564809163
 20
20.39648098415799
 30
0.0
 10
16.86488564809163
 20
20.39648098415799
 30
0.0
 10
17.21655231051975
 20
20.2892591688368
 30
0.0
 10
17.21655231051975
 20
20.2892591688368
 30
0.0
 10
17.21655231051975
 20
20.2892591688368
 30
0.0
 10
17.55127451154921
 20
20.19925944010416
 30
0.0
 10
17.55127451154921
 20
20.19925944010416
 30
0.0
 10
17.55127451154921
 20
20.19925944010416
 30
0.0
 10
17.55196899837918
 20
20.1995366414388
 30
0.0
 10
17.55196899837918
 20
20.1995366414388
 30
0.0
 10
17.55196899837918
 20
20.1995366414388
 30
0.0
 10
9.022108289930555
 20
20.19717576768663
 30
0.0
 10
9.022108289930555
 20
20.19717576768663
 30
0.0
 10
9.022108289930555
 20
20.19717576768663
 30
0.0
 10
9.022108289930555
 20
20.19717576768663
 30
0.0
 10
9.022108289930555
 20
20.19717576768663
 30
0.0
 10
9.022108289930555
 20
20.19717576768663
 30
0.0
 10
9.022108289930555
 20
20.09675937228733
 30
0.0
 10
9.022108289930555
 20
20.09675937228733
 30
0.0
 10
9.022108289930555
 20
20.09675937228733
 30
0.0
 10
9.022108289930555
 20
20.09675937228733
 30
0.0
 10
9.022108289930555
 20
20.09675937228733
 30
0.0
 10
9.022108289930555
 20
20.09675937228733
 30
0.0
 10
9.022108289930555
 20
19.99634212917752
 30
0.0
 10
9.022108289930555
 20
19.99634212917752
 30
0.0
 10
9.022108289930555
 20
19.99634212917752
 30
0.0
 10
9.022108289930555
 20
19.99634212917752
 30
0.0
 10
9.022108289930555
 20
19.99634212917752
 30
0.0
 10
9.022108289930555
 20
19.99634212917752
 30
0.0
 10
17.55196899837918
 20
19.99398125542535
 30
0.0
 10
17.55196899837918
 20
19.99398125542535
 30
0.0
 10
17.55196899837918
 20
19.99398125542535
 30
0.0
 10
17.55196899837918
 20
19.99398125542535
 30
0.0
 10
17.55196899837918
 20
19.99398125542535
 30
0.0
 10
17.55196899837918
 20
19.99398125542535
 30
0.0
 10
17.21724679734972
 20
19.90398152669271
 30
0.0
 10
17.21724679734972
 20
19.90398152669271
 30
0.0
 10
17.21724679734972
 20
19.90398152669271
 30
0.0
 10
16.8655801349216
 20
19.79675886366102
 30
0.0
 10
16.8655801349216
 20
19.79675886366102
 30
0.0
 10
16.8655801349216
 20
19.79675886366102
 30
0.0
 10
16.49669117397732
 20
19.67175971137153
 30
0.0
 10
16.49669117397732
 20
19.67175971137153
 30
0.0
 10
16.49669117397732
 20
19.67175971137153
 30
0.0
 10
16.11058002048069
 20
19.52731492784288
 30
0.0
 10
16.11058002048069
 20
19.52731492784288
 30
0.0
 10
16.11058002048069
 20
19.52731492784288
 30
0.0
 10
15.71044116550022
 20
19.36064826117621
 30
0.0
 10
15.71044116550022
 20
19.36064826117621
 30
0.0
 10
15.71044116550022
 20
19.36064826117621
 30
0.0
 10
15.2959967719184
 20
19.17342631022135
 30
0.0
 10
15.2959967719184
 20
19.17342631022135
 30
0.0
 10
15.2959967719184
 20
19.17342631022135
 30
0.0
 10
14.87169138590495
 20
18.96509297688802
 30
0.0
 10
14.87169138590495
 20
18.96509297688802
 30
0.0
 10
14.87169138590495
 20
18.96509297688802
 30
0.0
 10
14.44238577948676
 20
18.73648071289062
 30
0.0
 10
14.44238577948676
 20
18.73648071289062
 30
0.0
 10
14.44238577948676
 20
18.73648071289062
 30
0.0
 10
14.01460774739583
 20
18.49120415581597
 30
0.0
 10
14.01460774739583
 20
18.49120415581597
 30
0.0
 10
14.01460774739583
 20
18.49120415581597
 30
0.0
 10
13.59544118245443
 20
18.23342556423611
 30
0.0
 10
13.59544118245443
 20
18.23342556423611
 30
0.0
 10
13.59544118245443
 20
18.23342556423611
 30
0.0
 10
13.19266340467665
 20
17.96787007649739
 30
0.0
 10
13.19266340467665
 20
17.96787007649739
 30
0.0
 10
13.19266340467665
 20
17.96787007649739
 30
0.0
 10
12.81141323513455
 20
17.69856431749132
 30
0.0
 10
12.81141323513455
 20
17.69856431749132
 30
0.0
 10
12.81141323513455
 20
17.69856431749132
 30
0.0
 10
12.45669131808811
 20
17.42870415581597
 30
0.0
 10
12.45669131808811
 20
17.42870415581597
 30
0.0
 10
12.45669131808811
 20
17.42870415581597
 30
0.0
 10
12.1305800543891
 20
17.1602308485243
 30
0.0
 10
12.1305800543891
 20
17.1602308485243
 30
0.0
 10
12.1305800543891
 20
17.1602308485243
 30
0.0
 10
11.83280224270291
 20
16.89425828721788
 30
0.0
 10
11.83280224270291
 20
16.89425828721788
 30
0.0
 10
11.83280224270291
 20
16.89425828721788
 30
0.0
 10
11.56585778130425
 20
16.63036939832899
 30
0.0
 10
11.56585778130425
 20
16.63036939832899
 30
0.0
 10
11.56585778130425
 20
16.63036939832899
 30
0.0
 10
11.56669108072917
 20
16.63092549641927
 30
0.0
 10
11.56669108072917
 20
16.63092549641927
 30
0.0
  0
ENDBLK
  5
44
330
41
100
AcDbEntity
  8
0
100
AcDbBlockEnd
  0
BLOCK
  5
48
330
46
100
AcDbEntity
  8
0
100
AcDbBlockBegin
  2
block 3
 70
     0
 10
0.0
 20
0.0
 30
0.0
  3
block 3
  1

  0
SPLINE
  5
4A
330
46
100
AcDbEntity
  8
Layer 1
 62
     1
420
 16716306
370
    35
100
AcDbSpline
210
0.0
220
0.0
230
1.0
 70
    11
 71
     3
 72
   617
 73
   613
 74
     0
 42
0.0000000001
 43
0.0000000001
 12
1.0
 22
0.0
 32
0.0
 13
1.0
 23
0.0
 33
0.0
 40
0.0
 40
0.0
 40
0.0
 40
0.0
 40
1.0
 40
1.0
 40
1.0
 40
2.0
 40
2.0
 40
2.0
 40
3.0
 40
3.0
 40
3.0
 40
4.0
 40
4.0
 40
4.0
 40
5.0
 40
5.0
 40
5.0
 40
6.0
 40
6.0
 40
6.0
 40
7.0
 40
7.0
 40
7.0
 40
8.0
 40
8.0
 40
8.0
 40
9.0
 40
9.0
 40
9.0
 40
10.0
 40
10.0
 40
10.0
 40
11.0
 40
11.0
 40
11.0
 40
12.0
 40
12.0
 40
12.0
 40
13.0
 40
13.0
 40
13.0
 40
14.0
 40
14.0
 40
14.0
 40
15.0
 40
15.0
 40
15.0
 40
16.0
 40
16.0
 40
16.0
 40
17.0
 40
17.0
 40
17.0
 40
18.0
 40
18.0
 40
18.0
 40
19.0
 40
19.0
 40
19.0
 40
20.0
 40
20.0
 40
20.0
 40
21.0
 40
21.0
 40
21.0
 40
22.0
 40
22.0
 40
22.0
 40
23.0
 40
23.0
 40
23.0
 40
24.0
 40
24.0
 40
24.0
 40
25.0
 40
25.0
 40
25.0
 40
26.0
 40
26.0
 40
26.0
 40
27.0
 40
27.0
 40
27.0
 40
28.0
 40
28.0
 40
28.0
 40
29.0
 40
29.0
 40
29.0
 40
30.0
 40
30.0
 40
30.0
 40
31.0
 40
31.0
 40
31.0
 40
32.0
 40
32.0
 40
32.0
 40
33.0
 40
33.0
 40
33.0
 40
34.0
 40
34.0
 40
34.0
 40
35.0
 40
35.0
 40
35.0
 40
36.0
 40
36.0
 40
36.0
 40
37.0
 40
37.0
 40
37.0
 40
38.0
 40
38.0
 40
38.0
 40
39.0
 40
39.0
 40
39.0
 40
40.0
 40
40.0
 40
40.0
 40
41.0
 40
41.0
 40
41.0
 40
42.0
 40
42.0
 40
42.0
 40
43.0
 40
43.0
 40
43.0
 40
44.0
 40
44.0
 40
44.0
 40
45.0
 40
45.0
 40
45.0
 40
46.0
 40
46.0
 40
46.0
 40
47.0
 40
47.0
 40
47.0
 40
48.0
 40
48.0
 40
48.0
 40
49.0
 40
49.0
 40
49.0
 40
50.0
 40
50.0
 40
50.0
 40
51.0
 40
51.0
 40
51.0
 40
52.0
 40
52.0
 40
52.0
 40
53.0
 40
53.0
 40
53.0
 40
54.0
 40
54.0
 40
54.0
 40
55.0
 40
55.0
 40
55.0
 40
56.0
 40
56.0
 40
56.0
 40
57.0
 40
57.0
 40
57.0
 40
58.0
 40
58.0
 40
58.0
 40
59.0
 40
59.0
 40
59.0
 40
60.0
 40
60.0
 40
60.0
 40
61.0
 40
61.0
 40
61.0
 40
62.0
 40
62.0
 40
62.0
 40
63.0
 40
63.0
 40
63.0
 40
64.0
 40
64.0
 40
64.0
 40
65.0
 40
65.0
 40
65.0
 40
66.0
 40
66.0
 40
66.0
 40
67.0
 40
67.0
 40
67.0
 40
68.0
 40
68.0
 40
68.0
 40
69.0
 40
69.0
 40
69.0
 40
70.0
 40
70.0
 40
70.0
 40
71.0
 40
71.0
 40
71.0
 40
72.0
 40
72.0
 40
72.0
 40
73.0
 40
73.0
 40
73.0
 40
74.0
 40
74.0
 40
74.0
 40
75.0
 40
75.0
 40
75.0
 40
76.0
 40
76.0
 40
76.0
 40
77.0
 40
77.0
 40
77.0
 40
78.0
 40
78.0
 40
78.0
 40
79.0
 40
79.0
 40
79.0
 40
80.0
 40
80.0
 40
80.0
 40
81.0
 40
81.0
 40
81.0
 40
82.0
 40
82.0
 40
82.0
 40
83.0
 40
83.0
 40
83.0
 40
84.0
 40
84.0
 40
84.0
 40
85.0
 40
85.0
 40
85.0
 40
86.0
 40
86.0
 40
86.0
 40
87.0
 40
87.0
 40
87.0
 40
88.0
 40
88.0
 40
88.0
 40
89.0
 40
89.0
 40
89.0
 40
90.0
 40
90.0
 40
90.0
 40
91.0
 40
91.0
 40
91.0
 40
92.0
 40
92.0
 40
92.0
 40
93.0
 40
93.0
 40
93.0
 40
94.0
 40
94.0
 40
94.0
 40
95.0
 40
95.0
 40
95.0
 40
96.0
 40
96.0
 40
96.0
 40
97.0
 40
97.0
 40
97.0
 40
98.0
 40
98.0
 40
98.0
 40
99.0
 40
99.0
 40
99.0
 40
100.0
 40
100.0
 40
100.0
 40
101.0
 40
101.0
 40
101.0
 40
102.0
 40
102.0
 40
102.0
 40
103.0
 40
103.0
 40
103.0
 40
104.0
 40
104.0
 40
104.0
 40
105.0
 40
105.0
 40
105.0
 40
106.0
 40
106.0
 40
106.0
 40
107.0
 40
107.0
 40
107.0
 40
108.0
 40
108.0
 40
108.0
 40
109.0
 40
109.0
 40
109.0
 40
110.0
 40
110.0
 40
110.0
 40
111.0
 40
111.0
 40
111.0
 40
112.0
 40
112.0
 40
112.0
 40
113.0
 40
113.0
 40
113.0
 40
114.0
 40
114.0
 40
114.0
 40
115.0
 40
115.0
 40
115.0
 40
116.0
 40
116.0
 40
116.0
 40
117.0
 40
117.0
 40
117.0
 40
118.0
 40
118.0
 40
118.0
 40
119.0
 40
119.0
 40
119.0
 40
120.0
 40
120.0
 40
120.0
 40
121.0
 40
121.0
 40
121.0
 40
122.0
 40
122.0
 40
122.0
 40
123.0
 40
123.0
 40
123.0
 40
124.0
 40
124.0
 40
124.0
 40
125.0
 40
125.0
 40
125.0
 40
126.0
 40
126.0
 40
126.0
 40
127.0
 40
127.0
 40
127.0
 40
128.0
 40
128.0
 40
128.0
 40
129.0
 40
129.0
 40
129.0
 40
130.0
 40
130.0
 40
130.0
 40
131.0
 40
131.0
 40
131.0
 40
132.0
 40
132.0
 40
132.0
 40
133.0
 40
133.0
 40
133.0
 40
134.0
 40
134.0
 40
134.0
 40
135.0
 40
135.0
 40
135.0
 40
136.0
 40
136.0
 40
136.0
 40
137.0
 40
137.0
 40
137.0
 40
138.0
 40
138.0
 40
138.0
 40
139.0
 40
139.0
 40
139.0
 40
140.0
 40
140.0
 40
140.0
 40
141.0
 40
141.0
 40
141.0
 40
142.0
 40
142.0
 40
142.0
 40
143.0
 40
143.0
 40
143.0
 40
144.0
 40
144.0
 40
144.0
 40
145.0
 40
145.0
 40
145.0
 40
146.0
 40
146.0
 40
146.0
 40
147.0
 40
147.0
 40
147.0
 40
148.0
 40
148.0
 40
148.0
 40
149.0
 40
149.0
 40
149.0
 40
150.0
 40
150.0
 40
150.0
 40
151.0
 40
151.0
 40
151.0
 40
152.0
 40
152.0
 40
152.0
 40
153.0
 40
153.0
 40
153.0
 40
154.0
 40
154.0
 40
154.0
 40
155.0
 40
155.0
 40
155.0
 40
156.0
 40
156.0
 40
156.0
 40
157.0
 40
157.0
 40
157.0
 40
158.0
 40
158.0
 40
158.0
 40
159.0
 40
159.0
 40
159.0
 40
160.0
 40
160.0
 40
160.0
 40
161.0
 40
161.0
 40
161.0
 40
162.0
 40
162.0
 40
162.0
 40
163.0
 40
163.0
 40
163.0
 40
164.0
 40
164.0
 40
164.0
 40
165.0
 40
165.0
 40
165.0
 40
166.0
 40
166.0
 40
166.0
 40
167.0
 40
167.0
 40
167.0
 40
168.0
 40
168.0
 40
168.0
 40
169.0
 40
169.0
 40
169.0
 40
170.0
 40
170.0
 40
170.0
 40
171.0
 40
171.0
 40
171.0
 40
172.0
 40
172.0
 40
172.0
 40
173.0
 40
173.0
 40
173.0
 40
174.0
 40
174.0
 40
174.0
 40
175.0
 40
175.0
 40
175.0
 40
176.0
 40
176.0
 40
176.0
 40
177.0
 40
177.0
 40
177.0
 40
178.0
 40
178.0
 40
178.0
 40
179.0
 40
179.0
 40
179.0
 40
180.0
 40
180.0
 40
180.0
 40
181.0
 40
181.0
 40
181.0
 40
182.0
 40
182.0
 40
182.0
 40
183.0
 40
183.0
 40
183.0
 40
184.0
 40
184.0
 40
184.0
 40
185.0
 40
185.0
 40
185.0
 40
186.0
 40
186.0
 40
186.0
 40
187.0
 40
187.0
 40
187.0
 40
188.0
 40
188.0
 40
188.0
 40
189.0
 40
189.0
 40
189.0
 40
190.0
 40
190.0
 40
190.0
 40
191.0
 40
191.0
 40
191.0
 40
192.0
 40
192.0
 40
192.0
 40
193.0
 40
193.0
 40
193.0
 40
194.0
 40
194.0
 40
194.0
 40
195.0
 40
195.0
 40
195.0
 40
196.0
 40
196.0
 40
196.0
 40
197.0
 40
197.0
 40
197.0
 40
198.0
 40
198.0
 40
198.0
 40
199.0
 40
199.0
 40
199.0
 40
200.0
 40
200.0
 40
200.0
 40
201.0
 40
201.0
 40
201.0
 40
202.0
 40
202.0
 40
202.0
 40
203.0
 40
203.0
 40
203.0
 40
204.0
 40
204.0
 40
204.0
 40
204.0
 10
18.05693409177992
 20
12.8122075398763
 30
0.0
 10
18.05693409177992
 20
12.8122075398763
 30
0.0
 10
18.05693409177992
 20
12.14720747205946
 30
0.0
 10
18.05693409177992
 20
12.14720747205946
 30
0.0
 10
18.05693409177992
 20
12.14720747205946
 30
0.0
 10
18.05693409177992
 20
12.14720747205946
 30
0.0
 10
18.05693409177992
 20
12.14720747205946
 30
0.0
 10
18.0569347805447
 20
12.06022220187717
 30
0.0
 10
17.98642015457153
 20
11.98970625135634
 30
0.0
 10
17.8994353612264
 20
11.98970625135634
 30
0.0
 10
17.89943493737115
 20
11.98970625135634
 30
0.0
 10
17.8994345135159
 20
11.98970625135634
 30
0.0
 10
17.89943408966064
 20
11.98970625135634
 30
0.0
 10
17.89943408966064
 20
11.98970625135634
 30
0.0
 10
17.89943408966064
 20
11.98970625135634
 30
0.0
 10
17.89943408966064
 20
11.98970625135634
 30
0.0
 10
17.89943408966064
 20
11.98970625135634
 30
0.0
 10
16.40637842814127
 20
11.98970625135634
 30
0.0
 10
16.40637842814127
 20
11.98970625135634
 30
0.0
 10
16.40637842814127
 20
11.98970625135634
 30
0.0
 10
16.40610080295139
 20
11.98915184868707
 30
0.0
 10
16.40610080295139
 20
11.98915184868707
 30
0.0
 10
16.40610080295139
 20
11.98915184868707
 30
0.0
 10
16.40721193949381
 20
11.90470631917318
 30
0.0
 10
16.40721193949381
 20
11.90470631917318
 30
0.0
 10
16.40721193949381
 20
11.90470631917318
 30
0.0
 10
16.40596177842882
 20
11.80942874484592
 30
0.0
 10
16.40596177842882
 20
11.80942874484592
 30
0.0
 10
16.40596177842882
 20
11.80942874484592
 30
0.0
 10
16.4024895562066
 20
11.70331743028429
 30
0.0
 10
16.4024895562066
 20
11.70331743028429
 30
0.0
 10
16.4024895562066
 20
11.70331743028429
 30
0.0
 10
16.39679527282715
 20
11.58637407090929
 30
0.0
 10
16.39679527282715
 20
11.58637407090929
 30
0.0
 10
16.39679527282715
 20
11.58637407090929
 30
0.0
 10
16.38860066731771
 20
11.45845625135634
 30
0.0
 10
16.38860066731771
 20
11.45845625135634
 30
0.0
 10
16.38860066731771
 20
11.45845625135634
 30
0.0
 10
16.37818400065104
 20
11.31956736246745
 30
0.0
 10
16.37818400065104
 20
11.31956736246745
 30
0.0
 10
16.37818400065104
 20
11.31956736246745
 30
0.0
 10
16.35040622287326
 20
11.01067860921224
 30
0.0
 10
16.35040622287326
 20
11.01067860921224
 30
0.0
 10
16.35040622287326
 20
11.01067860921224
 30
0.0
 10
16.31346193949381
 20
10.66345638699002
 30
0.0
 10
16.31346193949381
 20
10.66345638699002
 30
0.0
 10
16.31346193949381
 20
10.66345638699002
 30
0.0
 10
16.26790618896484
 20
10.2831785413954
 30
0.0
 10
16.26790618896484
 20
10.2831785413954
 30
0.0
 10
16.26790618896484
 20
10.2831785413954
 30
0.0
 10
16.21429528130425
 20
9.879290262858072
 30
0.0
 10
16.21429528130425
 20
9.879290262858072
 30
0.0
 10
16.21429528130425
 20
9.879290262858072
 30
0.0
 10
16.15373971727159
 20
9.462623596191406
 30
0.0
 10
16.15373971727159
 20
9.462623596191406
 30
0.0
 10
16.15373971727159
 20
9.462623596191406
 30
0.0
 10
16.01568412780762
 20
8.632067362467447
 30
0.0
 10
16.01568412780762
 20
8.632067362467447
 30
0.0
 10
16.01568412780762
 20
8.632067362467447
 30
0.0
 10
15.93985070122613
 20
8.237624274359808
 30
0.0
 10
15.93985070122613
 20
8.237624274359808
 30
0.0
 10
15.93985070122613
 20
8.237624274359808
 30
0.0
 10
15.86054526435004
 20
7.866372850206163
 30
0.0
 10
15.86054526435004
 20
7.866372850206163
 30
0.0
 10
15.86054526435004
 20
7.866372850206163
 30
0.0
 10
15.77832285563151
 20
7.522068447536892
 30
0.0
 10
15.77832285563151
 20
7.522068447536892
 30
0.0
 10
15.77832285563151
 20
7.522068447536892
 30
0.0
 10
15.69332292344835
 20
7.206235249837239
 30
0.0
 10
15.69332292344835
 20
7.206235249837239
 30
0.0
 10
15.69332292344835
 20
7.206235249837239
 30
0.0
 10
15.60596190558539
 20
6.919429355197482
 30
0.0
 10
15.60596190558539
 20
6.919429355197482
 30
0.0
 10
15.60596190558539
 20
6.919429355197482
 30
0.0
 10
15.51623959011502
 20
6.661511739095052
 30
0.0
 10
15.51623959011502
 20
6.661511739095052
 30
0.0
 10
15.51623959011502
 20
6.661511739095052
 30
0.0
 10
15.51610077752007
 20
6.661511739095052
 30
0.0
 10
15.51610077752007
 20
6.661511739095052
 30
0.0
 10
15.51610077752007
 20
6.661511739095052
 30
0.0
 10
15.41512849595811
 20
6.76053958468967
 30
0.0
 10
15.41512849595811
 20
6.76053958468967
 30
0.0
 10
15.41512849595811
 20
6.76053958468967
 30
0.0
 10
15.30651749504937
 20
6.863734775119357
 30
0.0
 10
15.30651749504937
 20
6.863734775119357
 30
0.0
 10
15.30651749504937
 20
6.863734775119357
 30
0.0
 10
15.19054497612847
 20
6.971234639485677
 30
0.0
 10
15.19054497612847
 20
6.971234639485677
 30
0.0
 10
15.19054497612847
 20
6.971234639485677
 30
0.0
 10
15.06721199883355
 20
7.082345750596788
 30
0.0
 10
15.06721199883355
 20
7.082345750596788
 30
0.0
 10
15.06721199883355
 20
7.082345750596788
 30
0.0
 10
14.80012851291233
 20
7.316929287380642
 30
0.0
 10
14.80012851291233
 20
7.316929287380642
 30
0.0
 10
14.80012851291233
 20
7.316929287380642
 30
0.0
 10
14.51054509480794
 20
7.56331804063585
 30
0.0
 10
14.51054509480794
 20
7.56331804063585
 30
0.0
 10
14.51054509480794
 20
7.56331804063585
 30
0.0
 10
14.21068403455946
 20
7.812207539876302
 30
0.0
 10
14.21068403455946
 20
7.812207539876302
 30
0.0
 10
14.21068403455946
 20
7.812207539876302
 30
0.0
 10
13.91415617201063
 20
8.05428992377387
 30
0.0
 10
13.91415617201063
 20
8.05428992377387
 30
0.0
 10
13.91415617201063
 20
8.05428992377387
 30
0.0
 10
13.63262854682075
 20
8.28109656439887
 30
0.0
 10
13.63262854682075
 20
8.28109656439887
 30
0.0
 10
13.63262854682075
 20
8.28109656439887
 30
0.0
 10
13.36873965793186
 20
8.489429897732204
 30
0.0
 10
13.36873965793186
 20
8.489429897732204
 30
0.0
 10
13.36873965793186
 20
8.489429897732204
 30
0.0
 10
12.85568406846788
 20
8.878318786621094
 30
0.0
 10
12.85568406846788
 20
8.878318786621094
 30
0.0
 10
12.85568406846788
 20
8.878318786621094
 30
0.0
 10
12.58235083685981
 20
9.074984232584635
 30
0.0
 10
12.58235083685981
 20
9.074984232584635
 30
0.0
 10
12.58235083685981
 20
9.074984232584635
 30
0.0
 10
12.29985088772244
 20
9.273735046386719
 30
0.0
 10
12.29985088772244
 20
9.273735046386719
 30
0.0
 10
12.29985088772244
 20
9.273735046386719
 30
0.0
 10
12.02332305908203
 20
9.461096021864149
 30
0.0
 10
12.02332305908203
 20
9.461096021864149
 30
0.0
 10
12.02332305908203
 20
9.461096021864149
 30
0.0
 10
11.89443418714735
 20
9.546513027615017
 30
0.0
 10
11.89443418714735
 20
9.546513027615017
 30
0.0
 10
11.89443418714735
 20
9.546513027615017
 30
0.0
 10
11.77512868245443
 20
9.624429490831163
 30
0.0
 10
11.77512868245443
 20
9.624429490831163
 30
0.0
 10
11.77512868245443
 20
9.624429490831163
 30
0.0
 10
11.6672117445204
 20
9.693873935275606
 30
0.0
 10
11.6672117445204
 20
9.693873935275606
 30
0.0
 10
11.6672117445204
 20
9.693873935275606
 30
0.0
 10
11.571656121148
 20
9.753456115722656
 30
0.0
 10
11.571656121148
 20
9.753456115722656
 30
0.0
 10
11.571656121148
 20
9.753456115722656
 30
0.0
 10
11.48901706271701
 20
9.803318447536892
 30
0.0
 10
11.48901706271701
 20
9.803318447536892
 30
0.0
 10
11.48901706271701
 20
9.803318447536892
 30
0.0
 10
11.41957261827257
 20
9.843318515353731
 30
0.0
 10
11.41957261827257
 20
9.843318515353731
 30
0.0
 10
11.41957261827257
 20
9.843318515353731
 30
0.0
 10
11.41887834337023
 20
9.843040466308594
 30
0.0
 10
11.41887834337023
 20
9.843040466308594
 30
0.0
 10
11.41887834337023
 20
9.843040466308594
 30
0.0
 10
11.40998925103082
 20
9.744429694281683
 30
0.0
 10
11.40998925103082
 20
9.744429694281683
 30
0.0
 10
11.40998925103082
 20
9.744429694281683
 30
0.0
 10
11.39818403455946
 20
9.641651577419704
 30
0.0
 10
11.39818403455946
 20
9.641651577419704
 30
0.0
 10
11.39818403455946
 20
9.641651577419704
 30
0.0
 10
11.38346184624566
 20
9.534706115722656
 30
0.0
 10
11.38346184624566
 20
9.534706115722656
 30
0.0
 10
11.38346184624566
 20
9.534706115722656
 30
0.0
 10
11.36568366156684
 20
9.423595004611544
 30
0.0
 10
11.36568366156684
 20
9.423595004611544
 30
0.0
 10
11.36568366156684
 20
9.423595004611544
 30
0.0
 10
11.34485032823351
 20
9.30831824408637
 30
0.0
 10
11.34485032823351
 20
9.30831824408637
 30
0.0
 10
11.34485032823351
 20
9.30831824408637
 30
0.0
 10
11.32110087076823
 20
9.189428541395399
 30
0.0
 10
11.32110087076823
 20
9.189428541395399
 30
0.0
 10
11.32110087076823
 20
9.189428541395399
 30
0.0
 10
11.26554531521267
 20
8.942207336425781
 30
0.0
 10
11.26554531521267
 20
8.942207336425781
 30
0.0
 10
11.26554531521267
 20
8.942207336425781
 30
0.0
 10
11.20096164279514
 20
8.68734656439887
 30
0.0
 10
11.20096164279514
 20
8.68734656439887
 30
0.0
 10
11.20096164279514
 20
8.68734656439887
 30
0.0
 10
11.12943437364366
 20
8.429846021864149
 30
0.0
 10
11.12943437364366
 20
8.429846021864149
 30
0.0
 10
11.12943437364366
 20
8.429846021864149
 30
0.0
 10
11.05221218532986
 20
8.172623528374565
 30
0.0
 10
11.05221218532986
 20
8.172623528374565
 30
0.0
 10
11.05221218532986
 20
8.172623528374565
 30
0.0
 10
10.97068447536892
 20
7.91595713297526
 30
0.0
 10
10.97068447536892
 20
7.91595713297526
 30
0.0
 10
10.97068447536892
 20
7.91595713297526
 30
0.0
 10
10.97110070122613
 20
7.91595713297526
 30
0.0
 10
10.97110070122613
 20
7.91595713297526
 30
0.0
 10
10.97110070122613
 20
7.91595713297526
 30
0.0
 10
10.74887847900391
 20
8.128179762098524
 30
0.0
 10
10.74887847900391
 20
8.128179762098524
 30
0.0
 10
10.74887847900391
 20
8.128179762098524
 30
0.0
 10
10.51623959011502
 20
8.343179490831163
 30
0.0
 10
10.51623959011502
 20
8.343179490831163
 30
0.0
 10
10.51623959011502
 20
8.343179490831163
 30
0.0
 10
10.27207268608941
 20
8.559011671278212
 30
0.0
 10
10.27207268608941
 20
8.559011671278212
 30
0.0
 10
10.27207268608941
 20
8.559011671278212
 30
0.0
 10
10.01693386501736
 20
8.776373121473524
 30
0.0
 10
10.01693386501736
 20
8.776373121473524
 30
0.0
 10
10.01693386501736
 20
8.776373121473524
 30
0.0
 10
9.751239352756075
 20
8.994707743326822
 30
0.0
 10
9.751239352756075
 20
8.994707743326822
 30
0.0
 10
9.751239352756075
 20
8.994707743326822
 30
0.0
 10
9.476239522298176
 20
9.213040669759113
 30
0.0
 10
9.476239522298176
 20
9.213040669759113
 30
0.0
 10
9.476239522298176
 20
9.213040669759113
 30
0.0
 10
8.908600701226128
 20
9.643596225314669
 30
0.0
 10
8.908600701226128
 20
9.643596225314669
 30
0.0
 10
8.908600701226128
 20
9.643596225314669
 30
0.0
 10
8.622628106011284
 20
9.850956386990017
 30
0.0
 10
8.622628106011284
 20
9.850956386990017
 30
0.0
 10
8.622628106011284
 20
9.850956386990017
 30
0.0
 10
8.340267605251736
 20
10.04998524983724
 30
0.0
 10
8.340267605251736
 20
10.04998524983724
 30
0.0
 10
8.340267605251736
 20
10.04998524983724
 30
0.0
 10
8.064850701226128
 20
10.23859575059679
 30
0.0
 10
8.064850701226128
 20
10.23859575059679
 30
0.0
 10
8.064850701226128
 20
10.23859575059679
 30
0.0
 10
7.799434238009982
 20
10.41401248508029
 30
0.0
 10
7.799434238009982
 20
10.41401248508029
 30
0.0
 10
7.799434238009982
 20
10.41401248508029
 30
0.0
 10
7.545544942220052
 20
10.57762400309245
 30
0.0
 10
7.545544942220052
 20
10.57762400309245
 30
0.0
 10
7.545544942220052
 20
10.57762400309245
 30
0.0
 10
7.304295010036892
 20
10.72776201036241
 30
0.0
 10
7.304295010036892
 20
10.72776201036241
 30
0.0
 10
7.304295010036892
 20
10.72776201036241
 30
0.0
 10
7.075822618272569
 20
10.86456722683377
 30
0.0
 10
7.075822618272569
 20
10.86456722683377
 30
0.0
 10
7.075822618272569
 20
10.86456722683377
 30
0.0
 10
6.860128614637587
 20
10.98817867702908
 30
0.0
 10
6.860128614637587
 20
10.98817867702908
 30
0.0
 10
6.860128614637587
 20
10.98817867702908
 30
0.0
 10
6.860406663682725
 20
10.98845672607422
 30
0.0
 10
6.860406663682725
 20
10.98845672607422
 30
0.0
 10
6.860406663682725
 20
10.98845672607422
 30
0.0
 10
6.777906629774305
 20
10.56901295979818
 30
0.0
 10
6.777906629774305
 20
10.56901295979818
 30
0.0
 10
6.777906629774305
 20
10.56901295979818
 30
0.0
 10
6.777628580729166
 20
10.56873491075304
 30
0.0
 10
6.777628580729166
 20
10.56873491075304
 30
0.0
 10
6.777628580729166
 20
10.56873491075304
 30
0.0
 10
6.646378411187065
 20
9.901095072428385
 30
0.0
 10
6.646378411187065
 20
9.901095072428385
 30
0.0
 10
6.646378411187065
 20
9.901095072428385
 30
0.0
 10
6.646378411187065
 20
9.901095072428385
 30
0.0
 10
6.646378411187065
 20
9.901095072428385
 30
0.0
 10
6.646378411187065
 20
9.901095072428385
 30
0.0
 10
6.521378411187065
 20
9.446790059407551
 30
0.0
 10
6.521378411187065
 20
9.446790059407551
 30
0.0
 10
6.521378411187065
 20
9.446790059407551
 30
0.0
 10
6.521378411187065
 20
9.446790059407551
 30
0.0
 10
6.521378411187065
 20
9.446790059407551
 30
0.0
 10
6.521378411187065
 20
9.446790059407551
 30
0.0
 10
6.228323194715712
 20
9.734567430284288
 30
0.0
 10
6.228323194715712
 20
9.734567430284288
 30
0.0
 10
6.228323194715712
 20
9.734567430284288
 30
0.0
 10
5.899434407552083
 20
10.02540164523654
 30
0.0
 10
5.899434407552083
 20
10.02540164523654
 30
0.0
 10
5.899434407552083
 20
10.02540164523654
 30
0.0
 10
5.536100599500868
 20
10.31901295979818
 30
0.0
 10
5.536100599500868
 20
10.31901295979818
 30
0.0
 10
5.536100599500868
 20
10.31901295979818
 30
0.0
 10
5.139017740885416
 20
10.61387379964193
 30
0.0
 10
5.139017740885416
 20
10.61387379964193
 30
0.0
 10
5.139017740885416
 20
10.61387379964193
 30
0.0
 10
4.712072584364149
 20
10.90665096706814
 30
0.0
 10
4.712072584364149
 20
10.90665096706814
 30
0.0
 10
4.712072584364149
 20
10.90665096706814
 30
0.0
 10
4.262212117513021
 20
11.19290076361762
 30
0.0
 10
4.262212117513021
 20
11.19290076361762
 30
0.0
 10
4.262212117513021
 20
11.19290076361762
 30
0.0
 10
3.797905815972222
 20
11.46679094102648
 30
0.0
 10
3.797905815972222
 20
11.46679094102648
 30
0.0
 10
3.797905815972222
 20
11.46679094102648
 30
0.0
 10
3.329989963107639
 20
11.72248416476779
 30
0.0
 10
3.329989963107639
 20
11.72248416476779
 30
0.0
 10
3.329989963107639
 20
11.72248416476779
 30
0.0
 10
2.864990234375
 20
11.95540110270182
 30
0.0
 10
2.864990234375
 20
11.95540110270182
 30
0.0
 10
2.864990234375
 20
11.95540110270182
 30
0.0
 10
2.41054450141059
 20
12.16262393527561
 30
0.0
 10
2.41054450141059
 20
12.16262393527561
 30
0.0
 10
2.41054450141059
 20
12.16262393527561
 30
0.0
 10
1.97221204969618
 20
12.34415096706814
 30
0.0
 10
1.97221204969618
 20
12.34415096706814
 30
0.0
 10
1.97221204969618
 20
12.34415096706814
 30
0.0
 10
1.552212185329861
 20
12.50123511420356
 30
0.0
 10
1.552212185329861
 20
12.50123511420356
 30
0.0
 10
1.552212185329861
 20
12.50123511420356
 30
0.0
 10
1.152350531684028
 20
12.6349851820204
 30
0.0
 10
1.152350531684028
 20
12.6349851820204
 30
0.0
 10
1.152350531684028
 20
12.6349851820204
 30
0.0
 10
0.7727678087022569
 20
12.7474848429362
 30
0.0
 10
0.7727678087022569
 20
12.7474848429362
 30
0.0
 10
0.7727678087022569
 20
12.7474848429362
 30
0.0
 10
0.4134623209635416
 20
12.83970726860894
 30
0.0
 10
0.4134623209635416
 20
12.83970726860894
 30
0.0
 10
0.4134623209635416
 20
12.83970726860894
 30
0.0
 10
0.0744340684678819
 20
12.91262393527561
 30
0.0
 10
0.0744340684678819
 20
12.91262393527561
 30
0.0
 10
0.0744340684678819
 20
12.91262393527561
 30
0.0
 10
0.0745730929904514
 20
12.91262393527561
 30
0.0
 10
0.0745730929904514
 20
12.91262393527561
 30
0.0
 10
0.0745730929904514
 20
12.91262393527561
 30
0.0
 10
0.4136013454861111
 20
12.98554060194227
 30
0.0
 10
0.4136013454861111
 20
12.98554060194227
 30
0.0
 10
0.4136013454861111
 20
12.98554060194227
 30
0.0
 10
0.7729068332248263
 20
13.07776302761502
 30
0.0
 10
0.7729068332248263
 20
13.07776302761502
 30
0.0
 10
0.7729068332248263
 20
13.07776302761502
 30
0.0
 10
1.152489556206597
 20
13.19026268853082
 30
0.0
 10
1.152489556206597
 20
13.19026268853082
 30
0.0
 10
1.152489556206597
 20
13.19026268853082
 30
0.0
 10
1.552351209852431
 20
13.32401275634766
 30
0.0
 10
1.552351209852431
 20
13.32401275634766
 30
0.0
 10
1.552351209852431
 20
13.32401275634766
 30
0.0
 10
1.97221204969618
 20
13.48081885443793
 30
0.0
 10
1.97221204969618
 20
13.48081885443793
 30
0.0
 10
1.97221204969618
 20
13.48081885443793
 30
0.0
 10
2.41054450141059
 20
13.66262393527561
 30
0.0
 10
2.41054450141059
 20
13.66262393527561
 30
0.0
 10
2.41054450141059
 20
13.66262393527561
 30
0.0
 10
2.864573160807292
 20
13.87012312147352
 30
0.0
 10
2.864573160807292
 20
13.87012312147352
 30
0.0
 10
2.864573160807292
 20
13.87012312147352
 30
0.0
 10
3.329989963107639
 20
14.10276201036241
 30
0.0
 10
3.329989963107639
 20
14.10276201036241
 30
0.0
 10
3.329989963107639
 20
14.10276201036241
 30
0.0
 10
3.799018012152778
 20
14.35845692952474
 30
0.0
 10
3.799018012152778
 20
14.35845692952474
 30
0.0
 10
3.799018012152778
 20
14.35845692952474
 30
0.0
 10
4.26332261827257
 20
14.63234541151259
 30
0.0
 10
4.26332261827257
 20
14.63234541151259
 30
0.0
 10
4.26332261827257
 20
14.63234541151259
 30
0.0
 10
4.713183932834201
 20
14.91859520806207
 30
0.0
 10
4.713183932834201
 20
14.91859520806207
 30
0.0
 10
4.713183932834201
 20
14.91859520806207
 30
0.0
 10
5.140128241644965
 20
15.21137407090929
 30
0.0
 10
5.140128241644965
 20
15.21137407090929
 30
0.0
 10
5.140128241644965
 20
15.21137407090929
 30
0.0
 10
5.53721194797092
 20
15.50623491075304
 30
0.0
 10
5.53721194797092
 20
15.50623491075304
 30
0.0
 10
5.53721194797092
 20
15.50623491075304
 30
0.0
 10
5.899434407552083
 20
15.79984622531467
 30
0.0
 10
5.899434407552083
 20
15.79984622531467
 30
0.0
 10
5.899434407552083
 20
15.79984622531467
 30
0.0
 10
6.227767096625434
 20
16.09067874484592
 30
0.0
 10
6.227767096625434
 20
16.09067874484592
 30
0.0
 10
6.227767096625434
 20
16.09067874484592
 30
0.0
 10
6.520823160807291
 20
16.37845611572266
 30
0.0
 10
6.520823160807291
 20
16.37845611572266
 30
0.0
 10
6.520823160807291
 20
16.37845611572266
 30
0.0
 10
6.521378411187065
 20
16.37845611572266
 30
0.0
 10
6.521378411187065
 20
16.37845611572266
 30
0.0
 10
6.521378411187065
 20
16.37845611572266
 30
0.0
 10
6.646378411187065
 20
15.92415110270182
 30
0.0
 10
6.646378411187065
 20
15.92415110270182
 30
0.0
 10
6.646378411187065
 20
15.92415110270182
 30
0.0
 10
6.646239386664496
 20
15.92415110270182
 30
0.0
 10
6.646239386664496
 20
15.92415110270182
 30
0.0
 10
6.646239386664496
 20
15.92415110270182
 30
0.0
 10
6.777489556206596
 20
15.25651295979818
 30
0.0
 10
6.777489556206596
 20
15.25651295979818
 30
0.0
 10
6.777489556206596
 20
15.25651295979818
 30
0.0
 10
6.777906629774305
 20
15.25679100884332
 30
0.0
 10
6.777906629774305
 20
15.25679100884332
 30
0.0
 10
6.777906629774305
 20
15.25679100884332
 30
0.0
 10
6.860406663682725
 20
14.83734554714627
 30
0.0
 10
6.860406663682725
 20
14.83734554714627
 30
0.0
 10
6.860406663682725
 20
14.83734554714627
 30
0.0
 10
6.860406663682725
 20
14.83734554714627
 30
0.0
 10
6.860406663682725
 20
14.83734554714627
 30
0.0
 10
6.860406663682725
 20
14.83734554714627
 30
0.0
 10
7.076100667317708
 20
14.96095699734158
 30
0.0
 10
7.076100667317708
 20
14.96095699734158
 30
0.0
 10
7.076100667317708
 20
14.96095699734158
 30
0.0
 10
7.304573059082031
 20
15.09776221381293
 30
0.0
 10
7.304573059082031
 20
15.09776221381293
 30
0.0
 10
7.304573059082031
 20
15.09776221381293
 30
0.0
 10
7.54582299126519
 20
15.24790191650391
 30
0.0
 10
7.54582299126519
 20
15.24790191650391
 30
0.0
 10
7.54582299126519
 20
15.24790191650391
 30
0.0
 10
7.799434238009982
 20
15.41123538547092
 30
0.0
 10
7.799434238009982
 20
15.41123538547092
 30
0.0
 10
7.799434238009982
 20
15.41123538547092
 30
0.0
 10
8.064850701226128
 20
15.58776262071397
 30
0.0
 10
8.064850701226128
 20
15.58776262071397
 30
0.0
 10
8.064850701226128
 20
15.58776262071397
 30
0.0
 10
8.340267605251736
 20
15.77637312147352
 30
0.0
 10
8.340267605251736
 20
15.77637312147352
 30
0.0
 10
8.340267605251736
 20
15.77637312147352
 30
0.0
 10
8.622628106011284
 20
15.97540198432075
 30
0.0
 10
8.622628106011284
 20
15.97540198432075
 30
0.0
 10
8.622628106011284
 20
15.97540198432075
 30
0.0
 10
8.908600701226128
 20
16.18276214599609
 30
0.0
 10
8.908600701226128
 20
16.18276214599609
 30
0.0
 10
8.908600701226128
 20
16.18276214599609
 30
0.0
 10
9.476239522298176
 20
16.61331770155165
 30
0.0
 10
9.476239522298176
 20
16.61331770155165
 30
0.0
 10
9.476239522298176
 20
16.61331770155165
 30
0.0
 10
9.751239352756075
 20
16.83165062798394
 30
0.0
 10
9.751239352756075
 20
16.83165062798394
 30
0.0
 10
9.751239352756075
 20
16.83165062798394
 30
0.0
 10
10.01693386501736
 20
17.04998524983724
 30
0.0
 10
10.01693386501736
 20
17.04998524983724
 30
0.0
 10
10.01693386501736
 20
17.04998524983724
 30
0.0
 10
10.27207268608941
 20
17.26734500461155
 30
0.0
 10
10.27207268608941
 20
17.26734500461155
 30
0.0
 10
10.27207268608941
 20
17.26734500461155
 30
0.0
 10
10.51623959011502
 20
17.48206837972005
 30
0.0
 10
10.51623959011502
 20
17.48206837972005
 30
0.0
 10
10.51623959011502
 20
17.48206837972005
 30
0.0
 10
10.74915652804904
 20
17.69609663221571
 30
0.0
 10
10.74915652804904
 20
17.69609663221571
 30
0.0
 10
10.74915652804904
 20
17.69609663221571
 30
0.0
 10
10.97137875027127
 20
17.90831756591797
 30
0.0
 10
10.97137875027127
 20
17.90831756591797
 30
0.0
 10
10.97137875027127
 20
17.90831756591797
 30
0.0
 10
10.97040642632378
 20
17.90873463948568
 30
0.0
 10
10.97040642632378
 20
17.90873463948568
 30
0.0
 10
10.97040642632378
 20
17.90873463948568
 30
0.0
 10
11.05221218532986
 20
17.65262434217665
 30
0.0
 10
11.05221218532986
 20
17.65262434217665
 30
0.0
 10
11.05221218532986
 20
17.65262434217665
 30
0.0
 10
11.12985059950087
 20
17.3952628241645
 30
0.0
 10
11.12985059950087
 20
17.3952628241645
 30
0.0
 10
11.12985059950087
 20
17.3952628241645
 30
0.0
 10
11.20137871636285
 20
17.13776228162977
 30
0.0
 10
11.20137871636285
 20
17.13776228162977
 30
0.0
 10
11.20137871636285
 20
17.13776228162977
 30
0.0
 10
11.26596154106988
 20
16.88290150960286
 30
0.0
 10
11.26596154106988
 20
16.88290150960286
 30
0.0
 10
11.26596154106988
 20
16.88290150960286
 30
0.0
 10
11.32151709662543
 20
16.63567860921224
 30
0.0
 10
11.32151709662543
 20
16.63567860921224
 30
0.0
 10
11.32151709662543
 20
16.63567860921224
 30
0.0
 10
11.34526740180121
 20
16.51679060194227
 30
0.0
 10
11.34526740180121
 20
16.51679060194227
 30
0.0
 10
11.34526740180121
 20
16.51679060194227
 30
0.0
 10
11.36610073513455
 20
16.40151214599609
 30
0.0
 10
11.36610073513455
 20
16.40151214599609
 30
0.0
 10
11.36610073513455
 20
16.40151214599609
 30
0.0
 10
11.38387891981337
 20
16.29040103488498
 30
0.0
 10
11.38387891981337
 20
16.29040103488498
 30
0.0
 10
11.38387891981337
 20
16.29040103488498
 30
0.0
 10
11.39860110812717
 20
16.18345726860894
 30
0.0
 10
11.39860110812717
 20
16.18345726860894
 30
0.0
 10
11.39860110812717
 20
16.18345726860894
 30
0.0
 10
11.41040632459852
 20
16.08067915174696
 30
0.0
 10
11.41040632459852
 20
16.08067915174696
 30
0.0
 10
11.41040632459852
 20
16.08067915174696
 30
0.0
 10
11.41929541693793
 20
15.98206837972005
 30
0.0
 10
11.41929541693793
 20
15.98206837972005
 30
0.0
 10
11.41929541693793
 20
15.98206837972005
 30
0.0
 10
11.41929541693793
 20
15.98206837972005
 30
0.0
 10
11.41929541693793
 20
15.98206837972005
 30
0.0
 10
11.41929541693793
 20
15.98206837972005
 30
0.0
 10
11.48873986138238
 20
16.02206844753689
 30
0.0
 10
11.48873986138238
 20
16.02206844753689
 30
0.0
 10
11.48873986138238
 20
16.02206844753689
 30
0.0
 10
11.57137891981337
 20
16.07192908393012
 30
0.0
 10
11.57137891981337
 20
16.07192908393012
 30
0.0
 10
11.57137891981337
 20
16.07192908393012
 30
0.0
 10
11.66693369547526
 20
16.13151295979818
 30
0.0
 10
11.66693369547526
 20
16.13151295979818
 30
0.0
 10
11.66693369547526
 20
16.13151295979818
 30
0.0
 10
11.77485063340929
 20
16.20095740424262
 30
0.0
 10
11.77485063340929
 20
16.20095740424262
 30
0.0
 10
11.77485063340929
 20
16.20095740424262
 30
0.0
 10
11.89415613810221
 20
16.27887386745877
 30
0.0
 10
11.89415613810221
 20
16.27887386745877
 30
0.0
 10
11.89415613810221
 20
16.27887386745877
 30
0.0
 10
12.02304501003689
 20
16.36429087320963
 30
0.0
 10
12.02304501003689
 20
16.36429087320963
 30
0.0
 10
12.02304501003689
 20
16.36429087320963
 30
0.0
 10
12.29985088772244
 20
16.5515128241645
 30
0.0
 10
12.29985088772244
 20
16.5515128241645
 30
0.0
 10
12.29985088772244
 20
16.5515128241645
 30
0.0
 10
12.58346176147461
 20
16.74929046630859
 30
0.0
 10
12.58346176147461
 20
16.74929046630859
 30
0.0
 10
12.58346176147461
 20
16.74929046630859
 30
0.0
 10
12.85679499308268
 20
16.94595760769314
 30
0.0
 10
12.85679499308268
 20
16.94595760769314
 30
0.0
 10
12.85679499308268
 20
16.94595760769314
 30
0.0
 10
13.36985058254666
 20
17.33484649658203
 30
0.0
 10
13.36985058254666
 20
17.33484649658203
 30
0.0
 10
13.36985058254666
 20
17.33484649658203
 30
0.0
 10
13.63373947143555
 20
17.54317982991536
 30
0.0
 10
13.63373947143555
 20
17.54317982991536
 30
0.0
 10
13.63373947143555
 20
17.54317982991536
 30
0.0
 10
13.91526752048068
 20
17.76998477511936
 30
0.0
 10
13.91526752048068
 20
17.76998477511936
 30
0.0
 10
13.91526752048068
 20
17.76998477511936
 30
0.0
 10
14.21179538302951
 20
18.01206885443793
 30
0.0
 10
14.21179538302951
 20
18.01206885443793
 30
0.0
 10
14.21179538302951
 20
18.01206885443793
 30
0.0
 10
14.51054509480794
 20
18.26192982991536
 30
0.0
 10
14.51054509480794
 20
18.26192982991536
 30
0.0
 10
14.51054509480794
 20
18.26192982991536
 30
0.0
 10
14.79971186319987
 20
18.5077624850803
 30
0.0
 10
14.79971186319987
 20
18.5077624850803
 30
0.0
 10
14.79971186319987
 20
18.5077624850803
 30
0.0
 10
15.06679534912109
 20
18.74234602186415
 30
0.0
 10
15.06679534912109
 20
18.74234602186415
 30
0.0
 10
15.06679534912109
 20
18.74234602186415
 30
0.0
 10
15.19012832641602
 20
18.85345713297526
 30
0.0
 10
15.19012832641602
 20
18.85345713297526
 30
0.0
 10
15.19012832641602
 20
18.85345713297526
 30
0.0
 10
15.30610063340929
 20
18.96095699734158
 30
0.0
 10
15.30610063340929
 20
18.96095699734158
 30
0.0
 10
15.30610063340929
 20
18.96095699734158
 30
0.0
 10
15.41471184624566
 20
19.06415218777127
 30
0.0
 10
15.41471184624566
 20
19.06415218777127
 30
0.0
 10
15.41471184624566
 20
19.06415218777127
 30
0.0
 10
15.51568412780762
 20
19.16317833794488
 30
0.0
 10
15.51568412780762
 20
19.16317833794488
 30
0.0
 10
15.51568412780762
 20
19.16317833794488
 30
0.0
 10
15.51651742723253
 20
19.16317833794488
 30
0.0
 10
15.51651742723253
 20
19.16317833794488
 30
0.0
 10
15.51651742723253
 20
19.16317833794488
 30
0.0
 10
15.60623953077528
 20
18.90526241726345
 30
0.0
 10
15.60623953077528
 20
18.90526241726345
 30
0.0
 10
15.60623953077528
 20
18.90526241726345
 30
0.0
 10
15.69360076056586
 20
18.6184565226237
 30
0.0
 10
15.69360076056586
 20
18.6184565226237
 30
0.0
 10
15.69360076056586
 20
18.6184565226237
 30
0.0
 10
15.77860069274902
 20
18.30262332492405
 30
0.0
 10
15.77860069274902
 20
18.30262332492405
 30
0.0
 10
15.77860069274902
 20
18.30262332492405
 30
0.0
 10
15.86082288953993
 20
17.95831722683377
 30
0.0
 10
15.86082288953993
 20
17.95831722683377
 30
0.0
 10
15.86082288953993
 20
17.95831722683377
 30
0.0
 10
15.94012853834364
 20
17.58706749810113
 30
0.0
 10
15.94012853834364
 20
17.58706749810113
 30
0.0
 10
15.94012853834364
 20
17.58706749810113
 30
0.0
 10
16.01596175299751
 20
17.19262440999349
 30
0.0
 10
16.01596175299751
 20
17.19262440999349
 30
0.0
 10
16.01596175299751
 20
17.19262440999349
 30
0.0
 10
16.15401734246148
 20
16.36206817626953
 30
0.0
 10
16.15401734246148
 20
16.36206817626953
 30
0.0
 10
16.15401734246148
 20
16.36206817626953
 30
0.0
 10
16.21457290649414
 20
15.94540150960286
 30
0.0
 10
16.21457290649414
 20
15.94540150960286
 30
0.0
 10
16.21457290649414
 20
15.94540150960286
 30
0.0
 10
16.26818402608236
 20
15.54151323106554
 30
0.0
 10
16.26818402608236
 20
15.54151323106554
 30
0.0
 10
16.26818402608236
 20
15.54151323106554
 30
0.0
 10
16.3137395646837
 20
15.16123538547092
 30
0.0
 10
16.3137395646837
 20
15.16123538547092
 30
0.0
 10
16.3137395646837
 20
15.16123538547092
 30
0.0
 10
16.35068405999078
 20
14.8140131632487
 30
0.0
 10
16.35068405999078
 20
14.8140131632487
 30
0.0
 10
16.35068405999078
 20
14.8140131632487
 30
0.0
 10
16.37846183776855
 20
14.50512440999349
 30
0.0
 10
16.37846183776855
 20
14.50512440999349
 30
0.0
 10
16.37846183776855
 20
14.50512440999349
 30
0.0
 10
16.38887850443522
 20
14.3662355211046
 30
0.0
 10
16.38887850443522
 20
14.3662355211046
 30
0.0
 10
16.38887850443522
 20
14.3662355211046
 30
0.0
 10
16.39707289801704
 20
14.23831770155165
 30
0.0
 10
16.39707289801704
 20
14.23831770155165
 30
0.0
 10
16.39707289801704
 20
14.23831770155165
 30
0.0
 10
16.40276739332411
 20
14.12137434217665
 30
0.0
 10
16.40276739332411
 20
14.12137434217665
 30
0.0
 10
16.40276739332411
 20
14.12137434217665
 30
0.0
 10
16.40623961554633
 20
14.01526302761502
 30
0.0
 10
16.40623961554633
 20
14.01526302761502
 30
0.0
 10
16.40623961554633
 20
14.01526302761502
 30
0.0
 10
16.4074895646837
 20
13.91998545328776
 30
0.0
 10
16.4074895646837
 20
13.91998545328776
 30
0.0
 10
16.4074895646837
 20
13.91998545328776
 30
0.0
 10
16.40637842814127
 20
13.83553992377387
 30
0.0
 10
16.40637842814127
 20
13.83553992377387
 30
0.0
 10
16.40637842814127
 20
13.83553992377387
 30
0.0
 10
16.40637842814127
 20
13.83553992377387
 30
0.0
 10
16.40637842814127
 20
13.83553992377387
 30
0.0
 10
16.40637842814127
 20
13.83553992377387
 30
0.0
 10
17.89943408966064
 20
13.83553992377387
 30
0.0
 10
17.89943408966064
 20
13.83553992377387
 30
0.0
 10
17.89943408966064
 20
13.83553992377387
 30
0.0
 10
17.89943408966064
 20
13.83553992377387
 30
0.0
 10
17.89943408966064
 20
13.83553992377387
 30
0.0
 10
17.98641861809624
 20
13.83577219645182
 30
0.0
 10
18.05712143580119
 20
13.76544443766276
 30
0.0
 10
18.05735317866007
 20
13.67846086290147
 30
0.0
 10
18.05735445022583
 20
13.67799631754557
 30
0.0
 10
18.05735360251532
 20
13.67753177218967
 30
0.0
 10
18.05735074149237
 20
13.67706722683377
 30
0.0
 10
18.05735074149237
 20
13.67706722683377
 30
0.0
 10
18.05693409177992
 20
13.67804039849175
 30
0.0
 10
18.05693409177992
 20
13.67804039849175
 30
0.0
 10
18.05693409177992
 20
13.67804039849175
 30
0.0
 10
18.05693409177992
 20
13.01304033067491
 30
0.0
 10
18.05693409177992
 20
13.01304033067491
 30
0.0
 10
18.05693409177992
 20
13.01304033067491
 30
0.0
 10
18.05762852562798
 20
13.01304033067491
 30
0.0
 10
18.05762852562798
 20
13.01304033067491
 30
0.0
 10
18.05762852562798
 20
13.01304033067491
 30
0.0
 10
9.06610107421875
 20
13.01304033067491
 30
0.0
 10
9.06610107421875
 20
13.01304033067491
 30
0.0
 10
9.06610107421875
 20
13.01304033067491
 30
0.0
 10
9.06610107421875
 20
13.01304033067491
 30
0.0
 10
9.06610107421875
 20
13.01304033067491
 30
0.0
 10
9.06610107421875
 20
13.01304033067491
 30
0.0
 10
9.06610107421875
 20
12.91262393527561
 30
0.0
 10
9.06610107421875
 20
12.91262393527561
 30
0.0
 10
9.06610107421875
 20
12.91262393527561
 30
0.0
 10
9.06610107421875
 20
12.91262393527561
 30
0.0
 10
9.06610107421875
 20
12.91262393527561
 30
0.0
 10
9.06610107421875
 20
12.91262393527561
 30
0.0
 10
9.06610107421875
 20
12.8122075398763
 30
0.0
 10
9.06610107421875
 20
12.8122075398763
 30
0.0
 10
9.06610107421875
 20
12.8122075398763
 30
0.0
 10
9.06610107421875
 20
12.8122075398763
 30
0.0
 10
9.06610107421875
 20
12.8122075398763
 30
0.0
 10
9.06610107421875
 20
12.8122075398763
 30
0.0
 10
18.05762852562798
 20
12.8122075398763
 30
0.0
 10
18.05762852562798
 20
12.8122075398763
 30
0.0
 10
18.05762852562798
 20
12.8122075398763
 30
0.0
 10
18.05693409177992
 20
12.8122075398763
 30
0.0
 10
18.05693409177992
 20
12.8122075398763
 30
0.0
  0
ENDBLK
  5
49
330
46
100
AcDbEntity
  8
0
100
AcDbBlockEnd
  0
BLOCK
  5
4D
330
4B
100
AcDbEntity
  8
0
100
AcDbBlockBegin
  2
block 4
 70
     0
 10
0.0
 20
0.0
 30
0.0
  3
block 4
  1

  0
SPLINE
  5
4F
330
4B
100
AcDbEntity
  8
Layer 1
 62
     1
420
 16716306
370
    35
100
AcDbSpline
210
0.0
220
0.0
230
1.0
 70
    11
 71
     3
 72
    17
 73
    13
 74
     0
 42
0.0000000001
 43
0.0000000001
 12
1.0
 22
0.0
 32
0.0
 13
1.0
 23
0.0
 33
0.0
 40
0.0
 40
0.0
 40
0.0
 40
0.0
 40
1.0
 40
1.0
 40
1.0
 40
2.0
 40
2.0
 40
2.0
 40
3.0
 40
3.0
 40
3.0
 40
4.0
 40
4.0
 40
4.0
 40
4.0
 10
20.38657760620117
 20
21.10251034630669
 30
0.0
 10
22.59574445088704
 20
21.10251034630669
 30
0.0
 10
24.38657769105501
 20
19.31167708502875
 30
0.0
 10
24.38657769105501
 20
17.10251024034288
 30
0.0
 10
24.38657769105501
 20
14.89334318372938
 30
0.0
 10
22.59574445088704
 20
13.10251066419813
 30
0.0
 10
20.38657760620117
 20
13.10251066419813
 30
0.0
 10
18.17741054958767
 20
13.10251066419813
 30
0.0
 10
16.38657803005642
 20
14.89334403143989
 30
0.0
 10
16.38657803005642
 20
17.10251024034288
 30
0.0
 10
16.38657803005642
 20
19.31167644924588
 30
0.0
 10
18.17741097344292
 20
21.10251034630669
 30
0.0
 10
20.38657760620117
 20
21.10251034630669
 30
0.0
  0
POLYLINE
  5
50
330
4B
100
AcDbEntity
  8
Layer 1
 62
     1
420
 16716306
370
    35
100
AcDb2dPolyline
 66
     1
 10
0.0
 20
0.0
 30
0.0
  0
VERTEX
  5
51
330
50
100
AcDbEntity
  8
Layer 1
 62
     1
420
 16716306
370
    35
100
AcDbVertex
100
AcDb2dVertex
 10
19.46366119384766
 20
17.00403806898329
 30
0.0
  0
VERTEX
  5
52
330
50
100
AcDbEntity
  8
Layer 1
 62
     1
420
 16716306
370
    35
100
AcDbVertex
100
AcDb2dVertex
 10
19.46366119384766
 20
17.10251024034288
 30
0.0
  0
VERTEX
  5
53
330
50
100
AcDbEntity
  8
Layer 1
 62
     1
420
 16716306
370
    35
100
AcDbVertex
100
AcDb2dVertex
 10
19.46366119384766
 20
17.20278803507487
 30
0.0
  0
VERTEX
  5
54
330
50
100
AcDbEntity
  8
Layer 1
 62
     1
420
 16716306
370
    35
100
AcDbVertex
100
AcDb2dVertex
 10
20.28810543484158
 20
17.20278803507487
 30
0.0
  0
VERTEX
  5
55
330
50
100
AcDbEntity
  8
Layer 1
 62
     1
420
 16716306
370
    35
100
AcDbVertex
100
AcDb2dVertex
 10
20.28810543484158
 20
18.02528805202908
 30
0.0
  0
VERTEX
  5
56
330
50
100
AcDbEntity
  8
Layer 1
 62
     1
420
 16716306
370
    35
100
AcDbVertex
100
AcDb2dVertex
 10
20.38657760620117
 20
18.02528805202908
 30
0.0
  0
VERTEX
  5
57
330
50
100
AcDbEntity
  8
Layer 1
 62
     1
420
 16716306
370
    35
100
AcDbVertex
100
AcDb2dVertex
 10
20.48491117689344
 20
18.02528805202908
 30
0.0
  0
VERTEX
  5
58
330
50
100
AcDbEntity
  8
Layer 1
 62
     1
420
 16716306
370
    35
100
AcDbVertex
100
AcDb2dVertex
 10
20.48491117689344
 20
17.20278803507487
 30
0.0
  0
VERTEX
  5
59
330
50
100
AcDbEntity
  8
Layer 1
 62
     1
420
 16716306
370
    35
100
AcDbVertex
100
AcDb2dVertex
 10
21.30935541788737
 20
17.20278803507487
 30
0.0
  0
VERTEX
  5
5A
330
50
100
AcDbEntity
  8
Layer 1
 62
     1
420
 16716306
370
    35
100
AcDbVertex
100
AcDb2dVertex
 10
21.30935541788737
 20
17.10251024034288
 30
0.0
  0
VERTEX
  5
5B
330
50
100
AcDbEntity
  8
Layer 1
 62
     1
420
 16716306
370
    35
100
AcDbVertex
100
AcDb2dVertex
 10
21.30935541788737
 20
17.00403806898329
 30
0.0
  0
VERTEX
  5
5C
330
50
100
AcDbEntity
  8
Layer 1
 62
     1
420
 16716306
370
    35
100
AcDbVertex
100
AcDb2dVertex
 10
20.48491117689344
 20
17.00403806898329
 30
0.0
  0
VERTEX
  5
5D
330
50
100
AcDbEntity
  8
Layer 1
 62
     1
420
 16716306
370
    35
100
AcDbVertex
100
AcDb2dVertex
 10
20.48491117689344
 20
16.17959382798936
 30
0.0
  0
VERTEX
  5
5E
330
50
100
AcDbEntity
  8
Layer 1
 62
     1
420
 16716306
370
    35
100
AcDbVertex
100
AcDb2dVertex
 10
20.38657760620117
 20
16.17959382798936
 30
0.0
  0
VERTEX
  5
5F
330
50
100
AcDbEntity
  8
Layer 1
 62
     1
420
 16716306
370
    35
100
AcDbVertex
100
AcDb2dVertex
 10
20.28810543484158
 20
16.17959382798936
 30
0.0
  0
VERTEX
  5
60
330
50
100
AcDbEntity
  8
Layer 1
 62
     1
420
 16716306
370
    35
100
AcDbVertex
100
AcDb2dVertex
 10
20.28810543484158
 20
17.00403806898329
 30
0.0
  0
VERTEX
  5
61
330
50
100
AcDbEntity
  8
Layer 1
 62
     1
420
 16716306
370
    35
100
AcDbVertex
100
AcDb2dVertex
 10
19.46366119384766
 20
17.00403806898329
 30
0.0
  0
SEQEND
  5
62
330
50
100
AcDbEntity
  8
Layer 1
 62
     1
420
 16716306
370
    35
  0
ENDBLK
  5
4E
330
4B
100
AcDbEntity
  8
0
100
AcDbBlockEnd
  0
BLOCK
  5
65
330
63
100
AcDbEntity
  8
0
100
AcDbBlockBegin
  2
block 5
 70
     0
 10
0.0
 20
0.0
 30
0.0
  3
block 5
  1

  0
SPLINE
  5
67
330
63
100
AcDbEntity
  8
Layer 1
 62
     1
420
 16716306
370
    35
100
AcDbSpline
210
0.0
220
0.0
230
1.0
 70
    11
 71
     3
 72
    17
 73
    13
 74
     0
 42
0.0000000001
 43
0.0000000001
 12
1.0
 22
0.0
 32
0.0
 13
1.0
 23
0.0
 33
0.0
 40
0.0
 40
0.0
 40
0.0
 40
0.0
 40
1.0
 40
1.0
 40
1.0
 40
2.0
 40
2.0
 40
2.0
 40
3.0
 40
3.0
 40
3.0
 40
4.0
 40
4.0
 40
4.0
 40
4.0
 10
16.58820145553694
 20
8.787344858425437
 30
0.0
 10
16.58820145553694
 20
11.13458450519576
 30
0.0
 10
18.49096185384522
 20
13.03734503851996
 30
0.0
 10
20.83820172578865
 20
13.03734503851996
 30
0.0
 10
23.1854418229052
 20
13.03734503851996
 30
0.0
 10
25.08820145553694
 20
11.13458450519576
 30
0.0
 10
25.08820145553694
 20
8.787344858425437
 30
0.0
 10
25.08820145553694
 20
6.440106112347545
 30
0.0
 10
23.185441372559
 20
4.537344678330934
 30
0.0
 10
20.83820172578865
 20
4.537344678330934
 30
0.0
 10
18.49096207901832
 20
4.537344678330934
 30
0.0
 10
16.58820145553694
 20
6.440104310962649
 30
0.0
 10
16.58820145553694
 20
8.787344858425437
 30
0.0
  0
ENDBLK
  5
66
330
63
100
AcDbEntity
  8
0
100
AcDbBlockEnd
  0
ENDSEC
  0
SECTION
  2
ENTITIES
  0
INSERT
  5
42
330
1F
100
AcDbEntity
  8
Layer 1
100
AcDbBlockReference
  2
block 2
 10
0.0
 20
0.0
 30
0.0
  0
INSERT
  5
47
330
1F
100
AcDbEntity
  8
Layer 1
100
AcDbBlockReference
  2
block 3
 10
0.0
 20
0.0
 30
0.0
  0
INSERT
  5
4C
330
1F
100
AcDbEntity
  8
Layer 1
100
AcDbBlockReference
  2
block 4
 10
0.0
 20
0.0
 30
0.0
  0
INSERT
  5
64
330
1F
100
AcDbEntity
  8
Layer 1
100
AcDbBlockReference
  2
block 5
 10
0.0
 20
0.0
 30
0.0
  0
ENDSEC
  0
SECTION
  2
OBJECTS
  0
DICTIONARY
  5
C
330
0
100
AcDbDictionary
281
     1
  3
ACAD_GROUP
350
D
  3
ACAD_LAYOUT
350
1A
  3
ACAD_MATERIAL
350
3B
  3
ACAD_MLEADERSTYLE
350
69
  3
ACAD_MLINESTYLE
350
17
  3
ACAD_PLOTSETTINGS
350
19
  3
ACAD_PLOTSTYLENAME
350
E
  3
ACAD_TABLESTYLE
350
68
  3
ACAD_VISUALSTYLE
350
2A
  0
SUN
  5
3F
330
29
100
AcDbSun
 90
        1
290
     0
 63
     7
421
 16777215
 40
1.0
291
     1
 91
  2455826
 92
 54000000
292
     0
 70
     2
 71
   256
280
     1
  0
DICTIONARY
  5
D
102
{ACAD_REACTORS
330
C
102
}
330
C
100
AcDbDictionary
281
     1
  0
DICTIONARY
  5
1A
102
{ACAD_REACTORS
330
C
102
}
330
C
100
AcDbDictionary
281
     1
  3
Layout1
350
1E
  3
Layout2
350
26
  3
Model
350
22
  0
DICTIONARY
  5
3B
102
{ACAD_REACTORS
330
C
102
}
330
C
100
AcDbDictionary
281
     1
  3
ByBlock
350
3D
  3
ByLayer
350
3C
  3
Global
350
3E
  0
DICTIONARY
  5
69
102
{ACAD_REACTORS
330
C
102
}
330
C
100
AcDbDictionary
281
     1
  0
DICTIONARY
  5
17
102
{ACAD_REACTORS
330
C
102
}
330
C
100
AcDbDictionary
281
     1
  3
Standard
350
18
  0
DICTIONARY
  5
19
102
{ACAD_REACTORS
330
C
102
}
330
C
100
AcDbDictionary
281
     1
  0
ACDBDICTIONARYWDFLT
  5
E
102
{ACAD_REACTORS
330
C
102
}
330
C
100
AcDbDictionary
281
     1
  3
Normal
350
F
100
AcDbDictionaryWithDefault
340
F
  0
DICTIONARY
  5
68
102
{ACAD_REACTORS
330
C
102
}
330
C
100
AcDbDictionary
281
     1
  0
DICTIONARY
  5
2A
102
{ACAD_REACTORS
330
C
102
}
330
C
100
AcDbDictionary
281
     1
  3
2dWireframe
350
2F
  3
3D Hidden
350
31
  3
3dWireframe
350
30
  3
Basic
350
32
  3
Brighten
350
36
  3
ColorChange
350
3A
  3
Conceptual
350
34
  3
Dim
350
35
  3
Facepattern
350
39
  3
Flat
350
2B
  3
FlatWithEdges
350
2C
  3
Gouraud
350
2D
  3
GouraudWithEdges
350
2E
  3
Linepattern
350
38
  3
Realistic
350
33
  3
Thicken
350
37
  0
LAYOUT
  5
1E
102
{ACAD_REACTORS
330
1A
102
}
330
1A
100
AcDbPlotSettings
  1

  2
none_device
  4

  6

 40
0.0
 41
0.0
 42
0.0
 43
0.0
 44
0.0
 45
0.0
 46
0.0
 47
0.0
 48
0.0
 49
0.0
140
0.0
141
0.0
142
1.0
143
1.0
 70
   688
 72
     0
 73
     0
 74
     5
  7

 75
    16
 76
     0
 77
     2
 78
   300
147
1.0
148
0.0
149
0.0
100
AcDbLayout
  1
Layout1
 70
     1
 71
     1
 10
0.0
 20
0.0
 11
12.0
 21
9.0
 12
0.0
 22
0.0
 32
0.0
 14
1.000000000000000E+20
 24
1.000000000000000E+20
 34
1.000000000000000E+20
 15
-1.000000000000000E+20
 25
-1.000000000000000E+20
 35
-1.000000000000000E+20
146
0.0
 13
0.0
 23
0.0
 33
0.0
 16
1.0
 26
0.0
 36
0.0
 17
0.0
 27
1.0
 37
0.0
 76
     0
330
1B
  0
LAYOUT
  5
26
102
{ACAD_REACTORS
330
1A
102
}
330
1A
100
AcDbPlotSettings
  1

  2
none_device
  4

  6

 40
0.0
 41
0.0
 42
0.0
 43
0.0
 44
0.0
 45
0.0
 46
0.0
 47
0.0
 48
0.0
 49
0.0
140
0.0
141
0.0
142
1.0
143
1.0
 70
   688
 72
     0
 73
     0
 74
     5
  7

 75
    16
 76
     0
 77
     2
 78
   300
147
1.0
148
0.0
149
0.0
100
AcDbLayout
  1
Layout2
 70
     1
 71
     2
 10
0.0
 20
0.0
 11
0.0
 21
0.0
 12
0.0
 22
0.0
 32
0.0
 14
0.0
 24
0.0
 34
0.0
 15
0.0
 25
0.0
 35
0.0
146
0.0
 13
0.0
 23
0.0
 33
0.0
 16
1.0
 26
0.0
 36
0.0
 17
0.0
 27
1.0
 37
0.0
 76
     0
330
23
  0
LAYOUT
  5
22
102
{ACAD_REACTORS
330
1A
102
}
330
1A
100
AcDbPlotSettings
  1

  2
none_device
  4

  6

 40
0.0
 41
0.0
 42
0.0
 43
0.0
 44
0.0
 45
0.0
 46
0.0
 47
0.0
 48
0.0
 49
0.0
140
0.0
141
0.0
142
1.0
143
1.0
 70
  1712
 72
     0
 73
     0
 74
     0
  7

 75
     0
 76
     0
 77
     2
 78
   300
147
1.0
148
0.0
149
0.0
100
AcDbLayout
  1
Model
 70
     1
 71
     0
 10
0.0
 20
0.0
 11
12.0
 21
9.0
 12
0.0
 22
0.0
 32
0.0
 14
1.000000000000000E+20
 24
1.000000000000000E+20
 34
1.000000000000000E+20
 15
-1.000000000000000E+20
 25
-1.000000000000000E+20
 35
-1.000000000000000E+20
146
0.0
 13
0.0
 23
0.0
 33
0.0
 16
1.0
 26
0.0
 36
0.0
 17
0.0
 27
1.0
 37
0.0
 76
     0
330
1F
331
29
  0
MATERIAL
  5
3D
102
{ACAD_REACTORS
330
3B
102
}
330
3B
100
AcDbMaterial
  1
ByBlock
 72
     1
 94
      127
  0
MATERIAL
  5
3C
102
{ACAD_REACTORS
330
3B
102
}
330
3B
100
AcDbMaterial
  1
ByLayer
 72
     1
 94
      127
  0
MATERIAL
  5
3E
102
{ACAD_REACTORS
330
3B
102
}
330
3B
100
AcDbMaterial
  1
Global
 72
     1
 94
      127
  0
MLINESTYLE
  5
18
102
{ACAD_REACTORS
330
17
102
}
330
17
100
AcDbMlineStyle
  2
Standard
 70
     0
  3

 62
   256
 51
90.0
 52
90.0
 71
     2
 49
0.5
 62
   256
  6
BYLAYER
 49
-0.5
 62
   256
  6
BYLAYER
  0
ACDBPLACEHOLDER
  5
F
102
{ACAD_REACTORS
330
E
102
}
330
E
  0
VISUALSTYLE
  5
2F
102
{ACAD_REACTORS
330
2A
102
}
330
2A
100
AcDbVisualStyle
  2
2dWireframe
 70
     4
177
     2
291
     0
 71
     0
176
     1
 72
     2
176
     1
 73
     0
176
     1
 90
        0
176
     1
 40
-0.6
176
     1
 41
-30.0
176
     1
 62
     5
 63
     7
421
 16777215
176
     1
 74
     1
176
     1
 91
        4
176
     1
 64
     7
176
     1
 65
   257
176
     1
 75
     1
176
     1
175
     1
176
     1
 42
1.0
176
     1
 92
        0
176
     1
 66
   257
176
     1
 43
1.0
176
     1
 76
     1
176
     1
 77
     6
176
     1
 78
     2
176
     1
 67
     7
176
     1
 79
     5
176
     1
170
     0
176
     1
171
     0
176
     1
290
     0
176
     1
 93
        1
176
     1
 44
0.0
176
     1
173
     0
176
     1
  0
VISUALSTYLE
  5
31
102
{ACAD_REACTORS
330
2A
102
}
330
2A
100
AcDbVisualStyle
  2
3D Hidden
 70
     6
177
     2
291
     0
 71
     1
176
     1
 72
     2
176
     1
 73
     2
176
     1
 90
        0
176
     1
 40
-0.6
176
     1
 41
-30.0
176
     1
 62
     5
 63
     7
421
 16777215
176
     1
 74
     2
176
     1
 91
        2
176
     1
 64
     7
176
     1
 65
   257
176
     1
 75
     2
176
     1
175
     1
176
     1
 42
40.0
176
     1
 92
        0
176
     1
 66
   257
176
     1
 43
1.0
176
     1
 76
     1
176
     1
 77
     6
176
     1
 78
     2
176
     1
 67
     7
176
     1
 79
     3
176
     1
170
     0
176
     1
171
     0
176
     1
290
     0
176
     1
 93
        1
176
     1
 44
0.0
176
     1
173
     0
176
     1
  0
VISUALSTYLE
  5
30
102
{ACAD_REACTORS
330
2A
102
}
330
2A
100
AcDbVisualStyle
  2
3dWireframe
 70
     5
177
     2
291
     0
 71
     0
176
     1
 72
     2
176
     1
 73
     0
176
     1
 90
        0
176
     1
 40
-0.6
176
     1
 41
-30.0
176
     1
 62
     5
 63
     7
421
 16777215
176
     1
 74
     1
176
     1
 91
        4
176
     1
 64
     7
176
     1
 65
   257
176
     1
 75
     1
176
     1
175
     1
176
     1
 42
1.0
176
     1
 92
        0
176
     1
 66
   257
176
     1
 43
1.0
176
     1
 76
     1
176
     1
 77
     6
176
     1
 78
     2
176
     1
 67
     7
176
     1
 79
     5
176
     1
170
     0
176
     1
171
     0
176
     1
290
     0
176
     1
 93
        1
176
     1
 44
0.0
176
     1
173
     0
176
     1
  0
VISUALSTYLE
  5
32
102
{ACAD_REACTORS
330
2A
102
}
330
2A
100
AcDbVisualStyle
  2
Basic
 70
     7
177
     2
291
     1
 71
     1
176
     1
 72
     0
176
     1
 73
     1
176
     1
 90
        0
176
     1
 40
-0.6
176
     1
 41
-30.0
176
     1
 62
     5
 63
     7
421
 16777215
176
     1
 74
     0
176
     1
 91
        4
176
     1
 64
     7
176
     1
 65
   257
176
     1
 75
     1
176
     1
175
     1
176
     1
 42
1.0
176
     1
 92
        8
176
     1
 66
     7
176
     1
 43
1.0
176
     1
 76
     1
176
     1
 77
     6
176
     1
 78
     2
176
     1
 67
     7
176
     1
 79
     5
176
     1
170
     0
176
     1
171
     0
176
     1
290
     0
176
     1
 93
        1
176
     1
 44
0.0
176
     1
173
     0
176
     1
  0
VISUALSTYLE
  5
36
102
{ACAD_REACTORS
330
2A
102
}
330
2A
100
AcDbVisualStyle
  2
Brighten
 70
    12
177
     2
291
     1
 71
     2
176
     1
 72
     2
176
     1
 73
     0
176
     1
 90
        0
176
     1
 40
-0.6
176
     1
 41
-30.0
176
     1
 62
     5
 63
     7
421
 16777215
176
     1
 74
     1
176
     1
 91
        4
176
     1
 64
     7
176
     1
 65
   257
176
     1
 75
     1
176
     1
175
     1
176
     1
 42
1.0
176
     1
 92
        8
176
     1
 66
     7
176
     1
 43
1.0
176
     1
 76
     1
176
     1
 77
     6
176
     1
 78
     2
176
     1
 67
     7
176
     1
 79
     5
176
     1
170
     0
176
     1
171
     0
176
     1
290
     0
176
     1
 93
        1
176
     1
 44
50.0
176
     1
173
     0
176
     1
  0
VISUALSTYLE
  5
3A
102
{ACAD_REACTORS
330
2A
102
}
330
2A
100
AcDbVisualStyle
  2
ColorChange
 70
    16
177
     2
291
     1
 71
     2
176
     1
 72
     2
176
     1
 73
     3
176
     1
 90
        0
176
     1
 40
-0.6
176
     1
 41
-30.0
176
     1
 62
     5
 63
     8
421
  8421504
176
     1
 74
     1
176
     1
 91
        4
176
     1
 64
     7
176
     1
 65
   257
176
     1
 75
     1
176
     1
175
     1
176
     1
 42
1.0
176
     1
 92
        8
176
     1
 66
     8
424
  8421504
176
     1
 43
1.0
176
     1
 76
     1
176
     1
 77
     6
176
     1
 78
     2
176
     1
 67
     7
176
     1
 79
     5
176
     1
170
     0
176
     1
171
     0
176
     1
290
     0
176
     1
 93
        1
176
     1
 44
0.0
176
     1
173
     0
176
     1
  0
VISUALSTYLE
  5
34
102
{ACAD_REACTORS
330
2A
102
}
330
2A
100
AcDbVisualStyle
  2
Conceptual
 70
     9
177
     2
291
     0
 71
     3
176
     1
 72
     2
176
     1
 73
     0
176
     1
 90
        0
176
     1
 40
-0.6
176
     1
 41
-30.0
176
     1
 62
     5
 63
     7
421
 16777215
176
     1
 74
     2
176
     1
 91
        2
176
     1
 64
     7
176
     1
 65
   257
176
     1
 75
     1
176
     1
175
     1
176
     1
 42
40.0
176
     1
 92
        8
176
     1
 66
     7
176
     1
 43
1.0
176
     1
 76
     1
176
     1
 77
     6
176
     1
 78
     2
176
     1
 67
     7
176
     1
 79
     3
176
     1
170
     0
176
     1
171
     0
176
     1
290
     0
176
     1
 93
        1
176
     1
 44
0.0
176
     1
173
     0
176
     1
  0
VISUALSTYLE
  5
35
102
{ACAD_REACTORS
330
2A
102
}
330
2A
100
AcDbVisualStyle
  2
Dim
 70
    11
177
     2
291
     1
 71
     2
176
     1
 72
     2
176
     1
 73
     0
176
     1
 90
        0
176
     1
 40
-0.6
176
     1
 41
-30.0
176
     1
 62
     5
 63
     7
421
 16777215
176
     1
 74
     1
176
     1
 91
        4
176
     1
 64
     7
176
     1
 65
   257
176
     1
 75
     1
176
     1
175
     1
176
     1
 42
1.0
176
     1
 92
        8
176
     1
 66
     7
176
     1
 43
1.0
176
     1
 76
     1
176
     1
 77
     6
176
     1
 78
     2
176
     1
 67
     7
176
     1
 79
     5
176
     1
170
     0
176
     1
171
     0
176
     1
290
     0
176
     1
 93
        1
176
     1
 44
-50.0
176
     1
173
     0
176
     1
  0
VISUALSTYLE
  5
39
102
{ACAD_REACTORS
330
2A
102
}
330
2A
100
AcDbVisualStyle
  2
Facepattern
 70
    15
177
     2
291
     1
 71
     2
176
     1
 72
     2
176
     1
 73
     0
176
     1
 90
        0
176
     1
 40
-0.6
176
     1
 41
-30.0
176
     1
 62
     5
 63
     7
421
 16777215
176
     1
 74
     1
176
     1
 91
        4
176
     1
 64
     7
176
     1
 65
   257
176
     1
 75
     1
176
     1
175
     1
176
     1
 42
1.0
176
     1
 92
        8
176
     1
 66
     7
176
     1
 43
1.0
176
     1
 76
     1
176
     1
 77
     6
176
     1
 78
     2
176
     1
 67
     7
176
     1
 79
     5
176
     1
170
     0
176
     1
171
     0
176
     1
290
     0
176
     1
 93
        1
176
     1
 44
0.0
176
     1
173
     0
176
     1
  0
VISUALSTYLE
  5
2B
102
{ACAD_REACTORS
330
2A
102
}
330
2A
100
AcDbVisualStyle
  2
Flat
 70
     0
177
     2
291
     1
 71
     2
176
     1
 72
     1
176
     1
 73
     1
176
     1
 90
        2
176
     1
 40
-0.6
176
     1
 41
30.0
176
     1
 62
     5
 63
     7
421
 16777215
176
     1
 74
     0
176
     1
 91
        4
176
     1
 64
     7
176
     1
 65
   257
176
     1
 75
     1
176
     1
175
     1
176
     1
 42
1.0
176
     1
 92
        8
176
     1
 66
     7
176
     1
 43
1.0
176
     1
 76
     1
176
     1
 77
     6
176
     1
 78
     2
176
     1
 67
     7
176
     1
 79
     5
176
     1
170
     0
176
     1
171
     0
176
     1
290
     0
176
     1
 93
       13
176
     1
 44
0.0
176
     1
173
     0
176
     1
  0
VISUALSTYLE
  5
2C
102
{ACAD_REACTORS
330
2A
102
}
330
2A
100
AcDbVisualStyle
  2
FlatWithEdges
 70
     1
177
     2
291
     1
 71
     2
176
     1
 72
     1
176
     1
 73
     1
176
     1
 90
        2
176
     1
 40
-0.6
176
     1
 41
30.0
176
     1
 62
     5
 63
     7
421
 16777215
176
     1
 74
     1
176
     1
 91
        4
176
     1
 64
     7
176
     1
 65
   257
176
     1
 75
     1
176
     1
175
     1
176
     1
 42
1.0
176
     1
 92
        0
176
     1
 66
   257
176
     1
 43
1.0
176
     1
 76
     1
176
     1
 77
     6
176
     1
 78
     2
176
     1
 67
     7
176
     1
 79
     5
176
     1
170
     0
176
     1
171
     0
176
     1
290
     0
176
     1
 93
       13
176
     1
 44
0.0
176
     1
173
     0
176
     1
  0
VISUALSTYLE
  5
2D
102
{ACAD_REACTORS
330
2A
102
}
330
2A
100
AcDbVisualStyle
  2
Gouraud
 70
     2
177
     2
291
     1
 71
     2
176
     1
 72
     2
176
     1
 73
     1
176
     1
 90
        2
176
     1
 40
-0.6
176
     1
 41
30.0
176
     1
 62
     5
 63
     7
421
 16777215
176
     1
 74
     0
176
     1
 91
        4
176
     1
 64
     7
176
     1
 65
   257
176
     1
 75
     1
176
     1
175
     1
176
     1
 42
1.0
176
     1
 92
        0
176
     1
 66
     7
176
     1
 43
1.0
176
     1
 76
     1
176
     1
 77
     6
176
     1
 78
     2
176
     1
 67
     7
176
     1
 79
     5
176
     1
170
     0
176
     1
171
     0
176
     1
290
     0
176
     1
 93
       13
176
     1
 44
0.0
176
     1
173
     0
176
     1
  0
VISUALSTYLE
  5
2E
102
{ACAD_REACTORS
330
2A
102
}
330
2A
100
AcDbVisualStyle
  2
GouraudWithEdges
 70
     3
177
     2
291
     1
 71
     2
176
     1
 72
     2
176
     1
 73
     1
176
     1
 90
        2
176
     1
 40
-0.6
176
     1
 41
30.0
176
     1
 62
     5
 63
     7
421
 16777215
176
     1
 74
     1
176
     1
 91
        4
176
     1
 64
     7
176
     1
 65
   257
176
     1
 75
     1
176
     1
175
     1
176
     1
 42
1.0
176
     1
 92
        0
176
     1
 66
   257
176
     1
 43
1.0
176
     1
 76
     1
176
     1
 77
     6
176
     1
 78
     2
176
     1
 67
     7
176
     1
 79
     5
176
     1
170
     0
176
     1
171
     0
176
     1
290
     0
176
     1
 93
       13
176
     1
 44
0.0
176
     1
173
     0
176
     1
  0
VISUALSTYLE
  5
38
102
{ACAD_REACTORS
330
2A
102
}
330
2A
100
AcDbVisualStyle
  2
Linepattern
 70
    14
177
     2
291
     1
 71
     2
176
     1
 72
     2
176
     1
 73
     0
176
     1
 90
        0
176
     1
 40
-0.6
176
     1
 41
-30.0
176
     1
 62
     5
 63
     7
421
 16777215
176
     1
 74
     1
176
     1
 91
        4
176
     1
 64
     7
176
     1
 65
   257
176
     1
 75
     7
176
     1
175
     7
176
     1
 42
1.0
176
     1
 92
        8
176
     1
 66
     7
176
     1
 43
1.0
176
     1
 76
     1
176
     1
 77
     6
176
     1
 78
     2
176
     1
 67
     7
176
     1
 79
     5
176
     1
170
     0
176
     1
171
     0
176
     1
290
     0
176
     1
 93
        1
176
     1
 44
0.0
176
     1
173
     0
176
     1
  0
VISUALSTYLE
  5
33
102
{ACAD_REACTORS
330
2A
102
}
330
2A
100
AcDbVisualStyle
  2
Realistic
 70
     8
177
     2
291
     0
 71
     2
176
     1
 72
     2
176
     1
 73
     0
176
     1
 90
        0
176
     1
 40
-0.6
176
     1
 41
-30.0
176
     1
 62
     5
 63
     7
421
 16777215
176
     1
 74
     1
176
     1
 91
        0
176
     1
 64
     7
176
     1
 65
   257
176
     1
 75
     1
176
     1
175
     1
176
     1
 42
1.0
176
     1
 92
        8
176
     1
 66
     8
424
  7895160
176
     1
 43
1.0
176
     1
 76
     1
176
     1
 77
     6
176
     1
 78
     2
176
     1
 67
     7
176
     1
 79
     5
176
     1
170
     0
176
     1
171
     0
176
     1
290
     0
176
     1
 93
       13
176
     1
 44
0.0
176
     1
173
     0
176
     1
  0
VISUALSTYLE
  5
37
102
{ACAD_REACTORS
330
2A
102
}
330
2A
100
AcDbVisualStyle
  2
Thicken
 70
    13
177
     2
291
     1
 71
     2
176
     1
 72
     2
176
     1
 73
     0
176
     1
 90
        0
176
     1
 40
-0.6
176
     1
 41
-30.0
176
     1
 62
     5
 63
     7
421
 16777215
176
     1
 74
     1
176
     1
 91
        4
176
     1
 64
     7
176
     1
 65
   257
176
     1
 75
     1
176
     1
175
     1
176
     1
 42
1.0
176
     1
 92
       12
176
     1
 66
     7
176
     1
 43
1.0
176
     1
 76
     1
176
     1
 77
     6
176
     1
 78
     2
176
     1
 67
     7
176
     1
 79
     5
176
     1
170
     0
176
     1
171
     0
176
     1
290
     0
176
     1
 93
        1
176
     1
 44
0.0
176
     1
173
     0
176
     1
  0
ENDSEC
  0
EOF
