<?xml version="1.0" encoding="utf-8"?>
<!-- Generator: Adobe Illustrator 22.0.1, SVG Export Plug-In . SVG Version: 6.00 Build 0)  -->
<svg version="1.1" id="Layer_1" xmlns="http://www.w3.org/2000/svg" xmlns:xlink="http://www.w3.org/1999/xlink" x="0px" y="0px"
	 viewBox="0 0 2592 1900.8" style="enable-background:new 0 0 2592 1900.8;" xml:space="preserve">
<style type="text/css">
	.st0{fill:none;stroke:#FF1212;stroke-miterlimit:10;}
</style>
<g transform="translate(874.7060793081519 -361.4231688863122) rotate(90)">
	<path class="st0" d="M662.1,38.8l-4.6,15.9l-5.4,16.7L646,88.8l-7.1,18.2l-8.1,18.8l-9.1,19.4l-10,19.8l-10.8,19.9l-11.6,19.8
		l-12,19.3l-12.4,18.5L552.4,260l-12.5,16.3l-12.4,15l-12.3,13.7L503,317.3v0l21.8,6v0l32,6.3h0l20.1,4l0,0l-5.9,10.3l-6.5,10.9
		l-7.2,11.6l-7.8,12.2l-8.5,12.7l-9.1,13.2l-9.6,13.6l-10,13.7l-20.6,27.3l-10.5,13.2l-10.5,12.8l-10.4,12.3L450,509.1l-10.3,11.2
		l-10.2,10.6v0l12.3,3.9l12.4,3.7l12.4,3.4l12.2,3.1l11.9,2.7l5.7,1.1l5.5,1l5.3,0.8l5.1,0.7l4.9,0.6l4.7,0.4h0l-1.9,3.3l-2.4,3.9
		l-2.8,4.6l-3.3,5.2l-3.7,5.7l-4.1,6.2l-9,13.3l-9.5,13.6l-9.4,13.1L457.2,646l-10,12.6l-10.9,13.5l-11.6,14.2l-12,14.4l-11.8,13.9
		l-11.3,12.8l-5.4,5.9L379,739l-5,5.2l-4.8,4.8l0,0l12.4,4.3l13.8,4.2l15.2,4.1l16.5,4l17.9,3.8l19,3.6l39.9,6.6l20,2.9l19.4,2.6
		l18.3,2.2l16.7,1.8l14.8,1.3l6.6,0.5l6.1,0.4l5.6,0.3l5.1,0.2l4.5,0.1l4-0.1l0,0v71.7l0,0c0,4.2,3.4,7.6,7.6,7.6l0,0h36.7l0,0h36.7
		l0,0c4.2,0,7.6-3.4,7.6-7.6l0,0v-71.7l0,0l4,0.1l4.5-0.1l5.1-0.2l5.6-0.3l6.1-0.4l6.6-0.5l14.8-1.3l16.7-1.8l18.3-2.2l19.4-2.6
		l20-2.9l39.9-6.6l19-3.6l17.8-3.8l16.5-4l15.2-4.1l13.8-4.2l12.4-4.3l0.1,0l-4.8-4.8l-5-5.2l-5.2-5.6l-5.4-5.9l-11.3-12.8
		l-11.8-13.9l-12-14.4l-11.6-14.2l-10.9-13.5l-10-12.7l-18.7-24.6l-9.4-13.1l-9.5-13.6l-9-13.3l-4.1-6.2l-3.7-5.7l-3.3-5.2l-2.8-4.6
		l-2.4-3.9l-1.9-3.3v0l4.7-0.4l4.9-0.6l5.1-0.7l5.3-0.8l5.5-1l5.7-1.1l11.9-2.7l12.2-3.1l12.4-3.4l12.4-3.7l12.3-3.9v0L899,520.3
		l-10.3-11.2l-10.4-11.7L868,485.1l-10.5-12.8L847,459.1l-20.7-27.3l-10-13.7l-9.6-13.6l-9.1-13.2l-8.5-12.7l-7.9-12.2l-7.2-11.6
		l-6.5-10.9l-5.9-10.3l0,0l20.1-4l0,0l32-6.3l0.1,0l21.8-6v-0.1l-12.2-12.3l-12.4-13.6l-12.4-15L786.2,260l-12.5-17.5L761.3,224
		l-12-19.3l-11.5-19.8L727,165.1l-10-19.8l-9-19.4l-8.1-18.8l-7.1-18.2l-6.2-17.4l-5.4-16.7l-4.6-15.9l0,0v400.6l0,0h-7.2l0,0h-7.2
		l0,0L662.1,38.8L662.1,38.8z"/>
</g>
<g transform="translate(868.7158563999999 -371.6753453) rotate(90)">
	<path class="st0" d="M1068.1,0.4c4.2,0,7.6,3.4,7.6,7.6l0,0v71.7l0,0l4-0.1l4.5,0.1l5.1,0.2l5.6,0.3l6.1,0.4l6.6,0.5l14.8,1.3
		l16.7,1.8l18.3,2.2l19.5,2.6l20,2.9l39.9,6.6l19,3.6l17.8,3.8l16.5,4l15.2,4.1l13.8,4.2l12.4,4.3l-0.1,0l-4.8,4.8l-5,5.2l-5.2,5.6
		l-5.4,5.9l-11.3,12.8l-11.8,13.9l-12,14.4l-11.6,14.3l-10.9,13.5l-10,12.6l-18.7,24.6l-9.4,13.1l-9.5,13.6l-9,13.3l-4.1,6.2
		l-3.7,5.7l-3.3,5.2l-2.8,4.6l-2.4,3.9l-1.9,3.3l0.1,0l4.7,0.4l4.9,0.6l5.1,0.7l5.3,0.9l5.5,1l5.7,1.1l11.9,2.7l12.2,3.1l12.4,3.4
		l12.4,3.7l12.3,3.9v0l-10.2,10.6l-10.3,11.2l-10.4,11.8l-10.4,12.3l-10.5,12.8l-10.5,13.2l-20.6,27.3l-10,13.7l-9.6,13.6l-9.1,13.2
		l-8.5,12.7l-7.8,12.1l-7.2,11.6l-6.6,10.9l-5.9,10.3l0,0l20.1,4v0l32,6.3h0l21.8,6l0.1,0l-13.8,14l-14,15.8l-14.1,17.5l-14.2,19.1
		l-14.1,20.5l-13.8,21.6l-13.2,22.3l-12.3,22.5l-11.2,22.3l-10,21.8l-8.7,21l-7.5,20.2l-6.4,19.2l-5.4,18.2l-4.4,17.2l-3.5,16.3
		l0.1,0l-3.5-16.3l-4.4-17.2l-5.4-18.2l-6.4-19.2l-7.5-20.1l-8.7-21l-10-21.8l-11.2-22.3L962,684.8l-13.2-22.3l-13.8-21.6L921,620.4
		l-14.2-19.1l-14.1-17.4l-14-15.8l-13.8-14l0,0l21.8-6l0,0l32-6.3v0l20.1-4h0l-5.9-10.3l-6.5-11l-7.1-11.6l-7.8-12.2L903,480
		l-9.1-13.2l-9.6-13.5l-10-13.7l-20.6-27.3l-10.5-13.2l-10.5-12.8l-10.4-12.3L812,362.3l-10.3-11.2l-10.2-10.6l0,0l12.3-3.9
		l12.4-3.7l12.4-3.4l12.2-3.1l11.9-2.7l5.7-1.1l5.5-1l5.3-0.9l5.1-0.7l5-0.5l4.7-0.4h0l-1.9-3.3l-2.4-3.9l-2.8-4.6l-3.3-5.2
		l-3.7-5.7l-4.1-6.2l-9-13.3l-9.5-13.6l-9.4-13.1l-18.7-24.6l-10-12.7l-10.9-13.5L786.6,185l-12-14.4l-11.8-13.9l-11.3-12.8
		l-5.4-5.9l-5.2-5.6l-5-5.2l-4.8-4.8h0.1l12.4-4.3l13.8-4.2l15.2-4.1l16.5-4L807,102l19-3.6l39.9-6.6l20-2.9l19.4-2.6l18.3-2.2
		l16.7-1.8l14.8-1.3l6.6-0.5l6.1-0.4l5.6-0.3l5.1-0.2l4.5-0.1l4,0.1v0V7.9v0c0-4.2,3.4-7.6,7.6-7.6v0h29.5l0,0v32.2v0v399.4l0,0h7.3
		l0,0h7.2l0,0V32.5v0V0.3l0,0L1068.1,0.4L1068.1,0.4z"/>
</g>
<g transform="translate(-22.90815359999999 559.7190133) rotate(0)">
	<path class="st0" d="M24.4,422c0-106,86-192,192-192s192,86,192,192s-86,192-192,192S24.4,528,24.4,422z"/>
	<polygon class="st0" points="223.6,466.3 216.4,466.3 209.1,466.3 209.1,429.2 172.1,429.2 172.1,422 172.1,414.7 209.1,414.7 
		209.1,377.6 216.4,377.6 223.6,377.6 223.6,414.7 260.7,414.7 260.7,422 260.7,429.2 223.6,429.2 	"/>
</g>
<g transform="translate(788.6982297000001 1918.5254392000002) rotate(180)">
	<path class="st0" d="M-3.6,810c0-115.9,94.1-210,210-210s210,94.1,210,210s-94.1,210-210,210S-3.6,925.9-3.6,810z"/>
</g>
</svg>
