  0
SECTION
  2
HEADER
  9
$ACADVER
  1
AC1024
  9
$ACADMAINTVER
 70
     6
  9
$DWGCODEPAGE
  3
ANSI_1252
  9
$INSBASE
 10
0.0
 20
0.0
 30
0.0
  9
$EXTMIN
 10
1.000000000000000E+20
 20
1.000000000000000E+20
 30
1.000000000000000E+20
  9
$EXTMAX
 10
-1.000000000000000E+20
 20
-1.000000000000000E+20
 30
-1.000000000000000E+20
  9
$LIMMIN
 10
0.0
 20
0.0
  9
$LIMMAX
 10
12.0
 20
9.0
  9
$ORTHOMODE
 70
     0
  9
$REGENMODE
 70
     1
  9
$FILLMODE
 70
     1
  9
$QTEXTMODE
 70
     0
  9
$MIRRTEXT
 70
     1
  9
$LTSCALE
 40
1.0
  9
$ATTMODE
 70
     1
  9
$TEXTSIZE
 40
0.2
  9
$TRACEWID
 40
0.05
  9
$TEXTSTYLE
  7
Standard
  9
$CLAYER
  8
0
  9
$CELTYPE
  6
ByLayer
  9
$CECOLOR
 62
   256
  9
$CELTSCALE
 40
1.0
  9
$DISPSILH
 70
     0
  9
$DIMSCALE
 40
1.0
  9
$DIMASZ
 40
0.18
  9
$DIMEXO
 40
0.0625
  9
$DIMDLI
 40
0.38
  9
$DIMRND
 40
0.0
  9
$DIMDLE
 40
0.0
  9
$DIMEXE
 40
0.18
  9
$DIMTP
 40
0.0
  9
$DIMTM
 40
0.0
  9
$DIMTXT
 40
0.18
  9
$DIMCEN
 40
0.09
  9
$DIMTSZ
 40
0.0
  9
$DIMTOL
 70
     0
  9
$DIMLIM
 70
     0
  9
$DIMTIH
 70
     1
  9
$DIMTOH
 70
     1
  9
$DIMSE1
 70
     0
  9
$DIMSE2
 70
     0
  9
$DIMTAD
 70
     0
  9
$DIMZIN
 70
     0
  9
$DIMBLK
  1

  9
$DIMASO
 70
     1
  9
$DIMSHO
 70
     1
  9
$DIMPOST
  1

  9
$DIMAPOST
  1

  9
$DIMALT
 70
     0
  9
$DIMALTD
 70
     2
  9
$DIMALTF
 40
25.4
  9
$DIMLFAC
 40
1.0
  9
$DIMTOFL
 70
     0
  9
$DIMTVP
 40
0.0
  9
$DIMTIX
 70
     0
  9
$DIMSOXD
 70
     0
  9
$DIMSAH
 70
     0
  9
$DIMBLK1
  1

  9
$DIMBLK2
  1

  9
$DIMSTYLE
  2
Standard
  9
$DIMCLRD
 70
     0
  9
$DIMCLRE
 70
     0
  9
$DIMCLRT
 70
     0
  9
$DIMTFAC
 40
1.0
  9
$DIMGAP
 40
0.09
  9
$DIMJUST
 70
     0
  9
$DIMSD1
 70
     0
  9
$DIMSD2
 70
     0
  9
$DIMTOLJ
 70
     1
  9
$DIMTZIN
 70
     0
  9
$DIMALTZ
 70
     0
  9
$DIMALTTZ
 70
     0
  9
$DIMUPT
 70
     0
  9
$DIMDEC
 70
     4
  9
$DIMTDEC
 70
     4
  9
$DIMALTU
 70
     2
  9
$DIMALTTD
 70
     2
  9
$DIMTXSTY
  7
Standard
  9
$DIMAUNIT
 70
     0
  9
$DIMADEC
 70
     0
  9
$DIMALTRND
 40
0.0
  9
$DIMAZIN
 70
     0
  9
$DIMDSEP
 70
    46
  9
$DIMATFIT
 70
     3
  9
$DIMFRAC
 70
     0
  9
$DIMLDRBLK
  1

  9
$DIMLUNIT
 70
     2
  9
$DIMLWD
 70
    -2
  9
$DIMLWE
 70
    -2
  9
$DIMTMOVE
 70
     0
  9
$DIMFXL
 40
1.0
  9
$DIMFXLON
 70
     0
  9
$DIMJOGANG
 40
0.7853981633974483
  9
$DIMTFILL
 70
     0
  9
$DIMTFILLCLR
 70
     0
  9
$DIMARCSYM
 70
     0
  9
$DIMLTYPE
  6

  9
$DIMLTEX1
  6

  9
$DIMLTEX2
  6

  9
$DIMTXTDIRECTION
 70
     0
  9
$LUNITS
 70
     2
  9
$LUPREC
 70
     4
  9
$SKETCHINC
 40
0.1
  9
$FILLETRAD
 40
0.5
  9
$AUNITS
 70
     0
  9
$AUPREC
 70
     0
  9
$MENU
  1
.
  9
$ELEVATION
 40
0.0
  9
$PELEVATION
 40
0.0
  9
$THICKNESS
 40
0.0
  9
$LIMCHECK
 70
     0
  9
$CHAMFERA
 40
0.5
  9
$CHAMFERB
 40
0.5
  9
$CHAMFERC
 40
1.0
  9
$CHAMFERD
 40
0.0
  9
$SKPOLY
 70
     0
  9
$TDCREATE
 40
2458445.636645498
  9
$TDUCREATE
 40
2458445.969978831
  9
$TDUPDATE
 40
2458445.636645613
  9
$TDUUPDATE
 40
2458445.969978947
  9
$TDINDWG
 40
0.0000000116
  9
$TDUSRTIMER
 40
0.0000000116
  9
$USRTIMER
 70
     1
  9
$ANGBASE
 50
0.0
  9
$ANGDIR
 70
     0
  9
$PDMODE
 70
     0
  9
$PDSIZE
 40
0.0
  9
$PLINEWID
 40
0.0
  9
$SPLFRAME
 70
     0
  9
$SPLINETYPE
 70
     6
  9
$SPLINESEGS
 70
     8
  9
$HANDSEED
  5
6A
  9
$SURFTAB1
 70
     6
  9
$SURFTAB2
 70
     6
  9
$SURFTYPE
 70
     6
  9
$SURFU
 70
     6
  9
$SURFV
 70
     6
  9
$UCSBASE
  2

  9
$UCSNAME
  2

  9
$UCSORG
 10
0.0
 20
0.0
 30
0.0
  9
$UCSXDIR
 10
1.0
 20
0.0
 30
0.0
  9
$UCSYDIR
 10
0.0
 20
1.0
 30
0.0
  9
$UCSORTHOREF
  2

  9
$UCSORTHOVIEW
 70
     0
  9
$UCSORGTOP
 10
0.0
 20
0.0
 30
0.0
  9
$UCSORGBOTTOM
 10
0.0
 20
0.0
 30
0.0
  9
$UCSORGLEFT
 10
0.0
 20
0.0
 30
0.0
  9
$UCSORGRIGHT
 10
0.0
 20
0.0
 30
0.0
  9
$UCSORGFRONT
 10
0.0
 20
0.0
 30
0.0
  9
$UCSORGBACK
 10
0.0
 20
0.0
 30
0.0
  9
$PUCSBASE
  2

  9
$PUCSNAME
  2

  9
$PUCSORG
 10
0.0
 20
0.0
 30
0.0
  9
$PUCSXDIR
 10
1.0
 20
0.0
 30
0.0
  9
$PUCSYDIR
 10
0.0
 20
1.0
 30
0.0
  9
$PUCSORTHOREF
  2

  9
$PUCSORTHOVIEW
 70
     0
  9
$PUCSORGTOP
 10
0.0
 20
0.0
 30
0.0
  9
$PUCSORGBOTTOM
 10
0.0
 20
0.0
 30
0.0
  9
$PUCSORGLEFT
 10
0.0
 20
0.0
 30
0.0
  9
$PUCSORGRIGHT
 10
0.0
 20
0.0
 30
0.0
  9
$PUCSORGFRONT
 10
0.0
 20
0.0
 30
0.0
  9
$PUCSORGBACK
 10
0.0
 20
0.0
 30
0.0
  9
$USERI1
 70
     0
  9
$USERI2
 70
     0
  9
$USERI3
 70
     0
  9
$USERI4
 70
     0
  9
$USERI5
 70
     0
  9
$USERR1
 40
0.0
  9
$USERR2
 40
0.0
  9
$USERR3
 40
0.0
  9
$USERR4
 40
0.0
  9
$USERR5
 40
0.0
  9
$WORLDVIEW
 70
     1
  9
$SHADEDGE
 70
     3
  9
$SHADEDIF
 70
    70
  9
$TILEMODE
 70
     1
  9
$MAXACTVP
 70
    64
  9
$PINSBASE
 10
0.0
 20
0.0
 30
0.0
  9
$PLIMCHECK
 70
     0
  9
$PEXTMIN
 10
1.000000000000000E+20
 20
1.000000000000000E+20
 30
1.000000000000000E+20
  9
$PEXTMAX
 10
-1.000000000000000E+20
 20
-1.000000000000000E+20
 30
-1.000000000000000E+20
  9
$PLIMMIN
 10
0.0
 20
0.0
  9
$PLIMMAX
 10
12.0
 20
9.0
  9
$UNITMODE
 70
     0
  9
$VISRETAIN
 70
     1
  9
$PLINEGEN
 70
     0
  9
$PSLTSCALE
 70
     1
  9
$TREEDEPTH
 70
  3020
  9
$CMLSTYLE
  2
Standard
  9
$CMLJUST
 70
     0
  9
$CMLSCALE
 40
1.0
  9
$PROXYGRAPHICS
 70
     1
  9
$MEASUREMENT
 70
     0
  9
$CELWEIGHT
370
    -1
  9
$ENDCAPS
280
     0
  9
$JOINSTYLE
280
     0
  9
$LWDISPLAY
290
     1
  9
$INSUNITS
 70
     1
  9
$HYPERLINKBASE
  1

  9
$STYLESHEET
  1

  9
$XEDIT
290
     1
  9
$CEPSNTYPE
380
     0
  9
$PSTYLEMODE
290
     1
  9
$FINGERPRINTGUID
  2
{C0E012D9-9A5D-4645-B26F-32269FBC5F3C}
  9
$VERSIONGUID
  2
{FAEB1C32-E019-11D5-929B-00C0DF256EC4}
  9
$EXTNAMES
290
     1
  9
$PSVPSCALE
 40
0.0
  9
$OLESTARTUP
290
     0
  9
$SORTENTS
280
   127
  9
$INDEXCTL
280
     0
  9
$HIDETEXT
280
     1
  9
$XCLIPFRAME
280
     2
  9
$HALOGAP
280
     0
  9
$OBSCOLOR
 70
   257
  9
$OBSLTYPE
280
     0
  9
$INTERSECTIONDISPLAY
280
     0
  9
$INTERSECTIONCOLOR
 70
   257
  9
$DIMASSOC
280
     2
  9
$PROJECTNAME
  1

  9
$CAMERADISPLAY
290
     0
  9
$LENSLENGTH
 40
50.0
  9
$CAMERAHEIGHT
 40
0.0
  9
$STEPSPERSEC
 40
2.0
  9
$STEPSIZE
 40
6.0
  9
$3DDWFPREC
 40
2.0
  9
$PSOLWIDTH
 40
0.25
  9
$PSOLHEIGHT
 40
4.0
  9
$LOFTANG1
 40
1.570796326794897
  9
$LOFTANG2
 40
1.570796326794897
  9
$LOFTMAG1
 40
0.0
  9
$LOFTMAG2
 40
0.0
  9
$LOFTPARAM
 70
     7
  9
$LOFTNORMALS
280
     1
  9
$LATITUDE
 40
37.795
  9
$LONGITUDE
 40
-122.394
  9
$NORTHDIRECTION
 40
0.0
  9
$TIMEZONE
 70
 -8000
  9
$LIGHTGLYPHDISPLAY
280
     1
  9
$TILEMODELIGHTSYNCH
280
     1
  9
$CMATERIAL
347
3C
  9
$SOLIDHIST
280
     1
  9
$SHOWHIST
280
     1
  9
$DWFFRAME
280
     2
  9
$DGNFRAME
280
     2
  9
$REALWORLDSCALE
290
     1
  9
$INTERFERECOLOR
 62
   256
  9
$CSHADOW
280
     0
  9
$SHADOWPLANELOCATION
 40
0.0
  0
ENDSEC
  0
SECTION
  2
CLASSES
  0
CLASS
  1
ACDBDICTIONARYWDFLT
  2
AcDbDictionaryWithDefault
  3
ObjectDBX Classes
 90
        0
 91
        4
280
     0
281
     0
  0
CLASS
  1
VISUALSTYLE
  2
AcDbVisualStyle
  3
ObjectDBX Classes
 90
     4095
 91
        4
280
     0
281
     0
  0
CLASS
  1
MATERIAL
  2
AcDbMaterial
  3
ObjectDBX Classes
 90
     1153
 91
        4
280
     0
281
     0
  0
CLASS
  1
SUN
  2
AcDbSun
  3
SCENEOE
 90
     1024
 91
        4
280
     0
281
     0
  0
ENDSEC
  0
SECTION
  2
TABLES
  0
TABLE
  2
VPORT
  5
8
330
0
100
AcDbSymbolTable
 70
     1
  0
VPORT
  5
29
330
8
100
AcDbSymbolTableRecord
100
AcDbViewportTableRecord
  2
*Active
 70
     0
 10
0.0
 20
0.0
 11
1.0
 21
1.0
 12
0.0
 22
0.0
 13
0.0
 23
0.0
 14
0.5
 24
0.5
 15
0.5
 25
0.5
 16
0.0
 26
0.0
 36
1.0
 17
18.0
 27
13.1999994913737
 37
0.0
 40
26.39999898274739
 41
1.363636416180405
 42
50.0
 43
0.0
 44
0.0
 50
0.0
 51
0.0
 71
     0
 72
   100
 73
     1
 74
     3
 75
     0
 76
     0
 77
     0
 78
     0
281
     0
 65
     1
110
0.0
120
0.0
130
0.0
111
1.0
121
0.0
131
0.0
112
0.0
122
1.0
132
0.0
 79
     0
146
0.0
 60
     3
 61
     5
292
     1
282
     1
141
0.0
142
0.0
 63
   250
361
3F
  0
ENDTAB
  0
TABLE
  2
LTYPE
  5
5
330
0
100
AcDbSymbolTable
 70
     1
  0
LTYPE
  5
14
330
5
100
AcDbSymbolTableRecord
100
AcDbLinetypeTableRecord
  2
ByBlock
 70
     0
  3

 72
    65
 73
     0
 40
0.0
  0
LTYPE
  5
15
330
5
100
AcDbSymbolTableRecord
100
AcDbLinetypeTableRecord
  2
ByLayer
 70
     0
  3

 72
    65
 73
     0
 40
0.0
  0
LTYPE
  5
16
330
5
100
AcDbSymbolTableRecord
100
AcDbLinetypeTableRecord
  2
Continuous
 70
     0
  3
Solid line
 72
    65
 73
     0
 40
0.0
  0
ENDTAB
  0
TABLE
  2
LAYER
  5
2
330
0
100
AcDbSymbolTable
 70
     2
  0
LAYER
  5
10
330
2
100
AcDbSymbolTableRecord
100
AcDbLayerTableRecord
  2
0
 70
     0
 62
     7
  6
Continuous
370
    -3
390
F
347
3E
  0
LAYER
  5
40
330
2
100
AcDbSymbolTableRecord
100
AcDbLayerTableRecord
  2
Layer 1
 70
     0
 62
     7
  6
Continuous
370
    -3
390
F
347
3E
  0
ENDTAB
  0
TABLE
  2
STYLE
  5
3
330
0
100
AcDbSymbolTable
 70
     1
  0
STYLE
  5
11
330
3
100
AcDbSymbolTableRecord
100
AcDbTextStyleTableRecord
  2
Standard
 70
     0
 40
0.0
 41
1.0
 50
0.0
 71
     0
 42
0.2
  3
txt
  4

  0
ENDTAB
  0
TABLE
  2
VIEW
  5
6
330
0
100
AcDbSymbolTable
 70
     0
  0
ENDTAB
  0
TABLE
  2
UCS
  5
7
330
0
100
AcDbSymbolTable
 70
     0
  0
ENDTAB
  0
TABLE
  2
APPID
  5
9
330
0
100
AcDbSymbolTable
 70
     1
  0
APPID
  5
12
330
9
100
AcDbSymbolTableRecord
100
AcDbRegAppTableRecord
  2
ACAD
 70
     0
  0
ENDTAB
  0
TABLE
  2
DIMSTYLE
  5
A
330
0
100
AcDbSymbolTable
 70
     1
100
AcDbDimStyleTable
  0
DIMSTYLE
105
27
330
A
100
AcDbSymbolTableRecord
100
AcDbDimStyleTableRecord
  2
Standard
 70
     0
178
     0
340
11
  0
ENDTAB
  0
TABLE
  2
BLOCK_RECORD
  5
1
330
0
100
AcDbSymbolTable
 70
     5
  0
BLOCK_RECORD
  5
1F
330
1
100
AcDbSymbolTableRecord
100
AcDbBlockTableRecord
  2
*Model_Space
340
22
 70
     0
280
     1
281
     0
  0
BLOCK_RECORD
  5
1B
330
1
100
AcDbSymbolTableRecord
100
AcDbBlockTableRecord
  2
*Paper_Space
340
1E
 70
     0
280
     1
281
     0
  0
BLOCK_RECORD
  5
23
330
1
100
AcDbSymbolTableRecord
100
AcDbBlockTableRecord
  2
*Paper_Space0
340
26
 70
     0
280
     1
281
     0
  0
BLOCK_RECORD
  5
41
330
1
100
AcDbSymbolTableRecord
100
AcDbBlockTableRecord
  2
block 2
340
0
102
{BLKREFS
331
42
102
}
 70
     0
280
     1
281
     0
  0
BLOCK_RECORD
  5
46
330
1
100
AcDbSymbolTableRecord
100
AcDbBlockTableRecord
  2
block 3
340
0
102
{BLKREFS
331
47
102
}
 70
     0
280
     1
281
     0
  0
BLOCK_RECORD
  5
4B
330
1
100
AcDbSymbolTableRecord
100
AcDbBlockTableRecord
  2
block 4
340
0
102
{BLKREFS
331
4C
102
}
 70
     0
280
     1
281
     0
  0
BLOCK_RECORD
  5
63
330
1
100
AcDbSymbolTableRecord
100
AcDbBlockTableRecord
  2
block 5
340
0
102
{BLKREFS
331
64
102
}
 70
     0
280
     1
281
     0
  0
ENDTAB
  0
ENDSEC
  0
SECTION
  2
BLOCKS
  0
BLOCK
  5
20
330
1F
100
AcDbEntity
  8
0
100
AcDbBlockBegin
  2
*Model_Space
 70
     0
 10
0.0
 20
0.0
 30
0.0
  3
*Model_Space
  1

  0
ENDBLK
  5
21
330
1F
100
AcDbEntity
  8
0
100
AcDbBlockEnd
  0
BLOCK
  5
1C
330
1B
100
AcDbEntity
 67
     1
  8
0
100
AcDbBlockBegin
  2
*Paper_Space
 70
     0
 10
0.0
 20
0.0
 30
0.0
  3
*Paper_Space
  1

  0
ENDBLK
  5
1D
330
1B
100
AcDbEntity
 67
     1
  8
0
100
AcDbBlockEnd
  0
BLOCK
  5
24
330
23
100
AcDbEntity
  8
0
100
AcDbBlockBegin
  2
*Paper_Space0
 70
     0
 10
0.0
 20
0.0
 30
0.0
  3
*Paper_Space0
  1

  0
ENDBLK
  5
25
330
23
100
AcDbEntity
  8
0
100
AcDbBlockEnd
  0
BLOCK
  5
43
330
41
100
AcDbEntity
  8
0
100
AcDbBlockBegin
  2
block 2
 70
     0
 10
0.0
 20
0.0
 30
0.0
  3
block 2
  1

  0
SPLINE
  5
45
330
41
100
AcDbEntity
  8
Layer 1
 62
     1
420
 16716306
370
    35
100
AcDbSpline
210
0.0
220
0.0
230
1.0
 70
    11
 71
     3
 72
   611
 73
   607
 74
     0
 42
0.0000000001
 43
0.0000000001
 12
1.0
 22
0.0
 32
0.0
 13
1.0
 23
0.0
 33
0.0
 40
0.0
 40
0.0
 40
0.0
 40
0.0
 40
1.0
 40
1.0
 40
1.0
 40
2.0
 40
2.0
 40
2.0
 40
3.0
 40
3.0
 40
3.0
 40
4.0
 40
4.0
 40
4.0
 40
5.0
 40
5.0
 40
5.0
 40
6.0
 40
6.0
 40
6.0
 40
7.0
 40
7.0
 40
7.0
 40
8.0
 40
8.0
 40
8.0
 40
9.0
 40
9.0
 40
9.0
 40
10.0
 40
10.0
 40
10.0
 40
11.0
 40
11.0
 40
11.0
 40
12.0
 40
12.0
 40
12.0
 40
13.0
 40
13.0
 40
13.0
 40
14.0
 40
14.0
 40
14.0
 40
15.0
 40
15.0
 40
15.0
 40
16.0
 40
16.0
 40
16.0
 40
17.0
 40
17.0
 40
17.0
 40
18.0
 40
18.0
 40
18.0
 40
19.0
 40
19.0
 40
19.0
 40
20.0
 40
20.0
 40
20.0
 40
21.0
 40
21.0
 40
21.0
 40
22.0
 40
22.0
 40
22.0
 40
23.0
 40
23.0
 40
23.0
 40
24.0
 40
24.0
 40
24.0
 40
25.0
 40
25.0
 40
25.0
 40
26.0
 40
26.0
 40
26.0
 40
27.0
 40
27.0
 40
27.0
 40
28.0
 40
28.0
 40
28.0
 40
29.0
 40
29.0
 40
29.0
 40
30.0
 40
30.0
 40
30.0
 40
31.0
 40
31.0
 40
31.0
 40
32.0
 40
32.0
 40
32.0
 40
33.0
 40
33.0
 40
33.0
 40
34.0
 40
34.0
 40
34.0
 40
35.0
 40
35.0
 40
35.0
 40
36.0
 40
36.0
 40
36.0
 40
37.0
 40
37.0
 40
37.0
 40
38.0
 40
38.0
 40
38.0
 40
39.0
 40
39.0
 40
39.0
 40
40.0
 40
40.0
 40
40.0
 40
41.0
 40
41.0
 40
41.0
 40
42.0
 40
42.0
 40
42.0
 40
43.0
 40
43.0
 40
43.0
 40
44.0
 40
44.0
 40
44.0
 40
45.0
 40
45.0
 40
45.0
 40
46.0
 40
46.0
 40
46.0
 40
47.0
 40
47.0
 40
47.0
 40
48.0
 40
48.0
 40
48.0
 40
49.0
 40
49.0
 40
49.0
 40
50.0
 40
50.0
 40
50.0
 40
51.0
 40
51.0
 40
51.0
 40
52.0
 40
52.0
 40
52.0
 40
53.0
 40
53.0
 40
53.0
 40
54.0
 40
54.0
 40
54.0
 40
55.0
 40
55.0
 40
55.0
 40
56.0
 40
56.0
 40
56.0
 40
57.0
 40
57.0
 40
57.0
 40
58.0
 40
58.0
 40
58.0
 40
59.0
 40
59.0
 40
59.0
 40
60.0
 40
60.0
 40
60.0
 40
61.0
 40
61.0
 40
61.0
 40
62.0
 40
62.0
 40
62.0
 40
63.0
 40
63.0
 40
63.0
 40
64.0
 40
64.0
 40
64.0
 40
65.0
 40
65.0
 40
65.0
 40
66.0
 40
66.0
 40
66.0
 40
67.0
 40
67.0
 40
67.0
 40
68.0
 40
68.0
 40
68.0
 40
69.0
 40
69.0
 40
69.0
 40
70.0
 40
70.0
 40
70.0
 40
71.0
 40
71.0
 40
71.0
 40
72.0
 40
72.0
 40
72.0
 40
73.0
 40
73.0
 40
73.0
 40
74.0
 40
74.0
 40
74.0
 40
75.0
 40
75.0
 40
75.0
 40
76.0
 40
76.0
 40
76.0
 40
77.0
 40
77.0
 40
77.0
 40
78.0
 40
78.0
 40
78.0
 40
79.0
 40
79.0
 40
79.0
 40
80.0
 40
80.0
 40
80.0
 40
81.0
 40
81.0
 40
81.0
 40
82.0
 40
82.0
 40
82.0
 40
83.0
 40
83.0
 40
83.0
 40
84.0
 40
84.0
 40
84.0
 40
85.0
 40
85.0
 40
85.0
 40
86.0
 40
86.0
 40
86.0
 40
87.0
 40
87.0
 40
87.0
 40
88.0
 40
88.0
 40
88.0
 40
89.0
 40
89.0
 40
89.0
 40
90.0
 40
90.0
 40
90.0
 40
91.0
 40
91.0
 40
91.0
 40
92.0
 40
92.0
 40
92.0
 40
93.0
 40
93.0
 40
93.0
 40
94.0
 40
94.0
 40
94.0
 40
95.0
 40
95.0
 40
95.0
 40
96.0
 40
96.0
 40
96.0
 40
97.0
 40
97.0
 40
97.0
 40
98.0
 40
98.0
 40
98.0
 40
99.0
 40
99.0
 40
99.0
 40
100.0
 40
100.0
 40
100.0
 40
101.0
 40
101.0
 40
101.0
 40
102.0
 40
102.0
 40
102.0
 40
103.0
 40
103.0
 40
103.0
 40
104.0
 40
104.0
 40
104.0
 40
105.0
 40
105.0
 40
105.0
 40
106.0
 40
106.0
 40
106.0
 40
107.0
 40
107.0
 40
107.0
 40
108.0
 40
108.0
 40
108.0
 40
109.0
 40
109.0
 40
109.0
 40
110.0
 40
110.0
 40
110.0
 40
111.0
 40
111.0
 40
111.0
 40
112.0
 40
112.0
 40
112.0
 40
113.0
 40
113.0
 40
113.0
 40
114.0
 40
114.0
 40
114.0
 40
115.0
 40
115.0
 40
115.0
 40
116.0
 40
116.0
 40
116.0
 40
117.0
 40
117.0
 40
117.0
 40
118.0
 40
118.0
 40
118.0
 40
119.0
 40
119.0
 40
119.0
 40
120.0
 40
120.0
 40
120.0
 40
121.0
 40
121.0
 40
121.0
 40
122.0
 40
122.0
 40
122.0
 40
123.0
 40
123.0
 40
123.0
 40
124.0
 40
124.0
 40
124.0
 40
125.0
 40
125.0
 40
125.0
 40
126.0
 40
126.0
 40
126.0
 40
127.0
 40
127.0
 40
127.0
 40
128.0
 40
128.0
 40
128.0
 40
129.0
 40
129.0
 40
129.0
 40
130.0
 40
130.0
 40
130.0
 40
131.0
 40
131.0
 40
131.0
 40
132.0
 40
132.0
 40
132.0
 40
133.0
 40
133.0
 40
133.0
 40
134.0
 40
134.0
 40
134.0
 40
135.0
 40
135.0
 40
135.0
 40
136.0
 40
136.0
 40
136.0
 40
137.0
 40
137.0
 40
137.0
 40
138.0
 40
138.0
 40
138.0
 40
139.0
 40
139.0
 40
139.0
 40
140.0
 40
140.0
 40
140.0
 40
141.0
 40
141.0
 40
141.0
 40
142.0
 40
142.0
 40
142.0
 40
143.0
 40
143.0
 40
143.0
 40
144.0
 40
144.0
 40
144.0
 40
145.0
 40
145.0
 40
145.0
 40
146.0
 40
146.0
 40
146.0
 40
147.0
 40
147.0
 40
147.0
 40
148.0
 40
148.0
 40
148.0
 40
149.0
 40
149.0
 40
149.0
 40
150.0
 40
150.0
 40
150.0
 40
151.0
 40
151.0
 40
151.0
 40
152.0
 40
152.0
 40
152.0
 40
153.0
 40
153.0
 40
153.0
 40
154.0
 40
154.0
 40
154.0
 40
155.0
 40
155.0
 40
155.0
 40
156.0
 40
156.0
 40
156.0
 40
157.0
 40
157.0
 40
157.0
 40
158.0
 40
158.0
 40
158.0
 40
159.0
 40
159.0
 40
159.0
 40
160.0
 40
160.0
 40
160.0
 40
161.0
 40
161.0
 40
161.0
 40
162.0
 40
162.0
 40
162.0
 40
163.0
 40
163.0
 40
163.0
 40
164.0
 40
164.0
 40
164.0
 40
165.0
 40
165.0
 40
165.0
 40
166.0
 40
166.0
 40
166.0
 40
167.0
 40
167.0
 40
167.0
 40
168.0
 40
168.0
 40
168.0
 40
169.0
 40
169.0
 40
169.0
 40
170.0
 40
170.0
 40
170.0
 40
171.0
 40
171.0
 40
171.0
 40
172.0
 40
172.0
 40
172.0
 40
173.0
 40
173.0
 40
173.0
 40
174.0
 40
174.0
 40
174.0
 40
175.0
 40
175.0
 40
175.0
 40
176.0
 40
176.0
 40
176.0
 40
177.0
 40
177.0
 40
177.0
 40
178.0
 40
178.0
 40
178.0
 40
179.0
 40
179.0
 40
179.0
 40
180.0
 40
180.0
 40
180.0
 40
181.0
 40
181.0
 40
181.0
 40
182.0
 40
182.0
 40
182.0
 40
183.0
 40
183.0
 40
183.0
 40
184.0
 40
184.0
 40
184.0
 40
185.0
 40
185.0
 40
185.0
 40
186.0
 40
186.0
 40
186.0
 40
187.0
 40
187.0
 40
187.0
 40
188.0
 40
188.0
 40
188.0
 40
189.0
 40
189.0
 40
189.0
 40
190.0
 40
190.0
 40
190.0
 40
191.0
 40
191.0
 40
191.0
 40
192.0
 40
192.0
 40
192.0
 40
193.0
 40
193.0
 40
193.0
 40
194.0
 40
194.0
 40
194.0
 40
195.0
 40
195.0
 40
195.0
 40
196.0
 40
196.0
 40
196.0
 40
197.0
 40
197.0
 40
197.0
 40
198.0
 40
198.0
 40
198.0
 40
199.0
 40
199.0
 40
199.0
 40
200.0
 40
200.0
 40
200.0
 40
201.0
 40
201.0
 40
201.0
 40
202.0
 40
202.0
 40
202.0
 40
202.0
 10
11.6096691025628
 20
22.22351498074002
 30
0.0
 10
11.6096691025628
 20
22.22351498074002
 30
0.0
 10
11.38869688245985
 20
22.28726535373264
 30
0.0
 10
11.38869688245985
 20
22.28726535373264
 30
0.0
 10
11.38869688245985
 20
22.28726535373264
 30
0.0
 10
11.15703021155463
 20
22.36184861924913
 30
0.0
 10
11.15703021155463
 20
22.36184861924913
 30
0.0
 10
11.15703021155463
 20
22.36184861924913
 30
0.0
 10
10.91466914282905
 20
22.44809807671441
 30
0.0
 10
10.91466914282905
 20
22.44809807671441
 30
0.0
 10
10.91466914282905
 20
22.44809807671441
 30
0.0
 10
10.66230805714925
 20
22.54698689778646
 30
0.0
 10
10.66230805714925
 20
22.54698689778646
 30
0.0
 10
10.66230805714925
 20
22.54698689778646
 30
0.0
 10
10.4006413353814
 20
22.65893130832248
 30
0.0
 10
10.4006413353814
 20
22.65893130832248
 30
0.0
 10
10.4006413353814
 20
22.65893130832248
 30
0.0
 10
10.13119697570801
 20
22.78462643093533
 30
0.0
 10
10.13119697570801
 20
22.78462643093533
 30
0.0
 10
10.13119697570801
 20
22.78462643093533
 30
0.0
 10
9.856474770439995
 20
22.92351531982422
 30
0.0
 10
9.856474770439995
 20
22.92351531982422
 30
0.0
 10
9.856474770439995
 20
22.92351531982422
 30
0.0
 10
9.579946941799587
 20
23.07420942518446
 30
0.0
 10
9.579946941799587
 20
23.07420942518446
 30
0.0
 10
9.579946941799587
 20
23.07420942518446
 30
0.0
 10
9.305641386244032
 20
23.2351820203993
 30
0.0
 10
9.305641386244032
 20
23.2351820203993
 30
0.0
 10
9.305641386244032
 20
23.2351820203993
 30
0.0
 10
9.037724600897894
 20
23.40184868706597
 30
0.0
 10
9.037724600897894
 20
23.40184868706597
 30
0.0
 10
9.037724600897894
 20
23.40184868706597
 30
0.0
 10
8.780502531263563
 20
23.57351515028212
 30
0.0
 10
8.780502531263563
 20
23.57351515028212
 30
0.0
 10
8.780502531263563
 20
23.57351515028212
 30
0.0
 10
8.537585788302952
 20
23.74712626139323
 30
0.0
 10
8.537585788302952
 20
23.74712626139323
 30
0.0
 10
8.537585788302952
 20
23.74712626139323
 30
0.0
 10
8.31133566962348
 20
23.92073737250434
 30
0.0
 10
8.31133566962348
 20
23.92073737250434
 30
0.0
 10
8.31133566962348
 20
23.92073737250434
 30
0.0
 10
8.103002336290148
 20
24.09337615966797
 30
0.0
 10
8.103002336290148
 20
24.09337615966797
 30
0.0
 10
8.103002336290148
 20
24.09337615966797
 30
0.0
 10
7.913280063205295
 20
24.26448737250434
 30
0.0
 10
7.913280063205295
 20
24.26448737250434
 30
0.0
 10
7.913280063205295
 20
24.26448737250434
 30
0.0
 10
7.741891225179036
 20
24.43379296196832
 30
0.0
 10
7.741891225179036
 20
24.43379296196832
 30
0.0
 10
7.741891225179036
 20
24.43379296196832
 30
0.0
 10
7.741335974799262
 20
24.43379296196832
 30
0.0
 10
7.741335974799262
 20
24.43379296196832
 30
0.0
 10
7.741335974799262
 20
24.43379296196832
 30
0.0
 10
7.658002641465928
 20
24.13087632921007
 30
0.0
 10
7.658002641465928
 20
24.13087632921007
 30
0.0
 10
7.658002641465928
 20
24.13087632921007
 30
0.0
 10
7.658141242133246
 20
24.13087632921007
 30
0.0
 10
7.658141242133246
 20
24.13087632921007
 30
0.0
 10
7.658141242133246
 20
24.13087632921007
 30
0.0
 10
7.570641411675346
 20
23.68643188476562
 30
0.0
 10
7.570641411675346
 20
23.68643188476562
 30
0.0
 10
7.570641411675346
 20
23.68643188476562
 30
0.0
 10
7.570641411675346
 20
23.68587578667535
 30
0.0
 10
7.570641411675346
 20
23.68587578667535
 30
0.0
 10
7.570641411675346
 20
23.68587578667535
 30
0.0
 10
7.515085856119791
 20
23.40615420871311
 30
0.0
 10
7.515085856119791
 20
23.40615420871311
 30
0.0
 10
7.515085856119791
 20
23.40615420871311
 30
0.0
 10
7.515641530354817
 20
23.40559811062283
 30
0.0
 10
7.515641530354817
 20
23.40559811062283
 30
0.0
 10
7.515641530354817
 20
23.40559811062283
 30
0.0
 10
7.372169070773654
 20
23.48782094319661
 30
0.0
 10
7.372169070773654
 20
23.48782094319661
 30
0.0
 10
7.372169070773654
 20
23.48782094319661
 30
0.0
 10
7.220085991753471
 20
23.57879299587674
 30
0.0
 10
7.220085991753471
 20
23.57879299587674
 30
0.0
 10
7.220085991753471
 20
23.57879299587674
 30
0.0
 10
7.059530046251084
 20
23.67879316541883
 30
0.0
 10
7.059530046251084
 20
23.67879316541883
 30
0.0
 10
7.059530046251084
 20
23.67879316541883
 30
0.0
 10
6.890363481309678
 20
23.78782060411241
 30
0.0
 10
6.890363481309678
 20
23.78782060411241
 30
0.0
 10
6.890363481309678
 20
23.78782060411241
 30
0.0
 10
6.713419172498915
 20
23.90545908610026
 30
0.0
 10
6.713419172498915
 20
23.90545908610026
 30
0.0
 10
6.713419172498915
 20
23.90545908610026
 30
0.0
 10
6.529808044433594
 20
24.03129323323568
 30
0.0
 10
6.529808044433594
 20
24.03129323323568
 30
0.0
 10
6.529808044433594
 20
24.03129323323568
 30
0.0
 10
6.341335720486111
 20
24.16407097710503
 30
0.0
 10
6.341335720486111
 20
24.16407097710503
 30
0.0
 10
6.341335720486111
 20
24.16407097710503
 30
0.0
 10
6.150641547309028
 20
24.30295986599392
 30
0.0
 10
6.150641547309028
 20
24.30295986599392
 30
0.0
 10
6.150641547309028
 20
24.30295986599392
 30
0.0
 10
5.771891276041666
 20
24.58976491292318
 30
0.0
 10
5.771891276041666
 20
24.58976491292318
 30
0.0
 10
5.771891276041666
 20
24.58976491292318
 30
0.0
 10
5.588419172498915
 20
24.73545964558919
 30
0.0
 10
5.588419172498915
 20
24.73545964558919
 30
0.0
 10
5.588419172498915
 20
24.73545964558919
 30
0.0
 10
5.411196814643012
 20
24.88115395439996
 30
0.0
 10
5.411196814643012
 20
24.88115395439996
 30
0.0
 10
5.411196814643012
 20
24.88115395439996
 30
0.0
 10
5.240919325086805
 20
25.0260149637858
 30
0.0
 10
5.240919325086805
 20
25.0260149637858
 30
0.0
 10
5.240919325086805
 20
25.0260149637858
 30
0.0
 10
5.077446831597222
 20
25.16990407307943
 30
0.0
 10
5.077446831597222
 20
25.16990407307943
 30
0.0
 10
5.077446831597222
 20
25.16990407307943
 30
0.0
 10
4.922169155544704
 20
25.31254280938042
 30
0.0
 10
4.922169155544704
 20
25.31254280938042
 30
0.0
 10
4.922169155544704
 20
25.31254280938042
 30
0.0
 10
4.774391174316406
 20
25.45393159654405
 30
0.0
 10
4.774391174316406
 20
25.45393159654405
 30
0.0
 10
4.774391174316406
 20
25.45393159654405
 30
0.0
 10
4.77508544921875
 20
25.45393159654405
 30
0.0
 10
4.77508544921875
 20
25.45393159654405
 30
0.0
 10
4.77508544921875
 20
25.45393159654405
 30
0.0
 10
4.720363193088107
 20
25.28295940823025
 30
0.0
 10
4.720363193088107
 20
25.28295940823025
 30
0.0
 10
4.720363193088107
 20
25.28295940823025
 30
0.0
 10
4.668835957845052
 20
25.11115392049154
 30
0.0
 10
4.668835957845052
 20
25.11115392049154
 30
0.0
 10
4.668835957845052
 20
25.11115392049154
 30
0.0
 10
4.621197170681423
 20
24.93920940823025
 30
0.0
 10
4.621197170681423
 20
24.93920940823025
 30
0.0
 10
4.621197170681423
 20
24.93920940823025
 30
0.0
 10
4.578141106499566
 20
24.76920954386393
 30
0.0
 10
4.578141106499566
 20
24.76920954386393
 30
0.0
 10
4.578141106499566
 20
24.76920954386393
 30
0.0
 10
4.541058010525173
 20
24.60434850056966
 30
0.0
 10
4.541058010525173
 20
24.60434850056966
 30
0.0
 10
4.541058010525173
 20
24.60434850056966
 30
0.0
 10
4.525363498263888
 20
24.52504263983832
 30
0.0
 10
4.525363498263888
 20
24.52504263983832
 30
0.0
 10
4.525363498263888
 20
24.52504263983832
 30
0.0
 10
4.511474609375
 20
24.44837612575955
 30
0.0
 10
4.511474609375
 20
24.44837612575955
 30
0.0
 10
4.511474609375
 20
24.44837612575955
 30
0.0
 10
4.499669392903646
 20
24.37434853447808
 30
0.0
 10
4.499669392903646
 20
24.37434853447808
 30
0.0
 10
4.499669392903646
 20
24.37434853447808
 30
0.0
 10
4.489947001139322
 20
24.30323706732856
 30
0.0
 10
4.489947001139322
 20
24.30323706732856
 30
0.0
 10
4.489947001139322
 20
24.30323706732856
 30
0.0
 10
4.482030232747396
 20
24.23504299587674
 30
0.0
 10
4.482030232747396
 20
24.23504299587674
 30
0.0
 10
4.482030232747396
 20
24.23504299587674
 30
0.0
 10
4.476197136773004
 20
24.16962602403429
 30
0.0
 10
4.476197136773004
 20
24.16962602403429
 30
0.0
 10
4.476197136773004
 20
24.16962602403429
 30
0.0
 10
4.476197136773004
 20
24.16893174913194
 30
0.0
 10
4.476197136773004
 20
24.16893174913194
 30
0.0
 10
4.476197136773004
 20
24.16893174913194
 30
0.0
 10
4.430224948459201
 20
24.19532097710503
 30
0.0
 10
4.430224948459201
 20
24.19532097710503
 30
0.0
 10
4.430224948459201
 20
24.19532097710503
 30
0.0
 10
4.375502692328559
 20
24.22823757595486
 30
0.0
 10
4.375502692328559
 20
24.22823757595486
 30
0.0
 10
4.375502692328559
 20
24.22823757595486
 30
0.0
 10
4.312030368381076
 20
24.26768154568142
 30
0.0
 10
4.312030368381076
 20
24.26768154568142
 30
0.0
 10
4.312030368381076
 20
24.26768154568142
 30
0.0
 10
4.240363226996528
 20
24.31365373399522
 30
0.0
 10
4.240363226996528
 20
24.31365373399522
 30
0.0
 10
4.240363226996528
 20
24.31365373399522
 30
0.0
 10
4.161058213975695
 20
24.3653204176161
 30
0.0
 10
4.161058213975695
 20
24.3653204176161
 30
0.0
 10
4.161058213975695
 20
24.3653204176161
 30
0.0
 10
4.075224982367621
 20
24.4222649468316
 30
0.0
 10
4.075224982367621
 20
24.4222649468316
 30
0.0
 10
4.075224982367621
 20
24.4222649468316
 30
0.0
 10
3.890919155544704
 20
24.5472649468316
 30
0.0
 10
3.890919155544704
 20
24.5472649468316
 30
0.0
 10
3.890919155544704
 20
24.5472649468316
 30
0.0
 10
3.701613532172309
 20
24.67920939127604
 30
0.0
 10
3.701613532172309
 20
24.67920939127604
 30
0.0
 10
3.701613532172309
 20
24.67920939127604
 30
0.0
 10
3.519252353244358
 20
24.81032053629557
 30
0.0
 10
3.519252353244358
 20
24.81032053629557
 30
0.0
 10
3.519252353244358
 20
24.81032053629557
 30
0.0
 10
3.177029927571614
 20
25.07018152872721
 30
0.0
 10
3.177029927571614
 20
25.07018152872721
 30
0.0
 10
3.177029927571614
 20
25.07018152872721
 30
0.0
 10
3.001335991753472
 20
25.2090704176161
 30
0.0
 10
3.001335991753472
 20
25.2090704176161
 30
0.0
 10
3.001335991753472
 20
25.2090704176161
 30
0.0
 10
2.813418918185764
 20
25.36032062106662
 30
0.0
 10
2.813418918185764
 20
25.36032062106662
 30
0.0
 10
2.813418918185764
 20
25.36032062106662
 30
0.0
 10
2.615641276041667
 20
25.52184846666124
 30
0.0
 10
2.615641276041667
 20
25.52184846666124
 30
0.0
 10
2.615641276041667
 20
25.52184846666124
 30
0.0
 10
2.41536373562283
 20
25.68851513332791
 30
0.0
 10
2.41536373562283
 20
25.68851513332791
 30
0.0
 10
2.41536373562283
 20
25.68851513332791
 30
0.0
 10
2.222307840983073
 20
25.85268190171983
 30
0.0
 10
2.222307840983073
 20
25.85268190171983
 30
0.0
 10
2.222307840983073
 20
25.85268190171983
 30
0.0
 10
2.043974982367621
 20
26.00920952690972
 30
0.0
 10
2.043974982367621
 20
26.00920952690972
 30
0.0
 10
2.043974982367621
 20
26.00920952690972
 30
0.0
 10
1.961752149793837
 20
26.08365376790364
 30
0.0
 10
1.961752149793837
 20
26.08365376790364
 30
0.0
 10
1.961752149793837
 20
26.08365376790364
 30
0.0
 10
1.884390936957465
 20
26.15532048543294
 30
0.0
 10
1.884390936957465
 20
26.15532048543294
 30
0.0
 10
1.884390936957465
 20
26.15532048543294
 30
0.0
 10
1.812030368381076
 20
26.22476492987738
 30
0.0
 10
1.812030368381076
 20
26.22476492987738
 30
0.0
 10
1.812030368381076
 20
26.22476492987738
 30
0.0
 10
1.744807773166233
 20
26.29073715209961
 30
0.0
 10
1.744807773166233
 20
26.29073715209961
 30
0.0
 10
1.744807773166233
 20
26.29073715209961
 30
0.0
 10
1.744807773166233
 20
26.29073715209961
 30
0.0
 10
1.744807773166233
 20
26.29073715209961
 30
0.0
 10
1.744807773166233
 20
26.29073715209961
 30
0.0
 10
1.684946695963542
 20
26.11893166436089
 30
0.0
 10
1.684946695963542
 20
26.11893166436089
 30
0.0
 10
1.684946695963542
 20
26.11893166436089
 30
0.0
 10
1.626752217610677
 20
25.9278204176161
 30
0.0
 10
1.626752217610677
 20
25.9278204176161
 30
0.0
 10
1.626752217610677
 20
25.9278204176161
 30
0.0
 10
1.570086161295573
 20
25.71726523505317
 30
0.0
 10
1.570086161295573
 20
25.71726523505317
 30
0.0
 10
1.570086161295573
 20
25.71726523505317
 30
0.0
 10
1.514530605740017
 20
25.48754289415147
 30
0.0
 10
1.514530605740017
 20
25.48754289415147
 30
0.0
 10
1.514530605740017
 20
25.48754289415147
 30
0.0
 10
1.461613972981771
 20
25.23962614271376
 30
0.0
 10
1.461613972981771
 20
25.23962614271376
 30
0.0
 10
1.461613972981771
 20
25.23962614271376
 30
0.0
 10
1.411058213975694
 20
24.97573725382487
 30
0.0
 10
1.411058213975694
 20
24.97573725382487
 30
0.0
 10
1.411058213975694
 20
24.97573725382487
 30
0.0
 10
1.318835788302951
 20
24.42101499769423
 30
0.0
 10
1.318835788302951
 20
24.42101499769423
 30
0.0
 10
1.318835788302951
 20
24.42101499769423
 30
0.0
 10
1.278557671440972
 20
24.1432376437717
 30
0.0
 10
1.278557671440972
 20
24.1432376437717
 30
0.0
 10
1.278557671440972
 20
24.1432376437717
 30
0.0
 10
1.242724948459201
 20
23.87365383572049
 30
0.0
 10
1.242724948459201
 20
23.87365383572049
 30
0.0
 10
1.242724948459201
 20
23.87365383572049
 30
0.0
 10
1.212308247884115
 20
23.62004258897569
 30
0.0
 10
1.212308247884115
 20
23.62004258897569
 30
0.0
 10
1.212308247884115
 20
23.62004258897569
 30
0.0
 10
1.18772464328342
 20
23.38823699951172
 30
0.0
 10
1.18772464328342
 20
23.38823699951172
 30
0.0
 10
1.18772464328342
 20
23.38823699951172
 30
0.0
 10
1.169113159179688
 20
23.18254258897569
 30
0.0
 10
1.169113159179688
 20
23.18254258897569
 30
0.0
 10
1.169113159179688
 20
23.18254258897569
 30
0.0
 10
1.162168714735243
 20
23.09032101101345
 30
0.0
 10
1.162168714735243
 20
23.09032101101345
 30
0.0
 10
1.162168714735243
 20
23.09032101101345
 30
0.0
 10
1.156891716851128
 20
23.00532023111979
 30
0.0
 10
1.156891716851128
 20
23.00532023111979
 30
0.0
 10
1.156891716851128
 20
23.00532023111979
 30
0.0
 10
1.153002421061198
 20
22.92768181694878
 30
0.0
 10
1.153002421061198
 20
22.92768181694878
 30
0.0
 10
1.153002421061198
 20
22.92768181694878
 30
0.0
 10
1.150780571831597
 20
22.85740407307943
 30
0.0
 10
1.150780571831597
 20
22.85740407307943
 30
0.0
 10
1.150780571831597
 20
22.85740407307943
 30
0.0
 10
1.149947272406684
 20
22.79434797498915
 30
0.0
 10
1.149947272406684
 20
22.79434797498915
 30
0.0
 10
1.149947272406684
 20
22.79434797498915
 30
0.0
 10
1.150780571831597
 20
22.73879241943359
 30
0.0
 10
1.150780571831597
 20
22.73879241943359
 30
0.0
 10
1.150780571831597
 20
22.73879241943359
 30
0.0
 10
1.151474846733941
 20
22.73851521809896
 30
0.0
 10
1.151474846733941
 20
22.73851521809896
 30
0.0
 10
1.151474846733941
 20
22.73851521809896
 30
0.0
 10
0.1556413438585069
 20
22.73851521809896
 30
0.0
 10
0.1556413438585069
 20
22.73851521809896
 30
0.0
 10
0.1556413438585069
 20
22.73851521809896
 30
0.0
 10
0.1556413438585069
 20
22.73851521809896
 30
0.0
 10
0.1556413438585069
 20
22.73851521809896
 30
0.0
 10
0.0976511637369792
 20
22.73851521809896
 30
0.0
 10
0.0506413777669271
 20
22.69150543212891
 30
0.0
 10
0.0506413777669271
 20
22.63351525200738
 30
0.0
 10
0.0506413777669271
 20
22.63351525200738
 30
0.0
 10
0.0506413777669271
 20
22.63351525200738
 30
0.0
 10
0.0506413777669271
 20
22.63351525200738
 30
0.0
 10
0.0506413777669271
 20
22.63351525200738
 30
0.0
 10
0.0506413777669271
 20
22.12323760986328
 30
0.0
 10
0.0506413777669271
 20
22.12323760986328
 30
0.0
 10
0.0506413777669271
 20
22.12323760986328
 30
0.0
 10
0.0499471028645833
 20
22.12351481119791
 30
0.0
 10
0.0499471028645833
 20
22.12351481119791
 30
0.0
 10
0.0499471028645833
 20
22.12351481119791
 30
0.0
 10
0.0499471028645833
 20
21.61323716905382
 30
0.0
 10
0.0499471028645833
 20
21.61323716905382
 30
0.0
 10
0.0499471028645833
 20
21.61323716905382
 30
0.0
 10
0.0502243041992188
 20
21.61295912000868
 30
0.0
 10
0.0502243041992188
 20
21.61295912000868
 30
0.0
 10
0.0502243041992188
 20
21.55496893988715
 30
0.0
 10
0.0972340901692708
 20
21.5079591539171
 30
0.0
 10
0.1552242702907986
 20
21.5079591539171
 30
0.0
 10
0.1552242702907986
 20
21.5079591539171
 30
0.0
 10
0.1556413438585069
 20
21.50851525200738
 30
0.0
 10
0.1556413438585069
 20
21.50851525200738
 30
0.0
 10
0.1556413438585069
 20
21.50851525200738
 30
0.0
 10
1.151474846733941
 20
21.50851525200738
 30
0.0
 10
1.151474846733941
 20
21.50851525200738
 30
0.0
 10
1.151474846733941
 20
21.50851525200738
 30
0.0
 10
1.150780571831597
 20
21.50823720296224
 30
0.0
 10
1.150780571831597
 20
21.50823720296224
 30
0.0
 10
1.150780571831597
 20
21.50823720296224
 30
0.0
 10
1.149947272406684
 20
21.45268164740668
 30
0.0
 10
1.149947272406684
 20
21.45268164740668
 30
0.0
 10
1.149947272406684
 20
21.45268164740668
 30
0.0
 10
1.150780571831597
 20
21.38962639702691
 30
0.0
 10
1.150780571831597
 20
21.38962639702691
 30
0.0
 10
1.150780571831597
 20
21.38962639702691
 30
0.0
 10
1.153002421061198
 20
21.31934865315755
 30
0.0
 10
1.153002421061198
 20
21.31934865315755
 30
0.0
 10
1.153002421061198
 20
21.31934865315755
 30
0.0
 10
1.156891716851128
 20
21.24170939127604
 30
0.0
 10
1.156891716851128
 20
21.24170939127604
 30
0.0
 10
1.156891716851128
 20
21.24170939127604
 30
0.0
 10
1.162168714735243
 20
21.15670945909288
 30
0.0
 10
1.162168714735243
 20
21.15670945909288
 30
0.0
 10
1.162168714735243
 20
21.15670945909288
 30
0.0
 10
1.169113159179688
 20
21.06448703342014
 30
0.0
 10
1.169113159179688
 20
21.06448703342014
 30
0.0
 10
1.169113159179688
 20
21.06448703342014
 30
0.0
 10
1.18772464328342
 20
20.85879262288411
 30
0.0
 10
1.18772464328342
 20
20.85879262288411
 30
0.0
 10
1.18772464328342
 20
20.85879262288411
 30
0.0
 10
1.212308247884115
 20
20.62698703342014
 30
0.0
 10
1.212308247884115
 20
20.62698703342014
 30
0.0
 10
1.212308247884115
 20
20.62698703342014
 30
0.0
 10
1.242724948459201
 20
20.37337578667535
 30
0.0
 10
1.242724948459201
 20
20.37337578667535
 30
0.0
 10
1.242724948459201
 20
20.37337578667535
 30
0.0
 10
1.278557671440972
 20
20.10379282633463
 30
0.0
 10
1.278557671440972
 20
20.10379282633463
 30
0.0
 10
1.278557671440972
 20
20.10379282633463
 30
0.0
 10
1.318835788302951
 20
19.82601504855686
 30
0.0
 10
1.318835788302951
 20
19.82601504855686
 30
0.0
 10
1.318835788302951
 20
19.82601504855686
 30
0.0
 10
1.411058213975694
 20
19.27129279242621
 30
0.0
 10
1.411058213975694
 20
19.27129279242621
 30
0.0
 10
1.411058213975694
 20
19.27129279242621
 30
0.0
 10
1.461613972981771
 20
19.00740390353733
 30
0.0
 10
1.461613972981771
 20
19.00740390353733
 30
0.0
 10
1.461613972981771
 20
19.00740390353733
 30
0.0
 10
1.514530605740017
 20
18.75948757595486
 30
0.0
 10
1.514530605740017
 20
18.75948757595486
 30
0.0
 10
1.514530605740017
 20
18.75948757595486
 30
0.0
 10
1.570086161295573
 20
18.52976481119791
 30
0.0
 10
1.570086161295573
 20
18.52976481119791
 30
0.0
 10
1.570086161295573
 20
18.52976481119791
 30
0.0
 10
1.626752217610677
 20
18.31920962863498
 30
0.0
 10
1.626752217610677
 20
18.31920962863498
 30
0.0
 10
1.626752217610677
 20
18.31920962863498
 30
0.0
 10
1.684946695963542
 20
18.12809838189019
 30
0.0
 10
1.684946695963542
 20
18.12809838189019
 30
0.0
 10
1.684946695963542
 20
18.12809838189019
 30
0.0
 10
1.744807773166233
 20
17.95629289415147
 30
0.0
 10
1.744807773166233
 20
17.95629289415147
 30
0.0
 10
1.744807773166233
 20
17.95629289415147
 30
0.0
 10
1.745224846733941
 20
17.95504252115885
 30
0.0
 10
1.745224846733941
 20
17.95504252115885
 30
0.0
 10
1.745224846733941
 20
17.95504252115885
 30
0.0
 10
1.812446594238281
 20
18.02101474338108
 30
0.0
 10
1.812446594238281
 20
18.02101474338108
 30
0.0
 10
1.812446594238281
 20
18.02101474338108
 30
0.0
 10
1.884808010525173
 20
18.09045918782552
 30
0.0
 10
1.884808010525173
 20
18.09045918782552
 30
0.0
 10
1.884808010525173
 20
18.09045918782552
 30
0.0
 10
1.962169223361545
 20
18.16212632921007
 30
0.0
 10
1.962169223361545
 20
18.16212632921007
 30
0.0
 10
1.962169223361545
 20
18.16212632921007
 30
0.0
 10
2.044391208224826
 20
18.23657057020399
 30
0.0
 10
2.044391208224826
 20
18.23657057020399
 30
0.0
 10
2.044391208224826
 20
18.23657057020399
 30
0.0
 10
2.222724914550781
 20
18.39309861924913
 30
0.0
 10
2.222724914550781
 20
18.39309861924913
 30
0.0
 10
2.222724914550781
 20
18.39309861924913
 30
0.0
 10
2.415779961480034
 20
18.55726538764106
 30
0.0
 10
2.415779961480034
 20
18.55726538764106
 30
0.0
 10
2.415779961480034
 20
18.55726538764106
 30
0.0
 10
2.616058349609375
 20
18.72393205430772
 30
0.0
 10
2.616058349609375
 20
18.72393205430772
 30
0.0
 10
2.616058349609375
 20
18.72393205430772
 30
0.0
 10
2.813835991753472
 20
18.88545989990234
 30
0.0
 10
2.813835991753472
 20
18.88545989990234
 30
0.0
 10
2.813835991753472
 20
18.88545989990234
 30
0.0
 10
3.001752217610677
 20
19.03670925564236
 30
0.0
 10
3.001752217610677
 20
19.03670925564236
 30
0.0
 10
3.001752217610677
 20
19.03670925564236
 30
0.0
 10
3.177447001139323
 20
19.17559814453125
 30
0.0
 10
3.177447001139323
 20
19.17559814453125
 30
0.0
 10
3.177447001139323
 20
19.17559814453125
 30
0.0
 10
3.519669426812066
 20
19.43545956081814
 30
0.0
 10
3.519669426812066
 20
19.43545956081814
 30
0.0
 10
3.519669426812066
 20
19.43545956081814
 30
0.0
 10
3.702030605740017
 20
19.56657070583767
 30
0.0
 10
3.702030605740017
 20
19.56657070583767
 30
0.0
 10
3.702030605740017
 20
19.56657070583767
 30
0.0
 10
3.891335381401909
 20
19.69851515028212
 30
0.0
 10
3.891335381401909
 20
19.69851515028212
 30
0.0
 10
3.891335381401909
 20
19.69851515028212
 30
0.0
 10
4.075641208224826
 20
19.82351515028212
 30
0.0
 10
4.075641208224826
 20
19.82351515028212
 30
0.0
 10
4.075641208224826
 20
19.82351515028212
 30
0.0
 10
4.161474439832899
 20
19.88045925564236
 30
0.0
 10
4.161474439832899
 20
19.88045925564236
 30
0.0
 10
4.161474439832899
 20
19.88045925564236
 30
0.0
 10
4.240780300564236
 20
19.93212636311849
 30
0.0
 10
4.240780300564236
 20
19.93212636311849
 30
0.0
 10
4.240780300564236
 20
19.93212636311849
 30
0.0
 10
4.312446594238281
 20
19.97809855143229
 30
0.0
 10
4.312446594238281
 20
19.97809855143229
 30
0.0
 10
4.312446594238281
 20
19.97809855143229
 30
0.0
 10
4.375918918185763
 20
20.01754252115885
 30
0.0
 10
4.375918918185763
 20
20.01754252115885
 30
0.0
 10
4.375918918185763
 20
20.01754252115885
 30
0.0
 10
4.430641174316406
 20
20.05045912000868
 30
0.0
 10
4.430641174316406
 20
20.05045912000868
 30
0.0
 10
4.430641174316406
 20
20.05045912000868
 30
0.0
 10
4.476613362630208
 20
20.07684834798177
 30
0.0
 10
4.476613362630208
 20
20.07684834798177
 30
0.0
 10
4.476613362630208
 20
20.07684834798177
 30
0.0
 10
4.476197136773004
 20
20.07684834798177
 30
0.0
 10
4.476197136773004
 20
20.07684834798177
 30
0.0
 10
4.476197136773004
 20
20.07684834798177
 30
0.0
 10
4.482030232747396
 20
20.01143137613932
 30
0.0
 10
4.482030232747396
 20
20.01143137613932
 30
0.0
 10
4.482030232747396
 20
20.01143137613932
 30
0.0
 10
4.489947001139322
 20
19.9432373046875
 30
0.0
 10
4.489947001139322
 20
19.9432373046875
 30
0.0
 10
4.489947001139322
 20
19.9432373046875
 30
0.0
 10
4.499669392903646
 20
19.87212626139323
 30
0.0
 10
4.499669392903646
 20
19.87212626139323
 30
0.0
 10
4.499669392903646
 20
19.87212626139323
 30
0.0
 10
4.511474609375
 20
19.79809824625651
 30
0.0
 10
4.511474609375
 20
19.79809824625651
 30
0.0
 10
4.511474609375
 20
19.79809824625651
 30
0.0
 10
4.525363498263888
 20
19.72143130832248
 30
0.0
 10
4.525363498263888
 20
19.72143130832248
 30
0.0
 10
4.525363498263888
 20
19.72143130832248
 30
0.0
 10
4.541058010525173
 20
19.64212629530165
 30
0.0
 10
4.541058010525173
 20
19.64212629530165
 30
0.0
 10
4.541058010525173
 20
19.64212629530165
 30
0.0
 10
4.578141106499566
 20
19.47726525200738
 30
0.0
 10
4.578141106499566
 20
19.47726525200738
 30
0.0
 10
4.578141106499566
 20
19.47726525200738
 30
0.0
 10
4.621197170681423
 20
19.30726538764106
 30
0.0
 10
4.621197170681423
 20
19.30726538764106
 30
0.0
 10
4.621197170681423
 20
19.30726538764106
 30
0.0
 10
4.668835957845052
 20
19.13532087537977
 30
0.0
 10
4.668835957845052
 20
19.13532087537977
 30
0.0
 10
4.668835957845052
 20
19.13532087537977
 30
0.0
 10
4.720363193088107
 20
18.96351538764106
 30
0.0
 10
4.720363193088107
 20
18.96351538764106
 30
0.0
 10
4.720363193088107
 20
18.96351538764106
 30
0.0
 10
4.77508544921875
 20
18.79254319932726
 30
0.0
 10
4.77508544921875
 20
18.79254319932726
 30
0.0
 10
4.77508544921875
 20
18.79254319932726
 30
0.0
 10
4.774391174316406
 20
18.79254319932726
 30
0.0
 10
4.774391174316406
 20
18.79254319932726
 30
0.0
 10
4.774391174316406
 20
18.79254319932726
 30
0.0
 10
4.922863430447048
 20
18.93379296196832
 30
0.0
 10
4.922863430447048
 20
18.93379296196832
 30
0.0
 10
4.922863430447048
 20
18.93379296196832
 30
0.0
 10
5.078141530354817
 20
19.07643212212457
 30
0.0
 10
5.078141530354817
 20
19.07643212212457
 30
0.0
 10
5.078141530354817
 20
19.07643212212457
 30
0.0
 10
5.240919325086805
 20
19.2204598320855
 30
0.0
 10
5.240919325086805
 20
19.2204598320855
 30
0.0
 10
5.240919325086805
 20
19.2204598320855
 30
0.0
 10
5.411196814643012
 20
19.3642094930013
 30
0.0
 10
5.411196814643012
 20
19.3642094930013
 30
0.0
 10
5.411196814643012
 20
19.3642094930013
 30
0.0
 10
5.588419172498915
 20
19.50990380181207
 30
0.0
 10
5.588419172498915
 20
19.50990380181207
 30
0.0
 10
5.588419172498915
 20
19.50990380181207
 30
0.0
 10
5.771891276041666
 20
19.65559811062283
 30
0.0
 10
5.771891276041666
 20
19.65559811062283
 30
0.0
 10
5.771891276041666
 20
19.65559811062283
 30
0.0
 10
6.150641547309028
 20
19.94240400526258
 30
0.0
 10
6.150641547309028
 20
19.94240400526258
 30
0.0
 10
6.150641547309028
 20
19.94240400526258
 30
0.0
 10
6.341335720486111
 20
20.08129289415147
 30
0.0
 10
6.341335720486111
 20
20.08129289415147
 30
0.0
 10
6.341335720486111
 20
20.08129289415147
 30
0.0
 10
6.529808044433594
 20
20.21407063802083
 30
0.0
 10
6.529808044433594
 20
20.21407063802083
 30
0.0
 10
6.529808044433594
 20
20.21407063802083
 30
0.0
 10
6.713419172498915
 20
20.33990393744574
 30
0.0
 10
6.713419172498915
 20
20.33990393744574
 30
0.0
 10
6.713419172498915
 20
20.33990393744574
 30
0.0
 10
6.890363481309678
 20
20.45754241943359
 30
0.0
 10
6.890363481309678
 20
20.45754241943359
 30
0.0
 10
6.890363481309678
 20
20.45754241943359
 30
0.0
 10
7.059530046251084
 20
20.56657070583767
 30
0.0
 10
7.059530046251084
 20
20.56657070583767
 30
0.0
 10
7.059530046251084
 20
20.56657070583767
 30
0.0
 10
7.220085991753471
 20
20.66657087537977
 30
0.0
 10
7.220085991753471
 20
20.66657087537977
 30
0.0
 10
7.220085991753471
 20
20.66657087537977
 30
0.0
 10
7.372169070773654
 20
20.75754292805989
 30
0.0
 10
7.372169070773654
 20
20.75754292805989
 30
0.0
 10
7.372169070773654
 20
20.75754292805989
 30
0.0
 10
7.515641530354817
 20
20.83976491292318
 30
0.0
 10
7.515641530354817
 20
20.83976491292318
 30
0.0
 10
7.515641530354817
 20
20.83976491292318
 30
0.0
 10
7.515502505832248
 20
20.84032101101345
 30
0.0
 10
7.515502505832248
 20
20.84032101101345
 30
0.0
 10
7.515502505832248
 20
20.84032101101345
 30
0.0
 10
7.571058061387803
 20
20.56059858534071
 30
0.0
 10
7.571058061387803
 20
20.56059858534071
 30
0.0
 10
7.571058061387803
 20
20.56059858534071
 30
0.0
 10
7.570641411675346
 20
20.56115383572049
 30
0.0
 10
7.570641411675346
 20
20.56115383572049
 30
0.0
 10
7.570641411675346
 20
20.56115383572049
 30
0.0
 10
7.658141242133246
 20
20.11670939127604
 30
0.0
 10
7.658141242133246
 20
20.11670939127604
 30
0.0
 10
7.658141242133246
 20
20.11670939127604
 30
0.0
 10
7.657585991753471
 20
20.11559804280599
 30
0.0
 10
7.657585991753471
 20
20.11559804280599
 30
0.0
 10
7.657585991753471
 20
20.11559804280599
 30
0.0
 10
7.740919325086805
 20
19.81268141004774
 30
0.0
 10
7.740919325086805
 20
19.81268141004774
 30
0.0
 10
7.740919325086805
 20
19.81268141004774
 30
0.0
 10
7.741891225179036
 20
19.81268141004774
 30
0.0
 10
7.741891225179036
 20
19.81268141004774
 30
0.0
 10
7.741891225179036
 20
19.81268141004774
 30
0.0
 10
7.913280063205295
 20
19.98198699951172
 30
0.0
 10
7.913280063205295
 20
19.98198699951172
 30
0.0
 10
7.913280063205295
 20
19.98198699951172
 30
0.0
 10
8.102308061387804
 20
20.153931511773
 30
0.0
 10
8.102308061387804
 20
20.153931511773
 30
0.0
 10
8.102308061387804
 20
20.153931511773
 30
0.0
 10
8.310641394721136
 20
20.32657029893663
 30
0.0
 10
8.310641394721136
 20
20.32657029893663
 30
0.0
 10
8.310641394721136
 20
20.32657029893663
 30
0.0
 10
8.536891513400608
 20
20.50018141004774
 30
0.0
 10
8.536891513400608
 20
20.50018141004774
 30
0.0
 10
8.536891513400608
 20
20.50018141004774
 30
0.0
 10
8.779808044433594
 20
20.67379252115885
 30
0.0
 10
8.779808044433594
 20
20.67379252115885
 30
0.0
 10
8.779808044433594
 20
20.67379252115885
 30
0.0
 10
9.03703032599555
 20
20.8454598320855
 30
0.0
 10
9.03703032599555
 20
20.8454598320855
 30
0.0
 10
9.03703032599555
 20
20.8454598320855
 30
0.0
 10
9.304946899414062
 20
21.01212649875217
 30
0.0
 10
9.304946899414062
 20
21.01212649875217
 30
0.0
 10
9.304946899414062
 20
21.01212649875217
 30
0.0
 10
9.579946941799587
 20
21.1722649468316
 30
0.0
 10
9.579946941799587
 20
21.1722649468316
 30
0.0
 10
9.579946941799587
 20
21.1722649468316
 30
0.0
 10
9.856057908799913
 20
21.32282087537977
 30
0.0
 10
9.856057908799913
 20
21.32282087537977
 30
0.0
 10
9.856057908799913
 20
21.32282087537977
 30
0.0
 10
10.13078032599555
 20
21.46170976426866
 30
0.0
 10
10.13078032599555
 20
21.46170976426866
 30
0.0
 10
10.13078032599555
 20
21.46170976426866
 30
0.0
 10
10.40022468566895
 20
21.58740403917101
 30
0.0
 10
10.40022468566895
 20
21.58740403917101
 30
0.0
 10
10.40022468566895
 20
21.58740403917101
 30
0.0
 10
10.66189130147298
 20
21.69934844970703
 30
0.0
 10
10.66189130147298
 20
21.69934844970703
 30
0.0
 10
10.66189130147298
 20
21.69934844970703
 30
0.0
 10
10.91425249311659
 20
21.79823727077908
 30
0.0
 10
10.91425249311659
 20
21.79823727077908
 30
0.0
 10
10.91425249311659
 20
21.79823727077908
 30
0.0
 10
11.15661356184218
 20
21.88448757595486
 30
0.0
 10
11.15661356184218
 20
21.88448757595486
 30
0.0
 10
11.15661356184218
 20
21.88448757595486
 30
0.0
 10
11.38828023274739
 20
21.95907084147135
 30
0.0
 10
11.38828023274739
 20
21.95907084147135
 30
0.0
 10
11.38828023274739
 20
21.95907084147135
 30
0.0
 10
11.60925245285034
 20
22.02282036675347
 30
0.0
 10
11.60925245285034
 20
22.02282036675347
 30
0.0
 10
11.60925245285034
 20
22.02282036675347
 30
0.0
 10
11.60925245285034
 20
22.02282036675347
 30
0.0
 10
11.60925245285034
 20
22.02282036675347
 30
0.0
 10
11.60925245285034
 20
22.02282036675347
 30
0.0
 10
6.044807857937283
 20
22.02282036675347
 30
0.0
 10
6.044807857937283
 20
22.02282036675347
 30
0.0
 10
6.044807857937283
 20
22.02282036675347
 30
0.0
 10
6.044807857937283
 20
22.02282036675347
 30
0.0
 10
6.044807857937283
 20
22.02282036675347
 30
0.0
 10
6.044807857937283
 20
22.02282036675347
 30
0.0
 10
6.044807857937283
 20
22.12323760986328
 30
0.0
 10
6.044807857937283
 20
22.12323760986328
 30
0.0
 10
6.044807857937283
 20
22.12323760986328
 30
0.0
 10
6.044807857937283
 20
22.12323760986328
 30
0.0
 10
6.044807857937283
 20
22.12323760986328
 30
0.0
 10
6.044807857937283
 20
22.12323760986328
 30
0.0
 10
6.044807857937283
 20
22.22365400526258
 30
0.0
 10
6.044807857937283
 20
22.22365400526258
 30
0.0
 10
6.044807857937283
 20
22.22365400526258
 30
0.0
 10
6.044807857937283
 20
22.22365400526258
 30
0.0
 10
6.044807857937283
 20
22.22365400526258
 30
0.0
 10
6.044807857937283
 20
22.22365400526258
 30
0.0
 10
11.60925245285034
 20
22.22365400526258
 30
0.0
 10
11.60925245285034
 20
22.22365400526258
 30
0.0
 10
11.60925245285034
 20
22.22365400526258
 30
0.0
 10
11.6096691025628
 20
22.22351498074002
 30
0.0
 10
11.6096691025628
 20
22.22351498074002
 30
0.0
  0
ENDBLK
  5
44
330
41
100
AcDbEntity
  8
0
100
AcDbBlockEnd
  0
BLOCK
  5
48
330
46
100
AcDbEntity
  8
0
100
AcDbBlockBegin
  2
block 3
 70
     0
 10
0.0
 20
0.0
 30
0.0
  3
block 3
  1

  0
SPLINE
  5
4A
330
46
100
AcDbEntity
  8
Layer 1
 62
     1
420
 16716306
370
    35
100
AcDbSpline
210
0.0
220
0.0
230
1.0
 70
    11
 71
     3
 72
   623
 73
   619
 74
     0
 42
0.0000000001
 43
0.0000000001
 12
1.0
 22
0.0
 32
0.0
 13
1.0
 23
0.0
 33
0.0
 40
0.0
 40
0.0
 40
0.0
 40
0.0
 40
1.0
 40
1.0
 40
1.0
 40
2.0
 40
2.0
 40
2.0
 40
3.0
 40
3.0
 40
3.0
 40
4.0
 40
4.0
 40
4.0
 40
5.0
 40
5.0
 40
5.0
 40
6.0
 40
6.0
 40
6.0
 40
7.0
 40
7.0
 40
7.0
 40
8.0
 40
8.0
 40
8.0
 40
9.0
 40
9.0
 40
9.0
 40
10.0
 40
10.0
 40
10.0
 40
11.0
 40
11.0
 40
11.0
 40
12.0
 40
12.0
 40
12.0
 40
13.0
 40
13.0
 40
13.0
 40
14.0
 40
14.0
 40
14.0
 40
15.0
 40
15.0
 40
15.0
 40
16.0
 40
16.0
 40
16.0
 40
17.0
 40
17.0
 40
17.0
 40
18.0
 40
18.0
 40
18.0
 40
19.0
 40
19.0
 40
19.0
 40
20.0
 40
20.0
 40
20.0
 40
21.0
 40
21.0
 40
21.0
 40
22.0
 40
22.0
 40
22.0
 40
23.0
 40
23.0
 40
23.0
 40
24.0
 40
24.0
 40
24.0
 40
25.0
 40
25.0
 40
25.0
 40
26.0
 40
26.0
 40
26.0
 40
27.0
 40
27.0
 40
27.0
 40
28.0
 40
28.0
 40
28.0
 40
29.0
 40
29.0
 40
29.0
 40
30.0
 40
30.0
 40
30.0
 40
31.0
 40
31.0
 40
31.0
 40
32.0
 40
32.0
 40
32.0
 40
33.0
 40
33.0
 40
33.0
 40
34.0
 40
34.0
 40
34.0
 40
35.0
 40
35.0
 40
35.0
 40
36.0
 40
36.0
 40
36.0
 40
37.0
 40
37.0
 40
37.0
 40
38.0
 40
38.0
 40
38.0
 40
39.0
 40
39.0
 40
39.0
 40
40.0
 40
40.0
 40
40.0
 40
41.0
 40
41.0
 40
41.0
 40
42.0
 40
42.0
 40
42.0
 40
43.0
 40
43.0
 40
43.0
 40
44.0
 40
44.0
 40
44.0
 40
45.0
 40
45.0
 40
45.0
 40
46.0
 40
46.0
 40
46.0
 40
47.0
 40
47.0
 40
47.0
 40
48.0
 40
48.0
 40
48.0
 40
49.0
 40
49.0
 40
49.0
 40
50.0
 40
50.0
 40
50.0
 40
51.0
 40
51.0
 40
51.0
 40
52.0
 40
52.0
 40
52.0
 40
53.0
 40
53.0
 40
53.0
 40
54.0
 40
54.0
 40
54.0
 40
55.0
 40
55.0
 40
55.0
 40
56.0
 40
56.0
 40
56.0
 40
57.0
 40
57.0
 40
57.0
 40
58.0
 40
58.0
 40
58.0
 40
59.0
 40
59.0
 40
59.0
 40
60.0
 40
60.0
 40
60.0
 40
61.0
 40
61.0
 40
61.0
 40
62.0
 40
62.0
 40
62.0
 40
63.0
 40
63.0
 40
63.0
 40
64.0
 40
64.0
 40
64.0
 40
65.0
 40
65.0
 40
65.0
 40
66.0
 40
66.0
 40
66.0
 40
67.0
 40
67.0
 40
67.0
 40
68.0
 40
68.0
 40
68.0
 40
69.0
 40
69.0
 40
69.0
 40
70.0
 40
70.0
 40
70.0
 40
71.0
 40
71.0
 40
71.0
 40
72.0
 40
72.0
 40
72.0
 40
73.0
 40
73.0
 40
73.0
 40
74.0
 40
74.0
 40
74.0
 40
75.0
 40
75.0
 40
75.0
 40
76.0
 40
76.0
 40
76.0
 40
77.0
 40
77.0
 40
77.0
 40
78.0
 40
78.0
 40
78.0
 40
79.0
 40
79.0
 40
79.0
 40
80.0
 40
80.0
 40
80.0
 40
81.0
 40
81.0
 40
81.0
 40
82.0
 40
82.0
 40
82.0
 40
83.0
 40
83.0
 40
83.0
 40
84.0
 40
84.0
 40
84.0
 40
85.0
 40
85.0
 40
85.0
 40
86.0
 40
86.0
 40
86.0
 40
87.0
 40
87.0
 40
87.0
 40
88.0
 40
88.0
 40
88.0
 40
89.0
 40
89.0
 40
89.0
 40
90.0
 40
90.0
 40
90.0
 40
91.0
 40
91.0
 40
91.0
 40
92.0
 40
92.0
 40
92.0
 40
93.0
 40
93.0
 40
93.0
 40
94.0
 40
94.0
 40
94.0
 40
95.0
 40
95.0
 40
95.0
 40
96.0
 40
96.0
 40
96.0
 40
97.0
 40
97.0
 40
97.0
 40
98.0
 40
98.0
 40
98.0
 40
99.0
 40
99.0
 40
99.0
 40
100.0
 40
100.0
 40
100.0
 40
101.0
 40
101.0
 40
101.0
 40
102.0
 40
102.0
 40
102.0
 40
103.0
 40
103.0
 40
103.0
 40
104.0
 40
104.0
 40
104.0
 40
105.0
 40
105.0
 40
105.0
 40
106.0
 40
106.0
 40
106.0
 40
107.0
 40
107.0
 40
107.0
 40
108.0
 40
108.0
 40
108.0
 40
109.0
 40
109.0
 40
109.0
 40
110.0
 40
110.0
 40
110.0
 40
111.0
 40
111.0
 40
111.0
 40
112.0
 40
112.0
 40
112.0
 40
113.0
 40
113.0
 40
113.0
 40
114.0
 40
114.0
 40
114.0
 40
115.0
 40
115.0
 40
115.0
 40
116.0
 40
116.0
 40
116.0
 40
117.0
 40
117.0
 40
117.0
 40
118.0
 40
118.0
 40
118.0
 40
119.0
 40
119.0
 40
119.0
 40
120.0
 40
120.0
 40
120.0
 40
121.0
 40
121.0
 40
121.0
 40
122.0
 40
122.0
 40
122.0
 40
123.0
 40
123.0
 40
123.0
 40
124.0
 40
124.0
 40
124.0
 40
125.0
 40
125.0
 40
125.0
 40
126.0
 40
126.0
 40
126.0
 40
127.0
 40
127.0
 40
127.0
 40
128.0
 40
128.0
 40
128.0
 40
129.0
 40
129.0
 40
129.0
 40
130.0
 40
130.0
 40
130.0
 40
131.0
 40
131.0
 40
131.0
 40
132.0
 40
132.0
 40
132.0
 40
133.0
 40
133.0
 40
133.0
 40
134.0
 40
134.0
 40
134.0
 40
135.0
 40
135.0
 40
135.0
 40
136.0
 40
136.0
 40
136.0
 40
137.0
 40
137.0
 40
137.0
 40
138.0
 40
138.0
 40
138.0
 40
139.0
 40
139.0
 40
139.0
 40
140.0
 40
140.0
 40
140.0
 40
141.0
 40
141.0
 40
141.0
 40
142.0
 40
142.0
 40
142.0
 40
143.0
 40
143.0
 40
143.0
 40
144.0
 40
144.0
 40
144.0
 40
145.0
 40
145.0
 40
145.0
 40
146.0
 40
146.0
 40
146.0
 40
147.0
 40
147.0
 40
147.0
 40
148.0
 40
148.0
 40
148.0
 40
149.0
 40
149.0
 40
149.0
 40
150.0
 40
150.0
 40
150.0
 40
151.0
 40
151.0
 40
151.0
 40
152.0
 40
152.0
 40
152.0
 40
153.0
 40
153.0
 40
153.0
 40
154.0
 40
154.0
 40
154.0
 40
155.0
 40
155.0
 40
155.0
 40
156.0
 40
156.0
 40
156.0
 40
157.0
 40
157.0
 40
157.0
 40
158.0
 40
158.0
 40
158.0
 40
159.0
 40
159.0
 40
159.0
 40
160.0
 40
160.0
 40
160.0
 40
161.0
 40
161.0
 40
161.0
 40
162.0
 40
162.0
 40
162.0
 40
163.0
 40
163.0
 40
163.0
 40
164.0
 40
164.0
 40
164.0
 40
165.0
 40
165.0
 40
165.0
 40
166.0
 40
166.0
 40
166.0
 40
167.0
 40
167.0
 40
167.0
 40
168.0
 40
168.0
 40
168.0
 40
169.0
 40
169.0
 40
169.0
 40
170.0
 40
170.0
 40
170.0
 40
171.0
 40
171.0
 40
171.0
 40
172.0
 40
172.0
 40
172.0
 40
173.0
 40
173.0
 40
173.0
 40
174.0
 40
174.0
 40
174.0
 40
175.0
 40
175.0
 40
175.0
 40
176.0
 40
176.0
 40
176.0
 40
177.0
 40
177.0
 40
177.0
 40
178.0
 40
178.0
 40
178.0
 40
179.0
 40
179.0
 40
179.0
 40
180.0
 40
180.0
 40
180.0
 40
181.0
 40
181.0
 40
181.0
 40
182.0
 40
182.0
 40
182.0
 40
183.0
 40
183.0
 40
183.0
 40
184.0
 40
184.0
 40
184.0
 40
185.0
 40
185.0
 40
185.0
 40
186.0
 40
186.0
 40
186.0
 40
187.0
 40
187.0
 40
187.0
 40
188.0
 40
188.0
 40
188.0
 40
189.0
 40
189.0
 40
189.0
 40
190.0
 40
190.0
 40
190.0
 40
191.0
 40
191.0
 40
191.0
 40
192.0
 40
192.0
 40
192.0
 40
193.0
 40
193.0
 40
193.0
 40
194.0
 40
194.0
 40
194.0
 40
195.0
 40
195.0
 40
195.0
 40
196.0
 40
196.0
 40
196.0
 40
197.0
 40
197.0
 40
197.0
 40
198.0
 40
198.0
 40
198.0
 40
199.0
 40
199.0
 40
199.0
 40
200.0
 40
200.0
 40
200.0
 40
201.0
 40
201.0
 40
201.0
 40
202.0
 40
202.0
 40
202.0
 40
203.0
 40
203.0
 40
203.0
 40
204.0
 40
204.0
 40
204.0
 40
205.0
 40
205.0
 40
205.0
 40
206.0
 40
206.0
 40
206.0
 40
206.0
 10
12.0600833810038
 20
16.72757381863064
 30
0.0
 10
12.06000731595688
 20
16.66961585150825
 30
0.0
 10
12.01304187708431
 20
16.62264929877387
 30
0.0
 10
11.95508338345422
 20
16.62257300482856
 30
0.0
 10
11.95508338345422
 20
16.62257300482856
 30
0.0
 10
11.95508338345422
 20
16.62257300482856
 30
0.0
 10
11.95508338345422
 20
16.62257300482856
 30
0.0
 10
11.95508338345422
 20
16.62257300482856
 30
0.0
 10
10.95925002627902
 20
16.62257300482856
 30
0.0
 10
10.95925002627902
 20
16.62257300482856
 30
0.0
 10
10.95925002627902
 20
16.62257300482856
 30
0.0
 10
10.95966667599148
 20
16.62229495578342
 30
0.0
 10
10.95966667599148
 20
16.62229495578342
 30
0.0
 10
10.95966667599148
 20
16.62229495578342
 30
0.0
 10
10.96036116282145
 20
16.56673940022786
 30
0.0
 10
10.96036116282145
 20
16.56673940022786
 30
0.0
 10
10.96036116282145
 20
16.56673940022786
 30
0.0
 10
10.95966667599148
 20
16.50368499755859
 30
0.0
 10
10.95966667599148
 20
16.50368499755859
 30
0.0
 10
10.95966667599148
 20
16.50368499755859
 30
0.0
 10
10.95730559031169
 20
16.43340640597873
 30
0.0
 10
10.95730559031169
 20
16.43340640597873
 30
0.0
 10
10.95730559031169
 20
16.43340640597873
 30
0.0
 10
10.95355563693576
 20
16.35576799180772
 30
0.0
 10
10.95355563693576
 20
16.35576799180772
 30
0.0
 10
10.95355563693576
 20
16.35576799180772
 30
0.0
 10
10.9481389787462
 20
16.27076805962457
 30
0.0
 10
10.9481389787462
 20
16.27076805962457
 30
0.0
 10
10.9481389787462
 20
16.27076805962457
 30
0.0
 10
10.94119453430176
 20
16.17854563395182
 30
0.0
 10
10.94119453430176
 20
16.17854563395182
 30
0.0
 10
10.94119453430176
 20
16.17854563395182
 30
0.0
 10
10.92272228664822
 20
15.973267449273
 30
0.0
 10
10.92272228664822
 20
15.973267449273
 30
0.0
 10
10.92272228664822
 20
15.973267449273
 30
0.0
 10
10.89813889397515
 20
15.74146270751953
 30
0.0
 10
10.89813889397515
 20
15.74146270751953
 30
0.0
 10
10.89813889397515
 20
15.74146270751953
 30
0.0
 10
10.86772229936388
 20
15.48785146077474
 30
0.0
 10
10.86772229936388
 20
15.48785146077474
 30
0.0
 10
10.86772229936388
 20
15.48785146077474
 30
0.0
 10
10.83202785915799
 20
15.21743520100911
 30
0.0
 10
10.83202785915799
 20
15.21743520100911
 30
0.0
 10
10.83202785915799
 20
15.21743520100911
 30
0.0
 10
10.79161114162869
 20
14.93965742323134
 30
0.0
 10
10.79161114162869
 20
14.93965742323134
 30
0.0
 10
10.79161114162869
 20
14.93965742323134
 30
0.0
 10
10.69938892788357
 20
14.38493431939019
 30
0.0
 10
10.69938892788357
 20
14.38493431939019
 30
0.0
 10
10.69938892788357
 20
14.38493431939019
 30
0.0
 10
10.64883338080512
 20
14.1210454305013
 30
0.0
 10
10.64883338080512
 20
14.1210454305013
 30
0.0
 10
10.64883338080512
 20
14.1210454305013
 30
0.0
 10
10.59591674804688
 20
13.87312910291884
 30
0.0
 10
10.59591674804688
 20
13.87312910291884
 30
0.0
 10
10.59591674804688
 20
13.87312910291884
 30
0.0
 10
10.54105557335748
 20
13.64340633816189
 30
0.0
 10
10.54105557335748
 20
13.64340633816189
 30
0.0
 10
10.54105557335748
 20
13.64340633816189
 30
0.0
 10
10.48438898722331
 20
13.43285030788845
 30
0.0
 10
10.48438898722331
 20
13.43285030788845
 30
0.0
 10
10.48438898722331
 20
13.43285030788845
 30
0.0
 10
10.42619450887044
 20
13.24174075656467
 30
0.0
 10
10.42619450887044
 20
13.24174075656467
 30
0.0
 10
10.42619450887044
 20
13.24174075656467
 30
0.0
 10
10.3664722442627
 20
13.06993526882595
 30
0.0
 10
10.3664722442627
 20
13.06993526882595
 30
0.0
 10
10.3664722442627
 20
13.06993526882595
 30
0.0
 10
10.36702781253391
 20
13.07090674506293
 30
0.0
 10
10.36702781253391
 20
13.07090674506293
 30
0.0
 10
10.36702781253391
 20
13.07090674506293
 30
0.0
 10
10.29966672261556
 20
13.13687896728516
 30
0.0
 10
10.29966672261556
 20
13.13687896728516
 30
0.0
 10
10.29966672261556
 20
13.13687896728516
 30
0.0
 10
10.22730551825629
 20
13.2063234117296
 30
0.0
 10
10.22730551825629
 20
13.2063234117296
 30
0.0
 10
10.22730551825629
 20
13.2063234117296
 30
0.0
 10
10.14994451734755
 20
13.27799055311415
 30
0.0
 10
10.14994451734755
 20
13.27799055311415
 30
0.0
 10
10.14994451734755
 20
13.27799055311415
 30
0.0
 10
10.06772232055664
 20
13.35243479410807
 30
0.0
 10
10.06772232055664
 20
13.35243479410807
 30
0.0
 10
10.06772232055664
 20
13.35243479410807
 30
0.0
 10
9.889389038085938
 20
13.50896284315321
 30
0.0
 10
9.889389038085938
 20
13.50896284315321
 30
0.0
 10
9.889389038085938
 20
13.50896284315321
 30
0.0
 10
9.696333355373806
 20
13.67312876383463
 30
0.0
 10
9.696333355373806
 20
13.67312876383463
 30
0.0
 10
9.696333355373806
 20
13.67312876383463
 30
0.0
 10
9.496194415622286
 20
13.8397954305013
 30
0.0
 10
9.496194415622286
 20
13.8397954305013
 30
0.0
 10
9.496194415622286
 20
13.8397954305013
 30
0.0
 10
9.29827774895562
 20
14.00132327609592
 30
0.0
 10
9.29827774895562
 20
14.00132327609592
 30
0.0
 10
9.29827774895562
 20
14.00132327609592
 30
0.0
 10
9.110361099243164
 20
14.15257347954644
 30
0.0
 10
9.110361099243164
 20
14.15257347954644
 30
0.0
 10
9.110361099243164
 20
14.15257347954644
 30
0.0
 10
8.934666739569769
 20
14.29146236843533
 30
0.0
 10
8.934666739569769
 20
14.29146236843533
 30
0.0
 10
8.934666739569769
 20
14.29146236843533
 30
0.0
 10
8.592444525824652
 20
14.55132293701172
 30
0.0
 10
8.592444525824652
 20
14.55132293701172
 30
0.0
 10
8.592444525824652
 20
14.55132293701172
 30
0.0
 10
8.410083346896702
 20
14.68243492974175
 30
0.0
 10
8.410083346896702
 20
14.68243492974175
 30
0.0
 10
8.410083346896702
 20
14.68243492974175
 30
0.0
 10
8.220916748046875
 20
14.8143793741862
 30
0.0
 10
8.220916748046875
 20
14.8143793741862
 30
0.0
 10
8.220916748046875
 20
14.8143793741862
 30
0.0
 10
8.03647232055664
 20
14.9393793741862
 30
0.0
 10
8.03647232055664
 20
14.9393793741862
 30
0.0
 10
8.03647232055664
 20
14.9393793741862
 30
0.0
 10
7.950639088948567
 20
14.99632347954644
 30
0.0
 10
7.950639088948567
 20
14.99632347954644
 30
0.0
 10
7.950639088948567
 20
14.99632347954644
 30
0.0
 10
7.871333228217231
 20
15.04798973931207
 30
0.0
 10
7.871333228217231
 20
15.04798973931207
 30
0.0
 10
7.871333228217231
 20
15.04798973931207
 30
0.0
 10
7.799666510687934
 20
15.09396277533637
 30
0.0
 10
7.799666510687934
 20
15.09396277533637
 30
0.0
 10
7.799666510687934
 20
15.09396277533637
 30
0.0
 10
7.736194610595703
 20
15.13340674506293
 30
0.0
 10
7.736194610595703
 20
15.13340674506293
 30
0.0
 10
7.736194610595703
 20
15.13340674506293
 30
0.0
 10
7.68147235446506
 20
15.16632334391276
 30
0.0
 10
7.68147235446506
 20
15.16632334391276
 30
0.0
 10
7.68147235446506
 20
15.16632334391276
 30
0.0
 10
7.635500166151258
 20
15.19271257188585
 30
0.0
 10
7.635500166151258
 20
15.19271257188585
 30
0.0
 10
7.635500166151258
 20
15.19271257188585
 30
0.0
 10
7.635361141628689
 20
15.19090694851345
 30
0.0
 10
7.635361141628689
 20
15.19090694851345
 30
0.0
 10
7.635361141628689
 20
15.19090694851345
 30
0.0
 10
7.629527621799045
 20
15.12549082438151
 30
0.0
 10
7.629527621799045
 20
15.12549082438151
 30
0.0
 10
7.629527621799045
 20
15.12549082438151
 30
0.0
 10
7.621749877929688
 20
15.05729590521918
 30
0.0
 10
7.621749877929688
 20
15.05729590521918
 30
0.0
 10
7.621749877929688
 20
15.05729590521918
 30
0.0
 10
7.61147223578559
 20
14.98618486192491
 30
0.0
 10
7.61147223578559
 20
14.98618486192491
 30
0.0
 10
7.61147223578559
 20
14.98618486192491
 30
0.0
 10
7.599666595458984
 20
14.91215599907769
 30
0.0
 10
7.599666595458984
 20
14.91215599907769
 30
0.0
 10
7.599666595458984
 20
14.91215599907769
 30
0.0
 10
7.585777706570095
 20
14.83549075656467
 30
0.0
 10
7.585777706570095
 20
14.83549075656467
 30
0.0
 10
7.585777706570095
 20
14.83549075656467
 30
0.0
 10
7.57008319430881
 20
14.75618404812283
 30
0.0
 10
7.57008319430881
 20
14.75618404812283
 30
0.0
 10
7.57008319430881
 20
14.75618404812283
 30
0.0
 10
7.533139122856987
 20
14.59132300482856
 30
0.0
 10
7.533139122856987
 20
14.59132300482856
 30
0.0
 10
7.533139122856987
 20
14.59132300482856
 30
0.0
 10
7.490083482530381
 20
14.42132314046224
 30
0.0
 10
7.490083482530381
 20
14.42132314046224
 30
0.0
 10
7.490083482530381
 20
14.42132314046224
 30
0.0
 10
7.442305670844184
 20
14.24937862820095
 30
0.0
 10
7.442305670844184
 20
14.24937862820095
 30
0.0
 10
7.442305670844184
 20
14.24937862820095
 30
0.0
 10
7.390778011745876
 20
14.07757314046224
 30
0.0
 10
7.390778011745876
 20
14.07757314046224
 30
0.0
 10
7.390778011745876
 20
14.07757314046224
 30
0.0
 10
7.336055755615234
 20
13.90660179985894
 30
0.0
 10
7.336055755615234
 20
13.90660179985894
 30
0.0
 10
7.336055755615234
 20
13.90660179985894
 30
0.0
 10
7.33647240532769
 20
13.90660179985894
 30
0.0
 10
7.33647240532769
 20
13.90660179985894
 30
0.0
 10
7.33647240532769
 20
13.90660179985894
 30
0.0
 10
7.188694424099392
 20
14.04798973931207
 30
0.0
 10
7.188694424099392
 20
14.04798973931207
 30
0.0
 10
7.188694424099392
 20
14.04798973931207
 30
0.0
 10
7.033416748046875
 20
14.19062889946832
 30
0.0
 10
7.033416748046875
 20
14.19062889946832
 30
0.0
 10
7.033416748046875
 20
14.19062889946832
 30
0.0
 10
6.87022230360243
 20
14.33507368299696
 30
0.0
 10
6.87022230360243
 20
14.33507368299696
 30
0.0
 10
6.87022230360243
 20
14.33507368299696
 30
0.0
 10
6.699944390190971
 20
14.47993384467231
 30
0.0
 10
6.699944390190971
 20
14.47993384467231
 30
0.0
 10
6.699944390190971
 20
14.47993384467231
 30
0.0
 10
6.522722456190321
 20
14.62562815348307
 30
0.0
 10
6.522722456190321
 20
14.62562815348307
 30
0.0
 10
6.522722456190321
 20
14.62562815348307
 30
0.0
 10
6.339388953314887
 20
14.77132415771484
 30
0.0
 10
6.339388953314887
 20
14.77132415771484
 30
0.0
 10
6.339388953314887
 20
14.77132415771484
 30
0.0
 10
5.960639105902778
 20
15.05812835693359
 30
0.0
 10
5.960639105902778
 20
15.05812835693359
 30
0.0
 10
5.960639105902778
 20
15.05812835693359
 30
0.0
 10
5.769805484347873
 20
15.19701724582248
 30
0.0
 10
5.769805484347873
 20
15.19701724582248
 30
0.0
 10
5.769805484347873
 20
15.19701724582248
 30
0.0
 10
5.581333584255642
 20
15.32979583740234
 30
0.0
 10
5.581333584255642
 20
15.32979583740234
 30
0.0
 10
5.581333584255642
 20
15.32979583740234
 30
0.0
 10
5.397722456190321
 20
15.45562828911675
 30
0.0
 10
5.397722456190321
 20
15.45562828911675
 30
0.0
 10
5.397722456190321
 20
15.45562828911675
 30
0.0
 10
5.220777723524305
 20
15.57326846652561
 30
0.0
 10
5.220777723524305
 20
15.57326846652561
 30
0.0
 10
5.220777723524305
 20
15.57326846652561
 30
0.0
 10
5.052305433485243
 20
15.68229590521918
 30
0.0
 10
5.052305433485243
 20
15.68229590521918
 30
0.0
 10
5.052305433485243
 20
15.68229590521918
 30
0.0
 10
4.891610887315538
 20
15.78229522705078
 30
0.0
 10
4.891610887315538
 20
15.78229522705078
 30
0.0
 10
4.891610887315538
 20
15.78229522705078
 30
0.0
 10
4.739528232150607
 20
15.87326812744141
 30
0.0
 10
4.739528232150607
 20
15.87326812744141
 30
0.0
 10
4.739528232150607
 20
15.87326812744141
 30
0.0
 10
4.596194797092013
 20
15.95548926459418
 30
0.0
 10
4.596194797092013
 20
15.95548926459418
 30
0.0
 10
4.596194797092013
 20
15.95548926459418
 30
0.0
 10
4.595777723524305
 20
15.95493486192491
 30
0.0
 10
4.595777723524305
 20
15.95493486192491
 30
0.0
 10
4.595777723524305
 20
15.95493486192491
 30
0.0
 10
4.54022216796875
 20
15.67521243625217
 30
0.0
 10
4.54022216796875
 20
15.67521243625217
 30
0.0
 10
4.54022216796875
 20
15.67521243625217
 30
0.0
 10
4.540639241536458
 20
15.67521243625217
 30
0.0
 10
4.540639241536458
 20
15.67521243625217
 30
0.0
 10
4.540639241536458
 20
15.67521243625217
 30
0.0
 10
4.453000386555989
 20
15.23076799180772
 30
0.0
 10
4.453000386555989
 20
15.23076799180772
 30
0.0
 10
4.453000386555989
 20
15.23076799180772
 30
0.0
 10
4.453000386555989
 20
15.23021189371745
 30
0.0
 10
4.453000386555989
 20
15.23021189371745
 30
0.0
 10
4.453000386555989
 20
15.23021189371745
 30
0.0
 10
4.369667053222656
 20
14.9272961086697
 30
0.0
 10
4.369667053222656
 20
14.9272961086697
 30
0.0
 10
4.369667053222656
 20
14.9272961086697
 30
0.0
 10
4.370361328125
 20
14.92618391248915
 30
0.0
 10
4.370361328125
 20
14.92618391248915
 30
0.0
 10
4.370361328125
 20
14.92618391248915
 30
0.0
 10
4.175222608778212
 20
15.11785125732422
 30
0.0
 10
4.175222608778212
 20
15.11785125732422
 30
0.0
 10
4.175222608778212
 20
15.11785125732422
 30
0.0
 10
3.956333584255642
 20
15.31229570176866
 30
0.0
 10
3.956333584255642
 20
15.31229570176866
 30
0.0
 10
3.956333584255642
 20
15.31229570176866
 30
0.0
 10
3.71397230360243
 20
15.50798967149522
 30
0.0
 10
3.71397230360243
 20
15.50798967149522
 30
0.0
 10
3.71397230360243
 20
15.50798967149522
 30
0.0
 10
3.449111090766059
 20
15.70465681287977
 30
0.0
 10
3.449111090766059
 20
15.70465681287977
 30
0.0
 10
3.449111090766059
 20
15.70465681287977
 30
0.0
 10
3.164388868543837
 20
15.89993370903863
 30
0.0
 10
3.164388868543837
 20
15.89993370903863
 30
0.0
 10
3.164388868543837
 20
15.89993370903863
 30
0.0
 10
2.864111158582899
 20
16.09090593126085
 30
0.0
 10
2.864111158582899
 20
16.09090593126085
 30
0.0
 10
2.864111158582899
 20
16.09090593126085
 30
0.0
 10
2.554389105902778
 20
16.27368418375651
 30
0.0
 10
2.554389105902778
 20
16.27368418375651
 30
0.0
 10
2.554389105902778
 20
16.27368418375651
 30
0.0
 10
2.241472032335069
 20
16.44424014621311
 30
0.0
 10
2.241472032335069
 20
16.44424014621311
 30
0.0
 10
2.241472032335069
 20
16.44424014621311
 30
0.0
 10
1.931194729275173
 20
16.59965599907769
 30
0.0
 10
1.931194729275173
 20
16.59965599907769
 30
0.0
 10
1.931194729275173
 20
16.59965599907769
 30
0.0
 10
1.628417121039496
 20
16.73854488796658
 30
0.0
 10
1.628417121039496
 20
16.73854488796658
 30
0.0
 10
1.628417121039496
 20
16.73854488796658
 30
0.0
 10
1.33675045437283
 20
16.85965728759766
 30
0.0
 10
1.33675045437283
 20
16.85965728759766
 30
0.0
 10
1.33675045437283
 20
16.85965728759766
 30
0.0
 10
1.056889004177517
 20
16.96410030788845
 30
0.0
 10
1.056889004177517
 20
16.96410030788845
 30
0.0
 10
1.056889004177517
 20
16.96410030788845
 30
0.0
 10
0.7905002170138888
 20
17.05312856038411
 30
0.0
 10
0.7905002170138888
 20
17.05312856038411
 30
0.0
 10
0.7905002170138888
 20
17.05312856038411
 30
0.0
 10
0.5377222696940104
 20
17.12798987494575
 30
0.0
 10
0.5377222696940104
 20
17.12798987494575
 30
0.0
 10
0.5377222696940104
 20
17.12798987494575
 30
0.0
 10
0.2985560099283854
 20
17.1893793741862
 30
0.0
 10
0.2985560099283854
 20
17.1893793741862
 30
0.0
 10
0.2985560099283854
 20
17.1893793741862
 30
0.0
 10
0.0717502170138889
 20
17.23785146077474
 30
0.0
 10
0.0717502170138889
 20
17.23785146077474
 30
0.0
 10
0.0717502170138889
 20
17.23785146077474
 30
0.0
 10
0.0723054673936632
 20
17.23673926459418
 30
0.0
 10
0.0723054673936632
 20
17.23673926459418
 30
0.0
 10
0.0723054673936632
 20
17.23673926459418
 30
0.0
 10
0.2979999118381076
 20
17.28521304660373
 30
0.0
 10
0.2979999118381076
 20
17.28521304660373
 30
0.0
 10
0.2979999118381076
 20
17.28521304660373
 30
0.0
 10
0.537167019314236
 20
17.34660085042318
 30
0.0
 10
0.537167019314236
 20
17.34660085042318
 30
0.0
 10
0.537167019314236
 20
17.34660085042318
 30
0.0
 10
0.789944118923611
 20
17.42146216498481
 30
0.0
 10
0.789944118923611
 20
17.42146216498481
 30
0.0
 10
0.789944118923611
 20
17.42146216498481
 30
0.0
 10
1.056333753797743
 20
17.51049041748047
 30
0.0
 10
1.056333753797743
 20
17.51049041748047
 30
0.0
 10
1.056333753797743
 20
17.51049041748047
 30
0.0
 10
1.336194356282552
 20
17.61493428548177
 30
0.0
 10
1.336194356282552
 20
17.61493428548177
 30
0.0
 10
1.336194356282552
 20
17.61493428548177
 30
0.0
 10
1.627861022949219
 20
17.73604583740234
 30
0.0
 10
1.627861022949219
 20
17.73604583740234
 30
0.0
 10
1.627861022949219
 20
17.73604583740234
 30
0.0
 10
1.930638631184896
 20
17.87493472629123
 30
0.0
 10
1.930638631184896
 20
17.87493472629123
 30
0.0
 10
1.930638631184896
 20
17.87493472629123
 30
0.0
 10
2.240916781955295
 20
18.03035142686632
 30
0.0
 10
2.240916781955295
 20
18.03035142686632
 30
0.0
 10
2.240916781955295
 20
18.03035142686632
 30
0.0
 10
2.5538330078125
 20
18.20090654161241
 30
0.0
 10
2.5538330078125
 20
18.20090654161241
 30
0.0
 10
2.5538330078125
 20
18.20090654161241
 30
0.0
 10
2.863555908203125
 20
18.38368479410807
 30
0.0
 10
2.863555908203125
 20
18.38368479410807
 30
0.0
 10
2.863555908203125
 20
18.38368479410807
 30
0.0
 10
3.163833618164062
 20
18.5746570163303
 30
0.0
 10
3.163833618164062
 20
18.5746570163303
 30
0.0
 10
3.163833618164062
 20
18.5746570163303
 30
0.0
 10
3.448555840386284
 20
18.76993476019965
 30
0.0
 10
3.448555840386284
 20
18.76993476019965
 30
0.0
 10
3.448555840386284
 20
18.76993476019965
 30
0.0
 10
3.713417053222656
 20
18.9666010538737
 30
0.0
 10
3.713417053222656
 20
18.9666010538737
 30
0.0
 10
3.713417053222656
 20
18.9666010538737
 30
0.0
 10
3.955777486165364
 20
19.16229587131076
 30
0.0
 10
3.955777486165364
 20
19.16229587131076
 30
0.0
 10
3.955777486165364
 20
19.16229587131076
 30
0.0
 10
4.174666510687934
 20
19.35674031575521
 30
0.0
 10
4.174666510687934
 20
19.35674031575521
 30
0.0
 10
4.174666510687934
 20
19.35674031575521
 30
0.0
 10
4.369805230034722
 20
19.54840681287977
 30
0.0
 10
4.369805230034722
 20
19.54840681287977
 30
0.0
 10
4.369805230034722
 20
19.54840681287977
 30
0.0
 10
4.369805230034722
 20
19.54840681287977
 30
0.0
 10
4.369805230034722
 20
19.54840681287977
 30
0.0
 10
4.369805230034722
 20
19.54840681287977
 30
0.0
 10
4.453138563368055
 20
19.24549018012153
 30
0.0
 10
4.453138563368055
 20
19.24549018012153
 30
0.0
 10
4.453138563368055
 20
19.24549018012153
 30
0.0
 10
4.453000386555989
 20
19.24493408203125
 30
0.0
 10
4.453000386555989
 20
19.24493408203125
 30
0.0
 10
4.453000386555989
 20
19.24493408203125
 30
0.0
 10
4.540639241536458
 20
18.8004896375868
 30
0.0
 10
4.540639241536458
 20
18.8004896375868
 30
0.0
 10
4.540639241536458
 20
18.8004896375868
 30
0.0
 10
4.54008314344618
 20
18.8004896375868
 30
0.0
 10
4.54008314344618
 20
18.8004896375868
 30
0.0
 10
4.54008314344618
 20
18.8004896375868
 30
0.0
 10
4.595638699001736
 20
18.52076805962457
 30
0.0
 10
4.595638699001736
 20
18.52076805962457
 30
0.0
 10
4.595638699001736
 20
18.52076805962457
 30
0.0
 10
4.595638699001736
 20
18.52146233452691
 30
0.0
 10
4.595638699001736
 20
18.52146233452691
 30
0.0
 10
4.595638699001736
 20
18.52146233452691
 30
0.0
 10
4.738972134060329
 20
18.60368431939019
 30
0.0
 10
4.738972134060329
 20
18.60368431939019
 30
0.0
 10
4.738972134060329
 20
18.60368431939019
 30
0.0
 10
4.891055636935763
 20
18.69465637207031
 30
0.0
 10
4.891055636935763
 20
18.69465637207031
 30
0.0
 10
4.891055636935763
 20
18.69465637207031
 30
0.0
 10
5.052305433485243
 20
18.7934070163303
 30
0.0
 10
5.052305433485243
 20
18.7934070163303
 30
0.0
 10
5.052305433485243
 20
18.7934070163303
 30
0.0
 10
5.221333397759332
 20
18.90243445502387
 30
0.0
 10
5.221333397759332
 20
18.90243445502387
 30
0.0
 10
5.221333397759332
 20
18.90243445502387
 30
0.0
 10
5.398277706570095
 20
19.02007293701172
 30
0.0
 10
5.398277706570095
 20
19.02007293701172
 30
0.0
 10
5.398277706570095
 20
19.02007293701172
 30
0.0
 10
5.581888834635416
 20
19.14590708414713
 30
0.0
 10
5.581888834635416
 20
19.14590708414713
 30
0.0
 10
5.581888834635416
 20
19.14590708414713
 30
0.0
 10
5.769805484347873
 20
19.27951812744141
 30
0.0
 10
5.769805484347873
 20
19.27951812744141
 30
0.0
 10
5.769805484347873
 20
19.27951812744141
 30
0.0
 10
5.960639105902778
 20
19.4184070163303
 30
0.0
 10
5.960639105902778
 20
19.4184070163303
 30
0.0
 10
5.960639105902778
 20
19.4184070163303
 30
0.0
 10
6.339388953314887
 20
19.70521206325955
 30
0.0
 10
6.339388953314887
 20
19.70521206325955
 30
0.0
 10
6.339388953314887
 20
19.70521206325955
 30
0.0
 10
6.522722456190321
 20
19.85090637207031
 30
0.0
 10
6.522722456190321
 20
19.85090637207031
 30
0.0
 10
6.522722456190321
 20
19.85090637207031
 30
0.0
 10
6.699944390190971
 20
19.99660152859158
 30
0.0
 10
6.699944390190971
 20
19.99660152859158
 30
0.0
 10
6.699944390190971
 20
19.99660152859158
 30
0.0
 10
6.87022230360243
 20
20.14062923855252
 30
0.0
 10
6.87022230360243
 20
20.14062923855252
 30
0.0
 10
6.87022230360243
 20
20.14062923855252
 30
0.0
 10
7.033000098334418
 20
20.28465694851345
 30
0.0
 10
7.033000098334418
 20
20.28465694851345
 30
0.0
 10
7.033000098334418
 20
20.28465694851345
 30
0.0
 10
7.188277774386935
 20
20.4272952609592
 30
0.0
 10
7.188277774386935
 20
20.4272952609592
 30
0.0
 10
7.188277774386935
 20
20.4272952609592
 30
0.0
 10
7.336055755615234
 20
20.56868404812283
 30
0.0
 10
7.336055755615234
 20
20.56868404812283
 30
0.0
 10
7.336055755615234
 20
20.56868404812283
 30
0.0
 10
7.33647240532769
 20
20.56910112169054
 30
0.0
 10
7.33647240532769
 20
20.56910112169054
 30
0.0
 10
7.33647240532769
 20
20.56910112169054
 30
0.0
 10
7.391194661458333
 20
20.39812893337674
 30
0.0
 10
7.391194661458333
 20
20.39812893337674
 30
0.0
 10
7.391194661458333
 20
20.39812893337674
 30
0.0
 10
7.442722320556641
 20
20.22632344563802
 30
0.0
 10
7.442722320556641
 20
20.22632344563802
 30
0.0
 10
7.442722320556641
 20
20.22632344563802
 30
0.0
 10
7.490500132242838
 20
20.05437893337674
 30
0.0
 10
7.490500132242838
 20
20.05437893337674
 30
0.0
 10
7.490500132242838
 20
20.05437893337674
 30
0.0
 10
7.533555772569444
 20
19.88437906901041
 30
0.0
 10
7.533555772569444
 20
19.88437906901041
 30
0.0
 10
7.533555772569444
 20
19.88437906901041
 30
0.0
 10
7.570499844021267
 20
19.71951802571614
 30
0.0
 10
7.570499844021267
 20
19.71951802571614
 30
0.0
 10
7.570499844021267
 20
19.71951802571614
 30
0.0
 10
7.586194356282552
 20
19.64021216498481
 30
0.0
 10
7.586194356282552
 20
19.64021216498481
 30
0.0
 10
7.586194356282552
 20
19.64021216498481
 30
0.0
 10
7.60008324517144
 20
19.56354522705078
 30
0.0
 10
7.60008324517144
 20
19.56354522705078
 30
0.0
 10
7.60008324517144
 20
19.56354522705078
 30
0.0
 10
7.611888885498047
 20
19.48951805962457
 30
0.0
 10
7.611888885498047
 20
19.48951805962457
 30
0.0
 10
7.611888885498047
 20
19.48951805962457
 30
0.0
 10
7.621749877929688
 20
19.4184070163303
 30
0.0
 10
7.621749877929688
 20
19.4184070163303
 30
0.0
 10
7.621749877929688
 20
19.4184070163303
 30
0.0
 10
7.629110972086588
 20
19.34910074869791
 30
0.0
 10
7.629110972086588
 20
19.34910074869791
 30
0.0
 10
7.629110972086588
 20
19.34910074869791
 30
0.0
 10
7.634944491916232
 20
19.28368462456597
 30
0.0
 10
7.634944491916232
 20
19.28368462456597
 30
0.0
 10
7.634944491916232
 20
19.28368462456597
 30
0.0
 10
7.634944491916232
 20
19.28423987494574
 30
0.0
 10
7.634944491916232
 20
19.28423987494574
 30
0.0
 10
7.634944491916232
 20
19.28423987494574
 30
0.0
 10
7.680916680230034
 20
19.31062910291883
 30
0.0
 10
7.680916680230034
 20
19.31062910291883
 30
0.0
 10
7.680916680230034
 20
19.31062910291883
 30
0.0
 10
7.735638936360677
 20
19.34354570176866
 30
0.0
 10
7.735638936360677
 20
19.34354570176866
 30
0.0
 10
7.735638936360677
 20
19.34354570176866
 30
0.0
 10
7.799111260308159
 20
19.38298967149522
 30
0.0
 10
7.799111260308159
 20
19.38298967149522
 30
0.0
 10
7.799111260308159
 20
19.38298967149522
 30
0.0
 10
7.870777977837456
 20
19.42896185980903
 30
0.0
 10
7.870777977837456
 20
19.42896185980903
 30
0.0
 10
7.870777977837456
 20
19.42896185980903
 30
0.0
 10
7.950083414713541
 20
19.48062896728516
 30
0.0
 10
7.950083414713541
 20
19.48062896728516
 30
0.0
 10
7.950083414713541
 20
19.48062896728516
 30
0.0
 10
8.035916646321613
 20
19.5375730726454
 30
0.0
 10
8.035916646321613
 20
19.5375730726454
 30
0.0
 10
8.035916646321613
 20
19.5375730726454
 30
0.0
 10
8.220361073811848
 20
19.6625730726454
 30
0.0
 10
8.220361073811848
 20
19.6625730726454
 30
0.0
 10
8.220361073811848
 20
19.6625730726454
 30
0.0
 10
8.409527672661675
 20
19.79451751708984
 30
0.0
 10
8.409527672661675
 20
19.79451751708984
 30
0.0
 10
8.409527672661675
 20
19.79451751708984
 30
0.0
 10
8.591888851589626
 20
19.92562866210938
 30
0.0
 10
8.591888851589626
 20
19.92562866210938
 30
0.0
 10
8.591888851589626
 20
19.92562866210938
 30
0.0
 10
8.934111065334744
 20
20.18549007839627
 30
0.0
 10
8.934111065334744
 20
20.18549007839627
 30
0.0
 10
8.934111065334744
 20
20.18549007839627
 30
0.0
 10
9.109805636935763
 20
20.32437896728516
 30
0.0
 10
9.109805636935763
 20
20.32437896728516
 30
0.0
 10
9.109805636935763
 20
20.32437896728516
 30
0.0
 10
9.29772228664822
 20
20.47562917073568
 30
0.0
 10
9.29772228664822
 20
20.47562917073568
 30
0.0
 10
9.29772228664822
 20
20.47562917073568
 30
0.0
 10
9.495638953314886
 20
20.6371570163303
 30
0.0
 10
9.495638953314886
 20
20.6371570163303
 30
0.0
 10
9.495638953314886
 20
20.6371570163303
 30
0.0
 10
9.695777893066406
 20
20.80382368299696
 30
0.0
 10
9.695777893066406
 20
20.80382368299696
 30
0.0
 10
9.695777893066406
 20
20.80382368299696
 30
0.0
 10
9.88883336385091
 20
20.96798960367838
 30
0.0
 10
9.88883336385091
 20
20.96798960367838
 30
0.0
 10
9.88883336385091
 20
20.96798960367838
 30
0.0
 10
10.06716664632161
 20
21.12451765272352
 30
0.0
 10
10.06716664632161
 20
21.12451765272352
 30
0.0
 10
10.06716664632161
 20
21.12451765272352
 30
0.0
 10
10.14938884311252
 20
21.19896189371745
 30
0.0
 10
10.14938884311252
 20
21.19896189371745
 30
0.0
 10
10.14938884311252
 20
21.19896189371745
 30
0.0
 10
10.22675005594889
 20
21.27062903510199
 30
0.0
 10
10.22675005594889
 20
21.27062903510199
 30
0.0
 10
10.22675005594889
 20
21.27062903510199
 30
0.0
 10
10.29911115434435
 20
21.34007347954644
 30
0.0
 10
10.29911115434435
 20
21.34007347954644
 30
0.0
 10
10.29911115434435
 20
21.34007347954644
 30
0.0
 10
10.3664722442627
 20
21.40604570176866
 30
0.0
 10
10.3664722442627
 20
21.40604570176866
 30
0.0
 10
10.3664722442627
 20
21.40604570176866
 30
0.0
 10
10.3664722442627
 20
21.40493435329861
 30
0.0
 10
10.3664722442627
 20
21.40493435329861
 30
0.0
 10
10.3664722442627
 20
21.40493435329861
 30
0.0
 10
10.42619450887044
 20
21.23312886555989
 30
0.0
 10
10.42619450887044
 20
21.23312886555989
 30
0.0
 10
10.42619450887044
 20
21.23312886555989
 30
0.0
 10
10.48438898722331
 20
21.0420176188151
 30
0.0
 10
10.48438898722331
 20
21.0420176188151
 30
0.0
 10
10.48438898722331
 20
21.0420176188151
 30
0.0
 10
10.54105557335748
 20
20.83146243625217
 30
0.0
 10
10.54105557335748
 20
20.83146243625217
 30
0.0
 10
10.54105557335748
 20
20.83146243625217
 30
0.0
 10
10.59591674804688
 20
20.60173967149522
 30
0.0
 10
10.59591674804688
 20
20.60173967149522
 30
0.0
 10
10.59591674804688
 20
20.60173967149522
 30
0.0
 10
10.64883338080512
 20
20.35382334391276
 30
0.0
 10
10.64883338080512
 20
20.35382334391276
 30
0.0
 10
10.64883338080512
 20
20.35382334391276
 30
0.0
 10
10.69938892788357
 20
20.08993445502387
 30
0.0
 10
10.69938892788357
 20
20.08993445502387
 30
0.0
 10
10.69938892788357
 20
20.08993445502387
 30
0.0
 10
10.79161114162869
 20
19.53521219889323
 30
0.0
 10
10.79161114162869
 20
19.53521219889323
 30
0.0
 10
10.79161114162869
 20
19.53521219889323
 30
0.0
 10
10.83202785915799
 20
19.25743442111545
 30
0.0
 10
10.83202785915799
 20
19.25743442111545
 30
0.0
 10
10.83202785915799
 20
19.25743442111545
 30
0.0
 10
10.86772229936388
 20
18.98785146077474
 30
0.0
 10
10.86772229936388
 20
18.98785146077474
 30
0.0
 10
10.86772229936388
 20
18.98785146077474
 30
0.0
 10
10.89813889397515
 20
18.73437923855252
 30
0.0
 10
10.89813889397515
 20
18.73437923855252
 30
0.0
 10
10.89813889397515
 20
18.73437923855252
 30
0.0
 10
10.92272228664822
 20
18.50257364908854
 30
0.0
 10
10.92272228664822
 20
18.50257364908854
 30
0.0
 10
10.92272228664822
 20
18.50257364908854
 30
0.0
 10
10.9413333468967
 20
18.29687923855252
 30
0.0
 10
10.9413333468967
 20
18.29687923855252
 30
0.0
 10
10.9413333468967
 20
18.29687923855252
 30
0.0
 10
10.94827779134114
 20
18.20465681287977
 30
0.0
 10
10.94827779134114
 20
18.20465681287977
 30
0.0
 10
10.94827779134114
 20
18.20465681287977
 30
0.0
 10
10.95369444953071
 20
18.11965688069661
 30
0.0
 10
10.95369444953071
 20
18.11965688069661
 30
0.0
 10
10.95369444953071
 20
18.11965688069661
 30
0.0
 10
10.95744450887044
 20
18.0420176188151
 30
0.0
 10
10.95744450887044
 20
18.0420176188151
 30
0.0
 10
10.95744450887044
 20
18.0420176188151
 30
0.0
 10
10.95980559455024
 20
17.97173987494574
 30
0.0
 10
10.95980559455024
 20
17.97173987494574
 30
0.0
 10
10.95980559455024
 20
17.97173987494574
 30
0.0
 10
10.96050008138021
 20
17.90868462456597
 30
0.0
 10
10.96050008138021
 20
17.90868462456597
 30
0.0
 10
10.96050008138021
 20
17.90868462456597
 30
0.0
 10
10.95980559455024
 20
17.85312906901041
 30
0.0
 10
10.95980559455024
 20
17.85312906901041
 30
0.0
 10
10.95980559455024
 20
17.85312906901041
 30
0.0
 10
10.95925002627902
 20
17.85312906901041
 30
0.0
 10
10.95925002627902
 20
17.85312906901041
 30
0.0
 10
10.95925002627902
 20
17.85312906901041
 30
0.0
 10
11.95508338345422
 20
17.85312906901041
 30
0.0
 10
11.95508338345422
 20
17.85312906901041
 30
0.0
 10
11.95508338345422
 20
17.85312906901041
 30
0.0
 10
11.95563893847995
 20
17.85312906901041
 30
0.0
 10
11.95563893847995
 20
17.85312906901041
 30
0.0
 10
12.01359710097313
 20
17.8530527750651
 30
0.0
 10
12.06056240614918
 20
17.80608707004123
 30
0.0
 10
12.06063893644346
 20
17.74812910291883
 30
0.0
 10
12.06063893644346
 20
17.74812910291883
 30
0.0
 10
12.0600833810038
 20
17.74812910291883
 30
0.0
 10
12.0600833810038
 20
17.74812910291883
 30
0.0
 10
12.0600833810038
 20
17.74812910291883
 30
0.0
 10
12.0600833810038
 20
17.33826785617405
 30
0.0
 10
12.0600833810038
 20
17.33826785617405
 30
0.0
 10
12.0600833810038
 20
17.33826785617405
 30
0.0
 10
12.06063893644346
 20
17.33868492974175
 30
0.0
 10
12.06063893644346
 20
17.33868492974175
 30
0.0
 10
12.06063893644346
 20
17.33868492974175
 30
0.0
 10
11.61313894059923
 20
17.33868492974175
 30
0.0
 10
11.61313894059923
 20
17.33868492974175
 30
0.0
 10
11.61313894059923
 20
17.33868492974175
 30
0.0
 10
11.61369450887044
 20
17.33868492974175
 30
0.0
 10
11.61369450887044
 20
17.33868492974175
 30
0.0
 10
11.61369450887044
 20
17.33868492974175
 30
0.0
 10
6.066194322374131
 20
17.33868492974175
 30
0.0
 10
6.066194322374131
 20
17.33868492974175
 30
0.0
 10
6.066194322374131
 20
17.33868492974175
 30
0.0
 10
6.066194322374131
 20
17.33868492974175
 30
0.0
 10
6.066194322374131
 20
17.33868492974175
 30
0.0
 10
6.066194322374131
 20
17.33868492974175
 30
0.0
 10
6.066194322374131
 20
17.23785146077474
 30
0.0
 10
6.066194322374131
 20
17.23785146077474
 30
0.0
 10
6.066194322374131
 20
17.23785146077474
 30
0.0
 10
6.066194322374131
 20
17.23785146077474
 30
0.0
 10
6.066194322374131
 20
17.23785146077474
 30
0.0
 10
6.066194322374131
 20
17.23785146077474
 30
0.0
 10
6.066194322374131
 20
17.13743506537543
 30
0.0
 10
6.066194322374131
 20
17.13743506537543
 30
0.0
 10
6.066194322374131
 20
17.13743506537543
 30
0.0
 10
6.066194322374131
 20
17.13743506537543
 30
0.0
 10
6.066194322374131
 20
17.13743506537543
 30
0.0
 10
6.066194322374131
 20
17.13743506537543
 30
0.0
 10
11.61369450887044
 20
17.13743506537543
 30
0.0
 10
11.61369450887044
 20
17.13743506537543
 30
0.0
 10
11.61369450887044
 20
17.13743506537543
 30
0.0
 10
11.61383337444729
 20
17.13743506537543
 30
0.0
 10
11.61383337444729
 20
17.13743506537543
 30
0.0
 10
11.61383337444729
 20
17.13743506537543
 30
0.0
 10
12.06063893644346
 20
17.13743506537543
 30
0.0
 10
12.06063893644346
 20
17.13743506537543
 30
0.0
 10
12.06063893644346
 20
17.13743506537543
 30
0.0
 10
12.06063893644346
 20
17.13743506537543
 30
0.0
 10
12.06063893644346
 20
17.13743506537543
 30
0.0
 10
12.06063893644346
 20
17.13743506537543
 30
0.0
 10
12.06063893644346
 20
16.72757381863064
 30
0.0
 10
12.06063893644346
 20
16.72757381863064
 30
0.0
 10
12.06063893644346
 20
16.72757381863064
 30
0.0
 10
12.0600833810038
 20
16.72757381863064
 30
0.0
 10
12.0600833810038
 20
16.72757381863064
 30
0.0
  0
ENDBLK
  5
49
330
46
100
AcDbEntity
  8
0
100
AcDbBlockEnd
  0
BLOCK
  5
4D
330
4B
100
AcDbEntity
  8
0
100
AcDbBlockBegin
  2
block 4
 70
     0
 10
0.0
 20
0.0
 30
0.0
  3
block 4
  1

  0
SPLINE
  5
4F
330
4B
100
AcDbEntity
  8
Layer 1
 62
     1
420
 16716306
370
    35
100
AcDbSpline
210
0.0
220
0.0
230
1.0
 70
    11
 71
     3
 72
    17
 73
    13
 74
     0
 42
0.0000000001
 43
0.0000000001
 12
1.0
 22
0.0
 32
0.0
 13
1.0
 23
0.0
 33
0.0
 40
0.0
 40
0.0
 40
0.0
 40
0.0
 40
1.0
 40
1.0
 40
1.0
 40
2.0
 40
2.0
 40
2.0
 40
3.0
 40
3.0
 40
3.0
 40
4.0
 40
4.0
 40
4.0
 40
4.0
 10
0.0200273460812039
 20
12.76570722791884
 30
0.0
 10
0.0200273460812039
 20
14.23792945014106
 30
0.0
 10
1.214471764034695
 20
15.43237410651313
 30
0.0
 10
2.68669409222073
 20
15.43237410651313
 30
0.0
 10
4.158916314442952
 20
15.43237410651313
 30
0.0
 10
5.353360758887397
 20
14.23792945014106
 30
0.0
 10
5.353360758887397
 20
12.76570722791884
 30
0.0
 10
5.353360758887397
 20
11.29348500569661
 30
0.0
 10
4.158916314442952
 20
10.09904056125217
 30
0.0
 10
2.68669409222073
 20
10.09904056125217
 30
0.0
 10
1.214471869998508
 20
10.09904056125217
 30
0.0
 10
0.0200273460812039
 20
11.29348500569661
 30
0.0
 10
0.0200273460812039
 20
12.76570722791884
 30
0.0
  0
POLYLINE
  5
50
330
4B
100
AcDbEntity
  8
Layer 1
 62
     1
420
 16716306
370
    35
100
AcDb2dPolyline
 66
     1
 10
0.0
 20
0.0
 30
0.0
  0
VERTEX
  5
51
330
50
100
AcDbEntity
  8
Layer 1
 62
     1
420
 16716306
370
    35
100
AcDbVertex
100
AcDb2dVertex
 10
2.787110699547661
 20
12.15042961968316
 30
0.0
  0
VERTEX
  5
52
330
50
100
AcDbEntity
  8
Layer 1
 62
     1
420
 16716306
370
    35
100
AcDbVertex
100
AcDb2dVertex
 10
2.68669409222073
 20
12.15042961968316
 30
0.0
  0
VERTEX
  5
53
330
50
100
AcDbEntity
  8
Layer 1
 62
     1
420
 16716306
370
    35
100
AcDbVertex
100
AcDb2dVertex
 10
2.586416297488742
 20
12.15042961968316
 30
0.0
  0
VERTEX
  5
54
330
50
100
AcDbEntity
  8
Layer 1
 62
     1
420
 16716306
370
    35
100
AcDbVertex
100
AcDb2dVertex
 10
2.586416297488742
 20
12.66529083251953
 30
0.0
  0
VERTEX
  5
55
330
50
100
AcDbEntity
  8
Layer 1
 62
     1
420
 16716306
370
    35
100
AcDbVertex
100
AcDb2dVertex
 10
2.071555084652371
 20
12.66529083251953
 30
0.0
  0
VERTEX
  5
56
330
50
100
AcDbEntity
  8
Layer 1
 62
     1
420
 16716306
370
    35
100
AcDbVertex
100
AcDb2dVertex
 10
2.071555084652371
 20
12.76570722791884
 30
0.0
  0
VERTEX
  5
57
330
50
100
AcDbEntity
  8
Layer 1
 62
     1
420
 16716306
370
    35
100
AcDbVertex
100
AcDb2dVertex
 10
2.071555084652371
 20
12.86612404717339
 30
0.0
  0
VERTEX
  5
58
330
50
100
AcDbEntity
  8
Layer 1
 62
     1
420
 16716306
370
    35
100
AcDbVertex
100
AcDb2dVertex
 10
2.586416297488742
 20
12.86612404717339
 30
0.0
  0
VERTEX
  5
59
330
50
100
AcDbEntity
  8
Layer 1
 62
     1
420
 16716306
370
    35
100
AcDbVertex
100
AcDb2dVertex
 10
2.586416297488742
 20
13.38098526000977
 30
0.0
  0
VERTEX
  5
5A
330
50
100
AcDbEntity
  8
Layer 1
 62
     1
420
 16716306
370
    35
100
AcDbVertex
100
AcDb2dVertex
 10
2.68669409222073
 20
13.38098526000977
 30
0.0
  0
VERTEX
  5
5B
330
50
100
AcDbEntity
  8
Layer 1
 62
     1
420
 16716306
370
    35
100
AcDbVertex
100
AcDb2dVertex
 10
2.787110699547661
 20
13.38098526000977
 30
0.0
  0
VERTEX
  5
5C
330
50
100
AcDbEntity
  8
Layer 1
 62
     1
420
 16716306
370
    35
100
AcDbVertex
100
AcDb2dVertex
 10
2.787110699547661
 20
12.86612404717339
 30
0.0
  0
VERTEX
  5
5D
330
50
100
AcDbEntity
  8
Layer 1
 62
     1
420
 16716306
370
    35
100
AcDbVertex
100
AcDb2dVertex
 10
3.301971700456407
 20
12.86612404717339
 30
0.0
  0
VERTEX
  5
5E
330
50
100
AcDbEntity
  8
Layer 1
 62
     1
420
 16716306
370
    35
100
AcDbVertex
100
AcDb2dVertex
 10
3.301971700456407
 20
12.76570722791884
 30
0.0
  0
VERTEX
  5
5F
330
50
100
AcDbEntity
  8
Layer 1
 62
     1
420
 16716306
370
    35
100
AcDbVertex
100
AcDb2dVertex
 10
3.301971700456407
 20
12.66529083251953
 30
0.0
  0
VERTEX
  5
60
330
50
100
AcDbEntity
  8
Layer 1
 62
     1
420
 16716306
370
    35
100
AcDbVertex
100
AcDb2dVertex
 10
2.787110699547661
 20
12.66529083251953
 30
0.0
  0
VERTEX
  5
61
330
50
100
AcDbEntity
  8
Layer 1
 62
     1
420
 16716306
370
    35
100
AcDbVertex
100
AcDb2dVertex
 10
2.787110699547661
 20
12.15042961968316
 30
0.0
  0
SEQEND
  5
62
330
50
100
AcDbEntity
  8
Layer 1
 62
     1
420
 16716306
370
    35
  0
ENDBLK
  5
4E
330
4B
100
AcDbEntity
  8
0
100
AcDbBlockEnd
  0
BLOCK
  5
65
330
63
100
AcDbEntity
  8
0
100
AcDbBlockBegin
  2
block 5
 70
     0
 10
0.0
 20
0.0
 30
0.0
  3
block 5
  1

  0
SPLINE
  5
67
330
63
100
AcDbEntity
  8
Layer 1
 62
     1
420
 16716306
370
    35
100
AcDbSpline
210
0.0
220
0.0
230
1.0
 70
    11
 71
     3
 72
    17
 73
    13
 74
     0
 42
0.0000000001
 43
0.0000000001
 12
1.0
 22
0.0
 32
0.0
 13
1.0
 23
0.0
 33
0.0
 40
0.0
 40
0.0
 40
0.0
 40
0.0
 40
1.0
 40
1.0
 40
1.0
 40
2.0
 40
2.0
 40
2.0
 40
3.0
 40
3.0
 40
3.0
 40
4.0
 40
4.0
 40
4.0
 40
4.0
 10
11.00467172986061
 20
11.00311872694227
 30
0.0
 10
11.00467172986061
 20
9.392967685275607
 30
0.0
 10
9.698322794614997
 20
8.086618726942282
 30
0.0
 10
8.08817163705703
 20
8.086618726942282
 30
0.0
 10
6.478020595390363
 20
8.086618726942282
 30
0.0
 10
5.171671637057026
 20
9.392967685275607
 30
0.0
 10
5.171671637057026
 20
11.00311872694227
 30
0.0
 10
5.171671637057026
 20
12.61326976860894
 30
0.0
 10
6.478020595390363
 20
13.91961872694226
 30
0.0
 10
8.08817163705703
 20
13.91961872694226
 30
0.0
 10
9.698322678723697
 20
13.91961872694226
 30
0.0
 10
11.00467172986061
 20
12.61326976860894
 30
0.0
 10
11.00467172986061
 20
11.00311872694227
 30
0.0
  0
ENDBLK
  5
66
330
63
100
AcDbEntity
  8
0
100
AcDbBlockEnd
  0
ENDSEC
  0
SECTION
  2
ENTITIES
  0
INSERT
  5
42
330
1F
100
AcDbEntity
  8
Layer 1
100
AcDbBlockReference
  2
block 2
 10
0.0
 20
0.0
 30
0.0
  0
INSERT
  5
47
330
1F
100
AcDbEntity
  8
Layer 1
100
AcDbBlockReference
  2
block 3
 10
0.0
 20
0.0
 30
0.0
  0
INSERT
  5
4C
330
1F
100
AcDbEntity
  8
Layer 1
100
AcDbBlockReference
  2
block 4
 10
0.0
 20
0.0
 30
0.0
  0
INSERT
  5
64
330
1F
100
AcDbEntity
  8
Layer 1
100
AcDbBlockReference
  2
block 5
 10
0.0
 20
0.0
 30
0.0
  0
ENDSEC
  0
SECTION
  2
OBJECTS
  0
DICTIONARY
  5
C
330
0
100
AcDbDictionary
281
     1
  3
ACAD_GROUP
350
D
  3
ACAD_LAYOUT
350
1A
  3
ACAD_MATERIAL
350
3B
  3
ACAD_MLEADERSTYLE
350
69
  3
ACAD_MLINESTYLE
350
17
  3
ACAD_PLOTSETTINGS
350
19
  3
ACAD_PLOTSTYLENAME
350
E
  3
ACAD_TABLESTYLE
350
68
  3
ACAD_VISUALSTYLE
350
2A
  0
SUN
  5
3F
330
29
100
AcDbSun
 90
        1
290
     0
 63
     7
421
 16777215
 40
1.0
291
     1
 91
  2455826
 92
 54000000
292
     0
 70
     2
 71
   256
280
     1
  0
DICTIONARY
  5
D
102
{ACAD_REACTORS
330
C
102
}
330
C
100
AcDbDictionary
281
     1
  0
DICTIONARY
  5
1A
102
{ACAD_REACTORS
330
C
102
}
330
C
100
AcDbDictionary
281
     1
  3
Layout1
350
1E
  3
Layout2
350
26
  3
Model
350
22
  0
DICTIONARY
  5
3B
102
{ACAD_REACTORS
330
C
102
}
330
C
100
AcDbDictionary
281
     1
  3
ByBlock
350
3D
  3
ByLayer
350
3C
  3
Global
350
3E
  0
DICTIONARY
  5
69
102
{ACAD_REACTORS
330
C
102
}
330
C
100
AcDbDictionary
281
     1
  0
DICTIONARY
  5
17
102
{ACAD_REACTORS
330
C
102
}
330
C
100
AcDbDictionary
281
     1
  3
Standard
350
18
  0
DICTIONARY
  5
19
102
{ACAD_REACTORS
330
C
102
}
330
C
100
AcDbDictionary
281
     1
  0
ACDBDICTIONARYWDFLT
  5
E
102
{ACAD_REACTORS
330
C
102
}
330
C
100
AcDbDictionary
281
     1
  3
Normal
350
F
100
AcDbDictionaryWithDefault
340
F
  0
DICTIONARY
  5
68
102
{ACAD_REACTORS
330
C
102
}
330
C
100
AcDbDictionary
281
     1
  0
DICTIONARY
  5
2A
102
{ACAD_REACTORS
330
C
102
}
330
C
100
AcDbDictionary
281
     1
  3
2dWireframe
350
2F
  3
3D Hidden
350
31
  3
3dWireframe
350
30
  3
Basic
350
32
  3
Brighten
350
36
  3
ColorChange
350
3A
  3
Conceptual
350
34
  3
Dim
350
35
  3
Facepattern
350
39
  3
Flat
350
2B
  3
FlatWithEdges
350
2C
  3
Gouraud
350
2D
  3
GouraudWithEdges
350
2E
  3
Linepattern
350
38
  3
Realistic
350
33
  3
Thicken
350
37
  0
LAYOUT
  5
1E
102
{ACAD_REACTORS
330
1A
102
}
330
1A
100
AcDbPlotSettings
  1

  2
none_device
  4

  6

 40
0.0
 41
0.0
 42
0.0
 43
0.0
 44
0.0
 45
0.0
 46
0.0
 47
0.0
 48
0.0
 49
0.0
140
0.0
141
0.0
142
1.0
143
1.0
 70
   688
 72
     0
 73
     0
 74
     5
  7

 75
    16
 76
     0
 77
     2
 78
   300
147
1.0
148
0.0
149
0.0
100
AcDbLayout
  1
Layout1
 70
     1
 71
     1
 10
0.0
 20
0.0
 11
12.0
 21
9.0
 12
0.0
 22
0.0
 32
0.0
 14
1.000000000000000E+20
 24
1.000000000000000E+20
 34
1.000000000000000E+20
 15
-1.000000000000000E+20
 25
-1.000000000000000E+20
 35
-1.000000000000000E+20
146
0.0
 13
0.0
 23
0.0
 33
0.0
 16
1.0
 26
0.0
 36
0.0
 17
0.0
 27
1.0
 37
0.0
 76
     0
330
1B
  0
LAYOUT
  5
26
102
{ACAD_REACTORS
330
1A
102
}
330
1A
100
AcDbPlotSettings
  1

  2
none_device
  4

  6

 40
0.0
 41
0.0
 42
0.0
 43
0.0
 44
0.0
 45
0.0
 46
0.0
 47
0.0
 48
0.0
 49
0.0
140
0.0
141
0.0
142
1.0
143
1.0
 70
   688
 72
     0
 73
     0
 74
     5
  7

 75
    16
 76
     0
 77
     2
 78
   300
147
1.0
148
0.0
149
0.0
100
AcDbLayout
  1
Layout2
 70
     1
 71
     2
 10
0.0
 20
0.0
 11
0.0
 21
0.0
 12
0.0
 22
0.0
 32
0.0
 14
0.0
 24
0.0
 34
0.0
 15
0.0
 25
0.0
 35
0.0
146
0.0
 13
0.0
 23
0.0
 33
0.0
 16
1.0
 26
0.0
 36
0.0
 17
0.0
 27
1.0
 37
0.0
 76
     0
330
23
  0
LAYOUT
  5
22
102
{ACAD_REACTORS
330
1A
102
}
330
1A
100
AcDbPlotSettings
  1

  2
none_device
  4

  6

 40
0.0
 41
0.0
 42
0.0
 43
0.0
 44
0.0
 45
0.0
 46
0.0
 47
0.0
 48
0.0
 49
0.0
140
0.0
141
0.0
142
1.0
143
1.0
 70
  1712
 72
     0
 73
     0
 74
     0
  7

 75
     0
 76
     0
 77
     2
 78
   300
147
1.0
148
0.0
149
0.0
100
AcDbLayout
  1
Model
 70
     1
 71
     0
 10
0.0
 20
0.0
 11
12.0
 21
9.0
 12
0.0
 22
0.0
 32
0.0
 14
1.000000000000000E+20
 24
1.000000000000000E+20
 34
1.000000000000000E+20
 15
-1.000000000000000E+20
 25
-1.000000000000000E+20
 35
-1.000000000000000E+20
146
0.0
 13
0.0
 23
0.0
 33
0.0
 16
1.0
 26
0.0
 36
0.0
 17
0.0
 27
1.0
 37
0.0
 76
     0
330
1F
331
29
  0
MATERIAL
  5
3D
102
{ACAD_REACTORS
330
3B
102
}
330
3B
100
AcDbMaterial
  1
ByBlock
 72
     1
 94
      127
  0
MATERIAL
  5
3C
102
{ACAD_REACTORS
330
3B
102
}
330
3B
100
AcDbMaterial
  1
ByLayer
 72
     1
 94
      127
  0
MATERIAL
  5
3E
102
{ACAD_REACTORS
330
3B
102
}
330
3B
100
AcDbMaterial
  1
Global
 72
     1
 94
      127
  0
MLINESTYLE
  5
18
102
{ACAD_REACTORS
330
17
102
}
330
17
100
AcDbMlineStyle
  2
Standard
 70
     0
  3

 62
   256
 51
90.0
 52
90.0
 71
     2
 49
0.5
 62
   256
  6
BYLAYER
 49
-0.5
 62
   256
  6
BYLAYER
  0
ACDBPLACEHOLDER
  5
F
102
{ACAD_REACTORS
330
E
102
}
330
E
  0
VISUALSTYLE
  5
2F
102
{ACAD_REACTORS
330
2A
102
}
330
2A
100
AcDbVisualStyle
  2
2dWireframe
 70
     4
177
     2
291
     0
 71
     0
176
     1
 72
     2
176
     1
 73
     0
176
     1
 90
        0
176
     1
 40
-0.6
176
     1
 41
-30.0
176
     1
 62
     5
 63
     7
421
 16777215
176
     1
 74
     1
176
     1
 91
        4
176
     1
 64
     7
176
     1
 65
   257
176
     1
 75
     1
176
     1
175
     1
176
     1
 42
1.0
176
     1
 92
        0
176
     1
 66
   257
176
     1
 43
1.0
176
     1
 76
     1
176
     1
 77
     6
176
     1
 78
     2
176
     1
 67
     7
176
     1
 79
     5
176
     1
170
     0
176
     1
171
     0
176
     1
290
     0
176
     1
 93
        1
176
     1
 44
0.0
176
     1
173
     0
176
     1
  0
VISUALSTYLE
  5
31
102
{ACAD_REACTORS
330
2A
102
}
330
2A
100
AcDbVisualStyle
  2
3D Hidden
 70
     6
177
     2
291
     0
 71
     1
176
     1
 72
     2
176
     1
 73
     2
176
     1
 90
        0
176
     1
 40
-0.6
176
     1
 41
-30.0
176
     1
 62
     5
 63
     7
421
 16777215
176
     1
 74
     2
176
     1
 91
        2
176
     1
 64
     7
176
     1
 65
   257
176
     1
 75
     2
176
     1
175
     1
176
     1
 42
40.0
176
     1
 92
        0
176
     1
 66
   257
176
     1
 43
1.0
176
     1
 76
     1
176
     1
 77
     6
176
     1
 78
     2
176
     1
 67
     7
176
     1
 79
     3
176
     1
170
     0
176
     1
171
     0
176
     1
290
     0
176
     1
 93
        1
176
     1
 44
0.0
176
     1
173
     0
176
     1
  0
VISUALSTYLE
  5
30
102
{ACAD_REACTORS
330
2A
102
}
330
2A
100
AcDbVisualStyle
  2
3dWireframe
 70
     5
177
     2
291
     0
 71
     0
176
     1
 72
     2
176
     1
 73
     0
176
     1
 90
        0
176
     1
 40
-0.6
176
     1
 41
-30.0
176
     1
 62
     5
 63
     7
421
 16777215
176
     1
 74
     1
176
     1
 91
        4
176
     1
 64
     7
176
     1
 65
   257
176
     1
 75
     1
176
     1
175
     1
176
     1
 42
1.0
176
     1
 92
        0
176
     1
 66
   257
176
     1
 43
1.0
176
     1
 76
     1
176
     1
 77
     6
176
     1
 78
     2
176
     1
 67
     7
176
     1
 79
     5
176
     1
170
     0
176
     1
171
     0
176
     1
290
     0
176
     1
 93
        1
176
     1
 44
0.0
176
     1
173
     0
176
     1
  0
VISUALSTYLE
  5
32
102
{ACAD_REACTORS
330
2A
102
}
330
2A
100
AcDbVisualStyle
  2
Basic
 70
     7
177
     2
291
     1
 71
     1
176
     1
 72
     0
176
     1
 73
     1
176
     1
 90
        0
176
     1
 40
-0.6
176
     1
 41
-30.0
176
     1
 62
     5
 63
     7
421
 16777215
176
     1
 74
     0
176
     1
 91
        4
176
     1
 64
     7
176
     1
 65
   257
176
     1
 75
     1
176
     1
175
     1
176
     1
 42
1.0
176
     1
 92
        8
176
     1
 66
     7
176
     1
 43
1.0
176
     1
 76
     1
176
     1
 77
     6
176
     1
 78
     2
176
     1
 67
     7
176
     1
 79
     5
176
     1
170
     0
176
     1
171
     0
176
     1
290
     0
176
     1
 93
        1
176
     1
 44
0.0
176
     1
173
     0
176
     1
  0
VISUALSTYLE
  5
36
102
{ACAD_REACTORS
330
2A
102
}
330
2A
100
AcDbVisualStyle
  2
Brighten
 70
    12
177
     2
291
     1
 71
     2
176
     1
 72
     2
176
     1
 73
     0
176
     1
 90
        0
176
     1
 40
-0.6
176
     1
 41
-30.0
176
     1
 62
     5
 63
     7
421
 16777215
176
     1
 74
     1
176
     1
 91
        4
176
     1
 64
     7
176
     1
 65
   257
176
     1
 75
     1
176
     1
175
     1
176
     1
 42
1.0
176
     1
 92
        8
176
     1
 66
     7
176
     1
 43
1.0
176
     1
 76
     1
176
     1
 77
     6
176
     1
 78
     2
176
     1
 67
     7
176
     1
 79
     5
176
     1
170
     0
176
     1
171
     0
176
     1
290
     0
176
     1
 93
        1
176
     1
 44
50.0
176
     1
173
     0
176
     1
  0
VISUALSTYLE
  5
3A
102
{ACAD_REACTORS
330
2A
102
}
330
2A
100
AcDbVisualStyle
  2
ColorChange
 70
    16
177
     2
291
     1
 71
     2
176
     1
 72
     2
176
     1
 73
     3
176
     1
 90
        0
176
     1
 40
-0.6
176
     1
 41
-30.0
176
     1
 62
     5
 63
     8
421
  8421504
176
     1
 74
     1
176
     1
 91
        4
176
     1
 64
     7
176
     1
 65
   257
176
     1
 75
     1
176
     1
175
     1
176
     1
 42
1.0
176
     1
 92
        8
176
     1
 66
     8
424
  8421504
176
     1
 43
1.0
176
     1
 76
     1
176
     1
 77
     6
176
     1
 78
     2
176
     1
 67
     7
176
     1
 79
     5
176
     1
170
     0
176
     1
171
     0
176
     1
290
     0
176
     1
 93
        1
176
     1
 44
0.0
176
     1
173
     0
176
     1
  0
VISUALSTYLE
  5
34
102
{ACAD_REACTORS
330
2A
102
}
330
2A
100
AcDbVisualStyle
  2
Conceptual
 70
     9
177
     2
291
     0
 71
     3
176
     1
 72
     2
176
     1
 73
     0
176
     1
 90
        0
176
     1
 40
-0.6
176
     1
 41
-30.0
176
     1
 62
     5
 63
     7
421
 16777215
176
     1
 74
     2
176
     1
 91
        2
176
     1
 64
     7
176
     1
 65
   257
176
     1
 75
     1
176
     1
175
     1
176
     1
 42
40.0
176
     1
 92
        8
176
     1
 66
     7
176
     1
 43
1.0
176
     1
 76
     1
176
     1
 77
     6
176
     1
 78
     2
176
     1
 67
     7
176
     1
 79
     3
176
     1
170
     0
176
     1
171
     0
176
     1
290
     0
176
     1
 93
        1
176
     1
 44
0.0
176
     1
173
     0
176
     1
  0
VISUALSTYLE
  5
35
102
{ACAD_REACTORS
330
2A
102
}
330
2A
100
AcDbVisualStyle
  2
Dim
 70
    11
177
     2
291
     1
 71
     2
176
     1
 72
     2
176
     1
 73
     0
176
     1
 90
        0
176
     1
 40
-0.6
176
     1
 41
-30.0
176
     1
 62
     5
 63
     7
421
 16777215
176
     1
 74
     1
176
     1
 91
        4
176
     1
 64
     7
176
     1
 65
   257
176
     1
 75
     1
176
     1
175
     1
176
     1
 42
1.0
176
     1
 92
        8
176
     1
 66
     7
176
     1
 43
1.0
176
     1
 76
     1
176
     1
 77
     6
176
     1
 78
     2
176
     1
 67
     7
176
     1
 79
     5
176
     1
170
     0
176
     1
171
     0
176
     1
290
     0
176
     1
 93
        1
176
     1
 44
-50.0
176
     1
173
     0
176
     1
  0
VISUALSTYLE
  5
39
102
{ACAD_REACTORS
330
2A
102
}
330
2A
100
AcDbVisualStyle
  2
Facepattern
 70
    15
177
     2
291
     1
 71
     2
176
     1
 72
     2
176
     1
 73
     0
176
     1
 90
        0
176
     1
 40
-0.6
176
     1
 41
-30.0
176
     1
 62
     5
 63
     7
421
 16777215
176
     1
 74
     1
176
     1
 91
        4
176
     1
 64
     7
176
     1
 65
   257
176
     1
 75
     1
176
     1
175
     1
176
     1
 42
1.0
176
     1
 92
        8
176
     1
 66
     7
176
     1
 43
1.0
176
     1
 76
     1
176
     1
 77
     6
176
     1
 78
     2
176
     1
 67
     7
176
     1
 79
     5
176
     1
170
     0
176
     1
171
     0
176
     1
290
     0
176
     1
 93
        1
176
     1
 44
0.0
176
     1
173
     0
176
     1
  0
VISUALSTYLE
  5
2B
102
{ACAD_REACTORS
330
2A
102
}
330
2A
100
AcDbVisualStyle
  2
Flat
 70
     0
177
     2
291
     1
 71
     2
176
     1
 72
     1
176
     1
 73
     1
176
     1
 90
        2
176
     1
 40
-0.6
176
     1
 41
30.0
176
     1
 62
     5
 63
     7
421
 16777215
176
     1
 74
     0
176
     1
 91
        4
176
     1
 64
     7
176
     1
 65
   257
176
     1
 75
     1
176
     1
175
     1
176
     1
 42
1.0
176
     1
 92
        8
176
     1
 66
     7
176
     1
 43
1.0
176
     1
 76
     1
176
     1
 77
     6
176
     1
 78
     2
176
     1
 67
     7
176
     1
 79
     5
176
     1
170
     0
176
     1
171
     0
176
     1
290
     0
176
     1
 93
       13
176
     1
 44
0.0
176
     1
173
     0
176
     1
  0
VISUALSTYLE
  5
2C
102
{ACAD_REACTORS
330
2A
102
}
330
2A
100
AcDbVisualStyle
  2
FlatWithEdges
 70
     1
177
     2
291
     1
 71
     2
176
     1
 72
     1
176
     1
 73
     1
176
     1
 90
        2
176
     1
 40
-0.6
176
     1
 41
30.0
176
     1
 62
     5
 63
     7
421
 16777215
176
     1
 74
     1
176
     1
 91
        4
176
     1
 64
     7
176
     1
 65
   257
176
     1
 75
     1
176
     1
175
     1
176
     1
 42
1.0
176
     1
 92
        0
176
     1
 66
   257
176
     1
 43
1.0
176
     1
 76
     1
176
     1
 77
     6
176
     1
 78
     2
176
     1
 67
     7
176
     1
 79
     5
176
     1
170
     0
176
     1
171
     0
176
     1
290
     0
176
     1
 93
       13
176
     1
 44
0.0
176
     1
173
     0
176
     1
  0
VISUALSTYLE
  5
2D
102
{ACAD_REACTORS
330
2A
102
}
330
2A
100
AcDbVisualStyle
  2
Gouraud
 70
     2
177
     2
291
     1
 71
     2
176
     1
 72
     2
176
     1
 73
     1
176
     1
 90
        2
176
     1
 40
-0.6
176
     1
 41
30.0
176
     1
 62
     5
 63
     7
421
 16777215
176
     1
 74
     0
176
     1
 91
        4
176
     1
 64
     7
176
     1
 65
   257
176
     1
 75
     1
176
     1
175
     1
176
     1
 42
1.0
176
     1
 92
        0
176
     1
 66
     7
176
     1
 43
1.0
176
     1
 76
     1
176
     1
 77
     6
176
     1
 78
     2
176
     1
 67
     7
176
     1
 79
     5
176
     1
170
     0
176
     1
171
     0
176
     1
290
     0
176
     1
 93
       13
176
     1
 44
0.0
176
     1
173
     0
176
     1
  0
VISUALSTYLE
  5
2E
102
{ACAD_REACTORS
330
2A
102
}
330
2A
100
AcDbVisualStyle
  2
GouraudWithEdges
 70
     3
177
     2
291
     1
 71
     2
176
     1
 72
     2
176
     1
 73
     1
176
     1
 90
        2
176
     1
 40
-0.6
176
     1
 41
30.0
176
     1
 62
     5
 63
     7
421
 16777215
176
     1
 74
     1
176
     1
 91
        4
176
     1
 64
     7
176
     1
 65
   257
176
     1
 75
     1
176
     1
175
     1
176
     1
 42
1.0
176
     1
 92
        0
176
     1
 66
   257
176
     1
 43
1.0
176
     1
 76
     1
176
     1
 77
     6
176
     1
 78
     2
176
     1
 67
     7
176
     1
 79
     5
176
     1
170
     0
176
     1
171
     0
176
     1
290
     0
176
     1
 93
       13
176
     1
 44
0.0
176
     1
173
     0
176
     1
  0
VISUALSTYLE
  5
38
102
{ACAD_REACTORS
330
2A
102
}
330
2A
100
AcDbVisualStyle
  2
Linepattern
 70
    14
177
     2
291
     1
 71
     2
176
     1
 72
     2
176
     1
 73
     0
176
     1
 90
        0
176
     1
 40
-0.6
176
     1
 41
-30.0
176
     1
 62
     5
 63
     7
421
 16777215
176
     1
 74
     1
176
     1
 91
        4
176
     1
 64
     7
176
     1
 65
   257
176
     1
 75
     7
176
     1
175
     7
176
     1
 42
1.0
176
     1
 92
        8
176
     1
 66
     7
176
     1
 43
1.0
176
     1
 76
     1
176
     1
 77
     6
176
     1
 78
     2
176
     1
 67
     7
176
     1
 79
     5
176
     1
170
     0
176
     1
171
     0
176
     1
290
     0
176
     1
 93
        1
176
     1
 44
0.0
176
     1
173
     0
176
     1
  0
VISUALSTYLE
  5
33
102
{ACAD_REACTORS
330
2A
102
}
330
2A
100
AcDbVisualStyle
  2
Realistic
 70
     8
177
     2
291
     0
 71
     2
176
     1
 72
     2
176
     1
 73
     0
176
     1
 90
        0
176
     1
 40
-0.6
176
     1
 41
-30.0
176
     1
 62
     5
 63
     7
421
 16777215
176
     1
 74
     1
176
     1
 91
        0
176
     1
 64
     7
176
     1
 65
   257
176
     1
 75
     1
176
     1
175
     1
176
     1
 42
1.0
176
     1
 92
        8
176
     1
 66
     8
424
  7895160
176
     1
 43
1.0
176
     1
 76
     1
176
     1
 77
     6
176
     1
 78
     2
176
     1
 67
     7
176
     1
 79
     5
176
     1
170
     0
176
     1
171
     0
176
     1
290
     0
176
     1
 93
       13
176
     1
 44
0.0
176
     1
173
     0
176
     1
  0
VISUALSTYLE
  5
37
102
{ACAD_REACTORS
330
2A
102
}
330
2A
100
AcDbVisualStyle
  2
Thicken
 70
    13
177
     2
291
     1
 71
     2
176
     1
 72
     2
176
     1
 73
     0
176
     1
 90
        0
176
     1
 40
-0.6
176
     1
 41
-30.0
176
     1
 62
     5
 63
     7
421
 16777215
176
     1
 74
     1
176
     1
 91
        4
176
     1
 64
     7
176
     1
 65
   257
176
     1
 75
     1
176
     1
175
     1
176
     1
 42
1.0
176
     1
 92
       12
176
     1
 66
     7
176
     1
 43
1.0
176
     1
 76
     1
176
     1
 77
     6
176
     1
 78
     2
176
     1
 67
     7
176
     1
 79
     5
176
     1
170
     0
176
     1
171
     0
176
     1
290
     0
176
     1
 93
        1
176
     1
 44
0.0
176
     1
173
     0
176
     1
  0
ENDSEC
  0
EOF
