  0
SECTION
  2
HEADER
  9
$ACADVER
  1
AC1024
  9
$ACADMAINTVER
 70
     6
  9
$DWGCODEPAGE
  3
ANSI_1252
  9
$INSBASE
 10
0.0
 20
0.0
 30
0.0
  9
$EXTMIN
 10
1.000000000000000E+20
 20
1.000000000000000E+20
 30
1.000000000000000E+20
  9
$EXTMAX
 10
-1.000000000000000E+20
 20
-1.000000000000000E+20
 30
-1.000000000000000E+20
  9
$LIMMIN
 10
0.0
 20
0.0
  9
$LIMMAX
 10
12.0
 20
9.0
  9
$ORTHOMODE
 70
     0
  9
$REGENMODE
 70
     1
  9
$FILLMODE
 70
     1
  9
$QTEXTMODE
 70
     0
  9
$MIRRTEXT
 70
     1
  9
$LTSCALE
 40
1.0
  9
$ATTMODE
 70
     1
  9
$TEXTSIZE
 40
0.2
  9
$TRACEWID
 40
0.05
  9
$TEXTSTYLE
  7
Standard
  9
$CLAYER
  8
0
  9
$CELTYPE
  6
ByLayer
  9
$CECOLOR
 62
   256
  9
$CELTSCALE
 40
1.0
  9
$DISPSILH
 70
     0
  9
$DIMSCALE
 40
1.0
  9
$DIMASZ
 40
0.18
  9
$DIMEXO
 40
0.0625
  9
$DIMDLI
 40
0.38
  9
$DIMRND
 40
0.0
  9
$DIMDLE
 40
0.0
  9
$DIMEXE
 40
0.18
  9
$DIMTP
 40
0.0
  9
$DIMTM
 40
0.0
  9
$DIMTXT
 40
0.18
  9
$DIMCEN
 40
0.09
  9
$DIMTSZ
 40
0.0
  9
$DIMTOL
 70
     0
  9
$DIMLIM
 70
     0
  9
$DIMTIH
 70
     1
  9
$DIMTOH
 70
     1
  9
$DIMSE1
 70
     0
  9
$DIMSE2
 70
     0
  9
$DIMTAD
 70
     0
  9
$DIMZIN
 70
     0
  9
$DIMBLK
  1

  9
$DIMASO
 70
     1
  9
$DIMSHO
 70
     1
  9
$DIMPOST
  1

  9
$DIMAPOST
  1

  9
$DIMALT
 70
     0
  9
$DIMALTD
 70
     2
  9
$DIMALTF
 40
25.4
  9
$DIMLFAC
 40
1.0
  9
$DIMTOFL
 70
     0
  9
$DIMTVP
 40
0.0
  9
$DIMTIX
 70
     0
  9
$DIMSOXD
 70
     0
  9
$DIMSAH
 70
     0
  9
$DIMBLK1
  1

  9
$DIMBLK2
  1

  9
$DIMSTYLE
  2
Standard
  9
$DIMCLRD
 70
     0
  9
$DIMCLRE
 70
     0
  9
$DIMCLRT
 70
     0
  9
$DIMTFAC
 40
1.0
  9
$DIMGAP
 40
0.09
  9
$DIMJUST
 70
     0
  9
$DIMSD1
 70
     0
  9
$DIMSD2
 70
     0
  9
$DIMTOLJ
 70
     1
  9
$DIMTZIN
 70
     0
  9
$DIMALTZ
 70
     0
  9
$DIMALTTZ
 70
     0
  9
$DIMUPT
 70
     0
  9
$DIMDEC
 70
     4
  9
$DIMTDEC
 70
     4
  9
$DIMALTU
 70
     2
  9
$DIMALTTD
 70
     2
  9
$DIMTXSTY
  7
Standard
  9
$DIMAUNIT
 70
     0
  9
$DIMADEC
 70
     0
  9
$DIMALTRND
 40
0.0
  9
$DIMAZIN
 70
     0
  9
$DIMDSEP
 70
    46
  9
$DIMATFIT
 70
     3
  9
$DIMFRAC
 70
     0
  9
$DIMLDRBLK
  1

  9
$DIMLUNIT
 70
     2
  9
$DIMLWD
 70
    -2
  9
$DIMLWE
 70
    -2
  9
$DIMTMOVE
 70
     0
  9
$DIMFXL
 40
1.0
  9
$DIMFXLON
 70
     0
  9
$DIMJOGANG
 40
0.7853981633974483
  9
$DIMTFILL
 70
     0
  9
$DIMTFILLCLR
 70
     0
  9
$DIMARCSYM
 70
     0
  9
$DIMLTYPE
  6

  9
$DIMLTEX1
  6

  9
$DIMLTEX2
  6

  9
$DIMTXTDIRECTION
 70
     0
  9
$LUNITS
 70
     2
  9
$LUPREC
 70
     4
  9
$SKETCHINC
 40
0.1
  9
$FILLETRAD
 40
0.5
  9
$AUNITS
 70
     0
  9
$AUPREC
 70
     0
  9
$MENU
  1
.
  9
$ELEVATION
 40
0.0
  9
$PELEVATION
 40
0.0
  9
$THICKNESS
 40
0.0
  9
$LIMCHECK
 70
     0
  9
$CHAMFERA
 40
0.5
  9
$CHAMFERB
 40
0.5
  9
$CHAMFERC
 40
1.0
  9
$CHAMFERD
 40
0.0
  9
$SKPOLY
 70
     0
  9
$TDCREATE
 40
2458445.636822685
  9
$TDUCREATE
 40
2458445.970156019
  9
$TDUPDATE
 40
2458445.636822685
  9
$TDUUPDATE
 40
2458445.970156019
  9
$TDINDWG
 40
0.0000000116
  9
$TDUSRTIMER
 40
0.0000000116
  9
$USRTIMER
 70
     1
  9
$ANGBASE
 50
0.0
  9
$ANGDIR
 70
     0
  9
$PDMODE
 70
     0
  9
$PDSIZE
 40
0.0
  9
$PLINEWID
 40
0.0
  9
$SPLFRAME
 70
     0
  9
$SPLINETYPE
 70
     6
  9
$SPLINESEGS
 70
     8
  9
$HANDSEED
  5
6E
  9
$SURFTAB1
 70
     6
  9
$SURFTAB2
 70
     6
  9
$SURFTYPE
 70
     6
  9
$SURFU
 70
     6
  9
$SURFV
 70
     6
  9
$UCSBASE
  2

  9
$UCSNAME
  2

  9
$UCSORG
 10
0.0
 20
0.0
 30
0.0
  9
$UCSXDIR
 10
1.0
 20
0.0
 30
0.0
  9
$UCSYDIR
 10
0.0
 20
1.0
 30
0.0
  9
$UCSORTHOREF
  2

  9
$UCSORTHOVIEW
 70
     0
  9
$UCSORGTOP
 10
0.0
 20
0.0
 30
0.0
  9
$UCSORGBOTTOM
 10
0.0
 20
0.0
 30
0.0
  9
$UCSORGLEFT
 10
0.0
 20
0.0
 30
0.0
  9
$UCSORGRIGHT
 10
0.0
 20
0.0
 30
0.0
  9
$UCSORGFRONT
 10
0.0
 20
0.0
 30
0.0
  9
$UCSORGBACK
 10
0.0
 20
0.0
 30
0.0
  9
$PUCSBASE
  2

  9
$PUCSNAME
  2

  9
$PUCSORG
 10
0.0
 20
0.0
 30
0.0
  9
$PUCSXDIR
 10
1.0
 20
0.0
 30
0.0
  9
$PUCSYDIR
 10
0.0
 20
1.0
 30
0.0
  9
$PUCSORTHOREF
  2

  9
$PUCSORTHOVIEW
 70
     0
  9
$PUCSORGTOP
 10
0.0
 20
0.0
 30
0.0
  9
$PUCSORGBOTTOM
 10
0.0
 20
0.0
 30
0.0
  9
$PUCSORGLEFT
 10
0.0
 20
0.0
 30
0.0
  9
$PUCSORGRIGHT
 10
0.0
 20
0.0
 30
0.0
  9
$PUCSORGFRONT
 10
0.0
 20
0.0
 30
0.0
  9
$PUCSORGBACK
 10
0.0
 20
0.0
 30
0.0
  9
$USERI1
 70
     0
  9
$USERI2
 70
     0
  9
$USERI3
 70
     0
  9
$USERI4
 70
     0
  9
$USERI5
 70
     0
  9
$USERR1
 40
0.0
  9
$USERR2
 40
0.0
  9
$USERR3
 40
0.0
  9
$USERR4
 40
0.0
  9
$USERR5
 40
0.0
  9
$WORLDVIEW
 70
     1
  9
$SHADEDGE
 70
     3
  9
$SHADEDIF
 70
    70
  9
$TILEMODE
 70
     1
  9
$MAXACTVP
 70
    64
  9
$PINSBASE
 10
0.0
 20
0.0
 30
0.0
  9
$PLIMCHECK
 70
     0
  9
$PEXTMIN
 10
1.000000000000000E+20
 20
1.000000000000000E+20
 30
1.000000000000000E+20
  9
$PEXTMAX
 10
-1.000000000000000E+20
 20
-1.000000000000000E+20
 30
-1.000000000000000E+20
  9
$PLIMMIN
 10
0.0
 20
0.0
  9
$PLIMMAX
 10
12.0
 20
9.0
  9
$UNITMODE
 70
     0
  9
$VISRETAIN
 70
     1
  9
$PLINEGEN
 70
     0
  9
$PSLTSCALE
 70
     1
  9
$TREEDEPTH
 70
  3020
  9
$CMLSTYLE
  2
Standard
  9
$CMLJUST
 70
     0
  9
$CMLSCALE
 40
1.0
  9
$PROXYGRAPHICS
 70
     1
  9
$MEASUREMENT
 70
     0
  9
$CELWEIGHT
370
    -1
  9
$ENDCAPS
280
     0
  9
$JOINSTYLE
280
     0
  9
$LWDISPLAY
290
     1
  9
$INSUNITS
 70
     1
  9
$HYPERLINKBASE
  1

  9
$STYLESHEET
  1

  9
$XEDIT
290
     1
  9
$CEPSNTYPE
380
     0
  9
$PSTYLEMODE
290
     1
  9
$FINGERPRINTGUID
  2
{17E4AEE8-7B81-4573-95AA-E1189650FE4A}
  9
$VERSIONGUID
  2
{FAEB1C32-E019-11D5-929B-00C0DF256EC4}
  9
$EXTNAMES
290
     1
  9
$PSVPSCALE
 40
0.0
  9
$OLESTARTUP
290
     0
  9
$SORTENTS
280
   127
  9
$INDEXCTL
280
     0
  9
$HIDETEXT
280
     1
  9
$XCLIPFRAME
280
     2
  9
$HALOGAP
280
     0
  9
$OBSCOLOR
 70
   257
  9
$OBSLTYPE
280
     0
  9
$INTERSECTIONDISPLAY
280
     0
  9
$INTERSECTIONCOLOR
 70
   257
  9
$DIMASSOC
280
     2
  9
$PROJECTNAME
  1

  9
$CAMERADISPLAY
290
     0
  9
$LENSLENGTH
 40
50.0
  9
$CAMERAHEIGHT
 40
0.0
  9
$STEPSPERSEC
 40
2.0
  9
$STEPSIZE
 40
6.0
  9
$3DDWFPREC
 40
2.0
  9
$PSOLWIDTH
 40
0.25
  9
$PSOLHEIGHT
 40
4.0
  9
$LOFTANG1
 40
1.570796326794897
  9
$LOFTANG2
 40
1.570796326794897
  9
$LOFTMAG1
 40
0.0
  9
$LOFTMAG2
 40
0.0
  9
$LOFTPARAM
 70
     7
  9
$LOFTNORMALS
280
     1
  9
$LATITUDE
 40
37.795
  9
$LONGITUDE
 40
-122.394
  9
$NORTHDIRECTION
 40
0.0
  9
$TIMEZONE
 70
 -8000
  9
$LIGHTGLYPHDISPLAY
280
     1
  9
$TILEMODELIGHTSYNCH
280
     1
  9
$CMATERIAL
347
3C
  9
$SOLIDHIST
280
     1
  9
$SHOWHIST
280
     1
  9
$DWFFRAME
280
     2
  9
$DGNFRAME
280
     2
  9
$REALWORLDSCALE
290
     1
  9
$INTERFERECOLOR
 62
   256
  9
$CSHADOW
280
     0
  9
$SHADOWPLANELOCATION
 40
0.0
  0
ENDSEC
  0
SECTION
  2
CLASSES
  0
CLASS
  1
ACDBDICTIONARYWDFLT
  2
AcDbDictionaryWithDefault
  3
ObjectDBX Classes
 90
        0
 91
        4
280
     0
281
     0
  0
CLASS
  1
VISUALSTYLE
  2
AcDbVisualStyle
  3
ObjectDBX Classes
 90
     4095
 91
        4
280
     0
281
     0
  0
CLASS
  1
MATERIAL
  2
AcDbMaterial
  3
ObjectDBX Classes
 90
     1153
 91
        4
280
     0
281
     0
  0
CLASS
  1
SUN
  2
AcDbSun
  3
SCENEOE
 90
     1024
 91
        4
280
     0
281
     0
  0
ENDSEC
  0
SECTION
  2
TABLES
  0
TABLE
  2
VPORT
  5
8
330
0
100
AcDbSymbolTable
 70
     1
  0
VPORT
  5
29
330
8
100
AcDbSymbolTableRecord
100
AcDbViewportTableRecord
  2
*Active
 70
     0
 10
0.0
 20
0.0
 11
1.0
 21
1.0
 12
0.0
 22
0.0
 13
0.0
 23
0.0
 14
0.5
 24
0.5
 15
0.5
 25
0.5
 16
0.0
 26
0.0
 36
1.0
 17
18.0
 27
13.1999994913737
 37
0.0
 40
26.39999898274739
 41
1.363636416180405
 42
50.0
 43
0.0
 44
0.0
 50
0.0
 51
0.0
 71
     0
 72
   100
 73
     1
 74
     3
 75
     0
 76
     0
 77
     0
 78
     0
281
     0
 65
     1
110
0.0
120
0.0
130
0.0
111
1.0
121
0.0
131
0.0
112
0.0
122
1.0
132
0.0
 79
     0
146
0.0
 60
     3
 61
     5
292
     1
282
     1
141
0.0
142
0.0
 63
   250
361
3F
  0
ENDTAB
  0
TABLE
  2
LTYPE
  5
5
330
0
100
AcDbSymbolTable
 70
     1
  0
LTYPE
  5
14
330
5
100
AcDbSymbolTableRecord
100
AcDbLinetypeTableRecord
  2
ByBlock
 70
     0
  3

 72
    65
 73
     0
 40
0.0
  0
LTYPE
  5
15
330
5
100
AcDbSymbolTableRecord
100
AcDbLinetypeTableRecord
  2
ByLayer
 70
     0
  3

 72
    65
 73
     0
 40
0.0
  0
LTYPE
  5
16
330
5
100
AcDbSymbolTableRecord
100
AcDbLinetypeTableRecord
  2
Continuous
 70
     0
  3
Solid line
 72
    65
 73
     0
 40
0.0
  0
ENDTAB
  0
TABLE
  2
LAYER
  5
2
330
0
100
AcDbSymbolTable
 70
     2
  0
LAYER
  5
10
330
2
100
AcDbSymbolTableRecord
100
AcDbLayerTableRecord
  2
0
 70
     0
 62
     7
  6
Continuous
370
    -3
390
F
347
3E
  0
LAYER
  5
40
330
2
100
AcDbSymbolTableRecord
100
AcDbLayerTableRecord
  2
Layer 1
 70
     0
 62
     7
  6
Continuous
370
    -3
390
F
347
3E
  0
ENDTAB
  0
TABLE
  2
STYLE
  5
3
330
0
100
AcDbSymbolTable
 70
     1
  0
STYLE
  5
11
330
3
100
AcDbSymbolTableRecord
100
AcDbTextStyleTableRecord
  2
Standard
 70
     0
 40
0.0
 41
1.0
 50
0.0
 71
     0
 42
0.2
  3
txt
  4

  0
ENDTAB
  0
TABLE
  2
VIEW
  5
6
330
0
100
AcDbSymbolTable
 70
     0
  0
ENDTAB
  0
TABLE
  2
UCS
  5
7
330
0
100
AcDbSymbolTable
 70
     0
  0
ENDTAB
  0
TABLE
  2
APPID
  5
9
330
0
100
AcDbSymbolTable
 70
     1
  0
APPID
  5
12
330
9
100
AcDbSymbolTableRecord
100
AcDbRegAppTableRecord
  2
ACAD
 70
     0
  0
ENDTAB
  0
TABLE
  2
DIMSTYLE
  5
A
330
0
100
AcDbSymbolTable
 70
     1
100
AcDbDimStyleTable
  0
DIMSTYLE
105
27
330
A
100
AcDbSymbolTableRecord
100
AcDbDimStyleTableRecord
  2
Standard
 70
     0
178
     0
340
11
  0
ENDTAB
  0
TABLE
  2
BLOCK_RECORD
  5
1
330
0
100
AcDbSymbolTable
 70
     6
  0
BLOCK_RECORD
  5
1F
330
1
100
AcDbSymbolTableRecord
100
AcDbBlockTableRecord
  2
*Model_Space
340
22
 70
     0
280
     1
281
     0
  0
BLOCK_RECORD
  5
1B
330
1
100
AcDbSymbolTableRecord
100
AcDbBlockTableRecord
  2
*Paper_Space
340
1E
 70
     0
280
     1
281
     0
  0
BLOCK_RECORD
  5
23
330
1
100
AcDbSymbolTableRecord
100
AcDbBlockTableRecord
  2
*Paper_Space0
340
26
 70
     0
280
     1
281
     0
  0
BLOCK_RECORD
  5
41
330
1
100
AcDbSymbolTableRecord
100
AcDbBlockTableRecord
  2
block 2
340
0
102
{BLKREFS
331
42
102
}
 70
     0
280
     1
281
     0
  0
BLOCK_RECORD
  5
45
330
1
100
AcDbSymbolTableRecord
100
AcDbBlockTableRecord
  2
block 3
340
0
102
{BLKREFS
331
46
102
}
 70
     0
280
     1
281
     0
  0
BLOCK_RECORD
  5
4A
330
1
100
AcDbSymbolTableRecord
100
AcDbBlockTableRecord
  2
block 4
340
0
102
{BLKREFS
331
4B
102
}
 70
     0
280
     1
281
     0
  0
BLOCK_RECORD
  5
4F
330
1
100
AcDbSymbolTableRecord
100
AcDbBlockTableRecord
  2
block 5
340
0
102
{BLKREFS
331
50
102
}
 70
     0
280
     1
281
     0
  0
BLOCK_RECORD
  5
54
330
1
100
AcDbSymbolTableRecord
100
AcDbBlockTableRecord
  2
block 6
340
0
102
{BLKREFS
331
55
102
}
 70
     0
280
     1
281
     0
  0
ENDTAB
  0
ENDSEC
  0
SECTION
  2
BLOCKS
  0
BLOCK
  5
20
330
1F
100
AcDbEntity
  8
0
100
AcDbBlockBegin
  2
*Model_Space
 70
     0
 10
0.0
 20
0.0
 30
0.0
  3
*Model_Space
  1

  0
ENDBLK
  5
21
330
1F
100
AcDbEntity
  8
0
100
AcDbBlockEnd
  0
BLOCK
  5
1C
330
1B
100
AcDbEntity
 67
     1
  8
0
100
AcDbBlockBegin
  2
*Paper_Space
 70
     0
 10
0.0
 20
0.0
 30
0.0
  3
*Paper_Space
  1

  0
ENDBLK
  5
1D
330
1B
100
AcDbEntity
 67
     1
  8
0
100
AcDbBlockEnd
  0
BLOCK
  5
24
330
23
100
AcDbEntity
  8
0
100
AcDbBlockBegin
  2
*Paper_Space0
 70
     0
 10
0.0
 20
0.0
 30
0.0
  3
*Paper_Space0
  1

  0
ENDBLK
  5
25
330
23
100
AcDbEntity
  8
0
100
AcDbBlockEnd
  0
BLOCK
  5
43
330
41
100
AcDbEntity
  8
0
100
AcDbBlockBegin
  2
block 2
 70
     0
 10
0.0
 20
0.0
 30
0.0
  3
block 2
  1

  0
INSERT
  5
46
330
41
100
AcDbEntity
  8
Layer 1
100
AcDbBlockReference
  2
block 3
 10
0.0
 20
0.0
 30
0.0
  0
INSERT
  5
4B
330
41
100
AcDbEntity
  8
Layer 1
100
AcDbBlockReference
  2
block 4
 10
0.0
 20
0.0
 30
0.0
  0
INSERT
  5
50
330
41
100
AcDbEntity
  8
Layer 1
100
AcDbBlockReference
  2
block 5
 10
0.0
 20
0.0
 30
0.0
  0
INSERT
  5
55
330
41
100
AcDbEntity
  8
Layer 1
100
AcDbBlockReference
  2
block 6
 10
0.0
 20
0.0
 30
0.0
  0
ENDBLK
  5
44
330
41
100
AcDbEntity
  8
0
100
AcDbBlockEnd
  0
BLOCK
  5
47
330
45
100
AcDbEntity
  8
0
100
AcDbBlockBegin
  2
block 3
 70
     0
 10
0.0
 20
0.0
 30
0.0
  3
block 3
  1

  0
SPLINE
  5
49
330
45
100
AcDbEntity
  8
Layer 1
 62
     1
420
 16716306
370
    35
100
AcDbSpline
210
0.0
220
0.0
230
1.0
 70
    11
 71
     3
 72
   620
 73
   616
 74
     0
 42
0.0000000001
 43
0.0000000001
 12
1.0
 22
0.0
 32
0.0
 13
1.0
 23
0.0
 33
0.0
 40
0.0
 40
0.0
 40
0.0
 40
0.0
 40
1.0
 40
1.0
 40
1.0
 40
2.0
 40
2.0
 40
2.0
 40
3.0
 40
3.0
 40
3.0
 40
4.0
 40
4.0
 40
4.0
 40
5.0
 40
5.0
 40
5.0
 40
6.0
 40
6.0
 40
6.0
 40
7.0
 40
7.0
 40
7.0
 40
8.0
 40
8.0
 40
8.0
 40
9.0
 40
9.0
 40
9.0
 40
10.0
 40
10.0
 40
10.0
 40
11.0
 40
11.0
 40
11.0
 40
12.0
 40
12.0
 40
12.0
 40
13.0
 40
13.0
 40
13.0
 40
14.0
 40
14.0
 40
14.0
 40
15.0
 40
15.0
 40
15.0
 40
16.0
 40
16.0
 40
16.0
 40
17.0
 40
17.0
 40
17.0
 40
18.0
 40
18.0
 40
18.0
 40
19.0
 40
19.0
 40
19.0
 40
20.0
 40
20.0
 40
20.0
 40
21.0
 40
21.0
 40
21.0
 40
22.0
 40
22.0
 40
22.0
 40
23.0
 40
23.0
 40
23.0
 40
24.0
 40
24.0
 40
24.0
 40
25.0
 40
25.0
 40
25.0
 40
26.0
 40
26.0
 40
26.0
 40
27.0
 40
27.0
 40
27.0
 40
28.0
 40
28.0
 40
28.0
 40
29.0
 40
29.0
 40
29.0
 40
30.0
 40
30.0
 40
30.0
 40
31.0
 40
31.0
 40
31.0
 40
32.0
 40
32.0
 40
32.0
 40
33.0
 40
33.0
 40
33.0
 40
34.0
 40
34.0
 40
34.0
 40
35.0
 40
35.0
 40
35.0
 40
36.0
 40
36.0
 40
36.0
 40
37.0
 40
37.0
 40
37.0
 40
38.0
 40
38.0
 40
38.0
 40
39.0
 40
39.0
 40
39.0
 40
40.0
 40
40.0
 40
40.0
 40
41.0
 40
41.0
 40
41.0
 40
42.0
 40
42.0
 40
42.0
 40
43.0
 40
43.0
 40
43.0
 40
44.0
 40
44.0
 40
44.0
 40
45.0
 40
45.0
 40
45.0
 40
46.0
 40
46.0
 40
46.0
 40
47.0
 40
47.0
 40
47.0
 40
48.0
 40
48.0
 40
48.0
 40
49.0
 40
49.0
 40
49.0
 40
50.0
 40
50.0
 40
50.0
 40
51.0
 40
51.0
 40
51.0
 40
52.0
 40
52.0
 40
52.0
 40
53.0
 40
53.0
 40
53.0
 40
54.0
 40
54.0
 40
54.0
 40
55.0
 40
55.0
 40
55.0
 40
56.0
 40
56.0
 40
56.0
 40
57.0
 40
57.0
 40
57.0
 40
58.0
 40
58.0
 40
58.0
 40
59.0
 40
59.0
 40
59.0
 40
60.0
 40
60.0
 40
60.0
 40
61.0
 40
61.0
 40
61.0
 40
62.0
 40
62.0
 40
62.0
 40
63.0
 40
63.0
 40
63.0
 40
64.0
 40
64.0
 40
64.0
 40
65.0
 40
65.0
 40
65.0
 40
66.0
 40
66.0
 40
66.0
 40
67.0
 40
67.0
 40
67.0
 40
68.0
 40
68.0
 40
68.0
 40
69.0
 40
69.0
 40
69.0
 40
70.0
 40
70.0
 40
70.0
 40
71.0
 40
71.0
 40
71.0
 40
72.0
 40
72.0
 40
72.0
 40
73.0
 40
73.0
 40
73.0
 40
74.0
 40
74.0
 40
74.0
 40
75.0
 40
75.0
 40
75.0
 40
76.0
 40
76.0
 40
76.0
 40
77.0
 40
77.0
 40
77.0
 40
78.0
 40
78.0
 40
78.0
 40
79.0
 40
79.0
 40
79.0
 40
80.0
 40
80.0
 40
80.0
 40
81.0
 40
81.0
 40
81.0
 40
82.0
 40
82.0
 40
82.0
 40
83.0
 40
83.0
 40
83.0
 40
84.0
 40
84.0
 40
84.0
 40
85.0
 40
85.0
 40
85.0
 40
86.0
 40
86.0
 40
86.0
 40
87.0
 40
87.0
 40
87.0
 40
88.0
 40
88.0
 40
88.0
 40
89.0
 40
89.0
 40
89.0
 40
90.0
 40
90.0
 40
90.0
 40
91.0
 40
91.0
 40
91.0
 40
92.0
 40
92.0
 40
92.0
 40
93.0
 40
93.0
 40
93.0
 40
94.0
 40
94.0
 40
94.0
 40
95.0
 40
95.0
 40
95.0
 40
96.0
 40
96.0
 40
96.0
 40
97.0
 40
97.0
 40
97.0
 40
98.0
 40
98.0
 40
98.0
 40
99.0
 40
99.0
 40
99.0
 40
100.0
 40
100.0
 40
100.0
 40
101.0
 40
101.0
 40
101.0
 40
102.0
 40
102.0
 40
102.0
 40
103.0
 40
103.0
 40
103.0
 40
104.0
 40
104.0
 40
104.0
 40
105.0
 40
105.0
 40
105.0
 40
106.0
 40
106.0
 40
106.0
 40
107.0
 40
107.0
 40
107.0
 40
108.0
 40
108.0
 40
108.0
 40
109.0
 40
109.0
 40
109.0
 40
110.0
 40
110.0
 40
110.0
 40
111.0
 40
111.0
 40
111.0
 40
112.0
 40
112.0
 40
112.0
 40
113.0
 40
113.0
 40
113.0
 40
114.0
 40
114.0
 40
114.0
 40
115.0
 40
115.0
 40
115.0
 40
116.0
 40
116.0
 40
116.0
 40
117.0
 40
117.0
 40
117.0
 40
118.0
 40
118.0
 40
118.0
 40
119.0
 40
119.0
 40
119.0
 40
120.0
 40
120.0
 40
120.0
 40
121.0
 40
121.0
 40
121.0
 40
122.0
 40
122.0
 40
122.0
 40
123.0
 40
123.0
 40
123.0
 40
124.0
 40
124.0
 40
124.0
 40
125.0
 40
125.0
 40
125.0
 40
126.0
 40
126.0
 40
126.0
 40
127.0
 40
127.0
 40
127.0
 40
128.0
 40
128.0
 40
128.0
 40
129.0
 40
129.0
 40
129.0
 40
130.0
 40
130.0
 40
130.0
 40
131.0
 40
131.0
 40
131.0
 40
132.0
 40
132.0
 40
132.0
 40
133.0
 40
133.0
 40
133.0
 40
134.0
 40
134.0
 40
134.0
 40
135.0
 40
135.0
 40
135.0
 40
136.0
 40
136.0
 40
136.0
 40
137.0
 40
137.0
 40
137.0
 40
138.0
 40
138.0
 40
138.0
 40
139.0
 40
139.0
 40
139.0
 40
140.0
 40
140.0
 40
140.0
 40
141.0
 40
141.0
 40
141.0
 40
142.0
 40
142.0
 40
142.0
 40
143.0
 40
143.0
 40
143.0
 40
144.0
 40
144.0
 40
144.0
 40
145.0
 40
145.0
 40
145.0
 40
146.0
 40
146.0
 40
146.0
 40
147.0
 40
147.0
 40
147.0
 40
148.0
 40
148.0
 40
148.0
 40
149.0
 40
149.0
 40
149.0
 40
150.0
 40
150.0
 40
150.0
 40
151.0
 40
151.0
 40
151.0
 40
152.0
 40
152.0
 40
152.0
 40
153.0
 40
153.0
 40
153.0
 40
154.0
 40
154.0
 40
154.0
 40
155.0
 40
155.0
 40
155.0
 40
156.0
 40
156.0
 40
156.0
 40
157.0
 40
157.0
 40
157.0
 40
158.0
 40
158.0
 40
158.0
 40
159.0
 40
159.0
 40
159.0
 40
160.0
 40
160.0
 40
160.0
 40
161.0
 40
161.0
 40
161.0
 40
162.0
 40
162.0
 40
162.0
 40
163.0
 40
163.0
 40
163.0
 40
164.0
 40
164.0
 40
164.0
 40
165.0
 40
165.0
 40
165.0
 40
166.0
 40
166.0
 40
166.0
 40
167.0
 40
167.0
 40
167.0
 40
168.0
 40
168.0
 40
168.0
 40
169.0
 40
169.0
 40
169.0
 40
170.0
 40
170.0
 40
170.0
 40
171.0
 40
171.0
 40
171.0
 40
172.0
 40
172.0
 40
172.0
 40
173.0
 40
173.0
 40
173.0
 40
174.0
 40
174.0
 40
174.0
 40
175.0
 40
175.0
 40
175.0
 40
176.0
 40
176.0
 40
176.0
 40
177.0
 40
177.0
 40
177.0
 40
178.0
 40
178.0
 40
178.0
 40
179.0
 40
179.0
 40
179.0
 40
180.0
 40
180.0
 40
180.0
 40
181.0
 40
181.0
 40
181.0
 40
182.0
 40
182.0
 40
182.0
 40
183.0
 40
183.0
 40
183.0
 40
184.0
 40
184.0
 40
184.0
 40
185.0
 40
185.0
 40
185.0
 40
186.0
 40
186.0
 40
186.0
 40
187.0
 40
187.0
 40
187.0
 40
188.0
 40
188.0
 40
188.0
 40
189.0
 40
189.0
 40
189.0
 40
190.0
 40
190.0
 40
190.0
 40
191.0
 40
191.0
 40
191.0
 40
192.0
 40
192.0
 40
192.0
 40
193.0
 40
193.0
 40
193.0
 40
194.0
 40
194.0
 40
194.0
 40
195.0
 40
195.0
 40
195.0
 40
196.0
 40
196.0
 40
196.0
 40
197.0
 40
197.0
 40
197.0
 40
198.0
 40
198.0
 40
198.0
 40
199.0
 40
199.0
 40
199.0
 40
200.0
 40
200.0
 40
200.0
 40
201.0
 40
201.0
 40
201.0
 40
202.0
 40
202.0
 40
202.0
 40
203.0
 40
203.0
 40
203.0
 40
204.0
 40
204.0
 40
204.0
 40
205.0
 40
205.0
 40
205.0
 40
205.0
 10
0.8876383039686414
 20
23.64243570963541
 30
0.0
 10
0.8876383039686414
 20
23.64243570963541
 30
0.0
 10
0.8876383039686414
 20
23.68410237630208
 30
0.0
 10
0.8876383039686414
 20
23.68410237630208
 30
0.0
 10
0.8876383039686414
 20
23.68410237630208
 30
0.0
 10
0.8876383039686414
 20
23.73118591308594
 30
0.0
 10
0.8876383039686414
 20
23.73118591308594
 30
0.0
 10
0.8876383039686414
 20
23.73118591308594
 30
0.0
 10
0.8893049028184679
 20
23.78368547227647
 30
0.0
 10
0.8893049028184679
 20
23.78368547227647
 30
0.0
 10
0.8893049028184679
 20
23.78368547227647
 30
0.0
 10
0.8922216627332898
 20
23.84174092610677
 30
0.0
 10
0.8922216627332898
 20
23.84174092610677
 30
0.0
 10
0.8922216627332898
 20
23.84174092610677
 30
0.0
 10
0.8962493472629123
 20
23.90535227457682
 30
0.0
 10
0.8962493472629123
 20
23.90535227457682
 30
0.0
 10
0.8962493472629123
 20
23.90535227457682
 30
0.0
 10
0.9013882742987738
 20
23.97479671902127
 30
0.0
 10
0.9013882742987738
 20
23.97479671902127
 30
0.0
 10
0.9013882742987738
 20
23.97479671902127
 30
0.0
 10
0.9077771504720051
 20
24.04924096001519
 30
0.0
 10
0.9077771504720051
 20
24.04924096001519
 30
0.0
 10
0.9077771504720051
 20
24.04924096001519
 30
0.0
 10
0.9152771631876627
 20
24.12896304660373
 30
0.0
 10
0.9152771631876627
 20
24.12896304660373
 30
0.0
 10
0.9152771631876627
 20
24.12896304660373
 30
0.0
 10
0.9337494108412
 20
24.30299123128255
 30
0.0
 10
0.9337494108412
 20
24.30299123128255
 30
0.0
 10
0.9337494108412
 20
24.30299123128255
 30
0.0
 10
0.9566660987006292
 20
24.49354637993707
 30
0.0
 10
0.9566660987006292
 20
24.49354637993707
 30
0.0
 10
0.9566660987006292
 20
24.49354637993707
 30
0.0
 10
0.9834716584947374
 20
24.69604661729601
 30
0.0
 10
0.9834716584947374
 20
24.69604661729601
 30
0.0
 10
0.9834716584947374
 20
24.69604661729601
 30
0.0
 10
1.013749440511068
 20
24.90535227457682
 30
0.0
 10
1.013749440511068
 20
24.90535227457682
 30
0.0
 10
1.013749440511068
 20
24.90535227457682
 30
0.0
 10
1.083193884955512
 20
25.32201809353299
 30
0.0
 10
1.083193884955512
 20
25.32201809353299
 30
0.0
 10
1.083193884955512
 20
25.32201809353299
 30
0.0
 10
1.1212494108412
 20
25.52007378472222
 30
0.0
 10
1.1212494108412
 20
25.52007378472222
 30
0.0
 10
1.1212494108412
 20
25.52007378472222
 30
0.0
 10
1.160971641540527
 20
25.7063242594401
 30
0.0
 10
1.160971641540527
 20
25.7063242594401
 30
0.0
 10
1.160971641540527
 20
25.7063242594401
 30
0.0
 10
1.202638308207194
 20
25.87896389431424
 30
0.0
 10
1.202638308207194
 20
25.87896389431424
 30
0.0
 10
1.202638308207194
 20
25.87896389431424
 30
0.0
 10
1.24527719285753
 20
26.0371585422092
 30
0.0
 10
1.24527719285753
 20
26.0371585422092
 30
0.0
 10
1.24527719285753
 20
26.0371585422092
 30
0.0
 10
1.288888295491536
 20
26.18049112955729
 30
0.0
 10
1.288888295491536
 20
26.18049112955729
 30
0.0
 10
1.288888295491536
 20
26.18049112955729
 30
0.0
 10
1.333888265821669
 20
26.30924140082465
 30
0.0
 10
1.333888265821669
 20
26.30924140082465
 30
0.0
 10
1.333888265821669
 20
26.30924140082465
 30
0.0
 10
1.332777129279243
 20
26.30993482801649
 30
0.0
 10
1.332777129279243
 20
26.30993482801649
 30
0.0
 10
1.332777129279243
 20
26.30993482801649
 30
0.0
 10
1.383193757798937
 20
26.2603522406684
 30
0.0
 10
1.383193757798937
 20
26.2603522406684
 30
0.0
 10
1.383193757798937
 20
26.2603522406684
 30
0.0
 10
1.437499364217122
 20
26.20868598090278
 30
0.0
 10
1.437499364217122
 20
26.20868598090278
 30
0.0
 10
1.437499364217122
 20
26.20868598090278
 30
0.0
 10
1.495555029975043
 20
26.15493604871962
 30
0.0
 10
1.495555029975043
 20
26.15493604871962
 30
0.0
 10
1.495555029975043
 20
26.15493604871962
 30
0.0
 10
1.557360543145074
 20
26.09938049316406
 30
0.0
 10
1.557360543145074
 20
26.09938049316406
 30
0.0
 10
1.557360543145074
 20
26.09938049316406
 30
0.0
 10
1.691388236151801
 20
25.98174031575521
 30
0.0
 10
1.691388236151801
 20
25.98174031575521
 30
0.0
 10
1.691388236151801
 20
25.98174031575521
 30
0.0
 10
1.836527082655165
 20
25.85840861002604
 30
0.0
 10
1.836527082655165
 20
25.85840861002604
 30
0.0
 10
1.836527082655165
 20
25.85840861002604
 30
0.0
 10
1.987082799275716
 20
25.73340861002604
 30
0.0
 10
1.987082799275716
 20
25.73340861002604
 30
0.0
 10
1.987082799275716
 20
25.73340861002604
 30
0.0
 10
2.135693868001302
 20
25.61201816134982
 30
0.0
 10
2.135693868001302
 20
25.61201816134982
 30
0.0
 10
2.135693868001302
 20
25.61201816134982
 30
0.0
 10
2.276805029975043
 20
25.49840799967448
 30
0.0
 10
2.276805029975043
 20
25.49840799967448
 30
0.0
 10
2.276805029975043
 20
25.49840799967448
 30
0.0
 10
2.408888287014431
 20
25.3938242594401
 30
0.0
 10
2.408888287014431
 20
25.3938242594401
 30
0.0
 10
2.408888287014431
 20
25.3938242594401
 30
0.0
 10
2.665832731458876
 20
25.19937981499566
 30
0.0
 10
2.665832731458876
 20
25.19937981499566
 30
0.0
 10
2.665832731458876
 20
25.19937981499566
 30
0.0
 10
2.802915996975369
 20
25.10090806749132
 30
0.0
 10
2.802915996975369
 20
25.10090806749132
 30
0.0
 10
2.802915996975369
 20
25.10090806749132
 30
0.0
 10
2.945693757798936
 20
25.00132412380642
 30
0.0
 10
2.945693757798936
 20
25.00132412380642
 30
0.0
 10
2.945693757798936
 20
25.00132412380642
 30
0.0
 10
3.084582646687825
 20
24.90757412380642
 30
0.0
 10
3.084582646687825
 20
24.90757412380642
 30
0.0
 10
3.084582646687825
 20
24.90757412380642
 30
0.0
 10
3.148888270060221
 20
24.86493598090278
 30
0.0
 10
3.148888270060221
 20
24.86493598090278
 30
0.0
 10
3.148888270060221
 20
24.86493598090278
 30
0.0
 10
3.208332909478081
 20
24.82618543836805
 30
0.0
 10
3.208332909478081
 20
24.82618543836805
 30
0.0
 10
3.208332909478081
 20
24.82618543836805
 30
0.0
 10
3.261943817138672
 20
24.79188028971354
 30
0.0
 10
3.261943817138672
 20
24.79188028971354
 30
0.0
 10
3.261943817138672
 20
24.79188028971354
 30
0.0
 10
3.309304979112413
 20
24.76229688856337
 30
0.0
 10
3.309304979112413
 20
24.76229688856337
 30
0.0
 10
3.309304979112413
 20
24.76229688856337
 30
0.0
 10
3.350138346354167
 20
24.73785230848524
 30
0.0
 10
3.350138346354167
 20
24.73785230848524
 30
0.0
 10
3.350138346354167
 20
24.73785230848524
 30
0.0
 10
3.384304894341363
 20
24.71826850043403
 30
0.0
 10
3.384304894341363
 20
24.71826850043403
 30
0.0
 10
3.384304894341363
 20
24.71826850043403
 30
0.0
 10
3.383193969726562
 20
24.71771325005425
 30
0.0
 10
3.383193969726562
 20
24.71771325005425
 30
0.0
 10
3.383193969726562
 20
24.71771325005425
 30
0.0
 10
3.387499491373698
 20
24.7666024102105
 30
0.0
 10
3.387499491373698
 20
24.7666024102105
 30
0.0
 10
3.387499491373698
 20
24.7666024102105
 30
0.0
 10
3.39333258734809
 20
24.81757439507378
 30
0.0
 10
3.39333258734809
 20
24.81757439507378
 30
0.0
 10
3.39333258734809
 20
24.81757439507378
 30
0.0
 10
3.400693681504991
 20
24.87076907687717
 30
0.0
 10
3.400693681504991
 20
24.87076907687717
 30
0.0
 10
3.400693681504991
 20
24.87076907687717
 30
0.0
 10
3.409582773844401
 20
24.92632463243272
 30
0.0
 10
3.409582773844401
 20
24.92632463243272
 30
0.0
 10
3.409582773844401
 20
24.92632463243272
 30
0.0
 10
3.419860415988498
 20
24.98382483588324
 30
0.0
 10
3.419860415988498
 20
24.98382483588324
 30
0.0
 10
3.419860415988498
 20
24.98382483588324
 30
0.0
 10
3.431805080837673
 20
25.0434078640408
 30
0.0
 10
3.431805080837673
 20
25.0434078640408
 30
0.0
 10
3.431805080837673
 20
25.0434078640408
 30
0.0
 10
3.459582858615451
 20
25.16715833875868
 30
0.0
 10
3.459582858615451
 20
25.16715833875868
 30
0.0
 10
3.459582858615451
 20
25.16715833875868
 30
0.0
 10
3.491943783230251
 20
25.29493543836805
 30
0.0
 10
3.491943783230251
 20
25.29493543836805
 30
0.0
 10
3.491943783230251
 20
25.29493543836805
 30
0.0
 10
3.527777353922526
 20
25.42424180772569
 30
0.0
 10
3.527777353922526
 20
25.42424180772569
 30
0.0
 10
3.527777353922526
 20
25.42424180772569
 30
0.0
 10
3.566527048746745
 20
25.55340745713976
 30
0.0
 10
3.566527048746745
 20
25.55340745713976
 30
0.0
 10
3.566527048746745
 20
25.55340745713976
 30
0.0
 10
3.608193715413411
 20
25.68187967936198
 30
0.0
 10
3.608193715413411
 20
25.68187967936198
 30
0.0
 10
3.608193715413411
 20
25.68187967936198
 30
0.0
 10
3.608332739935981
 20
25.68187967936198
 30
0.0
 10
3.608332739935981
 20
25.68187967936198
 30
0.0
 10
3.608332739935981
 20
25.68187967936198
 30
0.0
 10
3.719443851047092
 20
25.57576836480035
 30
0.0
 10
3.719443851047092
 20
25.57576836480035
 30
0.0
 10
3.719443851047092
 20
25.57576836480035
 30
0.0
 10
3.835971408420139
 20
25.46868557400174
 30
0.0
 10
3.835971408420139
 20
25.46868557400174
 30
0.0
 10
3.835971408420139
 20
25.46868557400174
 30
0.0
 10
3.958193884955512
 20
25.36062961154514
 30
0.0
 10
3.958193884955512
 20
25.36062961154514
 30
0.0
 10
3.958193884955512
 20
25.36062961154514
 30
0.0
 10
4.086110432942708
 20
25.25174119737413
 30
0.0
 10
4.086110432942708
 20
25.25174119737413
 30
0.0
 10
4.086110432942708
 20
25.25174119737413
 30
0.0
 10
4.219166225857204
 20
25.14229668511285
 30
0.0
 10
4.219166225857204
 20
25.14229668511285
 30
0.0
 10
4.219166225857204
 20
25.14229668511285
 30
0.0
 10
4.356943766276041
 20
25.03299119737413
 30
0.0
 10
4.356943766276041
 20
25.03299119737413
 30
0.0
 10
4.356943766276041
 20
25.03299119737413
 30
0.0
 10
4.641526963975694
 20
24.81743537055121
 30
0.0
 10
4.641526963975694
 20
24.81743537055121
 30
0.0
 10
4.641526963975694
 20
24.81743537055121
 30
0.0
 10
4.784860399034288
 20
24.71368577745226
 30
0.0
 10
4.784860399034288
 20
24.71368577745226
 30
0.0
 10
4.784860399034288
 20
24.71368577745226
 30
0.0
 10
4.926388210720486
 20
24.6139636569553
 30
0.0
 10
4.926388210720486
 20
24.6139636569553
 30
0.0
 10
4.926388210720486
 20
24.6139636569553
 30
0.0
 10
5.064304775661892
 20
24.51951853434245
 30
0.0
 10
5.064304775661892
 20
24.51951853434245
 30
0.0
 10
5.064304775661892
 20
24.51951853434245
 30
0.0
 10
5.19708251953125
 20
24.43118540445963
 30
0.0
 10
5.19708251953125
 20
24.43118540445963
 30
0.0
 10
5.19708251953125
 20
24.43118540445963
 30
0.0
 10
5.323888142903646
 20
24.34937964545356
 30
0.0
 10
5.323888142903646
 20
24.34937964545356
 30
0.0
 10
5.323888142903646
 20
24.34937964545356
 30
0.0
 10
5.444444020589192
 20
24.27438015407986
 30
0.0
 10
5.444444020589192
 20
24.27438015407986
 30
0.0
 10
5.444444020589192
 20
24.27438015407986
 30
0.0
 10
5.55833265516493
 20
24.20618523491753
 30
0.0
 10
5.55833265516493
 20
24.20618523491753
 30
0.0
 10
5.55833265516493
 20
24.20618523491753
 30
0.0
 10
5.66583251953125
 20
24.14465755886502
 30
0.0
 10
5.66583251953125
 20
24.14465755886502
 30
0.0
 10
5.66583251953125
 20
24.14465755886502
 30
0.0
 10
5.665415869818793
 20
24.14493560791016
 30
0.0
 10
5.665415869818793
 20
24.14493560791016
 30
0.0
 10
5.665415869818793
 20
24.14493560791016
 30
0.0
 10
5.707082536485459
 20
24.35493554009332
 30
0.0
 10
5.707082536485459
 20
24.35493554009332
 30
0.0
 10
5.707082536485459
 20
24.35493554009332
 30
0.0
 10
5.706943935818142
 20
24.35465749104818
 30
0.0
 10
5.706943935818142
 20
24.35465749104818
 30
0.0
 10
5.706943935818142
 20
24.35465749104818
 30
0.0
 10
5.772638108995225
 20
24.68799082438151
 30
0.0
 10
5.772638108995225
 20
24.68799082438151
 30
0.0
 10
5.772638108995225
 20
24.68799082438151
 30
0.0
 10
5.773193783230251
 20
24.68951924641927
 30
0.0
 10
5.773193783230251
 20
24.68951924641927
 30
0.0
 10
5.773193783230251
 20
24.68951924641927
 30
0.0
 10
5.835693783230251
 20
24.91688028971354
 30
0.0
 10
5.835693783230251
 20
24.91688028971354
 30
0.0
 10
5.835693783230251
 20
24.91688028971354
 30
0.0
 10
5.834582858615451
 20
24.91507466634114
 30
0.0
 10
5.834582858615451
 20
24.91507466634114
 30
0.0
 10
5.834582858615451
 20
24.91507466634114
 30
0.0
 10
5.980971442328559
 20
24.77132415771484
 30
0.0
 10
5.980971442328559
 20
24.77132415771484
 30
0.0
 10
5.980971442328559
 20
24.77132415771484
 30
0.0
 10
6.145277235243055
 20
24.62576887342665
 30
0.0
 10
6.145277235243055
 20
24.62576887342665
 30
0.0
 10
6.145277235243055
 20
24.62576887342665
 30
0.0
 10
6.32722176445855
 20
24.47868516710069
 30
0.0
 10
6.32722176445855
 20
24.47868516710069
 30
0.0
 10
6.32722176445855
 20
24.47868516710069
 30
0.0
 10
6.526110331217447
 20
24.33104705810547
 30
0.0
 10
6.526110331217447
 20
24.33104705810547
 30
0.0
 10
6.526110331217447
 20
24.33104705810547
 30
0.0
 10
6.739999559190538
 20
24.18438042534722
 30
0.0
 10
6.739999559190538
 20
24.18438042534722
 30
0.0
 10
6.739999559190538
 20
24.18438042534722
 30
0.0
 10
6.965554979112413
 20
24.04090796576606
 30
0.0
 10
6.965554979112413
 20
24.04090796576606
 30
0.0
 10
6.965554979112413
 20
24.04090796576606
 30
0.0
 10
7.198332892523871
 20
23.90368567572699
 30
0.0
 10
7.198332892523871
 20
23.90368567572699
 30
0.0
 10
7.198332892523871
 20
23.90368567572699
 30
0.0
 10
7.4334716796875
 20
23.77549150254991
 30
0.0
 10
7.4334716796875
 20
23.77549150254991
 30
0.0
 10
7.4334716796875
 20
23.77549150254991
 30
0.0
 10
7.666388617621528
 20
23.65882449679905
 30
0.0
 10
7.666388617621528
 20
23.65882449679905
 30
0.0
 10
7.666388617621528
 20
23.65882449679905
 30
0.0
 10
7.894860161675346
 20
23.55687967936198
 30
0.0
 10
7.894860161675346
 20
23.55687967936198
 30
0.0
 10
7.894860161675346
 20
23.55687967936198
 30
0.0
 10
8.114166259765625
 20
23.46618567572699
 30
0.0
 10
8.114166259765625
 20
23.46618567572699
 30
0.0
 10
8.114166259765625
 20
23.46618567572699
 30
0.0
 10
8.324305216471354
 20
23.38785213894314
 30
0.0
 10
8.324305216471354
 20
23.38785213894314
 30
0.0
 10
8.324305216471354
 20
23.38785213894314
 30
0.0
 10
8.524165683322483
 20
23.32104661729601
 30
0.0
 10
8.524165683322483
 20
23.32104661729601
 30
0.0
 10
8.524165683322483
 20
23.32104661729601
 30
0.0
 10
8.713749355740017
 20
23.26549106174045
 30
0.0
 10
8.713749355740017
 20
23.26549106174045
 30
0.0
 10
8.713749355740017
 20
23.26549106174045
 30
0.0
 10
8.892916361490885
 20
23.21937984890408
 30
0.0
 10
8.892916361490885
 20
23.21937984890408
 30
0.0
 10
8.892916361490885
 20
23.21937984890408
 30
0.0
 10
9.061526828342013
 20
23.18187967936198
 30
0.0
 10
9.061526828342013
 20
23.18187967936198
 30
0.0
 10
9.061526828342013
 20
23.18187967936198
 30
0.0
 10
9.061526828342013
 20
23.18187967936198
 30
0.0
 10
9.061526828342013
 20
23.18187967936198
 30
0.0
 10
9.061526828342013
 20
23.18187967936198
 30
0.0
 10
8.892499287923176
 20
23.1456298828125
 30
0.0
 10
8.892499287923176
 20
23.1456298828125
 30
0.0
 10
8.892499287923176
 20
23.1456298828125
 30
0.0
 10
8.713333129882812
 20
23.09951866997613
 30
0.0
 10
8.713333129882812
 20
23.09951866997613
 30
0.0
 10
8.713333129882812
 20
23.09951866997613
 30
0.0
 10
8.523749457465277
 20
23.04396311442057
 30
0.0
 10
8.523749457465277
 20
23.04396311442057
 30
0.0
 10
8.523749457465277
 20
23.04396311442057
 30
0.0
 10
8.323888142903645
 20
22.97715759277344
 30
0.0
 10
8.323888142903645
 20
22.97715759277344
 30
0.0
 10
8.323888142903645
 20
22.97715759277344
 30
0.0
 10
8.113749186197916
 20
22.89882405598958
 30
0.0
 10
8.113749186197916
 20
22.89882405598958
 30
0.0
 10
8.113749186197916
 20
22.89882405598958
 30
0.0
 10
7.894443935818142
 20
22.8081300523546
 30
0.0
 10
7.894443935818142
 20
22.8081300523546
 30
0.0
 10
7.894443935818142
 20
22.8081300523546
 30
0.0
 10
7.666943868001302
 20
22.70424143473307
 30
0.0
 10
7.666943868001302
 20
22.70424143473307
 30
0.0
 10
7.666943868001302
 20
22.70424143473307
 30
0.0
 10
7.434026930067274
 20
22.5875744289822
 30
0.0
 10
7.434026930067274
 20
22.5875744289822
 30
0.0
 10
7.434026930067274
 20
22.5875744289822
 30
0.0
 10
7.198888142903646
 20
22.45938025580512
 30
0.0
 10
7.198888142903646
 20
22.45938025580512
 30
0.0
 10
7.198888142903646
 20
22.45938025580512
 30
0.0
 10
6.966110229492188
 20
22.32215796576606
 30
0.0
 10
6.966110229492188
 20
22.32215796576606
 30
0.0
 10
6.966110229492188
 20
22.32215796576606
 30
0.0
 10
6.740554809570312
 20
22.17868550618489
 30
0.0
 10
6.740554809570312
 20
22.17868550618489
 30
0.0
 10
6.740554809570312
 20
22.17868550618489
 30
0.0
 10
6.526666005452474
 20
22.03201887342665
 30
0.0
 10
6.526666005452474
 20
22.03201887342665
 30
0.0
 10
6.526666005452474
 20
22.03201887342665
 30
0.0
 10
6.327777014838325
 20
21.88437991672092
 30
0.0
 10
6.327777014838325
 20
21.88437991672092
 30
0.0
 10
6.327777014838325
 20
21.88437991672092
 30
0.0
 10
6.145693884955512
 20
21.73743523491753
 30
0.0
 10
6.145693884955512
 20
21.73743523491753
 30
0.0
 10
6.145693884955512
 20
21.73743523491753
 30
0.0
 10
5.981388092041016
 20
21.59187995062934
 30
0.0
 10
5.981388092041016
 20
21.59187995062934
 30
0.0
 10
5.981388092041016
 20
21.59187995062934
 30
0.0
 10
5.834999508327908
 20
21.44813028971354
 30
0.0
 10
5.834999508327908
 20
21.44813028971354
 30
0.0
 10
5.834999508327908
 20
21.44813028971354
 30
0.0
 10
5.835554758707682
 20
21.44715796576606
 30
0.0
 10
5.835554758707682
 20
21.44715796576606
 30
0.0
 10
5.835554758707682
 20
21.44715796576606
 30
0.0
 10
5.773054758707682
 20
21.67451900906033
 30
0.0
 10
5.773054758707682
 20
21.67451900906033
 30
0.0
 10
5.773054758707682
 20
21.67451900906033
 30
0.0
 10
5.772499508327908
 20
21.67521328396267
 30
0.0
 10
5.772499508327908
 20
21.67521328396267
 30
0.0
 10
5.772499508327908
 20
21.67521328396267
 30
0.0
 10
5.706804911295572
 20
22.00854661729601
 30
0.0
 10
5.706804911295572
 20
22.00854661729601
 30
0.0
 10
5.706804911295572
 20
22.00854661729601
 30
0.0
 10
5.707360585530599
 20
22.00785234239366
 30
0.0
 10
5.707360585530599
 20
22.00785234239366
 30
0.0
 10
5.707360585530599
 20
22.00785234239366
 30
0.0
 10
5.665693918863932
 20
22.21785227457682
 30
0.0
 10
5.665693918863932
 20
22.21785227457682
 30
0.0
 10
5.665693918863932
 20
22.21785227457682
 30
0.0
 10
5.66583251953125
 20
22.21854654947916
 30
0.0
 10
5.66583251953125
 20
22.21854654947916
 30
0.0
 10
5.66583251953125
 20
22.21854654947916
 30
0.0
 10
5.55833265516493
 20
22.15701887342665
 30
0.0
 10
5.55833265516493
 20
22.15701887342665
 30
0.0
 10
5.55833265516493
 20
22.15701887342665
 30
0.0
 10
5.444444020589192
 20
22.08882480197483
 30
0.0
 10
5.444444020589192
 20
22.08882480197483
 30
0.0
 10
5.444444020589192
 20
22.08882480197483
 30
0.0
 10
5.323888142903646
 20
22.01382446289062
 30
0.0
 10
5.323888142903646
 20
22.01382446289062
 30
0.0
 10
5.323888142903646
 20
22.01382446289062
 30
0.0
 10
5.19708251953125
 20
21.93201870388455
 30
0.0
 10
5.19708251953125
 20
21.93201870388455
 30
0.0
 10
5.19708251953125
 20
21.93201870388455
 30
0.0
 10
5.064304775661892
 20
21.84368557400174
 30
0.0
 10
5.064304775661892
 20
21.84368557400174
 30
0.0
 10
5.064304775661892
 20
21.84368557400174
 30
0.0
 10
4.926388210720486
 20
21.74924129909939
 30
0.0
 10
4.926388210720486
 20
21.74924129909939
 30
0.0
 10
4.926388210720486
 20
21.74924129909939
 30
0.0
 10
4.784860399034288
 20
21.64951917860243
 30
0.0
 10
4.784860399034288
 20
21.64951917860243
 30
0.0
 10
4.784860399034288
 20
21.64951917860243
 30
0.0
 10
4.641526963975694
 20
21.54576873779297
 30
0.0
 10
4.641526963975694
 20
21.54576873779297
 30
0.0
 10
4.641526963975694
 20
21.54576873779297
 30
0.0
 10
4.356943766276041
 20
21.33021375868055
 30
0.0
 10
4.356943766276041
 20
21.33021375868055
 30
0.0
 10
4.356943766276041
 20
21.33021375868055
 30
0.0
 10
4.219166225857204
 20
21.22090742323133
 30
0.0
 10
4.219166225857204
 20
21.22090742323133
 30
0.0
 10
4.219166225857204
 20
21.22090742323133
 30
0.0
 10
4.086110432942708
 20
21.11146375868055
 30
0.0
 10
4.086110432942708
 20
21.11146375868055
 30
0.0
 10
4.086110432942708
 20
21.11146375868055
 30
0.0
 10
3.958193884955512
 20
21.00257449679905
 30
0.0
 10
3.958193884955512
 20
21.00257449679905
 30
0.0
 10
3.958193884955512
 20
21.00257449679905
 30
0.0
 10
3.835971408420139
 20
20.89451853434245
 30
0.0
 10
3.835971408420139
 20
20.89451853434245
 30
0.0
 10
3.835971408420139
 20
20.89451853434245
 30
0.0
 10
3.719443851047092
 20
20.78743574354383
 30
0.0
 10
3.719443851047092
 20
20.78743574354383
 30
0.0
 10
3.719443851047092
 20
20.78743574354383
 30
0.0
 10
3.608332739935981
 20
20.6813244289822
 30
0.0
 10
3.608332739935981
 20
20.6813244289822
 30
0.0
 10
3.608332739935981
 20
20.6813244289822
 30
0.0
 10
3.608888414171007
 20
20.68215772840712
 30
0.0
 10
3.608888414171007
 20
20.68215772840712
 30
0.0
 10
3.608888414171007
 20
20.68215772840712
 30
0.0
 10
3.56722174750434
 20
20.81062995062934
 30
0.0
 10
3.56722174750434
 20
20.81062995062934
 30
0.0
 10
3.56722174750434
 20
20.81062995062934
 30
0.0
 10
3.52847162882487
 20
20.93979644775391
 30
0.0
 10
3.52847162882487
 20
20.93979644775391
 30
0.0
 10
3.52847162882487
 20
20.93979644775391
 30
0.0
 10
3.492638481987847
 20
21.06910196940104
 30
0.0
 10
3.492638481987847
 20
21.06910196940104
 30
0.0
 10
3.492638481987847
 20
21.06910196940104
 30
0.0
 10
3.460277133517795
 20
21.19687991672092
 30
0.0
 10
3.460277133517795
 20
21.19687991672092
 30
0.0
 10
3.460277133517795
 20
21.19687991672092
 30
0.0
 10
3.432499355740017
 20
21.3206303914388
 30
0.0
 10
3.432499355740017
 20
21.3206303914388
 30
0.0
 10
3.432499355740017
 20
21.3206303914388
 30
0.0
 10
3.420555114746094
 20
21.38021341959635
 30
0.0
 10
3.420555114746094
 20
21.38021341959635
 30
0.0
 10
3.420555114746094
 20
21.38021341959635
 30
0.0
 10
3.410277048746745
 20
21.43771362304688
 30
0.0
 10
3.410277048746745
 20
21.43771362304688
 30
0.0
 10
3.410277048746745
 20
21.43771362304688
 30
0.0
 10
3.401388380262587
 20
21.49326917860243
 30
0.0
 10
3.401388380262587
 20
21.49326917860243
 30
0.0
 10
3.401388380262587
 20
21.49326917860243
 30
0.0
 10
3.394027286105686
 20
21.54646301269531
 30
0.0
 10
3.394027286105686
 20
21.54646301269531
 30
0.0
 10
3.394027286105686
 20
21.54646301269531
 30
0.0
 10
3.388193766276042
 20
21.5974358452691
 30
0.0
 10
3.388193766276042
 20
21.5974358452691
 30
0.0
 10
3.388193766276042
 20
21.5974358452691
 30
0.0
 10
3.383888244628906
 20
21.64632415771484
 30
0.0
 10
3.383888244628906
 20
21.64632415771484
 30
0.0
 10
3.383888244628906
 20
21.64632415771484
 30
0.0
 10
3.384304894341363
 20
21.64451853434245
 30
0.0
 10
3.384304894341363
 20
21.64451853434245
 30
0.0
 10
3.384304894341363
 20
21.64451853434245
 30
0.0
 10
3.350138346354167
 20
21.62493557400174
 30
0.0
 10
3.350138346354167
 20
21.62493557400174
 30
0.0
 10
3.350138346354167
 20
21.62493557400174
 30
0.0
 10
3.309304979112413
 20
21.60049099392361
 30
0.0
 10
3.309304979112413
 20
21.60049099392361
 30
0.0
 10
3.309304979112413
 20
21.60049099392361
 30
0.0
 10
3.261943817138672
 20
21.57090759277344
 30
0.0
 10
3.261943817138672
 20
21.57090759277344
 30
0.0
 10
3.261943817138672
 20
21.57090759277344
 30
0.0
 10
3.208332909478081
 20
21.53660244411892
 30
0.0
 10
3.208332909478081
 20
21.53660244411892
 30
0.0
 10
3.208332909478081
 20
21.53660244411892
 30
0.0
 10
3.148888270060221
 20
21.4978519015842
 30
0.0
 10
3.148888270060221
 20
21.4978519015842
 30
0.0
 10
3.148888270060221
 20
21.4978519015842
 30
0.0
 10
3.084582646687825
 20
21.45521375868055
 30
0.0
 10
3.084582646687825
 20
21.45521375868055
 30
0.0
 10
3.084582646687825
 20
21.45521375868055
 30
0.0
 10
2.945693757798936
 20
21.36146375868055
 30
0.0
 10
2.945693757798936
 20
21.36146375868055
 30
0.0
 10
2.945693757798936
 20
21.36146375868055
 30
0.0
 10
2.803610483805338
 20
21.26243591308594
 30
0.0
 10
2.803610483805338
 20
21.26243591308594
 30
0.0
 10
2.803610483805338
 20
21.26243591308594
 30
0.0
 10
2.666527218288846
 20
21.16396331787109
 30
0.0
 10
2.666527218288846
 20
21.16396331787109
 30
0.0
 10
2.666527218288846
 20
21.16396331787109
 30
0.0
 10
2.409582773844401
 20
20.96951887342665
 30
0.0
 10
2.409582773844401
 20
20.96951887342665
 30
0.0
 10
2.409582773844401
 20
20.96951887342665
 30
0.0
 10
2.277499304877387
 20
20.86493598090278
 30
0.0
 10
2.277499304877387
 20
20.86493598090278
 30
0.0
 10
2.277499304877387
 20
20.86493598090278
 30
0.0
 10
2.136388354831272
 20
20.75132412380642
 30
0.0
 10
2.136388354831272
 20
20.75132412380642
 30
0.0
 10
2.136388354831272
 20
20.75132412380642
 30
0.0
 10
1.98777707417806
 20
20.62993537055121
 30
0.0
 10
1.98777707417806
 20
20.62993537055121
 30
0.0
 10
1.98777707417806
 20
20.62993537055121
 30
0.0
 10
1.837221569485134
 20
20.50493537055121
 30
0.0
 10
1.837221569485134
 20
20.50493537055121
 30
0.0
 10
1.837221569485134
 20
20.50493537055121
 30
0.0
 10
1.692082722981771
 20
20.38160196940104
 30
0.0
 10
1.692082722981771
 20
20.38160196940104
 30
0.0
 10
1.692082722981771
 20
20.38160196940104
 30
0.0
 10
1.558055029975043
 20
20.26396348741319
 30
0.0
 10
1.558055029975043
 20
20.26396348741319
 30
0.0
 10
1.558055029975043
 20
20.26396348741319
 30
0.0
 10
1.496249304877387
 20
20.20840793185764
 30
0.0
 10
1.496249304877387
 20
20.20840793185764
 30
0.0
 10
1.496249304877387
 20
20.20840793185764
 30
0.0
 10
1.438193851047092
 20
20.15465799967448
 30
0.0
 10
1.438193851047092
 20
20.15465799967448
 30
0.0
 10
1.438193851047092
 20
20.15465799967448
 30
0.0
 10
1.383888244628906
 20
20.10299089219835
 30
0.0
 10
1.383888244628906
 20
20.10299089219835
 30
0.0
 10
1.383888244628906
 20
20.10299089219835
 30
0.0
 10
1.333471616109212
 20
20.05340745713976
 30
0.0
 10
1.333471616109212
 20
20.05340745713976
 30
0.0
 10
1.333471616109212
 20
20.05340745713976
 30
0.0
 10
1.333471616109212
 20
20.05313025580512
 30
0.0
 10
1.333471616109212
 20
20.05313025580512
 30
0.0
 10
1.333471616109212
 20
20.05313025580512
 30
0.0
 10
1.28847164577908
 20
20.18187967936198
 30
0.0
 10
1.28847164577908
 20
20.18187967936198
 30
0.0
 10
1.28847164577908
 20
20.18187967936198
 30
0.0
 10
1.2462494108412
 20
20.325074089898
 30
0.0
 10
1.2462494108412
 20
20.325074089898
 30
0.0
 10
1.2462494108412
 20
20.325074089898
 30
0.0
 10
1.203610526190864
 20
20.48326873779297
 30
0.0
 10
1.203610526190864
 20
20.48326873779297
 30
0.0
 10
1.203610526190864
 20
20.48326873779297
 30
0.0
 10
1.161943859524197
 20
20.6559075249566
 30
0.0
 10
1.161943859524197
 20
20.6559075249566
 30
0.0
 10
1.161943859524197
 20
20.6559075249566
 30
0.0
 10
1.12222162882487
 20
20.84215799967448
 30
0.0
 10
1.12222162882487
 20
20.84215799967448
 30
0.0
 10
1.12222162882487
 20
20.84215799967448
 30
0.0
 10
1.084166102939182
 20
21.04021369086371
 30
0.0
 10
1.084166102939182
 20
21.04021369086371
 30
0.0
 10
1.084166102939182
 20
21.04021369086371
 30
0.0
 10
1.014721658494737
 20
21.45688035753038
 30
0.0
 10
1.014721658494737
 20
21.45688035753038
 30
0.0
 10
1.014721658494737
 20
21.45688035753038
 30
0.0
 10
0.984443876478407
 20
21.66618516710069
 30
0.0
 10
0.984443876478407
 20
21.66618516710069
 30
0.0
 10
0.984443876478407
 20
21.66618516710069
 30
0.0
 10
0.957638316684299
 20
21.86868540445963
 30
0.0
 10
0.957638316684299
 20
21.86868540445963
 30
0.0
 10
0.957638316684299
 20
21.86868540445963
 30
0.0
 10
0.9347216288248698
 20
22.05924140082465
 30
0.0
 10
0.9347216288248698
 20
22.05924140082465
 30
0.0
 10
0.9347216288248698
 20
22.05924140082465
 30
0.0
 10
0.9162493811713324
 20
22.23326873779297
 30
0.0
 10
0.9162493811713324
 20
22.23326873779297
 30
0.0
 10
0.9162493811713324
 20
22.23326873779297
 30
0.0
 10
0.9087493684556749
 20
22.31299082438151
 30
0.0
 10
0.9087493684556749
 20
22.31299082438151
 30
0.0
 10
0.9087493684556749
 20
22.31299082438151
 30
0.0
 10
0.9023604922824435
 20
22.38743591308594
 30
0.0
 10
0.9023604922824435
 20
22.38743591308594
 30
0.0
 10
0.9023604922824435
 20
22.38743591308594
 30
0.0
 10
0.897221565246582
 20
22.45688035753038
 30
0.0
 10
0.897221565246582
 20
22.45688035753038
 30
0.0
 10
0.897221565246582
 20
22.45688035753038
 30
0.0
 10
0.8931938807169596
 20
22.52049085828993
 30
0.0
 10
0.8931938807169596
 20
22.52049085828993
 30
0.0
 10
0.8931938807169596
 20
22.52049085828993
 30
0.0
 10
0.8902771208021375
 20
22.57854631212022
 30
0.0
 10
0.8902771208021375
 20
22.57854631212022
 30
0.0
 10
0.8902771208021375
 20
22.57854631212022
 30
0.0
 10
0.8886105219523112
 20
22.63104671902127
 30
0.0
 10
0.8886105219523112
 20
22.63104671902127
 30
0.0
 10
0.8886105219523112
 20
22.63104671902127
 30
0.0
 10
0.8886105219523112
 20
22.67813025580512
 30
0.0
 10
0.8886105219523112
 20
22.67813025580512
 30
0.0
 10
0.8886105219523112
 20
22.67813025580512
 30
0.0
 10
0.8886105219523112
 20
22.71979692247179
 30
0.0
 10
0.8886105219523112
 20
22.71979692247179
 30
0.0
 10
0.8886105219523112
 20
22.71979692247179
 30
0.0
 10
0.8879160351223415
 20
22.72007412380642
 30
0.0
 10
0.8879160351223415
 20
22.72007412380642
 30
0.0
 10
0.8879160351223415
 20
22.72007412380642
 30
0.0
 10
0.1402771737840441
 20
22.72007412380642
 30
0.0
 10
0.1402771737840441
 20
22.72007412380642
 30
0.0
 10
0.1402771737840441
 20
22.72007412380642
 30
0.0
 10
0.1402771737840441
 20
22.72007412380642
 30
0.0
 10
0.1402771737840441
 20
22.72007412380642
 30
0.0
 10
0.0967847506205241
 20
22.72007412380642
 30
0.0
 10
0.0615271462334527
 20
22.75533125135633
 30
0.0
 10
0.0615271462334527
 20
22.79882388644748
 30
0.0
 10
0.0615271462334527
 20
22.79882388644748
 30
0.0
 10
0.0615271462334527
 20
22.79882473415799
 30
0.0
 10
0.0615271462334527
 20
22.79882473415799
 30
0.0
 10
0.0615271462334527
 20
22.79882473415799
 30
0.0
 10
0.0615271462334527
 20
22.79882473415799
 30
0.0
 10
0.0615271462334527
 20
22.79882473415799
 30
0.0
 10
0.0615271462334527
 20
22.79882473415799
 30
0.0
 10
0.0615271462334527
 20
23.08146328396267
 30
0.0
 10
0.0615271462334527
 20
23.08146328396267
 30
0.0
 10
0.0615271462334527
 20
23.08146328396267
 30
0.0
 10
0.0615271462334527
 20
23.08146328396267
 30
0.0
 10
0.0615271462334527
 20
23.08146328396267
 30
0.0
 10
0.0615271462334527
 20
23.08146328396267
 30
0.0
 10
4.561527252197266
 20
23.08146328396267
 30
0.0
 10
4.561527252197266
 20
23.08146328396267
 30
0.0
 10
4.561527252197266
 20
23.08146328396267
 30
0.0
 10
4.561527252197266
 20
23.08146328396267
 30
0.0
 10
4.561527252197266
 20
23.08146328396267
 30
0.0
 10
4.561527252197266
 20
23.08146328396267
 30
0.0
 10
4.561527252197266
 20
23.18187967936198
 30
0.0
 10
4.561527252197266
 20
23.18187967936198
 30
0.0
 10
4.561527252197266
 20
23.18187967936198
 30
0.0
 10
4.561527252197266
 20
23.18187967936198
 30
0.0
 10
4.561527252197266
 20
23.18187967936198
 30
0.0
 10
4.561527252197266
 20
23.18187967936198
 30
0.0
 10
4.561527252197266
 20
23.28229692247179
 30
0.0
 10
4.561527252197266
 20
23.28229692247179
 30
0.0
 10
4.561527252197266
 20
23.28229692247179
 30
0.0
 10
4.561527252197266
 20
23.28229692247179
 30
0.0
 10
4.561527252197266
 20
23.28229692247179
 30
0.0
 10
4.561527252197266
 20
23.28229692247179
 30
0.0
 10
0.0615271462334527
 20
23.28229692247179
 30
0.0
 10
0.0615271462334527
 20
23.28229692247179
 30
0.0
 10
0.0615271462334527
 20
23.28229692247179
 30
0.0
 10
0.0615271462334527
 20
23.28229692247179
 30
0.0
 10
0.0615271462334527
 20
23.28229692247179
 30
0.0
 10
0.0615271462334527
 20
23.28229692247179
 30
0.0
 10
0.0615271462334527
 20
23.56493547227647
 30
0.0
 10
0.0615271462334527
 20
23.56493547227647
 30
0.0
 10
0.0615271462334527
 20
23.56493547227647
 30
0.0
 10
0.0615271462334527
 20
23.56493547227647
 30
0.0
 10
0.0615271462334527
 20
23.56493547227647
 30
0.0
 10
0.0615272521972656
 20
23.60842810736762
 30
0.0
 10
0.096784856584337
 20
23.64368523491753
 30
0.0
 10
0.1402771737840441
 20
23.64368523491753
 30
0.0
 10
0.1402771737840441
 20
23.64368523491753
 30
0.0
 10
0.1402771737840441
 20
23.64368523491753
 30
0.0
 10
0.1402771737840441
 20
23.64368523491753
 30
0.0
 10
0.1402771737840441
 20
23.64368523491753
 30
0.0
 10
0.8879160351223415
 20
23.64368523491753
 30
0.0
 10
0.8879160351223415
 20
23.64368523491753
 30
0.0
 10
0.8879160351223415
 20
23.64368523491753
 30
0.0
 10
0.8876383039686414
 20
23.64243570963541
 30
0.0
 10
0.8876383039686414
 20
23.64243570963541
 30
0.0
  0
ENDBLK
  5
48
330
45
100
AcDbEntity
  8
0
100
AcDbBlockEnd
  0
BLOCK
  5
4C
330
4A
100
AcDbEntity
  8
0
100
AcDbBlockBegin
  2
block 4
 70
     0
 10
0.0
 20
0.0
 30
0.0
  3
block 4
  1

  0
SPLINE
  5
4E
330
4A
100
AcDbEntity
  8
Layer 1
 62
     1
420
 16716306
370
    35
100
AcDbSpline
210
0.0
220
0.0
230
1.0
 70
    11
 71
     3
 72
   626
 73
   622
 74
     0
 42
0.0000000001
 43
0.0000000001
 12
1.0
 22
0.0
 32
0.0
 13
1.0
 23
0.0
 33
0.0
 40
0.0
 40
0.0
 40
0.0
 40
0.0
 40
1.0
 40
1.0
 40
1.0
 40
2.0
 40
2.0
 40
2.0
 40
3.0
 40
3.0
 40
3.0
 40
4.0
 40
4.0
 40
4.0
 40
5.0
 40
5.0
 40
5.0
 40
6.0
 40
6.0
 40
6.0
 40
7.0
 40
7.0
 40
7.0
 40
8.0
 40
8.0
 40
8.0
 40
9.0
 40
9.0
 40
9.0
 40
10.0
 40
10.0
 40
10.0
 40
11.0
 40
11.0
 40
11.0
 40
12.0
 40
12.0
 40
12.0
 40
13.0
 40
13.0
 40
13.0
 40
14.0
 40
14.0
 40
14.0
 40
15.0
 40
15.0
 40
15.0
 40
16.0
 40
16.0
 40
16.0
 40
17.0
 40
17.0
 40
17.0
 40
18.0
 40
18.0
 40
18.0
 40
19.0
 40
19.0
 40
19.0
 40
20.0
 40
20.0
 40
20.0
 40
21.0
 40
21.0
 40
21.0
 40
22.0
 40
22.0
 40
22.0
 40
23.0
 40
23.0
 40
23.0
 40
24.0
 40
24.0
 40
24.0
 40
25.0
 40
25.0
 40
25.0
 40
26.0
 40
26.0
 40
26.0
 40
27.0
 40
27.0
 40
27.0
 40
28.0
 40
28.0
 40
28.0
 40
29.0
 40
29.0
 40
29.0
 40
30.0
 40
30.0
 40
30.0
 40
31.0
 40
31.0
 40
31.0
 40
32.0
 40
32.0
 40
32.0
 40
33.0
 40
33.0
 40
33.0
 40
34.0
 40
34.0
 40
34.0
 40
35.0
 40
35.0
 40
35.0
 40
36.0
 40
36.0
 40
36.0
 40
37.0
 40
37.0
 40
37.0
 40
38.0
 40
38.0
 40
38.0
 40
39.0
 40
39.0
 40
39.0
 40
40.0
 40
40.0
 40
40.0
 40
41.0
 40
41.0
 40
41.0
 40
42.0
 40
42.0
 40
42.0
 40
43.0
 40
43.0
 40
43.0
 40
44.0
 40
44.0
 40
44.0
 40
45.0
 40
45.0
 40
45.0
 40
46.0
 40
46.0
 40
46.0
 40
47.0
 40
47.0
 40
47.0
 40
48.0
 40
48.0
 40
48.0
 40
49.0
 40
49.0
 40
49.0
 40
50.0
 40
50.0
 40
50.0
 40
51.0
 40
51.0
 40
51.0
 40
52.0
 40
52.0
 40
52.0
 40
53.0
 40
53.0
 40
53.0
 40
54.0
 40
54.0
 40
54.0
 40
55.0
 40
55.0
 40
55.0
 40
56.0
 40
56.0
 40
56.0
 40
57.0
 40
57.0
 40
57.0
 40
58.0
 40
58.0
 40
58.0
 40
59.0
 40
59.0
 40
59.0
 40
60.0
 40
60.0
 40
60.0
 40
61.0
 40
61.0
 40
61.0
 40
62.0
 40
62.0
 40
62.0
 40
63.0
 40
63.0
 40
63.0
 40
64.0
 40
64.0
 40
64.0
 40
65.0
 40
65.0
 40
65.0
 40
66.0
 40
66.0
 40
66.0
 40
67.0
 40
67.0
 40
67.0
 40
68.0
 40
68.0
 40
68.0
 40
69.0
 40
69.0
 40
69.0
 40
70.0
 40
70.0
 40
70.0
 40
71.0
 40
71.0
 40
71.0
 40
72.0
 40
72.0
 40
72.0
 40
73.0
 40
73.0
 40
73.0
 40
74.0
 40
74.0
 40
74.0
 40
75.0
 40
75.0
 40
75.0
 40
76.0
 40
76.0
 40
76.0
 40
77.0
 40
77.0
 40
77.0
 40
78.0
 40
78.0
 40
78.0
 40
79.0
 40
79.0
 40
79.0
 40
80.0
 40
80.0
 40
80.0
 40
81.0
 40
81.0
 40
81.0
 40
82.0
 40
82.0
 40
82.0
 40
83.0
 40
83.0
 40
83.0
 40
84.0
 40
84.0
 40
84.0
 40
85.0
 40
85.0
 40
85.0
 40
86.0
 40
86.0
 40
86.0
 40
87.0
 40
87.0
 40
87.0
 40
88.0
 40
88.0
 40
88.0
 40
89.0
 40
89.0
 40
89.0
 40
90.0
 40
90.0
 40
90.0
 40
91.0
 40
91.0
 40
91.0
 40
92.0
 40
92.0
 40
92.0
 40
93.0
 40
93.0
 40
93.0
 40
94.0
 40
94.0
 40
94.0
 40
95.0
 40
95.0
 40
95.0
 40
96.0
 40
96.0
 40
96.0
 40
97.0
 40
97.0
 40
97.0
 40
98.0
 40
98.0
 40
98.0
 40
99.0
 40
99.0
 40
99.0
 40
100.0
 40
100.0
 40
100.0
 40
101.0
 40
101.0
 40
101.0
 40
102.0
 40
102.0
 40
102.0
 40
103.0
 40
103.0
 40
103.0
 40
104.0
 40
104.0
 40
104.0
 40
105.0
 40
105.0
 40
105.0
 40
106.0
 40
106.0
 40
106.0
 40
107.0
 40
107.0
 40
107.0
 40
108.0
 40
108.0
 40
108.0
 40
109.0
 40
109.0
 40
109.0
 40
110.0
 40
110.0
 40
110.0
 40
111.0
 40
111.0
 40
111.0
 40
112.0
 40
112.0
 40
112.0
 40
113.0
 40
113.0
 40
113.0
 40
114.0
 40
114.0
 40
114.0
 40
115.0
 40
115.0
 40
115.0
 40
116.0
 40
116.0
 40
116.0
 40
117.0
 40
117.0
 40
117.0
 40
118.0
 40
118.0
 40
118.0
 40
119.0
 40
119.0
 40
119.0
 40
120.0
 40
120.0
 40
120.0
 40
121.0
 40
121.0
 40
121.0
 40
122.0
 40
122.0
 40
122.0
 40
123.0
 40
123.0
 40
123.0
 40
124.0
 40
124.0
 40
124.0
 40
125.0
 40
125.0
 40
125.0
 40
126.0
 40
126.0
 40
126.0
 40
127.0
 40
127.0
 40
127.0
 40
128.0
 40
128.0
 40
128.0
 40
129.0
 40
129.0
 40
129.0
 40
130.0
 40
130.0
 40
130.0
 40
131.0
 40
131.0
 40
131.0
 40
132.0
 40
132.0
 40
132.0
 40
133.0
 40
133.0
 40
133.0
 40
134.0
 40
134.0
 40
134.0
 40
135.0
 40
135.0
 40
135.0
 40
136.0
 40
136.0
 40
136.0
 40
137.0
 40
137.0
 40
137.0
 40
138.0
 40
138.0
 40
138.0
 40
139.0
 40
139.0
 40
139.0
 40
140.0
 40
140.0
 40
140.0
 40
141.0
 40
141.0
 40
141.0
 40
142.0
 40
142.0
 40
142.0
 40
143.0
 40
143.0
 40
143.0
 40
144.0
 40
144.0
 40
144.0
 40
145.0
 40
145.0
 40
145.0
 40
146.0
 40
146.0
 40
146.0
 40
147.0
 40
147.0
 40
147.0
 40
148.0
 40
148.0
 40
148.0
 40
149.0
 40
149.0
 40
149.0
 40
150.0
 40
150.0
 40
150.0
 40
151.0
 40
151.0
 40
151.0
 40
152.0
 40
152.0
 40
152.0
 40
153.0
 40
153.0
 40
153.0
 40
154.0
 40
154.0
 40
154.0
 40
155.0
 40
155.0
 40
155.0
 40
156.0
 40
156.0
 40
156.0
 40
157.0
 40
157.0
 40
157.0
 40
158.0
 40
158.0
 40
158.0
 40
159.0
 40
159.0
 40
159.0
 40
160.0
 40
160.0
 40
160.0
 40
161.0
 40
161.0
 40
161.0
 40
162.0
 40
162.0
 40
162.0
 40
163.0
 40
163.0
 40
163.0
 40
164.0
 40
164.0
 40
164.0
 40
165.0
 40
165.0
 40
165.0
 40
166.0
 40
166.0
 40
166.0
 40
167.0
 40
167.0
 40
167.0
 40
168.0
 40
168.0
 40
168.0
 40
169.0
 40
169.0
 40
169.0
 40
170.0
 40
170.0
 40
170.0
 40
171.0
 40
171.0
 40
171.0
 40
172.0
 40
172.0
 40
172.0
 40
173.0
 40
173.0
 40
173.0
 40
174.0
 40
174.0
 40
174.0
 40
175.0
 40
175.0
 40
175.0
 40
176.0
 40
176.0
 40
176.0
 40
177.0
 40
177.0
 40
177.0
 40
178.0
 40
178.0
 40
178.0
 40
179.0
 40
179.0
 40
179.0
 40
180.0
 40
180.0
 40
180.0
 40
181.0
 40
181.0
 40
181.0
 40
182.0
 40
182.0
 40
182.0
 40
183.0
 40
183.0
 40
183.0
 40
184.0
 40
184.0
 40
184.0
 40
185.0
 40
185.0
 40
185.0
 40
186.0
 40
186.0
 40
186.0
 40
187.0
 40
187.0
 40
187.0
 40
188.0
 40
188.0
 40
188.0
 40
189.0
 40
189.0
 40
189.0
 40
190.0
 40
190.0
 40
190.0
 40
191.0
 40
191.0
 40
191.0
 40
192.0
 40
192.0
 40
192.0
 40
193.0
 40
193.0
 40
193.0
 40
194.0
 40
194.0
 40
194.0
 40
195.0
 40
195.0
 40
195.0
 40
196.0
 40
196.0
 40
196.0
 40
197.0
 40
197.0
 40
197.0
 40
198.0
 40
198.0
 40
198.0
 40
199.0
 40
199.0
 40
199.0
 40
200.0
 40
200.0
 40
200.0
 40
201.0
 40
201.0
 40
201.0
 40
202.0
 40
202.0
 40
202.0
 40
203.0
 40
203.0
 40
203.0
 40
204.0
 40
204.0
 40
204.0
 40
205.0
 40
205.0
 40
205.0
 40
206.0
 40
206.0
 40
206.0
 40
207.0
 40
207.0
 40
207.0
 40
207.0
 10
4.650438891516791
 20
19.44960700141059
 30
0.0
 10
4.650438891516791
 20
19.44960700141059
 30
0.0
 10
0.5625221994188097
 20
19.44960700141059
 30
0.0
 10
0.5625221994188097
 20
19.44960700141059
 30
0.0
 10
0.5625221994188097
 20
19.44960700141059
 30
0.0
 10
0.5625221994188097
 20
19.44877370198568
 30
0.0
 10
0.5625221994188097
 20
19.44877370198568
 30
0.0
 10
0.5625221994188097
 20
19.44877370198568
 30
0.0
 10
0.7266888618469238
 20
19.39849599202474
 30
0.0
 10
0.7266888618469238
 20
19.39849599202474
 30
0.0
 10
0.7266888618469238
 20
19.39849599202474
 30
0.0
 10
0.898494455549452
 20
19.34030151367188
 30
0.0
 10
0.898494455549452
 20
19.34030151367188
 30
0.0
 10
0.898494455549452
 20
19.34030151367188
 30
0.0
 10
1.077522224850125
 20
19.27377404106988
 30
0.0
 10
1.077522224850125
 20
19.27377404106988
 30
0.0
 10
1.077522224850125
 20
19.27377404106988
 30
0.0
 10
1.263494438595242
 20
19.19807942708333
 30
0.0
 10
1.263494438595242
 20
19.19807942708333
 30
0.0
 10
1.263494438595242
 20
19.19807942708333
 30
0.0
 10
1.45557779735989
 20
19.1129404703776
 30
0.0
 10
1.45557779735989
 20
19.1129404703776
 30
0.0
 10
1.45557779735989
 20
19.1129404703776
 30
0.0
 10
1.652661164601644
 20
19.01835717095269
 30
0.0
 10
1.652661164601644
 20
19.01835717095269
 30
0.0
 10
1.652661164601644
 20
19.01835717095269
 30
0.0
 10
1.852661079830593
 20
18.9147457546658
 30
0.0
 10
1.852661079830593
 20
18.9147457546658
 30
0.0
 10
1.852661079830593
 20
18.9147457546658
 30
0.0
 10
2.053355481889513
 20
18.80363464355469
 30
0.0
 10
2.053355481889513
 20
18.80363464355469
 30
0.0
 10
2.053355481889513
 20
18.80363464355469
 30
0.0
 10
2.251549985673692
 20
18.68585713704427
 30
0.0
 10
2.251549985673692
 20
18.68585713704427
 30
0.0
 10
2.251549985673692
 20
18.68585713704427
 30
0.0
 10
2.444605456458198
 20
18.56349605984158
 30
0.0
 10
2.444605456458198
 20
18.56349605984158
 30
0.0
 10
2.444605456458198
 20
18.56349605984158
 30
0.0
 10
2.629466745588514
 20
18.43849605984158
 30
0.0
 10
2.629466745588514
 20
18.43849605984158
 30
0.0
 10
2.629466745588514
 20
18.43849605984158
 30
0.0
 10
2.803911156124539
 20
18.3125237358941
 30
0.0
 10
2.803911156124539
 20
18.3125237358941
 30
0.0
 10
2.803911156124539
 20
18.3125237358941
 30
0.0
 10
2.966411113739014
 20
18.18669043646918
 30
0.0
 10
2.966411113739014
 20
18.18669043646918
 30
0.0
 10
2.966411113739014
 20
18.18669043646918
 30
0.0
 10
3.116133319007026
 20
18.06169043646918
 30
0.0
 10
3.116133319007026
 20
18.06169043646918
 30
0.0
 10
3.116133319007026
 20
18.06169043646918
 30
0.0
 10
3.253077560000949
 20
17.93780178493924
 30
0.0
 10
3.253077560000949
 20
17.93780178493924
 30
0.0
 10
3.253077560000949
 20
17.93780178493924
 30
0.0
 10
3.376966635386149
 20
17.81502363416883
 30
0.0
 10
3.376966635386149
 20
17.81502363416883
 30
0.0
 10
3.376966635386149
 20
17.81502363416883
 30
0.0
 10
3.376549985673692
 20
17.81349605984158
 30
0.0
 10
3.376549985673692
 20
17.81349605984158
 30
0.0
 10
3.376549985673692
 20
17.81349605984158
 30
0.0
 10
3.438910961151123
 20
18.04099612765842
 30
0.0
 10
3.438910961151123
 20
18.04099612765842
 30
0.0
 10
3.438910961151123
 20
18.04099612765842
 30
0.0
 10
3.438910961151123
 20
18.04099612765842
 30
0.0
 10
3.438910961151123
 20
18.04099612765842
 30
0.0
 10
3.438910961151123
 20
18.04099612765842
 30
0.0
 10
3.504744582706028
 20
18.3750237358941
 30
0.0
 10
3.504744582706028
 20
18.3750237358941
 30
0.0
 10
3.504744582706028
 20
18.3750237358941
 30
0.0
 10
3.504744582706028
 20
18.3750237358941
 30
0.0
 10
3.504744582706028
 20
18.3750237358941
 30
0.0
 10
3.504744582706028
 20
18.3750237358941
 30
0.0
 10
3.546411249372694
 20
18.58502366807726
 30
0.0
 10
3.546411249372694
 20
18.58502366807726
 30
0.0
 10
3.546411249372694
 20
18.58502366807726
 30
0.0
 10
3.546411249372694
 20
18.58752356635199
 30
0.0
 10
3.546411249372694
 20
18.58752356635199
 30
0.0
 10
3.546411249372694
 20
18.58752356635199
 30
0.0
 10
3.653772089216444
 20
18.52599589029948
 30
0.0
 10
3.653772089216444
 20
18.52599589029948
 30
0.0
 10
3.653772089216444
 20
18.52599589029948
 30
0.0
 10
3.767800172170003
 20
18.45780181884766
 30
0.0
 10
3.767800172170003
 20
18.45780181884766
 30
0.0
 10
3.767800172170003
 20
18.45780181884766
 30
0.0
 10
3.888216601477729
 20
18.38280147976345
 30
0.0
 10
3.888216601477729
 20
18.38280147976345
 30
0.0
 10
3.888216601477729
 20
18.38280147976345
 30
0.0
 10
4.015022224850124
 20
18.30099572075738
 30
0.0
 10
4.015022224850124
 20
18.30099572075738
 30
0.0
 10
4.015022224850124
 20
18.30099572075738
 30
0.0
 10
4.147938993242052
 20
18.21266259087457
 30
0.0
 10
4.147938993242052
 20
18.21266259087457
 30
0.0
 10
4.147938993242052
 20
18.21266259087457
 30
0.0
 10
4.285716533660889
 20
18.11821831597222
 30
0.0
 10
4.285716533660889
 20
18.11821831597222
 30
0.0
 10
4.285716533660889
 20
18.11821831597222
 30
0.0
 10
4.427244345347086
 20
18.01849619547526
 30
0.0
 10
4.427244345347086
 20
18.01849619547526
 30
0.0
 10
4.427244345347086
 20
18.01849619547526
 30
0.0
 10
4.57057778040568
 20
17.91474617852105
 30
0.0
 10
4.57057778040568
 20
17.91474617852105
 30
0.0
 10
4.57057778040568
 20
17.91474617852105
 30
0.0
 10
4.855160978105332
 20
17.69919035169813
 30
0.0
 10
4.855160978105332
 20
17.69919035169813
 30
0.0
 10
4.855160978105332
 20
17.69919035169813
 30
0.0
 10
4.992938942379421
 20
17.58974583943685
 30
0.0
 10
4.992938942379421
 20
17.58974583943685
 30
0.0
 10
4.992938942379421
 20
17.58974583943685
 30
0.0
 10
5.126133335961236
 20
17.48044035169813
 30
0.0
 10
5.126133335961236
 20
17.48044035169813
 30
0.0
 10
5.126133335961236
 20
17.48044035169813
 30
0.0
 10
5.253911283281114
 20
17.37155151367188
 30
0.0
 10
5.253911283281114
 20
17.37155151367188
 30
0.0
 10
5.253911283281114
 20
17.37155151367188
 30
0.0
 10
5.376133335961236
 20
17.26349597507053
 30
0.0
 10
5.376133335961236
 20
17.26349597507053
 30
0.0
 10
5.376133335961236
 20
17.26349597507053
 30
0.0
 10
5.492660893334283
 20
17.15641276041666
 30
0.0
 10
5.492660893334283
 20
17.15641276041666
 30
0.0
 10
5.492660893334283
 20
17.15641276041666
 30
0.0
 10
5.603772004445394
 20
17.05030144585503
 30
0.0
 10
5.603772004445394
 20
17.05030144585503
 30
0.0
 10
5.603772004445394
 20
17.05030144585503
 30
0.0
 10
5.60307772954305
 20
17.0493295457628
 30
0.0
 10
5.60307772954305
 20
17.0493295457628
 30
0.0
 10
5.60307772954305
 20
17.0493295457628
 30
0.0
 10
5.644744396209717
 20
17.17780176798502
 30
0.0
 10
5.644744396209717
 20
17.17780176798502
 30
0.0
 10
5.644744396209717
 20
17.17780176798502
 30
0.0
 10
5.683494514889187
 20
17.30696826510959
 30
0.0
 10
5.683494514889187
 20
17.30696826510959
 30
0.0
 10
5.683494514889187
 20
17.30696826510959
 30
0.0
 10
5.71932766172621
 20
17.43627378675673
 30
0.0
 10
5.71932766172621
 20
17.43627378675673
 30
0.0
 10
5.71932766172621
 20
17.43627378675673
 30
0.0
 10
5.751689010196261
 20
17.56405173407661
 30
0.0
 10
5.751689010196261
 20
17.56405173407661
 30
0.0
 10
5.751689010196261
 20
17.56405173407661
 30
0.0
 10
5.779466787974039
 20
17.68780178493924
 30
0.0
 10
5.779466787974039
 20
17.68780178493924
 30
0.0
 10
5.779466787974039
 20
17.68780178493924
 30
0.0
 10
5.791272004445394
 20
17.74738481309679
 30
0.0
 10
5.791272004445394
 20
17.74738481309679
 30
0.0
 10
5.791272004445394
 20
17.74738481309679
 30
0.0
 10
5.801688671112061
 20
17.80488501654731
 30
0.0
 10
5.801688671112061
 20
17.80488501654731
 30
0.0
 10
5.801688671112061
 20
17.80488501654731
 30
0.0
 10
5.810438738928901
 20
17.86044057210286
 30
0.0
 10
5.810438738928901
 20
17.86044057210286
 30
0.0
 10
5.810438738928901
 20
17.86044057210286
 30
0.0
 10
5.817799833085801
 20
17.913634830051
 30
0.0
 10
5.817799833085801
 20
17.913634830051
 30
0.0
 10
5.817799833085801
 20
17.913634830051
 30
0.0
 10
5.823633352915445
 20
17.96460723876953
 30
0.0
 10
5.823633352915445
 20
17.96460723876953
 30
0.0
 10
5.823633352915445
 20
17.96460723876953
 30
0.0
 10
5.828077899085151
 20
18.01349597507053
 30
0.0
 10
5.828077899085151
 20
18.01349597507053
 30
0.0
 10
5.828077899085151
 20
18.01349597507053
 30
0.0
 10
5.826966550615098
 20
18.01266267564561
 30
0.0
 10
5.826966550615098
 20
18.01266267564561
 30
0.0
 10
5.826966550615098
 20
18.01266267564561
 30
0.0
 10
5.861133522457546
 20
17.99307929144965
 30
0.0
 10
5.861133522457546
 20
17.99307929144965
 30
0.0
 10
5.861133522457546
 20
17.99307929144965
 30
0.0
 10
5.901966465844048
 20
17.96863471137153
 30
0.0
 10
5.901966465844048
 20
17.96863471137153
 30
0.0
 10
5.901966465844048
 20
17.96863471137153
 30
0.0
 10
5.949189027150472
 20
17.9390517340766
 30
0.0
 10
5.949189027150472
 20
17.9390517340766
 30
0.0
 10
5.949189027150472
 20
17.9390517340766
 30
0.0
 10
6.002938959333632
 20
17.90474616156684
 30
0.0
 10
6.002938959333632
 20
17.90474616156684
 30
0.0
 10
6.002938959333632
 20
17.90474616156684
 30
0.0
 10
6.062383386823866
 20
17.86599604288737
 30
0.0
 10
6.062383386823866
 20
17.86599604288737
 30
0.0
 10
6.062383386823866
 20
17.86599604288737
 30
0.0
 10
6.126689010196261
 20
17.82335705227322
 30
0.0
 10
6.126689010196261
 20
17.82335705227322
 30
0.0
 10
6.126689010196261
 20
17.82335705227322
 30
0.0
 10
6.265577899085151
 20
17.72960705227322
 30
0.0
 10
6.265577899085151
 20
17.72960705227322
 30
0.0
 10
6.265577899085151
 20
17.72960705227322
 30
0.0
 10
6.407799985673692
 20
17.6305792066786
 30
0.0
 10
6.407799985673692
 20
17.6305792066786
 30
0.0
 10
6.407799985673692
 20
17.6305792066786
 30
0.0
 10
6.544883251190186
 20
17.53196843465169
 30
0.0
 10
6.544883251190186
 20
17.53196843465169
 30
0.0
 10
6.544883251190186
 20
17.53196843465169
 30
0.0
 10
6.801827695634629
 20
17.33752399020725
 30
0.0
 10
6.801827695634629
 20
17.33752399020725
 30
0.0
 10
6.801827695634629
 20
17.33752399020725
 30
0.0
 10
6.933772140079074
 20
17.23294067382812
 30
0.0
 10
6.933772140079074
 20
17.23294067382812
 30
0.0
 10
6.933772140079074
 20
17.23294067382812
 30
0.0
 10
7.074883725908067
 20
17.11932924058702
 30
0.0
 10
7.074883725908067
 20
17.11932924058702
 30
0.0
 10
7.074883725908067
 20
17.11932924058702
 30
0.0
 10
7.223633183373344
 20
16.99780146280924
 30
0.0
 10
7.223633183373344
 20
16.99780146280924
 30
0.0
 10
7.223633183373344
 20
16.99780146280924
 30
0.0
 10
7.374189111921522
 20
16.87280146280924
 30
0.0
 10
7.374189111921522
 20
16.87280146280924
 30
0.0
 10
7.374189111921522
 20
16.87280146280924
 30
0.0
 10
7.519328170352511
 20
16.74946806165907
 30
0.0
 10
7.519328170352511
 20
16.74946806165907
 30
0.0
 10
7.519328170352511
 20
16.74946806165907
 30
0.0
 10
7.653216414981418
 20
16.63182915581597
 30
0.0
 10
7.653216414981418
 20
16.63182915581597
 30
0.0
 10
7.653216414981418
 20
16.63182915581597
 30
0.0
 10
7.715022140079074
 20
16.57627360026041
 30
0.0
 10
7.715022140079074
 20
16.57627360026041
 30
0.0
 10
7.715022140079074
 20
16.57627360026041
 30
0.0
 10
7.773216618431938
 20
16.52238506740994
 30
0.0
 10
7.773216618431938
 20
16.52238506740994
 30
0.0
 10
7.773216618431938
 20
16.52238506740994
 30
0.0
 10
7.827383624182807
 20
16.47071838378906
 30
0.0
 10
7.827383624182807
 20
16.47071838378906
 30
0.0
 10
7.827383624182807
 20
16.47071838378906
 30
0.0
 10
7.877938535478379
 20
16.42127397325304
 30
0.0
 10
7.877938535478379
 20
16.42127397325304
 30
0.0
 10
7.877938535478379
 20
16.42127397325304
 30
0.0
 10
7.877938535478379
 20
16.42127397325304
 30
0.0
 10
7.877938535478379
 20
16.42127397325304
 30
0.0
 10
7.877938535478379
 20
16.42127397325304
 30
0.0
 10
7.922800223032633
 20
16.55002382066515
 30
0.0
 10
7.922800223032633
 20
16.55002382066515
 30
0.0
 10
7.922800223032633
 20
16.55002382066515
 30
0.0
 10
7.966549714406331
 20
16.69335725572374
 30
0.0
 10
7.966549714406331
 20
16.69335725572374
 30
0.0
 10
7.966549714406331
 20
16.69335725572374
 30
0.0
 10
8.009049680497911
 20
16.85155147976345
 30
0.0
 10
8.009049680497911
 20
16.85155147976345
 30
0.0
 10
8.009049680497911
 20
16.85155147976345
 30
0.0
 10
8.050716347164578
 20
17.02419026692708
 30
0.0
 10
8.050716347164578
 20
17.02419026692708
 30
0.0
 10
8.050716347164578
 20
17.02419026692708
 30
0.0
 10
8.090439213646782
 20
17.21044031778971
 30
0.0
 10
8.090439213646782
 20
17.21044031778971
 30
0.0
 10
8.090439213646782
 20
17.21044031778971
 30
0.0
 10
8.128355609046087
 20
17.40849600897895
 30
0.0
 10
8.128355609046087
 20
17.40849600897895
 30
0.0
 10
8.128355609046087
 20
17.40849600897895
 30
0.0
 10
8.197800053490532
 20
17.82516267564561
 30
0.0
 10
8.197800053490532
 20
17.82516267564561
 30
0.0
 10
8.197800053490532
 20
17.82516267564561
 30
0.0
 10
8.228077729543049
 20
18.03446833292643
 30
0.0
 10
8.228077729543049
 20
18.03446833292643
 30
0.0
 10
8.228077729543049
 20
18.03446833292643
 30
0.0
 10
8.255022207895914
 20
18.23696814643012
 30
0.0
 10
8.255022207895914
 20
18.23696814643012
 30
0.0
 10
8.255022207895914
 20
18.23696814643012
 30
0.0
 10
8.277800189124212
 20
18.42752414279514
 30
0.0
 10
8.277800189124212
 20
18.42752414279514
 30
0.0
 10
8.277800189124212
 20
18.42752414279514
 30
0.0
 10
8.296271800994873
 20
18.60155147976345
 30
0.0
 10
8.296271800994873
 20
18.60155147976345
 30
0.0
 10
8.296271800994873
 20
18.60155147976345
 30
0.0
 10
8.303911368052164
 20
18.68127356635199
 30
0.0
 10
8.303911368052164
 20
18.68127356635199
 30
0.0
 10
8.303911368052164
 20
18.68127356635199
 30
0.0
 10
8.310160689883762
 20
18.75571865505642
 30
0.0
 10
8.310160689883762
 20
18.75571865505642
 30
0.0
 10
8.310160689883762
 20
18.75571865505642
 30
0.0
 10
8.31543853547838
 20
18.82516309950087
 30
0.0
 10
8.31543853547838
 20
18.82516309950087
 30
0.0
 10
8.31543853547838
 20
18.82516309950087
 30
0.0
 10
8.31946685579088
 20
18.88877360026041
 30
0.0
 10
8.31946685579088
 20
18.88877360026041
 30
0.0
 10
8.31946685579088
 20
18.88877360026041
 30
0.0
 10
8.322244803110758
 20
18.94682905409071
 30
0.0
 10
8.322244803110758
 20
18.94682905409071
 30
0.0
 10
8.322244803110758
 20
18.94682905409071
 30
0.0
 10
8.323911401960585
 20
18.99932946099175
 30
0.0
 10
8.323911401960585
 20
18.99932946099175
 30
0.0
 10
8.323911401960585
 20
18.99932946099175
 30
0.0
 10
8.323911401960585
 20
19.04641299777561
 30
0.0
 10
8.323911401960585
 20
19.04641299777561
 30
0.0
 10
8.323911401960585
 20
19.04641299777561
 30
0.0
 10
8.323911401960585
 20
19.08807966444227
 30
0.0
 10
8.323911401960585
 20
19.08807966444227
 30
0.0
 10
8.323911401960585
 20
19.08807966444227
 30
0.0
 10
8.323494328392876
 20
19.08613501654731
 30
0.0
 10
8.323494328392876
 20
19.08613501654731
 30
0.0
 10
8.323494328392876
 20
19.08613501654731
 30
0.0
 10
9.070994430118136
 20
19.08613501654731
 30
0.0
 10
9.070994430118136
 20
19.08613501654731
 30
0.0
 10
9.070994430118136
 20
19.08613501654731
 30
0.0
 10
9.070855405595568
 20
19.0879406399197
 30
0.0
 10
9.070855405595568
 20
19.0879406399197
 30
0.0
 10
9.114424334632025
 20
19.0879406399197
 30
0.0
 10
9.149744192759195
 20
19.12326049804688
 30
0.0
 10
9.149744192759195
 20
19.16682942708333
 30
0.0
 10
9.149744192759195
 20
19.16682942708333
 30
0.0
 10
9.149883217281765
 20
19.16502380371094
 30
0.0
 10
9.149883217281765
 20
19.16502380371094
 30
0.0
 10
9.149883217281765
 20
19.16502380371094
 30
0.0
 10
9.149883217281765
 20
19.47266303168403
 30
0.0
 10
9.149883217281765
 20
19.47266303168403
 30
0.0
 10
9.149883217281765
 20
19.47266303168403
 30
0.0
 10
9.150300290849474
 20
19.47460683186849
 30
0.0
 10
9.150300290849474
 20
19.47460683186849
 30
0.0
 10
9.150300290849474
 20
19.47460683186849
 30
0.0
 10
9.150300290849474
 20
19.6254408094618
 30
0.0
 10
9.150300290849474
 20
19.6254408094618
 30
0.0
 10
9.150300290849474
 20
19.6254408094618
 30
0.0
 10
9.149883217281765
 20
19.62349616156684
 30
0.0
 10
9.149883217281765
 20
19.62349616156684
 30
0.0
 10
9.149883217281765
 20
19.62349616156684
 30
0.0
 10
9.149883217281765
 20
19.93113454182943
 30
0.0
 10
9.149883217281765
 20
19.93113454182943
 30
0.0
 10
9.149883217281765
 20
19.93113454182943
 30
0.0
 10
9.150300290849474
 20
19.93307918972439
 30
0.0
 10
9.150300290849474
 20
19.93307918972439
 30
0.0
 10
9.150300290849474
 20
19.97657182481554
 30
0.0
 10
9.115042315589056
 20
20.01182895236545
 30
0.0
 10
9.071550528208414
 20
20.01182895236545
 30
0.0
 10
9.071503904130724
 20
20.01182895236545
 30
0.0
 10
9.071458127763536
 20
20.01182895236545
 30
0.0
 10
9.071411503685844
 20
20.01182895236545
 30
0.0
 10
9.071411503685844
 20
20.01182895236545
 30
0.0
 10
9.071411503685844
 20
20.01057942708333
 30
0.0
 10
9.071411503685844
 20
20.01057942708333
 30
0.0
 10
9.071411503685844
 20
20.01057942708333
 30
0.0
 10
8.323911401960585
 20
20.01057942708333
 30
0.0
 10
8.323911401960585
 20
20.01057942708333
 30
0.0
 10
8.323911401960585
 20
20.01057942708333
 30
0.0
 10
8.322800053490532
 20
20.0107184516059
 30
0.0
 10
8.322800053490532
 20
20.0107184516059
 30
0.0
 10
8.322800053490532
 20
20.0107184516059
 30
0.0
 10
8.322800053490532
 20
20.05238511827257
 30
0.0
 10
8.322800053490532
 20
20.05238511827257
 30
0.0
 10
8.322800053490532
 20
20.05238511827257
 30
0.0
 10
8.322800053490532
 20
20.09946865505642
 30
0.0
 10
8.322800053490532
 20
20.09946865505642
 30
0.0
 10
8.322800053490532
 20
20.09946865505642
 30
0.0
 10
8.321133454640705
 20
20.15196821424696
 30
0.0
 10
8.321133454640705
 20
20.15196821424696
 30
0.0
 10
8.321133454640705
 20
20.15196821424696
 30
0.0
 10
8.318355507320828
 20
20.21002366807726
 30
0.0
 10
8.318355507320828
 20
20.21002366807726
 30
0.0
 10
8.318355507320828
 20
20.21002366807726
 30
0.0
 10
8.31432803471883
 20
20.27363501654731
 30
0.0
 10
8.31432803471883
 20
20.27363501654731
 30
0.0
 10
8.31432803471883
 20
20.27363501654731
 30
0.0
 10
8.309050189124212
 20
20.34307946099175
 30
0.0
 10
8.309050189124212
 20
20.34307946099175
 30
0.0
 10
8.309050189124212
 20
20.34307946099175
 30
0.0
 10
8.302800019582111
 20
20.41752370198568
 30
0.0
 10
8.302800019582111
 20
20.41752370198568
 30
0.0
 10
8.302800019582111
 20
20.41752370198568
 30
0.0
 10
8.295161300235325
 20
20.49724578857422
 30
0.0
 10
8.295161300235325
 20
20.49724578857422
 30
0.0
 10
8.295161300235325
 20
20.49724578857422
 30
0.0
 10
8.276688840654161
 20
20.67127397325304
 30
0.0
 10
8.276688840654161
 20
20.67127397325304
 30
0.0
 10
8.276688840654161
 20
20.67127397325304
 30
0.0
 10
8.253910859425861
 20
20.86169009738498
 30
0.0
 10
8.253910859425861
 20
20.86169009738498
 30
0.0
 10
8.253910859425861
 20
20.86169009738498
 30
0.0
 10
8.226966381072998
 20
21.06432935926649
 30
0.0
 10
8.226966381072998
 20
21.06432935926649
 30
0.0
 10
8.226966381072998
 20
21.06432935926649
 30
0.0
 10
8.196688705020481
 20
21.27363501654731
 30
0.0
 10
8.196688705020481
 20
21.27363501654731
 30
0.0
 10
8.196688705020481
 20
21.27363501654731
 30
0.0
 10
8.127244260576036
 20
21.69030168321397
 30
0.0
 10
8.127244260576036
 20
21.69030168321397
 30
0.0
 10
8.127244260576036
 20
21.69030168321397
 30
0.0
 10
8.089327865176731
 20
21.88835737440321
 30
0.0
 10
8.089327865176731
 20
21.88835737440321
 30
0.0
 10
8.089327865176731
 20
21.88835737440321
 30
0.0
 10
8.04960584640503
 20
22.07460700141059
 30
0.0
 10
8.04960584640503
 20
22.07460700141059
 30
0.0
 10
8.04960584640503
 20
22.07460700141059
 30
0.0
 10
8.007939179738361
 20
22.24724578857422
 30
0.0
 10
8.007939179738361
 20
22.24724578857422
 30
0.0
 10
8.007939179738361
 20
22.24724578857422
 30
0.0
 10
7.965439213646782
 20
22.40530141194661
 30
0.0
 10
7.965439213646782
 20
22.40530141194661
 30
0.0
 10
7.965439213646782
 20
22.40530141194661
 30
0.0
 10
7.921688874562581
 20
22.54877387152778
 30
0.0
 10
7.921688874562581
 20
22.54877387152778
 30
0.0
 10
7.921688874562581
 20
22.54877387152778
 30
0.0
 10
7.876828034718831
 20
22.67752414279514
 30
0.0
 10
7.876828034718831
 20
22.67752414279514
 30
0.0
 10
7.876828034718831
 20
22.67752414279514
 30
0.0
 10
7.878494633568657
 20
22.67724609375
 30
0.0
 10
7.878494633568657
 20
22.67724609375
 30
0.0
 10
7.878494633568657
 20
22.67724609375
 30
0.0
 10
7.827938874562581
 20
22.62766265869141
 30
0.0
 10
7.827938874562581
 20
22.62766265869141
 30
0.0
 10
7.827938874562581
 20
22.62766265869141
 30
0.0
 10
7.773771868811713
 20
22.57599639892578
 30
0.0
 10
7.773771868811713
 20
22.57599639892578
 30
0.0
 10
7.773771868811713
 20
22.57599639892578
 30
0.0
 10
7.715577390458848
 20
22.52224561903212
 30
0.0
 10
7.715577390458848
 20
22.52224561903212
 30
0.0
 10
7.715577390458848
 20
22.52224561903212
 30
0.0
 10
7.653772513071695
 20
22.46669006347656
 30
0.0
 10
7.653772513071695
 20
22.46669006347656
 30
0.0
 10
7.653772513071695
 20
22.46669006347656
 30
0.0
 10
7.519883420732286
 20
22.34905158148871
 30
0.0
 10
7.519883420732286
 20
22.34905158148871
 30
0.0
 10
7.519883420732286
 20
22.34905158148871
 30
0.0
 10
7.374744362301296
 20
22.22571818033854
 30
0.0
 10
7.374744362301296
 20
22.22571818033854
 30
0.0
 10
7.374744362301296
 20
22.22571818033854
 30
0.0
 10
7.224189281463623
 20
22.10071818033854
 30
0.0
 10
7.224189281463623
 20
22.10071818033854
 30
0.0
 10
7.224189281463623
 20
22.10071818033854
 30
0.0
 10
7.075438976287842
 20
21.97932942708333
 30
0.0
 10
7.075438976287842
 20
21.97932942708333
 30
0.0
 10
7.075438976287842
 20
21.97932942708333
 30
0.0
 10
6.934327390458848
 20
21.86571841769748
 30
0.0
 10
6.934327390458848
 20
21.86571841769748
 30
0.0
 10
6.934327390458848
 20
21.86571841769748
 30
0.0
 10
6.802382946014404
 20
21.76113467746311
 30
0.0
 10
6.802382946014404
 20
21.76113467746311
 30
0.0
 10
6.802382946014404
 20
21.76113467746311
 30
0.0
 10
6.545438925425211
 20
21.56669023301866
 30
0.0
 10
6.545438925425211
 20
21.56669023301866
 30
0.0
 10
6.545438925425211
 20
21.56669023301866
 30
0.0
 10
6.408355659908718
 20
21.46821848551432
 30
0.0
 10
6.408355659908718
 20
21.46821848551432
 30
0.0
 10
6.408355659908718
 20
21.46821848551432
 30
0.0
 10
6.266133149464925
 20
21.3691906399197
 30
0.0
 10
6.266133149464925
 20
21.3691906399197
 30
0.0
 10
6.266133149464925
 20
21.3691906399197
 30
0.0
 10
6.127244260576036
 20
21.2754406399197
 30
0.0
 10
6.127244260576036
 20
21.2754406399197
 30
0.0
 10
6.127244260576036
 20
21.2754406399197
 30
0.0
 10
6.062939061058892
 20
21.23280164930555
 30
0.0
 10
6.062939061058892
 20
21.23280164930555
 30
0.0
 10
6.062939061058892
 20
21.23280164930555
 30
0.0
 10
6.003494633568658
 20
21.19405195448133
 30
0.0
 10
6.003494633568658
 20
21.19405195448133
 30
0.0
 10
6.003494633568658
 20
21.19405195448133
 30
0.0
 10
5.949744277530246
 20
21.15974595811632
 30
0.0
 10
5.949744277530246
 20
21.15974595811632
 30
0.0
 10
5.949744277530246
 20
21.15974595811632
 30
0.0
 10
5.902522140079074
 20
21.13016255696614
 30
0.0
 10
5.902522140079074
 20
21.13016255696614
 30
0.0
 10
5.902522140079074
 20
21.13016255696614
 30
0.0
 10
5.86168877283732
 20
21.10557895236545
 30
0.0
 10
5.86168877283732
 20
21.10557895236545
 30
0.0
 10
5.86168877283732
 20
21.10557895236545
 30
0.0
 10
5.827522224850124
 20
21.08613501654731
 30
0.0
 10
5.827522224850124
 20
21.08613501654731
 30
0.0
 10
5.827522224850124
 20
21.08613501654731
 30
0.0
 10
5.828077899085151
 20
21.08599599202474
 30
0.0
 10
5.828077899085151
 20
21.08599599202474
 30
0.0
 10
5.828077899085151
 20
21.08599599202474
 30
0.0
 10
5.823633352915445
 20
21.13488515218099
 30
0.0
 10
5.823633352915445
 20
21.13488515218099
 30
0.0
 10
5.823633352915445
 20
21.13488515218099
 30
0.0
 10
5.817799833085801
 20
21.18585713704427
 30
0.0
 10
5.817799833085801
 20
21.18585713704427
 30
0.0
 10
5.817799833085801
 20
21.18585713704427
 30
0.0
 10
5.810438738928901
 20
21.23905181884766
 30
0.0
 10
5.810438738928901
 20
21.23905181884766
 30
0.0
 10
5.810438738928901
 20
21.23905181884766
 30
0.0
 10
5.801688671112061
 20
21.29460737440321
 30
0.0
 10
5.801688671112061
 20
21.29460737440321
 30
0.0
 10
5.801688671112061
 20
21.29460737440321
 30
0.0
 10
5.791272004445394
 20
21.35210673014323
 30
0.0
 10
5.791272004445394
 20
21.35210673014323
 30
0.0
 10
5.791272004445394
 20
21.35210673014323
 30
0.0
 10
5.779466787974039
 20
21.41155158148871
 30
0.0
 10
5.779466787974039
 20
21.41155158148871
 30
0.0
 10
5.779466787974039
 20
21.41155158148871
 30
0.0
 10
5.751689010196261
 20
21.53544023301866
 30
0.0
 10
5.751689010196261
 20
21.53544023301866
 30
0.0
 10
5.751689010196261
 20
21.53544023301866
 30
0.0
 10
5.71932766172621
 20
21.66321818033854
 30
0.0
 10
5.71932766172621
 20
21.66321818033854
 30
0.0
 10
5.71932766172621
 20
21.66321818033854
 30
0.0
 10
5.683494514889187
 20
21.79252370198568
 30
0.0
 10
5.683494514889187
 20
21.79252370198568
 30
0.0
 10
5.683494514889187
 20
21.79252370198568
 30
0.0
 10
5.644744396209717
 20
21.92169019911024
 30
0.0
 10
5.644744396209717
 20
21.92169019911024
 30
0.0
 10
5.644744396209717
 20
21.92169019911024
 30
0.0
 10
5.60307772954305
 20
22.05016242133246
 30
0.0
 10
5.60307772954305
 20
22.05016242133246
 30
0.0
 10
5.60307772954305
 20
22.05016242133246
 30
0.0
 10
5.603772004445394
 20
22.05030144585503
 30
0.0
 10
5.603772004445394
 20
22.05030144585503
 30
0.0
 10
5.603772004445394
 20
22.05030144585503
 30
0.0
 10
5.492660893334283
 20
21.9441901312934
 30
0.0
 10
5.492660893334283
 20
21.9441901312934
 30
0.0
 10
5.492660893334283
 20
21.9441901312934
 30
0.0
 10
5.376133335961236
 20
21.83710734049479
 30
0.0
 10
5.376133335961236
 20
21.83710734049479
 30
0.0
 10
5.376133335961236
 20
21.83710734049479
 30
0.0
 10
5.253911283281114
 20
21.72905137803819
 30
0.0
 10
5.253911283281114
 20
21.72905137803819
 30
0.0
 10
5.253911283281114
 20
21.72905137803819
 30
0.0
 10
5.126133335961236
 20
21.62016296386719
 30
0.0
 10
5.126133335961236
 20
21.62016296386719
 30
0.0
 10
5.126133335961236
 20
21.62016296386719
 30
0.0
 10
4.992938942379421
 20
21.5107184516059
 30
0.0
 10
4.992938942379421
 20
21.5107184516059
 30
0.0
 10
4.992938942379421
 20
21.5107184516059
 30
0.0
 10
4.855160978105332
 20
21.40141296386719
 30
0.0
 10
4.855160978105332
 20
21.40141296386719
 30
0.0
 10
4.855160978105332
 20
21.40141296386719
 30
0.0
 10
4.57057778040568
 20
21.18585713704427
 30
0.0
 10
4.57057778040568
 20
21.18585713704427
 30
0.0
 10
4.57057778040568
 20
21.18585713704427
 30
0.0
 10
4.427244345347086
 20
21.08196851942274
 30
0.0
 10
4.427244345347086
 20
21.08196851942274
 30
0.0
 10
4.427244345347086
 20
21.08196851942274
 30
0.0
 10
4.285716533660889
 20
20.98238457573785
 30
0.0
 10
4.285716533660889
 20
20.98238457573785
 30
0.0
 10
4.285716533660889
 20
20.98238457573785
 30
0.0
 10
4.147938993242052
 20
20.8879403008355
 30
0.0
 10
4.147938993242052
 20
20.8879403008355
 30
0.0
 10
4.147938993242052
 20
20.8879403008355
 30
0.0
 10
4.015022224850124
 20
20.79960717095269
 30
0.0
 10
4.015022224850124
 20
20.79960717095269
 30
0.0
 10
4.015022224850124
 20
20.79960717095269
 30
0.0
 10
3.888216601477729
 20
20.71780141194661
 30
0.0
 10
3.888216601477729
 20
20.71780141194661
 30
0.0
 10
3.888216601477729
 20
20.71780141194661
 30
0.0
 10
3.767800172170003
 20
20.64280192057291
 30
0.0
 10
3.767800172170003
 20
20.64280192057291
 30
0.0
 10
3.767800172170003
 20
20.64280192057291
 30
0.0
 10
3.653772089216444
 20
20.57460700141059
 30
0.0
 10
3.653772089216444
 20
20.57460700141059
 30
0.0
 10
3.653772089216444
 20
20.57460700141059
 30
0.0
 10
3.546411249372694
 20
20.51307932535807
 30
0.0
 10
3.546411249372694
 20
20.51307932535807
 30
0.0
 10
3.546411249372694
 20
20.51307932535807
 30
0.0
 10
3.546411249372694
 20
20.51113467746311
 30
0.0
 10
3.546411249372694
 20
20.51113467746311
 30
0.0
 10
3.546411249372694
 20
20.51113467746311
 30
0.0
 10
3.504744582706028
 20
20.72113460964627
 30
0.0
 10
3.504744582706028
 20
20.72113460964627
 30
0.0
 10
3.504744582706028
 20
20.72113460964627
 30
0.0
 10
3.505161232418484
 20
20.72182973225911
 30
0.0
 10
3.505161232418484
 20
20.72182973225911
 30
0.0
 10
3.505161232418484
 20
20.72182973225911
 30
0.0
 10
3.439327610863579
 20
21.05516306559245
 30
0.0
 10
3.439327610863579
 20
21.05516306559245
 30
0.0
 10
3.439327610863579
 20
21.05516306559245
 30
0.0
 10
3.439327610863579
 20
21.05710686577691
 30
0.0
 10
3.439327610863579
 20
21.05710686577691
 30
0.0
 10
3.439327610863579
 20
21.05710686577691
 30
0.0
 10
3.376966635386149
 20
21.28446790907118
 30
0.0
 10
3.376966635386149
 20
21.28446790907118
 30
0.0
 10
3.376966635386149
 20
21.28446790907118
 30
0.0
 10
3.376966635386149
 20
21.28405168321397
 30
0.0
 10
3.376966635386149
 20
21.28405168321397
 30
0.0
 10
3.376966635386149
 20
21.28405168321397
 30
0.0
 10
3.253077560000949
 20
21.16141255696614
 30
0.0
 10
3.253077560000949
 20
21.16141255696614
 30
0.0
 10
3.253077560000949
 20
21.16141255696614
 30
0.0
 10
3.116133319007026
 20
21.0375239054362
 30
0.0
 10
3.116133319007026
 20
21.0375239054362
 30
0.0
 10
3.116133319007026
 20
21.0375239054362
 30
0.0
 10
2.966411113739014
 20
20.9125239054362
 30
0.0
 10
2.966411113739014
 20
20.9125239054362
 30
0.0
 10
2.966411113739014
 20
20.9125239054362
 30
0.0
 10
2.803911156124539
 20
20.78669060601128
 30
0.0
 10
2.803911156124539
 20
20.78669060601128
 30
0.0
 10
2.803911156124539
 20
20.78669060601128
 30
0.0
 10
2.629466745588514
 20
20.6607182820638
 30
0.0
 10
2.629466745588514
 20
20.6607182820638
 30
0.0
 10
2.629466745588514
 20
20.6607182820638
 30
0.0
 10
2.444605456458198
 20
20.5357182820638
 30
0.0
 10
2.444605456458198
 20
20.5357182820638
 30
0.0
 10
2.444605456458198
 20
20.5357182820638
 30
0.0
 10
2.251549985673692
 20
20.41335720486111
 30
0.0
 10
2.251549985673692
 20
20.41335720486111
 30
0.0
 10
2.251549985673692
 20
20.41335720486111
 30
0.0
 10
2.053355481889513
 20
20.29557969835069
 30
0.0
 10
2.053355481889513
 20
20.29557969835069
 30
0.0
 10
2.053355481889513
 20
20.29557969835069
 30
0.0
 10
1.852661079830593
 20
20.18446858723958
 30
0.0
 10
1.852661079830593
 20
20.18446858723958
 30
0.0
 10
1.852661079830593
 20
20.18446858723958
 30
0.0
 10
1.652661164601644
 20
20.08085717095269
 30
0.0
 10
1.652661164601644
 20
20.08085717095269
 30
0.0
 10
1.652661164601644
 20
20.08085717095269
 30
0.0
 10
1.45557779735989
 20
19.98627387152778
 30
0.0
 10
1.45557779735989
 20
19.98627387152778
 30
0.0
 10
1.45557779735989
 20
19.98627387152778
 30
0.0
 10
1.263494438595242
 20
19.90113491482205
 30
0.0
 10
1.263494438595242
 20
19.90113491482205
 30
0.0
 10
1.263494438595242
 20
19.90113491482205
 30
0.0
 10
1.077522224850125
 20
19.8254403008355
 30
0.0
 10
1.077522224850125
 20
19.8254403008355
 30
0.0
 10
1.077522224850125
 20
19.8254403008355
 30
0.0
 10
0.898494455549452
 20
19.75891282823351
 30
0.0
 10
0.898494455549452
 20
19.75891282823351
 30
0.0
 10
0.898494455549452
 20
19.75891282823351
 30
0.0
 10
0.7266888618469238
 20
19.70071834988064
 30
0.0
 10
0.7266888618469238
 20
19.70071834988064
 30
0.0
 10
0.7266888618469238
 20
19.70071834988064
 30
0.0
 10
0.5625221994188097
 20
19.6504406399197
 30
0.0
 10
0.5625221994188097
 20
19.6504406399197
 30
0.0
 10
0.5625221994188097
 20
19.6504406399197
 30
0.0
 10
0.5625221994188097
 20
19.6504406399197
 30
0.0
 10
0.5625221994188097
 20
19.6504406399197
 30
0.0
 10
0.5625221994188097
 20
19.6504406399197
 30
0.0
 10
4.650299866994222
 20
19.6504406399197
 30
0.0
 10
4.650299866994222
 20
19.6504406399197
 30
0.0
 10
4.650299866994222
 20
19.6504406399197
 30
0.0
 10
4.650299866994222
 20
19.6504406399197
 30
0.0
 10
4.650299866994222
 20
19.6504406399197
 30
0.0
 10
4.650299866994222
 20
19.6504406399197
 30
0.0
 10
4.650299866994222
 20
19.55002339680989
 30
0.0
 10
4.650299866994222
 20
19.55002339680989
 30
0.0
 10
4.650299866994222
 20
19.55002339680989
 30
0.0
 10
4.650299866994222
 20
19.55002339680989
 30
0.0
 10
4.650299866994222
 20
19.55002339680989
 30
0.0
 10
4.650299866994222
 20
19.55002339680989
 30
0.0
 10
4.650299866994222
 20
19.44960700141059
 30
0.0
 10
4.650299866994222
 20
19.44960700141059
 30
0.0
 10
4.650299866994222
 20
19.44960700141059
 30
0.0
 10
4.650438891516791
 20
19.44960700141059
 30
0.0
 10
4.650438891516791
 20
19.44960700141059
 30
0.0
  0
ENDBLK
  5
4D
330
4A
100
AcDbEntity
  8
0
100
AcDbBlockEnd
  0
BLOCK
  5
51
330
4F
100
AcDbEntity
  8
0
100
AcDbBlockBegin
  2
block 5
 70
     0
 10
0.0
 20
0.0
 30
0.0
  3
block 5
  1

  0
SPLINE
  5
53
330
4F
100
AcDbEntity
  8
Layer 1
 62
     1
420
 16716306
370
    35
100
AcDbSpline
210
0.0
220
0.0
230
1.0
 70
    11
 71
     3
 72
    20
 73
    16
 74
     0
 42
0.0000000001
 43
0.0000000001
 12
1.0
 22
0.0
 32
0.0
 13
1.0
 23
0.0
 33
0.0
 40
0.0
 40
0.0
 40
0.0
 40
0.0
 40
1.0
 40
1.0
 40
1.0
 40
2.0
 40
2.0
 40
2.0
 40
3.0
 40
3.0
 40
3.0
 40
4.0
 40
4.0
 40
4.0
 40
5.0
 40
5.0
 40
5.0
 40
5.0
 10
4.558030955079529
 20
15.74356248643663
 30
0.0
 10
4.558030955079529
 20
14.50092188517253
 30
0.0
 10
3.550671683417426
 20
13.49356248643663
 30
0.0
 10
2.308030870225694
 20
13.49356248643663
 30
0.0
 10
1.065390268961588
 20
13.49356248643663
 30
0.0
 10
0.0580308702256944
 20
14.50092188517253
 30
0.0
 10
0.0580308702256944
 20
15.74356248643663
 30
0.0
 10
0.0580308702256944
 20
16.98620351155599
 30
0.0
 10
1.065390268961588
 20
17.99356248643663
 30
0.0
 10
2.308030870225694
 20
17.99356248643663
 30
0.0
 10
3.550671577453613
 20
17.99356248643663
 30
0.0
 10
4.558030955079529
 20
16.98620351155599
 30
0.0
 10
4.558030955079529
 20
15.74356248643663
 30
0.0
 10
4.558030955079529
 20
15.74356248643663
 30
0.0
 10
4.558030955079529
 20
15.74356248643663
 30
0.0
 10
4.558030955079529
 20
15.74356248643663
 30
0.0
  0
ENDBLK
  5
52
330
4F
100
AcDbEntity
  8
0
100
AcDbBlockEnd
  0
BLOCK
  5
56
330
54
100
AcDbEntity
  8
0
100
AcDbBlockBegin
  2
block 6
 70
     0
 10
0.0
 20
0.0
 30
0.0
  3
block 6
  1

  0
SPLINE
  5
58
330
54
100
AcDbEntity
  8
Layer 1
 62
     1
420
 16716306
370
    35
100
AcDbSpline
210
0.0
220
0.0
230
1.0
 70
    11
 71
     3
 72
    20
 73
    16
 74
     0
 42
0.0000000001
 43
0.0000000001
 12
1.0
 22
0.0
 32
0.0
 13
1.0
 23
0.0
 33
0.0
 40
0.0
 40
0.0
 40
0.0
 40
0.0
 40
1.0
 40
1.0
 40
1.0
 40
2.0
 40
2.0
 40
2.0
 40
3.0
 40
3.0
 40
3.0
 40
4.0
 40
4.0
 40
4.0
 40
5.0
 40
5.0
 40
5.0
 40
5.0
 10
4.541131231519911
 20
14.85212326049805
 30
0.0
 10
4.541131231519911
 20
15.95669280158149
 30
0.0
 10
5.436561690436469
 20
16.85212326049805
 30
0.0
 10
6.541131125556098
 20
16.85212326049805
 30
0.0
 10
7.64570066663954
 20
16.85212326049805
 30
0.0
 10
8.541131337483723
 20
15.95669280158149
 30
0.0
 10
8.541131337483723
 20
14.85212326049805
 30
0.0
 10
8.541131337483723
 20
13.7475537194146
 30
0.0
 10
7.64570066663954
 20
12.85212326049805
 30
0.0
 10
6.541131337483724
 20
12.85212326049805
 30
0.0
 10
5.436561796400282
 20
12.85212326049805
 30
0.0
 10
4.541131231519911
 20
13.7475537194146
 30
0.0
 10
4.541131231519911
 20
14.85212326049805
 30
0.0
 10
4.541131231519911
 20
14.85212326049805
 30
0.0
 10
4.541131231519911
 20
14.85212326049805
 30
0.0
 10
4.541131231519911
 20
14.85212326049805
 30
0.0
  0
POLYLINE
  5
59
330
54
100
AcDbEntity
  8
Layer 1
 62
     1
420
 16716306
370
    35
100
AcDb2dPolyline
 66
     1
 10
0.0
 20
0.0
 30
0.0
  0
VERTEX
  5
5A
330
59
100
AcDbEntity
  8
Layer 1
 62
     1
420
 16716306
370
    35
100
AcDbVertex
100
AcDb2dVertex
 10
6.641547944810655
 20
14.39017889234755
 30
0.0
  0
VERTEX
  5
5B
330
59
100
AcDbEntity
  8
Layer 1
 62
     1
420
 16716306
370
    35
100
AcDbVertex
100
AcDb2dVertex
 10
6.541131337483724
 20
14.39017889234755
 30
0.0
  0
VERTEX
  5
5C
330
59
100
AcDbEntity
  8
Layer 1
 62
     1
420
 16716306
370
    35
100
AcDbVertex
100
AcDb2dVertex
 10
6.440853542751736
 20
14.39017889234755
 30
0.0
  0
VERTEX
  5
5D
330
59
100
AcDbEntity
  8
Layer 1
 62
     1
420
 16716306
370
    35
100
AcDbVertex
100
AcDb2dVertex
 10
6.440853542751736
 20
14.75170665317111
 30
0.0
  0
VERTEX
  5
5E
330
59
100
AcDbEntity
  8
Layer 1
 62
     1
420
 16716306
370
    35
100
AcDbVertex
100
AcDb2dVertex
 10
6.079325781928168
 20
14.75170665317111
 30
0.0
  0
VERTEX
  5
5F
330
59
100
AcDbEntity
  8
Layer 1
 62
     1
420
 16716306
370
    35
100
AcDbVertex
100
AcDb2dVertex
 10
6.079325781928168
 20
14.85212326049805
 30
0.0
  0
VERTEX
  5
60
330
59
100
AcDbEntity
  8
Layer 1
 62
     1
420
 16716306
370
    35
100
AcDbVertex
100
AcDb2dVertex
 10
6.079325781928168
 20
14.95240105523003
 30
0.0
  0
VERTEX
  5
61
330
59
100
AcDbEntity
  8
Layer 1
 62
     1
420
 16716306
370
    35
100
AcDbVertex
100
AcDb2dVertex
 10
6.440853542751736
 20
14.95240105523003
 30
0.0
  0
VERTEX
  5
62
330
59
100
AcDbEntity
  8
Layer 1
 62
     1
420
 16716306
370
    35
100
AcDbVertex
100
AcDb2dVertex
 10
6.440853542751736
 20
15.31392892201741
 30
0.0
  0
VERTEX
  5
63
330
59
100
AcDbEntity
  8
Layer 1
 62
     1
420
 16716306
370
    35
100
AcDbVertex
100
AcDb2dVertex
 10
6.541131337483724
 20
15.31392892201741
 30
0.0
  0
VERTEX
  5
64
330
59
100
AcDbEntity
  8
Layer 1
 62
     1
420
 16716306
370
    35
100
AcDbVertex
100
AcDb2dVertex
 10
6.641547944810655
 20
15.31392892201741
 30
0.0
  0
VERTEX
  5
65
330
59
100
AcDbEntity
  8
Layer 1
 62
     1
420
 16716306
370
    35
100
AcDbVertex
100
AcDb2dVertex
 10
6.641547944810655
 20
14.95240105523003
 30
0.0
  0
VERTEX
  5
66
330
59
100
AcDbEntity
  8
Layer 1
 62
     1
420
 16716306
370
    35
100
AcDbVertex
100
AcDb2dVertex
 10
7.003075705634223
 20
14.95240105523003
 30
0.0
  0
VERTEX
  5
67
330
59
100
AcDbEntity
  8
Layer 1
 62
     1
420
 16716306
370
    35
100
AcDbVertex
100
AcDb2dVertex
 10
7.003075705634223
 20
14.85212326049805
 30
0.0
  0
VERTEX
  5
68
330
59
100
AcDbEntity
  8
Layer 1
 62
     1
420
 16716306
370
    35
100
AcDbVertex
100
AcDb2dVertex
 10
7.003075705634223
 20
14.75170665317111
 30
0.0
  0
VERTEX
  5
69
330
59
100
AcDbEntity
  8
Layer 1
 62
     1
420
 16716306
370
    35
100
AcDbVertex
100
AcDb2dVertex
 10
6.641547944810655
 20
14.75170665317111
 30
0.0
  0
VERTEX
  5
6A
330
59
100
AcDbEntity
  8
Layer 1
 62
     1
420
 16716306
370
    35
100
AcDbVertex
100
AcDb2dVertex
 10
6.641547944810655
 20
14.39017889234755
 30
0.0
  0
SEQEND
  5
6B
330
59
100
AcDbEntity
  8
Layer 1
 62
     1
420
 16716306
370
    35
  0
ENDBLK
  5
57
330
54
100
AcDbEntity
  8
0
100
AcDbBlockEnd
  0
ENDSEC
  0
SECTION
  2
ENTITIES
  0
INSERT
  5
42
330
1F
100
AcDbEntity
  8
Layer 1
100
AcDbBlockReference
  2
block 2
 10
0.0
 20
0.0
 30
0.0
  0
ENDSEC
  0
SECTION
  2
OBJECTS
  0
DICTIONARY
  5
C
330
0
100
AcDbDictionary
281
     1
  3
ACAD_GROUP
350
D
  3
ACAD_LAYOUT
350
1A
  3
ACAD_MATERIAL
350
3B
  3
ACAD_MLEADERSTYLE
350
6D
  3
ACAD_MLINESTYLE
350
17
  3
ACAD_PLOTSETTINGS
350
19
  3
ACAD_PLOTSTYLENAME
350
E
  3
ACAD_TABLESTYLE
350
6C
  3
ACAD_VISUALSTYLE
350
2A
  0
SUN
  5
3F
330
29
100
AcDbSun
 90
        1
290
     0
 63
     7
421
 16777215
 40
1.0
291
     1
 91
  2455826
 92
 54000000
292
     0
 70
     2
 71
   256
280
     1
  0
DICTIONARY
  5
D
102
{ACAD_REACTORS
330
C
102
}
330
C
100
AcDbDictionary
281
     1
  0
DICTIONARY
  5
1A
102
{ACAD_REACTORS
330
C
102
}
330
C
100
AcDbDictionary
281
     1
  3
Layout1
350
1E
  3
Layout2
350
26
  3
Model
350
22
  0
DICTIONARY
  5
3B
102
{ACAD_REACTORS
330
C
102
}
330
C
100
AcDbDictionary
281
     1
  3
ByBlock
350
3D
  3
ByLayer
350
3C
  3
Global
350
3E
  0
DICTIONARY
  5
6D
102
{ACAD_REACTORS
330
C
102
}
330
C
100
AcDbDictionary
281
     1
  0
DICTIONARY
  5
17
102
{ACAD_REACTORS
330
C
102
}
330
C
100
AcDbDictionary
281
     1
  3
Standard
350
18
  0
DICTIONARY
  5
19
102
{ACAD_REACTORS
330
C
102
}
330
C
100
AcDbDictionary
281
     1
  0
ACDBDICTIONARYWDFLT
  5
E
102
{ACAD_REACTORS
330
C
102
}
330
C
100
AcDbDictionary
281
     1
  3
Normal
350
F
100
AcDbDictionaryWithDefault
340
F
  0
DICTIONARY
  5
6C
102
{ACAD_REACTORS
330
C
102
}
330
C
100
AcDbDictionary
281
     1
  0
DICTIONARY
  5
2A
102
{ACAD_REACTORS
330
C
102
}
330
C
100
AcDbDictionary
281
     1
  3
2dWireframe
350
2F
  3
3D Hidden
350
31
  3
3dWireframe
350
30
  3
Basic
350
32
  3
Brighten
350
36
  3
ColorChange
350
3A
  3
Conceptual
350
34
  3
Dim
350
35
  3
Facepattern
350
39
  3
Flat
350
2B
  3
FlatWithEdges
350
2C
  3
Gouraud
350
2D
  3
GouraudWithEdges
350
2E
  3
Linepattern
350
38
  3
Realistic
350
33
  3
Thicken
350
37
  0
LAYOUT
  5
1E
102
{ACAD_REACTORS
330
1A
102
}
330
1A
100
AcDbPlotSettings
  1

  2
none_device
  4

  6

 40
0.0
 41
0.0
 42
0.0
 43
0.0
 44
0.0
 45
0.0
 46
0.0
 47
0.0
 48
0.0
 49
0.0
140
0.0
141
0.0
142
1.0
143
1.0
 70
   688
 72
     0
 73
     0
 74
     5
  7

 75
    16
 76
     0
 77
     2
 78
   300
147
1.0
148
0.0
149
0.0
100
AcDbLayout
  1
Layout1
 70
     1
 71
     1
 10
0.0
 20
0.0
 11
12.0
 21
9.0
 12
0.0
 22
0.0
 32
0.0
 14
1.000000000000000E+20
 24
1.000000000000000E+20
 34
1.000000000000000E+20
 15
-1.000000000000000E+20
 25
-1.000000000000000E+20
 35
-1.000000000000000E+20
146
0.0
 13
0.0
 23
0.0
 33
0.0
 16
1.0
 26
0.0
 36
0.0
 17
0.0
 27
1.0
 37
0.0
 76
     0
330
1B
  0
LAYOUT
  5
26
102
{ACAD_REACTORS
330
1A
102
}
330
1A
100
AcDbPlotSettings
  1

  2
none_device
  4

  6

 40
0.0
 41
0.0
 42
0.0
 43
0.0
 44
0.0
 45
0.0
 46
0.0
 47
0.0
 48
0.0
 49
0.0
140
0.0
141
0.0
142
1.0
143
1.0
 70
   688
 72
     0
 73
     0
 74
     5
  7

 75
    16
 76
     0
 77
     2
 78
   300
147
1.0
148
0.0
149
0.0
100
AcDbLayout
  1
Layout2
 70
     1
 71
     2
 10
0.0
 20
0.0
 11
0.0
 21
0.0
 12
0.0
 22
0.0
 32
0.0
 14
0.0
 24
0.0
 34
0.0
 15
0.0
 25
0.0
 35
0.0
146
0.0
 13
0.0
 23
0.0
 33
0.0
 16
1.0
 26
0.0
 36
0.0
 17
0.0
 27
1.0
 37
0.0
 76
     0
330
23
  0
LAYOUT
  5
22
102
{ACAD_REACTORS
330
1A
102
}
330
1A
100
AcDbPlotSettings
  1

  2
none_device
  4

  6

 40
0.0
 41
0.0
 42
0.0
 43
0.0
 44
0.0
 45
0.0
 46
0.0
 47
0.0
 48
0.0
 49
0.0
140
0.0
141
0.0
142
1.0
143
1.0
 70
  1712
 72
     0
 73
     0
 74
     0
  7

 75
     0
 76
     0
 77
     2
 78
   300
147
1.0
148
0.0
149
0.0
100
AcDbLayout
  1
Model
 70
     1
 71
     0
 10
0.0
 20
0.0
 11
12.0
 21
9.0
 12
0.0
 22
0.0
 32
0.0
 14
1.000000000000000E+20
 24
1.000000000000000E+20
 34
1.000000000000000E+20
 15
-1.000000000000000E+20
 25
-1.000000000000000E+20
 35
-1.000000000000000E+20
146
0.0
 13
0.0
 23
0.0
 33
0.0
 16
1.0
 26
0.0
 36
0.0
 17
0.0
 27
1.0
 37
0.0
 76
     0
330
1F
331
29
  0
MATERIAL
  5
3D
102
{ACAD_REACTORS
330
3B
102
}
330
3B
100
AcDbMaterial
  1
ByBlock
 72
     1
 94
      127
  0
MATERIAL
  5
3C
102
{ACAD_REACTORS
330
3B
102
}
330
3B
100
AcDbMaterial
  1
ByLayer
 72
     1
 94
      127
  0
MATERIAL
  5
3E
102
{ACAD_REACTORS
330
3B
102
}
330
3B
100
AcDbMaterial
  1
Global
 72
     1
 94
      127
  0
MLINESTYLE
  5
18
102
{ACAD_REACTORS
330
17
102
}
330
17
100
AcDbMlineStyle
  2
Standard
 70
     0
  3

 62
   256
 51
90.0
 52
90.0
 71
     2
 49
0.5
 62
   256
  6
BYLAYER
 49
-0.5
 62
   256
  6
BYLAYER
  0
ACDBPLACEHOLDER
  5
F
102
{ACAD_REACTORS
330
E
102
}
330
E
  0
VISUALSTYLE
  5
2F
102
{ACAD_REACTORS
330
2A
102
}
330
2A
100
AcDbVisualStyle
  2
2dWireframe
 70
     4
177
     2
291
     0
 71
     0
176
     1
 72
     2
176
     1
 73
     0
176
     1
 90
        0
176
     1
 40
-0.6
176
     1
 41
-30.0
176
     1
 62
     5
 63
     7
421
 16777215
176
     1
 74
     1
176
     1
 91
        4
176
     1
 64
     7
176
     1
 65
   257
176
     1
 75
     1
176
     1
175
     1
176
     1
 42
1.0
176
     1
 92
        0
176
     1
 66
   257
176
     1
 43
1.0
176
     1
 76
     1
176
     1
 77
     6
176
     1
 78
     2
176
     1
 67
     7
176
     1
 79
     5
176
     1
170
     0
176
     1
171
     0
176
     1
290
     0
176
     1
 93
        1
176
     1
 44
0.0
176
     1
173
     0
176
     1
  0
VISUALSTYLE
  5
31
102
{ACAD_REACTORS
330
2A
102
}
330
2A
100
AcDbVisualStyle
  2
3D Hidden
 70
     6
177
     2
291
     0
 71
     1
176
     1
 72
     2
176
     1
 73
     2
176
     1
 90
        0
176
     1
 40
-0.6
176
     1
 41
-30.0
176
     1
 62
     5
 63
     7
421
 16777215
176
     1
 74
     2
176
     1
 91
        2
176
     1
 64
     7
176
     1
 65
   257
176
     1
 75
     2
176
     1
175
     1
176
     1
 42
40.0
176
     1
 92
        0
176
     1
 66
   257
176
     1
 43
1.0
176
     1
 76
     1
176
     1
 77
     6
176
     1
 78
     2
176
     1
 67
     7
176
     1
 79
     3
176
     1
170
     0
176
     1
171
     0
176
     1
290
     0
176
     1
 93
        1
176
     1
 44
0.0
176
     1
173
     0
176
     1
  0
VISUALSTYLE
  5
30
102
{ACAD_REACTORS
330
2A
102
}
330
2A
100
AcDbVisualStyle
  2
3dWireframe
 70
     5
177
     2
291
     0
 71
     0
176
     1
 72
     2
176
     1
 73
     0
176
     1
 90
        0
176
     1
 40
-0.6
176
     1
 41
-30.0
176
     1
 62
     5
 63
     7
421
 16777215
176
     1
 74
     1
176
     1
 91
        4
176
     1
 64
     7
176
     1
 65
   257
176
     1
 75
     1
176
     1
175
     1
176
     1
 42
1.0
176
     1
 92
        0
176
     1
 66
   257
176
     1
 43
1.0
176
     1
 76
     1
176
     1
 77
     6
176
     1
 78
     2
176
     1
 67
     7
176
     1
 79
     5
176
     1
170
     0
176
     1
171
     0
176
     1
290
     0
176
     1
 93
        1
176
     1
 44
0.0
176
     1
173
     0
176
     1
  0
VISUALSTYLE
  5
32
102
{ACAD_REACTORS
330
2A
102
}
330
2A
100
AcDbVisualStyle
  2
Basic
 70
     7
177
     2
291
     1
 71
     1
176
     1
 72
     0
176
     1
 73
     1
176
     1
 90
        0
176
     1
 40
-0.6
176
     1
 41
-30.0
176
     1
 62
     5
 63
     7
421
 16777215
176
     1
 74
     0
176
     1
 91
        4
176
     1
 64
     7
176
     1
 65
   257
176
     1
 75
     1
176
     1
175
     1
176
     1
 42
1.0
176
     1
 92
        8
176
     1
 66
     7
176
     1
 43
1.0
176
     1
 76
     1
176
     1
 77
     6
176
     1
 78
     2
176
     1
 67
     7
176
     1
 79
     5
176
     1
170
     0
176
     1
171
     0
176
     1
290
     0
176
     1
 93
        1
176
     1
 44
0.0
176
     1
173
     0
176
     1
  0
VISUALSTYLE
  5
36
102
{ACAD_REACTORS
330
2A
102
}
330
2A
100
AcDbVisualStyle
  2
Brighten
 70
    12
177
     2
291
     1
 71
     2
176
     1
 72
     2
176
     1
 73
     0
176
     1
 90
        0
176
     1
 40
-0.6
176
     1
 41
-30.0
176
     1
 62
     5
 63
     7
421
 16777215
176
     1
 74
     1
176
     1
 91
        4
176
     1
 64
     7
176
     1
 65
   257
176
     1
 75
     1
176
     1
175
     1
176
     1
 42
1.0
176
     1
 92
        8
176
     1
 66
     7
176
     1
 43
1.0
176
     1
 76
     1
176
     1
 77
     6
176
     1
 78
     2
176
     1
 67
     7
176
     1
 79
     5
176
     1
170
     0
176
     1
171
     0
176
     1
290
     0
176
     1
 93
        1
176
     1
 44
50.0
176
     1
173
     0
176
     1
  0
VISUALSTYLE
  5
3A
102
{ACAD_REACTORS
330
2A
102
}
330
2A
100
AcDbVisualStyle
  2
ColorChange
 70
    16
177
     2
291
     1
 71
     2
176
     1
 72
     2
176
     1
 73
     3
176
     1
 90
        0
176
     1
 40
-0.6
176
     1
 41
-30.0
176
     1
 62
     5
 63
     8
421
  8421504
176
     1
 74
     1
176
     1
 91
        4
176
     1
 64
     7
176
     1
 65
   257
176
     1
 75
     1
176
     1
175
     1
176
     1
 42
1.0
176
     1
 92
        8
176
     1
 66
     8
424
  8421504
176
     1
 43
1.0
176
     1
 76
     1
176
     1
 77
     6
176
     1
 78
     2
176
     1
 67
     7
176
     1
 79
     5
176
     1
170
     0
176
     1
171
     0
176
     1
290
     0
176
     1
 93
        1
176
     1
 44
0.0
176
     1
173
     0
176
     1
  0
VISUALSTYLE
  5
34
102
{ACAD_REACTORS
330
2A
102
}
330
2A
100
AcDbVisualStyle
  2
Conceptual
 70
     9
177
     2
291
     0
 71
     3
176
     1
 72
     2
176
     1
 73
     0
176
     1
 90
        0
176
     1
 40
-0.6
176
     1
 41
-30.0
176
     1
 62
     5
 63
     7
421
 16777215
176
     1
 74
     2
176
     1
 91
        2
176
     1
 64
     7
176
     1
 65
   257
176
     1
 75
     1
176
     1
175
     1
176
     1
 42
40.0
176
     1
 92
        8
176
     1
 66
     7
176
     1
 43
1.0
176
     1
 76
     1
176
     1
 77
     6
176
     1
 78
     2
176
     1
 67
     7
176
     1
 79
     3
176
     1
170
     0
176
     1
171
     0
176
     1
290
     0
176
     1
 93
        1
176
     1
 44
0.0
176
     1
173
     0
176
     1
  0
VISUALSTYLE
  5
35
102
{ACAD_REACTORS
330
2A
102
}
330
2A
100
AcDbVisualStyle
  2
Dim
 70
    11
177
     2
291
     1
 71
     2
176
     1
 72
     2
176
     1
 73
     0
176
     1
 90
        0
176
     1
 40
-0.6
176
     1
 41
-30.0
176
     1
 62
     5
 63
     7
421
 16777215
176
     1
 74
     1
176
     1
 91
        4
176
     1
 64
     7
176
     1
 65
   257
176
     1
 75
     1
176
     1
175
     1
176
     1
 42
1.0
176
     1
 92
        8
176
     1
 66
     7
176
     1
 43
1.0
176
     1
 76
     1
176
     1
 77
     6
176
     1
 78
     2
176
     1
 67
     7
176
     1
 79
     5
176
     1
170
     0
176
     1
171
     0
176
     1
290
     0
176
     1
 93
        1
176
     1
 44
-50.0
176
     1
173
     0
176
     1
  0
VISUALSTYLE
  5
39
102
{ACAD_REACTORS
330
2A
102
}
330
2A
100
AcDbVisualStyle
  2
Facepattern
 70
    15
177
     2
291
     1
 71
     2
176
     1
 72
     2
176
     1
 73
     0
176
     1
 90
        0
176
     1
 40
-0.6
176
     1
 41
-30.0
176
     1
 62
     5
 63
     7
421
 16777215
176
     1
 74
     1
176
     1
 91
        4
176
     1
 64
     7
176
     1
 65
   257
176
     1
 75
     1
176
     1
175
     1
176
     1
 42
1.0
176
     1
 92
        8
176
     1
 66
     7
176
     1
 43
1.0
176
     1
 76
     1
176
     1
 77
     6
176
     1
 78
     2
176
     1
 67
     7
176
     1
 79
     5
176
     1
170
     0
176
     1
171
     0
176
     1
290
     0
176
     1
 93
        1
176
     1
 44
0.0
176
     1
173
     0
176
     1
  0
VISUALSTYLE
  5
2B
102
{ACAD_REACTORS
330
2A
102
}
330
2A
100
AcDbVisualStyle
  2
Flat
 70
     0
177
     2
291
     1
 71
     2
176
     1
 72
     1
176
     1
 73
     1
176
     1
 90
        2
176
     1
 40
-0.6
176
     1
 41
30.0
176
     1
 62
     5
 63
     7
421
 16777215
176
     1
 74
     0
176
     1
 91
        4
176
     1
 64
     7
176
     1
 65
   257
176
     1
 75
     1
176
     1
175
     1
176
     1
 42
1.0
176
     1
 92
        8
176
     1
 66
     7
176
     1
 43
1.0
176
     1
 76
     1
176
     1
 77
     6
176
     1
 78
     2
176
     1
 67
     7
176
     1
 79
     5
176
     1
170
     0
176
     1
171
     0
176
     1
290
     0
176
     1
 93
       13
176
     1
 44
0.0
176
     1
173
     0
176
     1
  0
VISUALSTYLE
  5
2C
102
{ACAD_REACTORS
330
2A
102
}
330
2A
100
AcDbVisualStyle
  2
FlatWithEdges
 70
     1
177
     2
291
     1
 71
     2
176
     1
 72
     1
176
     1
 73
     1
176
     1
 90
        2
176
     1
 40
-0.6
176
     1
 41
30.0
176
     1
 62
     5
 63
     7
421
 16777215
176
     1
 74
     1
176
     1
 91
        4
176
     1
 64
     7
176
     1
 65
   257
176
     1
 75
     1
176
     1
175
     1
176
     1
 42
1.0
176
     1
 92
        0
176
     1
 66
   257
176
     1
 43
1.0
176
     1
 76
     1
176
     1
 77
     6
176
     1
 78
     2
176
     1
 67
     7
176
     1
 79
     5
176
     1
170
     0
176
     1
171
     0
176
     1
290
     0
176
     1
 93
       13
176
     1
 44
0.0
176
     1
173
     0
176
     1
  0
VISUALSTYLE
  5
2D
102
{ACAD_REACTORS
330
2A
102
}
330
2A
100
AcDbVisualStyle
  2
Gouraud
 70
     2
177
     2
291
     1
 71
     2
176
     1
 72
     2
176
     1
 73
     1
176
     1
 90
        2
176
     1
 40
-0.6
176
     1
 41
30.0
176
     1
 62
     5
 63
     7
421
 16777215
176
     1
 74
     0
176
     1
 91
        4
176
     1
 64
     7
176
     1
 65
   257
176
     1
 75
     1
176
     1
175
     1
176
     1
 42
1.0
176
     1
 92
        0
176
     1
 66
     7
176
     1
 43
1.0
176
     1
 76
     1
176
     1
 77
     6
176
     1
 78
     2
176
     1
 67
     7
176
     1
 79
     5
176
     1
170
     0
176
     1
171
     0
176
     1
290
     0
176
     1
 93
       13
176
     1
 44
0.0
176
     1
173
     0
176
     1
  0
VISUALSTYLE
  5
2E
102
{ACAD_REACTORS
330
2A
102
}
330
2A
100
AcDbVisualStyle
  2
GouraudWithEdges
 70
     3
177
     2
291
     1
 71
     2
176
     1
 72
     2
176
     1
 73
     1
176
     1
 90
        2
176
     1
 40
-0.6
176
     1
 41
30.0
176
     1
 62
     5
 63
     7
421
 16777215
176
     1
 74
     1
176
     1
 91
        4
176
     1
 64
     7
176
     1
 65
   257
176
     1
 75
     1
176
     1
175
     1
176
     1
 42
1.0
176
     1
 92
        0
176
     1
 66
   257
176
     1
 43
1.0
176
     1
 76
     1
176
     1
 77
     6
176
     1
 78
     2
176
     1
 67
     7
176
     1
 79
     5
176
     1
170
     0
176
     1
171
     0
176
     1
290
     0
176
     1
 93
       13
176
     1
 44
0.0
176
     1
173
     0
176
     1
  0
VISUALSTYLE
  5
38
102
{ACAD_REACTORS
330
2A
102
}
330
2A
100
AcDbVisualStyle
  2
Linepattern
 70
    14
177
     2
291
     1
 71
     2
176
     1
 72
     2
176
     1
 73
     0
176
     1
 90
        0
176
     1
 40
-0.6
176
     1
 41
-30.0
176
     1
 62
     5
 63
     7
421
 16777215
176
     1
 74
     1
176
     1
 91
        4
176
     1
 64
     7
176
     1
 65
   257
176
     1
 75
     7
176
     1
175
     7
176
     1
 42
1.0
176
     1
 92
        8
176
     1
 66
     7
176
     1
 43
1.0
176
     1
 76
     1
176
     1
 77
     6
176
     1
 78
     2
176
     1
 67
     7
176
     1
 79
     5
176
     1
170
     0
176
     1
171
     0
176
     1
290
     0
176
     1
 93
        1
176
     1
 44
0.0
176
     1
173
     0
176
     1
  0
VISUALSTYLE
  5
33
102
{ACAD_REACTORS
330
2A
102
}
330
2A
100
AcDbVisualStyle
  2
Realistic
 70
     8
177
     2
291
     0
 71
     2
176
     1
 72
     2
176
     1
 73
     0
176
     1
 90
        0
176
     1
 40
-0.6
176
     1
 41
-30.0
176
     1
 62
     5
 63
     7
421
 16777215
176
     1
 74
     1
176
     1
 91
        0
176
     1
 64
     7
176
     1
 65
   257
176
     1
 75
     1
176
     1
175
     1
176
     1
 42
1.0
176
     1
 92
        8
176
     1
 66
     8
424
  7895160
176
     1
 43
1.0
176
     1
 76
     1
176
     1
 77
     6
176
     1
 78
     2
176
     1
 67
     7
176
     1
 79
     5
176
     1
170
     0
176
     1
171
     0
176
     1
290
     0
176
     1
 93
       13
176
     1
 44
0.0
176
     1
173
     0
176
     1
  0
VISUALSTYLE
  5
37
102
{ACAD_REACTORS
330
2A
102
}
330
2A
100
AcDbVisualStyle
  2
Thicken
 70
    13
177
     2
291
     1
 71
     2
176
     1
 72
     2
176
     1
 73
     0
176
     1
 90
        0
176
     1
 40
-0.6
176
     1
 41
-30.0
176
     1
 62
     5
 63
     7
421
 16777215
176
     1
 74
     1
176
     1
 91
        4
176
     1
 64
     7
176
     1
 65
   257
176
     1
 75
     1
176
     1
175
     1
176
     1
 42
1.0
176
     1
 92
       12
176
     1
 66
     7
176
     1
 43
1.0
176
     1
 76
     1
176
     1
 77
     6
176
     1
 78
     2
176
     1
 67
     7
176
     1
 79
     5
176
     1
170
     0
176
     1
171
     0
176
     1
290
     0
176
     1
 93
        1
176
     1
 44
0.0
176
     1
173
     0
176
     1
  0
ENDSEC
  0
EOF
