<?xml version="1.0" encoding="utf-8"?>
<!-- Generator: Adobe Illustrator 22.0.1, SVG Export Plug-In . SVG Version: 6.00 Build 0)  -->
<svg version="1.1" id="Layer_1" xmlns="http://www.w3.org/2000/svg" xmlns:xlink="http://www.w3.org/1999/xlink" x="0px" y="0px"
	 viewBox="0 0 2592 1900.8" style="enable-background:new 0 0 2592 1900.8;" xml:space="preserve">
<style type="text/css">
	.st0{fill:none;stroke:#FF1212;stroke-miterlimit:10;}
</style>
<g transform="translate(0 0)">
	<g transform="translate(-28.920166932929007 1113.0545404920854) rotate(270)">
		<path class="st0" d="M914.5,92.8h3h3.4l3.8,0.1l4.2,0.2l4.6,0.3l5,0.4l5.4,0.5l5.7,0.5l12.5,1.3l13.7,1.7l14.6,1.9l15.1,2.2l30,5
			l14.3,2.7l13.4,2.9l12.4,3l11.4,3.1l10.3,3.1l9.3,3.2l0-0.1l-3.6,3.6l-3.7,3.9l-3.9,4.2l-4,4.4l-8.5,9.6l-8.9,10.4l-9,10.8
			l-8.7,10.7l-8.2,10.2l-7.5,9.5l-14,18.5l-7.1,9.9l-7.2,10.3l-6.8,10l-3.1,4.6l-2.8,4.3l-2.5,3.9l-2.1,3.4l-1.8,2.9l-1.4,2.5l0-0.1
			l3.5,0.3l3.7,0.4l3.8,0.5l4,0.6l4.1,0.7l4.3,0.9l8.9,2l9.2,2.3l9.3,2.6l9.3,2.8l9.3,3v0l-7.6,8l-7.7,8.4l-7.8,8.8l-7.8,9.2
			l-7.9,9.6l-7.9,9.9l-15.5,20.5l-7.5,10.3l-7.2,10.2l-6.8,9.9l-6.4,9.6l-5.9,9.1l-5.4,8.7l-4.9,8.2l-4.4,7.7l0,0l15.1,3l0,0l24,4.7
			l0.1,0l16.4,4.5l-0.1-0.1l-10.4,10.5l-10.5,11.8l-10.6,13.1l-10.6,14.3l-10.6,15.4l-10.3,16.2l-9.9,16.8l-9.2,16.9l-8.4,16.8
			l-7.3,16.4l-6.5,15.8l-5.6,15.1l-4.8,14.4l-4,13.7l-3.3,12.9l-2.7,12.1l0,0l-2.6-12.2l-3.3-12.9l-4-13.7l-4.8-14.4l-5.6-15.1
			l-6.5-15.8l-7.5-16.4l-8.4-16.8l-9.2-16.9l-9.9-16.8l-10.3-16.2l-10.6-15.4l-10.6-14.3l-10.6-13.1l-10.5-11.8L756.5,449l-0.1,0
			l16.4-4.5l0,0l24-4.7l0,0l15.1-3l0,0l-4.4-7.7l-4.9-8.2l-5.4-8.7l-5.9-9.1l-6.4-9.6l-6.8-9.9l-7.2-10.2l-7.5-10.3L748,342.6
			l-7.9-9.9l-7.9-9.6l-7.8-9.2l-7.8-8.8l-7.7-8.4l-7.6-8l0.1,0l9.3-3l9.3-2.8l9.3-2.6l9.2-2.3l8.9-2l4.3-0.9l4.1-0.7l4-0.6l3.8-0.5
			l3.7-0.4l3.5-0.3l-0.1,0l-1.4-2.5l-1.8-2.9l-2.1-3.4l-2.5-3.9l-2.8-4.3L757,251l-6.8-10l-7.1-10.2l-7.1-9.9l-14-18.5l-7.5-9.5
			l-8.2-10.2l-8.7-10.7l-9-10.8l-8.9-10.4l-8.5-9.6l-4-4.5l-3.9-4.2l-3.7-3.9l-3.6-3.6h0l9.3-3.2l10.3-3l11.4-3.1l12.4-3l13.4-2.9
			l14.3-2.7l30-5l15.1-2.2l14.6-1.9l13.7-1.7l12.5-1.3l5.7-0.5l5.4-0.5l5-0.4l4.6-0.3l4.2-0.2l3.8-0.1h3.4h3l0-0.1V39l0,0
			c0-3.1,2.5-5.7,5.7-5.7h0l0,0h20.3l0,0v324l0,0h7.2l0,0h7.2l0,0v-324l0,0h20.3l0,0c3.1,0,5.7,2.5,5.7,5.7l0,0L914.5,92.8
			L914.5,92.8z"/>
	</g>
	<g transform="translate(-23.138522299999863 1103.6682181) rotate(270)">
		<path class="st0" d="M603.2,358V63.6h-0.1l-3.6,11.8l-4.2,12.4l-4.8,12.9l-5.5,13.4l-6.1,13.8l-6.8,14.2l-7.5,14.4l-8,14.4
			l-8.5,14.3l-8.8,13.9l-9,13.3l-9.1,12.6l-9.1,11.7l-9,10.8l-8.9,9.9l-8.8,8.9l-0.1,0l16.4,4.5l0,0l24,4.7l0,0l15.1,3h0.2l-4.4,7.7
			l-4.9,8.2l-5.4,8.7l-5.9,9.1l-6.4,9.6l-6.8,9.9l-7.2,10.2l-7.5,10.3l-15.5,20.5l-7.9,9.9l-7.9,9.6l-7.8,9.2l-7.8,8.8l-7.7,8.4
			l-7.6,8l-0.1,0l9.3,3l9.3,2.8l9.3,2.6l9.2,2.3l8.9,2l4.3,0.8l4.1,0.8l4,0.6l3.8,0.5l3.7,0.4l3.5,0.3l-0.1-0.1l-1.4,2.5l-1.8,2.9
			l-2.1,3.4l-2.5,3.9l-2.8,4.3l-3.1,4.6l-6.8,10l-7.1,10.2l-7.1,9.9l-14,18.5l-7.5,9.5l-8.2,10.2l-8.8,10.7l-9,10.8l-8.9,10.5
			l-8.5,9.6l-4,4.5l-3.9,4.2l-3.7,3.9l-3.6,3.6l0,0l9.3,3.2l10.3,3.1l11.4,3.1l12.4,3l13.4,2.9l14.3,2.7l30,5l15.1,2.2l14.6,1.9
			l13.7,1.6l12.5,1.3l5.7,0.6l5.4,0.4l5,0.4l4.6,0.3l4.2,0.2l3.8,0.1h3.4h3l-0.1,0v53.8l0.1,0c0,3.1,2.5,5.7,5.7,5.7l-0.1,0h22.2
			l0.1,0h10.9l-0.1,0h22.1l0.1,0c3.1,0,5.7-2.5,5.7-5.7c0,0,0,0,0,0h-0.1v-53.8l0-0.1h3h3.4l3.8-0.1l4.2-0.2l4.6-0.3l5-0.4l5.4-0.5
			l5.7-0.5l12.5-1.3l13.7-1.6l14.6-1.9l15.1-2.2l30-5l14.3-2.7l13.4-2.9l12.4-3l11.4-3.1l10.3-3.2l9.3-3.2l0,0.1l-3.6-3.6l-3.7-3.9
			l-3.9-4.2l-4-4.4l-8.5-9.6l-8.9-10.5l-9-10.8l-8.7-10.7l-8.2-10.2l-7.5-9.5l-14-18.5l-7.1-9.9l-7.1-10.2l-6.8-10l-3.1-4.6
			l-2.8-4.3l-2.5-3.9l-2.1-3.4l-1.8-2.9l-1.4-2.5l0,0l3.5-0.3l3.7-0.4l3.8-0.5l4-0.6l4.1-0.8l4.3-0.8l8.9-2l9.2-2.3l9.3-2.6l9.3-2.8
			l9.3-3l0,0l-7.6-8l-7.7-8.4l-7.8-8.8l-7.8-9.2l-7.9-9.6l-7.9-9.9l-15.5-20.5l-7.5-10.3l-7.2-10.2l-6.8-9.9l-6.4-9.6l-5.9-9.1
			l-5.4-8.7l-4.9-8.2l-4.4-7.7h-0.1l15.1-3l0.1,0l24-4.7h0.1l16.4-4.5h0l-8.8-8.9l-8.9-9.9l-9-10.8l-9.1-11.7l-9.1-12.6l-9-13.3
			l-8.8-13.9l-8.5-14.3l-8-14.4l-7.5-14.4l-6.8-14.2l-6.1-13.8l-5.5-13.4l-4.8-12.9l-4.2-12.4l-3.6-11.8l0,0V358l0,0h-7.2l0,0
			L603.2,358L603.2,358z"/>
	</g>
	<g transform="translate(328.52809560000003 1283.6134462999999) rotate(180)">
		<path class="st0" d="M0.3,516.3c0-89.5,72.5-162,162-162s162,72.5,162,162s-72.5,162-162,162S0.3,605.8,0.3,516.3L0.3,516.3z"/>
	</g>
	<g transform="translate(275.6113306 687.0970288999999) rotate(0)">
		<path class="st0" d="M51.4,144.4c0-79.5,64.5-144,144-144s144,64.5,144,144s-64.5,144-144,144S51.4,223.9,51.4,144.4L51.4,144.4z"
			/>
		<polygon class="st0" points="202.6,177.6 195.4,177.6 188.1,177.6 188.1,151.6 162.1,151.6 162.1,144.4 162.1,137.1 188.1,137.1 
			188.1,111.1 195.4,111.1 202.6,111.1 202.6,137.1 228.6,137.1 228.6,144.4 228.6,151.6 202.6,151.6 		"/>
	</g>
</g>
</svg>
