<?xml version="1.0" standalone="no"?>
<!DOCTYPE svg PUBLIC "-//W3C//DTD SVG 1.1//EN"
  "http://www.w3.org/Graphics/SVG/1.1/DTD/svg11.dtd">
<svg width="39.93871307373047mm" height="14.499999999999996mm" viewBox="-19.93871307373047 -7.249999999999998 39.93871307373047 14.499999999999996" xmlns="http://www.w3.org/2000/svg" version="1.1">
	<title>svgOutput</title>
	<desc>made with tinkercad</desc>
<path d="M 19 -4.1690001487731925 L 14.5 -4.1690001487731925 L 0 -4.1690001487731925 L -8.192000389099121 -4.1690001487731925 L -15.001999855041504 -4.1690001487731925 L -15.004449844360352 -4.168749809265136 L -15.389575004577637 -4.089749813079833 L -15.394387245178223 -4.0877623558044425 L -15.765687942504883 -3.8537249565124503 L -15.767999649047852 -3.8519999980926505 L -16.02899932861328 -3.57200002670288 L -16.267974853515625 -3.227362394332885 L -16.27191162109375 -3.221287488937377 L -16.384000778198242 -3.0101637840270987 L -16.416088104248047 -2.949724912643432 L -16.419374465942383 -2.9421625137329097 L -16.625078201293945 -2.417951107025146 L -16.664274215698242 -2.318062543869018 L -16.80548667907715 -1.7887624502182002 L -16.808000564575195 -1.77999997138977 L -16.809650421142578 -1.7704000473022456 L -16.977794647216797 -0.6209248304367063 L -16.978511810302734 -0.6160125136375425 L -16.992855072021484 1.1102230246251565e-16 L -16.99727439880371 0.18978750705719 L -16.99776268005371 0.21007500588893896 L -16.884199142456055 1.3931000232696533 L -16.882999420166016 1.402999997138977 L -16.715999603271484 2.1410000324249263 L -16.482999801635742 2.7969999313354488 L -16.384000778198242 2.9834330081939693 L -16.191999435424805 3.3450000286102286 L -15.944999694824219 3.6770000457763663 L -15.587525367736816 3.9860875606536856 L -15.581812858581543 3.9906249046325675 L -15.297412872314453 4.1180124282836905 L -15.293787956237793 4.119375228881835 L -15.004449844360352 4.168749809265136 L -15.001999855041504 4.1690001487731925 L -8.192000389099121 4.1690001487731925 L 0 4.1690001487731925 L 14.5 4.1690001487731925 L 19 4.1690001487731925 L 19 6.249999999999998 L 0 6.249999999999998 L -8.192000389099121 6.249999999999998 L -14 6.249999999999998 L -14.64799976348877 6.249999999999998 L -14.651124000549316 6.246719360351561 L -14.936714172363281 5.946753025054931 L -14.946000099182129 5.936999797821044 L -15.155349731445312 5.859974861145019 L -15.157774925231934 5.859012603759765 L -15.160300254821777 5.8590002059936515 L -15.358695983886719 5.85997724533081 L -15.360762596130371 5.85998773574829 L -15.551349639892578 5.936025142669677 L -15.554200172424316 5.937150001525878 L -15.737874984741211 6.091199874877928 L -15.741399765014648 6.094962596893309 L -15.85200023651123 6.249999999999998 L -15.886651039123535 6.249999999999998 L -16.384000778198242 6.249999999999998 L -16.92218589782715 6.249999999999998 L -17 6.249999999999998 L -17.38512420654297 6.131499767303465 L -17.3887882232666 6.130562305450438 L -17.668249130249023 5.8817124366760245 L -17.671850204467773 5.879287719726562 L -17.673542022705078 5.877000331878661 L -17.938474655151367 5.518849849700927 L -17.94300079345703 5.513000011444091 L -17.943504333496094 5.51205015182495 L -18.111000061035156 5.19700002670288 L -18.113887786865234 5.189862728118896 L -18.41309928894043 4.422574996948241 L -18.601713180541992 3.730337381362914 L -18.604999542236328 3.7190001010894767 L -18.60546875 3.7165517807006827 L -18.805999755859375 2.668999910354614 L -18.936349868774414 1.532387495040893 L -18.938474655151367 1.510487556457519 L -18.93871307373047 1.4952000379562378 L -18.91518211364746 1.1102230246251565e-16 L -18.88242530822754 -2.081525087356567 L -18.881711959838867 -2.0966749191284175 L -18.8789119720459 -2.1178123950958248 L -18.714000701904297 -3.20900011062622 L -18.479999542236328 -4.192999839782714 L -18.268999099731445 -4.830999851226806 L -18.112974166870117 -5.192424774169921 L -18.10890007019043 -5.200937271118163 L -17.94300079345703 -5.512000083923339 L -17.67300033569336 -5.877999782562255 L -17.292999267578125 -6.1750001907348615 L -17 -6.249999999999998 L -16.842529296875 -6.249999999999998 L -16.384000778198242 -6.249999999999998 L -15.85200023651123 -6.249999999999998 L -15.70909309387207 -6.066786766052244 L -15.696000099182129 -6.0500001907348615 L -15.487637519836426 -5.903850078582763 L -15.485323905944824 -5.902147293090819 L -15.485224723815918 -5.9020748138427725 L -15.482524871826172 -5.901412487030028 L -15.294886589050293 -5.8521337509155265 L -15.286999702453613 -5.850062370300292 L -15.088512420654297 -5.874750137329101 L -15.085775375366211 -5.87505006790161 L -15.052032470703125 -5.890094757080077 L -14.930737495422363 -5.9441747665405265 L -14.763850212097168 -6.090324878692625 L -14.760000228881836 -6.092999935150145 L -14.64799976348877 -6.249999999999998 L -14.244815826416016 -6.249999999999998 L -13.532721519470215 -6.249999999999998 L -10.158781051635742 -6.249999999999998 L -8.192000389099121 -6.249999999999998 L 0 -6.249999999999998 L 19 -6.249999999999998 L 19 -4.1690001487731925 z" fill="none" stroke="rgb(255,0,0)" stroke-width="0.001mm" />
</svg>