<?xml version="1.0" encoding="UTF-8" standalone="no"?>
<!-- Created with Inkscape (http://www.inkscape.org/) -->

<svg
   width="210mm"
   height="297mm"
   viewBox="0 0 210 297"
   version="1.1"
   id="svg5"
   xml:space="preserve"
   inkscape:version="1.2.2 (b0a8486541, 2022-12-01)"
   sodipodi:docname="79.svg"
   xmlns:inkscape="http://www.inkscape.org/namespaces/inkscape"
   xmlns:sodipodi="http://sodipodi.sourceforge.net/DTD/sodipodi-0.dtd"
   xmlns="http://www.w3.org/2000/svg"
   xmlns:svg="http://www.w3.org/2000/svg"><sodipodi:namedview
     id="namedview7"
     pagecolor="#ffffff"
     bordercolor="#666666"
     borderopacity="1.0"
     inkscape:showpageshadow="2"
     inkscape:pageopacity="0.0"
     inkscape:pagecheckerboard="0"
     inkscape:deskcolor="#d1d1d1"
     inkscape:document-units="mm"
     showgrid="false"
     inkscape:zoom="2.3786088"
     inkscape:cx="409.27285"
     inkscape:cy="372.90705"
     inkscape:window-width="1920"
     inkscape:window-height="1011"
     inkscape:window-x="0"
     inkscape:window-y="32"
     inkscape:window-maximized="1"
     inkscape:current-layer="layer1" /><defs
     id="defs2" /><g
     inkscape:label="Layer 1"
     inkscape:groupmode="layer"
     id="layer1"><text
       xml:space="preserve"
       style="font-size:10.5833px;line-height:1.25;font-family:'TeX Gyre Adventor';-inkscape-font-specification:'TeX Gyre Adventor';stroke-width:0.264583"
       x="62.621922"
       y="75.087303"
       id="text113"><tspan
         sodipodi:role="line"
         id="tspan111"
         style="stroke-width:0.264583"
         x="62.621922"
         y="75.087303" /></text><g
       id="g469"
       transform="translate(0,-0.37905679)"><path
         style="fill:#000000;stroke-width:1"
         d="m 95.873413,95.357519 c 0.0871,-0.472943 0.36434,-2.229115 0.61602,-3.902604 0.42708,-2.839813 0.49921,-3.048675 1.08174,-3.132177 0.59129,-0.08476 0.61504,-0.03254 0.45118,0.992187 -0.1969,1.231334 0.0187,1.349396 0.84938,0.465156 0.80541,-0.857313 2.658117,-1.735997 4.039887,-1.915993 0.84654,-0.110273 1.8078,0.04484 3.54298,0.571706 3.11304,0.94524 4.16524,1.065826 4.61121,0.528468 0.19161,-0.23087 0.57192,-0.419764 0.84514,-0.419764 1.23074,0 -0.1907,3.685903 -1.97987,5.134004 -1.5555,1.25897 -3.18143,1.238099 -9.5619,-0.122735 -0.582077,-0.124147 -1.272097,-0.230909 -1.533377,-0.237246 -0.7566,-0.01836 -1.77391,1.182028 -1.77391,2.093118 0,0.68693 -0.0993,0.805776 -0.67345,0.805776 -0.61589,0 -0.65991,-0.07349 -0.51503,-0.859896 z"
         id="path465" /><path
         style="fill:#000000;stroke-width:1"
         d="m 102.88273,114.01679 c -3.059097,-0.55586 -4.153517,-5.2066 -2.12212,-9.01791 0.47582,-0.89271 1.7838,-2.68183 2.90663,-3.97583 1.12284,-1.29399 2.43788,-2.904629 2.92231,-3.579194 0.59907,-0.834179 1.0711,-1.226482 1.47576,-1.226482 0.32723,0 0.76948,-0.06697 0.98277,-0.148815 0.28347,-0.108775 0.21394,0.214501 -0.25843,1.201502 -0.35543,0.742673 -0.89159,2.320579 -1.19148,3.506449 -0.55665,2.20128 -0.55754,2.31815 -0.0591,7.7727 0.20191,2.2095 -0.11896,3.42712 -1.15676,4.38956 -0.63847,0.59211 -2.24567,1.33251 -2.6792,1.23424 -0.0874,-0.0198 -0.45661,-0.0901 -0.82041,-0.15622 z"
         id="path463" /></g><g
       id="g474"
       transform="translate(0,0.46608466)"><path
         style="fill:#000000;stroke-width:1"
         d="m 119.48796,102.04407 c -1.46286,-0.54609 -2.23916,-1.12368 -3.09129,-2.300007 -1.53196,-2.114804 -1.66689,-4.816792 -0.38241,-7.657711 1.08642,-2.402859 2.94036,-3.947488 5.55555,-4.628655 2.2762,-0.592876 2.47982,-0.553104 2.47982,0.484362 0,0.685721 -0.14812,0.951063 -0.66146,1.184955 l -0.66146,0.301379 v 4.717603 c 0,5.439322 0.10734,5.79312 1.68012,5.537893 l 0.96572,-0.156715 v 0.902616 c 0,0.74811 -0.14514,0.97766 -0.84794,1.3411 -1.14804,0.59367 -3.79372,0.73717 -5.03665,0.27318 z"
         id="path461" /><path
         style="fill:#000000;stroke-width:1"
         d="m 125.10796,112.50096 c 0,-0.54869 0.18208,-0.83424 0.67521,-1.05893 1.37087,-0.62461 1.45475,-1.31636 1.43492,-11.833698 -0.0174,-9.22111 -0.0419,-9.68788 -0.53501,-10.180974 -0.28423,-0.284234 -0.63585,-0.516787 -0.78137,-0.516787 -0.14552,0 -0.26458,-0.40418 -0.26458,-0.898178 v -0.898178 l 0.90956,0.205139 c 2.59897,0.586163 5.43666,2.99488 6.62725,5.625415 1.87907,4.151656 1.91362,10.257131 0.0807,14.260741 -1.48961,3.25374 -4.84486,6.0368 -7.28678,6.04414 -0.76886,0.002 -0.8599,-0.0769 -0.8599,-0.74869 z"
         id="path459" /><path
         style="fill:#000000;stroke-width:1"
         d="m 120.83356,112.85925 c -3.19936,-1.17671 -4.84476,-3.58799 -4.12641,-6.04711 0.34969,-1.19708 1.59667,-2.25073 2.91738,-2.46505 1.1973,-0.19429 2.74464,0.53812 3.39701,1.60793 0.65565,1.07518 0.62458,1.64231 -0.16572,3.02475 -0.83416,1.45916 -0.83335,2.08738 0.003,2.46853 0.4795,0.21847 0.66146,0.50805 0.66146,1.05266 0,0.67503 -0.0873,0.74939 -0.8599,0.73263 -0.47294,-0.0103 -1.2951,-0.1787 -1.82701,-0.37434 z"
         id="path455" /></g><g
       id="g3593"
       transform="translate(-1.208806,-0.05800365)"><circle
         style="fill:none;stroke:#000000;stroke-width:0.165;stroke-dasharray:none"
         id="path528"
         cx="115.84335"
         cy="100.24754"
         r="23" /><circle
         style="fill:none;stroke:#000000;stroke-width:0.165;stroke-dasharray:none"
         id="path528-3"
         cx="115.84335"
         cy="100.24754"
         r="24.300001" /></g></g></svg>
