  0
SECTION
  2
HEADER
  9
$ACADVER
  1
AC1014
  9
$HANDSEED
  5
FFFF
  9
$MEASUREMENT
 70
     1
  0
ENDSEC
  0
SECTION
  2
TABLES
  0
TABLE
  2
VPORT
  5
8
330
0
100
AcDbSymbolTable
 70
     4
  0
VPORT
  5
2E
330
8
100
AcDbSymbolTableRecord
100
AcDbViewportTableRecord
  2
*ACTIVE
 70
     0
 10
0.0
 20
0.0
 11
1.0
 21
1.0
 12
210.0
 22
148.5
 13
0.0
 23
0.0
 14
10.0
 24
10.0
 15
10.0
 25
10.0
 16
0.0
 26
0.0
 36
1.0
 17
0.0
 27
0.0
 37
0.0
 40
341.0
 41
1.24
 42
50.0
 43
0.0
 44
0.0
 50
0.0
 51
0.0
 71
     0
 72
   100
 73
     1
 74
     3
 75
     0
 76
     0
 77
     0
 78
     0
  0
ENDTAB
  0
TABLE
  2
LTYPE
  5
5
330
0
100
AcDbSymbolTable
 70
     1
  0
LTYPE
  5
14
330
5
100
AcDbSymbolTableRecord
100
AcDbLinetypeTableRecord
  2
BYBLOCK
 70
     0
  3

 72
    65
 73
     0
 40
0.0
  0
LTYPE
  5
15
330
5
100
AcDbSymbolTableRecord
100
AcDbLinetypeTableRecord
  2
BYLAYER
 70
     0
  3

 72
    65
 73
     0
 40
0.0
  0
LTYPE
  5
16
330
5
100
AcDbSymbolTableRecord
100
AcDbLinetypeTableRecord
  2
CONTINUOUS
 70
     0
  3
Solid line
 72
    65
 73
     0
 40
0.0
  0
ENDTAB
  0
TABLE
  2
LAYER
  5
2
100
AcDbSymbolTable
 70
2
  0
LAYER
  5
50
100
AcDbSymbolTableRecord
100
AcDbLayerTableRecord
  2
0
 70
0
  6
CONTINUOUS
  0
LAYER
  5
51
100
AcDbSymbolTableRecord
100
AcDbLayerTableRecord
  2
Layer_1
 70
0
  6
CONTINUOUS
  0
ENDTAB
  0
TABLE
  2
STYLE
  5
3
330
0
100
AcDbSymbolTable
 70
     1
  0
STYLE
  5
11
330
3
100
AcDbSymbolTableRecord
100
AcDbTextStyleTableRecord
  2
STANDARD
 70
     0
 40
0.0
 41
1.0
 50
0.0
 71
     0
 42
2.5
  3
txt
  4

  0
ENDTAB
  0
TABLE
  2
VIEW
  5
6
330
0
100
AcDbSymbolTable
 70
     0
  0
ENDTAB
  0
TABLE
  2
UCS
  5
7
330
0
100
AcDbSymbolTable
 70
     0
  0
ENDTAB
  0
TABLE
  2
APPID
  5
9
330
0
100
AcDbSymbolTable
 70
     2
  0
APPID
  5
12
330
9
100
AcDbSymbolTableRecord
100
AcDbRegAppTableRecord
  2
ACAD
 70
     0
  0
ENDTAB
  0
TABLE
  2
DIMSTYLE
  5
A
330
0
100
AcDbSymbolTable
 70
     1
  0
DIMSTYLE
105
27
330
A
100
AcDbSymbolTableRecord
100
AcDbDimStyleTableRecord
  2
ISO-25
 70
     0
  3

  4

  5

  6

  7

 40
1.0
 41
2.5
 42
0.625
 43
3.75
 44
1.25
 45
0.0
 46
0.0
 47
0.0
 48
0.0
140
2.5
141
2.5
142
0.0
143
0.03937007874016
144
1.0
145
0.0
146
1.0
147
0.625
 71
     0
 72
     0
 73
     0
 74
     0
 75
     0
 76
     0
 77
     1
 78
     8
170
     0
171
     3
172
     1
173
     0
174
     0
175
     0
176
     0
177
     0
178
     0
270
     2
271
     2
272
     2
273
     2
274
     3
340
11
275
     0
280
     0
281
     0
282
     0
283
     0
284
     8
285
     0
286
     0
287
     3
288
     0
  0
ENDTAB
  0
TABLE
  2
BLOCK_RECORD
  5
1
330
0
100
AcDbSymbolTable
 70
     1
  0
BLOCK_RECORD
  5
1F
330
1
100
AcDbSymbolTableRecord
100
AcDbBlockTableRecord
  2
*MODEL_SPACE
  0
BLOCK_RECORD
  5
1B
330
1
100
AcDbSymbolTableRecord
100
AcDbBlockTableRecord
  2
*PAPER_SPACE
  0
ENDTAB
  0
ENDSEC
  0
SECTION
  2
BLOCKS
  0
BLOCK
  5
20
330
1F
100
AcDbEntity
  8
0
100
AcDbBlockBegin
  2
*MODEL_SPACE
 70
     0
 10
0.0
 20
0.0
 30
0.0
  3
*MODEL_SPACE
  1

  0
ENDBLK
  5
21
330
1F
100
AcDbEntity
  8
0
100
AcDbBlockEnd
  0
BLOCK
  5
1C
330
1B
100
AcDbEntity
 67
     1
  8
0
100
AcDbBlockBegin
  2
*PAPER_SPACE
  1

  0
ENDBLK
  5
1D
330
1B
100
AcDbEntity
 67
     1
  8
0
100
AcDbBlockEnd
  0
ENDSEC
  0
SECTION
  2
ENTITIES
  0
SPLINE
  5
100
100
AcDbEntity
  8
Layer_1
 62
7
100
AcDbSpline
 70
8
 71
3
 72
8
 73
4
 74
0
 40
0
 40
0
 40
0
 40
0
 40
1
 40
1
 40
1
 40
1
 10
-136.639160
 20
40.933490
 30
0.0
 10
-138.352160
 20
40.474490
 30
0.0
 10
-139.913160
 20
39.573490
 30
0.0
 10
-141.167160
 20
38.319480
 30
0.0
  0
SPLINE
  5
101
100
AcDbEntity
  8
Layer_1
 62
7
100
AcDbSpline
 70
8
 71
3
 72
8
 73
4
 74
0
 40
0
 40
0
 40
0
 40
0
 40
1
 40
1
 40
1
 40
1
 10
-141.167160
 20
38.319480
 30
0.0
 10
-142.420160
 20
37.066470
 30
0.0
 10
-143.322160
 20
35.504460
 30
0.0
 10
-143.781160
 20
33.791450
 30
0.0
  0
SPLINE
  5
102
100
AcDbEntity
  8
Layer_1
 62
7
100
AcDbSpline
 70
8
 71
3
 72
8
 73
4
 74
0
 40
0
 40
0
 40
0
 40
0
 40
1
 40
1
 40
1
 40
1
 10
-143.781160
 20
33.791450
 30
0.0
 10
-144.240160
 20
32.079440
 30
0.0
 10
-144.240160
 20
30.276430
 30
0.0
 10
-143.781160
 20
28.563420
 30
0.0
  0
LWPOLYLINE
  5
103
100
AcDbEntity
  8
Layer_1
 62
7
100
AcDbPolyline
 90
4
 70
0
 10
-114.402530
 20
-59.182590
 30
0.0
 10
-96.483775
 20
-54.620220
 30
0.0
 10
-121.563440
 20
46.167860
 30
0.0
 10
-136.639160
 20
40.933490
 30
0.0
  0
SPLINE
  5
104
100
AcDbEntity
  8
Layer_1
 62
7
100
AcDbSpline
 70
8
 71
3
 72
8
 73
4
 74
0
 40
0
 40
0
 40
0
 40
0
 40
1
 40
1
 40
1
 40
1
 10
-124.158530
 20
-51.696540
 30
0.0
 10
-123.776530
 20
-53.120550
 30
0.0
 10
-123.087530
 20
-54.444560
 30
0.0
 10
-122.139530
 20
-55.574570
 30
0.0
  0
SPLINE
  5
105
100
AcDbEntity
  8
Layer_1
 62
7
100
AcDbSpline
 70
8
 71
3
 72
8
 73
4
 74
0
 40
0
 40
0
 40
0
 40
0
 40
1
 40
1
 40
1
 40
1
 10
-122.139530
 20
-55.574570
 30
0.0
 10
-121.191530
 20
-56.704570
 30
0.0
 10
-120.007530
 20
-57.612580
 30
0.0
 10
-118.671530
 20
-58.236580
 30
0.0
  0
SPLINE
  5
106
100
AcDbEntity
  8
Layer_1
 62
7
100
AcDbSpline
 70
8
 71
3
 72
8
 73
4
 74
0
 40
0
 40
0
 40
0
 40
0
 40
1
 40
1
 40
1
 40
1
 10
-118.671530
 20
-58.236580
 30
0.0
 10
-117.334530
 20
-58.859590
 30
0.0
 10
-115.877530
 20
-59.182590
 30
0.0
 10
-114.402530
 20
-59.182590
 30
0.0
  0
LWPOLYLINE
  5
107
100
AcDbEntity
  8
Layer_1
 62
7
100
AcDbPolyline
 90
2
 70
0
 10
-143.781160
 20
28.563420
 30
0.0
 10
-124.158530
 20
-51.696540
 30
0.0
  0
LWPOLYLINE
  5
108
100
AcDbEntity
  8
Layer_1
 62
7
100
AcDbPolyline
 90
1
 70
1
 10
-114.402530
 20
-59.182590
 30
0.0
  0
SPLINE
  5
109
100
AcDbEntity
  8
Layer_1
 62
7
100
AcDbSpline
 70
8
 71
3
 72
8
 73
4
 74
0
 40
0
 40
0
 40
0
 40
0
 40
1
 40
1
 40
1
 40
1
 10
-136.176530
 20
32.564960
 30
0.0
 10
-136.202530
 20
32.660960
 30
0.0
 10
-136.272530
 20
32.538960
 30
0.0
 10
-136.176530
 20
32.564960
 30
0.0
  0
SPLINE
  5
10a
100
AcDbEntity
  8
Layer_1
 62
7
100
AcDbSpline
 70
8
 71
3
 72
8
 73
4
 74
0
 40
0
 40
0
 40
0
 40
0
 40
1
 40
1
 40
1
 40
1
 10
-126.903530
 20
35.048980
 30
0.0
 10
-126.806530
 20
35.074980
 30
0.0
 10
-126.929530
 20
35.145980
 30
0.0
 10
-126.903530
 20
35.048980
 30
0.0
  0
SPLINE
  5
10b
100
AcDbEntity
  8
Layer_1
 62
7
100
AcDbSpline
 70
8
 71
3
 72
8
 73
4
 74
0
 40
0
 40
0
 40
0
 40
0
 40
1
 40
1
 40
1
 40
1
 10
-121.882530
 20
16.310870
 30
0.0
 10
-121.856530
 20
16.213870
 30
0.0
 10
-121.785530
 20
16.335870
 30
0.0
 10
-121.882530
 20
16.310870
 30
0.0
  0
SPLINE
  5
10c
100
AcDbEntity
  8
Layer_1
 62
7
100
AcDbSpline
 70
8
 71
3
 72
8
 73
4
 74
0
 40
0
 40
0
 40
0
 40
0
 40
1
 40
1
 40
1
 40
1
 10
-131.155530
 20
13.825850
 30
0.0
 10
-131.251530
 20
13.799850
 30
0.0
 10
-131.129530
 20
13.728850
 30
0.0
 10
-131.155530
 20
13.825850
 30
0.0
  0
LWPOLYLINE
  5
10d
100
AcDbEntity
  8
Layer_1
 62
7
100
AcDbPolyline
 90
5
 70
1
 10
-133.665530
 20
23.194910
 30
0.0
 10
-136.176530
 20
32.564960
 30
0.0
 10
-126.903530
 20
35.048980
 30
0.0
 10
-121.882530
 20
16.310870
 30
0.0
 10
-131.155530
 20
13.825850
 30
0.0
  0
SPLINE
  5
10e
100
AcDbEntity
  8
Layer_1
 62
7
100
AcDbSpline
 70
8
 71
3
 72
8
 73
4
 74
0
 40
0
 40
0
 40
0
 40
0
 40
1
 40
1
 40
1
 40
1
 10
-128.567530
 20
4.166790
 30
0.0
 10
-128.593530
 20
4.262790
 30
0.0
 10
-128.663530
 20
4.140790
 30
0.0
 10
-128.567530
 20
4.166790
 30
0.0
  0
SPLINE
  5
10f
100
AcDbEntity
  8
Layer_1
 62
7
100
AcDbSpline
 70
8
 71
3
 72
8
 73
4
 74
0
 40
0
 40
0
 40
0
 40
0
 40
1
 40
1
 40
1
 40
1
 10
-119.294530
 20
6.650810
 30
0.0
 10
-119.197530
 20
6.676810
 30
0.0
 10
-119.320530
 20
6.747810
 30
0.0
 10
-119.294530
 20
6.650810
 30
0.0
  0
SPLINE
  5
110
100
AcDbEntity
  8
Layer_1
 62
7
100
AcDbSpline
 70
8
 71
3
 72
8
 73
4
 74
0
 40
0
 40
0
 40
0
 40
0
 40
1
 40
1
 40
1
 40
1
 10
-114.273530
 20
-12.088300
 30
0.0
 10
-114.247530
 20
-12.184300
 30
0.0
 10
-114.176530
 20
-12.062300
 30
0.0
 10
-114.273530
 20
-12.088300
 30
0.0
  0
SPLINE
  5
111
100
AcDbEntity
  8
Layer_1
 62
7
100
AcDbSpline
 70
8
 71
3
 72
8
 73
4
 74
0
 40
0
 40
0
 40
0
 40
0
 40
1
 40
1
 40
1
 40
1
 10
-123.546530
 20
-14.572320
 30
0.0
 10
-123.642530
 20
-14.598320
 30
0.0
 10
-123.520530
 20
-14.669320
 30
0.0
 10
-123.546530
 20
-14.572320
 30
0.0
  0
LWPOLYLINE
  5
112
100
AcDbEntity
  8
Layer_1
 62
7
100
AcDbPolyline
 90
5
 70
1
 10
-126.056530
 20
-5.203260
 30
0.0
 10
-128.567530
 20
4.166790
 30
0.0
 10
-119.294530
 20
6.650810
 30
0.0
 10
-114.273530
 20
-12.088300
 30
0.0
 10
-123.546530
 20
-14.572320
 30
0.0
  0
SPLINE
  5
113
100
AcDbEntity
  8
Layer_1
 62
7
100
AcDbSpline
 70
8
 71
3
 72
8
 73
4
 74
0
 40
0
 40
0
 40
0
 40
0
 40
1
 40
1
 40
1
 40
1
 10
-120.957530
 20
-24.232380
 30
0.0
 10
-120.983530
 20
-24.135380
 30
0.0
 10
-121.054530
 20
-24.258380
 30
0.0
 10
-120.957530
 20
-24.232380
 30
0.0
  0
SPLINE
  5
114
100
AcDbEntity
  8
Layer_1
 62
7
100
AcDbSpline
 70
8
 71
3
 72
8
 73
4
 74
0
 40
0
 40
0
 40
0
 40
0
 40
1
 40
1
 40
1
 40
1
 10
-111.684530
 20
-21.747360
 30
0.0
 10
-111.588530
 20
-21.721360
 30
0.0
 10
-111.710530
 20
-21.650360
 30
0.0
 10
-111.684530
 20
-21.747360
 30
0.0
  0
SPLINE
  5
115
100
AcDbEntity
  8
Layer_1
 62
7
100
AcDbSpline
 70
8
 71
3
 72
8
 73
4
 74
0
 40
0
 40
0
 40
0
 40
0
 40
1
 40
1
 40
1
 40
1
 10
-106.663530
 20
-40.486480
 30
0.0
 10
-106.637530
 20
-40.583480
 30
0.0
 10
-106.567530
 20
-40.460480
 30
0.0
 10
-106.663530
 20
-40.486480
 30
0.0
  0
SPLINE
  5
116
100
AcDbEntity
  8
Layer_1
 62
7
100
AcDbSpline
 70
8
 71
3
 72
8
 73
4
 74
0
 40
0
 40
0
 40
0
 40
0
 40
1
 40
1
 40
1
 40
1
 10
-115.936530
 20
-42.971490
 30
0.0
 10
-116.033530
 20
-42.996490
 30
0.0
 10
-115.910530
 20
-43.067490
 30
0.0
 10
-115.936530
 20
-42.971490
 30
0.0
  0
LWPOLYLINE
  5
117
100
AcDbEntity
  8
Layer_1
 62
7
100
AcDbPolyline
 90
5
 70
1
 10
-118.447530
 20
-33.601430
 30
0.0
 10
-120.957530
 20
-24.232380
 30
0.0
 10
-111.684530
 20
-21.747360
 30
0.0
 10
-106.663530
 20
-40.486480
 30
0.0
 10
-115.936530
 20
-42.971490
 30
0.0
  0
SPLINE
  5
118
100
AcDbEntity
  8
Layer_1
 62
7
100
AcDbSpline
 70
8
 71
3
 72
8
 73
4
 74
0
 40
0
 40
0
 40
0
 40
0
 40
1
 40
1
 40
1
 40
1
 10
-180.775760
 20
-112.335780
 30
0.0
 10
-180.775760
 20
-112.335780
 30
0.0
 10
-180.327390
 20
-85.151580
 30
0.0
 10
-180.407250
 20
-85.091390
 30
0.0
  0
LWPOLYLINE
  5
119
100
AcDbEntity
  8
Layer_1
 62
7
100
AcDbPolyline
 90
3
 70
0
 10
-240.705010
 20
-128.415540
 30
0.0
 10
-231.743220
 20
-122.812080
 30
0.0
 10
-180.775760
 20
-112.335780
 30
0.0
  0
SPLINE
  5
11a
100
AcDbEntity
  8
Layer_1
 62
7
100
AcDbSpline
 70
8
 71
3
 72
8
 73
4
 74
0
 40
0
 40
0
 40
0
 40
0
 40
1
 40
1
 40
1
 40
1
 10
-180.746790
 20
-84.835500
 30
0.0
 10
-180.790690
 20
-84.802400
 30
0.0
 10
-180.791790
 20
-84.735500
 30
0.0
 10
-180.846790
 20
-84.735500
 30
0.0
  0
LWPOLYLINE
  5
11b
100
AcDbEntity
  8
Layer_1
 62
7
100
AcDbPolyline
 90
2
 70
0
 10
-180.407250
 20
-85.091390
 30
0.0
 10
-180.746790
 20
-84.835500
 30
0.0
  0
SPLINE
  5
11c
100
AcDbEntity
  8
Layer_1
 62
7
100
AcDbSpline
 70
8
 71
3
 72
8
 73
4
 74
0
 40
0
 40
0
 40
0
 40
0
 40
1
 40
1
 40
1
 40
1
 10
-190.646790
 20
-84.735500
 30
0.0
 10
-190.701790
 20
-84.735500
 30
0.0
 10
-190.746790
 20
-84.780500
 30
0.0
 10
-190.746790
 20
-84.835500
 30
0.0
  0
LWPOLYLINE
  5
11d
100
AcDbEntity
  8
Layer_1
 62
7
100
AcDbPolyline
 90
2
 70
0
 10
-180.846790
 20
-84.735500
 30
0.0
 10
-190.646790
 20
-84.735500
 30
0.0
  0
SPLINE
  5
11e
100
AcDbEntity
  8
Layer_1
 62
7
100
AcDbSpline
 70
8
 71
3
 72
8
 73
4
 74
0
 40
0
 40
0
 40
0
 40
0
 40
1
 40
1
 40
1
 40
1
 10
-190.746790
 20
-94.535560
 30
0.0
 10
-190.746790
 20
-94.635560
 30
0.0
 10
-190.646790
 20
-94.535560
 30
0.0
 10
-190.746790
 20
-94.535560
 30
0.0
  0
SPLINE
  5
11f
100
AcDbEntity
  8
Layer_1
 62
7
100
AcDbSpline
 70
8
 71
3
 72
8
 73
4
 74
0
 40
0
 40
0
 40
0
 40
0
 40
1
 40
1
 40
1
 40
1
 10
-210.146790
 20
-94.535560
 30
0.0
 10
-210.246790
 20
-94.535560
 30
0.0
 10
-210.146790
 20
-94.635560
 30
0.0
 10
-210.146790
 20
-94.535560
 30
0.0
  0
SPLINE
  5
120
100
AcDbEntity
  8
Layer_1
 62
7
100
AcDbSpline
 70
8
 71
3
 72
8
 73
4
 74
0
 40
0
 40
0
 40
0
 40
0
 40
1
 40
1
 40
1
 40
1
 10
-210.146790
 20
-84.835500
 30
0.0
 10
-210.146790
 20
-84.780500
 30
0.0
 10
-210.191790
 20
-84.735500
 30
0.0
 10
-210.246790
 20
-84.735500
 30
0.0
  0
LWPOLYLINE
  5
121
100
AcDbEntity
  8
Layer_1
 62
7
100
AcDbPolyline
 90
4
 70
0
 10
-190.746790
 20
-84.835500
 30
0.0
 10
-190.746790
 20
-94.535560
 30
0.0
 10
-210.146790
 20
-94.535560
 30
0.0
 10
-210.146790
 20
-84.835500
 30
0.0
  0
SPLINE
  5
122
100
AcDbEntity
  8
Layer_1
 62
7
100
AcDbSpline
 70
8
 71
3
 72
8
 73
4
 74
0
 40
0
 40
0
 40
0
 40
0
 40
1
 40
1
 40
1
 40
1
 10
-220.046790
 20
-84.735500
 30
0.0
 10
-220.101790
 20
-84.735500
 30
0.0
 10
-220.146790
 20
-84.780500
 30
0.0
 10
-220.146790
 20
-84.835500
 30
0.0
  0
LWPOLYLINE
  5
123
100
AcDbEntity
  8
Layer_1
 62
7
100
AcDbPolyline
 90
2
 70
0
 10
-210.246790
 20
-84.735500
 30
0.0
 10
-220.046790
 20
-84.735500
 30
0.0
  0
SPLINE
  5
124
100
AcDbEntity
  8
Layer_1
 62
7
100
AcDbSpline
 70
8
 71
3
 72
8
 73
4
 74
0
 40
0
 40
0
 40
0
 40
0
 40
1
 40
1
 40
1
 40
1
 10
-220.146790
 20
-94.535560
 30
0.0
 10
-220.146790
 20
-94.635560
 30
0.0
 10
-220.046790
 20
-94.535560
 30
0.0
 10
-220.146790
 20
-94.535560
 30
0.0
  0
SPLINE
  5
125
100
AcDbEntity
  8
Layer_1
 62
7
100
AcDbSpline
 70
8
 71
3
 72
8
 73
4
 74
0
 40
0
 40
0
 40
0
 40
0
 40
1
 40
1
 40
1
 40
1
 10
-239.546790
 20
-94.535560
 30
0.0
 10
-239.646790
 20
-94.535560
 30
0.0
 10
-239.546790
 20
-94.635560
 30
0.0
 10
-239.546790
 20
-94.535560
 30
0.0
  0
SPLINE
  5
126
100
AcDbEntity
  8
Layer_1
 62
7
100
AcDbSpline
 70
8
 71
3
 72
8
 73
4
 74
0
 40
0
 40
0
 40
0
 40
0
 40
1
 40
1
 40
1
 40
1
 10
-239.546790
 20
-84.835500
 30
0.0
 10
-239.546790
 20
-84.780500
 30
0.0
 10
-239.591790
 20
-84.735500
 30
0.0
 10
-239.646790
 20
-84.735500
 30
0.0
  0
LWPOLYLINE
  5
127
100
AcDbEntity
  8
Layer_1
 62
7
100
AcDbPolyline
 90
4
 70
0
 10
-220.146790
 20
-84.835500
 30
0.0
 10
-220.146790
 20
-94.535560
 30
0.0
 10
-239.546790
 20
-94.535560
 30
0.0
 10
-239.546790
 20
-84.835500
 30
0.0
  0
SPLINE
  5
128
100
AcDbEntity
  8
Layer_1
 62
7
100
AcDbSpline
 70
8
 71
3
 72
8
 73
4
 74
0
 40
0
 40
0
 40
0
 40
0
 40
1
 40
1
 40
1
 40
1
 10
-249.446790
 20
-84.735500
 30
0.0
 10
-249.501790
 20
-84.735500
 30
0.0
 10
-249.546790
 20
-84.780500
 30
0.0
 10
-249.546790
 20
-84.835500
 30
0.0
  0
LWPOLYLINE
  5
129
100
AcDbEntity
  8
Layer_1
 62
7
100
AcDbPolyline
 90
2
 70
0
 10
-239.646790
 20
-84.735500
 30
0.0
 10
-249.446790
 20
-84.735500
 30
0.0
  0
SPLINE
  5
12a
100
AcDbEntity
  8
Layer_1
 62
7
100
AcDbSpline
 70
8
 71
3
 72
8
 73
4
 74
0
 40
0
 40
0
 40
0
 40
0
 40
1
 40
1
 40
1
 40
1
 10
-249.546790
 20
-94.535560
 30
0.0
 10
-249.546790
 20
-94.635560
 30
0.0
 10
-249.446790
 20
-94.535560
 30
0.0
 10
-249.546790
 20
-94.535560
 30
0.0
  0
SPLINE
  5
12b
100
AcDbEntity
  8
Layer_1
 62
7
100
AcDbSpline
 70
8
 71
3
 72
8
 73
4
 74
0
 40
0
 40
0
 40
0
 40
0
 40
1
 40
1
 40
1
 40
1
 10
-268.946790
 20
-94.535560
 30
0.0
 10
-269.046790
 20
-94.535560
 30
0.0
 10
-268.946790
 20
-94.635560
 30
0.0
 10
-268.946790
 20
-94.535560
 30
0.0
  0
SPLINE
  5
12c
100
AcDbEntity
  8
Layer_1
 62
7
100
AcDbSpline
 70
8
 71
3
 72
8
 73
4
 74
0
 40
0
 40
0
 40
0
 40
0
 40
1
 40
1
 40
1
 40
1
 10
-268.946790
 20
-84.835500
 30
0.0
 10
-268.946790
 20
-84.780500
 30
0.0
 10
-268.991790
 20
-84.735500
 30
0.0
 10
-269.046790
 20
-84.735500
 30
0.0
  0
LWPOLYLINE
  5
12d
100
AcDbEntity
  8
Layer_1
 62
7
100
AcDbPolyline
 90
4
 70
0
 10
-249.546790
 20
-84.835500
 30
0.0
 10
-249.546790
 20
-94.535560
 30
0.0
 10
-268.946790
 20
-94.535560
 30
0.0
 10
-268.946790
 20
-84.835500
 30
0.0
  0
SPLINE
  5
12e
100
AcDbEntity
  8
Layer_1
 62
7
100
AcDbSpline
 70
8
 71
3
 72
8
 73
4
 74
0
 40
0
 40
0
 40
0
 40
0
 40
1
 40
1
 40
1
 40
1
 10
-279.346790
 20
-84.735500
 30
0.0
 10
-279.401790
 20
-84.735500
 30
0.0
 10
-279.446790
 20
-84.780500
 30
0.0
 10
-279.446790
 20
-84.835500
 30
0.0
  0
LWPOLYLINE
  5
12f
100
AcDbEntity
  8
Layer_1
 62
7
100
AcDbPolyline
 90
2
 70
0
 10
-269.046790
 20
-84.735500
 30
0.0
 10
-279.346790
 20
-84.735500
 30
0.0
  0
SPLINE
  5
130
100
AcDbEntity
  8
Layer_1
 62
7
100
AcDbSpline
 70
8
 71
3
 72
8
 73
4
 74
0
 40
0
 40
0
 40
0
 40
0
 40
1
 40
1
 40
1
 40
1
 10
-279.446790
 20
-105.335620
 30
0.0
 10
-279.446790
 20
-105.435620
 30
0.0
 10
-279.346790
 20
-105.335620
 30
0.0
 10
-279.446790
 20
-105.335620
 30
0.0
  0
SPLINE
  5
131
100
AcDbEntity
  8
Layer_1
 62
7
100
AcDbSpline
 70
8
 71
3
 72
8
 73
4
 74
0
 40
0
 40
0
 40
0
 40
0
 40
1
 40
1
 40
1
 40
1
 10
-287.186790
 20
-105.335620
 30
0.0
 10
-287.548790
 20
-105.335620
 30
0.0
 10
-287.903790
 20
-105.430620
 30
0.0
 10
-288.216790
 20
-105.611620
 30
0.0
  0
SPLINE
  5
132
100
AcDbEntity
  8
Layer_1
 62
7
100
AcDbSpline
 70
8
 71
3
 72
8
 73
4
 74
0
 40
0
 40
0
 40
0
 40
0
 40
1
 40
1
 40
1
 40
1
 10
-288.216790
 20
-105.611620
 30
0.0
 10
-288.529790
 20
-105.792620
 30
0.0
 10
-288.789790
 20
-106.052620
 30
0.0
 10
-288.970790
 20
-106.365630
 30
0.0
  0
SPLINE
  5
133
100
AcDbEntity
  8
Layer_1
 62
7
100
AcDbSpline
 70
8
 71
3
 72
8
 73
4
 74
0
 40
0
 40
0
 40
0
 40
0
 40
1
 40
1
 40
1
 40
1
 10
-288.970790
 20
-106.365630
 30
0.0
 10
-289.151790
 20
-106.678630
 30
0.0
 10
-289.246790
 20
-107.033630
 30
0.0
 10
-289.246790
 20
-107.395630
 30
0.0
  0
LWPOLYLINE
  5
134
100
AcDbEntity
  8
Layer_1
 62
7
100
AcDbPolyline
 90
4
 70
0
 10
-279.446790
 20
-84.835500
 30
0.0
 10
-279.446790
 20
-94.635560
 30
0.0
 10
-279.446790
 20
-105.335620
 30
0.0
 10
-287.186790
 20
-105.335620
 30
0.0
  0
SPLINE
  5
135
100
AcDbEntity
  8
Layer_1
 62
7
100
AcDbSpline
 70
8
 71
3
 72
8
 73
4
 74
0
 40
0
 40
0
 40
0
 40
0
 40
1
 40
1
 40
1
 40
1
 10
-289.246790
 20
-108.375640
 30
0.0
 10
-289.246790
 20
-108.430640
 30
0.0
 10
-289.201790
 20
-108.475640
 30
0.0
 10
-289.146790
 20
-108.475640
 30
0.0
  0
LWPOLYLINE
  5
136
100
AcDbEntity
  8
Layer_1
 62
7
100
AcDbPolyline
 90
2
 70
0
 10
-289.246790
 20
-107.395630
 30
0.0
 10
-289.246790
 20
-108.375640
 30
0.0
  0
SPLINE
  5
137
100
AcDbEntity
  8
Layer_1
 62
7
100
AcDbSpline
 70
8
 71
3
 72
8
 73
4
 74
0
 40
0
 40
0
 40
0
 40
0
 40
1
 40
1
 40
1
 40
1
 10
-280.326790
 20
-108.475640
 30
0.0
 10
-280.344790
 20
-108.475640
 30
0.0
 10
-280.361790
 20
-108.475640
 30
0.0
 10
-280.376790
 20
-108.461640
 30
0.0
  0
SPLINE
  5
138
100
AcDbEntity
  8
Layer_1
 62
7
100
AcDbSpline
 70
8
 71
3
 72
8
 73
4
 74
0
 40
0
 40
0
 40
0
 40
0
 40
1
 40
1
 40
1
 40
1
 10
-280.376790
 20
-108.461640
 30
0.0
 10
-280.391790
 20
-108.451640
 30
0.0
 10
-280.404790
 20
-108.440640
 30
0.0
 10
-280.413790
 20
-108.425640
 30
0.0
  0
SPLINE
  5
139
100
AcDbEntity
  8
Layer_1
 62
7
100
AcDbSpline
 70
8
 71
3
 72
8
 73
4
 74
0
 40
0
 40
0
 40
0
 40
0
 40
1
 40
1
 40
1
 40
1
 10
-280.413790
 20
-108.425640
 30
0.0
 10
-280.421790
 20
-108.410640
 30
0.0
 10
-280.426790
 20
-108.392640
 30
0.0
 10
-280.426790
 20
-108.375640
 30
0.0
  0
SPLINE
  5
13a
100
AcDbEntity
  8
Layer_1
 62
7
100
AcDbSpline
 70
8
 71
3
 72
8
 73
4
 74
0
 40
0
 40
0
 40
0
 40
0
 40
1
 40
1
 40
1
 40
1
 10
-280.426790
 20
-108.375640
 30
0.0
 10
-280.426790
 20
-108.357640
 30
0.0
 10
-280.421790
 20
-108.340640
 30
0.0
 10
-280.413790
 20
-108.325640
 30
0.0
  0
SPLINE
  5
13b
100
AcDbEntity
  8
Layer_1
 62
7
100
AcDbSpline
 70
8
 71
3
 72
8
 73
4
 74
0
 40
0
 40
0
 40
0
 40
0
 40
1
 40
1
 40
1
 40
1
 10
-280.413790
 20
-108.325640
 30
0.0
 10
-280.404790
 20
-108.310640
 30
0.0
 10
-280.391790
 20
-108.297640
 30
0.0
 10
-280.376790
 20
-108.288640
 30
0.0
  0
SPLINE
  5
13c
100
AcDbEntity
  8
Layer_1
 62
7
100
AcDbSpline
 70
8
 71
3
 72
8
 73
4
 74
0
 40
0
 40
0
 40
0
 40
0
 40
1
 40
1
 40
1
 40
1
 10
-280.376790
 20
-108.288640
 30
0.0
 10
-280.361790
 20
-108.278640
 30
0.0
 10
-280.344790
 20
-108.275640
 30
0.0
 10
-280.326790
 20
-108.275640
 30
0.0
  0
LWPOLYLINE
  5
13d
100
AcDbEntity
  8
Layer_1
 62
7
100
AcDbPolyline
 90
2
 70
0
 10
-289.146790
 20
-108.475640
 30
0.0
 10
-280.326790
 20
-108.475640
 30
0.0
  0
SPLINE
  5
13e
100
AcDbEntity
  8
Layer_1
 62
7
100
AcDbSpline
 70
8
 71
3
 72
8
 73
4
 74
0
 40
0
 40
0
 40
0
 40
0
 40
1
 40
1
 40
1
 40
1
 10
-289.146790
 20
-108.275640
 30
0.0
 10
-289.201790
 20
-108.275640
 30
0.0
 10
-289.246790
 20
-108.320640
 30
0.0
 10
-289.246790
 20
-108.375640
 30
0.0
  0
LWPOLYLINE
  5
13f
100
AcDbEntity
  8
Layer_1
 62
7
100
AcDbPolyline
 90
2
 70
0
 10
-280.326790
 20
-108.275640
 30
0.0
 10
-289.146790
 20
-108.275640
 30
0.0
  0
SPLINE
  5
140
100
AcDbEntity
  8
Layer_1
 62
7
100
AcDbSpline
 70
8
 71
3
 72
8
 73
4
 74
0
 40
0
 40
0
 40
0
 40
0
 40
1
 40
1
 40
1
 40
1
 10
-289.246790
 20
-122.095720
 30
0.0
 10
-289.246790
 20
-122.150720
 30
0.0
 10
-289.201790
 20
-122.195720
 30
0.0
 10
-289.146790
 20
-122.195720
 30
0.0
  0
LWPOLYLINE
  5
141
100
AcDbEntity
  8
Layer_1
 62
7
100
AcDbPolyline
 90
2
 70
0
 10
-289.246790
 20
-108.375640
 30
0.0
 10
-289.246790
 20
-122.095720
 30
0.0
  0
SPLINE
  5
142
100
AcDbEntity
  8
Layer_1
 62
7
100
AcDbSpline
 70
8
 71
3
 72
8
 73
4
 74
0
 40
0
 40
0
 40
0
 40
0
 40
1
 40
1
 40
1
 40
1
 10
-280.326790
 20
-122.195720
 30
0.0
 10
-280.344790
 20
-122.195720
 30
0.0
 10
-280.361790
 20
-122.185720
 30
0.0
 10
-280.376790
 20
-122.181720
 30
0.0
  0
SPLINE
  5
143
100
AcDbEntity
  8
Layer_1
 62
7
100
AcDbSpline
 70
8
 71
3
 72
8
 73
4
 74
0
 40
0
 40
0
 40
0
 40
0
 40
1
 40
1
 40
1
 40
1
 10
-280.376790
 20
-122.181720
 30
0.0
 10
-280.391790
 20
-122.171720
 30
0.0
 10
-280.404790
 20
-122.160720
 30
0.0
 10
-280.413790
 20
-122.145720
 30
0.0
  0
SPLINE
  5
144
100
AcDbEntity
  8
Layer_1
 62
7
100
AcDbSpline
 70
8
 71
3
 72
8
 73
4
 74
0
 40
0
 40
0
 40
0
 40
0
 40
1
 40
1
 40
1
 40
1
 10
-280.413790
 20
-122.145720
 30
0.0
 10
-280.421790
 20
-122.130720
 30
0.0
 10
-280.426790
 20
-122.112720
 30
0.0
 10
-280.426790
 20
-122.095720
 30
0.0
  0
SPLINE
  5
145
100
AcDbEntity
  8
Layer_1
 62
7
100
AcDbSpline
 70
8
 71
3
 72
8
 73
4
 74
0
 40
0
 40
0
 40
0
 40
0
 40
1
 40
1
 40
1
 40
1
 10
-280.426790
 20
-122.095720
 30
0.0
 10
-280.426790
 20
-122.077720
 30
0.0
 10
-280.421790
 20
-122.060720
 30
0.0
 10
-280.413790
 20
-122.045720
 30
0.0
  0
SPLINE
  5
146
100
AcDbEntity
  8
Layer_1
 62
7
100
AcDbSpline
 70
8
 71
3
 72
8
 73
4
 74
0
 40
0
 40
0
 40
0
 40
0
 40
1
 40
1
 40
1
 40
1
 10
-280.413790
 20
-122.045720
 30
0.0
 10
-280.404790
 20
-122.030720
 30
0.0
 10
-280.391790
 20
-122.017720
 30
0.0
 10
-280.376790
 20
-122.008720
 30
0.0
  0
SPLINE
  5
147
100
AcDbEntity
  8
Layer_1
 62
7
100
AcDbSpline
 70
8
 71
3
 72
8
 73
4
 74
0
 40
0
 40
0
 40
0
 40
0
 40
1
 40
1
 40
1
 40
1
 10
-280.376790
 20
-122.008720
 30
0.0
 10
-280.361790
 20
-121.998720
 30
0.0
 10
-280.344790
 20
-121.995720
 30
0.0
 10
-280.326790
 20
-121.995720
 30
0.0
  0
LWPOLYLINE
  5
148
100
AcDbEntity
  8
Layer_1
 62
7
100
AcDbPolyline
 90
2
 70
0
 10
-289.146790
 20
-122.195720
 30
0.0
 10
-280.326790
 20
-122.195720
 30
0.0
  0
SPLINE
  5
149
100
AcDbEntity
  8
Layer_1
 62
7
100
AcDbSpline
 70
8
 71
3
 72
8
 73
4
 74
0
 40
0
 40
0
 40
0
 40
0
 40
1
 40
1
 40
1
 40
1
 10
-289.146790
 20
-121.995720
 30
0.0
 10
-289.201790
 20
-121.995720
 30
0.0
 10
-289.246790
 20
-122.040720
 30
0.0
 10
-289.246790
 20
-122.095720
 30
0.0
  0
LWPOLYLINE
  5
14a
100
AcDbEntity
  8
Layer_1
 62
7
100
AcDbPolyline
 90
2
 70
0
 10
-280.326790
 20
-121.995720
 30
0.0
 10
-289.146790
 20
-121.995720
 30
0.0
  0
SPLINE
  5
14b
100
AcDbEntity
  8
Layer_1
 62
7
100
AcDbSpline
 70
8
 71
3
 72
8
 73
4
 74
0
 40
0
 40
0
 40
0
 40
0
 40
1
 40
1
 40
1
 40
1
 10
-289.246790
 20
-123.075730
 30
0.0
 10
-289.246790
 20
-123.436730
 30
0.0
 10
-289.151790
 20
-123.792730
 30
0.0
 10
-288.970790
 20
-124.105730
 30
0.0
  0
SPLINE
  5
14c
100
AcDbEntity
  8
Layer_1
 62
7
100
AcDbSpline
 70
8
 71
3
 72
8
 73
4
 74
0
 40
0
 40
0
 40
0
 40
0
 40
1
 40
1
 40
1
 40
1
 10
-288.970790
 20
-124.105730
 30
0.0
 10
-288.789790
 20
-124.418730
 30
0.0
 10
-288.529790
 20
-124.678740
 30
0.0
 10
-288.216790
 20
-124.859740
 30
0.0
  0
SPLINE
  5
14d
100
AcDbEntity
  8
Layer_1
 62
7
100
AcDbSpline
 70
8
 71
3
 72
8
 73
4
 74
0
 40
0
 40
0
 40
0
 40
0
 40
1
 40
1
 40
1
 40
1
 10
-288.216790
 20
-124.859740
 30
0.0
 10
-287.903790
 20
-125.040740
 30
0.0
 10
-287.548790
 20
-125.135740
 30
0.0
 10
-287.186790
 20
-125.135740
 30
0.0
  0
LWPOLYLINE
  5
14e
100
AcDbEntity
  8
Layer_1
 62
7
100
AcDbPolyline
 90
2
 70
0
 10
-289.246790
 20
-122.095720
 30
0.0
 10
-289.246790
 20
-123.075730
 30
0.0
  0
SPLINE
  5
14f
100
AcDbEntity
  8
Layer_1
 62
7
100
AcDbSpline
 70
8
 71
3
 72
8
 73
4
 74
0
 40
0
 40
0
 40
0
 40
0
 40
1
 40
1
 40
1
 40
1
 10
-279.446790
 20
-125.135740
 30
0.0
 10
-279.346790
 20
-125.135740
 30
0.0
 10
-279.446790
 20
-125.035740
 30
0.0
 10
-279.446790
 20
-125.135740
 30
0.0
  0
SPLINE
  5
150
100
AcDbEntity
  8
Layer_1
 62
7
100
AcDbSpline
 70
8
 71
3
 72
8
 73
4
 74
0
 40
0
 40
0
 40
0
 40
0
 40
1
 40
1
 40
1
 40
1
 10
-279.446790
 20
-134.735800
 30
0.0
 10
-279.446790
 20
-134.835800
 30
0.0
 10
-279.346790
 20
-134.735800
 30
0.0
 10
-279.446790
 20
-134.735800
 30
0.0
  0
SPLINE
  5
151
100
AcDbEntity
  8
Layer_1
 62
7
100
AcDbSpline
 70
8
 71
3
 72
8
 73
4
 74
0
 40
0
 40
0
 40
0
 40
0
 40
1
 40
1
 40
1
 40
1
 10
-287.186790
 20
-134.735800
 30
0.0
 10
-287.548790
 20
-134.735800
 30
0.0
 10
-287.903790
 20
-134.830800
 30
0.0
 10
-288.216790
 20
-135.011800
 30
0.0
  0
SPLINE
  5
152
100
AcDbEntity
  8
Layer_1
 62
7
100
AcDbSpline
 70
8
 71
3
 72
8
 73
4
 74
0
 40
0
 40
0
 40
0
 40
0
 40
1
 40
1
 40
1
 40
1
 10
-288.216790
 20
-135.011800
 30
0.0
 10
-288.529790
 20
-135.192800
 30
0.0
 10
-288.789790
 20
-135.452800
 30
0.0
 10
-288.970790
 20
-135.765800
 30
0.0
  0
SPLINE
  5
153
100
AcDbEntity
  8
Layer_1
 62
7
100
AcDbSpline
 70
8
 71
3
 72
8
 73
4
 74
0
 40
0
 40
0
 40
0
 40
0
 40
1
 40
1
 40
1
 40
1
 10
-288.970790
 20
-135.765800
 30
0.0
 10
-289.151790
 20
-136.078800
 30
0.0
 10
-289.246790
 20
-136.433810
 30
0.0
 10
-289.246790
 20
-136.795810
 30
0.0
  0
LWPOLYLINE
  5
154
100
AcDbEntity
  8
Layer_1
 62
7
100
AcDbPolyline
 90
4
 70
0
 10
-287.186790
 20
-125.135740
 30
0.0
 10
-279.446790
 20
-125.135740
 30
0.0
 10
-279.446790
 20
-134.735800
 30
0.0
 10
-287.186790
 20
-134.735800
 30
0.0
  0
SPLINE
  5
155
100
AcDbEntity
  8
Layer_1
 62
7
100
AcDbSpline
 70
8
 71
3
 72
8
 73
4
 74
0
 40
0
 40
0
 40
0
 40
0
 40
1
 40
1
 40
1
 40
1
 10
-289.246790
 20
-137.775810
 30
0.0
 10
-289.246790
 20
-137.830810
 30
0.0
 10
-289.201790
 20
-137.875820
 30
0.0
 10
-289.146790
 20
-137.875820
 30
0.0
  0
LWPOLYLINE
  5
156
100
AcDbEntity
  8
Layer_1
 62
7
100
AcDbPolyline
 90
2
 70
0
 10
-289.246790
 20
-136.795810
 30
0.0
 10
-289.246790
 20
-137.775810
 30
0.0
  0
SPLINE
  5
157
100
AcDbEntity
  8
Layer_1
 62
7
100
AcDbSpline
 70
8
 71
3
 72
8
 73
4
 74
0
 40
0
 40
0
 40
0
 40
0
 40
1
 40
1
 40
1
 40
1
 10
-280.326790
 20
-137.875820
 30
0.0
 10
-280.344790
 20
-137.875820
 30
0.0
 10
-280.361790
 20
-137.865820
 30
0.0
 10
-280.376790
 20
-137.861820
 30
0.0
  0
SPLINE
  5
158
100
AcDbEntity
  8
Layer_1
 62
7
100
AcDbSpline
 70
8
 71
3
 72
8
 73
4
 74
0
 40
0
 40
0
 40
0
 40
0
 40
1
 40
1
 40
1
 40
1
 10
-280.376790
 20
-137.861820
 30
0.0
 10
-280.391790
 20
-137.851820
 30
0.0
 10
-280.404790
 20
-137.840820
 30
0.0
 10
-280.413790
 20
-137.825820
 30
0.0
  0
SPLINE
  5
159
100
AcDbEntity
  8
Layer_1
 62
7
100
AcDbSpline
 70
8
 71
3
 72
8
 73
4
 74
0
 40
0
 40
0
 40
0
 40
0
 40
1
 40
1
 40
1
 40
1
 10
-280.413790
 20
-137.825820
 30
0.0
 10
-280.421790
 20
-137.810820
 30
0.0
 10
-280.426790
 20
-137.792820
 30
0.0
 10
-280.426790
 20
-137.775820
 30
0.0
  0
SPLINE
  5
15a
100
AcDbEntity
  8
Layer_1
 62
7
100
AcDbSpline
 70
8
 71
3
 72
8
 73
4
 74
0
 40
0
 40
0
 40
0
 40
0
 40
1
 40
1
 40
1
 40
1
 10
-280.426790
 20
-137.775820
 30
0.0
 10
-280.426790
 20
-137.757820
 30
0.0
 10
-280.421790
 20
-137.740820
 30
0.0
 10
-280.413790
 20
-137.725820
 30
0.0
  0
SPLINE
  5
15b
100
AcDbEntity
  8
Layer_1
 62
7
100
AcDbSpline
 70
8
 71
3
 72
8
 73
4
 74
0
 40
0
 40
0
 40
0
 40
0
 40
1
 40
1
 40
1
 40
1
 10
-280.413790
 20
-137.725820
 30
0.0
 10
-280.404790
 20
-137.710820
 30
0.0
 10
-280.391790
 20
-137.697820
 30
0.0
 10
-280.376790
 20
-137.688820
 30
0.0
  0
SPLINE
  5
15c
100
AcDbEntity
  8
Layer_1
 62
7
100
AcDbSpline
 70
8
 71
3
 72
8
 73
4
 74
0
 40
0
 40
0
 40
0
 40
0
 40
1
 40
1
 40
1
 40
1
 10
-280.376790
 20
-137.688820
 30
0.0
 10
-280.361790
 20
-137.678820
 30
0.0
 10
-280.344790
 20
-137.675820
 30
0.0
 10
-280.326790
 20
-137.675820
 30
0.0
  0
LWPOLYLINE
  5
15d
100
AcDbEntity
  8
Layer_1
 62
7
100
AcDbPolyline
 90
2
 70
0
 10
-289.146790
 20
-137.875820
 30
0.0
 10
-280.326790
 20
-137.875820
 30
0.0
  0
SPLINE
  5
15e
100
AcDbEntity
  8
Layer_1
 62
7
100
AcDbSpline
 70
8
 71
3
 72
8
 73
4
 74
0
 40
0
 40
0
 40
0
 40
0
 40
1
 40
1
 40
1
 40
1
 10
-289.146790
 20
-137.675820
 30
0.0
 10
-289.201790
 20
-137.675820
 30
0.0
 10
-289.246790
 20
-137.720820
 30
0.0
 10
-289.246790
 20
-137.775820
 30
0.0
  0
LWPOLYLINE
  5
15f
100
AcDbEntity
  8
Layer_1
 62
7
100
AcDbPolyline
 90
2
 70
0
 10
-280.326790
 20
-137.675820
 30
0.0
 10
-289.146790
 20
-137.675820
 30
0.0
  0
SPLINE
  5
160
100
AcDbEntity
  8
Layer_1
 62
7
100
AcDbSpline
 70
8
 71
3
 72
8
 73
4
 74
0
 40
0
 40
0
 40
0
 40
0
 40
1
 40
1
 40
1
 40
1
 10
-289.246790
 20
-151.495910
 30
0.0
 10
-289.246790
 20
-151.550910
 30
0.0
 10
-289.201790
 20
-151.595910
 30
0.0
 10
-289.146790
 20
-151.595910
 30
0.0
  0
LWPOLYLINE
  5
161
100
AcDbEntity
  8
Layer_1
 62
7
100
AcDbPolyline
 90
2
 70
0
 10
-289.246790
 20
-137.775820
 30
0.0
 10
-289.246790
 20
-151.495910
 30
0.0
  0
SPLINE
  5
162
100
AcDbEntity
  8
Layer_1
 62
7
100
AcDbSpline
 70
8
 71
3
 72
8
 73
4
 74
0
 40
0
 40
0
 40
0
 40
0
 40
1
 40
1
 40
1
 40
1
 10
-280.326790
 20
-151.595910
 30
0.0
 10
-280.344790
 20
-151.595910
 30
0.0
 10
-280.361790
 20
-151.585910
 30
0.0
 10
-280.376790
 20
-151.581910
 30
0.0
  0
SPLINE
  5
163
100
AcDbEntity
  8
Layer_1
 62
7
100
AcDbSpline
 70
8
 71
3
 72
8
 73
4
 74
0
 40
0
 40
0
 40
0
 40
0
 40
1
 40
1
 40
1
 40
1
 10
-280.376790
 20
-151.581910
 30
0.0
 10
-280.391790
 20
-151.571910
 30
0.0
 10
-280.404790
 20
-151.560910
 30
0.0
 10
-280.413790
 20
-151.545910
 30
0.0
  0
SPLINE
  5
164
100
AcDbEntity
  8
Layer_1
 62
7
100
AcDbSpline
 70
8
 71
3
 72
8
 73
4
 74
0
 40
0
 40
0
 40
0
 40
0
 40
1
 40
1
 40
1
 40
1
 10
-280.413790
 20
-151.545910
 30
0.0
 10
-280.421790
 20
-151.530910
 30
0.0
 10
-280.426790
 20
-151.512910
 30
0.0
 10
-280.426790
 20
-151.495910
 30
0.0
  0
SPLINE
  5
165
100
AcDbEntity
  8
Layer_1
 62
7
100
AcDbSpline
 70
8
 71
3
 72
8
 73
4
 74
0
 40
0
 40
0
 40
0
 40
0
 40
1
 40
1
 40
1
 40
1
 10
-280.426790
 20
-151.495910
 30
0.0
 10
-280.426790
 20
-151.477910
 30
0.0
 10
-280.421790
 20
-151.460910
 30
0.0
 10
-280.413790
 20
-151.445910
 30
0.0
  0
SPLINE
  5
166
100
AcDbEntity
  8
Layer_1
 62
7
100
AcDbSpline
 70
8
 71
3
 72
8
 73
4
 74
0
 40
0
 40
0
 40
0
 40
0
 40
1
 40
1
 40
1
 40
1
 10
-280.413790
 20
-151.445910
 30
0.0
 10
-280.404790
 20
-151.430910
 30
0.0
 10
-280.391790
 20
-151.417910
 30
0.0
 10
-280.376790
 20
-151.408910
 30
0.0
  0
SPLINE
  5
167
100
AcDbEntity
  8
Layer_1
 62
7
100
AcDbSpline
 70
8
 71
3
 72
8
 73
4
 74
0
 40
0
 40
0
 40
0
 40
0
 40
1
 40
1
 40
1
 40
1
 10
-280.376790
 20
-151.408910
 30
0.0
 10
-280.361790
 20
-151.398910
 30
0.0
 10
-280.344790
 20
-151.395910
 30
0.0
 10
-280.326790
 20
-151.395910
 30
0.0
  0
LWPOLYLINE
  5
168
100
AcDbEntity
  8
Layer_1
 62
7
100
AcDbPolyline
 90
2
 70
0
 10
-289.146790
 20
-151.595910
 30
0.0
 10
-280.326790
 20
-151.595910
 30
0.0
  0
SPLINE
  5
169
100
AcDbEntity
  8
Layer_1
 62
7
100
AcDbSpline
 70
8
 71
3
 72
8
 73
4
 74
0
 40
0
 40
0
 40
0
 40
0
 40
1
 40
1
 40
1
 40
1
 10
-289.146790
 20
-151.395910
 30
0.0
 10
-289.201790
 20
-151.395910
 30
0.0
 10
-289.246790
 20
-151.440910
 30
0.0
 10
-289.246790
 20
-151.495910
 30
0.0
  0
LWPOLYLINE
  5
16a
100
AcDbEntity
  8
Layer_1
 62
7
100
AcDbPolyline
 90
2
 70
0
 10
-280.326790
 20
-151.395910
 30
0.0
 10
-289.146790
 20
-151.395910
 30
0.0
  0
SPLINE
  5
16b
100
AcDbEntity
  8
Layer_1
 62
7
100
AcDbSpline
 70
8
 71
3
 72
8
 73
4
 74
0
 40
0
 40
0
 40
0
 40
0
 40
1
 40
1
 40
1
 40
1
 10
-289.246790
 20
-152.475910
 30
0.0
 10
-289.246790
 20
-152.836910
 30
0.0
 10
-289.151790
 20
-153.192920
 30
0.0
 10
-288.970790
 20
-153.505920
 30
0.0
  0
SPLINE
  5
16c
100
AcDbEntity
  8
Layer_1
 62
7
100
AcDbSpline
 70
8
 71
3
 72
8
 73
4
 74
0
 40
0
 40
0
 40
0
 40
0
 40
1
 40
1
 40
1
 40
1
 10
-288.970790
 20
-153.505920
 30
0.0
 10
-288.789790
 20
-153.818920
 30
0.0
 10
-288.529790
 20
-154.078920
 30
0.0
 10
-288.216790
 20
-154.259920
 30
0.0
  0
SPLINE
  5
16d
100
AcDbEntity
  8
Layer_1
 62
7
100
AcDbSpline
 70
8
 71
3
 72
8
 73
4
 74
0
 40
0
 40
0
 40
0
 40
0
 40
1
 40
1
 40
1
 40
1
 10
-288.216790
 20
-154.259920
 30
0.0
 10
-287.903790
 20
-154.440920
 30
0.0
 10
-287.548790
 20
-154.535930
 30
0.0
 10
-287.186790
 20
-154.535930
 30
0.0
  0
LWPOLYLINE
  5
16e
100
AcDbEntity
  8
Layer_1
 62
7
100
AcDbPolyline
 90
2
 70
0
 10
-289.246790
 20
-151.495910
 30
0.0
 10
-289.246790
 20
-152.475910
 30
0.0
  0
SPLINE
  5
16f
100
AcDbEntity
  8
Layer_1
 62
7
100
AcDbSpline
 70
8
 71
3
 72
8
 73
4
 74
0
 40
0
 40
0
 40
0
 40
0
 40
1
 40
1
 40
1
 40
1
 10
-279.446790
 20
-154.535930
 30
0.0
 10
-279.346790
 20
-154.535930
 30
0.0
 10
-279.446790
 20
-154.435920
 30
0.0
 10
-279.446790
 20
-154.535930
 30
0.0
  0
SPLINE
  5
170
100
AcDbEntity
  8
Layer_1
 62
7
100
AcDbSpline
 70
8
 71
3
 72
8
 73
4
 74
0
 40
0
 40
0
 40
0
 40
0
 40
1
 40
1
 40
1
 40
1
 10
-279.446790
 20
-164.135980
 30
0.0
 10
-279.446790
 20
-164.235980
 30
0.0
 10
-279.346790
 20
-164.135980
 30
0.0
 10
-279.446790
 20
-164.135980
 30
0.0
  0
SPLINE
  5
171
100
AcDbEntity
  8
Layer_1
 62
7
100
AcDbSpline
 70
8
 71
3
 72
8
 73
4
 74
0
 40
0
 40
0
 40
0
 40
0
 40
1
 40
1
 40
1
 40
1
 10
-287.186790
 20
-164.135980
 30
0.0
 10
-287.548790
 20
-164.135980
 30
0.0
 10
-287.903790
 20
-164.230980
 30
0.0
 10
-288.216790
 20
-164.411980
 30
0.0
  0
SPLINE
  5
172
100
AcDbEntity
  8
Layer_1
 62
7
100
AcDbSpline
 70
8
 71
3
 72
8
 73
4
 74
0
 40
0
 40
0
 40
0
 40
0
 40
1
 40
1
 40
1
 40
1
 10
-288.216790
 20
-164.411980
 30
0.0
 10
-288.529790
 20
-164.592990
 30
0.0
 10
-288.789790
 20
-164.852990
 30
0.0
 10
-288.970790
 20
-165.165990
 30
0.0
  0
SPLINE
  5
173
100
AcDbEntity
  8
Layer_1
 62
7
100
AcDbSpline
 70
8
 71
3
 72
8
 73
4
 74
0
 40
0
 40
0
 40
0
 40
0
 40
1
 40
1
 40
1
 40
1
 10
-288.970790
 20
-165.165990
 30
0.0
 10
-289.151790
 20
-165.478990
 30
0.0
 10
-289.246790
 20
-165.833990
 30
0.0
 10
-289.246790
 20
-166.195990
 30
0.0
  0
LWPOLYLINE
  5
174
100
AcDbEntity
  8
Layer_1
 62
7
100
AcDbPolyline
 90
4
 70
0
 10
-287.186790
 20
-154.535930
 30
0.0
 10
-279.446790
 20
-154.535930
 30
0.0
 10
-279.446790
 20
-164.135980
 30
0.0
 10
-287.186790
 20
-164.135980
 30
0.0
  0
SPLINE
  5
175
100
AcDbEntity
  8
Layer_1
 62
7
100
AcDbSpline
 70
8
 71
3
 72
8
 73
4
 74
0
 40
0
 40
0
 40
0
 40
0
 40
1
 40
1
 40
1
 40
1
 10
-289.246790
 20
-167.176000
 30
0.0
 10
-289.246790
 20
-167.231000
 30
0.0
 10
-289.201790
 20
-167.276000
 30
0.0
 10
-289.146790
 20
-167.276000
 30
0.0
  0
LWPOLYLINE
  5
176
100
AcDbEntity
  8
Layer_1
 62
7
100
AcDbPolyline
 90
2
 70
0
 10
-289.246790
 20
-166.195990
 30
0.0
 10
-289.246790
 20
-167.176000
 30
0.0
  0
SPLINE
  5
177
100
AcDbEntity
  8
Layer_1
 62
7
100
AcDbSpline
 70
8
 71
3
 72
8
 73
4
 74
0
 40
0
 40
0
 40
0
 40
0
 40
1
 40
1
 40
1
 40
1
 10
-280.326790
 20
-167.276000
 30
0.0
 10
-280.344790
 20
-167.276000
 30
0.0
 10
-280.361790
 20
-167.276000
 30
0.0
 10
-280.376790
 20
-167.262000
 30
0.0
  0
SPLINE
  5
178
100
AcDbEntity
  8
Layer_1
 62
7
100
AcDbSpline
 70
8
 71
3
 72
8
 73
4
 74
0
 40
0
 40
0
 40
0
 40
0
 40
1
 40
1
 40
1
 40
1
 10
-280.376790
 20
-167.262000
 30
0.0
 10
-280.391790
 20
-167.252000
 30
0.0
 10
-280.404790
 20
-167.241000
 30
0.0
 10
-280.413790
 20
-167.226000
 30
0.0
  0
SPLINE
  5
179
100
AcDbEntity
  8
Layer_1
 62
7
100
AcDbSpline
 70
8
 71
3
 72
8
 73
4
 74
0
 40
0
 40
0
 40
0
 40
0
 40
1
 40
1
 40
1
 40
1
 10
-280.413790
 20
-167.226000
 30
0.0
 10
-280.421790
 20
-167.211000
 30
0.0
 10
-280.426790
 20
-167.193000
 30
0.0
 10
-280.426790
 20
-167.176000
 30
0.0
  0
SPLINE
  5
17a
100
AcDbEntity
  8
Layer_1
 62
7
100
AcDbSpline
 70
8
 71
3
 72
8
 73
4
 74
0
 40
0
 40
0
 40
0
 40
0
 40
1
 40
1
 40
1
 40
1
 10
-280.426790
 20
-167.176000
 30
0.0
 10
-280.426790
 20
-167.158000
 30
0.0
 10
-280.421790
 20
-167.141000
 30
0.0
 10
-280.413790
 20
-167.126000
 30
0.0
  0
SPLINE
  5
17b
100
AcDbEntity
  8
Layer_1
 62
7
100
AcDbSpline
 70
8
 71
3
 72
8
 73
4
 74
0
 40
0
 40
0
 40
0
 40
0
 40
1
 40
1
 40
1
 40
1
 10
-280.413790
 20
-167.126000
 30
0.0
 10
-280.404790
 20
-167.111000
 30
0.0
 10
-280.391790
 20
-167.098000
 30
0.0
 10
-280.376790
 20
-167.089000
 30
0.0
  0
SPLINE
  5
17c
100
AcDbEntity
  8
Layer_1
 62
7
100
AcDbSpline
 70
8
 71
3
 72
8
 73
4
 74
0
 40
0
 40
0
 40
0
 40
0
 40
1
 40
1
 40
1
 40
1
 10
-280.376790
 20
-167.089000
 30
0.0
 10
-280.361790
 20
-167.079000
 30
0.0
 10
-280.344790
 20
-167.076000
 30
0.0
 10
-280.326790
 20
-167.076000
 30
0.0
  0
LWPOLYLINE
  5
17d
100
AcDbEntity
  8
Layer_1
 62
7
100
AcDbPolyline
 90
2
 70
0
 10
-289.146790
 20
-167.276000
 30
0.0
 10
-280.326790
 20
-167.276000
 30
0.0
  0
SPLINE
  5
17e
100
AcDbEntity
  8
Layer_1
 62
7
100
AcDbSpline
 70
8
 71
3
 72
8
 73
4
 74
0
 40
0
 40
0
 40
0
 40
0
 40
1
 40
1
 40
1
 40
1
 10
-289.146790
 20
-167.076000
 30
0.0
 10
-289.201790
 20
-167.076000
 30
0.0
 10
-289.246790
 20
-167.121000
 30
0.0
 10
-289.246790
 20
-167.176000
 30
0.0
  0
LWPOLYLINE
  5
17f
100
AcDbEntity
  8
Layer_1
 62
7
100
AcDbPolyline
 90
2
 70
0
 10
-280.326790
 20
-167.076000
 30
0.0
 10
-289.146790
 20
-167.076000
 30
0.0
  0
SPLINE
  5
180
100
AcDbEntity
  8
Layer_1
 62
7
100
AcDbSpline
 70
8
 71
3
 72
8
 73
4
 74
0
 40
0
 40
0
 40
0
 40
0
 40
1
 40
1
 40
1
 40
1
 10
-289.246790
 20
-180.896080
 30
0.0
 10
-289.246790
 20
-180.951080
 30
0.0
 10
-289.201790
 20
-180.996080
 30
0.0
 10
-289.146790
 20
-180.996080
 30
0.0
  0
LWPOLYLINE
  5
181
100
AcDbEntity
  8
Layer_1
 62
7
100
AcDbPolyline
 90
2
 70
0
 10
-289.246790
 20
-167.176000
 30
0.0
 10
-289.246790
 20
-180.896080
 30
0.0
  0
SPLINE
  5
182
100
AcDbEntity
  8
Layer_1
 62
7
100
AcDbSpline
 70
8
 71
3
 72
8
 73
4
 74
0
 40
0
 40
0
 40
0
 40
0
 40
1
 40
1
 40
1
 40
1
 10
-280.326790
 20
-180.996080
 30
0.0
 10
-280.344790
 20
-180.996080
 30
0.0
 10
-280.361790
 20
-180.996080
 30
0.0
 10
-280.376790
 20
-180.982080
 30
0.0
  0
SPLINE
  5
183
100
AcDbEntity
  8
Layer_1
 62
7
100
AcDbSpline
 70
8
 71
3
 72
8
 73
4
 74
0
 40
0
 40
0
 40
0
 40
0
 40
1
 40
1
 40
1
 40
1
 10
-280.376790
 20
-180.982080
 30
0.0
 10
-280.391790
 20
-180.972080
 30
0.0
 10
-280.404790
 20
-180.961080
 30
0.0
 10
-280.413790
 20
-180.946080
 30
0.0
  0
SPLINE
  5
184
100
AcDbEntity
  8
Layer_1
 62
7
100
AcDbSpline
 70
8
 71
3
 72
8
 73
4
 74
0
 40
0
 40
0
 40
0
 40
0
 40
1
 40
1
 40
1
 40
1
 10
-280.413790
 20
-180.946080
 30
0.0
 10
-280.421790
 20
-180.931080
 30
0.0
 10
-280.426790
 20
-180.913080
 30
0.0
 10
-280.426790
 20
-180.896080
 30
0.0
  0
SPLINE
  5
185
100
AcDbEntity
  8
Layer_1
 62
7
100
AcDbSpline
 70
8
 71
3
 72
8
 73
4
 74
0
 40
0
 40
0
 40
0
 40
0
 40
1
 40
1
 40
1
 40
1
 10
-280.426790
 20
-180.896080
 30
0.0
 10
-280.426790
 20
-180.878080
 30
0.0
 10
-280.421790
 20
-180.861080
 30
0.0
 10
-280.413790
 20
-180.846080
 30
0.0
  0
SPLINE
  5
186
100
AcDbEntity
  8
Layer_1
 62
7
100
AcDbSpline
 70
8
 71
3
 72
8
 73
4
 74
0
 40
0
 40
0
 40
0
 40
0
 40
1
 40
1
 40
1
 40
1
 10
-280.413790
 20
-180.846080
 30
0.0
 10
-280.404790
 20
-180.831080
 30
0.0
 10
-280.391790
 20
-180.818080
 30
0.0
 10
-280.376790
 20
-180.809080
 30
0.0
  0
SPLINE
  5
187
100
AcDbEntity
  8
Layer_1
 62
7
100
AcDbSpline
 70
8
 71
3
 72
8
 73
4
 74
0
 40
0
 40
0
 40
0
 40
0
 40
1
 40
1
 40
1
 40
1
 10
-280.376790
 20
-180.809080
 30
0.0
 10
-280.361790
 20
-180.799080
 30
0.0
 10
-280.344790
 20
-180.796080
 30
0.0
 10
-280.326790
 20
-180.796080
 30
0.0
  0
LWPOLYLINE
  5
188
100
AcDbEntity
  8
Layer_1
 62
7
100
AcDbPolyline
 90
2
 70
0
 10
-289.146790
 20
-180.996080
 30
0.0
 10
-280.326790
 20
-180.996080
 30
0.0
  0
SPLINE
  5
189
100
AcDbEntity
  8
Layer_1
 62
7
100
AcDbSpline
 70
8
 71
3
 72
8
 73
4
 74
0
 40
0
 40
0
 40
0
 40
0
 40
1
 40
1
 40
1
 40
1
 10
-289.146790
 20
-180.796080
 30
0.0
 10
-289.201790
 20
-180.796080
 30
0.0
 10
-289.246790
 20
-180.841080
 30
0.0
 10
-289.246790
 20
-180.896080
 30
0.0
  0
LWPOLYLINE
  5
18a
100
AcDbEntity
  8
Layer_1
 62
7
100
AcDbPolyline
 90
2
 70
0
 10
-280.326790
 20
-180.796080
 30
0.0
 10
-289.146790
 20
-180.796080
 30
0.0
  0
SPLINE
  5
18b
100
AcDbEntity
  8
Layer_1
 62
7
100
AcDbSpline
 70
8
 71
3
 72
8
 73
4
 74
0
 40
0
 40
0
 40
0
 40
0
 40
1
 40
1
 40
1
 40
1
 10
-289.246790
 20
-181.876090
 30
0.0
 10
-289.246790
 20
-182.237090
 30
0.0
 10
-289.151790
 20
-182.593090
 30
0.0
 10
-288.970790
 20
-182.906100
 30
0.0
  0
SPLINE
  5
18c
100
AcDbEntity
  8
Layer_1
 62
7
100
AcDbSpline
 70
8
 71
3
 72
8
 73
4
 74
0
 40
0
 40
0
 40
0
 40
0
 40
1
 40
1
 40
1
 40
1
 10
-288.970790
 20
-182.906100
 30
0.0
 10
-288.789790
 20
-183.219100
 30
0.0
 10
-288.529790
 20
-183.479100
 30
0.0
 10
-288.216790
 20
-183.660100
 30
0.0
  0
SPLINE
  5
18d
100
AcDbEntity
  8
Layer_1
 62
7
100
AcDbSpline
 70
8
 71
3
 72
8
 73
4
 74
0
 40
0
 40
0
 40
0
 40
0
 40
1
 40
1
 40
1
 40
1
 10
-288.216790
 20
-183.660100
 30
0.0
 10
-287.903790
 20
-183.841100
 30
0.0
 10
-287.548790
 20
-183.936100
 30
0.0
 10
-287.186790
 20
-183.936100
 30
0.0
  0
LWPOLYLINE
  5
18e
100
AcDbEntity
  8
Layer_1
 62
7
100
AcDbPolyline
 90
2
 70
0
 10
-289.246790
 20
-180.896080
 30
0.0
 10
-289.246790
 20
-181.876090
 30
0.0
  0
SPLINE
  5
18f
100
AcDbEntity
  8
Layer_1
 62
7
100
AcDbSpline
 70
8
 71
3
 72
8
 73
4
 74
0
 40
0
 40
0
 40
0
 40
0
 40
1
 40
1
 40
1
 40
1
 10
-279.446790
 20
-183.936100
 30
0.0
 10
-279.346790
 20
-183.936100
 30
0.0
 10
-279.446790
 20
-183.836100
 30
0.0
 10
-279.446790
 20
-183.936100
 30
0.0
  0
SPLINE
  5
190
100
AcDbEntity
  8
Layer_1
 62
7
100
AcDbSpline
 70
8
 71
3
 72
8
 73
4
 74
0
 40
0
 40
0
 40
0
 40
0
 40
1
 40
1
 40
1
 40
1
 10
-279.446790
 20
-183.936100
 30
0.0
 10
-263.895520
 20
-181.862390
 30
0.0
 10
-250.472840
 20
-135.888680
 30
0.0
 10
-240.705010
 20
-128.415540
 30
0.0
  0
LWPOLYLINE
  5
191
100
AcDbEntity
  8
Layer_1
 62
7
100
AcDbPolyline
 90
2
 70
0
 10
-287.186790
 20
-183.936100
 30
0.0
 10
-279.446790
 20
-183.936100
 30
0.0
  0
LWPOLYLINE
  5
192
100
AcDbEntity
  8
Layer_1
 62
7
100
AcDbPolyline
 90
1
 70
1
 10
-240.705010
 20
-128.415540
 30
0.0
  0
ENDSEC
  0
SECTION
  2
OBJECTS
  0
DICTIONARY
  5
C
330
0
100
AcDbDictionary
  3
ACAD_GROUP
350
D
  3
ACAD_MLINESTYLE
350
17
  0
DICTIONARY
  5
D
330
C
100
AcDbDictionary
  0
DICTIONARY
  5
1A
330
C
100
AcDbDictionary
  0
DICTIONARY
  5
17
330
C
100
AcDbDictionary
  3
STANDARD
350
18
  0
DICTIONARY
  5
19
330
C
100
AcDbDictionary
  0
ENDSEC
  0
EOF
