  0
SECTION
  2
HEADER
  9
$ACADVER
  1
AC1014
  9
$HANDSEED
  5
FFFF
  9
$MEASUREMENT
 70
     1
  0
ENDSEC
  0
SECTION
  2
TABLES
  0
TABLE
  2
VPORT
  5
8
330
0
100
AcDbSymbolTable
 70
     4
  0
VPORT
  5
2E
330
8
100
AcDbSymbolTableRecord
100
AcDbViewportTableRecord
  2
*ACTIVE
 70
     0
 10
0.0
 20
0.0
 11
1.0
 21
1.0
 12
210.0
 22
148.5
 13
0.0
 23
0.0
 14
10.0
 24
10.0
 15
10.0
 25
10.0
 16
0.0
 26
0.0
 36
1.0
 17
0.0
 27
0.0
 37
0.0
 40
341.0
 41
1.24
 42
50.0
 43
0.0
 44
0.0
 50
0.0
 51
0.0
 71
     0
 72
   100
 73
     1
 74
     3
 75
     0
 76
     0
 77
     0
 78
     0
  0
ENDTAB
  0
TABLE
  2
LTYPE
  5
5
330
0
100
AcDbSymbolTable
 70
     1
  0
LTYPE
  5
14
330
5
100
AcDbSymbolTableRecord
100
AcDbLinetypeTableRecord
  2
BYBLOCK
 70
     0
  3

 72
    65
 73
     0
 40
0.0
  0
LTYPE
  5
15
330
5
100
AcDbSymbolTableRecord
100
AcDbLinetypeTableRecord
  2
BYLAYER
 70
     0
  3

 72
    65
 73
     0
 40
0.0
  0
LTYPE
  5
16
330
5
100
AcDbSymbolTableRecord
100
AcDbLinetypeTableRecord
  2
CONTINUOUS
 70
     0
  3
Solid line
 72
    65
 73
     0
 40
0.0
  0
ENDTAB
  0
TABLE
  2
LAYER
  5
2
100
AcDbSymbolTable
 70
2
  0
LAYER
  5
50
100
AcDbSymbolTableRecord
100
AcDbLayerTableRecord
  2
0
 70
0
  6
CONTINUOUS
  0
LAYER
  5
51
100
AcDbSymbolTableRecord
100
AcDbLayerTableRecord
  2
Layer_1
 70
0
  6
CONTINUOUS
  0
ENDTAB
  0
TABLE
  2
STYLE
  5
3
330
0
100
AcDbSymbolTable
 70
     1
  0
STYLE
  5
11
330
3
100
AcDbSymbolTableRecord
100
AcDbTextStyleTableRecord
  2
STANDARD
 70
     0
 40
0.0
 41
1.0
 50
0.0
 71
     0
 42
2.5
  3
txt
  4

  0
ENDTAB
  0
TABLE
  2
VIEW
  5
6
330
0
100
AcDbSymbolTable
 70
     0
  0
ENDTAB
  0
TABLE
  2
UCS
  5
7
330
0
100
AcDbSymbolTable
 70
     0
  0
ENDTAB
  0
TABLE
  2
APPID
  5
9
330
0
100
AcDbSymbolTable
 70
     2
  0
APPID
  5
12
330
9
100
AcDbSymbolTableRecord
100
AcDbRegAppTableRecord
  2
ACAD
 70
     0
  0
ENDTAB
  0
TABLE
  2
DIMSTYLE
  5
A
330
0
100
AcDbSymbolTable
 70
     1
  0
DIMSTYLE
105
27
330
A
100
AcDbSymbolTableRecord
100
AcDbDimStyleTableRecord
  2
ISO-25
 70
     0
  3

  4

  5

  6

  7

 40
1.0
 41
2.5
 42
0.625
 43
3.75
 44
1.25
 45
0.0
 46
0.0
 47
0.0
 48
0.0
140
2.5
141
2.5
142
0.0
143
0.03937007874016
144
1.0
145
0.0
146
1.0
147
0.625
 71
     0
 72
     0
 73
     0
 74
     0
 75
     0
 76
     0
 77
     1
 78
     8
170
     0
171
     3
172
     1
173
     0
174
     0
175
     0
176
     0
177
     0
178
     0
270
     2
271
     2
272
     2
273
     2
274
     3
340
11
275
     0
280
     0
281
     0
282
     0
283
     0
284
     8
285
     0
286
     0
287
     3
288
     0
  0
ENDTAB
  0
TABLE
  2
BLOCK_RECORD
  5
1
330
0
100
AcDbSymbolTable
 70
     1
  0
BLOCK_RECORD
  5
1F
330
1
100
AcDbSymbolTableRecord
100
AcDbBlockTableRecord
  2
*MODEL_SPACE
  0
BLOCK_RECORD
  5
1B
330
1
100
AcDbSymbolTableRecord
100
AcDbBlockTableRecord
  2
*PAPER_SPACE
  0
ENDTAB
  0
ENDSEC
  0
SECTION
  2
BLOCKS
  0
BLOCK
  5
20
330
1F
100
AcDbEntity
  8
0
100
AcDbBlockBegin
  2
*MODEL_SPACE
 70
     0
 10
0.0
 20
0.0
 30
0.0
  3
*MODEL_SPACE
  1

  0
ENDBLK
  5
21
330
1F
100
AcDbEntity
  8
0
100
AcDbBlockEnd
  0
BLOCK
  5
1C
330
1B
100
AcDbEntity
 67
     1
  8
0
100
AcDbBlockBegin
  2
*PAPER_SPACE
  1

  0
ENDBLK
  5
1D
330
1B
100
AcDbEntity
 67
     1
  8
0
100
AcDbBlockEnd
  0
ENDSEC
  0
SECTION
  2
ENTITIES
  0
SPLINE
  5
100
100
AcDbEntity
  8
Layer_1
 62
7
100
AcDbSpline
 70
8
 71
3
 72
8
 73
4
 74
0
 40
0
 40
0
 40
0
 40
0
 40
1
 40
1
 40
1
 40
1
 10
78.786000
 20
1981.730000
 30
0.0
 10
78.686000
 20
1981.730000
 30
0.0
 10
78.786000
 20
1981.630000
 30
0.0
 10
78.786000
 20
1981.730000
 30
0.0
  0
SPLINE
  5
101
100
AcDbEntity
  8
Layer_1
 62
7
100
AcDbSpline
 70
8
 71
3
 72
8
 73
4
 74
0
 40
0
 40
0
 40
0
 40
0
 40
1
 40
1
 40
1
 40
1
 10
78.786000
 20
1991.430200
 30
0.0
 10
78.786000
 20
1991.530200
 30
0.0
 10
78.686000
 20
1991.430200
 30
0.0
 10
78.786000
 20
1991.430200
 30
0.0
  0
SPLINE
  5
102
100
AcDbEntity
  8
Layer_1
 62
7
100
AcDbSpline
 70
8
 71
3
 72
8
 73
4
 74
0
 40
0
 40
0
 40
0
 40
0
 40
1
 40
1
 40
1
 40
1
 10
98.386000
 20
1991.430200
 30
0.0
 10
98.486000
 20
1991.430200
 30
0.0
 10
98.386000
 20
1991.530200
 30
0.0
 10
98.386000
 20
1991.430200
 30
0.0
  0
SPLINE
  5
103
100
AcDbEntity
  8
Layer_1
 62
7
100
AcDbSpline
 70
8
 71
3
 72
8
 73
4
 74
0
 40
0
 40
0
 40
0
 40
0
 40
1
 40
1
 40
1
 40
1
 10
98.386000
 20
1981.730000
 30
0.0
 10
98.386000
 20
1981.630000
 30
0.0
 10
98.486000
 20
1981.730000
 30
0.0
 10
98.386000
 20
1981.730000
 30
0.0
  0
LWPOLYLINE
  5
104
100
AcDbEntity
  8
Layer_1
 62
7
100
AcDbPolyline
 90
5
 70
1
 10
88.586000
 20
1981.730000
 30
0.0
 10
78.786000
 20
1981.730000
 30
0.0
 10
78.786000
 20
1991.430200
 30
0.0
 10
98.386000
 20
1991.430200
 30
0.0
 10
98.386000
 20
1981.730000
 30
0.0
  0
SPLINE
  5
105
100
AcDbEntity
  8
Layer_1
 62
7
100
AcDbSpline
 70
8
 71
3
 72
8
 73
4
 74
0
 40
0
 40
0
 40
0
 40
0
 40
1
 40
1
 40
1
 40
1
 10
108.486000
 20
1981.730000
 30
0.0
 10
108.386000
 20
1981.730000
 30
0.0
 10
108.486000
 20
1981.630000
 30
0.0
 10
108.486000
 20
1981.730000
 30
0.0
  0
SPLINE
  5
106
100
AcDbEntity
  8
Layer_1
 62
7
100
AcDbSpline
 70
8
 71
3
 72
8
 73
4
 74
0
 40
0
 40
0
 40
0
 40
0
 40
1
 40
1
 40
1
 40
1
 10
108.486000
 20
1991.430200
 30
0.0
 10
108.486000
 20
1991.530200
 30
0.0
 10
108.386000
 20
1991.430200
 30
0.0
 10
108.486000
 20
1991.430200
 30
0.0
  0
SPLINE
  5
107
100
AcDbEntity
  8
Layer_1
 62
7
100
AcDbSpline
 70
8
 71
3
 72
8
 73
4
 74
0
 40
0
 40
0
 40
0
 40
0
 40
1
 40
1
 40
1
 40
1
 10
128.086000
 20
1991.430200
 30
0.0
 10
128.186000
 20
1991.430200
 30
0.0
 10
128.086000
 20
1991.530200
 30
0.0
 10
128.086000
 20
1991.430200
 30
0.0
  0
SPLINE
  5
108
100
AcDbEntity
  8
Layer_1
 62
7
100
AcDbSpline
 70
8
 71
3
 72
8
 73
4
 74
0
 40
0
 40
0
 40
0
 40
0
 40
1
 40
1
 40
1
 40
1
 10
128.086000
 20
1981.730000
 30
0.0
 10
128.086000
 20
1981.630000
 30
0.0
 10
128.186000
 20
1981.730000
 30
0.0
 10
128.086000
 20
1981.730000
 30
0.0
  0
LWPOLYLINE
  5
109
100
AcDbEntity
  8
Layer_1
 62
7
100
AcDbPolyline
 90
5
 70
1
 10
118.286000
 20
1981.730000
 30
0.0
 10
108.486000
 20
1981.730000
 30
0.0
 10
108.486000
 20
1991.430200
 30
0.0
 10
128.086000
 20
1991.430200
 30
0.0
 10
128.086000
 20
1981.730000
 30
0.0
  0
SPLINE
  5
10a
100
AcDbEntity
  8
Layer_1
 62
7
100
AcDbSpline
 70
8
 71
3
 72
8
 73
4
 74
0
 40
0
 40
0
 40
0
 40
0
 40
1
 40
1
 40
1
 40
1
 10
138.186000
 20
1981.730000
 30
0.0
 10
138.086000
 20
1981.730000
 30
0.0
 10
138.186000
 20
1981.630000
 30
0.0
 10
138.186000
 20
1981.730000
 30
0.0
  0
SPLINE
  5
10b
100
AcDbEntity
  8
Layer_1
 62
7
100
AcDbSpline
 70
8
 71
3
 72
8
 73
4
 74
0
 40
0
 40
0
 40
0
 40
0
 40
1
 40
1
 40
1
 40
1
 10
138.186000
 20
1991.430200
 30
0.0
 10
138.186000
 20
1991.530200
 30
0.0
 10
138.086000
 20
1991.430200
 30
0.0
 10
138.186000
 20
1991.430200
 30
0.0
  0
SPLINE
  5
10c
100
AcDbEntity
  8
Layer_1
 62
7
100
AcDbSpline
 70
8
 71
3
 72
8
 73
4
 74
0
 40
0
 40
0
 40
0
 40
0
 40
1
 40
1
 40
1
 40
1
 10
157.786000
 20
1991.430200
 30
0.0
 10
157.886000
 20
1991.430200
 30
0.0
 10
157.786000
 20
1991.530200
 30
0.0
 10
157.786000
 20
1991.430200
 30
0.0
  0
SPLINE
  5
10d
100
AcDbEntity
  8
Layer_1
 62
7
100
AcDbSpline
 70
8
 71
3
 72
8
 73
4
 74
0
 40
0
 40
0
 40
0
 40
0
 40
1
 40
1
 40
1
 40
1
 10
157.786000
 20
1981.730000
 30
0.0
 10
157.786000
 20
1981.630000
 30
0.0
 10
157.886000
 20
1981.730000
 30
0.0
 10
157.786000
 20
1981.730000
 30
0.0
  0
LWPOLYLINE
  5
10e
100
AcDbEntity
  8
Layer_1
 62
7
100
AcDbPolyline
 90
5
 70
1
 10
147.986000
 20
1981.730000
 30
0.0
 10
138.186000
 20
1981.730000
 30
0.0
 10
138.186000
 20
1991.430200
 30
0.0
 10
157.786000
 20
1991.430200
 30
0.0
 10
157.786000
 20
1981.730000
 30
0.0
  0
SPLINE
  5
10f
100
AcDbEntity
  8
Layer_1
 62
7
100
AcDbSpline
 70
8
 71
3
 72
8
 73
4
 74
0
 40
0
 40
0
 40
0
 40
0
 40
1
 40
1
 40
1
 40
1
 10
167.886000
 20
1981.730000
 30
0.0
 10
167.786000
 20
1981.730000
 30
0.0
 10
167.886000
 20
1981.630000
 30
0.0
 10
167.886000
 20
1981.730000
 30
0.0
  0
SPLINE
  5
110
100
AcDbEntity
  8
Layer_1
 62
7
100
AcDbSpline
 70
8
 71
3
 72
8
 73
4
 74
0
 40
0
 40
0
 40
0
 40
0
 40
1
 40
1
 40
1
 40
1
 10
167.886000
 20
1991.430200
 30
0.0
 10
167.886000
 20
1991.530200
 30
0.0
 10
167.786000
 20
1991.430200
 30
0.0
 10
167.886000
 20
1991.430200
 30
0.0
  0
SPLINE
  5
111
100
AcDbEntity
  8
Layer_1
 62
7
100
AcDbSpline
 70
8
 71
3
 72
8
 73
4
 74
0
 40
0
 40
0
 40
0
 40
0
 40
1
 40
1
 40
1
 40
1
 10
187.486000
 20
1991.430200
 30
0.0
 10
187.586000
 20
1991.430200
 30
0.0
 10
187.486000
 20
1991.530200
 30
0.0
 10
187.486000
 20
1991.430200
 30
0.0
  0
SPLINE
  5
112
100
AcDbEntity
  8
Layer_1
 62
7
100
AcDbSpline
 70
8
 71
3
 72
8
 73
4
 74
0
 40
0
 40
0
 40
0
 40
0
 40
1
 40
1
 40
1
 40
1
 10
187.486000
 20
1981.730000
 30
0.0
 10
187.486000
 20
1981.630000
 30
0.0
 10
187.586000
 20
1981.730000
 30
0.0
 10
187.486000
 20
1981.730000
 30
0.0
  0
LWPOLYLINE
  5
113
100
AcDbEntity
  8
Layer_1
 62
7
100
AcDbPolyline
 90
5
 70
1
 10
177.686000
 20
1981.730000
 30
0.0
 10
167.886000
 20
1981.730000
 30
0.0
 10
167.886000
 20
1991.430200
 30
0.0
 10
187.486000
 20
1991.430200
 30
0.0
 10
187.486000
 20
1981.730000
 30
0.0
  0
SPLINE
  5
114
100
AcDbEntity
  8
Layer_1
 62
7
100
AcDbSpline
 70
8
 71
3
 72
8
 73
4
 74
0
 40
0
 40
0
 40
0
 40
0
 40
1
 40
1
 40
1
 40
1
 10
197.586000
 20
1981.730000
 30
0.0
 10
197.486000
 20
1981.730000
 30
0.0
 10
197.586000
 20
1981.630000
 30
0.0
 10
197.586000
 20
1981.730000
 30
0.0
  0
SPLINE
  5
115
100
AcDbEntity
  8
Layer_1
 62
7
100
AcDbSpline
 70
8
 71
3
 72
8
 73
4
 74
0
 40
0
 40
0
 40
0
 40
0
 40
1
 40
1
 40
1
 40
1
 10
197.586000
 20
1991.430200
 30
0.0
 10
197.586000
 20
1991.530200
 30
0.0
 10
197.486000
 20
1991.430200
 30
0.0
 10
197.586000
 20
1991.430200
 30
0.0
  0
SPLINE
  5
116
100
AcDbEntity
  8
Layer_1
 62
7
100
AcDbSpline
 70
8
 71
3
 72
8
 73
4
 74
0
 40
0
 40
0
 40
0
 40
0
 40
1
 40
1
 40
1
 40
1
 10
217.186000
 20
1991.430200
 30
0.0
 10
217.286000
 20
1991.430200
 30
0.0
 10
217.186000
 20
1991.530200
 30
0.0
 10
217.186000
 20
1991.430200
 30
0.0
  0
SPLINE
  5
117
100
AcDbEntity
  8
Layer_1
 62
7
100
AcDbSpline
 70
8
 71
3
 72
8
 73
4
 74
0
 40
0
 40
0
 40
0
 40
0
 40
1
 40
1
 40
1
 40
1
 10
217.186000
 20
1981.730000
 30
0.0
 10
217.186000
 20
1981.630000
 30
0.0
 10
217.286000
 20
1981.730000
 30
0.0
 10
217.186000
 20
1981.730000
 30
0.0
  0
LWPOLYLINE
  5
118
100
AcDbEntity
  8
Layer_1
 62
7
100
AcDbPolyline
 90
5
 70
1
 10
207.386000
 20
1981.730000
 30
0.0
 10
197.586000
 20
1981.730000
 30
0.0
 10
197.586000
 20
1991.430200
 30
0.0
 10
217.186000
 20
1991.430200
 30
0.0
 10
217.186000
 20
1981.730000
 30
0.0
  0
SPLINE
  5
119
100
AcDbEntity
  8
Layer_1
 62
7
100
AcDbSpline
 70
8
 71
3
 72
8
 73
4
 74
0
 40
0
 40
0
 40
0
 40
0
 40
1
 40
1
 40
1
 40
1
 10
227.286000
 20
1981.730000
 30
0.0
 10
227.186000
 20
1981.730000
 30
0.0
 10
227.286000
 20
1981.630000
 30
0.0
 10
227.286000
 20
1981.730000
 30
0.0
  0
SPLINE
  5
11a
100
AcDbEntity
  8
Layer_1
 62
7
100
AcDbSpline
 70
8
 71
3
 72
8
 73
4
 74
0
 40
0
 40
0
 40
0
 40
0
 40
1
 40
1
 40
1
 40
1
 10
227.286000
 20
1991.430200
 30
0.0
 10
227.286000
 20
1991.530200
 30
0.0
 10
227.186000
 20
1991.430200
 30
0.0
 10
227.286000
 20
1991.430200
 30
0.0
  0
SPLINE
  5
11b
100
AcDbEntity
  8
Layer_1
 62
7
100
AcDbSpline
 70
8
 71
3
 72
8
 73
4
 74
0
 40
0
 40
0
 40
0
 40
0
 40
1
 40
1
 40
1
 40
1
 10
246.886000
 20
1991.430200
 30
0.0
 10
246.986000
 20
1991.430200
 30
0.0
 10
246.886000
 20
1991.530200
 30
0.0
 10
246.886000
 20
1991.430200
 30
0.0
  0
SPLINE
  5
11c
100
AcDbEntity
  8
Layer_1
 62
7
100
AcDbSpline
 70
8
 71
3
 72
8
 73
4
 74
0
 40
0
 40
0
 40
0
 40
0
 40
1
 40
1
 40
1
 40
1
 10
246.886000
 20
1981.730000
 30
0.0
 10
246.886000
 20
1981.630000
 30
0.0
 10
246.986000
 20
1981.730000
 30
0.0
 10
246.886000
 20
1981.730000
 30
0.0
  0
LWPOLYLINE
  5
11d
100
AcDbEntity
  8
Layer_1
 62
7
100
AcDbPolyline
 90
5
 70
1
 10
237.086000
 20
1981.730000
 30
0.0
 10
227.286000
 20
1981.730000
 30
0.0
 10
227.286000
 20
1991.430200
 30
0.0
 10
246.886000
 20
1991.430200
 30
0.0
 10
246.886000
 20
1981.730000
 30
0.0
  0
SPLINE
  5
11e
100
AcDbEntity
  8
Layer_1
 62
7
100
AcDbSpline
 70
8
 71
3
 72
8
 73
4
 74
0
 40
0
 40
0
 40
0
 40
0
 40
1
 40
1
 40
1
 40
1
 10
256.986000
 20
1981.730000
 30
0.0
 10
256.886000
 20
1981.730000
 30
0.0
 10
256.986000
 20
1981.630000
 30
0.0
 10
256.986000
 20
1981.730000
 30
0.0
  0
SPLINE
  5
11f
100
AcDbEntity
  8
Layer_1
 62
7
100
AcDbSpline
 70
8
 71
3
 72
8
 73
4
 74
0
 40
0
 40
0
 40
0
 40
0
 40
1
 40
1
 40
1
 40
1
 10
256.986000
 20
1991.430200
 30
0.0
 10
256.986000
 20
1991.530200
 30
0.0
 10
256.886000
 20
1991.430200
 30
0.0
 10
256.986000
 20
1991.430200
 30
0.0
  0
SPLINE
  5
120
100
AcDbEntity
  8
Layer_1
 62
7
100
AcDbSpline
 70
8
 71
3
 72
8
 73
4
 74
0
 40
0
 40
0
 40
0
 40
0
 40
1
 40
1
 40
1
 40
1
 10
276.586000
 20
1991.430200
 30
0.0
 10
276.686000
 20
1991.430200
 30
0.0
 10
276.586000
 20
1991.530200
 30
0.0
 10
276.586000
 20
1991.430200
 30
0.0
  0
SPLINE
  5
121
100
AcDbEntity
  8
Layer_1
 62
7
100
AcDbSpline
 70
8
 71
3
 72
8
 73
4
 74
0
 40
0
 40
0
 40
0
 40
0
 40
1
 40
1
 40
1
 40
1
 10
276.586000
 20
1981.730000
 30
0.0
 10
276.586000
 20
1981.630000
 30
0.0
 10
276.686000
 20
1981.730000
 30
0.0
 10
276.586000
 20
1981.730000
 30
0.0
  0
LWPOLYLINE
  5
122
100
AcDbEntity
  8
Layer_1
 62
7
100
AcDbPolyline
 90
5
 70
1
 10
266.786000
 20
1981.730000
 30
0.0
 10
256.986000
 20
1981.730000
 30
0.0
 10
256.986000
 20
1991.430200
 30
0.0
 10
276.586000
 20
1991.430200
 30
0.0
 10
276.586000
 20
1981.730000
 30
0.0
  0
SPLINE
  5
123
100
AcDbEntity
  8
Layer_1
 62
7
100
AcDbSpline
 70
8
 71
3
 72
8
 73
4
 74
0
 40
0
 40
0
 40
0
 40
0
 40
1
 40
1
 40
1
 40
1
 10
286.686000
 20
1981.730000
 30
0.0
 10
286.586000
 20
1981.730000
 30
0.0
 10
286.686000
 20
1981.630000
 30
0.0
 10
286.686000
 20
1981.730000
 30
0.0
  0
SPLINE
  5
124
100
AcDbEntity
  8
Layer_1
 62
7
100
AcDbSpline
 70
8
 71
3
 72
8
 73
4
 74
0
 40
0
 40
0
 40
0
 40
0
 40
1
 40
1
 40
1
 40
1
 10
286.686000
 20
1991.430200
 30
0.0
 10
286.686000
 20
1991.530200
 30
0.0
 10
286.586000
 20
1991.430200
 30
0.0
 10
286.686000
 20
1991.430200
 30
0.0
  0
SPLINE
  5
125
100
AcDbEntity
  8
Layer_1
 62
7
100
AcDbSpline
 70
8
 71
3
 72
8
 73
4
 74
0
 40
0
 40
0
 40
0
 40
0
 40
1
 40
1
 40
1
 40
1
 10
306.286000
 20
1991.430200
 30
0.0
 10
306.386000
 20
1991.430200
 30
0.0
 10
306.286000
 20
1991.530200
 30
0.0
 10
306.286000
 20
1991.430200
 30
0.0
  0
SPLINE
  5
126
100
AcDbEntity
  8
Layer_1
 62
7
100
AcDbSpline
 70
8
 71
3
 72
8
 73
4
 74
0
 40
0
 40
0
 40
0
 40
0
 40
1
 40
1
 40
1
 40
1
 10
306.286000
 20
1981.730000
 30
0.0
 10
306.286000
 20
1981.630000
 30
0.0
 10
306.386000
 20
1981.730000
 30
0.0
 10
306.286000
 20
1981.730000
 30
0.0
  0
LWPOLYLINE
  5
127
100
AcDbEntity
  8
Layer_1
 62
7
100
AcDbPolyline
 90
5
 70
1
 10
296.486000
 20
1981.730000
 30
0.0
 10
286.686000
 20
1981.730000
 30
0.0
 10
286.686000
 20
1991.430200
 30
0.0
 10
306.286000
 20
1991.430200
 30
0.0
 10
306.286000
 20
1981.730000
 30
0.0
  0
SPLINE
  5
128
100
AcDbEntity
  8
Layer_1
 62
7
100
AcDbSpline
 70
8
 71
3
 72
8
 73
4
 74
0
 40
0
 40
0
 40
0
 40
0
 40
1
 40
1
 40
1
 40
1
 10
316.386000
 20
1981.730000
 30
0.0
 10
316.286000
 20
1981.730000
 30
0.0
 10
316.386000
 20
1981.630000
 30
0.0
 10
316.386000
 20
1981.730000
 30
0.0
  0
SPLINE
  5
129
100
AcDbEntity
  8
Layer_1
 62
7
100
AcDbSpline
 70
8
 71
3
 72
8
 73
4
 74
0
 40
0
 40
0
 40
0
 40
0
 40
1
 40
1
 40
1
 40
1
 10
316.386000
 20
1991.430200
 30
0.0
 10
316.386000
 20
1991.530200
 30
0.0
 10
316.286000
 20
1991.430200
 30
0.0
 10
316.386000
 20
1991.430200
 30
0.0
  0
SPLINE
  5
12a
100
AcDbEntity
  8
Layer_1
 62
7
100
AcDbSpline
 70
8
 71
3
 72
8
 73
4
 74
0
 40
0
 40
0
 40
0
 40
0
 40
1
 40
1
 40
1
 40
1
 10
335.986000
 20
1991.430200
 30
0.0
 10
336.086000
 20
1991.430200
 30
0.0
 10
335.986000
 20
1991.530200
 30
0.0
 10
335.986000
 20
1991.430200
 30
0.0
  0
SPLINE
  5
12b
100
AcDbEntity
  8
Layer_1
 62
7
100
AcDbSpline
 70
8
 71
3
 72
8
 73
4
 74
0
 40
0
 40
0
 40
0
 40
0
 40
1
 40
1
 40
1
 40
1
 10
335.986000
 20
1981.730000
 30
0.0
 10
335.986000
 20
1981.630000
 30
0.0
 10
336.086000
 20
1981.730000
 30
0.0
 10
335.986000
 20
1981.730000
 30
0.0
  0
LWPOLYLINE
  5
12c
100
AcDbEntity
  8
Layer_1
 62
7
100
AcDbPolyline
 90
5
 70
1
 10
326.186000
 20
1981.730000
 30
0.0
 10
316.386000
 20
1981.730000
 30
0.0
 10
316.386000
 20
1991.430200
 30
0.0
 10
335.986000
 20
1991.430200
 30
0.0
 10
335.986000
 20
1981.730000
 30
0.0
  0
SPLINE
  5
12d
100
AcDbEntity
  8
Layer_1
 62
7
100
AcDbSpline
 70
8
 71
3
 72
8
 73
4
 74
0
 40
0
 40
0
 40
0
 40
0
 40
1
 40
1
 40
1
 40
1
 10
346.086000
 20
1981.730000
 30
0.0
 10
345.986000
 20
1981.730000
 30
0.0
 10
346.086000
 20
1981.630000
 30
0.0
 10
346.086000
 20
1981.730000
 30
0.0
  0
SPLINE
  5
12e
100
AcDbEntity
  8
Layer_1
 62
7
100
AcDbSpline
 70
8
 71
3
 72
8
 73
4
 74
0
 40
0
 40
0
 40
0
 40
0
 40
1
 40
1
 40
1
 40
1
 10
346.086000
 20
1991.430200
 30
0.0
 10
346.086000
 20
1991.530200
 30
0.0
 10
345.986000
 20
1991.430200
 30
0.0
 10
346.086000
 20
1991.430200
 30
0.0
  0
SPLINE
  5
12f
100
AcDbEntity
  8
Layer_1
 62
7
100
AcDbSpline
 70
8
 71
3
 72
8
 73
4
 74
0
 40
0
 40
0
 40
0
 40
0
 40
1
 40
1
 40
1
 40
1
 10
365.686000
 20
1991.430200
 30
0.0
 10
365.786000
 20
1991.430200
 30
0.0
 10
365.686000
 20
1991.530200
 30
0.0
 10
365.686000
 20
1991.430200
 30
0.0
  0
SPLINE
  5
130
100
AcDbEntity
  8
Layer_1
 62
7
100
AcDbSpline
 70
8
 71
3
 72
8
 73
4
 74
0
 40
0
 40
0
 40
0
 40
0
 40
1
 40
1
 40
1
 40
1
 10
365.686000
 20
1981.730000
 30
0.0
 10
365.686000
 20
1981.630000
 30
0.0
 10
365.786000
 20
1981.730000
 30
0.0
 10
365.686000
 20
1981.730000
 30
0.0
  0
LWPOLYLINE
  5
131
100
AcDbEntity
  8
Layer_1
 62
7
100
AcDbPolyline
 90
5
 70
1
 10
355.886000
 20
1981.730000
 30
0.0
 10
346.086000
 20
1981.730000
 30
0.0
 10
346.086000
 20
1991.430200
 30
0.0
 10
365.686000
 20
1991.430200
 30
0.0
 10
365.686000
 20
1981.730000
 30
0.0
  0
SPLINE
  5
132
100
AcDbEntity
  8
Layer_1
 62
7
100
AcDbSpline
 70
8
 71
3
 72
8
 73
4
 74
0
 40
0
 40
0
 40
0
 40
0
 40
1
 40
1
 40
1
 40
1
 10
375.786000
 20
1981.730000
 30
0.0
 10
375.686000
 20
1981.730000
 30
0.0
 10
375.786000
 20
1981.630000
 30
0.0
 10
375.786000
 20
1981.730000
 30
0.0
  0
SPLINE
  5
133
100
AcDbEntity
  8
Layer_1
 62
7
100
AcDbSpline
 70
8
 71
3
 72
8
 73
4
 74
0
 40
0
 40
0
 40
0
 40
0
 40
1
 40
1
 40
1
 40
1
 10
375.786000
 20
1991.430200
 30
0.0
 10
375.786000
 20
1991.530200
 30
0.0
 10
375.686000
 20
1991.430200
 30
0.0
 10
375.786000
 20
1991.430200
 30
0.0
  0
SPLINE
  5
134
100
AcDbEntity
  8
Layer_1
 62
7
100
AcDbSpline
 70
8
 71
3
 72
8
 73
4
 74
0
 40
0
 40
0
 40
0
 40
0
 40
1
 40
1
 40
1
 40
1
 10
395.386000
 20
1991.430200
 30
0.0
 10
395.486000
 20
1991.430200
 30
0.0
 10
395.386000
 20
1991.530200
 30
0.0
 10
395.386000
 20
1991.430200
 30
0.0
  0
SPLINE
  5
135
100
AcDbEntity
  8
Layer_1
 62
7
100
AcDbSpline
 70
8
 71
3
 72
8
 73
4
 74
0
 40
0
 40
0
 40
0
 40
0
 40
1
 40
1
 40
1
 40
1
 10
395.386000
 20
1981.730000
 30
0.0
 10
395.386000
 20
1981.630000
 30
0.0
 10
395.486000
 20
1981.730000
 30
0.0
 10
395.386000
 20
1981.730000
 30
0.0
  0
LWPOLYLINE
  5
136
100
AcDbEntity
  8
Layer_1
 62
7
100
AcDbPolyline
 90
5
 70
1
 10
385.586000
 20
1981.730000
 30
0.0
 10
375.786000
 20
1981.730000
 30
0.0
 10
375.786000
 20
1991.430200
 30
0.0
 10
395.386000
 20
1991.430200
 30
0.0
 10
395.386000
 20
1981.730000
 30
0.0
  0
SPLINE
  5
137
100
AcDbEntity
  8
Layer_1
 62
7
100
AcDbSpline
 70
8
 71
3
 72
8
 73
4
 74
0
 40
0
 40
0
 40
0
 40
0
 40
1
 40
1
 40
1
 40
1
 10
405.486000
 20
1981.730000
 30
0.0
 10
405.386000
 20
1981.730000
 30
0.0
 10
405.486000
 20
1981.630000
 30
0.0
 10
405.486000
 20
1981.730000
 30
0.0
  0
SPLINE
  5
138
100
AcDbEntity
  8
Layer_1
 62
7
100
AcDbSpline
 70
8
 71
3
 72
8
 73
4
 74
0
 40
0
 40
0
 40
0
 40
0
 40
1
 40
1
 40
1
 40
1
 10
405.486000
 20
1991.430200
 30
0.0
 10
405.486000
 20
1991.530200
 30
0.0
 10
405.386000
 20
1991.430200
 30
0.0
 10
405.486000
 20
1991.430200
 30
0.0
  0
SPLINE
  5
139
100
AcDbEntity
  8
Layer_1
 62
7
100
AcDbSpline
 70
8
 71
3
 72
8
 73
4
 74
0
 40
0
 40
0
 40
0
 40
0
 40
1
 40
1
 40
1
 40
1
 10
425.086000
 20
1991.430200
 30
0.0
 10
425.186000
 20
1991.430200
 30
0.0
 10
425.086000
 20
1991.530200
 30
0.0
 10
425.086000
 20
1991.430200
 30
0.0
  0
SPLINE
  5
13a
100
AcDbEntity
  8
Layer_1
 62
7
100
AcDbSpline
 70
8
 71
3
 72
8
 73
4
 74
0
 40
0
 40
0
 40
0
 40
0
 40
1
 40
1
 40
1
 40
1
 10
425.086000
 20
1981.730000
 30
0.0
 10
425.086000
 20
1981.630000
 30
0.0
 10
425.186000
 20
1981.730000
 30
0.0
 10
425.086000
 20
1981.730000
 30
0.0
  0
LWPOLYLINE
  5
13b
100
AcDbEntity
  8
Layer_1
 62
7
100
AcDbPolyline
 90
5
 70
1
 10
415.286000
 20
1981.730000
 30
0.0
 10
405.486000
 20
1981.730000
 30
0.0
 10
405.486000
 20
1991.430200
 30
0.0
 10
425.086000
 20
1991.430200
 30
0.0
 10
425.086000
 20
1981.730000
 30
0.0
  0
SPLINE
  5
13c
100
AcDbEntity
  8
Layer_1
 62
7
100
AcDbSpline
 70
8
 71
3
 72
8
 73
4
 74
0
 40
0
 40
0
 40
0
 40
0
 40
1
 40
1
 40
1
 40
1
 10
435.186000
 20
1981.730000
 30
0.0
 10
435.086000
 20
1981.730000
 30
0.0
 10
435.186000
 20
1981.630000
 30
0.0
 10
435.186000
 20
1981.730000
 30
0.0
  0
SPLINE
  5
13d
100
AcDbEntity
  8
Layer_1
 62
7
100
AcDbSpline
 70
8
 71
3
 72
8
 73
4
 74
0
 40
0
 40
0
 40
0
 40
0
 40
1
 40
1
 40
1
 40
1
 10
435.186000
 20
1991.430200
 30
0.0
 10
435.186000
 20
1991.530200
 30
0.0
 10
435.086000
 20
1991.430200
 30
0.0
 10
435.186000
 20
1991.430200
 30
0.0
  0
SPLINE
  5
13e
100
AcDbEntity
  8
Layer_1
 62
7
100
AcDbSpline
 70
8
 71
3
 72
8
 73
4
 74
0
 40
0
 40
0
 40
0
 40
0
 40
1
 40
1
 40
1
 40
1
 10
454.786000
 20
1991.430200
 30
0.0
 10
454.886000
 20
1991.430200
 30
0.0
 10
454.786000
 20
1991.530200
 30
0.0
 10
454.786000
 20
1991.430200
 30
0.0
  0
SPLINE
  5
13f
100
AcDbEntity
  8
Layer_1
 62
7
100
AcDbSpline
 70
8
 71
3
 72
8
 73
4
 74
0
 40
0
 40
0
 40
0
 40
0
 40
1
 40
1
 40
1
 40
1
 10
454.786000
 20
1981.730000
 30
0.0
 10
454.786000
 20
1981.630000
 30
0.0
 10
454.886000
 20
1981.730000
 30
0.0
 10
454.786000
 20
1981.730000
 30
0.0
  0
LWPOLYLINE
  5
140
100
AcDbEntity
  8
Layer_1
 62
7
100
AcDbPolyline
 90
5
 70
1
 10
444.986000
 20
1981.730000
 30
0.0
 10
435.186000
 20
1981.730000
 30
0.0
 10
435.186000
 20
1991.430200
 30
0.0
 10
454.786000
 20
1991.430200
 30
0.0
 10
454.786000
 20
1981.730000
 30
0.0
  0
SPLINE
  5
141
100
AcDbEntity
  8
Layer_1
 62
7
100
AcDbSpline
 70
8
 71
3
 72
8
 73
4
 74
0
 40
0
 40
0
 40
0
 40
0
 40
1
 40
1
 40
1
 40
1
 10
464.886000
 20
1981.730000
 30
0.0
 10
464.786000
 20
1981.730000
 30
0.0
 10
464.886000
 20
1981.630000
 30
0.0
 10
464.886000
 20
1981.730000
 30
0.0
  0
SPLINE
  5
142
100
AcDbEntity
  8
Layer_1
 62
7
100
AcDbSpline
 70
8
 71
3
 72
8
 73
4
 74
0
 40
0
 40
0
 40
0
 40
0
 40
1
 40
1
 40
1
 40
1
 10
464.886000
 20
1991.430200
 30
0.0
 10
464.886000
 20
1991.530200
 30
0.0
 10
464.786000
 20
1991.430200
 30
0.0
 10
464.886000
 20
1991.430200
 30
0.0
  0
SPLINE
  5
143
100
AcDbEntity
  8
Layer_1
 62
7
100
AcDbSpline
 70
8
 71
3
 72
8
 73
4
 74
0
 40
0
 40
0
 40
0
 40
0
 40
1
 40
1
 40
1
 40
1
 10
484.486000
 20
1991.430200
 30
0.0
 10
484.586000
 20
1991.430200
 30
0.0
 10
484.486000
 20
1991.530200
 30
0.0
 10
484.486000
 20
1991.430200
 30
0.0
  0
SPLINE
  5
144
100
AcDbEntity
  8
Layer_1
 62
7
100
AcDbSpline
 70
8
 71
3
 72
8
 73
4
 74
0
 40
0
 40
0
 40
0
 40
0
 40
1
 40
1
 40
1
 40
1
 10
484.486000
 20
1981.730000
 30
0.0
 10
484.486000
 20
1981.630000
 30
0.0
 10
484.586000
 20
1981.730000
 30
0.0
 10
484.486000
 20
1981.730000
 30
0.0
  0
LWPOLYLINE
  5
145
100
AcDbEntity
  8
Layer_1
 62
7
100
AcDbPolyline
 90
5
 70
1
 10
474.686000
 20
1981.730000
 30
0.0
 10
464.886000
 20
1981.730000
 30
0.0
 10
464.886000
 20
1991.430200
 30
0.0
 10
484.486000
 20
1991.430200
 30
0.0
 10
484.486000
 20
1981.730000
 30
0.0
  0
SPLINE
  5
146
100
AcDbEntity
  8
Layer_1
 62
7
100
AcDbSpline
 70
8
 71
3
 72
8
 73
4
 74
0
 40
0
 40
0
 40
0
 40
0
 40
1
 40
1
 40
1
 40
1
 10
494.586000
 20
1981.730000
 30
0.0
 10
494.486000
 20
1981.730000
 30
0.0
 10
494.586000
 20
1981.630000
 30
0.0
 10
494.586000
 20
1981.730000
 30
0.0
  0
SPLINE
  5
147
100
AcDbEntity
  8
Layer_1
 62
7
100
AcDbSpline
 70
8
 71
3
 72
8
 73
4
 74
0
 40
0
 40
0
 40
0
 40
0
 40
1
 40
1
 40
1
 40
1
 10
494.586000
 20
1991.430200
 30
0.0
 10
494.586000
 20
1991.530200
 30
0.0
 10
494.486000
 20
1991.430200
 30
0.0
 10
494.586000
 20
1991.430200
 30
0.0
  0
SPLINE
  5
148
100
AcDbEntity
  8
Layer_1
 62
7
100
AcDbSpline
 70
8
 71
3
 72
8
 73
4
 74
0
 40
0
 40
0
 40
0
 40
0
 40
1
 40
1
 40
1
 40
1
 10
514.186000
 20
1991.430200
 30
0.0
 10
514.286000
 20
1991.430200
 30
0.0
 10
514.186000
 20
1991.530200
 30
0.0
 10
514.186000
 20
1991.430200
 30
0.0
  0
SPLINE
  5
149
100
AcDbEntity
  8
Layer_1
 62
7
100
AcDbSpline
 70
8
 71
3
 72
8
 73
4
 74
0
 40
0
 40
0
 40
0
 40
0
 40
1
 40
1
 40
1
 40
1
 10
514.186000
 20
1981.730000
 30
0.0
 10
514.186000
 20
1981.630000
 30
0.0
 10
514.286000
 20
1981.730000
 30
0.0
 10
514.186000
 20
1981.730000
 30
0.0
  0
LWPOLYLINE
  5
14a
100
AcDbEntity
  8
Layer_1
 62
7
100
AcDbPolyline
 90
5
 70
1
 10
504.386000
 20
1981.730000
 30
0.0
 10
494.586000
 20
1981.730000
 30
0.0
 10
494.586000
 20
1991.430200
 30
0.0
 10
514.186000
 20
1991.430200
 30
0.0
 10
514.186000
 20
1981.730000
 30
0.0
  0
SPLINE
  5
14b
100
AcDbEntity
  8
Layer_1
 62
7
100
AcDbSpline
 70
8
 71
3
 72
8
 73
4
 74
0
 40
0
 40
0
 40
0
 40
0
 40
1
 40
1
 40
1
 40
1
 10
524.286000
 20
1981.730000
 30
0.0
 10
524.186000
 20
1981.730000
 30
0.0
 10
524.286000
 20
1981.630000
 30
0.0
 10
524.286000
 20
1981.730000
 30
0.0
  0
SPLINE
  5
14c
100
AcDbEntity
  8
Layer_1
 62
7
100
AcDbSpline
 70
8
 71
3
 72
8
 73
4
 74
0
 40
0
 40
0
 40
0
 40
0
 40
1
 40
1
 40
1
 40
1
 10
524.286000
 20
1991.430200
 30
0.0
 10
524.286000
 20
1991.530200
 30
0.0
 10
524.186000
 20
1991.430200
 30
0.0
 10
524.286000
 20
1991.430200
 30
0.0
  0
SPLINE
  5
14d
100
AcDbEntity
  8
Layer_1
 62
7
100
AcDbSpline
 70
8
 71
3
 72
8
 73
4
 74
0
 40
0
 40
0
 40
0
 40
0
 40
1
 40
1
 40
1
 40
1
 10
543.886000
 20
1991.430200
 30
0.0
 10
543.986000
 20
1991.430200
 30
0.0
 10
543.886000
 20
1991.530200
 30
0.0
 10
543.886000
 20
1991.430200
 30
0.0
  0
SPLINE
  5
14e
100
AcDbEntity
  8
Layer_1
 62
7
100
AcDbSpline
 70
8
 71
3
 72
8
 73
4
 74
0
 40
0
 40
0
 40
0
 40
0
 40
1
 40
1
 40
1
 40
1
 10
543.886000
 20
1981.730000
 30
0.0
 10
543.886000
 20
1981.630000
 30
0.0
 10
543.986000
 20
1981.730000
 30
0.0
 10
543.886000
 20
1981.730000
 30
0.0
  0
LWPOLYLINE
  5
14f
100
AcDbEntity
  8
Layer_1
 62
7
100
AcDbPolyline
 90
5
 70
1
 10
534.086000
 20
1981.730000
 30
0.0
 10
524.286000
 20
1981.730000
 30
0.0
 10
524.286000
 20
1991.430200
 30
0.0
 10
543.886000
 20
1991.430200
 30
0.0
 10
543.886000
 20
1981.730000
 30
0.0
  0
SPLINE
  5
150
100
AcDbEntity
  8
Layer_1
 62
7
100
AcDbSpline
 70
8
 71
3
 72
8
 73
4
 74
0
 40
0
 40
0
 40
0
 40
0
 40
1
 40
1
 40
1
 40
1
 10
553.986000
 20
1981.730000
 30
0.0
 10
553.886000
 20
1981.730000
 30
0.0
 10
553.986000
 20
1981.630000
 30
0.0
 10
553.986000
 20
1981.730000
 30
0.0
  0
SPLINE
  5
151
100
AcDbEntity
  8
Layer_1
 62
7
100
AcDbSpline
 70
8
 71
3
 72
8
 73
4
 74
0
 40
0
 40
0
 40
0
 40
0
 40
1
 40
1
 40
1
 40
1
 10
553.986000
 20
1991.430200
 30
0.0
 10
553.986000
 20
1991.530200
 30
0.0
 10
553.886000
 20
1991.430200
 30
0.0
 10
553.986000
 20
1991.430200
 30
0.0
  0
SPLINE
  5
152
100
AcDbEntity
  8
Layer_1
 62
7
100
AcDbSpline
 70
8
 71
3
 72
8
 73
4
 74
0
 40
0
 40
0
 40
0
 40
0
 40
1
 40
1
 40
1
 40
1
 10
573.586000
 20
1991.430200
 30
0.0
 10
573.686000
 20
1991.430200
 30
0.0
 10
573.586000
 20
1991.530200
 30
0.0
 10
573.586000
 20
1991.430200
 30
0.0
  0
SPLINE
  5
153
100
AcDbEntity
  8
Layer_1
 62
7
100
AcDbSpline
 70
8
 71
3
 72
8
 73
4
 74
0
 40
0
 40
0
 40
0
 40
0
 40
1
 40
1
 40
1
 40
1
 10
573.586000
 20
1981.730000
 30
0.0
 10
573.586000
 20
1981.630000
 30
0.0
 10
573.686000
 20
1981.730000
 30
0.0
 10
573.586000
 20
1981.730000
 30
0.0
  0
LWPOLYLINE
  5
154
100
AcDbEntity
  8
Layer_1
 62
7
100
AcDbPolyline
 90
5
 70
1
 10
563.786000
 20
1981.730000
 30
0.0
 10
553.986000
 20
1981.730000
 30
0.0
 10
553.986000
 20
1991.430200
 30
0.0
 10
573.586000
 20
1991.430200
 30
0.0
 10
573.586000
 20
1981.730000
 30
0.0
  0
SPLINE
  5
155
100
AcDbEntity
  8
Layer_1
 62
7
100
AcDbSpline
 70
8
 71
3
 72
8
 73
4
 74
0
 40
0
 40
0
 40
0
 40
0
 40
1
 40
1
 40
1
 40
1
 10
623.302000
 20
1971.629900
 30
0.0
 10
625.075000
 20
1971.629900
 30
0.0
 10
626.816000
 20
1972.095900
 30
0.0
 10
628.352000
 20
1972.982900
 30
0.0
  0
SPLINE
  5
156
100
AcDbEntity
  8
Layer_1
 62
7
100
AcDbSpline
 70
8
 71
3
 72
8
 73
4
 74
0
 40
0
 40
0
 40
0
 40
0
 40
1
 40
1
 40
1
 40
1
 10
628.352000
 20
1972.982900
 30
0.0
 10
629.887000
 20
1973.868900
 30
0.0
 10
631.162000
 20
1975.143900
 30
0.0
 10
632.049000
 20
1976.679900
 30
0.0
  0
SPLINE
  5
157
100
AcDbEntity
  8
Layer_1
 62
7
100
AcDbSpline
 70
8
 71
3
 72
8
 73
4
 74
0
 40
0
 40
0
 40
0
 40
0
 40
1
 40
1
 40
1
 40
1
 10
632.049000
 20
1976.679900
 30
0.0
 10
632.935000
 20
1978.215000
 30
0.0
 10
633.402000
 20
1979.957000
 30
0.0
 10
633.402000
 20
1981.730000
 30
0.0
  0
LWPOLYLINE
  5
158
100
AcDbEntity
  8
Layer_1
 62
7
100
AcDbPolyline
 90
2
 70
0
 10
54.021000
 20
1971.629900
 30
0.0
 10
623.302000
 20
1971.629900
 30
0.0
  0
SPLINE
  5
159
100
AcDbEntity
  8
Layer_1
 62
7
100
AcDbSpline
 70
8
 71
3
 72
8
 73
4
 74
0
 40
0
 40
0
 40
0
 40
0
 40
1
 40
1
 40
1
 40
1
 10
633.402000
 20
2413.409900
 30
0.0
 10
633.402000
 20
2414.736900
 30
0.0
 10
633.141000
 20
2416.050000
 30
0.0
 10
632.633000
 20
2417.275000
 30
0.0
  0
SPLINE
  5
15a
100
AcDbEntity
  8
Layer_1
 62
7
100
AcDbSpline
 70
8
 71
3
 72
8
 73
4
 74
0
 40
0
 40
0
 40
0
 40
0
 40
1
 40
1
 40
1
 40
1
 10
632.633000
 20
2417.275000
 30
0.0
 10
632.125000
 20
2418.501000
 30
0.0
 10
631.381000
 20
2419.614000
 30
0.0
 10
630.444000
 20
2420.552000
 30
0.0
  0
LWPOLYLINE
  5
15b
100
AcDbEntity
  8
Layer_1
 62
7
100
AcDbPolyline
 90
2
 70
0
 10
633.402000
 20
1981.730000
 30
0.0
 10
633.402000
 20
2413.409900
 30
0.0
  0
SPLINE
  5
15c
100
AcDbEntity
  8
Layer_1
 62
7
100
AcDbSpline
 70
8
 71
3
 72
8
 73
4
 74
0
 40
0
 40
0
 40
0
 40
0
 40
1
 40
1
 40
1
 40
1
 10
482.022000
 20
2568.976400
 30
0.0
 10
480.768000
 20
2570.229400
 30
0.0
 10
479.207000
 20
2571.131400
 30
0.0
 10
477.494000
 20
2571.590500
 30
0.0
  0
SPLINE
  5
15d
100
AcDbEntity
  8
Layer_1
 62
7
100
AcDbSpline
 70
8
 71
3
 72
8
 73
4
 74
0
 40
0
 40
0
 40
0
 40
0
 40
1
 40
1
 40
1
 40
1
 10
477.494000
 20
2571.590500
 30
0.0
 10
475.782000
 20
2572.049500
 30
0.0
 10
473.979000
 20
2572.049500
 30
0.0
 10
472.266000
 20
2571.590500
 30
0.0
  0
SPLINE
  5
15e
100
AcDbEntity
  8
Layer_1
 62
7
100
AcDbSpline
 70
8
 71
3
 72
8
 73
4
 74
0
 40
0
 40
0
 40
0
 40
0
 40
1
 40
1
 40
1
 40
1
 10
472.266000
 20
2571.590500
 30
0.0
 10
470.553000
 20
2571.131400
 30
0.0
 10
468.992000
 20
2570.229400
 30
0.0
 10
467.738000
 20
2568.976400
 30
0.0
  0
LWPOLYLINE
  5
15f
100
AcDbEntity
  8
Layer_1
 62
7
100
AcDbPolyline
 90
2
 70
0
 10
630.444000
 20
2420.552000
 30
0.0
 10
482.022000
 20
2568.976400
 30
0.0
  0
SPLINE
  5
160
100
AcDbEntity
  8
Layer_1
 62
7
100
AcDbSpline
 70
8
 71
3
 72
8
 73
4
 74
0
 40
0
 40
0
 40
0
 40
0
 40
1
 40
1
 40
1
 40
1
 10
383.027000
 20
2484.263100
 30
0.0
 10
381.773000
 20
2483.010000
 30
0.0
 10
380.872000
 20
2481.448000
 30
0.0
 10
380.413000
 20
2479.736000
 30
0.0
  0
SPLINE
  5
161
100
AcDbEntity
  8
Layer_1
 62
7
100
AcDbSpline
 70
8
 71
3
 72
8
 73
4
 74
0
 40
0
 40
0
 40
0
 40
0
 40
1
 40
1
 40
1
 40
1
 10
380.413000
 20
2479.736000
 30
0.0
 10
379.954000
 20
2478.023000
 30
0.0
 10
379.954000
 20
2476.219900
 30
0.0
 10
380.413000
 20
2474.506900
 30
0.0
  0
SPLINE
  5
162
100
AcDbEntity
  8
Layer_1
 62
7
100
AcDbSpline
 70
8
 71
3
 72
8
 73
4
 74
0
 40
0
 40
0
 40
0
 40
0
 40
1
 40
1
 40
1
 40
1
 10
380.413000
 20
2474.506900
 30
0.0
 10
380.872000
 20
2472.794900
 30
0.0
 10
381.773000
 20
2471.232900
 30
0.0
 10
383.027000
 20
2469.979800
 30
0.0
  0
LWPOLYLINE
  5
163
100
AcDbEntity
  8
Layer_1
 62
7
100
AcDbPolyline
 90
2
 70
0
 10
467.738000
 20
2568.976400
 30
0.0
 10
383.027000
 20
2484.263100
 30
0.0
  0
SPLINE
  5
164
100
AcDbEntity
  8
Layer_1
 62
7
100
AcDbSpline
 70
8
 71
3
 72
8
 73
4
 74
0
 40
0
 40
0
 40
0
 40
0
 40
1
 40
1
 40
1
 40
1
 10
439.595000
 20
2413.409900
 30
0.0
 10
440.824000
 20
2412.180900
 30
0.0
 10
441.708000
 20
2410.650900
 30
0.0
 10
442.158000
 20
2408.971900
 30
0.0
  0
SPLINE
  5
165
100
AcDbEntity
  8
Layer_1
 62
7
100
AcDbSpline
 70
8
 71
3
 72
8
 73
4
 74
0
 40
0
 40
0
 40
0
 40
0
 40
1
 40
1
 40
1
 40
1
 10
442.158000
 20
2408.971900
 30
0.0
 10
442.608000
 20
2407.293800
 30
0.0
 10
442.608000
 20
2405.525800
 30
0.0
 10
442.158000
 20
2403.847800
 30
0.0
  0
SPLINE
  5
166
100
AcDbEntity
  8
Layer_1
 62
7
100
AcDbSpline
 70
8
 71
3
 72
8
 73
4
 74
0
 40
0
 40
0
 40
0
 40
0
 40
1
 40
1
 40
1
 40
1
 10
442.158000
 20
2403.847800
 30
0.0
 10
441.708000
 20
2402.168700
 30
0.0
 10
440.824000
 20
2400.637700
 30
0.0
 10
439.595000
 20
2399.408700
 30
0.0
  0
LWPOLYLINE
  5
167
100
AcDbEntity
  8
Layer_1
 62
7
100
AcDbPolyline
 90
2
 70
0
 10
383.027000
 20
2469.979800
 30
0.0
 10
439.595000
 20
2413.409900
 30
0.0
  0
SPLINE
  5
168
100
AcDbEntity
  8
Layer_1
 62
7
100
AcDbSpline
 70
8
 71
3
 72
8
 73
4
 74
0
 40
0
 40
0
 40
0
 40
0
 40
1
 40
1
 40
1
 40
1
 10
210.040000
 20
2169.850000
 30
0.0
 10
208.811000
 20
2168.621000
 30
0.0
 10
207.280000
 20
2167.737000
 30
0.0
 10
205.602000
 20
2167.287000
 30
0.0
  0
LWPOLYLINE
  5
169
100
AcDbEntity
  8
Layer_1
 62
7
100
AcDbPolyline
 90
2
 70
0
 10
439.595000
 20
2399.408700
 30
0.0
 10
210.040000
 20
2169.850000
 30
0.0
  0
SPLINE
  5
16a
100
AcDbEntity
  8
Layer_1
 62
7
100
AcDbSpline
 70
8
 71
3
 72
8
 73
4
 74
0
 40
0
 40
0
 40
0
 40
0
 40
1
 40
1
 40
1
 40
1
 10
17.786000
 20
2116.961200
 30
0.0
 10
16.073000
 20
2116.502200
 30
0.0
 10
14.512000
 20
2115.601200
 30
0.0
 10
13.258000
 20
2114.347100
 30
0.0
  0
SPLINE
  5
16b
100
AcDbEntity
  8
Layer_1
 62
7
100
AcDbSpline
 70
8
 71
3
 72
8
 73
4
 74
0
 40
0
 40
0
 40
0
 40
0
 40
1
 40
1
 40
1
 40
1
 10
13.258000
 20
2114.347100
 30
0.0
 10
12.005000
 20
2113.094100
 30
0.0
 10
11.103000
 20
2111.532100
 30
0.0
 10
10.644000
 20
2109.819100
 30
0.0
  0
SPLINE
  5
16c
100
AcDbEntity
  8
Layer_1
 62
7
100
AcDbSpline
 70
8
 71
3
 72
8
 73
4
 74
0
 40
0
 40
0
 40
0
 40
0
 40
1
 40
1
 40
1
 40
1
 10
10.644000
 20
2109.819100
 30
0.0
 10
10.185000
 20
2108.107000
 30
0.0
 10
10.185000
 20
2106.304000
 30
0.0
 10
10.644000
 20
2104.591000
 30
0.0
  0
LWPOLYLINE
  5
16d
100
AcDbEntity
  8
Layer_1
 62
7
100
AcDbPolyline
 90
2
 70
0
 10
205.602000
 20
2167.287000
 30
0.0
 10
17.786000
 20
2116.961200
 30
0.0
  0
SPLINE
  5
16e
100
AcDbEntity
  8
Layer_1
 62
7
100
AcDbSpline
 70
8
 71
3
 72
8
 73
4
 74
0
 40
0
 40
0
 40
0
 40
0
 40
1
 40
1
 40
1
 40
1
 10
44.265000
 20
1979.116000
 30
0.0
 10
44.646000
 20
1977.691000
 30
0.0
 10
45.336000
 20
1976.366900
 30
0.0
 10
46.284000
 20
1975.236900
 30
0.0
  0
SPLINE
  5
16f
100
AcDbEntity
  8
Layer_1
 62
7
100
AcDbSpline
 70
8
 71
3
 72
8
 73
4
 74
0
 40
0
 40
0
 40
0
 40
0
 40
1
 40
1
 40
1
 40
1
 10
46.284000
 20
1975.236900
 30
0.0
 10
47.232000
 20
1974.107900
 30
0.0
 10
48.415000
 20
1973.198900
 30
0.0
 10
49.752000
 20
1972.575900
 30
0.0
  0
SPLINE
  5
170
100
AcDbEntity
  8
Layer_1
 62
7
100
AcDbSpline
 70
8
 71
3
 72
8
 73
4
 74
0
 40
0
 40
0
 40
0
 40
0
 40
1
 40
1
 40
1
 40
1
 10
49.752000
 20
1972.575900
 30
0.0
 10
51.089000
 20
1971.952900
 30
0.0
 10
52.546000
 20
1971.629900
 30
0.0
 10
54.021000
 20
1971.629900
 30
0.0
  0
LWPOLYLINE
  5
171
100
AcDbEntity
  8
Layer_1
 62
7
100
AcDbPolyline
 90
2
 70
0
 10
10.644000
 20
2104.591000
 30
0.0
 10
44.265000
 20
1979.116000
 30
0.0
  0
LWPOLYLINE
  5
172
100
AcDbEntity
  8
Layer_1
 62
7
100
AcDbPolyline
 90
1
 70
1
 10
54.021000
 20
1971.629900
 30
0.0
  0
SPLINE
  5
173
100
AcDbEntity
  8
Layer_1
 62
7
100
AcDbSpline
 70
8
 71
3
 72
8
 73
4
 74
0
 40
0
 40
0
 40
0
 40
0
 40
1
 40
1
 40
1
 40
1
 10
623.302000
 20
1996.880300
 30
0.0
 10
623.302000
 20
1996.780300
 30
0.0
 10
623.402000
 20
1996.880300
 30
0.0
 10
623.302000
 20
1996.880300
 30
0.0
  0
SPLINE
  5
174
100
AcDbEntity
  8
Layer_1
 62
7
100
AcDbSpline
 70
8
 71
3
 72
8
 73
4
 74
0
 40
0
 40
0
 40
0
 40
0
 40
1
 40
1
 40
1
 40
1
 10
613.602000
 20
1996.880300
 30
0.0
 10
613.502000
 20
1996.880300
 30
0.0
 10
613.602000
 20
1996.780300
 30
0.0
 10
613.602000
 20
1996.880300
 30
0.0
  0
SPLINE
  5
175
100
AcDbEntity
  8
Layer_1
 62
7
100
AcDbSpline
 70
8
 71
3
 72
8
 73
4
 74
0
 40
0
 40
0
 40
0
 40
0
 40
1
 40
1
 40
1
 40
1
 10
613.602000
 20
2016.480600
 30
0.0
 10
613.602000
 20
2016.580600
 30
0.0
 10
613.502000
 20
2016.480600
 30
0.0
 10
613.602000
 20
2016.480600
 30
0.0
  0
SPLINE
  5
176
100
AcDbEntity
  8
Layer_1
 62
7
100
AcDbSpline
 70
8
 71
3
 72
8
 73
4
 74
0
 40
0
 40
0
 40
0
 40
0
 40
1
 40
1
 40
1
 40
1
 10
623.302000
 20
2016.480600
 30
0.0
 10
623.402000
 20
2016.480600
 30
0.0
 10
623.302000
 20
2016.580600
 30
0.0
 10
623.302000
 20
2016.480600
 30
0.0
  0
LWPOLYLINE
  5
177
100
AcDbEntity
  8
Layer_1
 62
7
100
AcDbPolyline
 90
5
 70
1
 10
623.302000
 20
2006.680400
 30
0.0
 10
623.302000
 20
1996.880300
 30
0.0
 10
613.602000
 20
1996.880300
 30
0.0
 10
613.602000
 20
2016.480600
 30
0.0
 10
623.302000
 20
2016.480600
 30
0.0
  0
SPLINE
  5
178
100
AcDbEntity
  8
Layer_1
 62
7
100
AcDbSpline
 70
8
 71
3
 72
8
 73
4
 74
0
 40
0
 40
0
 40
0
 40
0
 40
1
 40
1
 40
1
 40
1
 10
623.302000
 20
2343.608800
 30
0.0
 10
623.302000
 20
2343.508800
 30
0.0
 10
623.402000
 20
2343.608800
 30
0.0
 10
623.302000
 20
2343.608800
 30
0.0
  0
SPLINE
  5
179
100
AcDbEntity
  8
Layer_1
 62
7
100
AcDbSpline
 70
8
 71
3
 72
8
 73
4
 74
0
 40
0
 40
0
 40
0
 40
0
 40
1
 40
1
 40
1
 40
1
 10
613.602000
 20
2343.608800
 30
0.0
 10
613.502000
 20
2343.608800
 30
0.0
 10
613.602000
 20
2343.508800
 30
0.0
 10
613.602000
 20
2343.608800
 30
0.0
  0
SPLINE
  5
17a
100
AcDbEntity
  8
Layer_1
 62
7
100
AcDbSpline
 70
8
 71
3
 72
8
 73
4
 74
0
 40
0
 40
0
 40
0
 40
0
 40
1
 40
1
 40
1
 40
1
 10
613.602000
 20
2363.209100
 30
0.0
 10
613.602000
 20
2363.309100
 30
0.0
 10
613.502000
 20
2363.209100
 30
0.0
 10
613.602000
 20
2363.209100
 30
0.0
  0
SPLINE
  5
17b
100
AcDbEntity
  8
Layer_1
 62
7
100
AcDbSpline
 70
8
 71
3
 72
8
 73
4
 74
0
 40
0
 40
0
 40
0
 40
0
 40
1
 40
1
 40
1
 40
1
 10
623.302000
 20
2363.209100
 30
0.0
 10
623.402000
 20
2363.209100
 30
0.0
 10
623.302000
 20
2363.309100
 30
0.0
 10
623.302000
 20
2363.209100
 30
0.0
  0
LWPOLYLINE
  5
17c
100
AcDbEntity
  8
Layer_1
 62
7
100
AcDbPolyline
 90
5
 70
1
 10
623.302000
 20
2353.409000
 30
0.0
 10
623.302000
 20
2343.608800
 30
0.0
 10
613.602000
 20
2343.608800
 30
0.0
 10
613.602000
 20
2363.209100
 30
0.0
 10
623.302000
 20
2363.209100
 30
0.0
  0
SPLINE
  5
17d
100
AcDbEntity
  8
Layer_1
 62
7
100
AcDbSpline
 70
8
 71
3
 72
8
 73
4
 74
0
 40
0
 40
0
 40
0
 40
0
 40
1
 40
1
 40
1
 40
1
 10
612.023000
 20
2424.689100
 30
0.0
 10
612.094000
 20
2424.618100
 30
0.0
 10
612.094000
 20
2424.759100
 30
0.0
 10
612.023000
 20
2424.689100
 30
0.0
  0
SPLINE
  5
17e
100
AcDbEntity
  8
Layer_1
 62
7
100
AcDbSpline
 70
8
 71
3
 72
8
 73
4
 74
0
 40
0
 40
0
 40
0
 40
0
 40
1
 40
1
 40
1
 40
1
 10
605.164000
 20
2417.830000
 30
0.0
 10
605.094000
 20
2417.759000
 30
0.0
 10
605.235000
 20
2417.759000
 30
0.0
 10
605.164000
 20
2417.830000
 30
0.0
  0
SPLINE
  5
17f
100
AcDbEntity
  8
Layer_1
 62
7
100
AcDbSpline
 70
8
 71
3
 72
8
 73
4
 74
0
 40
0
 40
0
 40
0
 40
0
 40
1
 40
1
 40
1
 40
1
 10
591.305000
 20
2431.689200
 30
0.0
 10
591.234000
 20
2431.760200
 30
0.0
 10
591.234000
 20
2431.618200
 30
0.0
 10
591.305000
 20
2431.689200
 30
0.0
  0
SPLINE
  5
180
100
AcDbEntity
  8
Layer_1
 62
7
100
AcDbSpline
 70
8
 71
3
 72
8
 73
4
 74
0
 40
0
 40
0
 40
0
 40
0
 40
1
 40
1
 40
1
 40
1
 10
598.164000
 20
2438.548300
 30
0.0
 10
598.235000
 20
2438.619300
 30
0.0
 10
598.093000
 20
2438.619300
 30
0.0
 10
598.164000
 20
2438.548300
 30
0.0
  0
LWPOLYLINE
  5
181
100
AcDbEntity
  8
Layer_1
 62
7
100
AcDbPolyline
 90
5
 70
1
 10
605.094000
 20
2431.618200
 30
0.0
 10
612.023000
 20
2424.689100
 30
0.0
 10
605.164000
 20
2417.830000
 30
0.0
 10
591.305000
 20
2431.689200
 30
0.0
 10
598.164000
 20
2438.548300
 30
0.0
  0
SPLINE
  5
182
100
AcDbEntity
  8
Layer_1
 62
7
100
AcDbSpline
 70
8
 71
3
 72
8
 73
4
 74
0
 40
0
 40
0
 40
0
 40
0
 40
1
 40
1
 40
1
 40
1
 10
591.022000
 20
2445.690400
 30
0.0
 10
591.093000
 20
2445.619400
 30
0.0
 10
591.093000
 20
2445.760400
 30
0.0
 10
591.022000
 20
2445.690400
 30
0.0
  0
SPLINE
  5
183
100
AcDbEntity
  8
Layer_1
 62
7
100
AcDbSpline
 70
8
 71
3
 72
8
 73
4
 74
0
 40
0
 40
0
 40
0
 40
0
 40
1
 40
1
 40
1
 40
1
 10
584.163000
 20
2438.831300
 30
0.0
 10
584.093000
 20
2438.760300
 30
0.0
 10
584.234000
 20
2438.760300
 30
0.0
 10
584.163000
 20
2438.831300
 30
0.0
  0
SPLINE
  5
184
100
AcDbEntity
  8
Layer_1
 62
7
100
AcDbSpline
 70
8
 71
3
 72
8
 73
4
 74
0
 40
0
 40
0
 40
0
 40
0
 40
1
 40
1
 40
1
 40
1
 10
570.304000
 20
2452.690600
 30
0.0
 10
570.233000
 20
2452.761600
 30
0.0
 10
570.233000
 20
2452.619600
 30
0.0
 10
570.304000
 20
2452.690600
 30
0.0
  0
SPLINE
  5
185
100
AcDbEntity
  8
Layer_1
 62
7
100
AcDbSpline
 70
8
 71
3
 72
8
 73
4
 74
0
 40
0
 40
0
 40
0
 40
0
 40
1
 40
1
 40
1
 40
1
 10
577.163000
 20
2459.549700
 30
0.0
 10
577.234000
 20
2459.620700
 30
0.0
 10
577.092000
 20
2459.620700
 30
0.0
 10
577.163000
 20
2459.549700
 30
0.0
  0
LWPOLYLINE
  5
186
100
AcDbEntity
  8
Layer_1
 62
7
100
AcDbPolyline
 90
5
 70
1
 10
584.093000
 20
2452.619600
 30
0.0
 10
591.022000
 20
2445.690400
 30
0.0
 10
584.163000
 20
2438.831300
 30
0.0
 10
570.304000
 20
2452.690600
 30
0.0
 10
577.163000
 20
2459.549700
 30
0.0
  0
SPLINE
  5
187
100
AcDbEntity
  8
Layer_1
 62
7
100
AcDbSpline
 70
8
 71
3
 72
8
 73
4
 74
0
 40
0
 40
0
 40
0
 40
0
 40
1
 40
1
 40
1
 40
1
 10
570.021000
 20
2466.691800
 30
0.0
 10
570.092000
 20
2466.620800
 30
0.0
 10
570.092000
 20
2466.761800
 30
0.0
 10
570.021000
 20
2466.691800
 30
0.0
  0
SPLINE
  5
188
100
AcDbEntity
  8
Layer_1
 62
7
100
AcDbSpline
 70
8
 71
3
 72
8
 73
4
 74
0
 40
0
 40
0
 40
0
 40
0
 40
1
 40
1
 40
1
 40
1
 10
563.162000
 20
2459.832700
 30
0.0
 10
563.092000
 20
2459.761700
 30
0.0
 10
563.233000
 20
2459.761700
 30
0.0
 10
563.162000
 20
2459.832700
 30
0.0
  0
SPLINE
  5
189
100
AcDbEntity
  8
Layer_1
 62
7
100
AcDbSpline
 70
8
 71
3
 72
8
 73
4
 74
0
 40
0
 40
0
 40
0
 40
0
 40
1
 40
1
 40
1
 40
1
 10
549.303000
 20
2473.691900
 30
0.0
 10
549.232000
 20
2473.762900
 30
0.0
 10
549.232000
 20
2473.620900
 30
0.0
 10
549.303000
 20
2473.691900
 30
0.0
  0
SPLINE
  5
18a
100
AcDbEntity
  8
Layer_1
 62
7
100
AcDbSpline
 70
8
 71
3
 72
8
 73
4
 74
0
 40
0
 40
0
 40
0
 40
0
 40
1
 40
1
 40
1
 40
1
 10
556.162000
 20
2480.551000
 30
0.0
 10
556.233000
 20
2480.622000
 30
0.0
 10
556.091000
 20
2480.622000
 30
0.0
 10
556.162000
 20
2480.551000
 30
0.0
  0
LWPOLYLINE
  5
18b
100
AcDbEntity
  8
Layer_1
 62
7
100
AcDbPolyline
 90
5
 70
1
 10
563.092000
 20
2473.620900
 30
0.0
 10
570.021000
 20
2466.691800
 30
0.0
 10
563.162000
 20
2459.832700
 30
0.0
 10
549.303000
 20
2473.691900
 30
0.0
 10
556.162000
 20
2480.551000
 30
0.0
  0
SPLINE
  5
18c
100
AcDbEntity
  8
Layer_1
 62
7
100
AcDbSpline
 70
8
 71
3
 72
8
 73
4
 74
0
 40
0
 40
0
 40
0
 40
0
 40
1
 40
1
 40
1
 40
1
 10
549.020000
 20
2487.693100
 30
0.0
 10
549.091000
 20
2487.622100
 30
0.0
 10
549.091000
 20
2487.763100
 30
0.0
 10
549.020000
 20
2487.693100
 30
0.0
  0
SPLINE
  5
18d
100
AcDbEntity
  8
Layer_1
 62
7
100
AcDbSpline
 70
8
 71
3
 72
8
 73
4
 74
0
 40
0
 40
0
 40
0
 40
0
 40
1
 40
1
 40
1
 40
1
 10
542.161000
 20
2480.834000
 30
0.0
 10
542.091000
 20
2480.763000
 30
0.0
 10
542.232000
 20
2480.763000
 30
0.0
 10
542.161000
 20
2480.834000
 30
0.0
  0
SPLINE
  5
18e
100
AcDbEntity
  8
Layer_1
 62
7
100
AcDbSpline
 70
8
 71
3
 72
8
 73
4
 74
0
 40
0
 40
0
 40
0
 40
0
 40
1
 40
1
 40
1
 40
1
 10
528.302000
 20
2494.693200
 30
0.0
 10
528.231000
 20
2494.764200
 30
0.0
 10
528.231000
 20
2494.622200
 30
0.0
 10
528.302000
 20
2494.693200
 30
0.0
  0
SPLINE
  5
18f
100
AcDbEntity
  8
Layer_1
 62
7
100
AcDbSpline
 70
8
 71
3
 72
8
 73
4
 74
0
 40
0
 40
0
 40
0
 40
0
 40
1
 40
1
 40
1
 40
1
 10
535.161000
 20
2501.552300
 30
0.0
 10
535.232000
 20
2501.623300
 30
0.0
 10
535.090000
 20
2501.623300
 30
0.0
 10
535.161000
 20
2501.552300
 30
0.0
  0
LWPOLYLINE
  5
190
100
AcDbEntity
  8
Layer_1
 62
7
100
AcDbPolyline
 90
5
 70
1
 10
542.091000
 20
2494.622200
 30
0.0
 10
549.020000
 20
2487.693100
 30
0.0
 10
542.161000
 20
2480.834000
 30
0.0
 10
528.302000
 20
2494.693200
 30
0.0
 10
535.161000
 20
2501.552300
 30
0.0
  0
SPLINE
  5
191
100
AcDbEntity
  8
Layer_1
 62
7
100
AcDbSpline
 70
8
 71
3
 72
8
 73
4
 74
0
 40
0
 40
0
 40
0
 40
0
 40
1
 40
1
 40
1
 40
1
 10
528.019000
 20
2508.694400
 30
0.0
 10
528.090000
 20
2508.623400
 30
0.0
 10
528.090000
 20
2508.765400
 30
0.0
 10
528.019000
 20
2508.694400
 30
0.0
  0
SPLINE
  5
192
100
AcDbEntity
  8
Layer_1
 62
7
100
AcDbSpline
 70
8
 71
3
 72
8
 73
4
 74
0
 40
0
 40
0
 40
0
 40
0
 40
1
 40
1
 40
1
 40
1
 10
521.160000
 20
2501.835300
 30
0.0
 10
521.089000
 20
2501.764300
 30
0.0
 10
521.231000
 20
2501.764300
 30
0.0
 10
521.160000
 20
2501.835300
 30
0.0
  0
SPLINE
  5
193
100
AcDbEntity
  8
Layer_1
 62
7
100
AcDbSpline
 70
8
 71
3
 72
8
 73
4
 74
0
 40
0
 40
0
 40
0
 40
0
 40
1
 40
1
 40
1
 40
1
 10
507.301000
 20
2515.694600
 30
0.0
 10
507.230000
 20
2515.765600
 30
0.0
 10
507.230000
 20
2515.623600
 30
0.0
 10
507.301000
 20
2515.694600
 30
0.0
  0
SPLINE
  5
194
100
AcDbEntity
  8
Layer_1
 62
7
100
AcDbSpline
 70
8
 71
3
 72
8
 73
4
 74
0
 40
0
 40
0
 40
0
 40
0
 40
1
 40
1
 40
1
 40
1
 10
514.160000
 20
2522.553700
 30
0.0
 10
514.231000
 20
2522.624700
 30
0.0
 10
514.089000
 20
2522.624700
 30
0.0
 10
514.160000
 20
2522.553700
 30
0.0
  0
LWPOLYLINE
  5
195
100
AcDbEntity
  8
Layer_1
 62
7
100
AcDbPolyline
 90
5
 70
1
 10
521.089000
 20
2515.623600
 30
0.0
 10
528.019000
 20
2508.694400
 30
0.0
 10
521.160000
 20
2501.835300
 30
0.0
 10
507.301000
 20
2515.694600
 30
0.0
 10
514.160000
 20
2522.553700
 30
0.0
  0
SPLINE
  5
196
100
AcDbEntity
  8
Layer_1
 62
7
100
AcDbSpline
 70
8
 71
3
 72
8
 73
4
 74
0
 40
0
 40
0
 40
0
 40
0
 40
1
 40
1
 40
1
 40
1
 10
507.018000
 20
2529.695800
 30
0.0
 10
507.089000
 20
2529.624800
 30
0.0
 10
507.089000
 20
2529.766800
 30
0.0
 10
507.018000
 20
2529.695800
 30
0.0
  0
SPLINE
  5
197
100
AcDbEntity
  8
Layer_1
 62
7
100
AcDbSpline
 70
8
 71
3
 72
8
 73
4
 74
0
 40
0
 40
0
 40
0
 40
0
 40
1
 40
1
 40
1
 40
1
 10
500.159000
 20
2522.836700
 30
0.0
 10
500.088000
 20
2522.765700
 30
0.0
 10
500.230000
 20
2522.765700
 30
0.0
 10
500.159000
 20
2522.836700
 30
0.0
  0
SPLINE
  5
198
100
AcDbEntity
  8
Layer_1
 62
7
100
AcDbSpline
 70
8
 71
3
 72
8
 73
4
 74
0
 40
0
 40
0
 40
0
 40
0
 40
1
 40
1
 40
1
 40
1
 10
486.300000
 20
2536.695900
 30
0.0
 10
486.229000
 20
2536.766900
 30
0.0
 10
486.229000
 20
2536.625900
 30
0.0
 10
486.300000
 20
2536.695900
 30
0.0
  0
SPLINE
  5
199
100
AcDbEntity
  8
Layer_1
 62
7
100
AcDbSpline
 70
8
 71
3
 72
8
 73
4
 74
0
 40
0
 40
0
 40
0
 40
0
 40
1
 40
1
 40
1
 40
1
 10
493.159000
 20
2543.555000
 30
0.0
 10
493.229000
 20
2543.626000
 30
0.0
 10
493.088000
 20
2543.626000
 30
0.0
 10
493.159000
 20
2543.555000
 30
0.0
  0
LWPOLYLINE
  5
19a
100
AcDbEntity
  8
Layer_1
 62
7
100
AcDbPolyline
 90
5
 70
1
 10
500.088000
 20
2536.625900
 30
0.0
 10
507.018000
 20
2529.695800
 30
0.0
 10
500.159000
 20
2522.836700
 30
0.0
 10
486.300000
 20
2536.695900
 30
0.0
 10
493.159000
 20
2543.555000
 30
0.0
  0
SPLINE
  5
19b
100
AcDbEntity
  8
Layer_1
 62
7
100
AcDbSpline
 70
8
 71
3
 72
8
 73
4
 74
0
 40
0
 40
0
 40
0
 40
0
 40
1
 40
1
 40
1
 40
1
 10
460.597000
 20
2547.409100
 30
0.0
 10
460.667000
 20
2547.480100
 30
0.0
 10
460.526000
 20
2547.480100
 30
0.0
 10
460.597000
 20
2547.409100
 30
0.0
  0
SPLINE
  5
19c
100
AcDbEntity
  8
Layer_1
 62
7
100
AcDbSpline
 70
8
 71
3
 72
8
 73
4
 74
0
 40
0
 40
0
 40
0
 40
0
 40
1
 40
1
 40
1
 40
1
 10
467.455000
 20
2540.550000
 30
0.0
 10
467.526000
 20
2540.479000
 30
0.0
 10
467.526000
 20
2540.621000
 30
0.0
 10
467.455000
 20
2540.550000
 30
0.0
  0
SPLINE
  5
19d
100
AcDbEntity
  8
Layer_1
 62
7
100
AcDbSpline
 70
8
 71
3
 72
8
 73
4
 74
0
 40
0
 40
0
 40
0
 40
0
 40
1
 40
1
 40
1
 40
1
 10
453.596000
 20
2526.690700
 30
0.0
 10
453.525000
 20
2526.619700
 30
0.0
 10
453.667000
 20
2526.619700
 30
0.0
 10
453.596000
 20
2526.690700
 30
0.0
  0
SPLINE
  5
19e
100
AcDbEntity
  8
Layer_1
 62
7
100
AcDbSpline
 70
8
 71
3
 72
8
 73
4
 74
0
 40
0
 40
0
 40
0
 40
0
 40
1
 40
1
 40
1
 40
1
 10
446.737000
 20
2533.549800
 30
0.0
 10
446.667000
 20
2533.619800
 30
0.0
 10
446.667000
 20
2533.478800
 30
0.0
 10
446.737000
 20
2533.549800
 30
0.0
  0
LWPOLYLINE
  5
19f
100
AcDbEntity
  8
Layer_1
 62
7
100
AcDbPolyline
 90
5
 70
1
 10
453.667000
 20
2540.479000
 30
0.0
 10
460.597000
 20
2547.409100
 30
0.0
 10
467.455000
 20
2540.550000
 30
0.0
 10
453.596000
 20
2526.690700
 30
0.0
 10
446.737000
 20
2533.549800
 30
0.0
  0
SPLINE
  5
1a0
100
AcDbEntity
  8
Layer_1
 62
7
100
AcDbSpline
 70
8
 71
3
 72
8
 73
4
 74
0
 40
0
 40
0
 40
0
 40
0
 40
1
 40
1
 40
1
 40
1
 10
439.595000
 20
2526.407700
 30
0.0
 10
439.666000
 20
2526.478700
 30
0.0
 10
439.525000
 20
2526.478700
 30
0.0
 10
439.595000
 20
2526.407700
 30
0.0
  0
SPLINE
  5
1a1
100
AcDbEntity
  8
Layer_1
 62
7
100
AcDbSpline
 70
8
 71
3
 72
8
 73
4
 74
0
 40
0
 40
0
 40
0
 40
0
 40
1
 40
1
 40
1
 40
1
 10
446.454000
 20
2519.548600
 30
0.0
 10
446.525000
 20
2519.477600
 30
0.0
 10
446.525000
 20
2519.619600
 30
0.0
 10
446.454000
 20
2519.548600
 30
0.0
  0
SPLINE
  5
1a2
100
AcDbEntity
  8
Layer_1
 62
7
100
AcDbSpline
 70
8
 71
3
 72
8
 73
4
 74
0
 40
0
 40
0
 40
0
 40
0
 40
1
 40
1
 40
1
 40
1
 10
432.595000
 20
2505.689400
 30
0.0
 10
432.524000
 20
2505.618400
 30
0.0
 10
432.666000
 20
2505.618400
 30
0.0
 10
432.595000
 20
2505.689400
 30
0.0
  0
SPLINE
  5
1a3
100
AcDbEntity
  8
Layer_1
 62
7
100
AcDbSpline
 70
8
 71
3
 72
8
 73
4
 74
0
 40
0
 40
0
 40
0
 40
0
 40
1
 40
1
 40
1
 40
1
 10
425.736000
 20
2512.548500
 30
0.0
 10
425.665000
 20
2512.618500
 30
0.0
 10
425.665000
 20
2512.477500
 30
0.0
 10
425.736000
 20
2512.548500
 30
0.0
  0
LWPOLYLINE
  5
1a4
100
AcDbEntity
  8
Layer_1
 62
7
100
AcDbPolyline
 90
5
 70
1
 10
432.666000
 20
2519.477600
 30
0.0
 10
439.595000
 20
2526.407700
 30
0.0
 10
446.454000
 20
2519.548600
 30
0.0
 10
432.595000
 20
2505.689400
 30
0.0
 10
425.736000
 20
2512.548500
 30
0.0
  0
SPLINE
  5
1a5
100
AcDbEntity
  8
Layer_1
 62
7
100
AcDbSpline
 70
8
 71
3
 72
8
 73
4
 74
0
 40
0
 40
0
 40
0
 40
0
 40
1
 40
1
 40
1
 40
1
 10
418.594000
 20
2505.406400
 30
0.0
 10
418.665000
 20
2505.476400
 30
0.0
 10
418.524000
 20
2505.476400
 30
0.0
 10
418.594000
 20
2505.406400
 30
0.0
  0
SPLINE
  5
1a6
100
AcDbEntity
  8
Layer_1
 62
7
100
AcDbSpline
 70
8
 71
3
 72
8
 73
4
 74
0
 40
0
 40
0
 40
0
 40
0
 40
1
 40
1
 40
1
 40
1
 10
425.453000
 20
2498.547300
 30
0.0
 10
425.524000
 20
2498.476300
 30
0.0
 10
425.524000
 20
2498.618300
 30
0.0
 10
425.453000
 20
2498.547300
 30
0.0
  0
SPLINE
  5
1a7
100
AcDbEntity
  8
Layer_1
 62
7
100
AcDbSpline
 70
8
 71
3
 72
8
 73
4
 74
0
 40
0
 40
0
 40
0
 40
0
 40
1
 40
1
 40
1
 40
1
 10
411.594000
 20
2484.688100
 30
0.0
 10
411.523000
 20
2484.617100
 30
0.0
 10
411.665000
 20
2484.617100
 30
0.0
 10
411.594000
 20
2484.688100
 30
0.0
  0
SPLINE
  5
1a8
100
AcDbEntity
  8
Layer_1
 62
7
100
AcDbSpline
 70
8
 71
3
 72
8
 73
4
 74
0
 40
0
 40
0
 40
0
 40
0
 40
1
 40
1
 40
1
 40
1
 10
404.735000
 20
2491.546200
 30
0.0
 10
404.664000
 20
2491.617200
 30
0.0
 10
404.664000
 20
2491.476200
 30
0.0
 10
404.735000
 20
2491.546200
 30
0.0
  0
LWPOLYLINE
  5
1a9
100
AcDbEntity
  8
Layer_1
 62
7
100
AcDbPolyline
 90
5
 70
1
 10
411.665000
 20
2498.476300
 30
0.0
 10
418.594000
 20
2505.406400
 30
0.0
 10
425.453000
 20
2498.547300
 30
0.0
 10
411.594000
 20
2484.688100
 30
0.0
 10
404.735000
 20
2491.546200
 30
0.0
  0
SPLINE
  5
1aa
100
AcDbEntity
  8
Layer_1
 62
7
100
AcDbSpline
 70
8
 71
3
 72
8
 73
4
 74
0
 40
0
 40
0
 40
0
 40
0
 40
1
 40
1
 40
1
 40
1
 10
401.412000
 20
2466.160800
 30
0.0
 10
401.341000
 20
2466.231800
 30
0.0
 10
401.341000
 20
2466.090800
 30
0.0
 10
401.412000
 20
2466.160800
 30
0.0
  0
SPLINE
  5
1ab
100
AcDbEntity
  8
Layer_1
 62
7
100
AcDbSpline
 70
8
 71
3
 72
8
 73
4
 74
0
 40
0
 40
0
 40
0
 40
0
 40
1
 40
1
 40
1
 40
1
 10
408.271000
 20
2473.019900
 30
0.0
 10
408.341000
 20
2473.090900
 30
0.0
 10
408.200000
 20
2473.090900
 30
0.0
 10
408.271000
 20
2473.019900
 30
0.0
  0
SPLINE
  5
1ac
100
AcDbEntity
  8
Layer_1
 62
7
100
AcDbSpline
 70
8
 71
3
 72
8
 73
4
 74
0
 40
0
 40
0
 40
0
 40
0
 40
1
 40
1
 40
1
 40
1
 10
422.130000
 20
2459.160700
 30
0.0
 10
422.201000
 20
2459.089700
 30
0.0
 10
422.201000
 20
2459.231700
 30
0.0
 10
422.130000
 20
2459.160700
 30
0.0
  0
SPLINE
  5
1ad
100
AcDbEntity
  8
Layer_1
 62
7
100
AcDbSpline
 70
8
 71
3
 72
8
 73
4
 74
0
 40
0
 40
0
 40
0
 40
0
 40
1
 40
1
 40
1
 40
1
 10
415.271000
 20
2452.301500
 30
0.0
 10
415.200000
 20
2452.230500
 30
0.0
 10
415.342000
 20
2452.230500
 30
0.0
 10
415.271000
 20
2452.301500
 30
0.0
  0
LWPOLYLINE
  5
1ae
100
AcDbEntity
  8
Layer_1
 62
7
100
AcDbPolyline
 90
5
 70
1
 10
408.341000
 20
2459.231700
 30
0.0
 10
401.412000
 20
2466.160800
 30
0.0
 10
408.271000
 20
2473.019900
 30
0.0
 10
422.130000
 20
2459.160700
 30
0.0
 10
415.271000
 20
2452.301500
 30
0.0
  0
SPLINE
  5
1af
100
AcDbEntity
  8
Layer_1
 62
7
100
AcDbSpline
 70
8
 71
3
 72
8
 73
4
 74
0
 40
0
 40
0
 40
0
 40
0
 40
1
 40
1
 40
1
 40
1
 10
422.413000
 20
2445.159400
 30
0.0
 10
422.342000
 20
2445.230400
 30
0.0
 10
422.342000
 20
2445.089400
 30
0.0
 10
422.413000
 20
2445.159400
 30
0.0
  0
SPLINE
  5
1b0
100
AcDbEntity
  8
Layer_1
 62
7
100
AcDbSpline
 70
8
 71
3
 72
8
 73
4
 74
0
 40
0
 40
0
 40
0
 40
0
 40
1
 40
1
 40
1
 40
1
 10
429.272000
 20
2452.018500
 30
0.0
 10
429.342000
 20
2452.089500
 30
0.0
 10
429.201000
 20
2452.089500
 30
0.0
 10
429.272000
 20
2452.018500
 30
0.0
  0
SPLINE
  5
1b1
100
AcDbEntity
  8
Layer_1
 62
7
100
AcDbSpline
 70
8
 71
3
 72
8
 73
4
 74
0
 40
0
 40
0
 40
0
 40
0
 40
1
 40
1
 40
1
 40
1
 10
443.131000
 20
2438.159300
 30
0.0
 10
443.202000
 20
2438.088300
 30
0.0
 10
443.202000
 20
2438.230300
 30
0.0
 10
443.131000
 20
2438.159300
 30
0.0
  0
SPLINE
  5
1b2
100
AcDbEntity
  8
Layer_1
 62
7
100
AcDbSpline
 70
8
 71
3
 72
8
 73
4
 74
0
 40
0
 40
0
 40
0
 40
0
 40
1
 40
1
 40
1
 40
1
 10
436.272000
 20
2431.300200
 30
0.0
 10
436.201000
 20
2431.229200
 30
0.0
 10
436.343000
 20
2431.229200
 30
0.0
 10
436.272000
 20
2431.300200
 30
0.0
  0
LWPOLYLINE
  5
1b3
100
AcDbEntity
  8
Layer_1
 62
7
100
AcDbPolyline
 90
5
 70
1
 10
429.342000
 20
2438.230300
 30
0.0
 10
422.413000
 20
2445.159400
 30
0.0
 10
429.272000
 20
2452.018500
 30
0.0
 10
443.131000
 20
2438.159300
 30
0.0
 10
436.272000
 20
2431.300200
 30
0.0
  0
SPLINE
  5
1b4
100
AcDbEntity
  8
Layer_1
 62
7
100
AcDbSpline
 70
8
 71
3
 72
8
 73
4
 74
0
 40
0
 40
0
 40
0
 40
0
 40
1
 40
1
 40
1
 40
1
 10
443.414000
 20
2424.158100
 30
0.0
 10
443.343000
 20
2424.229100
 30
0.0
 10
443.343000
 20
2424.087100
 30
0.0
 10
443.414000
 20
2424.158100
 30
0.0
  0
SPLINE
  5
1b5
100
AcDbEntity
  8
Layer_1
 62
7
100
AcDbSpline
 70
8
 71
3
 72
8
 73
4
 74
0
 40
0
 40
0
 40
0
 40
0
 40
1
 40
1
 40
1
 40
1
 10
450.273000
 20
2431.017200
 30
0.0
 10
450.343000
 20
2431.088200
 30
0.0
 10
450.202000
 20
2431.088200
 30
0.0
 10
450.273000
 20
2431.017200
 30
0.0
  0
SPLINE
  5
1b6
100
AcDbEntity
  8
Layer_1
 62
7
100
AcDbSpline
 70
8
 71
3
 72
8
 73
4
 74
0
 40
0
 40
0
 40
0
 40
0
 40
1
 40
1
 40
1
 40
1
 10
464.132000
 20
2417.158000
 30
0.0
 10
464.203000
 20
2417.087000
 30
0.0
 10
464.203000
 20
2417.229000
 30
0.0
 10
464.132000
 20
2417.158000
 30
0.0
  0
SPLINE
  5
1b7
100
AcDbEntity
  8
Layer_1
 62
7
100
AcDbSpline
 70
8
 71
3
 72
8
 73
4
 74
0
 40
0
 40
0
 40
0
 40
0
 40
1
 40
1
 40
1
 40
1
 10
457.273000
 20
2410.298900
 30
0.0
 10
457.202000
 20
2410.227900
 30
0.0
 10
457.344000
 20
2410.227900
 30
0.0
 10
457.273000
 20
2410.298900
 30
0.0
  0
LWPOLYLINE
  5
1b8
100
AcDbEntity
  8
Layer_1
 62
7
100
AcDbPolyline
 90
5
 70
1
 10
450.343000
 20
2417.229000
 30
0.0
 10
443.414000
 20
2424.158100
 30
0.0
 10
450.273000
 20
2431.017200
 30
0.0
 10
464.132000
 20
2417.158000
 30
0.0
 10
457.273000
 20
2410.298900
 30
0.0
  0
SPLINE
  5
1b9
100
AcDbEntity
  8
Layer_1
 62
7
100
AcDbSpline
 70
8
 71
3
 72
8
 73
4
 74
0
 40
0
 40
0
 40
0
 40
0
 40
1
 40
1
 40
1
 40
1
 10
464.415000
 20
2403.156800
 30
0.0
 10
464.344000
 20
2403.227800
 30
0.0
 10
464.344000
 20
2403.085800
 30
0.0
 10
464.415000
 20
2403.156800
 30
0.0
  0
SPLINE
  5
1ba
100
AcDbEntity
  8
Layer_1
 62
7
100
AcDbSpline
 70
8
 71
3
 72
8
 73
4
 74
0
 40
0
 40
0
 40
0
 40
0
 40
1
 40
1
 40
1
 40
1
 10
471.274000
 20
2410.015900
 30
0.0
 10
471.345000
 20
2410.086900
 30
0.0
 10
471.203000
 20
2410.086900
 30
0.0
 10
471.274000
 20
2410.015900
 30
0.0
  0
SPLINE
  5
1bb
100
AcDbEntity
  8
Layer_1
 62
7
100
AcDbSpline
 70
8
 71
3
 72
8
 73
4
 74
0
 40
0
 40
0
 40
0
 40
0
 40
1
 40
1
 40
1
 40
1
 10
485.133000
 20
2396.156600
 30
0.0
 10
485.204000
 20
2396.085600
 30
0.0
 10
485.204000
 20
2396.226600
 30
0.0
 10
485.133000
 20
2396.156600
 30
0.0
  0
SPLINE
  5
1bc
100
AcDbEntity
  8
Layer_1
 62
7
100
AcDbSpline
 70
8
 71
3
 72
8
 73
4
 74
0
 40
0
 40
0
 40
0
 40
0
 40
1
 40
1
 40
1
 40
1
 10
478.274000
 20
2389.297500
 30
0.0
 10
478.203000
 20
2389.226500
 30
0.0
 10
478.345000
 20
2389.226500
 30
0.0
 10
478.274000
 20
2389.297500
 30
0.0
  0
LWPOLYLINE
  5
1bd
100
AcDbEntity
  8
Layer_1
 62
7
100
AcDbPolyline
 90
5
 70
1
 10
471.345000
 20
2396.226700
 30
0.0
 10
464.415000
 20
2403.156800
 30
0.0
 10
471.274000
 20
2410.015900
 30
0.0
 10
485.133000
 20
2396.156600
 30
0.0
 10
478.274000
 20
2389.297500
 30
0.0
  0
SPLINE
  5
1be
100
AcDbEntity
  8
Layer_1
 62
7
100
AcDbSpline
 70
8
 71
3
 72
8
 73
4
 74
0
 40
0
 40
0
 40
0
 40
0
 40
1
 40
1
 40
1
 40
1
 10
485.416000
 20
2382.155400
 30
0.0
 10
485.345000
 20
2382.226400
 30
0.0
 10
485.345000
 20
2382.084400
 30
0.0
 10
485.416000
 20
2382.155400
 30
0.0
  0
SPLINE
  5
1bf
100
AcDbEntity
  8
Layer_1
 62
7
100
AcDbSpline
 70
8
 71
3
 72
8
 73
4
 74
0
 40
0
 40
0
 40
0
 40
0
 40
1
 40
1
 40
1
 40
1
 10
492.275000
 20
2389.014500
 30
0.0
 10
492.346000
 20
2389.085500
 30
0.0
 10
492.204000
 20
2389.085500
 30
0.0
 10
492.275000
 20
2389.014500
 30
0.0
  0
SPLINE
  5
1c0
100
AcDbEntity
  8
Layer_1
 62
7
100
AcDbSpline
 70
8
 71
3
 72
8
 73
4
 74
0
 40
0
 40
0
 40
0
 40
0
 40
1
 40
1
 40
1
 40
1
 10
506.134000
 20
2375.155300
 30
0.0
 10
506.205000
 20
2375.084300
 30
0.0
 10
506.205000
 20
2375.225300
 30
0.0
 10
506.134000
 20
2375.155300
 30
0.0
  0
SPLINE
  5
1c1
100
AcDbEntity
  8
Layer_1
 62
7
100
AcDbSpline
 70
8
 71
3
 72
8
 73
4
 74
0
 40
0
 40
0
 40
0
 40
0
 40
1
 40
1
 40
1
 40
1
 10
499.275000
 20
2368.296200
 30
0.0
 10
499.205000
 20
2368.225200
 30
0.0
 10
499.346000
 20
2368.225200
 30
0.0
 10
499.275000
 20
2368.296200
 30
0.0
  0
LWPOLYLINE
  5
1c2
100
AcDbEntity
  8
Layer_1
 62
7
100
AcDbPolyline
 90
5
 70
1
 10
492.346000
 20
2375.225300
 30
0.0
 10
485.416000
 20
2382.155400
 30
0.0
 10
492.275000
 20
2389.014500
 30
0.0
 10
506.134000
 20
2375.155300
 30
0.0
 10
499.275000
 20
2368.296200
 30
0.0
  0
SPLINE
  5
1c3
100
AcDbEntity
  8
Layer_1
 62
7
100
AcDbSpline
 70
8
 71
3
 72
8
 73
4
 74
0
 40
0
 40
0
 40
0
 40
0
 40
1
 40
1
 40
1
 40
1
 10
198.082000
 20
2154.815800
 30
0.0
 10
198.179000
 20
2154.841800
 30
0.0
 10
198.056000
 20
2154.912800
 30
0.0
 10
198.082000
 20
2154.815800
 30
0.0
  0
SPLINE
  5
1c4
100
AcDbEntity
  8
Layer_1
 62
7
100
AcDbSpline
 70
8
 71
3
 72
8
 73
4
 74
0
 40
0
 40
0
 40
0
 40
0
 40
1
 40
1
 40
1
 40
1
 10
200.593000
 20
2145.446600
 30
0.0
 10
200.618000
 20
2145.349600
 30
0.0
 10
200.689000
 20
2145.472600
 30
0.0
 10
200.593000
 20
2145.446600
 30
0.0
  0
SPLINE
  5
1c5
100
AcDbEntity
  8
Layer_1
 62
7
100
AcDbSpline
 70
8
 71
3
 72
8
 73
4
 74
0
 40
0
 40
0
 40
0
 40
0
 40
1
 40
1
 40
1
 40
1
 10
181.660000
 20
2140.373600
 30
0.0
 10
181.564000
 20
2140.347600
 30
0.0
 10
181.686000
 20
2140.276600
 30
0.0
 10
181.660000
 20
2140.373600
 30
0.0
  0
SPLINE
  5
1c6
100
AcDbEntity
  8
Layer_1
 62
7
100
AcDbSpline
 70
8
 71
3
 72
8
 73
4
 74
0
 40
0
 40
0
 40
0
 40
0
 40
1
 40
1
 40
1
 40
1
 10
179.150000
 20
2149.742700
 30
0.0
 10
179.124000
 20
2149.839700
 30
0.0
 10
179.053000
 20
2149.716700
 30
0.0
 10
179.150000
 20
2149.742700
 30
0.0
  0
LWPOLYLINE
  5
1c7
100
AcDbEntity
  8
Layer_1
 62
7
100
AcDbPolyline
 90
5
 70
1
 10
188.616000
 20
2152.279700
 30
0.0
 10
198.082000
 20
2154.815800
 30
0.0
 10
200.593000
 20
2145.446600
 30
0.0
 10
181.660000
 20
2140.373600
 30
0.0
 10
179.150000
 20
2149.742700
 30
0.0
  0
SPLINE
  5
1c8
100
AcDbEntity
  8
Layer_1
 62
7
100
AcDbSpline
 70
8
 71
3
 72
8
 73
4
 74
0
 40
0
 40
0
 40
0
 40
0
 40
1
 40
1
 40
1
 40
1
 10
169.394000
 20
2147.128700
 30
0.0
 10
169.491000
 20
2147.154700
 30
0.0
 10
169.368000
 20
2147.225700
 30
0.0
 10
169.394000
 20
2147.128700
 30
0.0
  0
SPLINE
  5
1c9
100
AcDbEntity
  8
Layer_1
 62
7
100
AcDbSpline
 70
8
 71
3
 72
8
 73
4
 74
0
 40
0
 40
0
 40
0
 40
0
 40
1
 40
1
 40
1
 40
1
 10
171.905000
 20
2137.759500
 30
0.0
 10
171.930000
 20
2137.662500
 30
0.0
 10
172.001000
 20
2137.785500
 30
0.0
 10
171.905000
 20
2137.759500
 30
0.0
  0
SPLINE
  5
1ca
100
AcDbEntity
  8
Layer_1
 62
7
100
AcDbSpline
 70
8
 71
3
 72
8
 73
4
 74
0
 40
0
 40
0
 40
0
 40
0
 40
1
 40
1
 40
1
 40
1
 10
152.972000
 20
2132.686400
 30
0.0
 10
152.876000
 20
2132.660400
 30
0.0
 10
152.998000
 20
2132.589400
 30
0.0
 10
152.972000
 20
2132.686400
 30
0.0
  0
SPLINE
  5
1cb
100
AcDbEntity
  8
Layer_1
 62
7
100
AcDbSpline
 70
8
 71
3
 72
8
 73
4
 74
0
 40
0
 40
0
 40
0
 40
0
 40
1
 40
1
 40
1
 40
1
 10
150.462000
 20
2142.055600
 30
0.0
 10
150.436000
 20
2142.152600
 30
0.0
 10
150.365000
 20
2142.030600
 30
0.0
 10
150.462000
 20
2142.055600
 30
0.0
  0
LWPOLYLINE
  5
1cc
100
AcDbEntity
  8
Layer_1
 62
7
100
AcDbPolyline
 90
5
 70
1
 10
159.928000
 20
2144.592600
 30
0.0
 10
169.394000
 20
2147.128700
 30
0.0
 10
171.905000
 20
2137.759500
 30
0.0
 10
152.972000
 20
2132.686400
 30
0.0
 10
150.462000
 20
2142.055600
 30
0.0
  0
SPLINE
  5
1cd
100
AcDbEntity
  8
Layer_1
 62
7
100
AcDbSpline
 70
8
 71
3
 72
8
 73
4
 74
0
 40
0
 40
0
 40
0
 40
0
 40
1
 40
1
 40
1
 40
1
 10
140.706000
 20
2139.441500
 30
0.0
 10
140.803000
 20
2139.467500
 30
0.0
 10
140.680000
 20
2139.538500
 30
0.0
 10
140.706000
 20
2139.441500
 30
0.0
  0
SPLINE
  5
1ce
100
AcDbEntity
  8
Layer_1
 62
7
100
AcDbSpline
 70
8
 71
3
 72
8
 73
4
 74
0
 40
0
 40
0
 40
0
 40
0
 40
1
 40
1
 40
1
 40
1
 10
143.217000
 20
2130.072400
 30
0.0
 10
143.242000
 20
2129.975400
 30
0.0
 10
143.313000
 20
2130.098400
 30
0.0
 10
143.217000
 20
2130.072400
 30
0.0
  0
SPLINE
  5
1cf
100
AcDbEntity
  8
Layer_1
 62
7
100
AcDbSpline
 70
8
 71
3
 72
8
 73
4
 74
0
 40
0
 40
0
 40
0
 40
0
 40
1
 40
1
 40
1
 40
1
 10
124.284000
 20
2124.999300
 30
0.0
 10
124.188000
 20
2124.973300
 30
0.0
 10
124.310000
 20
2124.902300
 30
0.0
 10
124.284000
 20
2124.999300
 30
0.0
  0
SPLINE
  5
1d0
100
AcDbEntity
  8
Layer_1
 62
7
100
AcDbSpline
 70
8
 71
3
 72
8
 73
4
 74
0
 40
0
 40
0
 40
0
 40
0
 40
1
 40
1
 40
1
 40
1
 10
121.774000
 20
2134.368500
 30
0.0
 10
121.748000
 20
2134.465500
 30
0.0
 10
121.677000
 20
2134.343500
 30
0.0
 10
121.774000
 20
2134.368500
 30
0.0
  0
LWPOLYLINE
  5
1d1
100
AcDbEntity
  8
Layer_1
 62
7
100
AcDbPolyline
 90
5
 70
1
 10
131.240000
 20
2136.905500
 30
0.0
 10
140.706000
 20
2139.441500
 30
0.0
 10
143.217000
 20
2130.072400
 30
0.0
 10
124.284000
 20
2124.999300
 30
0.0
 10
121.774000
 20
2134.368500
 30
0.0
  0
SPLINE
  5
1d2
100
AcDbEntity
  8
Layer_1
 62
7
100
AcDbSpline
 70
8
 71
3
 72
8
 73
4
 74
0
 40
0
 40
0
 40
0
 40
0
 40
1
 40
1
 40
1
 40
1
 10
112.018000
 20
2131.754400
 30
0.0
 10
112.115000
 20
2131.780400
 30
0.0
 10
111.992000
 20
2131.851400
 30
0.0
 10
112.018000
 20
2131.754400
 30
0.0
  0
SPLINE
  5
1d3
100
AcDbEntity
  8
Layer_1
 62
7
100
AcDbSpline
 70
8
 71
3
 72
8
 73
4
 74
0
 40
0
 40
0
 40
0
 40
0
 40
1
 40
1
 40
1
 40
1
 10
114.529000
 20
2122.385300
 30
0.0
 10
114.554000
 20
2122.288300
 30
0.0
 10
114.625000
 20
2122.411300
 30
0.0
 10
114.529000
 20
2122.385300
 30
0.0
  0
SPLINE
  5
1d4
100
AcDbEntity
  8
Layer_1
 62
7
100
AcDbSpline
 70
8
 71
3
 72
8
 73
4
 74
0
 40
0
 40
0
 40
0
 40
0
 40
1
 40
1
 40
1
 40
1
 10
95.596000
 20
2117.312200
 30
0.0
 10
95.500000
 20
2117.286200
 30
0.0
 10
95.622000
 20
2117.215200
 30
0.0
 10
95.596000
 20
2117.312200
 30
0.0
  0
SPLINE
  5
1d5
100
AcDbEntity
  8
Layer_1
 62
7
100
AcDbSpline
 70
8
 71
3
 72
8
 73
4
 74
0
 40
0
 40
0
 40
0
 40
0
 40
1
 40
1
 40
1
 40
1
 10
93.086000
 20
2126.682300
 30
0.0
 10
93.060000
 20
2126.778300
 30
0.0
 10
92.989000
 20
2126.656300
 30
0.0
 10
93.086000
 20
2126.682300
 30
0.0
  0
LWPOLYLINE
  5
1d6
100
AcDbEntity
  8
Layer_1
 62
7
100
AcDbPolyline
 90
5
 70
1
 10
102.552000
 20
2129.218400
 30
0.0
 10
112.018000
 20
2131.754400
 30
0.0
 10
114.529000
 20
2122.385300
 30
0.0
 10
95.596000
 20
2117.312200
 30
0.0
 10
93.086000
 20
2126.682300
 30
0.0
  0
SPLINE
  5
1d7
100
AcDbEntity
  8
Layer_1
 62
7
100
AcDbSpline
 70
8
 71
3
 72
8
 73
4
 74
0
 40
0
 40
0
 40
0
 40
0
 40
1
 40
1
 40
1
 40
1
 10
83.330000
 20
2124.067300
 30
0.0
 10
83.427000
 20
2124.093300
 30
0.0
 10
83.304000
 20
2124.164300
 30
0.0
 10
83.330000
 20
2124.067300
 30
0.0
  0
SPLINE
  5
1d8
100
AcDbEntity
  8
Layer_1
 62
7
100
AcDbSpline
 70
8
 71
3
 72
8
 73
4
 74
0
 40
0
 40
0
 40
0
 40
0
 40
1
 40
1
 40
1
 40
1
 10
85.841000
 20
2114.698100
 30
0.0
 10
85.866000
 20
2114.601100
 30
0.0
 10
85.937000
 20
2114.724100
 30
0.0
 10
85.841000
 20
2114.698100
 30
0.0
  0
SPLINE
  5
1d9
100
AcDbEntity
  8
Layer_1
 62
7
100
AcDbSpline
 70
8
 71
3
 72
8
 73
4
 74
0
 40
0
 40
0
 40
0
 40
0
 40
1
 40
1
 40
1
 40
1
 10
66.908000
 20
2109.625100
 30
0.0
 10
66.812000
 20
2109.599100
 30
0.0
 10
66.934000
 20
2109.529100
 30
0.0
 10
66.908000
 20
2109.625100
 30
0.0
  0
SPLINE
  5
1da
100
AcDbEntity
  8
Layer_1
 62
7
100
AcDbSpline
 70
8
 71
3
 72
8
 73
4
 74
0
 40
0
 40
0
 40
0
 40
0
 40
1
 40
1
 40
1
 40
1
 10
64.398000
 20
2118.995200
 30
0.0
 10
64.372000
 20
2119.091200
 30
0.0
 10
64.301000
 20
2118.969200
 30
0.0
 10
64.398000
 20
2118.995200
 30
0.0
  0
LWPOLYLINE
  5
1db
100
AcDbEntity
  8
Layer_1
 62
7
100
AcDbPolyline
 90
5
 70
1
 10
73.864000
 20
2121.531300
 30
0.0
 10
83.330000
 20
2124.067300
 30
0.0
 10
85.841000
 20
2114.698100
 30
0.0
 10
66.908000
 20
2109.625100
 30
0.0
 10
64.398000
 20
2118.995200
 30
0.0
  0
SPLINE
  5
1dc
100
AcDbEntity
  8
Layer_1
 62
7
100
AcDbSpline
 70
8
 71
3
 72
8
 73
4
 74
0
 40
0
 40
0
 40
0
 40
0
 40
1
 40
1
 40
1
 40
1
 10
54.642000
 20
2116.381200
 30
0.0
 10
54.739000
 20
2116.406200
 30
0.0
 10
54.616000
 20
2116.477200
 30
0.0
 10
54.642000
 20
2116.381200
 30
0.0
  0
SPLINE
  5
1dd
100
AcDbEntity
  8
Layer_1
 62
7
100
AcDbSpline
 70
8
 71
3
 72
8
 73
4
 74
0
 40
0
 40
0
 40
0
 40
0
 40
1
 40
1
 40
1
 40
1
 10
57.153000
 20
2107.011000
 30
0.0
 10
57.178000
 20
2106.914000
 30
0.0
 10
57.249000
 20
2107.037000
 30
0.0
 10
57.153000
 20
2107.011000
 30
0.0
  0
SPLINE
  5
1de
100
AcDbEntity
  8
Layer_1
 62
7
100
AcDbSpline
 70
8
 71
3
 72
8
 73
4
 74
0
 40
0
 40
0
 40
0
 40
0
 40
1
 40
1
 40
1
 40
1
 10
38.220000
 20
2101.937900
 30
0.0
 10
38.124000
 20
2101.911900
 30
0.0
 10
38.246000
 20
2101.841900
 30
0.0
 10
38.220000
 20
2101.937900
 30
0.0
  0
SPLINE
  5
1df
100
AcDbEntity
  8
Layer_1
 62
7
100
AcDbSpline
 70
8
 71
3
 72
8
 73
4
 74
0
 40
0
 40
0
 40
0
 40
0
 40
1
 40
1
 40
1
 40
1
 10
35.710000
 20
2111.308100
 30
0.0
 10
35.684000
 20
2111.404100
 30
0.0
 10
35.613000
 20
2111.282100
 30
0.0
 10
35.710000
 20
2111.308100
 30
0.0
  0
LWPOLYLINE
  5
1e0
100
AcDbEntity
  8
Layer_1
 62
7
100
AcDbPolyline
 90
5
 70
1
 10
45.176000
 20
2113.844100
 30
0.0
 10
54.642000
 20
2116.381200
 30
0.0
 10
57.153000
 20
2107.011000
 30
0.0
 10
38.220000
 20
2101.937900
 30
0.0
 10
35.710000
 20
2111.308100
 30
0.0
  0
SPLINE
  5
1e1
100
AcDbEntity
  8
Layer_1
 62
7
100
AcDbSpline
 70
8
 71
3
 72
8
 73
4
 74
0
 40
0
 40
0
 40
0
 40
0
 40
1
 40
1
 40
1
 40
1
 10
210.396000
 20
2132.233400
 30
0.0
 10
210.371000
 20
2132.329400
 30
0.0
 10
210.300000
 20
2132.207400
 30
0.0
 10
210.396000
 20
2132.233400
 30
0.0
  0
SPLINE
  5
1e2
100
AcDbEntity
  8
Layer_1
 62
7
100
AcDbSpline
 70
8
 71
3
 72
8
 73
4
 74
0
 40
0
 40
0
 40
0
 40
0
 40
1
 40
1
 40
1
 40
1
 10
219.766000
 20
2134.743500
 30
0.0
 10
219.862000
 20
2134.769500
 30
0.0
 10
219.740000
 20
2134.840500
 30
0.0
 10
219.766000
 20
2134.743500
 30
0.0
  0
SPLINE
  5
1e3
100
AcDbEntity
  8
Layer_1
 62
7
100
AcDbSpline
 70
8
 71
3
 72
8
 73
4
 74
0
 40
0
 40
0
 40
0
 40
0
 40
1
 40
1
 40
1
 40
1
 10
224.839000
 20
2115.811200
 30
0.0
 10
224.865000
 20
2115.715200
 30
0.0
 10
224.935000
 20
2115.837200
 30
0.0
 10
224.839000
 20
2115.811200
 30
0.0
  0
SPLINE
  5
1e4
100
AcDbEntity
  8
Layer_1
 62
7
100
AcDbSpline
 70
8
 71
3
 72
8
 73
4
 74
0
 40
0
 40
0
 40
0
 40
0
 40
1
 40
1
 40
1
 40
1
 10
215.469000
 20
2113.301100
 30
0.0
 10
215.373000
 20
2113.275100
 30
0.0
 10
215.495000
 20
2113.204100
 30
0.0
 10
215.469000
 20
2113.301100
 30
0.0
  0
LWPOLYLINE
  5
1e5
100
AcDbEntity
  8
Layer_1
 62
7
100
AcDbPolyline
 90
5
 70
1
 10
212.933000
 20
2122.767300
 30
0.0
 10
210.396000
 20
2132.233400
 30
0.0
 10
219.766000
 20
2134.743500
 30
0.0
 10
224.839000
 20
2115.811200
 30
0.0
 10
215.469000
 20
2113.301100
 30
0.0
  0
SPLINE
  5
1e6
100
AcDbEntity
  8
Layer_1
 62
7
100
AcDbSpline
 70
8
 71
3
 72
8
 73
4
 74
0
 40
0
 40
0
 40
0
 40
0
 40
1
 40
1
 40
1
 40
1
 10
24.495000
 20
2092.307800
 30
0.0
 10
24.469000
 20
2092.403800
 30
0.0
 10
24.399000
 20
2092.281800
 30
0.0
 10
24.495000
 20
2092.307800
 30
0.0
  0
SPLINE
  5
1e7
100
AcDbEntity
  8
Layer_1
 62
7
100
AcDbSpline
 70
8
 71
3
 72
8
 73
4
 74
0
 40
0
 40
0
 40
0
 40
0
 40
1
 40
1
 40
1
 40
1
 10
33.865000
 20
2094.817800
 30
0.0
 10
33.961000
 20
2094.843800
 30
0.0
 10
33.839000
 20
2094.914800
 30
0.0
 10
33.865000
 20
2094.817800
 30
0.0
  0
SPLINE
  5
1e8
100
AcDbEntity
  8
Layer_1
 62
7
100
AcDbSpline
 70
8
 71
3
 72
8
 73
4
 74
0
 40
0
 40
0
 40
0
 40
0
 40
1
 40
1
 40
1
 40
1
 10
38.938000
 20
2075.885500
 30
0.0
 10
38.964000
 20
2075.789500
 30
0.0
 10
39.034000
 20
2075.911500
 30
0.0
 10
38.938000
 20
2075.885500
 30
0.0
  0
SPLINE
  5
1e9
100
AcDbEntity
  8
Layer_1
 62
7
100
AcDbSpline
 70
8
 71
3
 72
8
 73
4
 74
0
 40
0
 40
0
 40
0
 40
0
 40
1
 40
1
 40
1
 40
1
 10
29.568000
 20
2073.375500
 30
0.0
 10
29.472000
 20
2073.349500
 30
0.0
 10
29.594000
 20
2073.278500
 30
0.0
 10
29.568000
 20
2073.375500
 30
0.0
  0
LWPOLYLINE
  5
1ea
100
AcDbEntity
  8
Layer_1
 62
7
100
AcDbPolyline
 90
5
 70
1
 10
27.032000
 20
2082.841600
 30
0.0
 10
24.495000
 20
2092.307800
 30
0.0
 10
33.865000
 20
2094.817800
 30
0.0
 10
38.938000
 20
2075.885500
 30
0.0
 10
29.568000
 20
2073.375500
 30
0.0
  0
SPLINE
  5
1eb
100
AcDbEntity
  8
Layer_1
 62
7
100
AcDbSpline
 70
8
 71
3
 72
8
 73
4
 74
0
 40
0
 40
0
 40
0
 40
0
 40
1
 40
1
 40
1
 40
1
 10
32.182000
 20
2063.619300
 30
0.0
 10
32.156000
 20
2063.715300
 30
0.0
 10
32.086000
 20
2063.593300
 30
0.0
 10
32.182000
 20
2063.619300
 30
0.0
  0
SPLINE
  5
1ec
100
AcDbEntity
  8
Layer_1
 62
7
100
AcDbSpline
 70
8
 71
3
 72
8
 73
4
 74
0
 40
0
 40
0
 40
0
 40
0
 40
1
 40
1
 40
1
 40
1
 10
41.552000
 20
2066.129400
 30
0.0
 10
41.648000
 20
2066.155400
 30
0.0
 10
41.526000
 20
2066.226400
 30
0.0
 10
41.552000
 20
2066.129400
 30
0.0
  0
SPLINE
  5
1ed
100
AcDbEntity
  8
Layer_1
 62
7
100
AcDbSpline
 70
8
 71
3
 72
8
 73
4
 74
0
 40
0
 40
0
 40
0
 40
0
 40
1
 40
1
 40
1
 40
1
 10
46.625000
 20
2047.197100
 30
0.0
 10
46.650000
 20
2047.101100
 30
0.0
 10
46.721000
 20
2047.223100
 30
0.0
 10
46.625000
 20
2047.197100
 30
0.0
  0
SPLINE
  5
1ee
100
AcDbEntity
  8
Layer_1
 62
7
100
AcDbSpline
 70
8
 71
3
 72
8
 73
4
 74
0
 40
0
 40
0
 40
0
 40
0
 40
1
 40
1
 40
1
 40
1
 10
37.255000
 20
2044.687000
 30
0.0
 10
37.159000
 20
2044.661000
 30
0.0
 10
37.281000
 20
2044.590000
 30
0.0
 10
37.255000
 20
2044.687000
 30
0.0
  0
LWPOLYLINE
  5
1ef
100
AcDbEntity
  8
Layer_1
 62
7
100
AcDbPolyline
 90
5
 70
1
 10
34.719000
 20
2054.153200
 30
0.0
 10
32.182000
 20
2063.619300
 30
0.0
 10
41.552000
 20
2066.129400
 30
0.0
 10
46.625000
 20
2047.197100
 30
0.0
 10
37.255000
 20
2044.687000
 30
0.0
  0
SPLINE
  5
1f0
100
AcDbEntity
  8
Layer_1
 62
7
100
AcDbSpline
 70
8
 71
3
 72
8
 73
4
 74
0
 40
0
 40
0
 40
0
 40
0
 40
1
 40
1
 40
1
 40
1
 10
39.869000
 20
2034.930900
 30
0.0
 10
39.843000
 20
2035.026900
 30
0.0
 10
39.773000
 20
2034.904900
 30
0.0
 10
39.869000
 20
2034.930900
 30
0.0
  0
SPLINE
  5
1f1
100
AcDbEntity
  8
Layer_1
 62
7
100
AcDbSpline
 70
8
 71
3
 72
8
 73
4
 74
0
 40
0
 40
0
 40
0
 40
0
 40
1
 40
1
 40
1
 40
1
 10
49.239000
 20
2037.440900
 30
0.0
 10
49.335000
 20
2037.466900
 30
0.0
 10
49.213000
 20
2037.537900
 30
0.0
 10
49.239000
 20
2037.440900
 30
0.0
  0
SPLINE
  5
1f2
100
AcDbEntity
  8
Layer_1
 62
7
100
AcDbSpline
 70
8
 71
3
 72
8
 73
4
 74
0
 40
0
 40
0
 40
0
 40
0
 40
1
 40
1
 40
1
 40
1
 10
54.312000
 20
2018.508600
 30
0.0
 10
54.337000
 20
2018.412600
 30
0.0
 10
54.408000
 20
2018.534600
 30
0.0
 10
54.312000
 20
2018.508600
 30
0.0
  0
SPLINE
  5
1f3
100
AcDbEntity
  8
Layer_1
 62
7
100
AcDbSpline
 70
8
 71
3
 72
8
 73
4
 74
0
 40
0
 40
0
 40
0
 40
0
 40
1
 40
1
 40
1
 40
1
 10
44.942000
 20
2015.998600
 30
0.0
 10
44.845000
 20
2015.972600
 30
0.0
 10
44.968000
 20
2015.901600
 30
0.0
 10
44.942000
 20
2015.998600
 30
0.0
  0
LWPOLYLINE
  5
1f4
100
AcDbEntity
  8
Layer_1
 62
7
100
AcDbPolyline
 90
5
 70
1
 10
42.406000
 20
2025.464700
 30
0.0
 10
39.869000
 20
2034.930900
 30
0.0
 10
49.239000
 20
2037.440900
 30
0.0
 10
54.312000
 20
2018.508600
 30
0.0
 10
44.942000
 20
2015.998600
 30
0.0
  0
SPLINE
  5
1f5
100
AcDbEntity
  8
Layer_1
 62
7
100
AcDbSpline
 70
8
 71
3
 72
8
 73
4
 74
0
 40
0
 40
0
 40
0
 40
0
 40
1
 40
1
 40
1
 40
1
 10
47.556000
 20
2006.242400
 30
0.0
 10
47.530000
 20
2006.338400
 30
0.0
 10
47.460000
 20
2006.216400
 30
0.0
 10
47.556000
 20
2006.242400
 30
0.0
  0
SPLINE
  5
1f6
100
AcDbEntity
  8
Layer_1
 62
7
100
AcDbSpline
 70
8
 71
3
 72
8
 73
4
 74
0
 40
0
 40
0
 40
0
 40
0
 40
1
 40
1
 40
1
 40
1
 10
56.926000
 20
2008.752500
 30
0.0
 10
57.022000
 20
2008.778500
 30
0.0
 10
56.900000
 20
2008.849500
 30
0.0
 10
56.926000
 20
2008.752500
 30
0.0
  0
SPLINE
  5
1f7
100
AcDbEntity
  8
Layer_1
 62
7
100
AcDbSpline
 70
8
 71
3
 72
8
 73
4
 74
0
 40
0
 40
0
 40
0
 40
0
 40
1
 40
1
 40
1
 40
1
 10
61.998000
 20
1989.820100
 30
0.0
 10
62.024000
 20
1989.724100
 30
0.0
 10
62.095000
 20
1989.846100
 30
0.0
 10
61.998000
 20
1989.820100
 30
0.0
  0
SPLINE
  5
1f8
100
AcDbEntity
  8
Layer_1
 62
7
100
AcDbSpline
 70
8
 71
3
 72
8
 73
4
 74
0
 40
0
 40
0
 40
0
 40
0
 40
1
 40
1
 40
1
 40
1
 10
52.629000
 20
1987.310100
 30
0.0
 10
52.532000
 20
1987.284100
 30
0.0
 10
52.655000
 20
1987.213100
 30
0.0
 10
52.629000
 20
1987.310100
 30
0.0
  0
LWPOLYLINE
  5
1f9
100
AcDbEntity
  8
Layer_1
 62
7
100
AcDbPolyline
 90
5
 70
1
 10
50.093000
 20
1996.776300
 30
0.0
 10
47.556000
 20
2006.242400
 30
0.0
 10
56.926000
 20
2008.752500
 30
0.0
 10
61.998000
 20
1989.820100
 30
0.0
 10
52.629000
 20
1987.310100
 30
0.0
  0
ENDSEC
  0
SECTION
  2
OBJECTS
  0
DICTIONARY
  5
C
330
0
100
AcDbDictionary
  3
ACAD_GROUP
350
D
  3
ACAD_MLINESTYLE
350
17
  0
DICTIONARY
  5
D
330
C
100
AcDbDictionary
  0
DICTIONARY
  5
1A
330
C
100
AcDbDictionary
  0
DICTIONARY
  5
17
330
C
100
AcDbDictionary
  3
STANDARD
350
18
  0
DICTIONARY
  5
19
330
C
100
AcDbDictionary
  0
ENDSEC
  0
EOF
