  0
SECTION
  2
HEADER
  9
$ACADVER
  1
AC1014
  9
$HANDSEED
  5
FFFF
  9
$MEASUREMENT
 70
     1
  0
ENDSEC
  0
SECTION
  2
TABLES
  0
TABLE
  2
VPORT
  5
8
330
0
100
AcDbSymbolTable
 70
     4
  0
VPORT
  5
2E
330
8
100
AcDbSymbolTableRecord
100
AcDbViewportTableRecord
  2
*ACTIVE
 70
     0
 10
0.0
 20
0.0
 11
1.0
 21
1.0
 12
210.0
 22
148.5
 13
0.0
 23
0.0
 14
10.0
 24
10.0
 15
10.0
 25
10.0
 16
0.0
 26
0.0
 36
1.0
 17
0.0
 27
0.0
 37
0.0
 40
341.0
 41
1.24
 42
50.0
 43
0.0
 44
0.0
 50
0.0
 51
0.0
 71
     0
 72
   100
 73
     1
 74
     3
 75
     0
 76
     0
 77
     0
 78
     0
  0
ENDTAB
  0
TABLE
  2
LTYPE
  5
5
330
0
100
AcDbSymbolTable
 70
     1
  0
LTYPE
  5
14
330
5
100
AcDbSymbolTableRecord
100
AcDbLinetypeTableRecord
  2
BYBLOCK
 70
     0
  3

 72
    65
 73
     0
 40
0.0
  0
LTYPE
  5
15
330
5
100
AcDbSymbolTableRecord
100
AcDbLinetypeTableRecord
  2
BYLAYER
 70
     0
  3

 72
    65
 73
     0
 40
0.0
  0
LTYPE
  5
16
330
5
100
AcDbSymbolTableRecord
100
AcDbLinetypeTableRecord
  2
CONTINUOUS
 70
     0
  3
Solid line
 72
    65
 73
     0
 40
0.0
  0
ENDTAB
  0
TABLE
  2
LAYER
  5
2
100
AcDbSymbolTable
 70
2
  0
LAYER
  5
50
100
AcDbSymbolTableRecord
100
AcDbLayerTableRecord
  2
0
 70
0
  6
CONTINUOUS
  0
LAYER
  5
51
100
AcDbSymbolTableRecord
100
AcDbLayerTableRecord
  2
Layer_1
 70
0
  6
CONTINUOUS
  0
ENDTAB
  0
TABLE
  2
STYLE
  5
3
330
0
100
AcDbSymbolTable
 70
     1
  0
STYLE
  5
11
330
3
100
AcDbSymbolTableRecord
100
AcDbTextStyleTableRecord
  2
STANDARD
 70
     0
 40
0.0
 41
1.0
 50
0.0
 71
     0
 42
2.5
  3
txt
  4

  0
ENDTAB
  0
TABLE
  2
VIEW
  5
6
330
0
100
AcDbSymbolTable
 70
     0
  0
ENDTAB
  0
TABLE
  2
UCS
  5
7
330
0
100
AcDbSymbolTable
 70
     0
  0
ENDTAB
  0
TABLE
  2
APPID
  5
9
330
0
100
AcDbSymbolTable
 70
     2
  0
APPID
  5
12
330
9
100
AcDbSymbolTableRecord
100
AcDbRegAppTableRecord
  2
ACAD
 70
     0
  0
ENDTAB
  0
TABLE
  2
DIMSTYLE
  5
A
330
0
100
AcDbSymbolTable
 70
     1
  0
DIMSTYLE
105
27
330
A
100
AcDbSymbolTableRecord
100
AcDbDimStyleTableRecord
  2
ISO-25
 70
     0
  3

  4

  5

  6

  7

 40
1.0
 41
2.5
 42
0.625
 43
3.75
 44
1.25
 45
0.0
 46
0.0
 47
0.0
 48
0.0
140
2.5
141
2.5
142
0.0
143
0.03937007874016
144
1.0
145
0.0
146
1.0
147
0.625
 71
     0
 72
     0
 73
     0
 74
     0
 75
     0
 76
     0
 77
     1
 78
     8
170
     0
171
     3
172
     1
173
     0
174
     0
175
     0
176
     0
177
     0
178
     0
270
     2
271
     2
272
     2
273
     2
274
     3
340
11
275
     0
280
     0
281
     0
282
     0
283
     0
284
     8
285
     0
286
     0
287
     3
288
     0
  0
ENDTAB
  0
TABLE
  2
BLOCK_RECORD
  5
1
330
0
100
AcDbSymbolTable
 70
     1
  0
BLOCK_RECORD
  5
1F
330
1
100
AcDbSymbolTableRecord
100
AcDbBlockTableRecord
  2
*MODEL_SPACE
  0
BLOCK_RECORD
  5
1B
330
1
100
AcDbSymbolTableRecord
100
AcDbBlockTableRecord
  2
*PAPER_SPACE
  0
ENDTAB
  0
ENDSEC
  0
SECTION
  2
BLOCKS
  0
BLOCK
  5
20
330
1F
100
AcDbEntity
  8
0
100
AcDbBlockBegin
  2
*MODEL_SPACE
 70
     0
 10
0.0
 20
0.0
 30
0.0
  3
*MODEL_SPACE
  1

  0
ENDBLK
  5
21
330
1F
100
AcDbEntity
  8
0
100
AcDbBlockEnd
  0
BLOCK
  5
1C
330
1B
100
AcDbEntity
 67
     1
  8
0
100
AcDbBlockBegin
  2
*PAPER_SPACE
  1

  0
ENDBLK
  5
1D
330
1B
100
AcDbEntity
 67
     1
  8
0
100
AcDbBlockEnd
  0
ENDSEC
  0
SECTION
  2
ENTITIES
  0
SPLINE
  5
100
100
AcDbEntity
  8
Layer_1
 62
7
100
AcDbSpline
 70
8
 71
3
 72
8
 73
4
 74
0
 40
0
 40
0
 40
0
 40
0
 40
1
 40
1
 40
1
 40
1
 10
152.725718
 20
200.664940
 30
0.0
 10
118.874979
 20
200.556915
 30
0.0
 10
97.479865
 20
201.384403
 30
0.0
 10
63.080721
 20
201.036240
 30
0.0
  0
SPLINE
  5
101
100
AcDbEntity
  8
Layer_1
 62
7
100
AcDbSpline
 70
8
 71
3
 72
8
 73
4
 74
0
 40
0
 40
0
 40
0
 40
0
 40
1
 40
1
 40
1
 40
1
 10
63.127722
 20
191.195693
 30
0.0
 10
63.127722
 20
191.195693
 30
0.0
 10
63.253723
 20
191.242613
 30
0.0
 10
66.527656
 20
191.278003
 30
0.0
  0
SPLINE
  5
102
100
AcDbEntity
  8
Layer_1
 62
7
100
AcDbSpline
 70
8
 71
3
 72
8
 73
4
 74
0
 40
0
 40
0
 40
0
 40
0
 40
1
 40
1
 40
1
 40
1
 10
66.527656
 20
191.278003
 30
0.0
 10
66.727658
 20
191.280203
 30
0.0
 10
66.527656
 20
191.478003
 30
0.0
 10
66.527656
 20
191.278003
 30
0.0
  0
LWPOLYLINE
  5
103
100
AcDbEntity
  8
Layer_1
 62
7
100
AcDbPolyline
 90
2
 70
0
 10
63.080721
 20
201.036240
 30
0.0
 10
63.127722
 20
191.195693
 30
0.0
  0
SPLINE
  5
104
100
AcDbEntity
  8
Layer_1
 62
7
100
AcDbSpline
 70
8
 71
3
 72
8
 73
4
 74
0
 40
0
 40
0
 40
0
 40
0
 40
1
 40
1
 40
1
 40
1
 10
66.527656
 20
183.638003
 30
0.0
 10
66.527656
 20
183.259003
 30
0.0
 10
66.627657
 20
182.886003
 30
0.0
 10
66.817659
 20
182.558003
 30
0.0
  0
SPLINE
  5
105
100
AcDbEntity
  8
Layer_1
 62
7
100
AcDbSpline
 70
8
 71
3
 72
8
 73
4
 74
0
 40
0
 40
0
 40
0
 40
0
 40
1
 40
1
 40
1
 40
1
 10
66.817659
 20
182.558003
 30
0.0
 10
67.006660
 20
182.230003
 30
0.0
 10
67.279663
 20
181.957003
 30
0.0
 10
67.607666
 20
181.767003
 30
0.0
  0
SPLINE
  5
106
100
AcDbEntity
  8
Layer_1
 62
7
100
AcDbSpline
 70
8
 71
3
 72
8
 73
4
 74
0
 40
0
 40
0
 40
0
 40
0
 40
1
 40
1
 40
1
 40
1
 10
67.607666
 20
181.767003
 30
0.0
 10
67.936670
 20
181.578003
 30
0.0
 10
68.308673
 20
181.478003
 30
0.0
 10
68.687677
 20
181.478003
 30
0.0
  0
LWPOLYLINE
  5
107
100
AcDbEntity
  8
Layer_1
 62
7
100
AcDbPolyline
 90
2
 70
0
 10
66.527656
 20
191.278003
 30
0.0
 10
66.527656
 20
183.638003
 30
0.0
  0
SPLINE
  5
108
100
AcDbEntity
  8
Layer_1
 62
7
100
AcDbSpline
 70
8
 71
3
 72
8
 73
4
 74
0
 40
0
 40
0
 40
0
 40
0
 40
1
 40
1
 40
1
 40
1
 10
69.667687
 20
181.478003
 30
0.0
 10
69.778688
 20
181.478003
 30
0.0
 10
69.867689
 20
181.568003
 30
0.0
 10
69.867689
 20
181.678003
 30
0.0
  0
LWPOLYLINE
  5
109
100
AcDbEntity
  8
Layer_1
 62
7
100
AcDbPolyline
 90
2
 70
0
 10
68.687677
 20
181.478003
 30
0.0
 10
69.667687
 20
181.478003
 30
0.0
  0
SPLINE
  5
10a
100
AcDbEntity
  8
Layer_1
 62
7
100
AcDbSpline
 70
8
 71
3
 72
8
 73
4
 74
0
 40
0
 40
0
 40
0
 40
0
 40
1
 40
1
 40
1
 40
1
 10
69.867689
 20
190.498003
 30
0.0
 10
69.867689
 20
190.463003
 30
0.0
 10
69.857689
 20
190.428003
 30
0.0
 10
69.841689
 20
190.398003
 30
0.0
  0
SPLINE
  5
10b
100
AcDbEntity
  8
Layer_1
 62
7
100
AcDbSpline
 70
8
 71
3
 72
8
 73
4
 74
0
 40
0
 40
0
 40
0
 40
0
 40
1
 40
1
 40
1
 40
1
 10
69.841689
 20
190.398003
 30
0.0
 10
69.823689
 20
190.368003
 30
0.0
 10
69.798688
 20
190.342003
 30
0.0
 10
69.767688
 20
190.325003
 30
0.0
  0
SPLINE
  5
10c
100
AcDbEntity
  8
Layer_1
 62
7
100
AcDbSpline
 70
8
 71
3
 72
8
 73
4
 74
0
 40
0
 40
0
 40
0
 40
0
 40
1
 40
1
 40
1
 40
1
 10
69.767688
 20
190.325003
 30
0.0
 10
69.737688
 20
190.307003
 30
0.0
 10
69.703687
 20
190.298003
 30
0.0
 10
69.667687
 20
190.298003
 30
0.0
  0
SPLINE
  5
10d
100
AcDbEntity
  8
Layer_1
 62
7
100
AcDbSpline
 70
8
 71
3
 72
8
 73
4
 74
0
 40
0
 40
0
 40
0
 40
0
 40
1
 40
1
 40
1
 40
1
 10
69.667687
 20
190.298003
 30
0.0
 10
69.632687
 20
190.298003
 30
0.0
 10
69.598686
 20
190.307003
 30
0.0
 10
69.567686
 20
190.325003
 30
0.0
  0
SPLINE
  5
10e
100
AcDbEntity
  8
Layer_1
 62
7
100
AcDbSpline
 70
8
 71
3
 72
8
 73
4
 74
0
 40
0
 40
0
 40
0
 40
0
 40
1
 40
1
 40
1
 40
1
 10
69.567686
 20
190.325003
 30
0.0
 10
69.537686
 20
190.342003
 30
0.0
 10
69.512685
 20
190.368003
 30
0.0
 10
69.494685
 20
190.398003
 30
0.0
  0
SPLINE
  5
10f
100
AcDbEntity
  8
Layer_1
 62
7
100
AcDbSpline
 70
8
 71
3
 72
8
 73
4
 74
0
 40
0
 40
0
 40
0
 40
0
 40
1
 40
1
 40
1
 40
1
 10
69.494685
 20
190.398003
 30
0.0
 10
69.477685
 20
190.428003
 30
0.0
 10
69.467685
 20
190.463003
 30
0.0
 10
69.467685
 20
190.498003
 30
0.0
  0
LWPOLYLINE
  5
110
100
AcDbEntity
  8
Layer_1
 62
7
100
AcDbPolyline
 90
2
 70
0
 10
69.867689
 20
181.678003
 30
0.0
 10
69.867689
 20
190.498003
 30
0.0
  0
SPLINE
  5
111
100
AcDbEntity
  8
Layer_1
 62
7
100
AcDbSpline
 70
8
 71
3
 72
8
 73
4
 74
0
 40
0
 40
0
 40
0
 40
0
 40
1
 40
1
 40
1
 40
1
 10
69.467685
 20
181.678000
 30
0.0
 10
69.467685
 20
181.568000
 30
0.0
 10
69.557686
 20
181.478000
 30
0.0
 10
69.667687
 20
181.478000
 30
0.0
  0
LWPOLYLINE
  5
112
100
AcDbEntity
  8
Layer_1
 62
7
100
AcDbPolyline
 90
2
 70
0
 10
69.467685
 20
190.498003
 30
0.0
 10
69.467685
 20
181.678000
 30
0.0
  0
SPLINE
  5
113
100
AcDbEntity
  8
Layer_1
 62
7
100
AcDbSpline
 70
8
 71
3
 72
8
 73
4
 74
0
 40
0
 40
0
 40
0
 40
0
 40
1
 40
1
 40
1
 40
1
 10
83.387824
 20
181.478000
 30
0.0
 10
83.498825
 20
181.478000
 30
0.0
 10
83.587826
 20
181.568000
 30
0.0
 10
83.587826
 20
181.678000
 30
0.0
  0
LWPOLYLINE
  5
114
100
AcDbEntity
  8
Layer_1
 62
7
100
AcDbPolyline
 90
2
 70
0
 10
69.667687
 20
181.478000
 30
0.0
 10
83.387824
 20
181.478000
 30
0.0
  0
SPLINE
  5
115
100
AcDbEntity
  8
Layer_1
 62
7
100
AcDbSpline
 70
8
 71
3
 72
8
 73
4
 74
0
 40
0
 40
0
 40
0
 40
0
 40
1
 40
1
 40
1
 40
1
 10
83.587826
 20
190.498000
 30
0.0
 10
83.587826
 20
190.463000
 30
0.0
 10
83.577826
 20
190.428000
 30
0.0
 10
83.561826
 20
190.398000
 30
0.0
  0
SPLINE
  5
116
100
AcDbEntity
  8
Layer_1
 62
7
100
AcDbSpline
 70
8
 71
3
 72
8
 73
4
 74
0
 40
0
 40
0
 40
0
 40
0
 40
1
 40
1
 40
1
 40
1
 10
83.561826
 20
190.398000
 30
0.0
 10
83.543826
 20
190.368000
 30
0.0
 10
83.518826
 20
190.342000
 30
0.0
 10
83.487825
 20
190.325000
 30
0.0
  0
SPLINE
  5
117
100
AcDbEntity
  8
Layer_1
 62
7
100
AcDbSpline
 70
8
 71
3
 72
8
 73
4
 74
0
 40
0
 40
0
 40
0
 40
0
 40
1
 40
1
 40
1
 40
1
 10
83.487825
 20
190.325000
 30
0.0
 10
83.457825
 20
190.307000
 30
0.0
 10
83.423825
 20
190.298000
 30
0.0
 10
83.387824
 20
190.298000
 30
0.0
  0
SPLINE
  5
118
100
AcDbEntity
  8
Layer_1
 62
7
100
AcDbSpline
 70
8
 71
3
 72
8
 73
4
 74
0
 40
0
 40
0
 40
0
 40
0
 40
1
 40
1
 40
1
 40
1
 10
83.387824
 20
190.298000
 30
0.0
 10
83.352824
 20
190.298000
 30
0.0
 10
83.318824
 20
190.307000
 30
0.0
 10
83.287823
 20
190.325000
 30
0.0
  0
SPLINE
  5
119
100
AcDbEntity
  8
Layer_1
 62
7
100
AcDbSpline
 70
8
 71
3
 72
8
 73
4
 74
0
 40
0
 40
0
 40
0
 40
0
 40
1
 40
1
 40
1
 40
1
 10
83.287823
 20
190.325000
 30
0.0
 10
83.257823
 20
190.342000
 30
0.0
 10
83.232823
 20
190.368000
 30
0.0
 10
83.214823
 20
190.398000
 30
0.0
  0
SPLINE
  5
11a
100
AcDbEntity
  8
Layer_1
 62
7
100
AcDbSpline
 70
8
 71
3
 72
8
 73
4
 74
0
 40
0
 40
0
 40
0
 40
0
 40
1
 40
1
 40
1
 40
1
 10
83.214823
 20
190.398000
 30
0.0
 10
83.197822
 20
190.428000
 30
0.0
 10
83.187822
 20
190.463000
 30
0.0
 10
83.187822
 20
190.498000
 30
0.0
  0
LWPOLYLINE
  5
11b
100
AcDbEntity
  8
Layer_1
 62
7
100
AcDbPolyline
 90
2
 70
0
 10
83.587826
 20
181.678000
 30
0.0
 10
83.587826
 20
190.498000
 30
0.0
  0
SPLINE
  5
11c
100
AcDbEntity
  8
Layer_1
 62
7
100
AcDbSpline
 70
8
 71
3
 72
8
 73
4
 74
0
 40
0
 40
0
 40
0
 40
0
 40
1
 40
1
 40
1
 40
1
 10
83.187822
 20
181.678000
 30
0.0
 10
83.187822
 20
181.568000
 30
0.0
 10
83.277823
 20
181.478000
 30
0.0
 10
83.387824
 20
181.478000
 30
0.0
  0
LWPOLYLINE
  5
11d
100
AcDbEntity
  8
Layer_1
 62
7
100
AcDbPolyline
 90
2
 70
0
 10
83.187822
 20
190.498000
 30
0.0
 10
83.187822
 20
181.678000
 30
0.0
  0
SPLINE
  5
11e
100
AcDbEntity
  8
Layer_1
 62
7
100
AcDbSpline
 70
8
 71
3
 72
8
 73
4
 74
0
 40
0
 40
0
 40
0
 40
0
 40
1
 40
1
 40
1
 40
1
 10
84.367834
 20
181.478000
 30
0.0
 10
84.747838
 20
181.478000
 30
0.0
 10
85.119842
 20
181.578000
 30
0.0
 10
85.447845
 20
181.767000
 30
0.0
  0
SPLINE
  5
11f
100
AcDbEntity
  8
Layer_1
 62
7
100
AcDbSpline
 70
8
 71
3
 72
8
 73
4
 74
0
 40
0
 40
0
 40
0
 40
0
 40
1
 40
1
 40
1
 40
1
 10
85.447845
 20
181.767000
 30
0.0
 10
85.776848
 20
181.957000
 30
0.0
 10
86.048851
 20
182.230000
 30
0.0
 10
86.238853
 20
182.558000
 30
0.0
  0
SPLINE
  5
120
100
AcDbEntity
  8
Layer_1
 62
7
100
AcDbSpline
 70
8
 71
3
 72
8
 73
4
 74
0
 40
0
 40
0
 40
0
 40
0
 40
1
 40
1
 40
1
 40
1
 10
86.238853
 20
182.558000
 30
0.0
 10
86.428855
 20
182.886000
 30
0.0
 10
86.527856
 20
183.259000
 30
0.0
 10
86.527856
 20
183.638000
 30
0.0
  0
LWPOLYLINE
  5
121
100
AcDbEntity
  8
Layer_1
 62
7
100
AcDbPolyline
 90
2
 70
0
 10
83.387824
 20
181.478000
 30
0.0
 10
84.367834
 20
181.478000
 30
0.0
  0
SPLINE
  5
122
100
AcDbEntity
  8
Layer_1
 62
7
100
AcDbSpline
 70
8
 71
3
 72
8
 73
4
 74
0
 40
0
 40
0
 40
0
 40
0
 40
1
 40
1
 40
1
 40
1
 10
86.527856
 20
191.278000
 30
0.0
 10
86.527856
 20
191.478000
 30
0.0
 10
86.327854
 20
191.278000
 30
0.0
 10
86.527856
 20
191.278000
 30
0.0
  0
SPLINE
  5
123
100
AcDbEntity
  8
Layer_1
 62
7
100
AcDbSpline
 70
8
 71
3
 72
8
 73
4
 74
0
 40
0
 40
0
 40
0
 40
0
 40
1
 40
1
 40
1
 40
1
 10
95.927950
 20
191.278000
 30
0.0
 10
96.127952
 20
191.278000
 30
0.0
 10
95.927950
 20
191.478000
 30
0.0
 10
95.927950
 20
191.278000
 30
0.0
  0
SPLINE
  5
124
100
AcDbEntity
  8
Layer_1
 62
7
100
AcDbSpline
 70
8
 71
3
 72
8
 73
4
 74
0
 40
0
 40
0
 40
0
 40
0
 40
1
 40
1
 40
1
 40
1
 10
95.927950
 20
183.638000
 30
0.0
 10
95.927950
 20
183.259000
 30
0.0
 10
96.027951
 20
182.886000
 30
0.0
 10
96.217953
 20
182.558000
 30
0.0
  0
SPLINE
  5
125
100
AcDbEntity
  8
Layer_1
 62
7
100
AcDbSpline
 70
8
 71
3
 72
8
 73
4
 74
0
 40
0
 40
0
 40
0
 40
0
 40
1
 40
1
 40
1
 40
1
 10
96.217953
 20
182.558000
 30
0.0
 10
96.406954
 20
182.230000
 30
0.0
 10
96.679957
 20
181.957000
 30
0.0
 10
97.007960
 20
181.767000
 30
0.0
  0
SPLINE
  5
126
100
AcDbEntity
  8
Layer_1
 62
7
100
AcDbSpline
 70
8
 71
3
 72
8
 73
4
 74
0
 40
0
 40
0
 40
0
 40
0
 40
1
 40
1
 40
1
 40
1
 10
97.007960
 20
181.767000
 30
0.0
 10
97.336964
 20
181.578000
 30
0.0
 10
97.708967
 20
181.478000
 30
0.0
 10
98.087971
 20
181.478000
 30
0.0
  0
LWPOLYLINE
  5
127
100
AcDbEntity
  8
Layer_1
 62
7
100
AcDbPolyline
 90
4
 70
0
 10
86.527856
 20
183.638000
 30
0.0
 10
86.527856
 20
191.278000
 30
0.0
 10
95.927950
 20
191.278000
 30
0.0
 10
95.927950
 20
183.638000
 30
0.0
  0
SPLINE
  5
128
100
AcDbEntity
  8
Layer_1
 62
7
100
AcDbSpline
 70
8
 71
3
 72
8
 73
4
 74
0
 40
0
 40
0
 40
0
 40
0
 40
1
 40
1
 40
1
 40
1
 10
99.067981
 20
181.478000
 30
0.0
 10
99.178982
 20
181.478000
 30
0.0
 10
99.267983
 20
181.568000
 30
0.0
 10
99.267983
 20
181.678000
 30
0.0
  0
LWPOLYLINE
  5
129
100
AcDbEntity
  8
Layer_1
 62
7
100
AcDbPolyline
 90
2
 70
0
 10
98.087971
 20
181.478000
 30
0.0
 10
99.067981
 20
181.478000
 30
0.0
  0
SPLINE
  5
12a
100
AcDbEntity
  8
Layer_1
 62
7
100
AcDbSpline
 70
8
 71
3
 72
8
 73
4
 74
0
 40
0
 40
0
 40
0
 40
0
 40
1
 40
1
 40
1
 40
1
 10
99.267983
 20
190.498000
 30
0.0
 10
99.267983
 20
190.463000
 30
0.0
 10
99.257983
 20
190.428000
 30
0.0
 10
99.241983
 20
190.398000
 30
0.0
  0
SPLINE
  5
12b
100
AcDbEntity
  8
Layer_1
 62
7
100
AcDbSpline
 70
8
 71
3
 72
8
 73
4
 74
0
 40
0
 40
0
 40
0
 40
0
 40
1
 40
1
 40
1
 40
1
 10
99.241983
 20
190.398000
 30
0.0
 10
99.223983
 20
190.368000
 30
0.0
 10
99.198982
 20
190.342000
 30
0.0
 10
99.167982
 20
190.325000
 30
0.0
  0
SPLINE
  5
12c
100
AcDbEntity
  8
Layer_1
 62
7
100
AcDbSpline
 70
8
 71
3
 72
8
 73
4
 74
0
 40
0
 40
0
 40
0
 40
0
 40
1
 40
1
 40
1
 40
1
 10
99.167982
 20
190.325000
 30
0.0
 10
99.137982
 20
190.307000
 30
0.0
 10
99.103981
 20
190.298000
 30
0.0
 10
99.067981
 20
190.298000
 30
0.0
  0
SPLINE
  5
12d
100
AcDbEntity
  8
Layer_1
 62
7
100
AcDbSpline
 70
8
 71
3
 72
8
 73
4
 74
0
 40
0
 40
0
 40
0
 40
0
 40
1
 40
1
 40
1
 40
1
 10
99.067981
 20
190.298000
 30
0.0
 10
99.032981
 20
190.298000
 30
0.0
 10
98.998980
 20
190.307000
 30
0.0
 10
98.967980
 20
190.325000
 30
0.0
  0
SPLINE
  5
12e
100
AcDbEntity
  8
Layer_1
 62
7
100
AcDbSpline
 70
8
 71
3
 72
8
 73
4
 74
0
 40
0
 40
0
 40
0
 40
0
 40
1
 40
1
 40
1
 40
1
 10
98.967980
 20
190.325000
 30
0.0
 10
98.937980
 20
190.342000
 30
0.0
 10
98.912979
 20
190.368000
 30
0.0
 10
98.894979
 20
190.398000
 30
0.0
  0
SPLINE
  5
12f
100
AcDbEntity
  8
Layer_1
 62
7
100
AcDbSpline
 70
8
 71
3
 72
8
 73
4
 74
0
 40
0
 40
0
 40
0
 40
0
 40
1
 40
1
 40
1
 40
1
 10
98.894979
 20
190.398000
 30
0.0
 10
98.877979
 20
190.428000
 30
0.0
 10
98.867979
 20
190.463000
 30
0.0
 10
98.867979
 20
190.498000
 30
0.0
  0
LWPOLYLINE
  5
130
100
AcDbEntity
  8
Layer_1
 62
7
100
AcDbPolyline
 90
2
 70
0
 10
99.267983
 20
181.678000
 30
0.0
 10
99.267983
 20
190.498000
 30
0.0
  0
SPLINE
  5
131
100
AcDbEntity
  8
Layer_1
 62
7
100
AcDbSpline
 70
8
 71
3
 72
8
 73
4
 74
0
 40
0
 40
0
 40
0
 40
0
 40
1
 40
1
 40
1
 40
1
 10
98.867979
 20
181.678000
 30
0.0
 10
98.867979
 20
181.568000
 30
0.0
 10
98.957980
 20
181.478000
 30
0.0
 10
99.067981
 20
181.478000
 30
0.0
  0
LWPOLYLINE
  5
132
100
AcDbEntity
  8
Layer_1
 62
7
100
AcDbPolyline
 90
2
 70
0
 10
98.867979
 20
190.498000
 30
0.0
 10
98.867979
 20
181.678000
 30
0.0
  0
SPLINE
  5
133
100
AcDbEntity
  8
Layer_1
 62
7
100
AcDbSpline
 70
8
 71
3
 72
8
 73
4
 74
0
 40
0
 40
0
 40
0
 40
0
 40
1
 40
1
 40
1
 40
1
 10
112.788118
 20
181.478000
 30
0.0
 10
112.899119
 20
181.478000
 30
0.0
 10
112.988120
 20
181.568000
 30
0.0
 10
112.988120
 20
181.678000
 30
0.0
  0
LWPOLYLINE
  5
134
100
AcDbEntity
  8
Layer_1
 62
7
100
AcDbPolyline
 90
2
 70
0
 10
99.067981
 20
181.478000
 30
0.0
 10
112.788118
 20
181.478000
 30
0.0
  0
SPLINE
  5
135
100
AcDbEntity
  8
Layer_1
 62
7
100
AcDbSpline
 70
8
 71
3
 72
8
 73
4
 74
0
 40
0
 40
0
 40
0
 40
0
 40
1
 40
1
 40
1
 40
1
 10
112.988120
 20
190.498000
 30
0.0
 10
112.988120
 20
190.463000
 30
0.0
 10
112.978120
 20
190.428000
 30
0.0
 10
112.962120
 20
190.398000
 30
0.0
  0
SPLINE
  5
136
100
AcDbEntity
  8
Layer_1
 62
7
100
AcDbSpline
 70
8
 71
3
 72
8
 73
4
 74
0
 40
0
 40
0
 40
0
 40
0
 40
1
 40
1
 40
1
 40
1
 10
112.962120
 20
190.398000
 30
0.0
 10
112.944120
 20
190.368000
 30
0.0
 10
112.919120
 20
190.342000
 30
0.0
 10
112.888119
 20
190.325000
 30
0.0
  0
SPLINE
  5
137
100
AcDbEntity
  8
Layer_1
 62
7
100
AcDbSpline
 70
8
 71
3
 72
8
 73
4
 74
0
 40
0
 40
0
 40
0
 40
0
 40
1
 40
1
 40
1
 40
1
 10
112.888119
 20
190.325000
 30
0.0
 10
112.858119
 20
190.307000
 30
0.0
 10
112.824119
 20
190.298000
 30
0.0
 10
112.788118
 20
190.298000
 30
0.0
  0
SPLINE
  5
138
100
AcDbEntity
  8
Layer_1
 62
7
100
AcDbSpline
 70
8
 71
3
 72
8
 73
4
 74
0
 40
0
 40
0
 40
0
 40
0
 40
1
 40
1
 40
1
 40
1
 10
112.788118
 20
190.298000
 30
0.0
 10
112.753118
 20
190.298000
 30
0.0
 10
112.719118
 20
190.307000
 30
0.0
 10
112.688117
 20
190.325000
 30
0.0
  0
SPLINE
  5
139
100
AcDbEntity
  8
Layer_1
 62
7
100
AcDbSpline
 70
8
 71
3
 72
8
 73
4
 74
0
 40
0
 40
0
 40
0
 40
0
 40
1
 40
1
 40
1
 40
1
 10
112.688117
 20
190.325000
 30
0.0
 10
112.658117
 20
190.342000
 30
0.0
 10
112.633117
 20
190.368000
 30
0.0
 10
112.615117
 20
190.398000
 30
0.0
  0
SPLINE
  5
13a
100
AcDbEntity
  8
Layer_1
 62
7
100
AcDbSpline
 70
8
 71
3
 72
8
 73
4
 74
0
 40
0
 40
0
 40
0
 40
0
 40
1
 40
1
 40
1
 40
1
 10
112.615117
 20
190.398000
 30
0.0
 10
112.598116
 20
190.428000
 30
0.0
 10
112.588116
 20
190.463000
 30
0.0
 10
112.588116
 20
190.498000
 30
0.0
  0
LWPOLYLINE
  5
13b
100
AcDbEntity
  8
Layer_1
 62
7
100
AcDbPolyline
 90
2
 70
0
 10
112.988120
 20
181.678000
 30
0.0
 10
112.988120
 20
190.498000
 30
0.0
  0
SPLINE
  5
13c
100
AcDbEntity
  8
Layer_1
 62
7
100
AcDbSpline
 70
8
 71
3
 72
8
 73
4
 74
0
 40
0
 40
0
 40
0
 40
0
 40
1
 40
1
 40
1
 40
1
 10
112.588116
 20
181.678000
 30
0.0
 10
112.588116
 20
181.568000
 30
0.0
 10
112.678117
 20
181.478000
 30
0.0
 10
112.788118
 20
181.478000
 30
0.0
  0
LWPOLYLINE
  5
13d
100
AcDbEntity
  8
Layer_1
 62
7
100
AcDbPolyline
 90
2
 70
0
 10
112.588116
 20
190.498000
 30
0.0
 10
112.588116
 20
181.678000
 30
0.0
  0
SPLINE
  5
13e
100
AcDbEntity
  8
Layer_1
 62
7
100
AcDbSpline
 70
8
 71
3
 72
8
 73
4
 74
0
 40
0
 40
0
 40
0
 40
0
 40
1
 40
1
 40
1
 40
1
 10
113.768128
 20
181.478000
 30
0.0
 10
114.148132
 20
181.478000
 30
0.0
 10
114.520136
 20
181.578000
 30
0.0
 10
114.848139
 20
181.767000
 30
0.0
  0
SPLINE
  5
13f
100
AcDbEntity
  8
Layer_1
 62
7
100
AcDbSpline
 70
8
 71
3
 72
8
 73
4
 74
0
 40
0
 40
0
 40
0
 40
0
 40
1
 40
1
 40
1
 40
1
 10
114.848139
 20
181.767000
 30
0.0
 10
115.177142
 20
181.957000
 30
0.0
 10
115.449145
 20
182.230000
 30
0.0
 10
115.639147
 20
182.558000
 30
0.0
  0
SPLINE
  5
140
100
AcDbEntity
  8
Layer_1
 62
7
100
AcDbSpline
 70
8
 71
3
 72
8
 73
4
 74
0
 40
0
 40
0
 40
0
 40
0
 40
1
 40
1
 40
1
 40
1
 10
115.639147
 20
182.558000
 30
0.0
 10
115.829149
 20
182.886000
 30
0.0
 10
115.928150
 20
183.259000
 30
0.0
 10
115.928150
 20
183.638000
 30
0.0
  0
LWPOLYLINE
  5
141
100
AcDbEntity
  8
Layer_1
 62
7
100
AcDbPolyline
 90
2
 70
0
 10
112.788118
 20
181.478000
 30
0.0
 10
113.768128
 20
181.478000
 30
0.0
  0
SPLINE
  5
142
100
AcDbEntity
  8
Layer_1
 62
7
100
AcDbSpline
 70
8
 71
3
 72
8
 73
4
 74
0
 40
0
 40
0
 40
0
 40
0
 40
1
 40
1
 40
1
 40
1
 10
115.928150
 20
191.278000
 30
0.0
 10
115.928150
 20
191.478000
 30
0.0
 10
115.728148
 20
191.278000
 30
0.0
 10
115.928150
 20
191.278000
 30
0.0
  0
SPLINE
  5
143
100
AcDbEntity
  8
Layer_1
 62
7
100
AcDbSpline
 70
8
 71
3
 72
8
 73
4
 74
0
 40
0
 40
0
 40
0
 40
0
 40
1
 40
1
 40
1
 40
1
 10
125.328244
 20
191.278000
 30
0.0
 10
125.528246
 20
191.278000
 30
0.0
 10
125.328244
 20
191.478000
 30
0.0
 10
125.328244
 20
191.278000
 30
0.0
  0
SPLINE
  5
144
100
AcDbEntity
  8
Layer_1
 62
7
100
AcDbSpline
 70
8
 71
3
 72
8
 73
4
 74
0
 40
0
 40
0
 40
0
 40
0
 40
1
 40
1
 40
1
 40
1
 10
125.328244
 20
183.638000
 30
0.0
 10
125.328244
 20
183.259000
 30
0.0
 10
125.428245
 20
182.886000
 30
0.0
 10
125.618247
 20
182.558000
 30
0.0
  0
SPLINE
  5
145
100
AcDbEntity
  8
Layer_1
 62
7
100
AcDbSpline
 70
8
 71
3
 72
8
 73
4
 74
0
 40
0
 40
0
 40
0
 40
0
 40
1
 40
1
 40
1
 40
1
 10
125.618247
 20
182.558000
 30
0.0
 10
125.807248
 20
182.230000
 30
0.0
 10
126.080251
 20
181.957000
 30
0.0
 10
126.408254
 20
181.767000
 30
0.0
  0
SPLINE
  5
146
100
AcDbEntity
  8
Layer_1
 62
7
100
AcDbSpline
 70
8
 71
3
 72
8
 73
4
 74
0
 40
0
 40
0
 40
0
 40
0
 40
1
 40
1
 40
1
 40
1
 10
126.408254
 20
181.767000
 30
0.0
 10
126.737258
 20
181.578000
 30
0.0
 10
127.109261
 20
181.478000
 30
0.0
 10
127.488265
 20
181.478000
 30
0.0
  0
LWPOLYLINE
  5
147
100
AcDbEntity
  8
Layer_1
 62
7
100
AcDbPolyline
 90
4
 70
0
 10
115.928150
 20
183.638000
 30
0.0
 10
115.928150
 20
191.278000
 30
0.0
 10
125.328244
 20
191.278000
 30
0.0
 10
125.328244
 20
183.638000
 30
0.0
  0
SPLINE
  5
148
100
AcDbEntity
  8
Layer_1
 62
7
100
AcDbSpline
 70
8
 71
3
 72
8
 73
4
 74
0
 40
0
 40
0
 40
0
 40
0
 40
1
 40
1
 40
1
 40
1
 10
128.468275
 20
181.478000
 30
0.0
 10
128.579276
 20
181.478000
 30
0.0
 10
128.668277
 20
181.568000
 30
0.0
 10
128.668277
 20
181.678000
 30
0.0
  0
LWPOLYLINE
  5
149
100
AcDbEntity
  8
Layer_1
 62
7
100
AcDbPolyline
 90
2
 70
0
 10
127.488265
 20
181.478000
 30
0.0
 10
128.468275
 20
181.478000
 30
0.0
  0
SPLINE
  5
14a
100
AcDbEntity
  8
Layer_1
 62
7
100
AcDbSpline
 70
8
 71
3
 72
8
 73
4
 74
0
 40
0
 40
0
 40
0
 40
0
 40
1
 40
1
 40
1
 40
1
 10
128.668277
 20
190.498000
 30
0.0
 10
128.668277
 20
190.463000
 30
0.0
 10
128.658277
 20
190.428000
 30
0.0
 10
128.642277
 20
190.398000
 30
0.0
  0
SPLINE
  5
14b
100
AcDbEntity
  8
Layer_1
 62
7
100
AcDbSpline
 70
8
 71
3
 72
8
 73
4
 74
0
 40
0
 40
0
 40
0
 40
0
 40
1
 40
1
 40
1
 40
1
 10
128.642277
 20
190.398000
 30
0.0
 10
128.624277
 20
190.368000
 30
0.0
 10
128.599276
 20
190.342000
 30
0.0
 10
128.568276
 20
190.325000
 30
0.0
  0
SPLINE
  5
14c
100
AcDbEntity
  8
Layer_1
 62
7
100
AcDbSpline
 70
8
 71
3
 72
8
 73
4
 74
0
 40
0
 40
0
 40
0
 40
0
 40
1
 40
1
 40
1
 40
1
 10
128.568276
 20
190.325000
 30
0.0
 10
128.538276
 20
190.307000
 30
0.0
 10
128.504275
 20
190.298000
 30
0.0
 10
128.468275
 20
190.298000
 30
0.0
  0
SPLINE
  5
14d
100
AcDbEntity
  8
Layer_1
 62
7
100
AcDbSpline
 70
8
 71
3
 72
8
 73
4
 74
0
 40
0
 40
0
 40
0
 40
0
 40
1
 40
1
 40
1
 40
1
 10
128.468275
 20
190.298000
 30
0.0
 10
128.433275
 20
190.298000
 30
0.0
 10
128.399274
 20
190.307000
 30
0.0
 10
128.368274
 20
190.325000
 30
0.0
  0
SPLINE
  5
14e
100
AcDbEntity
  8
Layer_1
 62
7
100
AcDbSpline
 70
8
 71
3
 72
8
 73
4
 74
0
 40
0
 40
0
 40
0
 40
0
 40
1
 40
1
 40
1
 40
1
 10
128.368274
 20
190.325000
 30
0.0
 10
128.338274
 20
190.342000
 30
0.0
 10
128.313273
 20
190.368000
 30
0.0
 10
128.295273
 20
190.398000
 30
0.0
  0
SPLINE
  5
14f
100
AcDbEntity
  8
Layer_1
 62
7
100
AcDbSpline
 70
8
 71
3
 72
8
 73
4
 74
0
 40
0
 40
0
 40
0
 40
0
 40
1
 40
1
 40
1
 40
1
 10
128.295273
 20
190.398000
 30
0.0
 10
128.278273
 20
190.428000
 30
0.0
 10
128.268273
 20
190.463000
 30
0.0
 10
128.268273
 20
190.498000
 30
0.0
  0
LWPOLYLINE
  5
150
100
AcDbEntity
  8
Layer_1
 62
7
100
AcDbPolyline
 90
2
 70
0
 10
128.668277
 20
181.678000
 30
0.0
 10
128.668277
 20
190.498000
 30
0.0
  0
SPLINE
  5
151
100
AcDbEntity
  8
Layer_1
 62
7
100
AcDbSpline
 70
8
 71
3
 72
8
 73
4
 74
0
 40
0
 40
0
 40
0
 40
0
 40
1
 40
1
 40
1
 40
1
 10
128.268273
 20
181.678000
 30
0.0
 10
128.268273
 20
181.568000
 30
0.0
 10
128.358274
 20
181.478000
 30
0.0
 10
128.468275
 20
181.478000
 30
0.0
  0
LWPOLYLINE
  5
152
100
AcDbEntity
  8
Layer_1
 62
7
100
AcDbPolyline
 90
2
 70
0
 10
128.268273
 20
190.498000
 30
0.0
 10
128.268273
 20
181.678000
 30
0.0
  0
SPLINE
  5
153
100
AcDbEntity
  8
Layer_1
 62
7
100
AcDbSpline
 70
8
 71
3
 72
8
 73
4
 74
0
 40
0
 40
0
 40
0
 40
0
 40
1
 40
1
 40
1
 40
1
 10
142.188412
 20
181.478000
 30
0.0
 10
142.299413
 20
181.478000
 30
0.0
 10
142.388414
 20
181.568000
 30
0.0
 10
142.388414
 20
181.678000
 30
0.0
  0
LWPOLYLINE
  5
154
100
AcDbEntity
  8
Layer_1
 62
7
100
AcDbPolyline
 90
2
 70
0
 10
128.468275
 20
181.478000
 30
0.0
 10
142.188412
 20
181.478000
 30
0.0
  0
SPLINE
  5
155
100
AcDbEntity
  8
Layer_1
 62
7
100
AcDbSpline
 70
8
 71
3
 72
8
 73
4
 74
0
 40
0
 40
0
 40
0
 40
0
 40
1
 40
1
 40
1
 40
1
 10
142.388414
 20
190.498000
 30
0.0
 10
142.388414
 20
190.463000
 30
0.0
 10
142.378414
 20
190.428000
 30
0.0
 10
142.362414
 20
190.398000
 30
0.0
  0
SPLINE
  5
156
100
AcDbEntity
  8
Layer_1
 62
7
100
AcDbSpline
 70
8
 71
3
 72
8
 73
4
 74
0
 40
0
 40
0
 40
0
 40
0
 40
1
 40
1
 40
1
 40
1
 10
142.362414
 20
190.398000
 30
0.0
 10
142.344414
 20
190.368000
 30
0.0
 10
142.319414
 20
190.342000
 30
0.0
 10
142.288413
 20
190.325000
 30
0.0
  0
SPLINE
  5
157
100
AcDbEntity
  8
Layer_1
 62
7
100
AcDbSpline
 70
8
 71
3
 72
8
 73
4
 74
0
 40
0
 40
0
 40
0
 40
0
 40
1
 40
1
 40
1
 40
1
 10
142.288413
 20
190.325000
 30
0.0
 10
142.258413
 20
190.307000
 30
0.0
 10
142.224413
 20
190.298000
 30
0.0
 10
142.188412
 20
190.298000
 30
0.0
  0
SPLINE
  5
158
100
AcDbEntity
  8
Layer_1
 62
7
100
AcDbSpline
 70
8
 71
3
 72
8
 73
4
 74
0
 40
0
 40
0
 40
0
 40
0
 40
1
 40
1
 40
1
 40
1
 10
142.188412
 20
190.298000
 30
0.0
 10
142.153412
 20
190.298000
 30
0.0
 10
142.119412
 20
190.307000
 30
0.0
 10
142.088411
 20
190.325000
 30
0.0
  0
SPLINE
  5
159
100
AcDbEntity
  8
Layer_1
 62
7
100
AcDbSpline
 70
8
 71
3
 72
8
 73
4
 74
0
 40
0
 40
0
 40
0
 40
0
 40
1
 40
1
 40
1
 40
1
 10
142.088411
 20
190.325000
 30
0.0
 10
142.058411
 20
190.342000
 30
0.0
 10
142.033411
 20
190.368000
 30
0.0
 10
142.015411
 20
190.398000
 30
0.0
  0
SPLINE
  5
15a
100
AcDbEntity
  8
Layer_1
 62
7
100
AcDbSpline
 70
8
 71
3
 72
8
 73
4
 74
0
 40
0
 40
0
 40
0
 40
0
 40
1
 40
1
 40
1
 40
1
 10
142.015411
 20
190.398000
 30
0.0
 10
141.998410
 20
190.428000
 30
0.0
 10
141.988410
 20
190.463000
 30
0.0
 10
141.988410
 20
190.498000
 30
0.0
  0
LWPOLYLINE
  5
15b
100
AcDbEntity
  8
Layer_1
 62
7
100
AcDbPolyline
 90
2
 70
0
 10
142.388414
 20
181.678000
 30
0.0
 10
142.388414
 20
190.498000
 30
0.0
  0
SPLINE
  5
15c
100
AcDbEntity
  8
Layer_1
 62
7
100
AcDbSpline
 70
8
 71
3
 72
8
 73
4
 74
0
 40
0
 40
0
 40
0
 40
0
 40
1
 40
1
 40
1
 40
1
 10
141.988410
 20
181.678000
 30
0.0
 10
141.988410
 20
181.568000
 30
0.0
 10
142.078411
 20
181.478000
 30
0.0
 10
142.188412
 20
181.478000
 30
0.0
  0
LWPOLYLINE
  5
15d
100
AcDbEntity
  8
Layer_1
 62
7
100
AcDbPolyline
 90
2
 70
0
 10
141.988410
 20
190.498000
 30
0.0
 10
141.988410
 20
181.678000
 30
0.0
  0
SPLINE
  5
15e
100
AcDbEntity
  8
Layer_1
 62
7
100
AcDbSpline
 70
8
 71
3
 72
8
 73
4
 74
0
 40
0
 40
0
 40
0
 40
0
 40
1
 40
1
 40
1
 40
1
 10
143.168422
 20
181.478000
 30
0.0
 10
143.548426
 20
181.478000
 30
0.0
 10
143.920430
 20
181.578000
 30
0.0
 10
144.248433
 20
181.767000
 30
0.0
  0
SPLINE
  5
15f
100
AcDbEntity
  8
Layer_1
 62
7
100
AcDbSpline
 70
8
 71
3
 72
8
 73
4
 74
0
 40
0
 40
0
 40
0
 40
0
 40
1
 40
1
 40
1
 40
1
 10
144.248433
 20
181.767000
 30
0.0
 10
144.577436
 20
181.957000
 30
0.0
 10
144.849439
 20
182.230000
 30
0.0
 10
145.039441
 20
182.558000
 30
0.0
  0
SPLINE
  5
160
100
AcDbEntity
  8
Layer_1
 62
7
100
AcDbSpline
 70
8
 71
3
 72
8
 73
4
 74
0
 40
0
 40
0
 40
0
 40
0
 40
1
 40
1
 40
1
 40
1
 10
145.039441
 20
182.558000
 30
0.0
 10
145.229443
 20
182.886000
 30
0.0
 10
145.328444
 20
183.259000
 30
0.0
 10
145.328444
 20
183.638000
 30
0.0
  0
LWPOLYLINE
  5
161
100
AcDbEntity
  8
Layer_1
 62
7
100
AcDbPolyline
 90
2
 70
0
 10
142.188412
 20
181.478000
 30
0.0
 10
143.168422
 20
181.478000
 30
0.0
  0
SPLINE
  5
162
100
AcDbEntity
  8
Layer_1
 62
7
100
AcDbSpline
 70
8
 71
3
 72
8
 73
4
 74
0
 40
0
 40
0
 40
0
 40
0
 40
1
 40
1
 40
1
 40
1
 10
145.328444
 20
191.278000
 30
0.0
 10
145.328444
 20
191.478000
 30
0.0
 10
145.128442
 20
191.278000
 30
0.0
 10
145.328444
 20
191.278000
 30
0.0
  0
SPLINE
  5
163
100
AcDbEntity
  8
Layer_1
 62
7
100
AcDbSpline
 70
8
 71
3
 72
8
 73
4
 74
0
 40
0
 40
0
 40
0
 40
0
 40
1
 40
1
 40
1
 40
1
 10
145.328444
 20
191.278000
 30
0.0
 10
152.128512
 20
191.278000
 30
0.0
 10
145.994050
 20
191.225000
 30
0.0
 10
152.794118
 20
191.225000
 30
0.0
  0
LWPOLYLINE
  5
164
100
AcDbEntity
  8
Layer_1
 62
7
100
AcDbPolyline
 90
2
 70
0
 10
145.328444
 20
183.638000
 30
0.0
 10
145.328444
 20
191.278000
 30
0.0
  0
LWPOLYLINE
  5
165
100
AcDbEntity
  8
Layer_1
 62
7
100
AcDbPolyline
 90
2
 70
0
 10
152.794118
 20
191.225000
 30
0.0
 10
152.725718
 20
200.664940
 30
0.0
  0
SPLINE
  5
166
100
AcDbEntity
  8
Layer_1
 62
7
100
AcDbSpline
 70
8
 71
3
 72
8
 73
4
 74
0
 40
0
 40
0
 40
0
 40
0
 40
1
 40
1
 40
1
 40
1
 10
155.040600
 20
178.347000
 30
0.0
 10
155.040420
 20
178.457000
 30
0.0
 10
154.950600
 20
178.547000
 30
0.0
 10
154.840600
 20
178.547000
 30
0.0
  0
LWPOLYLINE
  5
167
100
AcDbEntity
  8
Layer_1
 62
7
100
AcDbPolyline
 90
2
 70
0
 10
155.092690
 20
145.924200
 30
0.0
 10
155.040600
 20
178.347000
 30
0.0
  0
SPLINE
  5
168
100
AcDbEntity
  8
Layer_1
 62
7
100
AcDbSpline
 70
8
 71
3
 72
8
 73
4
 74
0
 40
0
 40
0
 40
0
 40
0
 40
1
 40
1
 40
1
 40
1
 10
145.040600
 20
178.547000
 30
0.0
 10
144.930600
 20
178.547000
 30
0.0
 10
144.840600
 20
178.457000
 30
0.0
 10
144.840600
 20
178.347000
 30
0.0
  0
LWPOLYLINE
  5
169
100
AcDbEntity
  8
Layer_1
 62
7
100
AcDbPolyline
 90
2
 70
0
 10
154.840600
 20
178.547000
 30
0.0
 10
145.040600
 20
178.547000
 30
0.0
  0
SPLINE
  5
16a
100
AcDbEntity
  8
Layer_1
 62
7
100
AcDbSpline
 70
8
 71
3
 72
8
 73
4
 74
0
 40
0
 40
0
 40
0
 40
0
 40
1
 40
1
 40
1
 40
1
 10
144.840600
 20
168.747000
 30
0.0
 10
144.840600
 20
168.547000
 30
0.0
 10
145.040600
 20
168.747000
 30
0.0
 10
144.840600
 20
168.747000
 30
0.0
  0
SPLINE
  5
16b
100
AcDbEntity
  8
Layer_1
 62
7
100
AcDbSpline
 70
8
 71
3
 72
8
 73
4
 74
0
 40
0
 40
0
 40
0
 40
0
 40
1
 40
1
 40
1
 40
1
 10
125.640600
 20
168.747000
 30
0.0
 10
125.440600
 20
168.747000
 30
0.0
 10
125.640600
 20
168.547000
 30
0.0
 10
125.640600
 20
168.747000
 30
0.0
  0
SPLINE
  5
16c
100
AcDbEntity
  8
Layer_1
 62
7
100
AcDbSpline
 70
8
 71
3
 72
8
 73
4
 74
0
 40
0
 40
0
 40
0
 40
0
 40
1
 40
1
 40
1
 40
1
 10
125.640600
 20
178.347000
 30
0.0
 10
125.640600
 20
178.457000
 30
0.0
 10
125.550600
 20
178.547000
 30
0.0
 10
125.440600
 20
178.547000
 30
0.0
  0
LWPOLYLINE
  5
16d
100
AcDbEntity
  8
Layer_1
 62
7
100
AcDbPolyline
 90
4
 70
0
 10
144.840600
 20
178.347000
 30
0.0
 10
144.840600
 20
168.747000
 30
0.0
 10
125.640600
 20
168.747000
 30
0.0
 10
125.640600
 20
178.347000
 30
0.0
  0
SPLINE
  5
16e
100
AcDbEntity
  8
Layer_1
 62
7
100
AcDbSpline
 70
8
 71
3
 72
8
 73
4
 74
0
 40
0
 40
0
 40
0
 40
0
 40
1
 40
1
 40
1
 40
1
 10
115.640600
 20
178.547000
 30
0.0
 10
115.530600
 20
178.547000
 30
0.0
 10
115.440600
 20
178.457000
 30
0.0
 10
115.440600
 20
178.347000
 30
0.0
  0
LWPOLYLINE
  5
16f
100
AcDbEntity
  8
Layer_1
 62
7
100
AcDbPolyline
 90
2
 70
0
 10
125.440600
 20
178.547000
 30
0.0
 10
115.640600
 20
178.547000
 30
0.0
  0
SPLINE
  5
170
100
AcDbEntity
  8
Layer_1
 62
7
100
AcDbSpline
 70
8
 71
3
 72
8
 73
4
 74
0
 40
0
 40
0
 40
0
 40
0
 40
1
 40
1
 40
1
 40
1
 10
115.440600
 20
168.747000
 30
0.0
 10
115.440600
 20
168.547000
 30
0.0
 10
115.640600
 20
168.747000
 30
0.0
 10
115.440600
 20
168.747000
 30
0.0
  0
SPLINE
  5
171
100
AcDbEntity
  8
Layer_1
 62
7
100
AcDbSpline
 70
8
 71
3
 72
8
 73
4
 74
0
 40
0
 40
0
 40
0
 40
0
 40
1
 40
1
 40
1
 40
1
 10
96.240600
 20
168.747000
 30
0.0
 10
96.040600
 20
168.747000
 30
0.0
 10
96.240600
 20
168.547000
 30
0.0
 10
96.240600
 20
168.747000
 30
0.0
  0
SPLINE
  5
172
100
AcDbEntity
  8
Layer_1
 62
7
100
AcDbSpline
 70
8
 71
3
 72
8
 73
4
 74
0
 40
0
 40
0
 40
0
 40
0
 40
1
 40
1
 40
1
 40
1
 10
96.240600
 20
178.347000
 30
0.0
 10
96.240600
 20
178.457000
 30
0.0
 10
96.150600
 20
178.547000
 30
0.0
 10
96.040600
 20
178.547000
 30
0.0
  0
LWPOLYLINE
  5
173
100
AcDbEntity
  8
Layer_1
 62
7
100
AcDbPolyline
 90
4
 70
0
 10
115.440600
 20
178.347000
 30
0.0
 10
115.440600
 20
168.747000
 30
0.0
 10
96.240600
 20
168.747000
 30
0.0
 10
96.240600
 20
178.347000
 30
0.0
  0
SPLINE
  5
174
100
AcDbEntity
  8
Layer_1
 62
7
100
AcDbSpline
 70
8
 71
3
 72
8
 73
4
 74
0
 40
0
 40
0
 40
0
 40
0
 40
1
 40
1
 40
1
 40
1
 10
86.240600
 20
178.547000
 30
0.0
 10
86.130600
 20
178.547000
 30
0.0
 10
86.040600
 20
178.457000
 30
0.0
 10
86.040600
 20
178.347000
 30
0.0
  0
LWPOLYLINE
  5
175
100
AcDbEntity
  8
Layer_1
 62
7
100
AcDbPolyline
 90
2
 70
0
 10
96.040600
 20
178.547000
 30
0.0
 10
86.240600
 20
178.547000
 30
0.0
  0
SPLINE
  5
176
100
AcDbEntity
  8
Layer_1
 62
7
100
AcDbSpline
 70
8
 71
3
 72
8
 73
4
 74
0
 40
0
 40
0
 40
0
 40
0
 40
1
 40
1
 40
1
 40
1
 10
86.040600
 20
168.747000
 30
0.0
 10
86.040600
 20
168.547000
 30
0.0
 10
86.240600
 20
168.747000
 30
0.0
 10
86.040600
 20
168.747000
 30
0.0
  0
SPLINE
  5
177
100
AcDbEntity
  8
Layer_1
 62
7
100
AcDbSpline
 70
8
 71
3
 72
8
 73
4
 74
0
 40
0
 40
0
 40
0
 40
0
 40
1
 40
1
 40
1
 40
1
 10
66.840600
 20
168.747000
 30
0.0
 10
66.640600
 20
168.747000
 30
0.0
 10
66.840600
 20
168.547000
 30
0.0
 10
66.840600
 20
168.747000
 30
0.0
  0
SPLINE
  5
178
100
AcDbEntity
  8
Layer_1
 62
7
100
AcDbSpline
 70
8
 71
3
 72
8
 73
4
 74
0
 40
0
 40
0
 40
0
 40
0
 40
1
 40
1
 40
1
 40
1
 10
66.840600
 20
178.347000
 30
0.0
 10
66.840600
 20
178.457000
 30
0.0
 10
66.750600
 20
178.547000
 30
0.0
 10
66.640600
 20
178.547000
 30
0.0
  0
LWPOLYLINE
  5
179
100
AcDbEntity
  8
Layer_1
 62
7
100
AcDbPolyline
 90
4
 70
0
 10
86.040600
 20
178.347000
 30
0.0
 10
86.040600
 20
168.747000
 30
0.0
 10
66.840600
 20
168.747000
 30
0.0
 10
66.840600
 20
178.347000
 30
0.0
  0
SPLINE
  5
17a
100
AcDbEntity
  8
Layer_1
 62
7
100
AcDbSpline
 70
8
 71
3
 72
8
 73
4
 74
0
 40
0
 40
0
 40
0
 40
0
 40
1
 40
1
 40
1
 40
1
 10
56.340600
 20
178.547000
 30
0.0
 10
56.230600
 20
178.547000
 30
0.0
 10
56.140600
 20
178.457000
 30
0.0
 10
56.140600
 20
178.347000
 30
0.0
  0
LWPOLYLINE
  5
17b
100
AcDbEntity
  8
Layer_1
 62
7
100
AcDbPolyline
 90
2
 70
0
 10
66.640600
 20
178.547000
 30
0.0
 10
56.340600
 20
178.547000
 30
0.0
  0
SPLINE
  5
17c
100
AcDbEntity
  8
Layer_1
 62
7
100
AcDbSpline
 70
8
 71
3
 72
8
 73
4
 74
0
 40
0
 40
0
 40
0
 40
0
 40
1
 40
1
 40
1
 40
1
 10
55.941731
 20
146.136400
 30
0.0
 10
55.941731
 20
146.136400
 30
0.0
 10
149.804770
 20
145.932700
 30
0.0
 10
155.092690
 20
145.924200
 30
0.0
  0
LWPOLYLINE
  5
17d
100
AcDbEntity
  8
Layer_1
 62
7
100
AcDbPolyline
 90
3
 70
0
 10
56.140600
 20
178.347000
 30
0.0
 10
56.140600
 20
168.547000
 30
0.0
 10
55.941731
 20
146.136400
 30
0.0
  0
LWPOLYLINE
  5
17e
100
AcDbEntity
  8
Layer_1
 62
7
100
AcDbPolyline
 90
1
 70
1
 10
155.092690
 20
145.924200
 30
0.0
  0
SPLINE
  5
17f
100
AcDbEntity
  8
Layer_1
 62
7
100
AcDbSpline
 70
8
 71
3
 72
8
 73
4
 74
0
 40
0
 40
0
 40
0
 40
0
 40
1
 40
1
 40
1
 40
1
 10
67.359544
 20
151.185140
 30
0.0
 10
67.159544
 20
151.185140
 30
0.0
 10
67.359544
 20
150.985140
 30
0.0
 10
67.359544
 20
151.185140
 30
0.0
  0
SPLINE
  5
180
100
AcDbEntity
  8
Layer_1
 62
7
100
AcDbSpline
 70
8
 71
3
 72
8
 73
4
 74
0
 40
0
 40
0
 40
0
 40
0
 40
1
 40
1
 40
1
 40
1
 10
67.359544
 20
160.585200
 30
0.0
 10
67.359544
 20
160.785200
 30
0.0
 10
67.159544
 20
160.585200
 30
0.0
 10
67.359544
 20
160.585200
 30
0.0
  0
SPLINE
  5
181
100
AcDbEntity
  8
Layer_1
 62
7
100
AcDbSpline
 70
8
 71
3
 72
8
 73
4
 74
0
 40
0
 40
0
 40
0
 40
0
 40
1
 40
1
 40
1
 40
1
 10
86.559544
 20
160.585200
 30
0.0
 10
86.759544
 20
160.585200
 30
0.0
 10
86.559544
 20
160.785200
 30
0.0
 10
86.559544
 20
160.585200
 30
0.0
  0
SPLINE
  5
182
100
AcDbEntity
  8
Layer_1
 62
7
100
AcDbSpline
 70
8
 71
3
 72
8
 73
4
 74
0
 40
0
 40
0
 40
0
 40
0
 40
1
 40
1
 40
1
 40
1
 10
86.559544
 20
151.185140
 30
0.0
 10
86.559544
 20
150.985140
 30
0.0
 10
86.759544
 20
151.185140
 30
0.0
 10
86.559544
 20
151.185140
 30
0.0
  0
LWPOLYLINE
  5
183
100
AcDbEntity
  8
Layer_1
 62
7
100
AcDbPolyline
 90
5
 70
1
 10
76.959544
 20
151.185140
 30
0.0
 10
67.359544
 20
151.185140
 30
0.0
 10
67.359544
 20
160.585200
 30
0.0
 10
86.559544
 20
160.585200
 30
0.0
 10
86.559544
 20
151.185140
 30
0.0
  0
SPLINE
  5
184
100
AcDbEntity
  8
Layer_1
 62
7
100
AcDbSpline
 70
8
 71
3
 72
8
 73
4
 74
0
 40
0
 40
0
 40
0
 40
0
 40
1
 40
1
 40
1
 40
1
 10
96.759544
 20
151.185140
 30
0.0
 10
96.559544
 20
151.185140
 30
0.0
 10
96.759544
 20
150.985140
 30
0.0
 10
96.759544
 20
151.185140
 30
0.0
  0
SPLINE
  5
185
100
AcDbEntity
  8
Layer_1
 62
7
100
AcDbSpline
 70
8
 71
3
 72
8
 73
4
 74
0
 40
0
 40
0
 40
0
 40
0
 40
1
 40
1
 40
1
 40
1
 10
96.759544
 20
160.585200
 30
0.0
 10
96.759544
 20
160.785200
 30
0.0
 10
96.559544
 20
160.585200
 30
0.0
 10
96.759544
 20
160.585200
 30
0.0
  0
SPLINE
  5
186
100
AcDbEntity
  8
Layer_1
 62
7
100
AcDbSpline
 70
8
 71
3
 72
8
 73
4
 74
0
 40
0
 40
0
 40
0
 40
0
 40
1
 40
1
 40
1
 40
1
 10
115.959540
 20
160.585200
 30
0.0
 10
116.159540
 20
160.585200
 30
0.0
 10
115.959540
 20
160.785200
 30
0.0
 10
115.959540
 20
160.585200
 30
0.0
  0
SPLINE
  5
187
100
AcDbEntity
  8
Layer_1
 62
7
100
AcDbSpline
 70
8
 71
3
 72
8
 73
4
 74
0
 40
0
 40
0
 40
0
 40
0
 40
1
 40
1
 40
1
 40
1
 10
115.959540
 20
151.185140
 30
0.0
 10
115.959540
 20
150.985140
 30
0.0
 10
116.159540
 20
151.185140
 30
0.0
 10
115.959540
 20
151.185140
 30
0.0
  0
LWPOLYLINE
  5
188
100
AcDbEntity
  8
Layer_1
 62
7
100
AcDbPolyline
 90
5
 70
1
 10
106.359540
 20
151.185140
 30
0.0
 10
96.759544
 20
151.185140
 30
0.0
 10
96.759544
 20
160.585200
 30
0.0
 10
115.959540
 20
160.585200
 30
0.0
 10
115.959540
 20
151.185140
 30
0.0
  0
SPLINE
  5
189
100
AcDbEntity
  8
Layer_1
 62
7
100
AcDbSpline
 70
8
 71
3
 72
8
 73
4
 74
0
 40
0
 40
0
 40
0
 40
0
 40
1
 40
1
 40
1
 40
1
 10
126.159540
 20
151.185140
 30
0.0
 10
125.959540
 20
151.185140
 30
0.0
 10
126.159540
 20
150.985140
 30
0.0
 10
126.159540
 20
151.185140
 30
0.0
  0
SPLINE
  5
18a
100
AcDbEntity
  8
Layer_1
 62
7
100
AcDbSpline
 70
8
 71
3
 72
8
 73
4
 74
0
 40
0
 40
0
 40
0
 40
0
 40
1
 40
1
 40
1
 40
1
 10
126.159540
 20
160.585200
 30
0.0
 10
126.159540
 20
160.785200
 30
0.0
 10
125.959540
 20
160.585200
 30
0.0
 10
126.159540
 20
160.585200
 30
0.0
  0
SPLINE
  5
18b
100
AcDbEntity
  8
Layer_1
 62
7
100
AcDbSpline
 70
8
 71
3
 72
8
 73
4
 74
0
 40
0
 40
0
 40
0
 40
0
 40
1
 40
1
 40
1
 40
1
 10
145.359540
 20
160.585200
 30
0.0
 10
145.559540
 20
160.585200
 30
0.0
 10
145.359540
 20
160.785200
 30
0.0
 10
145.359540
 20
160.585200
 30
0.0
  0
SPLINE
  5
18c
100
AcDbEntity
  8
Layer_1
 62
7
100
AcDbSpline
 70
8
 71
3
 72
8
 73
4
 74
0
 40
0
 40
0
 40
0
 40
0
 40
1
 40
1
 40
1
 40
1
 10
145.359540
 20
151.185140
 30
0.0
 10
145.359540
 20
150.985140
 30
0.0
 10
145.559540
 20
151.185140
 30
0.0
 10
145.359540
 20
151.185140
 30
0.0
  0
LWPOLYLINE
  5
18d
100
AcDbEntity
  8
Layer_1
 62
7
100
AcDbPolyline
 90
5
 70
1
 10
135.759540
 20
151.185140
 30
0.0
 10
126.159540
 20
151.185140
 30
0.0
 10
126.159540
 20
160.585200
 30
0.0
 10
145.359540
 20
160.585200
 30
0.0
 10
145.359540
 20
151.185140
 30
0.0
  0
ENDSEC
  0
SECTION
  2
OBJECTS
  0
DICTIONARY
  5
C
330
0
100
AcDbDictionary
  3
ACAD_GROUP
350
D
  3
ACAD_MLINESTYLE
350
17
  0
DICTIONARY
  5
D
330
C
100
AcDbDictionary
  0
DICTIONARY
  5
1A
330
C
100
AcDbDictionary
  0
DICTIONARY
  5
17
330
C
100
AcDbDictionary
  3
STANDARD
350
18
  0
DICTIONARY
  5
19
330
C
100
AcDbDictionary
  0
ENDSEC
  0
EOF
