  0
SECTION
  2
HEADER
  9
$ACADVER
  1
AC1014
  9
$HANDSEED
  5
FFFF
  9
$MEASUREMENT
 70
     1
  0
ENDSEC
  0
SECTION
  2
TABLES
  0
TABLE
  2
VPORT
  5
8
330
0
100
AcDbSymbolTable
 70
     4
  0
VPORT
  5
2E
330
8
100
AcDbSymbolTableRecord
100
AcDbViewportTableRecord
  2
*ACTIVE
 70
     0
 10
0.0
 20
0.0
 11
1.0
 21
1.0
 12
210.0
 22
148.5
 13
0.0
 23
0.0
 14
10.0
 24
10.0
 15
10.0
 25
10.0
 16
0.0
 26
0.0
 36
1.0
 17
0.0
 27
0.0
 37
0.0
 40
341.0
 41
1.24
 42
50.0
 43
0.0
 44
0.0
 50
0.0
 51
0.0
 71
     0
 72
   100
 73
     1
 74
     3
 75
     0
 76
     0
 77
     0
 78
     0
  0
ENDTAB
  0
TABLE
  2
LTYPE
  5
5
330
0
100
AcDbSymbolTable
 70
     1
  0
LTYPE
  5
14
330
5
100
AcDbSymbolTableRecord
100
AcDbLinetypeTableRecord
  2
BYBLOCK
 70
     0
  3

 72
    65
 73
     0
 40
0.0
  0
LTYPE
  5
15
330
5
100
AcDbSymbolTableRecord
100
AcDbLinetypeTableRecord
  2
BYLAYER
 70
     0
  3

 72
    65
 73
     0
 40
0.0
  0
LTYPE
  5
16
330
5
100
AcDbSymbolTableRecord
100
AcDbLinetypeTableRecord
  2
CONTINUOUS
 70
     0
  3
Solid line
 72
    65
 73
     0
 40
0.0
  0
ENDTAB
  0
TABLE
  2
LAYER
  5
2
100
AcDbSymbolTable
 70
2
  0
LAYER
  5
50
100
AcDbSymbolTableRecord
100
AcDbLayerTableRecord
  2
0
 70
0
  6
CONTINUOUS
  0
LAYER
  5
51
100
AcDbSymbolTableRecord
100
AcDbLayerTableRecord
  2
Layer_1
 70
0
  6
CONTINUOUS
  0
ENDTAB
  0
TABLE
  2
STYLE
  5
3
330
0
100
AcDbSymbolTable
 70
     1
  0
STYLE
  5
11
330
3
100
AcDbSymbolTableRecord
100
AcDbTextStyleTableRecord
  2
STANDARD
 70
     0
 40
0.0
 41
1.0
 50
0.0
 71
     0
 42
2.5
  3
txt
  4

  0
ENDTAB
  0
TABLE
  2
VIEW
  5
6
330
0
100
AcDbSymbolTable
 70
     0
  0
ENDTAB
  0
TABLE
  2
UCS
  5
7
330
0
100
AcDbSymbolTable
 70
     0
  0
ENDTAB
  0
TABLE
  2
APPID
  5
9
330
0
100
AcDbSymbolTable
 70
     2
  0
APPID
  5
12
330
9
100
AcDbSymbolTableRecord
100
AcDbRegAppTableRecord
  2
ACAD
 70
     0
  0
ENDTAB
  0
TABLE
  2
DIMSTYLE
  5
A
330
0
100
AcDbSymbolTable
 70
     1
  0
DIMSTYLE
105
27
330
A
100
AcDbSymbolTableRecord
100
AcDbDimStyleTableRecord
  2
ISO-25
 70
     0
  3

  4

  5

  6

  7

 40
1.0
 41
2.5
 42
0.625
 43
3.75
 44
1.25
 45
0.0
 46
0.0
 47
0.0
 48
0.0
140
2.5
141
2.5
142
0.0
143
0.03937007874016
144
1.0
145
0.0
146
1.0
147
0.625
 71
     0
 72
     0
 73
     0
 74
     0
 75
     0
 76
     0
 77
     1
 78
     8
170
     0
171
     3
172
     1
173
     0
174
     0
175
     0
176
     0
177
     0
178
     0
270
     2
271
     2
272
     2
273
     2
274
     3
340
11
275
     0
280
     0
281
     0
282
     0
283
     0
284
     8
285
     0
286
     0
287
     3
288
     0
  0
ENDTAB
  0
TABLE
  2
BLOCK_RECORD
  5
1
330
0
100
AcDbSymbolTable
 70
     1
  0
BLOCK_RECORD
  5
1F
330
1
100
AcDbSymbolTableRecord
100
AcDbBlockTableRecord
  2
*MODEL_SPACE
  0
BLOCK_RECORD
  5
1B
330
1
100
AcDbSymbolTableRecord
100
AcDbBlockTableRecord
  2
*PAPER_SPACE
  0
ENDTAB
  0
ENDSEC
  0
SECTION
  2
BLOCKS
  0
BLOCK
  5
20
330
1F
100
AcDbEntity
  8
0
100
AcDbBlockBegin
  2
*MODEL_SPACE
 70
     0
 10
0.0
 20
0.0
 30
0.0
  3
*MODEL_SPACE
  1

  0
ENDBLK
  5
21
330
1F
100
AcDbEntity
  8
0
100
AcDbBlockEnd
  0
BLOCK
  5
1C
330
1B
100
AcDbEntity
 67
     1
  8
0
100
AcDbBlockBegin
  2
*PAPER_SPACE
  1

  0
ENDBLK
  5
1D
330
1B
100
AcDbEntity
 67
     1
  8
0
100
AcDbBlockEnd
  0
ENDSEC
  0
SECTION
  2
ENTITIES
  0
SPLINE
  5
100
100
AcDbEntity
  8
Layer_1
 62
7
100
AcDbSpline
 70
8
 71
3
 72
8
 73
4
 74
0
 40
0
 40
0
 40
0
 40
0
 40
1
 40
1
 40
1
 40
1
 10
75.204300
 20
1804.355098
 30
0.0
 10
75.104300
 20
1804.355098
 30
0.0
 10
75.204300
 20
1804.255096
 30
0.0
 10
75.204300
 20
1804.355098
 30
0.0
  0
SPLINE
  5
101
100
AcDbEntity
  8
Layer_1
 62
7
100
AcDbSpline
 70
8
 71
3
 72
8
 73
4
 74
0
 40
0
 40
0
 40
0
 40
0
 40
1
 40
1
 40
1
 40
1
 10
75.204300
 20
1814.155294
 30
0.0
 10
75.204300
 20
1814.210295
 30
0.0
 10
75.159300
 20
1814.255296
 30
0.0
 10
75.104300
 20
1814.255296
 30
0.0
  0
LWPOLYLINE
  5
102
100
AcDbEntity
  8
Layer_1
 62
7
100
AcDbPolyline
 90
3
 70
0
 10
74.876147
 20
1792.886869
 30
0.0
 10
75.204300
 20
1804.355098
 30
0.0
 10
75.204300
 20
1814.155294
 30
0.0
  0
SPLINE
  5
103
100
AcDbEntity
  8
Layer_1
 62
7
100
AcDbSpline
 70
8
 71
3
 72
8
 73
4
 74
0
 40
0
 40
0
 40
0
 40
0
 40
1
 40
1
 40
1
 40
1
 10
65.204300
 20
1814.255296
 30
0.0
 10
65.149300
 20
1814.255296
 30
0.0
 10
65.104300
 20
1814.210295
 30
0.0
 10
65.104300
 20
1814.155294
 30
0.0
  0
LWPOLYLINE
  5
104
100
AcDbEntity
  8
Layer_1
 62
7
100
AcDbPolyline
 90
2
 70
0
 10
75.104300
 20
1814.255296
 30
0.0
 10
65.204300
 20
1814.255296
 30
0.0
  0
SPLINE
  5
105
100
AcDbEntity
  8
Layer_1
 62
7
100
AcDbSpline
 70
8
 71
3
 72
8
 73
4
 74
0
 40
0
 40
0
 40
0
 40
0
 40
1
 40
1
 40
1
 40
1
 10
65.104300
 20
1804.355098
 30
0.0
 10
65.104300
 20
1804.255096
 30
0.0
 10
65.204300
 20
1804.355098
 30
0.0
 10
65.104300
 20
1804.355098
 30
0.0
  0
SPLINE
  5
106
100
AcDbEntity
  8
Layer_1
 62
7
100
AcDbSpline
 70
8
 71
3
 72
8
 73
4
 74
0
 40
0
 40
0
 40
0
 40
0
 40
1
 40
1
 40
1
 40
1
 10
45.504300
 20
1804.355098
 30
0.0
 10
45.404300
 20
1804.355098
 30
0.0
 10
45.504300
 20
1804.255096
 30
0.0
 10
45.504300
 20
1804.355098
 30
0.0
  0
SPLINE
  5
107
100
AcDbEntity
  8
Layer_1
 62
7
100
AcDbSpline
 70
8
 71
3
 72
8
 73
4
 74
0
 40
0
 40
0
 40
0
 40
0
 40
1
 40
1
 40
1
 40
1
 10
45.504300
 20
1814.155294
 30
0.0
 10
45.504300
 20
1814.210295
 30
0.0
 10
45.459300
 20
1814.255296
 30
0.0
 10
45.404300
 20
1814.255296
 30
0.0
  0
LWPOLYLINE
  5
108
100
AcDbEntity
  8
Layer_1
 62
7
100
AcDbPolyline
 90
4
 70
0
 10
65.104300
 20
1814.155294
 30
0.0
 10
65.104300
 20
1804.355098
 30
0.0
 10
45.504300
 20
1804.355098
 30
0.0
 10
45.504300
 20
1814.155294
 30
0.0
  0
SPLINE
  5
109
100
AcDbEntity
  8
Layer_1
 62
7
100
AcDbSpline
 70
8
 71
3
 72
8
 73
4
 74
0
 40
0
 40
0
 40
0
 40
0
 40
1
 40
1
 40
1
 40
1
 10
37.754300
 20
1814.255296
 30
0.0
 10
37.699300
 20
1814.255296
 30
0.0
 10
37.654300
 20
1814.210295
 30
0.0
 10
37.654300
 20
1814.155294
 30
0.0
  0
LWPOLYLINE
  5
10a
100
AcDbEntity
  8
Layer_1
 62
7
100
AcDbPolyline
 90
2
 70
0
 10
45.404300
 20
1814.255296
 30
0.0
 10
37.754300
 20
1814.255296
 30
0.0
  0
SPLINE
  5
10b
100
AcDbEntity
  8
Layer_1
 62
7
100
AcDbSpline
 70
8
 71
3
 72
8
 73
4
 74
0
 40
0
 40
0
 40
0
 40
0
 40
1
 40
1
 40
1
 40
1
 10
37.654300
 20
1793.954890
 30
0.0
 10
37.654300
 20
1793.854888
 30
0.0
 10
37.754300
 20
1793.954890
 30
0.0
 10
37.654300
 20
1793.954890
 30
0.0
  0
SPLINE
  5
10c
100
AcDbEntity
  8
Layer_1
 62
7
100
AcDbSpline
 70
8
 71
3
 72
8
 73
4
 74
0
 40
0
 40
0
 40
0
 40
0
 40
1
 40
1
 40
1
 40
1
 10
29.834300
 20
1793.954890
 30
0.0
 10
29.469300
 20
1793.954890
 30
0.0
 10
29.110300
 20
1793.858888
 30
0.0
 10
28.794300
 20
1793.675885
 30
0.0
  0
SPLINE
  5
10d
100
AcDbEntity
  8
Layer_1
 62
7
100
AcDbSpline
 70
8
 71
3
 72
8
 73
4
 74
0
 40
0
 40
0
 40
0
 40
0
 40
1
 40
1
 40
1
 40
1
 10
28.794300
 20
1793.675885
 30
0.0
 10
28.478300
 20
1793.492881
 30
0.0
 10
28.215300
 20
1793.230876
 30
0.0
 10
28.033300
 20
1792.914869
 30
0.0
  0
SPLINE
  5
10e
100
AcDbEntity
  8
Layer_1
 62
7
100
AcDbSpline
 70
8
 71
3
 72
8
 73
4
 74
0
 40
0
 40
0
 40
0
 40
0
 40
1
 40
1
 40
1
 40
1
 10
28.033300
 20
1792.914869
 30
0.0
 10
27.850300
 20
1792.597863
 30
0.0
 10
27.754300
 20
1792.239856
 30
0.0
 10
27.754300
 20
1791.874848
 30
0.0
  0
LWPOLYLINE
  5
10f
100
AcDbEntity
  8
Layer_1
 62
7
100
AcDbPolyline
 90
4
 70
0
 10
37.654300
 20
1814.155294
 30
0.0
 10
37.654300
 20
1804.255096
 30
0.0
 10
37.654300
 20
1793.954890
 30
0.0
 10
29.834300
 20
1793.954890
 30
0.0
  0
SPLINE
  5
110
100
AcDbEntity
  8
Layer_1
 62
7
100
AcDbSpline
 70
8
 71
3
 72
8
 73
4
 74
0
 40
0
 40
0
 40
0
 40
0
 40
1
 40
1
 40
1
 40
1
 10
27.754300
 20
1790.884829
 30
0.0
 10
27.754300
 20
1790.828828
 30
0.0
 10
27.799300
 20
1790.784827
 30
0.0
 10
27.854300
 20
1790.784827
 30
0.0
  0
LWPOLYLINE
  5
111
100
AcDbEntity
  8
Layer_1
 62
7
100
AcDbPolyline
 90
2
 70
0
 10
27.754300
 20
1791.874848
 30
0.0
 10
27.754300
 20
1790.884829
 30
0.0
  0
SPLINE
  5
112
100
AcDbEntity
  8
Layer_1
 62
7
100
AcDbSpline
 70
8
 71
3
 72
8
 73
4
 74
0
 40
0
 40
0
 40
0
 40
0
 40
1
 40
1
 40
1
 40
1
 10
36.764300
 20
1790.784827
 30
0.0
 10
36.746300
 20
1790.784827
 30
0.0
 10
36.729300
 20
1790.784827
 30
0.0
 10
36.714300
 20
1790.797827
 30
0.0
  0
SPLINE
  5
113
100
AcDbEntity
  8
Layer_1
 62
7
100
AcDbSpline
 70
8
 71
3
 72
8
 73
4
 74
0
 40
0
 40
0
 40
0
 40
0
 40
1
 40
1
 40
1
 40
1
 10
36.714300
 20
1790.797827
 30
0.0
 10
36.699300
 20
1790.807827
 30
0.0
 10
36.686300
 20
1790.818827
 30
0.0
 10
36.677300
 20
1790.834828
 30
0.0
  0
SPLINE
  5
114
100
AcDbEntity
  8
Layer_1
 62
7
100
AcDbSpline
 70
8
 71
3
 72
8
 73
4
 74
0
 40
0
 40
0
 40
0
 40
0
 40
1
 40
1
 40
1
 40
1
 10
36.677300
 20
1790.834828
 30
0.0
 10
36.669300
 20
1790.849828
 30
0.0
 10
36.664300
 20
1790.866828
 30
0.0
 10
36.664300
 20
1790.884829
 30
0.0
  0
SPLINE
  5
115
100
AcDbEntity
  8
Layer_1
 62
7
100
AcDbSpline
 70
8
 71
3
 72
8
 73
4
 74
0
 40
0
 40
0
 40
0
 40
0
 40
1
 40
1
 40
1
 40
1
 10
36.664300
 20
1790.884829
 30
0.0
 10
36.664300
 20
1790.901829
 30
0.0
 10
36.669300
 20
1790.918829
 30
0.0
 10
36.677300
 20
1790.934830
 30
0.0
  0
SPLINE
  5
116
100
AcDbEntity
  8
Layer_1
 62
7
100
AcDbSpline
 70
8
 71
3
 72
8
 73
4
 74
0
 40
0
 40
0
 40
0
 40
0
 40
1
 40
1
 40
1
 40
1
 10
36.677300
 20
1790.934830
 30
0.0
 10
36.686300
 20
1790.949830
 30
0.0
 10
36.699300
 20
1790.961830
 30
0.0
 10
36.714300
 20
1790.970830
 30
0.0
  0
SPLINE
  5
117
100
AcDbEntity
  8
Layer_1
 62
7
100
AcDbSpline
 70
8
 71
3
 72
8
 73
4
 74
0
 40
0
 40
0
 40
0
 40
0
 40
1
 40
1
 40
1
 40
1
 10
36.714300
 20
1790.970830
 30
0.0
 10
36.729300
 20
1790.980831
 30
0.0
 10
36.746300
 20
1790.984831
 30
0.0
 10
36.764300
 20
1790.984831
 30
0.0
  0
LWPOLYLINE
  5
118
100
AcDbEntity
  8
Layer_1
 62
7
100
AcDbPolyline
 90
2
 70
0
 10
27.854300
 20
1790.784827
 30
0.0
 10
36.764300
 20
1790.784827
 30
0.0
  0
SPLINE
  5
119
100
AcDbEntity
  8
Layer_1
 62
7
100
AcDbSpline
 70
8
 71
3
 72
8
 73
4
 74
0
 40
0
 40
0
 40
0
 40
0
 40
1
 40
1
 40
1
 40
1
 10
27.854300
 20
1790.984831
 30
0.0
 10
27.799300
 20
1790.984831
 30
0.0
 10
27.754300
 20
1790.939830
 30
0.0
 10
27.754300
 20
1790.884829
 30
0.0
  0
LWPOLYLINE
  5
11a
100
AcDbEntity
  8
Layer_1
 62
7
100
AcDbPolyline
 90
2
 70
0
 10
36.764300
 20
1790.984831
 30
0.0
 10
27.854300
 20
1790.984831
 30
0.0
  0
SPLINE
  5
11b
100
AcDbEntity
  8
Layer_1
 62
7
100
AcDbSpline
 70
8
 71
3
 72
8
 73
4
 74
0
 40
0
 40
0
 40
0
 40
0
 40
1
 40
1
 40
1
 40
1
 10
27.754300
 20
1777.024551
 30
0.0
 10
27.754300
 20
1776.968550
 30
0.0
 10
27.799300
 20
1776.924549
 30
0.0
 10
27.854300
 20
1776.924549
 30
0.0
  0
LWPOLYLINE
  5
11c
100
AcDbEntity
  8
Layer_1
 62
7
100
AcDbPolyline
 90
2
 70
0
 10
27.754300
 20
1790.884829
 30
0.0
 10
27.754300
 20
1777.024551
 30
0.0
  0
SPLINE
  5
11d
100
AcDbEntity
  8
Layer_1
 62
7
100
AcDbSpline
 70
8
 71
3
 72
8
 73
4
 74
0
 40
0
 40
0
 40
0
 40
0
 40
1
 40
1
 40
1
 40
1
 10
36.764300
 20
1776.924549
 30
0.0
 10
36.746300
 20
1776.924549
 30
0.0
 10
36.729300
 20
1776.924549
 30
0.0
 10
36.714300
 20
1776.937550
 30
0.0
  0
SPLINE
  5
11e
100
AcDbEntity
  8
Layer_1
 62
7
100
AcDbSpline
 70
8
 71
3
 72
8
 73
4
 74
0
 40
0
 40
0
 40
0
 40
0
 40
1
 40
1
 40
1
 40
1
 10
36.714300
 20
1776.937550
 30
0.0
 10
36.699300
 20
1776.947550
 30
0.0
 10
36.686300
 20
1776.958550
 30
0.0
 10
36.677300
 20
1776.974550
 30
0.0
  0
SPLINE
  5
11f
100
AcDbEntity
  8
Layer_1
 62
7
100
AcDbSpline
 70
8
 71
3
 72
8
 73
4
 74
0
 40
0
 40
0
 40
0
 40
0
 40
1
 40
1
 40
1
 40
1
 10
36.677300
 20
1776.974550
 30
0.0
 10
36.669300
 20
1776.989551
 30
0.0
 10
36.664300
 20
1777.006551
 30
0.0
 10
36.664300
 20
1777.024551
 30
0.0
  0
SPLINE
  5
120
100
AcDbEntity
  8
Layer_1
 62
7
100
AcDbSpline
 70
8
 71
3
 72
8
 73
4
 74
0
 40
0
 40
0
 40
0
 40
0
 40
1
 40
1
 40
1
 40
1
 10
36.664300
 20
1777.024551
 30
0.0
 10
36.664300
 20
1777.041552
 30
0.0
 10
36.669300
 20
1777.058552
 30
0.0
 10
36.677300
 20
1777.074552
 30
0.0
  0
SPLINE
  5
121
100
AcDbEntity
  8
Layer_1
 62
7
100
AcDbSpline
 70
8
 71
3
 72
8
 73
4
 74
0
 40
0
 40
0
 40
0
 40
0
 40
1
 40
1
 40
1
 40
1
 10
36.677300
 20
1777.074552
 30
0.0
 10
36.686300
 20
1777.089553
 30
0.0
 10
36.699300
 20
1777.101553
 30
0.0
 10
36.714300
 20
1777.110553
 30
0.0
  0
SPLINE
  5
122
100
AcDbEntity
  8
Layer_1
 62
7
100
AcDbSpline
 70
8
 71
3
 72
8
 73
4
 74
0
 40
0
 40
0
 40
0
 40
0
 40
1
 40
1
 40
1
 40
1
 10
36.714300
 20
1777.110553
 30
0.0
 10
36.729300
 20
1777.120553
 30
0.0
 10
36.746300
 20
1777.124553
 30
0.0
 10
36.764300
 20
1777.124553
 30
0.0
  0
LWPOLYLINE
  5
123
100
AcDbEntity
  8
Layer_1
 62
7
100
AcDbPolyline
 90
2
 70
0
 10
27.854300
 20
1776.924549
 30
0.0
 10
36.764300
 20
1776.924549
 30
0.0
  0
SPLINE
  5
124
100
AcDbEntity
  8
Layer_1
 62
7
100
AcDbSpline
 70
8
 71
3
 72
8
 73
4
 74
0
 40
0
 40
0
 40
0
 40
0
 40
1
 40
1
 40
1
 40
1
 10
27.854300
 20
1777.124553
 30
0.0
 10
27.799300
 20
1777.124553
 30
0.0
 10
27.754300
 20
1777.079553
 30
0.0
 10
27.754300
 20
1777.024551
 30
0.0
  0
LWPOLYLINE
  5
125
100
AcDbEntity
  8
Layer_1
 62
7
100
AcDbPolyline
 90
2
 70
0
 10
36.764300
 20
1777.124553
 30
0.0
 10
27.854300
 20
1777.124553
 30
0.0
  0
SPLINE
  5
126
100
AcDbEntity
  8
Layer_1
 62
7
100
AcDbSpline
 70
8
 71
3
 72
8
 73
4
 74
0
 40
0
 40
0
 40
0
 40
0
 40
1
 40
1
 40
1
 40
1
 10
27.754300
 20
1776.034532
 30
0.0
 10
27.754300
 20
1775.669524
 30
0.0
 10
27.850300
 20
1775.310517
 30
0.0
 10
28.033300
 20
1774.994511
 30
0.0
  0
SPLINE
  5
127
100
AcDbEntity
  8
Layer_1
 62
7
100
AcDbSpline
 70
8
 71
3
 72
8
 73
4
 74
0
 40
0
 40
0
 40
0
 40
0
 40
1
 40
1
 40
1
 40
1
 10
28.033300
 20
1774.994511
 30
0.0
 10
28.215300
 20
1774.677505
 30
0.0
 10
28.478300
 20
1774.415499
 30
0.0
 10
28.794300
 20
1774.232496
 30
0.0
  0
SPLINE
  5
128
100
AcDbEntity
  8
Layer_1
 62
7
100
AcDbSpline
 70
8
 71
3
 72
8
 73
4
 74
0
 40
0
 40
0
 40
0
 40
0
 40
1
 40
1
 40
1
 40
1
 10
28.794300
 20
1774.232496
 30
0.0
 10
29.110300
 20
1774.050492
 30
0.0
 10
29.469300
 20
1773.954490
 30
0.0
 10
29.834300
 20
1773.954490
 30
0.0
  0
LWPOLYLINE
  5
129
100
AcDbEntity
  8
Layer_1
 62
7
100
AcDbPolyline
 90
2
 70
0
 10
27.754300
 20
1777.024551
 30
0.0
 10
27.754300
 20
1776.034532
 30
0.0
  0
SPLINE
  5
12a
100
AcDbEntity
  8
Layer_1
 62
7
100
AcDbSpline
 70
8
 71
3
 72
8
 73
4
 74
0
 40
0
 40
0
 40
0
 40
0
 40
1
 40
1
 40
1
 40
1
 10
37.654300
 20
1773.954490
 30
0.0
 10
37.754300
 20
1773.954490
 30
0.0
 10
37.654300
 20
1774.054492
 30
0.0
 10
37.654300
 20
1773.954490
 30
0.0
  0
SPLINE
  5
12b
100
AcDbEntity
  8
Layer_1
 62
7
100
AcDbSpline
 70
8
 71
3
 72
8
 73
4
 74
0
 40
0
 40
0
 40
0
 40
0
 40
1
 40
1
 40
1
 40
1
 10
37.654300
 20
1764.254296
 30
0.0
 10
37.654300
 20
1764.154294
 30
0.0
 10
37.754300
 20
1764.254296
 30
0.0
 10
37.654300
 20
1764.254296
 30
0.0
  0
SPLINE
  5
12c
100
AcDbEntity
  8
Layer_1
 62
7
100
AcDbSpline
 70
8
 71
3
 72
8
 73
4
 74
0
 40
0
 40
0
 40
0
 40
0
 40
1
 40
1
 40
1
 40
1
 10
29.834300
 20
1764.254296
 30
0.0
 10
29.469300
 20
1764.254296
 30
0.0
 10
29.110300
 20
1764.158294
 30
0.0
 10
28.794300
 20
1763.975291
 30
0.0
  0
SPLINE
  5
12d
100
AcDbEntity
  8
Layer_1
 62
7
100
AcDbSpline
 70
8
 71
3
 72
8
 73
4
 74
0
 40
0
 40
0
 40
0
 40
0
 40
1
 40
1
 40
1
 40
1
 10
28.794300
 20
1763.975291
 30
0.0
 10
28.478300
 20
1763.792287
 30
0.0
 10
28.215300
 20
1763.530282
 30
0.0
 10
28.033300
 20
1763.214275
 30
0.0
  0
SPLINE
  5
12e
100
AcDbEntity
  8
Layer_1
 62
7
100
AcDbSpline
 70
8
 71
3
 72
8
 73
4
 74
0
 40
0
 40
0
 40
0
 40
0
 40
1
 40
1
 40
1
 40
1
 10
28.033300
 20
1763.214275
 30
0.0
 10
27.850300
 20
1762.897269
 30
0.0
 10
27.754300
 20
1762.539262
 30
0.0
 10
27.754300
 20
1762.174254
 30
0.0
  0
LWPOLYLINE
  5
12f
100
AcDbEntity
  8
Layer_1
 62
7
100
AcDbPolyline
 90
4
 70
0
 10
29.834300
 20
1773.954490
 30
0.0
 10
37.654300
 20
1773.954490
 30
0.0
 10
37.654300
 20
1764.254296
 30
0.0
 10
29.834300
 20
1764.254296
 30
0.0
  0
SPLINE
  5
130
100
AcDbEntity
  8
Layer_1
 62
7
100
AcDbSpline
 70
8
 71
3
 72
8
 73
4
 74
0
 40
0
 40
0
 40
0
 40
0
 40
1
 40
1
 40
1
 40
1
 10
27.754300
 20
1761.184235
 30
0.0
 10
27.754300
 20
1761.128234
 30
0.0
 10
27.799300
 20
1761.084233
 30
0.0
 10
27.854300
 20
1761.084233
 30
0.0
  0
LWPOLYLINE
  5
131
100
AcDbEntity
  8
Layer_1
 62
7
100
AcDbPolyline
 90
2
 70
0
 10
27.754300
 20
1762.174254
 30
0.0
 10
27.754300
 20
1761.184235
 30
0.0
  0
SPLINE
  5
132
100
AcDbEntity
  8
Layer_1
 62
7
100
AcDbSpline
 70
8
 71
3
 72
8
 73
4
 74
0
 40
0
 40
0
 40
0
 40
0
 40
1
 40
1
 40
1
 40
1
 10
36.764300
 20
1761.084233
 30
0.0
 10
36.746300
 20
1761.084233
 30
0.0
 10
36.729300
 20
1761.084233
 30
0.0
 10
36.714300
 20
1761.097233
 30
0.0
  0
SPLINE
  5
133
100
AcDbEntity
  8
Layer_1
 62
7
100
AcDbSpline
 70
8
 71
3
 72
8
 73
4
 74
0
 40
0
 40
0
 40
0
 40
0
 40
1
 40
1
 40
1
 40
1
 10
36.714300
 20
1761.097233
 30
0.0
 10
36.699300
 20
1761.107233
 30
0.0
 10
36.686300
 20
1761.118233
 30
0.0
 10
36.677300
 20
1761.134234
 30
0.0
  0
SPLINE
  5
134
100
AcDbEntity
  8
Layer_1
 62
7
100
AcDbSpline
 70
8
 71
3
 72
8
 73
4
 74
0
 40
0
 40
0
 40
0
 40
0
 40
1
 40
1
 40
1
 40
1
 10
36.677300
 20
1761.134234
 30
0.0
 10
36.669300
 20
1761.149234
 30
0.0
 10
36.664300
 20
1761.166234
 30
0.0
 10
36.664300
 20
1761.184235
 30
0.0
  0
SPLINE
  5
135
100
AcDbEntity
  8
Layer_1
 62
7
100
AcDbSpline
 70
8
 71
3
 72
8
 73
4
 74
0
 40
0
 40
0
 40
0
 40
0
 40
1
 40
1
 40
1
 40
1
 10
36.664300
 20
1761.184235
 30
0.0
 10
36.664300
 20
1761.201235
 30
0.0
 10
36.669300
 20
1761.218235
 30
0.0
 10
36.677300
 20
1761.234236
 30
0.0
  0
SPLINE
  5
136
100
AcDbEntity
  8
Layer_1
 62
7
100
AcDbSpline
 70
8
 71
3
 72
8
 73
4
 74
0
 40
0
 40
0
 40
0
 40
0
 40
1
 40
1
 40
1
 40
1
 10
36.677300
 20
1761.234236
 30
0.0
 10
36.686300
 20
1761.249236
 30
0.0
 10
36.699300
 20
1761.261236
 30
0.0
 10
36.714300
 20
1761.270236
 30
0.0
  0
SPLINE
  5
137
100
AcDbEntity
  8
Layer_1
 62
7
100
AcDbSpline
 70
8
 71
3
 72
8
 73
4
 74
0
 40
0
 40
0
 40
0
 40
0
 40
1
 40
1
 40
1
 40
1
 10
36.714300
 20
1761.270236
 30
0.0
 10
36.729300
 20
1761.280237
 30
0.0
 10
36.746300
 20
1761.284237
 30
0.0
 10
36.764300
 20
1761.284237
 30
0.0
  0
LWPOLYLINE
  5
138
100
AcDbEntity
  8
Layer_1
 62
7
100
AcDbPolyline
 90
2
 70
0
 10
27.854300
 20
1761.084233
 30
0.0
 10
36.764300
 20
1761.084233
 30
0.0
  0
SPLINE
  5
139
100
AcDbEntity
  8
Layer_1
 62
7
100
AcDbSpline
 70
8
 71
3
 72
8
 73
4
 74
0
 40
0
 40
0
 40
0
 40
0
 40
1
 40
1
 40
1
 40
1
 10
27.854300
 20
1761.284237
 30
0.0
 10
27.799300
 20
1761.284237
 30
0.0
 10
27.754300
 20
1761.239236
 30
0.0
 10
27.754300
 20
1761.184235
 30
0.0
  0
LWPOLYLINE
  5
13a
100
AcDbEntity
  8
Layer_1
 62
7
100
AcDbPolyline
 90
2
 70
0
 10
36.764300
 20
1761.284237
 30
0.0
 10
27.854300
 20
1761.284237
 30
0.0
  0
SPLINE
  5
13b
100
AcDbEntity
  8
Layer_1
 62
7
100
AcDbSpline
 70
8
 71
3
 72
8
 73
4
 74
0
 40
0
 40
0
 40
0
 40
0
 40
1
 40
1
 40
1
 40
1
 10
27.754300
 20
1747.323957
 30
0.0
 10
27.754300
 20
1747.267956
 30
0.0
 10
27.799300
 20
1747.223955
 30
0.0
 10
27.854300
 20
1747.223955
 30
0.0
  0
LWPOLYLINE
  5
13c
100
AcDbEntity
  8
Layer_1
 62
7
100
AcDbPolyline
 90
2
 70
0
 10
27.754300
 20
1761.184235
 30
0.0
 10
27.754300
 20
1747.323957
 30
0.0
  0
SPLINE
  5
13d
100
AcDbEntity
  8
Layer_1
 62
7
100
AcDbSpline
 70
8
 71
3
 72
8
 73
4
 74
0
 40
0
 40
0
 40
0
 40
0
 40
1
 40
1
 40
1
 40
1
 10
36.764300
 20
1747.223955
 30
0.0
 10
36.746300
 20
1747.223955
 30
0.0
 10
36.729300
 20
1747.223955
 30
0.0
 10
36.714300
 20
1747.236956
 30
0.0
  0
SPLINE
  5
13e
100
AcDbEntity
  8
Layer_1
 62
7
100
AcDbSpline
 70
8
 71
3
 72
8
 73
4
 74
0
 40
0
 40
0
 40
0
 40
0
 40
1
 40
1
 40
1
 40
1
 10
36.714300
 20
1747.236956
 30
0.0
 10
36.699300
 20
1747.246956
 30
0.0
 10
36.686300
 20
1747.257956
 30
0.0
 10
36.677300
 20
1747.273956
 30
0.0
  0
SPLINE
  5
13f
100
AcDbEntity
  8
Layer_1
 62
7
100
AcDbSpline
 70
8
 71
3
 72
8
 73
4
 74
0
 40
0
 40
0
 40
0
 40
0
 40
1
 40
1
 40
1
 40
1
 10
36.677300
 20
1747.273956
 30
0.0
 10
36.669300
 20
1747.288957
 30
0.0
 10
36.664300
 20
1747.305957
 30
0.0
 10
36.664300
 20
1747.323957
 30
0.0
  0
SPLINE
  5
140
100
AcDbEntity
  8
Layer_1
 62
7
100
AcDbSpline
 70
8
 71
3
 72
8
 73
4
 74
0
 40
0
 40
0
 40
0
 40
0
 40
1
 40
1
 40
1
 40
1
 10
36.664300
 20
1747.323957
 30
0.0
 10
36.664300
 20
1747.340958
 30
0.0
 10
36.669300
 20
1747.357958
 30
0.0
 10
36.677300
 20
1747.373958
 30
0.0
  0
SPLINE
  5
141
100
AcDbEntity
  8
Layer_1
 62
7
100
AcDbSpline
 70
8
 71
3
 72
8
 73
4
 74
0
 40
0
 40
0
 40
0
 40
0
 40
1
 40
1
 40
1
 40
1
 10
36.677300
 20
1747.373958
 30
0.0
 10
36.686300
 20
1747.388959
 30
0.0
 10
36.699300
 20
1747.400959
 30
0.0
 10
36.714300
 20
1747.409959
 30
0.0
  0
SPLINE
  5
142
100
AcDbEntity
  8
Layer_1
 62
7
100
AcDbSpline
 70
8
 71
3
 72
8
 73
4
 74
0
 40
0
 40
0
 40
0
 40
0
 40
1
 40
1
 40
1
 40
1
 10
36.714300
 20
1747.409959
 30
0.0
 10
36.729300
 20
1747.419959
 30
0.0
 10
36.746300
 20
1747.423959
 30
0.0
 10
36.764300
 20
1747.423959
 30
0.0
  0
LWPOLYLINE
  5
143
100
AcDbEntity
  8
Layer_1
 62
7
100
AcDbPolyline
 90
2
 70
0
 10
27.854300
 20
1747.223955
 30
0.0
 10
36.764300
 20
1747.223955
 30
0.0
  0
SPLINE
  5
144
100
AcDbEntity
  8
Layer_1
 62
7
100
AcDbSpline
 70
8
 71
3
 72
8
 73
4
 74
0
 40
0
 40
0
 40
0
 40
0
 40
1
 40
1
 40
1
 40
1
 10
27.854300
 20
1747.423959
 30
0.0
 10
27.799300
 20
1747.423959
 30
0.0
 10
27.754300
 20
1747.378959
 30
0.0
 10
27.754300
 20
1747.323957
 30
0.0
  0
LWPOLYLINE
  5
145
100
AcDbEntity
  8
Layer_1
 62
7
100
AcDbPolyline
 90
2
 70
0
 10
36.764300
 20
1747.423959
 30
0.0
 10
27.854300
 20
1747.423959
 30
0.0
  0
SPLINE
  5
146
100
AcDbEntity
  8
Layer_1
 62
7
100
AcDbSpline
 70
8
 71
3
 72
8
 73
4
 74
0
 40
0
 40
0
 40
0
 40
0
 40
1
 40
1
 40
1
 40
1
 10
27.754300
 20
1746.333938
 30
0.0
 10
27.754300
 20
1745.968930
 30
0.0
 10
27.850300
 20
1745.609923
 30
0.0
 10
28.033300
 20
1745.293917
 30
0.0
  0
SPLINE
  5
147
100
AcDbEntity
  8
Layer_1
 62
7
100
AcDbSpline
 70
8
 71
3
 72
8
 73
4
 74
0
 40
0
 40
0
 40
0
 40
0
 40
1
 40
1
 40
1
 40
1
 10
28.033300
 20
1745.293917
 30
0.0
 10
28.215300
 20
1744.976911
 30
0.0
 10
28.478300
 20
1744.714905
 30
0.0
 10
28.794300
 20
1744.531902
 30
0.0
  0
SPLINE
  5
148
100
AcDbEntity
  8
Layer_1
 62
7
100
AcDbSpline
 70
8
 71
3
 72
8
 73
4
 74
0
 40
0
 40
0
 40
0
 40
0
 40
1
 40
1
 40
1
 40
1
 10
28.794300
 20
1744.531902
 30
0.0
 10
29.110300
 20
1744.349898
 30
0.0
 10
29.469300
 20
1744.253896
 30
0.0
 10
29.834300
 20
1744.253896
 30
0.0
  0
LWPOLYLINE
  5
149
100
AcDbEntity
  8
Layer_1
 62
7
100
AcDbPolyline
 90
2
 70
0
 10
27.754300
 20
1747.323957
 30
0.0
 10
27.754300
 20
1746.333938
 30
0.0
  0
SPLINE
  5
14a
100
AcDbEntity
  8
Layer_1
 62
7
100
AcDbSpline
 70
8
 71
3
 72
8
 73
4
 74
0
 40
0
 40
0
 40
0
 40
0
 40
1
 40
1
 40
1
 40
1
 10
37.654300
 20
1744.253896
 30
0.0
 10
37.754300
 20
1744.253896
 30
0.0
 10
37.654300
 20
1744.353898
 30
0.0
 10
37.654300
 20
1744.253896
 30
0.0
  0
SPLINE
  5
14b
100
AcDbEntity
  8
Layer_1
 62
7
100
AcDbSpline
 70
8
 71
3
 72
8
 73
4
 74
0
 40
0
 40
0
 40
0
 40
0
 40
1
 40
1
 40
1
 40
1
 10
104.942860
 20
1862.924100
 30
0.0
 10
104.084170
 20
1870.795700
 30
0.0
 10
113.769700
 20
1823.056900
 30
0.0
 10
115.668960
 20
1814.642200
 30
0.0
  0
SPLINE
  5
14c
100
AcDbEntity
  8
Layer_1
 62
7
100
AcDbSpline
 70
8
 71
3
 72
8
 73
4
 74
0
 40
0
 40
0
 40
0
 40
0
 40
1
 40
1
 40
1
 40
1
 10
115.668960
 20
1814.642200
 30
0.0
 10
116.049960
 20
1813.217200
 30
0.0
 10
127.771020
 20
1802.160500
 30
0.0
 10
127.771020
 20
1802.160500
 30
0.0
  0
SPLINE
  5
14d
100
AcDbEntity
  8
Layer_1
 62
7
100
AcDbSpline
 70
8
 71
3
 72
8
 73
4
 74
0
 40
0
 40
0
 40
0
 40
0
 40
1
 40
1
 40
1
 40
1
 10
127.771020
 20
1802.160500
 30
0.0
 10
128.719020
 20
1801.031500
 30
0.0
 10
147.027090
 20
1811.274500
 30
0.0
 10
147.027090
 20
1811.274500
 30
0.0
  0
SPLINE
  5
14e
100
AcDbEntity
  8
Layer_1
 62
7
100
AcDbSpline
 70
8
 71
3
 72
8
 73
4
 74
0
 40
0
 40
0
 40
0
 40
0
 40
1
 40
1
 40
1
 40
1
 10
147.027090
 20
1811.274500
 30
0.0
 10
139.301330
 20
1899.081800
 30
0.0
 10
104.677000
 20
1864.822100
 30
0.0
 10
104.942860
 20
1862.924100
 30
0.0
  0
LWPOLYLINE
  5
14f
100
AcDbEntity
  8
Layer_1
 62
7
100
AcDbPolyline
 90
3
 70
0
 10
29.834300
 20
1744.253896
 30
0.0
 10
37.654300
 20
1744.253896
 30
0.0
 10
74.876147
 20
1792.886869
 30
0.0
  0
LWPOLYLINE
  5
150
100
AcDbEntity
  8
Layer_1
 62
7
100
AcDbPolyline
 90
1
 70
1
 10
104.942860
 20
1862.924100
 30
0.0
  0
SPLINE
  5
151
100
AcDbEntity
  8
Layer_1
 62
7
100
AcDbSpline
 70
8
 71
3
 72
8
 73
4
 74
0
 40
0
 40
0
 40
0
 40
0
 40
1
 40
1
 40
1
 40
1
 10
115.458950
 20
1859.688500
 30
0.0
 10
115.432950
 20
1859.784500
 30
0.0
 10
115.362950
 20
1859.662500
 30
0.0
 10
115.458950
 20
1859.688500
 30
0.0
  0
SPLINE
  5
152
100
AcDbEntity
  8
Layer_1
 62
7
100
AcDbSpline
 70
8
 71
3
 72
8
 73
4
 74
0
 40
0
 40
0
 40
0
 40
0
 40
1
 40
1
 40
1
 40
1
 10
124.828950
 20
1862.198500
 30
0.0
 10
124.924950
 20
1862.224500
 30
0.0
 10
124.802950
 20
1862.295500
 30
0.0
 10
124.828950
 20
1862.198500
 30
0.0
  0
SPLINE
  5
153
100
AcDbEntity
  8
Layer_1
 62
7
100
AcDbSpline
 70
8
 71
3
 72
8
 73
4
 74
0
 40
0
 40
0
 40
0
 40
0
 40
1
 40
1
 40
1
 40
1
 10
129.901950
 20
1843.266200
 30
0.0
 10
129.927950
 20
1843.170200
 30
0.0
 10
129.997950
 20
1843.292200
 30
0.0
 10
129.901950
 20
1843.266200
 30
0.0
  0
SPLINE
  5
154
100
AcDbEntity
  8
Layer_1
 62
7
100
AcDbSpline
 70
8
 71
3
 72
8
 73
4
 74
0
 40
0
 40
0
 40
0
 40
0
 40
1
 40
1
 40
1
 40
1
 10
120.531950
 20
1840.756200
 30
0.0
 10
120.435950
 20
1840.730200
 30
0.0
 10
120.557950
 20
1840.659200
 30
0.0
 10
120.531950
 20
1840.756200
 30
0.0
  0
LWPOLYLINE
  5
155
100
AcDbEntity
  8
Layer_1
 62
7
100
AcDbPolyline
 90
5
 70
1
 10
117.995950
 20
1850.222300
 30
0.0
 10
115.458950
 20
1859.688500
 30
0.0
 10
124.828950
 20
1862.198500
 30
0.0
 10
129.901950
 20
1843.266200
 30
0.0
 10
120.531950
 20
1840.756200
 30
0.0
  0
SPLINE
  5
156
100
AcDbEntity
  8
Layer_1
 62
7
100
AcDbSpline
 70
8
 71
3
 72
8
 73
4
 74
0
 40
0
 40
0
 40
0
 40
0
 40
1
 40
1
 40
1
 40
1
 10
123.145950
 20
1831.000000
 30
0.0
 10
123.119950
 20
1831.096000
 30
0.0
 10
123.049950
 20
1830.974000
 30
0.0
 10
123.145950
 20
1831.000000
 30
0.0
  0
SPLINE
  5
157
100
AcDbEntity
  8
Layer_1
 62
7
100
AcDbSpline
 70
8
 71
3
 72
8
 73
4
 74
0
 40
0
 40
0
 40
0
 40
0
 40
1
 40
1
 40
1
 40
1
 10
132.515950
 20
1833.510100
 30
0.0
 10
132.611950
 20
1833.536100
 30
0.0
 10
132.489950
 20
1833.607100
 30
0.0
 10
132.515950
 20
1833.510100
 30
0.0
  0
SPLINE
  5
158
100
AcDbEntity
  8
Layer_1
 62
7
100
AcDbSpline
 70
8
 71
3
 72
8
 73
4
 74
0
 40
0
 40
0
 40
0
 40
0
 40
1
 40
1
 40
1
 40
1
 10
137.588950
 20
1814.577800
 30
0.0
 10
137.613950
 20
1814.481800
 30
0.0
 10
137.684950
 20
1814.603800
 30
0.0
 10
137.588950
 20
1814.577800
 30
0.0
  0
SPLINE
  5
159
100
AcDbEntity
  8
Layer_1
 62
7
100
AcDbSpline
 70
8
 71
3
 72
8
 73
4
 74
0
 40
0
 40
0
 40
0
 40
0
 40
1
 40
1
 40
1
 40
1
 10
128.218950
 20
1812.067700
 30
0.0
 10
128.122950
 20
1812.041700
 30
0.0
 10
128.244950
 20
1811.970700
 30
0.0
 10
128.218950
 20
1812.067700
 30
0.0
  0
LWPOLYLINE
  5
15a
100
AcDbEntity
  8
Layer_1
 62
7
100
AcDbPolyline
 90
5
 70
1
 10
125.682950
 20
1821.533900
 30
0.0
 10
123.145950
 20
1831.000000
 30
0.0
 10
132.515950
 20
1833.510100
 30
0.0
 10
137.588950
 20
1814.577800
 30
0.0
 10
128.218950
 20
1812.067700
 30
0.0
  0
SPLINE
  5
15b
100
AcDbEntity
  8
Layer_1
 62
7
100
AcDbSpline
 70
8
 71
3
 72
8
 73
4
 74
0
 40
0
 40
0
 40
0
 40
0
 40
1
 40
1
 40
1
 40
1
 10
76.481700
 20
1902.625098
 30
0.0
 10
76.381700
 20
1902.625098
 30
0.0
 10
76.481700
 20
1902.525096
 30
0.0
 10
76.481700
 20
1902.625098
 30
0.0
  0
SPLINE
  5
15c
100
AcDbEntity
  8
Layer_1
 62
7
100
AcDbSpline
 70
8
 71
3
 72
8
 73
4
 74
0
 40
0
 40
0
 40
0
 40
0
 40
1
 40
1
 40
1
 40
1
 10
76.481700
 20
1912.425294
 30
0.0
 10
76.481700
 20
1912.480295
 30
0.0
 10
76.436700
 20
1912.525296
 30
0.0
 10
76.381700
 20
1912.525296
 30
0.0
  0
LWPOLYLINE
  5
15d
100
AcDbEntity
  8
Layer_1
 62
7
100
AcDbPolyline
 90
3
 70
0
 10
76.153547
 20
1891.156869
 30
0.0
 10
76.481700
 20
1902.625098
 30
0.0
 10
76.481700
 20
1912.425294
 30
0.0
  0
SPLINE
  5
15e
100
AcDbEntity
  8
Layer_1
 62
7
100
AcDbSpline
 70
8
 71
3
 72
8
 73
4
 74
0
 40
0
 40
0
 40
0
 40
0
 40
1
 40
1
 40
1
 40
1
 10
66.481700
 20
1912.525296
 30
0.0
 10
66.426700
 20
1912.525296
 30
0.0
 10
66.381700
 20
1912.480295
 30
0.0
 10
66.381700
 20
1912.425294
 30
0.0
  0
LWPOLYLINE
  5
15f
100
AcDbEntity
  8
Layer_1
 62
7
100
AcDbPolyline
 90
2
 70
0
 10
76.381700
 20
1912.525296
 30
0.0
 10
66.481700
 20
1912.525296
 30
0.0
  0
SPLINE
  5
160
100
AcDbEntity
  8
Layer_1
 62
7
100
AcDbSpline
 70
8
 71
3
 72
8
 73
4
 74
0
 40
0
 40
0
 40
0
 40
0
 40
1
 40
1
 40
1
 40
1
 10
66.381700
 20
1902.625098
 30
0.0
 10
66.381700
 20
1902.525096
 30
0.0
 10
66.481700
 20
1902.625098
 30
0.0
 10
66.381700
 20
1902.625098
 30
0.0
  0
SPLINE
  5
161
100
AcDbEntity
  8
Layer_1
 62
7
100
AcDbSpline
 70
8
 71
3
 72
8
 73
4
 74
0
 40
0
 40
0
 40
0
 40
0
 40
1
 40
1
 40
1
 40
1
 10
46.781700
 20
1902.625098
 30
0.0
 10
46.681700
 20
1902.625098
 30
0.0
 10
46.781700
 20
1902.525096
 30
0.0
 10
46.781700
 20
1902.625098
 30
0.0
  0
SPLINE
  5
162
100
AcDbEntity
  8
Layer_1
 62
7
100
AcDbSpline
 70
8
 71
3
 72
8
 73
4
 74
0
 40
0
 40
0
 40
0
 40
0
 40
1
 40
1
 40
1
 40
1
 10
46.781700
 20
1912.425294
 30
0.0
 10
46.781700
 20
1912.480295
 30
0.0
 10
46.736700
 20
1912.525296
 30
0.0
 10
46.681700
 20
1912.525296
 30
0.0
  0
LWPOLYLINE
  5
163
100
AcDbEntity
  8
Layer_1
 62
7
100
AcDbPolyline
 90
4
 70
0
 10
66.381700
 20
1912.425294
 30
0.0
 10
66.381700
 20
1902.625098
 30
0.0
 10
46.781700
 20
1902.625098
 30
0.0
 10
46.781700
 20
1912.425294
 30
0.0
  0
SPLINE
  5
164
100
AcDbEntity
  8
Layer_1
 62
7
100
AcDbSpline
 70
8
 71
3
 72
8
 73
4
 74
0
 40
0
 40
0
 40
0
 40
0
 40
1
 40
1
 40
1
 40
1
 10
39.031700
 20
1912.525296
 30
0.0
 10
38.976700
 20
1912.525296
 30
0.0
 10
38.931700
 20
1912.480295
 30
0.0
 10
38.931700
 20
1912.425294
 30
0.0
  0
LWPOLYLINE
  5
165
100
AcDbEntity
  8
Layer_1
 62
7
100
AcDbPolyline
 90
2
 70
0
 10
46.681700
 20
1912.525296
 30
0.0
 10
39.031700
 20
1912.525296
 30
0.0
  0
SPLINE
  5
166
100
AcDbEntity
  8
Layer_1
 62
7
100
AcDbSpline
 70
8
 71
3
 72
8
 73
4
 74
0
 40
0
 40
0
 40
0
 40
0
 40
1
 40
1
 40
1
 40
1
 10
38.931700
 20
1892.224890
 30
0.0
 10
38.931700
 20
1892.124888
 30
0.0
 10
39.031700
 20
1892.224890
 30
0.0
 10
38.931700
 20
1892.224890
 30
0.0
  0
SPLINE
  5
167
100
AcDbEntity
  8
Layer_1
 62
7
100
AcDbSpline
 70
8
 71
3
 72
8
 73
4
 74
0
 40
0
 40
0
 40
0
 40
0
 40
1
 40
1
 40
1
 40
1
 10
31.111700
 20
1892.224890
 30
0.0
 10
30.746700
 20
1892.224890
 30
0.0
 10
30.387700
 20
1892.128888
 30
0.0
 10
30.071700
 20
1891.945885
 30
0.0
  0
SPLINE
  5
168
100
AcDbEntity
  8
Layer_1
 62
7
100
AcDbSpline
 70
8
 71
3
 72
8
 73
4
 74
0
 40
0
 40
0
 40
0
 40
0
 40
1
 40
1
 40
1
 40
1
 10
30.071700
 20
1891.945885
 30
0.0
 10
29.755700
 20
1891.762881
 30
0.0
 10
29.492700
 20
1891.500876
 30
0.0
 10
29.310700
 20
1891.184869
 30
0.0
  0
SPLINE
  5
169
100
AcDbEntity
  8
Layer_1
 62
7
100
AcDbSpline
 70
8
 71
3
 72
8
 73
4
 74
0
 40
0
 40
0
 40
0
 40
0
 40
1
 40
1
 40
1
 40
1
 10
29.310700
 20
1891.184869
 30
0.0
 10
29.127700
 20
1890.867863
 30
0.0
 10
29.031700
 20
1890.509856
 30
0.0
 10
29.031700
 20
1890.144848
 30
0.0
  0
LWPOLYLINE
  5
16a
100
AcDbEntity
  8
Layer_1
 62
7
100
AcDbPolyline
 90
4
 70
0
 10
38.931700
 20
1912.425294
 30
0.0
 10
38.931700
 20
1902.525096
 30
0.0
 10
38.931700
 20
1892.224890
 30
0.0
 10
31.111700
 20
1892.224890
 30
0.0
  0
SPLINE
  5
16b
100
AcDbEntity
  8
Layer_1
 62
7
100
AcDbSpline
 70
8
 71
3
 72
8
 73
4
 74
0
 40
0
 40
0
 40
0
 40
0
 40
1
 40
1
 40
1
 40
1
 10
29.031700
 20
1889.154829
 30
0.0
 10
29.031700
 20
1889.098828
 30
0.0
 10
29.076700
 20
1889.054827
 30
0.0
 10
29.131700
 20
1889.054827
 30
0.0
  0
LWPOLYLINE
  5
16c
100
AcDbEntity
  8
Layer_1
 62
7
100
AcDbPolyline
 90
2
 70
0
 10
29.031700
 20
1890.144848
 30
0.0
 10
29.031700
 20
1889.154829
 30
0.0
  0
SPLINE
  5
16d
100
AcDbEntity
  8
Layer_1
 62
7
100
AcDbSpline
 70
8
 71
3
 72
8
 73
4
 74
0
 40
0
 40
0
 40
0
 40
0
 40
1
 40
1
 40
1
 40
1
 10
38.041700
 20
1889.054827
 30
0.0
 10
38.023700
 20
1889.054827
 30
0.0
 10
38.006700
 20
1889.054827
 30
0.0
 10
37.991700
 20
1889.067827
 30
0.0
  0
SPLINE
  5
16e
100
AcDbEntity
  8
Layer_1
 62
7
100
AcDbSpline
 70
8
 71
3
 72
8
 73
4
 74
0
 40
0
 40
0
 40
0
 40
0
 40
1
 40
1
 40
1
 40
1
 10
37.991700
 20
1889.067827
 30
0.0
 10
37.976700
 20
1889.077827
 30
0.0
 10
37.963700
 20
1889.088827
 30
0.0
 10
37.954700
 20
1889.104828
 30
0.0
  0
SPLINE
  5
16f
100
AcDbEntity
  8
Layer_1
 62
7
100
AcDbSpline
 70
8
 71
3
 72
8
 73
4
 74
0
 40
0
 40
0
 40
0
 40
0
 40
1
 40
1
 40
1
 40
1
 10
37.954700
 20
1889.104828
 30
0.0
 10
37.946700
 20
1889.119828
 30
0.0
 10
37.941700
 20
1889.136828
 30
0.0
 10
37.941700
 20
1889.154829
 30
0.0
  0
SPLINE
  5
170
100
AcDbEntity
  8
Layer_1
 62
7
100
AcDbSpline
 70
8
 71
3
 72
8
 73
4
 74
0
 40
0
 40
0
 40
0
 40
0
 40
1
 40
1
 40
1
 40
1
 10
37.941700
 20
1889.154829
 30
0.0
 10
37.941700
 20
1889.171829
 30
0.0
 10
37.946700
 20
1889.188829
 30
0.0
 10
37.954700
 20
1889.204830
 30
0.0
  0
SPLINE
  5
171
100
AcDbEntity
  8
Layer_1
 62
7
100
AcDbSpline
 70
8
 71
3
 72
8
 73
4
 74
0
 40
0
 40
0
 40
0
 40
0
 40
1
 40
1
 40
1
 40
1
 10
37.954700
 20
1889.204830
 30
0.0
 10
37.963700
 20
1889.219830
 30
0.0
 10
37.976700
 20
1889.231830
 30
0.0
 10
37.991700
 20
1889.240830
 30
0.0
  0
SPLINE
  5
172
100
AcDbEntity
  8
Layer_1
 62
7
100
AcDbSpline
 70
8
 71
3
 72
8
 73
4
 74
0
 40
0
 40
0
 40
0
 40
0
 40
1
 40
1
 40
1
 40
1
 10
37.991700
 20
1889.240830
 30
0.0
 10
38.006700
 20
1889.250831
 30
0.0
 10
38.023700
 20
1889.254831
 30
0.0
 10
38.041700
 20
1889.254831
 30
0.0
  0
LWPOLYLINE
  5
173
100
AcDbEntity
  8
Layer_1
 62
7
100
AcDbPolyline
 90
2
 70
0
 10
29.131700
 20
1889.054827
 30
0.0
 10
38.041700
 20
1889.054827
 30
0.0
  0
SPLINE
  5
174
100
AcDbEntity
  8
Layer_1
 62
7
100
AcDbSpline
 70
8
 71
3
 72
8
 73
4
 74
0
 40
0
 40
0
 40
0
 40
0
 40
1
 40
1
 40
1
 40
1
 10
29.131700
 20
1889.254831
 30
0.0
 10
29.076700
 20
1889.254831
 30
0.0
 10
29.031700
 20
1889.209830
 30
0.0
 10
29.031700
 20
1889.154829
 30
0.0
  0
LWPOLYLINE
  5
175
100
AcDbEntity
  8
Layer_1
 62
7
100
AcDbPolyline
 90
2
 70
0
 10
38.041700
 20
1889.254831
 30
0.0
 10
29.131700
 20
1889.254831
 30
0.0
  0
SPLINE
  5
176
100
AcDbEntity
  8
Layer_1
 62
7
100
AcDbSpline
 70
8
 71
3
 72
8
 73
4
 74
0
 40
0
 40
0
 40
0
 40
0
 40
1
 40
1
 40
1
 40
1
 10
29.031700
 20
1875.294551
 30
0.0
 10
29.031700
 20
1875.238550
 30
0.0
 10
29.076700
 20
1875.194549
 30
0.0
 10
29.131700
 20
1875.194549
 30
0.0
  0
LWPOLYLINE
  5
177
100
AcDbEntity
  8
Layer_1
 62
7
100
AcDbPolyline
 90
2
 70
0
 10
29.031700
 20
1889.154829
 30
0.0
 10
29.031700
 20
1875.294551
 30
0.0
  0
SPLINE
  5
178
100
AcDbEntity
  8
Layer_1
 62
7
100
AcDbSpline
 70
8
 71
3
 72
8
 73
4
 74
0
 40
0
 40
0
 40
0
 40
0
 40
1
 40
1
 40
1
 40
1
 10
38.041700
 20
1875.194549
 30
0.0
 10
38.023700
 20
1875.194549
 30
0.0
 10
38.006700
 20
1875.194549
 30
0.0
 10
37.991700
 20
1875.207550
 30
0.0
  0
SPLINE
  5
179
100
AcDbEntity
  8
Layer_1
 62
7
100
AcDbSpline
 70
8
 71
3
 72
8
 73
4
 74
0
 40
0
 40
0
 40
0
 40
0
 40
1
 40
1
 40
1
 40
1
 10
37.991700
 20
1875.207550
 30
0.0
 10
37.976700
 20
1875.217550
 30
0.0
 10
37.963700
 20
1875.228550
 30
0.0
 10
37.954700
 20
1875.244550
 30
0.0
  0
SPLINE
  5
17a
100
AcDbEntity
  8
Layer_1
 62
7
100
AcDbSpline
 70
8
 71
3
 72
8
 73
4
 74
0
 40
0
 40
0
 40
0
 40
0
 40
1
 40
1
 40
1
 40
1
 10
37.954700
 20
1875.244550
 30
0.0
 10
37.946700
 20
1875.259551
 30
0.0
 10
37.941700
 20
1875.276551
 30
0.0
 10
37.941700
 20
1875.294551
 30
0.0
  0
SPLINE
  5
17b
100
AcDbEntity
  8
Layer_1
 62
7
100
AcDbSpline
 70
8
 71
3
 72
8
 73
4
 74
0
 40
0
 40
0
 40
0
 40
0
 40
1
 40
1
 40
1
 40
1
 10
37.941700
 20
1875.294551
 30
0.0
 10
37.941700
 20
1875.311552
 30
0.0
 10
37.946700
 20
1875.328552
 30
0.0
 10
37.954700
 20
1875.344552
 30
0.0
  0
SPLINE
  5
17c
100
AcDbEntity
  8
Layer_1
 62
7
100
AcDbSpline
 70
8
 71
3
 72
8
 73
4
 74
0
 40
0
 40
0
 40
0
 40
0
 40
1
 40
1
 40
1
 40
1
 10
37.954700
 20
1875.344552
 30
0.0
 10
37.963700
 20
1875.359553
 30
0.0
 10
37.976700
 20
1875.371553
 30
0.0
 10
37.991700
 20
1875.380553
 30
0.0
  0
SPLINE
  5
17d
100
AcDbEntity
  8
Layer_1
 62
7
100
AcDbSpline
 70
8
 71
3
 72
8
 73
4
 74
0
 40
0
 40
0
 40
0
 40
0
 40
1
 40
1
 40
1
 40
1
 10
37.991700
 20
1875.380553
 30
0.0
 10
38.006700
 20
1875.390553
 30
0.0
 10
38.023700
 20
1875.394553
 30
0.0
 10
38.041700
 20
1875.394553
 30
0.0
  0
LWPOLYLINE
  5
17e
100
AcDbEntity
  8
Layer_1
 62
7
100
AcDbPolyline
 90
2
 70
0
 10
29.131700
 20
1875.194549
 30
0.0
 10
38.041700
 20
1875.194549
 30
0.0
  0
SPLINE
  5
17f
100
AcDbEntity
  8
Layer_1
 62
7
100
AcDbSpline
 70
8
 71
3
 72
8
 73
4
 74
0
 40
0
 40
0
 40
0
 40
0
 40
1
 40
1
 40
1
 40
1
 10
29.131700
 20
1875.394553
 30
0.0
 10
29.076700
 20
1875.394553
 30
0.0
 10
29.031700
 20
1875.349553
 30
0.0
 10
29.031700
 20
1875.294551
 30
0.0
  0
LWPOLYLINE
  5
180
100
AcDbEntity
  8
Layer_1
 62
7
100
AcDbPolyline
 90
2
 70
0
 10
38.041700
 20
1875.394553
 30
0.0
 10
29.131700
 20
1875.394553
 30
0.0
  0
SPLINE
  5
181
100
AcDbEntity
  8
Layer_1
 62
7
100
AcDbSpline
 70
8
 71
3
 72
8
 73
4
 74
0
 40
0
 40
0
 40
0
 40
0
 40
1
 40
1
 40
1
 40
1
 10
29.031700
 20
1874.304532
 30
0.0
 10
29.031700
 20
1873.939524
 30
0.0
 10
29.127700
 20
1873.580517
 30
0.0
 10
29.310700
 20
1873.264511
 30
0.0
  0
SPLINE
  5
182
100
AcDbEntity
  8
Layer_1
 62
7
100
AcDbSpline
 70
8
 71
3
 72
8
 73
4
 74
0
 40
0
 40
0
 40
0
 40
0
 40
1
 40
1
 40
1
 40
1
 10
29.310700
 20
1873.264511
 30
0.0
 10
29.492700
 20
1872.947505
 30
0.0
 10
29.755700
 20
1872.685499
 30
0.0
 10
30.071700
 20
1872.502496
 30
0.0
  0
SPLINE
  5
183
100
AcDbEntity
  8
Layer_1
 62
7
100
AcDbSpline
 70
8
 71
3
 72
8
 73
4
 74
0
 40
0
 40
0
 40
0
 40
0
 40
1
 40
1
 40
1
 40
1
 10
30.071700
 20
1872.502496
 30
0.0
 10
30.387700
 20
1872.320492
 30
0.0
 10
30.746700
 20
1872.224490
 30
0.0
 10
31.111700
 20
1872.224490
 30
0.0
  0
LWPOLYLINE
  5
184
100
AcDbEntity
  8
Layer_1
 62
7
100
AcDbPolyline
 90
2
 70
0
 10
29.031700
 20
1875.294551
 30
0.0
 10
29.031700
 20
1874.304532
 30
0.0
  0
SPLINE
  5
185
100
AcDbEntity
  8
Layer_1
 62
7
100
AcDbSpline
 70
8
 71
3
 72
8
 73
4
 74
0
 40
0
 40
0
 40
0
 40
0
 40
1
 40
1
 40
1
 40
1
 10
38.931700
 20
1872.224490
 30
0.0
 10
39.031700
 20
1872.224490
 30
0.0
 10
38.931700
 20
1872.324492
 30
0.0
 10
38.931700
 20
1872.224490
 30
0.0
  0
SPLINE
  5
186
100
AcDbEntity
  8
Layer_1
 62
7
100
AcDbSpline
 70
8
 71
3
 72
8
 73
4
 74
0
 40
0
 40
0
 40
0
 40
0
 40
1
 40
1
 40
1
 40
1
 10
38.931700
 20
1862.524296
 30
0.0
 10
38.931700
 20
1862.424294
 30
0.0
 10
39.031700
 20
1862.524296
 30
0.0
 10
38.931700
 20
1862.524296
 30
0.0
  0
SPLINE
  5
187
100
AcDbEntity
  8
Layer_1
 62
7
100
AcDbSpline
 70
8
 71
3
 72
8
 73
4
 74
0
 40
0
 40
0
 40
0
 40
0
 40
1
 40
1
 40
1
 40
1
 10
31.111700
 20
1862.524296
 30
0.0
 10
30.746700
 20
1862.524296
 30
0.0
 10
30.387700
 20
1862.428294
 30
0.0
 10
30.071700
 20
1862.245291
 30
0.0
  0
SPLINE
  5
188
100
AcDbEntity
  8
Layer_1
 62
7
100
AcDbSpline
 70
8
 71
3
 72
8
 73
4
 74
0
 40
0
 40
0
 40
0
 40
0
 40
1
 40
1
 40
1
 40
1
 10
30.071700
 20
1862.245291
 30
0.0
 10
29.755700
 20
1862.062287
 30
0.0
 10
29.492700
 20
1861.800282
 30
0.0
 10
29.310700
 20
1861.484275
 30
0.0
  0
SPLINE
  5
189
100
AcDbEntity
  8
Layer_1
 62
7
100
AcDbSpline
 70
8
 71
3
 72
8
 73
4
 74
0
 40
0
 40
0
 40
0
 40
0
 40
1
 40
1
 40
1
 40
1
 10
29.310700
 20
1861.484275
 30
0.0
 10
29.127700
 20
1861.167269
 30
0.0
 10
29.031700
 20
1860.809262
 30
0.0
 10
29.031700
 20
1860.444254
 30
0.0
  0
LWPOLYLINE
  5
18a
100
AcDbEntity
  8
Layer_1
 62
7
100
AcDbPolyline
 90
4
 70
0
 10
31.111700
 20
1872.224490
 30
0.0
 10
38.931700
 20
1872.224490
 30
0.0
 10
38.931700
 20
1862.524296
 30
0.0
 10
31.111700
 20
1862.524296
 30
0.0
  0
SPLINE
  5
18b
100
AcDbEntity
  8
Layer_1
 62
7
100
AcDbSpline
 70
8
 71
3
 72
8
 73
4
 74
0
 40
0
 40
0
 40
0
 40
0
 40
1
 40
1
 40
1
 40
1
 10
29.031700
 20
1859.454235
 30
0.0
 10
29.031700
 20
1859.398234
 30
0.0
 10
29.076700
 20
1859.354233
 30
0.0
 10
29.131700
 20
1859.354233
 30
0.0
  0
LWPOLYLINE
  5
18c
100
AcDbEntity
  8
Layer_1
 62
7
100
AcDbPolyline
 90
2
 70
0
 10
29.031700
 20
1860.444254
 30
0.0
 10
29.031700
 20
1859.454235
 30
0.0
  0
SPLINE
  5
18d
100
AcDbEntity
  8
Layer_1
 62
7
100
AcDbSpline
 70
8
 71
3
 72
8
 73
4
 74
0
 40
0
 40
0
 40
0
 40
0
 40
1
 40
1
 40
1
 40
1
 10
38.041700
 20
1859.354233
 30
0.0
 10
38.023700
 20
1859.354233
 30
0.0
 10
38.006700
 20
1859.354233
 30
0.0
 10
37.991700
 20
1859.367233
 30
0.0
  0
SPLINE
  5
18e
100
AcDbEntity
  8
Layer_1
 62
7
100
AcDbSpline
 70
8
 71
3
 72
8
 73
4
 74
0
 40
0
 40
0
 40
0
 40
0
 40
1
 40
1
 40
1
 40
1
 10
37.991700
 20
1859.367233
 30
0.0
 10
37.976700
 20
1859.377233
 30
0.0
 10
37.963700
 20
1859.388233
 30
0.0
 10
37.954700
 20
1859.404234
 30
0.0
  0
SPLINE
  5
18f
100
AcDbEntity
  8
Layer_1
 62
7
100
AcDbSpline
 70
8
 71
3
 72
8
 73
4
 74
0
 40
0
 40
0
 40
0
 40
0
 40
1
 40
1
 40
1
 40
1
 10
37.954700
 20
1859.404234
 30
0.0
 10
37.946700
 20
1859.419234
 30
0.0
 10
37.941700
 20
1859.436234
 30
0.0
 10
37.941700
 20
1859.454235
 30
0.0
  0
SPLINE
  5
190
100
AcDbEntity
  8
Layer_1
 62
7
100
AcDbSpline
 70
8
 71
3
 72
8
 73
4
 74
0
 40
0
 40
0
 40
0
 40
0
 40
1
 40
1
 40
1
 40
1
 10
37.941700
 20
1859.454235
 30
0.0
 10
37.941700
 20
1859.471235
 30
0.0
 10
37.946700
 20
1859.488235
 30
0.0
 10
37.954700
 20
1859.504236
 30
0.0
  0
SPLINE
  5
191
100
AcDbEntity
  8
Layer_1
 62
7
100
AcDbSpline
 70
8
 71
3
 72
8
 73
4
 74
0
 40
0
 40
0
 40
0
 40
0
 40
1
 40
1
 40
1
 40
1
 10
37.954700
 20
1859.504236
 30
0.0
 10
37.963700
 20
1859.519236
 30
0.0
 10
37.976700
 20
1859.531236
 30
0.0
 10
37.991700
 20
1859.540236
 30
0.0
  0
SPLINE
  5
192
100
AcDbEntity
  8
Layer_1
 62
7
100
AcDbSpline
 70
8
 71
3
 72
8
 73
4
 74
0
 40
0
 40
0
 40
0
 40
0
 40
1
 40
1
 40
1
 40
1
 10
37.991700
 20
1859.540236
 30
0.0
 10
38.006700
 20
1859.550237
 30
0.0
 10
38.023700
 20
1859.554237
 30
0.0
 10
38.041700
 20
1859.554237
 30
0.0
  0
LWPOLYLINE
  5
193
100
AcDbEntity
  8
Layer_1
 62
7
100
AcDbPolyline
 90
2
 70
0
 10
29.131700
 20
1859.354233
 30
0.0
 10
38.041700
 20
1859.354233
 30
0.0
  0
SPLINE
  5
194
100
AcDbEntity
  8
Layer_1
 62
7
100
AcDbSpline
 70
8
 71
3
 72
8
 73
4
 74
0
 40
0
 40
0
 40
0
 40
0
 40
1
 40
1
 40
1
 40
1
 10
29.131700
 20
1859.554237
 30
0.0
 10
29.076700
 20
1859.554237
 30
0.0
 10
29.031700
 20
1859.509236
 30
0.0
 10
29.031700
 20
1859.454235
 30
0.0
  0
LWPOLYLINE
  5
195
100
AcDbEntity
  8
Layer_1
 62
7
100
AcDbPolyline
 90
2
 70
0
 10
38.041700
 20
1859.554237
 30
0.0
 10
29.131700
 20
1859.554237
 30
0.0
  0
SPLINE
  5
196
100
AcDbEntity
  8
Layer_1
 62
7
100
AcDbSpline
 70
8
 71
3
 72
8
 73
4
 74
0
 40
0
 40
0
 40
0
 40
0
 40
1
 40
1
 40
1
 40
1
 10
29.031700
 20
1845.593957
 30
0.0
 10
29.031700
 20
1845.537956
 30
0.0
 10
29.076700
 20
1845.493955
 30
0.0
 10
29.131700
 20
1845.493955
 30
0.0
  0
LWPOLYLINE
  5
197
100
AcDbEntity
  8
Layer_1
 62
7
100
AcDbPolyline
 90
2
 70
0
 10
29.031700
 20
1859.454235
 30
0.0
 10
29.031700
 20
1845.593957
 30
0.0
  0
SPLINE
  5
198
100
AcDbEntity
  8
Layer_1
 62
7
100
AcDbSpline
 70
8
 71
3
 72
8
 73
4
 74
0
 40
0
 40
0
 40
0
 40
0
 40
1
 40
1
 40
1
 40
1
 10
38.041700
 20
1845.493955
 30
0.0
 10
38.023700
 20
1845.493955
 30
0.0
 10
38.006700
 20
1845.493955
 30
0.0
 10
37.991700
 20
1845.506956
 30
0.0
  0
SPLINE
  5
199
100
AcDbEntity
  8
Layer_1
 62
7
100
AcDbSpline
 70
8
 71
3
 72
8
 73
4
 74
0
 40
0
 40
0
 40
0
 40
0
 40
1
 40
1
 40
1
 40
1
 10
37.991700
 20
1845.506956
 30
0.0
 10
37.976700
 20
1845.516956
 30
0.0
 10
37.963700
 20
1845.527956
 30
0.0
 10
37.954700
 20
1845.543956
 30
0.0
  0
SPLINE
  5
19a
100
AcDbEntity
  8
Layer_1
 62
7
100
AcDbSpline
 70
8
 71
3
 72
8
 73
4
 74
0
 40
0
 40
0
 40
0
 40
0
 40
1
 40
1
 40
1
 40
1
 10
37.954700
 20
1845.543956
 30
0.0
 10
37.946700
 20
1845.558957
 30
0.0
 10
37.941700
 20
1845.575957
 30
0.0
 10
37.941700
 20
1845.593957
 30
0.0
  0
SPLINE
  5
19b
100
AcDbEntity
  8
Layer_1
 62
7
100
AcDbSpline
 70
8
 71
3
 72
8
 73
4
 74
0
 40
0
 40
0
 40
0
 40
0
 40
1
 40
1
 40
1
 40
1
 10
37.941700
 20
1845.593957
 30
0.0
 10
37.941700
 20
1845.610958
 30
0.0
 10
37.946700
 20
1845.627958
 30
0.0
 10
37.954700
 20
1845.643958
 30
0.0
  0
SPLINE
  5
19c
100
AcDbEntity
  8
Layer_1
 62
7
100
AcDbSpline
 70
8
 71
3
 72
8
 73
4
 74
0
 40
0
 40
0
 40
0
 40
0
 40
1
 40
1
 40
1
 40
1
 10
37.954700
 20
1845.643958
 30
0.0
 10
37.963700
 20
1845.658959
 30
0.0
 10
37.976700
 20
1845.670959
 30
0.0
 10
37.991700
 20
1845.679959
 30
0.0
  0
SPLINE
  5
19d
100
AcDbEntity
  8
Layer_1
 62
7
100
AcDbSpline
 70
8
 71
3
 72
8
 73
4
 74
0
 40
0
 40
0
 40
0
 40
0
 40
1
 40
1
 40
1
 40
1
 10
37.991700
 20
1845.679959
 30
0.0
 10
38.006700
 20
1845.689959
 30
0.0
 10
38.023700
 20
1845.693959
 30
0.0
 10
38.041700
 20
1845.693959
 30
0.0
  0
LWPOLYLINE
  5
19e
100
AcDbEntity
  8
Layer_1
 62
7
100
AcDbPolyline
 90
2
 70
0
 10
29.131700
 20
1845.493955
 30
0.0
 10
38.041700
 20
1845.493955
 30
0.0
  0
SPLINE
  5
19f
100
AcDbEntity
  8
Layer_1
 62
7
100
AcDbSpline
 70
8
 71
3
 72
8
 73
4
 74
0
 40
0
 40
0
 40
0
 40
0
 40
1
 40
1
 40
1
 40
1
 10
29.131700
 20
1845.693959
 30
0.0
 10
29.076700
 20
1845.693959
 30
0.0
 10
29.031700
 20
1845.648959
 30
0.0
 10
29.031700
 20
1845.593957
 30
0.0
  0
LWPOLYLINE
  5
1a0
100
AcDbEntity
  8
Layer_1
 62
7
100
AcDbPolyline
 90
2
 70
0
 10
38.041700
 20
1845.693959
 30
0.0
 10
29.131700
 20
1845.693959
 30
0.0
  0
SPLINE
  5
1a1
100
AcDbEntity
  8
Layer_1
 62
7
100
AcDbSpline
 70
8
 71
3
 72
8
 73
4
 74
0
 40
0
 40
0
 40
0
 40
0
 40
1
 40
1
 40
1
 40
1
 10
29.031700
 20
1844.603938
 30
0.0
 10
29.031700
 20
1844.238930
 30
0.0
 10
29.127700
 20
1843.879923
 30
0.0
 10
29.310700
 20
1843.563917
 30
0.0
  0
SPLINE
  5
1a2
100
AcDbEntity
  8
Layer_1
 62
7
100
AcDbSpline
 70
8
 71
3
 72
8
 73
4
 74
0
 40
0
 40
0
 40
0
 40
0
 40
1
 40
1
 40
1
 40
1
 10
29.310700
 20
1843.563917
 30
0.0
 10
29.492700
 20
1843.246911
 30
0.0
 10
29.755700
 20
1842.984905
 30
0.0
 10
30.071700
 20
1842.801902
 30
0.0
  0
SPLINE
  5
1a3
100
AcDbEntity
  8
Layer_1
 62
7
100
AcDbSpline
 70
8
 71
3
 72
8
 73
4
 74
0
 40
0
 40
0
 40
0
 40
0
 40
1
 40
1
 40
1
 40
1
 10
30.071700
 20
1842.801902
 30
0.0
 10
30.387700
 20
1842.619898
 30
0.0
 10
30.746700
 20
1842.523896
 30
0.0
 10
31.111700
 20
1842.523896
 30
0.0
  0
LWPOLYLINE
  5
1a4
100
AcDbEntity
  8
Layer_1
 62
7
100
AcDbPolyline
 90
2
 70
0
 10
29.031700
 20
1845.593957
 30
0.0
 10
29.031700
 20
1844.603938
 30
0.0
  0
SPLINE
  5
1a5
100
AcDbEntity
  8
Layer_1
 62
7
100
AcDbSpline
 70
8
 71
3
 72
8
 73
4
 74
0
 40
0
 40
0
 40
0
 40
0
 40
1
 40
1
 40
1
 40
1
 10
38.931700
 20
1842.523896
 30
0.0
 10
39.031700
 20
1842.523896
 30
0.0
 10
38.931700
 20
1842.623898
 30
0.0
 10
38.931700
 20
1842.523896
 30
0.0
  0
LWPOLYLINE
  5
1a6
100
AcDbEntity
  8
Layer_1
 62
7
100
AcDbPolyline
 90
3
 70
0
 10
31.111700
 20
1842.523896
 30
0.0
 10
38.931700
 20
1842.523896
 30
0.0
 10
76.153547
 20
1891.156869
 30
0.0
  0
ENDSEC
  0
SECTION
  2
OBJECTS
  0
DICTIONARY
  5
C
330
0
100
AcDbDictionary
  3
ACAD_GROUP
350
D
  3
ACAD_MLINESTYLE
350
17
  0
DICTIONARY
  5
D
330
C
100
AcDbDictionary
  0
DICTIONARY
  5
1A
330
C
100
AcDbDictionary
  0
DICTIONARY
  5
17
330
C
100
AcDbDictionary
  3
STANDARD
350
18
  0
DICTIONARY
  5
19
330
C
100
AcDbDictionary
  0
ENDSEC
  0
EOF
