<?xml version="1.0" encoding="UTF-8" standalone="no"?>
<!-- Created with Inkscape (http://www.inkscape.org/) -->

<svg
   width="210mm"
   height="297mm"
   viewBox="0 0 210 297"
   version="1.1"
   id="svg5"
   xml:space="preserve"
   inkscape:version="1.2.2 (b0a8486541, 2022-12-01)"
   sodipodi:docname="chiffres_pochoir.svg"
   xmlns:inkscape="http://www.inkscape.org/namespaces/inkscape"
   xmlns:sodipodi="http://sodipodi.sourceforge.net/DTD/sodipodi-0.dtd"
   xmlns="http://www.w3.org/2000/svg"
   xmlns:svg="http://www.w3.org/2000/svg"><sodipodi:namedview
     id="namedview7"
     pagecolor="#ffffff"
     bordercolor="#666666"
     borderopacity="1.0"
     inkscape:showpageshadow="2"
     inkscape:pageopacity="0.0"
     inkscape:pagecheckerboard="0"
     inkscape:deskcolor="#d1d1d1"
     inkscape:document-units="mm"
     showgrid="false"
     inkscape:zoom="1.1893044"
     inkscape:cx="303.11836"
     inkscape:cy="317.83284"
     inkscape:window-width="1920"
     inkscape:window-height="1011"
     inkscape:window-x="0"
     inkscape:window-y="32"
     inkscape:window-maximized="1"
     inkscape:current-layer="layer1" /><defs
     id="defs2" /><g
     inkscape:label="Layer 1"
     inkscape:groupmode="layer"
     id="layer1"><text
       xml:space="preserve"
       style="font-size:10.5833px;line-height:1.25;font-family:'TeX Gyre Adventor';-inkscape-font-specification:'TeX Gyre Adventor';stroke-width:0.264583"
       x="62.621922"
       y="75.087303"
       id="text113"><tspan
         sodipodi:role="line"
         id="tspan111"
         style="stroke-width:0.264583"
         x="62.621922"
         y="75.087303" /></text><path
       style="fill:#000000;stroke-width:1"
       d="m 124.03205,149.79885 c 0,-0.13892 0.48526,-1.59744 1.07835,-3.24114 1.05301,-2.9183 2.95144,-8.30535 6.60099,-18.73126 0.99331,-2.83765 2.1026,-5.99281 2.46509,-7.01145 l 0.65907,-1.85209 2.27173,-0.13229 c 1.24945,-0.0728 2.27144,-0.13229 2.27108,-0.13229 -0.0155,0 -9.56602,27.2391 -10.13485,28.90573 l -0.8353,2.44739 h -2.18808 c -1.21313,0 -2.18808,-0.11255 -2.18808,-0.2526 z M 100.7634,146.2327 c -0.35392,-0.42646 -0.32106,-0.46326 2.10198,-2.35377 1.05105,-0.82006 1.45521,-1.31342 1.45521,-1.77642 0,-0.53836 -0.16273,-0.66749 -1.01598,-0.80618 -1.38778,-0.22558 -2.32474,-1.28353 -2.49799,-2.82056 -0.18186,-1.61348 0.46738,-2.79923 1.91687,-3.50092 1.24759,-0.60395 2.03191,-0.66846 2.87126,-0.23617 4.21049,2.16854 2.98016,8.02449 -2.3325,11.10191 -1.48277,0.85892 -2.03899,0.9462 -2.49885,0.39211 z m -52.338304,-2.5732 c -0.228638,-0.22863 -0.328467,-1.39796 -0.328467,-3.84742 v -3.51896 h -3.704167 -3.704166 v -1.81901 -1.81901 l 0.826823,-0.16536 c 0.454752,-0.091 2.121627,-0.16537 3.704166,-0.16537 h 2.877344 v -3.70417 -3.70416 h 1.984375 1.984375 v 3.28565 c 0,1.80711 0.07227,3.47398 0.160599,3.70417 0.132686,0.34577 0.655762,0.41851 3.009636,0.41851 1.566968,0 3.221106,0.0744 3.675859,0.16537 l 0.826823,0.16536 v 1.81901 1.81901 h -3.704167 c -2.037292,0 -3.721933,0.0298 -3.743645,0.0662 -0.02172,0.0364 -0.111011,1.73302 -0.198438,3.77031 l -0.158959,3.70417 -1.589762,0.0771 c -1.008502,0.0489 -1.709859,-0.043 -1.918229,-0.25136 z m 24.195622,-7.53674 c -0.100333,-0.10033 -0.182422,-0.93421 -0.182422,-1.85307 0,-2.06279 -0.203251,-1.99024 5.291666,-1.88876 l 4.101042,0.0757 v 1.85209 1.85208 l -4.513932,0.0722 c -2.482665,0.0397 -4.596024,-0.01 -4.696354,-0.11025 z m 30.899492,-7.01156 c -0.44021,-0.11588 -1.19809,-0.62103 -1.68417,-1.12254 -0.77032,-0.79477 -0.8838,-1.08739 -0.8838,-2.27887 0,-1.19122 0.11355,-1.48418 0.88291,-2.27796 1.13583,-1.17188 2.55484,-1.62605 3.65571,-1.17006 1.87268,0.77569 2.87252,2.51258 2.40926,4.1853 -0.30728,1.10952 -0.43423,1.31327 -1.24508,1.9982 -0.75356,0.63652 -2.13321,0.9296 -3.13483,0.66593 z M 48.01773,101.20103 c -0.102126,-0.10213 -0.185684,-0.57454 -0.185684,-1.0498 0,-0.644318 0.140744,-0.908788 0.55332,-1.039733 1.0277,-0.326181 1.298763,-1.62778 1.298763,-6.236449 V 88.59831 l -0.926042,-0.873368 c -0.772816,-0.728859 -0.926041,-1.057307 -0.926041,-1.985023 v -1.11165 l 1.862817,0.133284 c 5.763673,0.412387 8.965766,5.589892 7.000658,11.319452 -0.772379,2.251985 -3.533841,4.464075 -6.099963,4.886415 -0.574046,0.0945 -1.347116,0.22747 -1.717932,0.29554 -0.370816,0.0681 -0.757769,0.0402 -0.859896,-0.0619 z m 28.720045,-0.0282 c -0.483418,-0.1658 -0.431485,-1.921416 0.05684,-1.921416 0.755586,0 0.935349,-1.029359 0.935349,-5.355995 0,-5.087419 -0.109855,-5.404329 -1.78077,-5.137139 l -1.067541,0.170706 0.07223,-0.858057 c 0.03973,-0.471932 0.08529,-0.942742 0.101238,-1.046244 0.05114,-0.331759 2.73001,-1.002634 3.979632,-0.996628 1.328875,0.0064 3.244181,0.76326 4.211503,1.664259 0.802327,0.747318 1.77451,2.69218 1.966785,3.934576 0.342389,2.212361 -0.930473,5.798055 -2.630831,7.411125 -1.334387,1.265893 -4.745263,2.511783 -5.844437,2.134813 z m 25.069275,0.003 c -3.059093,-0.55586 -4.153513,-5.206607 -2.122111,-9.017909 0.475811,-0.89271 1.783791,-2.681833 2.906621,-3.975828 1.12284,-1.293995 2.43788,-2.904633 2.92231,-3.579198 0.59907,-0.834179 1.0711,-1.226482 1.47576,-1.226482 0.32723,0 0.76948,-0.06697 0.98277,-0.148815 0.28347,-0.108775 0.21394,0.214501 -0.25843,1.201502 -0.35543,0.742673 -0.89159,2.320579 -1.19148,3.506452 -0.55665,2.201275 -0.55754,2.318149 -0.0591,7.772699 0.20191,2.209496 -0.11896,3.427121 -1.15676,4.389559 -0.63847,0.59211 -2.24567,1.33251 -2.6792,1.23424 -0.0874,-0.0198 -0.45661,-0.0901 -0.82041,-0.15622 z m 25.2418,-0.0931 c -2.73724,-0.35754 -4.37979,-1.25326 -5.60525,-3.056683 -0.52131,-0.767184 -0.70013,-1.422601 -0.79609,-2.917952 -0.10885,-1.696032 -0.0391,-2.101602 0.57858,-3.36409 0.77845,-1.59108 1.85684,-2.538587 3.93513,-3.457506 l 1.38437,-0.612101 -1.0245,-0.429186 c -0.56348,-0.236053 -1.09926,-0.429278 -1.19063,-0.429392 -0.4418,-5.29e-4 -2.18309,-1.865246 -2.54042,-2.72048 -0.47708,-1.141809 -0.52462,-3.297034 -0.10372,-4.701889 0.6445,-2.151134 3.22404,-3.866534 6.51291,-4.331092 l 1.12448,-0.158837 v 0.870368 c 0,0.542949 -0.19906,1.04081 -0.52916,1.323454 -0.56695,0.485431 -0.58686,0.70399 -0.536,5.882224 0.0214,2.182757 0.11693,2.771304 0.54558,3.362725 0.65844,0.908473 0.66409,2.003316 0.014,2.705639 -0.60295,0.65136 -0.6195,0.811639 -0.58199,5.639449 0.0264,3.395096 0.0819,3.822975 0.55845,4.299479 0.66927,0.669266 0.71033,2.01248 0.0661,2.1635 -0.25466,0.0597 -1.06998,0.0293 -1.81183,-0.0676 z m -83.362176,-0.46896 c -3.591427,-1.241103 -5.372863,-4.389782 -3.899508,-6.892362 1.346657,-2.287373 3.983807,-2.486147 5.720973,-0.431218 0.875191,1.035283 0.397992,4.040889 -0.709016,4.465688 -0.674685,0.258903 -0.458109,0.992955 0.387089,1.311981 0.659769,0.249037 0.79375,0.446128 0.79375,1.167641 0,1.0282 -0.279278,1.07427 -2.293288,0.37827 z m 28.80412,0.0454 c -0.625969,-0.22142 -1.846429,-1.058352 -2.712132,-1.859841 -2.621074,-2.426652 -3.940861,-5.99408 -3.950357,-10.677938 -0.0094,-4.622125 1.117614,-7.693654 3.831866,-10.443543 1.328801,-1.346245 1.884172,-1.70439 3.40801,-2.197732 1.001279,-0.324165 1.887395,-0.522505 1.969143,-0.440754 0.522534,0.522531 0.257006,1.371349 -0.673319,2.152401 l -0.999668,0.839272 v 10.238409 10.23841 l 0.727605,0.580173 c 0.472323,0.376615 0.727604,0.831963 0.727604,1.297833 0,0.84748 -0.529773,0.90965 -2.328752,0.27331 z m 58.420416,-0.29806 c 0,-0.450332 0.16122,-0.914002 0.35825,-1.030373 0.78285,-0.462357 0.96467,-1.414061 0.96467,-5.049502 0,-3.720973 -0.25389,-5.186293 -0.94453,-5.451316 -0.47522,-0.182359 -0.5082,-1.905923 -0.0421,-2.199182 0.714,-0.449212 0.9866,-1.737522 0.98514,-4.655804 -0.002,-3.177763 -0.3014,-4.80504 -0.92973,-5.046152 -0.40044,-0.153665 -0.57983,-2.023359 -0.19327,-2.014411 0.98964,0.02291 4.05154,0.904037 4.92484,1.417225 3.2709,1.922116 3.89892,6.679475 1.24788,9.452983 -0.52167,0.545767 -2.50721,1.560616 -3.05332,1.560616 -0.77423,0 -0.40345,0.473279 0.71706,0.915281 1.77628,0.700685 3.03552,1.693394 3.82903,3.018576 0.65103,1.087239 0.7339,1.484055 0.73443,3.516849 5.3e-4,2.125316 -0.0576,2.374284 -0.8034,3.436266 -1.14234,1.626748 -3.14043,2.595714 -5.76129,2.793934 l -2.03367,0.15381 z m 21.91936,0.34943 c -3.19936,-1.176709 -4.84476,-3.587995 -4.12641,-6.047111 0.34969,-1.197084 1.59667,-2.250726 2.91738,-2.465047 1.1973,-0.194296 2.74463,0.538115 3.397,1.607926 0.65565,1.075185 0.62458,1.642311 -0.16572,3.024746 -0.83416,1.459164 -0.83335,2.08738 0.003,2.468531 0.4795,0.218474 0.66146,0.508053 0.66146,1.052665 0,0.67503 -0.0873,0.74939 -0.8599,0.73263 -0.47294,-0.0103 -1.29509,-0.1787 -1.827,-0.37434 z m 4.27439,-0.35829 c 0,-0.548692 0.18208,-0.834244 0.67521,-1.058928 1.37087,-0.624612 1.45475,-1.316363 1.43492,-11.833701 -0.0174,-9.22111 -0.0419,-9.68788 -0.53501,-10.180974 -0.28423,-0.284234 -0.63585,-0.516787 -0.78137,-0.516787 -0.14552,0 -0.26458,-0.40418 -0.26458,-0.898178 v -0.898178 l 0.90956,0.205139 c 2.59897,0.586163 5.43666,2.99488 6.62725,5.625415 1.87907,4.151656 1.91362,10.257128 0.0807,14.260745 -1.48961,3.253735 -4.84486,6.036797 -7.28678,6.044137 -0.76886,0.002 -0.8599,-0.0769 -0.8599,-0.74869 z m -5.61999,-10.456894 c -1.46286,-0.546089 -2.23916,-1.123677 -3.09129,-2.300004 -1.53196,-2.114804 -1.66689,-4.816792 -0.38241,-7.657711 1.08642,-2.402859 2.94036,-3.947488 5.55554,-4.628655 2.2762,-0.592876 2.47982,-0.553104 2.47982,0.484362 0,0.685721 -0.14812,0.951061 -0.66146,1.184955 l -0.66146,0.301379 v 4.717603 c 0,5.439322 0.10734,5.793118 1.68012,5.537893 l 0.96572,-0.156715 v 0.902612 c 0,0.748118 -0.14514,0.977665 -0.84794,1.341099 -1.14804,0.593675 -3.79371,0.737172 -5.03664,0.273182 z M 40.516388,88.528 c -0.14222,-0.370621 0.298119,-5.632252 0.486902,-5.818003 0.04503,-0.04431 0.406654,-0.01818 0.803598,0.05808 l 0.721718,0.138647 -0.169122,2.000702 -0.169121,2.000703 0.902612,-0.67627 c 0.873344,-0.654341 2.444315,-1.532491 2.741556,-1.532491 0.07999,0 0.145431,0.585854 0.145431,1.301893 0,1.254281 -0.03145,1.308696 -0.859896,1.487811 -0.472942,0.102251 -1.421484,0.4689 -2.10787,0.814771 -1.440019,0.72563 -2.27461,0.800587 -2.495808,0.224155 z m 38.654204,-4.632222 c -1.079307,-0.324657 -1.889151,-1.240398 -2.097841,-2.372162 -0.140582,-0.762402 -0.02791,-1.137851 0.635219,-2.116666 1.062591,-1.568448 1.038516,-2.049833 -0.126862,-2.536759 -0.79433,-0.331893 -0.929595,-0.506656 -0.859896,-1.11098 0.0765,-0.663271 0.162195,-0.710782 1.141042,-0.632579 2.129851,0.170156 4.651613,1.770472 5.578824,3.540328 0.38598,0.736757 0.474538,2.661891 0.157266,3.418671 -0.572976,1.366708 -2.831875,2.290186 -4.427752,1.810147 z m 15.627146,-1.37922 c 0.08713,-0.472943 0.36434,-2.229115 0.616017,-3.902604 0.427082,-2.839813 0.499215,-3.048675 1.081738,-3.132177 0.591296,-0.08476 0.61504,-0.03254 0.451181,0.992187 -0.196901,1.231334 0.01868,1.349396 0.849384,0.465156 0.805404,-0.857313 2.658112,-1.735997 4.039882,-1.915993 0.84654,-0.110273 1.8078,0.04484 3.54298,0.571706 3.11304,0.94524 4.16524,1.065826 4.61121,0.528468 0.19161,-0.23087 0.57192,-0.419764 0.84514,-0.419764 1.23074,0 -0.1907,3.685903 -1.97987,5.134004 -1.5555,1.25897 -3.18143,1.238099 -9.561896,-0.122735 -0.582083,-0.124147 -1.272103,-0.230909 -1.533379,-0.237246 -0.756595,-0.01836 -1.773913,1.182028 -1.773913,2.093118 0,0.68693 -0.09933,0.805776 -0.673446,0.805776 -0.615895,0 -0.659911,-0.07349 -0.515028,-0.859896 z M 43.201837,81.346031 c -0.436562,-0.05448 -1.078752,-0.162267 -1.427088,-0.239525 l -0.633338,-0.140473 0.182902,-2.829041 c 0.100596,-1.555972 0.266536,-2.903918 0.368755,-2.995435 0.102219,-0.09152 1.257415,0.0021 2.567103,0.208206 3.120956,0.490963 9.17027,0.56125 10.676186,0.124047 0.633153,-0.183822 1.192884,-0.292521 1.243848,-0.241557 0.230513,0.230511 -1.170947,2.513801 -2.086303,3.39905 -2.425946,2.34616 -6.235975,3.295769 -10.892065,2.714728 z m 1.984375,-32.157228 c -1.829365,-0.701464 -4.376386,-3.183546 -5.376974,-5.23988 -1.442159,-2.963823 -1.91414,-7.871743 -1.092311,-11.358476 1.073464,-4.554335 4.319527,-8.218696 7.870654,-8.884891 l 0.979881,-0.183827 v 0.955487 c 0,0.623999 -0.123461,0.955488 -0.355867,0.955488 -0.195728,0 -0.582681,0.250459 -0.859896,0.556577 -0.472302,0.521542 -0.50928,1.150245 -0.587452,9.988021 -0.08828,9.979925 0.01023,11.04696 1.084881,11.751096 0.377817,0.247555 0.624206,0.700339 0.66379,1.21983 0.07657,1.004863 -0.246406,1.038259 -2.326706,0.240575 z m 3.96875,-0.290717 c 0,-0.66685 0.189709,-1.016542 0.79375,-1.46313 l 0.79375,-0.586843 V 36.781514 26.714915 l -0.79375,-0.79375 c -0.519882,-0.519883 -0.79375,-1.060594 -0.79375,-1.567147 0,-0.896953 0.209233,-0.934321 1.843239,-0.32919 4.471651,1.656012 7.175857,6.340674 7.167171,12.416133 -0.0048,3.340407 -0.346126,5.024643 -1.495791,7.380284 -1.374042,2.815387 -3.368939,4.722125 -5.775814,5.520574 -1.725978,0.572569 -1.738805,0.569296 -1.738805,-0.443733 z m 50.505112,-0.0994 c -3.15617,-0.888547 -3.3791,-0.917035 -4.101042,-0.524073 -2.04606,1.113692 -1.951038,1.087022 -2.372209,0.665848 -0.317302,-0.317302 -0.347255,-0.627068 -0.14687,-1.518912 0.376367,-1.675093 1.485368,-3.087336 3.028121,-3.856123 1.693839,-0.844076 3.991526,-0.881975 8.490416,-0.140043 3.65219,0.602297 4.34265,0.455144 4.71856,-1.005639 0.25809,-1.002901 0.81714,-1.325822 1.42374,-0.822386 0.96395,0.800002 -0.30521,4.616474 -2.12193,6.380848 -1.06545,1.034753 -3.0277,1.806768 -4.52286,1.779444 -0.58208,-0.01064 -2.56025,-0.442172 -4.395926,-0.958964 z m 25.187246,0.555406 c -3.36216,-0.903949 -5.43145,-3.40913 -4.94737,-5.989508 0.19451,-1.036833 1.51784,-2.517481 2.46174,-2.754384 2.03498,-0.510749 4.31619,1.083278 4.31619,3.016001 0,0.99889 -0.46448,1.924828 -1.37428,2.739626 -0.7679,0.687715 -0.58392,1.214382 0.51438,1.47244 0.86505,0.203256 1.00281,0.342236 1.0751,1.084617 0.095,0.975622 0.0301,0.989309 -2.04576,0.431208 z m 3.89278,-0.359873 c -0.10298,-0.70167 -0.005,-0.925166 0.56009,-1.273678 1.30349,-0.804347 1.34644,-0.97613 1.34644,-5.385866 v -4.16356 l -0.69714,-0.54837 c -0.38343,-0.301604 -1.02369,-0.548371 -1.42281,-0.548371 -0.82919,0 -1.45092,-0.599154 -1.22707,-1.18251 0.0835,-0.217524 0.62519,-0.471202 1.20382,-0.563726 0.57863,-0.09253 1.30069,-0.399884 1.6046,-0.683012 0.51898,-0.483504 0.54811,-0.750562 0.47943,-4.395527 l -0.0731,-3.880746 -0.84971,-0.534218 c -0.67889,-0.426827 -0.85175,-0.714363 -0.85989,-1.430339 l -0.0102,-0.89612 1.734,0.139189 c 2.10733,0.169156 4.72752,1.372108 5.90184,2.709588 1.77523,2.021877 1.81088,5.20126 0.084,7.489386 -0.70614,0.935622 -2.58953,2.169702 -3.3113,2.169702 -0.80145,0 -0.45569,0.503156 0.55354,0.805529 2.76151,0.827371 4.445,3.098139 4.41202,5.951133 -0.0446,3.852783 -2.93834,6.502442 -7.55292,6.915722 l -1.75071,0.156792 z m -58.793547,0.167354 c -0.713047,-0.521391 -0.416057,-1.281102 0.639659,-1.636276 l 0.926042,-0.311549 0.06932,-10.131978 c 0.07122,-10.408666 0.03266,-10.844298 -0.961614,-10.863727 -0.236845,-0.0046 -0.666121,-0.186424 -0.95395,-0.403992 -0.40989,-0.309834 -0.461767,-0.493166 -0.239332,-0.845799 0.37914,-0.601061 1.227556,-0.747352 5.630468,-0.970849 l 3.725559,-0.189114 0.06894,11.591749 0.06894,11.591751 1.038826,0.539017 c 1.217067,0.631505 1.391121,0.966451 0.806169,1.5514 -0.363296,0.363299 -1.172953,0.427585 -5.385199,0.427585 -3.681267,0 -5.080217,-0.08965 -5.43383,-0.348218 z m 83.729377,-0.03595 c -0.49811,-0.600186 -0.21841,-1.267024 0.65091,-1.551813 0.43656,-0.143018 0.88122,-0.391009 0.98813,-0.55109 0.10692,-0.160081 0.19621,-4.354791 0.19844,-9.321573 l 0.004,-9.030514 1.63538,-2.214277 c 0.89945,-1.217853 1.76265,-2.304597 1.91823,-2.414989 0.15556,-0.110391 0.99723,-0.169922 1.87035,-0.132291 l 1.5875,0.06842 0.0696,8.916588 0.0696,8.916588 1.51785,0.07925 c 1.42152,0.07422 1.51785,0.121224 1.51785,0.740703 0,0.620284 -0.0954,0.66642 -1.53313,0.741159 l -1.53314,0.0797 0.0779,1.771345 0.0779,1.771346 0.97198,0.456626 c 1.2526,0.588452 1.43573,0.915866 0.86502,1.546495 -0.42813,0.473078 -0.85497,0.512495 -5.54977,0.512495 -4.1233,0 -5.14632,-0.07272 -5.4048,-0.384164 z m -7.41403,-6.221355 c -0.42533,-0.794734 0.0206,-1.576951 3.9639,-6.95275 l 3.57187,-4.869481 0.0795,1.115739 c 0.0745,1.04592 -0.10348,1.371807 -2.84427,5.207771 -1.60807,2.250617 -2.92376,4.168373 -2.92376,4.261678 0,0.09331 1.30969,0.169645 2.91042,0.169645 h 2.91041 v 0.79375 0.79375 h -3.69486 c -3.4026,0 -3.71687,-0.04114 -3.9732,-0.520102 z M 96.101708,41.084096 c 0.427323,-0.458925 1.430586,-1.340495 2.229472,-1.959046 2.22112,-1.719741 3.0923,-2.613692 3.67443,-3.770471 1.14014,-2.26563 1.08988,-7.531557 -0.0885,-9.267924 -0.3516,-0.518119 -0.63928,-1.310471 -0.63928,-1.760782 v -0.818748 l 1.5871,0.143913 c 2.21682,0.201015 4.68594,1.406469 5.8789,2.870154 3.27011,4.012224 1.20388,9.547227 -4.42329,11.849102 -1.16417,0.476221 -2.90776,1.269098 -3.87465,1.761953 -0.966892,0.492858 -2.286096,1.014455 -2.931566,1.159108 -0.645469,0.144653 -1.402188,0.344937 -1.681601,0.445077 -0.385064,0.138007 -0.319974,-0.01987 0.268935,-0.652336 z M 94.72307,32.389462 C 91.217254,30.116248 93.601909,24.733326 98.5659,23.71498 l 0.859896,-0.176405 v 0.947065 c 0,0.520885 -0.09631,0.947064 -0.214014,0.947064 -0.117708,0 -0.441981,0.166694 -0.720611,0.370432 -0.483841,0.353794 -0.456404,0.419142 0.610891,1.454914 0.968868,0.940261 1.117348,1.234062 1.116498,2.209256 -0.003,3.011395 -2.944975,4.57594 -5.49549,2.922156 z m 27.72615,-0.112072 c -1.14299,-0.696775 -1.50953,-1.182816 -1.71695,-2.276704 -0.22611,-1.192429 0.23165,-2.673079 1.18219,-3.823819 0.80619,-0.97598 2.98889,-2.198681 4.23425,-2.371934 0.56658,-0.07882 0.67268,0.02235 0.7397,0.705302 0.0664,0.677033 -0.0433,0.843214 -0.7276,1.101497 -1.05403,0.397852 -1.0201,0.977355 0.12019,2.052793 1.07301,1.011974 1.19058,1.908374 0.43659,3.328557 -0.49507,0.932474 -1.84739,1.812766 -2.81784,1.834258 -0.29104,0.0064 -0.94378,-0.241032 -1.45053,-0.54995 z"
       id="path281" /></g></svg>
