<?xml version="1.0" encoding="UTF-8" standalone="no"?>
<!-- Created with Inkscape (http://www.inkscape.org/) -->

<svg
   width="210mm"
   height="297mm"
   viewBox="0 0 210 297"
   version="1.1"
   id="svg1468"
   inkscape:version="1.1.2 (0a00cf5339, 2022-02-04)"
   sodipodi:docname="entrainement_inkscape.svg"
   xmlns:inkscape="http://www.inkscape.org/namespaces/inkscape"
   xmlns:sodipodi="http://sodipodi.sourceforge.net/DTD/sodipodi-0.dtd"
   xmlns="http://www.w3.org/2000/svg"
   xmlns:svg="http://www.w3.org/2000/svg">
  <sodipodi:namedview
     id="namedview1470"
     pagecolor="#ffffff"
     bordercolor="#666666"
     borderopacity="1.0"
     inkscape:pageshadow="2"
     inkscape:pageopacity="0.0"
     inkscape:pagecheckerboard="0"
     inkscape:document-units="mm"
     showgrid="false"
     showguides="true"
     inkscape:zoom="1.4142136"
     inkscape:cx="366.98842"
     inkscape:cy="463.15494"
     inkscape:window-width="3440"
     inkscape:window-height="1371"
     inkscape:window-x="0"
     inkscape:window-y="32"
     inkscape:window-maximized="1"
     inkscape:current-layer="layer1" />
  <defs
     id="defs1465" />
  <g
     inkscape:label="Layer 1"
     inkscape:groupmode="layer"
     id="layer1">
    <path
       id="path9109"
       style="fill:#00ff00;stroke:none;stroke-width:3.2;stroke-miterlimit:10"
       d="m 617.35547,291.8125 c -31.97007,0.0223 -58.79201,23.87242 -62.22656,55.33203 l -96.43826,-0.49222 c 0,0 -24.37338,1.6798 -48.46013,0.42745 -16.10008,-0.8371 -25.35015,0.30747 -47.36661,-10.60734 0,0 -23.72282,-14.64023 -25.46668,-28.13293 -2.0967,-16.2226 7.83033,-30.94931 17.04787,-43.06155 6.63571,-8.71958 10.29618,-21.10765 -3.18711,-28.9222 -13.71474,-7.9487 -45.97422,4.1751 -62.71386,25.01705 -11.00037,13.69619 3.20765,49.01648 -6.24911,62.77099 -19.44823,28.28674 -64.00253,2.56422 -77.22024,20.43587 -9.68887,13.10031 2.44475,51.44668 2.44475,51.44668 0,0 -40.23921,17.26725 -40.12721,57.56395 -1.66573,34.23039 34.80044,48.62284 34.80044,48.62284 l 5.32677,67.69899 H 598.25977 V 412.82227 c 6.17135,1.96363 12.61329,2.96711 19.0957,2.97461 34.59134,-1.8e-4 62.63301,-27.75503 62.63281,-61.99219 2e-4,-34.23716 -28.04147,-61.99201 -62.63281,-61.99219 z m 0,12.85938 c 27.13582,-5e-4 49.13418,21.99699 49.13476,49.13281 5e-4,27.13658 -21.99818,49.13526 -49.13476,49.13476 -18.10953,-0.0117 -34.74449,-9.98415 -43.28906,-25.95117 l 31.84765,-8.10351 12.13086,24.69335 10.91016,-25.25585 27.23437,-3.90625 -20.65039,-18.18164 4.70313,-27.10743 -23.67383,14.01953 -24.32813,-12.84765 6.01954,26.8457 -28.8711,17.16992 c -0.76561,-3.45111 -1.15654,-6.97476 -1.16601,-10.50976 5.8e-4,-27.13506 21.99775,-49.13223 49.13281,-49.13281 z"
       transform="scale(0.26458333)"
       sodipodi:nodetypes="cccsssssssscccccccccsscccccccccccccs" />
    <path
       style="fill:#000000;stroke-width:1"
       d="m 69.793491,135.95589 c -0.245451,-0.14825 -0.513326,-0.39157 -0.595278,-0.54072 -0.09931,-0.18075 -0.149005,-2.43758 -0.149005,-6.76711 0,-6.93628 0.01332,-7.07923 0.692569,-7.43331 0.170444,-0.0888 2.113005,-0.14043 5.286021,-0.14036 l 5.016548,1.1e-4 0.843524,0.38869 c 2.604386,1.20007 3.513427,4.29651 1.942037,6.6151 l -0.355015,0.52383 0.352894,0.5194 c 1.610175,2.3699 0.637147,5.49124 -2.094271,6.71815 -0.668882,0.30045 -0.833479,0.31069 -5.59146,0.34766 -4.675413,0.0363 -4.922944,0.0256 -5.348564,-0.23144 z m 9.80485,-3.02861 c 0.809638,-0.40329 1.067285,-1.52147 0.509666,-2.21195 -0.410747,-0.5086 -1.066122,-0.63538 -3.289018,-0.63624 -2.193063,-8.2e-4 -2.463086,-0.087 -2.810494,-0.89687 -0.256484,-0.5979 -0.120968,-1.17583 0.387016,-1.6505 l 0.413663,-0.38653 2.384285,-0.0682 2.384285,-0.0682 0.408383,-0.44554 c 0.564833,-0.61621 0.564789,-1.35773 -1.16e-4,-1.97385 l -0.408499,-0.44554 -3.723432,-0.0405 -3.723432,-0.0405 v 4.50838 4.50838 h 3.580877 c 2.361414,0 3.685064,-0.0519 3.886816,-0.15239 z m 7.573672,3.15646 c -0.162692,-0.064 -0.430567,-0.28328 -0.595278,-0.48724 -0.296534,-0.36718 -0.299477,-0.43555 -0.299477,-6.95857 v -6.58774 l 0.358607,-0.4151 c 0.384219,-0.44475 1.0744,-0.65281 1.625148,-0.48991 0.180029,0.0533 1.5735,1.30154 3.096603,2.77397 l 2.769276,2.67714 2.693909,-2.62993 c 1.48165,-1.44647 2.788168,-2.68798 2.903374,-2.75892 0.575015,-0.35407 1.674435,0.0151 2.027945,0.68093 0.32478,0.61172 0.31713,12.77698 -0.008,13.44526 -0.46506,0.95456 -1.806683,1.12777 -2.501913,0.32301 l -0.358612,-0.4151 v -4.51976 -4.51977 l -2.076476,2.00637 c -2.818093,2.72295 -2.746311,2.72424 -5.627124,-0.1011 l -1.750818,-1.71711 -0.07003,4.40205 c -0.0767,4.82087 -0.07771,4.82657 -0.930295,5.22063 -0.49081,0.22685 -0.813787,0.24507 -1.25639,0.0709 z m 17.760537,-0.13883 c -0.94377,-0.5682 -1.04661,-1.71455 -0.22159,-2.47001 l 0.35713,-0.32701 4.65996,-0.0682 c 5.03152,-0.0736 4.92863,-0.0575 5.34189,-0.83594 0.26127,-0.4921 0.25393,-0.8762 -0.0255,-1.33702 -0.44259,-0.72978 -0.57013,-0.75502 -4.18564,-0.82838 -3.12733,-0.0635 -3.40623,-0.0897 -4.00245,-0.37582 -1.45026,-0.69609 -2.34308,-1.8471 -2.64508,-3.40997 -0.37969,-1.96494 0.92645,-4.22696 2.84428,-4.92586 0.76285,-0.278 1.03844,-0.2924 5.59819,-0.2924 5.31497,0 5.25292,-0.01 5.64156,0.89611 0.26872,0.62641 0.11146,1.21185 -0.45582,1.69699 l -0.47739,0.40825 h -4.34165 c -4.78882,0 -5.11369,0.0472 -5.51391,0.80103 -0.27517,0.51829 -0.27721,0.87716 -0.008,1.3845 0.37301,0.70257 0.57671,0.74219 4.20051,0.81703 3.30148,0.0682 3.37421,0.0759 4.06829,0.43155 1.87573,0.96114 2.93754,2.93122 2.57924,4.78549 -0.3121,1.61516 -1.25209,2.7972 -2.77892,3.4945 l -0.78716,0.3595 -4.6922,0.0374 c -4.51848,0.036 -4.70935,0.0271 -5.15583,-0.24173 z m 31.64685,-0.35224 c -5.06841,-1.45925 -12.15977,-6.11289 -15.47109,-10.15279 -2.30488,-2.81202 -1.94992,-4.56788 0.87346,-4.32065 1.04715,0.0917 2.78305,0.58808 4.15838,1.18911 l 0.93261,0.40756 0.92721,-0.3681 c 0.72016,-0.2859 1.23026,-0.38127 2.28427,-0.42707 l 1.35705,-0.059 1.51429,-1.69872 c 1.58019,-1.77266 1.71394,-1.95369 1.44336,-1.95369 -0.0904,0 -0.5194,-0.30826 -0.95339,-0.68502 -0.434,-0.37676 -0.8634,-0.65725 -0.95422,-0.62331 -0.0908,0.034 -0.58097,-0.35782 -1.08923,-0.87059 -0.78596,-0.79296 -0.92409,-1.00482 -0.92409,-1.41733 0,-0.7007 0.87593,-1.5879 1.56774,-1.5879 0.41482,0 0.60924,0.12117 1.25868,0.78445 0.83496,0.85273 1.14827,1.3225 1.05143,1.57645 -0.0342,0.0896 0.14081,0.37783 0.38886,0.64045 0.69821,0.73921 2.03623,2.60213 2.03623,2.83504 0,0.29636 0.67504,1.12128 0.91755,1.12128 0.31932,0 0.23736,0.46668 -0.14308,0.8148 -0.29061,0.26591 -0.38113,0.2883 -0.56493,0.13973 -0.12038,-0.0973 -0.19441,-0.24445 -0.16452,-0.32698 0.067,-0.18506 -0.71053,-1.17325 -0.92317,-1.17325 -0.0849,0 -0.30016,-0.13348 -0.47846,-0.29663 l -0.32417,-0.29663 v 2.55303 2.55302 l 0.49372,0.71085 c 0.65687,0.94572 1.047,2.21109 1.047,3.39587 v 0.95098 l 1.19748,1.2634 c 2.25751,2.38178 3.11031,4.03406 2.58013,4.99896 -0.41242,0.75058 -2.08789,0.88441 -4.0391,0.32264 z m 0.79737,-2.96986 c 0.0316,-0.2692 -0.10873,-0.61513 -0.45664,-1.12551 -0.54216,-0.79532 -0.71144,-0.88801 -0.84927,-0.46504 -0.0487,0.1495 -0.33892,0.5803 -0.64489,0.95733 -0.37375,0.46053 -0.49717,0.7052 -0.37608,0.7455 0.67531,0.22475 1.23613,0.32296 1.72096,0.30134 0.50458,-0.0225 0.5648,-0.0636 0.60592,-0.41362 z m -12.56415,-7.35346 c 0.16675,-0.31889 0.45625,-0.77563 0.64332,-1.01496 l 0.34014,-0.43515 -0.73593,-0.21287 c -1.21032,-0.35008 -1.80561,-0.23648 -1.80561,0.34457 0,0.20861 1.0675,1.89821 1.1993,1.89821 0.0306,0 0.19203,-0.26091 0.35878,-0.5798 z m 9.94868,-3.13748 -0.0486,-1.39865 -0.26283,0.95497 c -0.14455,0.52524 -0.26448,0.99274 -0.26651,1.0389 -0.003,0.0754 0.54141,0.80242 0.60176,0.80314 0.0137,1.6e-4 0.003,-0.6291 -0.0238,-1.39836 z m -0.92633,-0.30546 c 0.12288,-0.4117 0.18728,-0.8055 0.14311,-0.87511 -0.0442,-0.0696 -0.0216,-0.14715 0.0503,-0.17232 0.0718,-0.0252 0.1727,-0.22993 0.22418,-0.45503 0.0836,-0.3657 -0.0232,-0.29497 -1.00377,0.66435 l -1.09737,1.07363 0.62895,0.24237 c 0.34592,0.1333 0.67445,0.24873 0.73008,0.25651 0.0556,0.008 0.20167,-0.3227 0.32455,-0.7344 z m -1.79886,-7.07027 c 0.23879,-0.14374 0.6323,-1.05003 0.5484,-1.26299 -0.0423,-0.1073 -0.17969,-0.19509 -0.30536,-0.19509 -0.35498,0 -1.18095,0.88159 -1.18095,1.26047 0,0.27942 0.0633,0.3291 0.39468,0.3099 0.21708,-0.0126 0.46153,-0.0631 0.54323,-0.11229 z m -3.26324,19.29361 c -1.11218,-0.31013 -1.98892,-0.81959 -2.84442,-1.65285 -0.7811,-0.7608 -1.53571,-2.13302 -1.65688,-3.01297 l -0.0813,-0.59006 0.82772,0.64858 c 1.76022,1.37927 4.74046,3.32709 6.39968,4.18269 0.36352,0.18745 0.66095,0.37894 0.66095,0.42553 0,0.12317 -0.94057,0.25511 -1.75082,0.24561 -0.38518,-0.005 -1.08492,-0.11546 -1.55497,-0.24653 z m -35.184195,-1.54306 c -0.09244,-0.09 -0.168079,-0.29263 -0.168079,-0.4502 0,-0.15757 0.07563,-0.36016 0.168079,-0.45021 0.09244,-0.09 0.30044,-0.1637 0.462216,-0.1637 0.161775,0 0.369773,0.0737 0.462216,0.1637 0.09244,0.09 0.168078,0.29264 0.168078,0.45021 0,0.15757 -0.07564,0.36016 -0.168078,0.4502 -0.09244,0.09 -0.300441,0.16371 -0.462216,0.16371 -0.161776,0 -0.369773,-0.0737 -0.462216,-0.16371 z M 89.91896,115.3668 v -1.20546 l 0.584322,-0.0223 c 0.724249,-0.0276 1.096463,0.26577 1.096463,0.86433 0,0.57575 -0.41239,0.93887 -0.974932,0.85846 -0.388587,-0.0556 -0.425722,-0.0272 -0.425722,0.32478 0,0.21211 -0.06303,0.38565 -0.140066,0.38565 -0.08281,0 -0.140065,-0.49277 -0.140065,-1.20546 z m 1.114125,0.0534 c 0.291224,-0.34178 0.123699,-0.82075 -0.303863,-0.86877 -0.313349,-0.0352 -0.397119,0.0226 -0.475867,0.32818 -0.07122,0.27638 -0.02994,0.41764 0.161951,0.55431 0.325502,0.23182 0.410159,0.22994 0.617779,-0.0137 z m 35.246725,1.03753 c -0.0453,-0.0713 0.0119,-0.16489 0.127,-0.20791 0.28458,-0.10637 0.26289,-0.4881 -0.0708,-1.24641 -0.31893,-0.7247 -0.34263,-0.88676 -0.12966,-0.88676 0.0828,0 0.25609,0.24494 0.38518,0.54432 0.12909,0.29937 0.2719,0.54493 0.31734,0.54569 0.0455,7.7e-4 0.16584,-0.24417 0.26754,-0.54431 0.10169,-0.30013 0.26935,-0.5457 0.37258,-0.5457 0.26847,0 0.22477,0.21167 -0.28143,1.36313 -0.4181,0.95107 -0.77841,1.30781 -0.98772,0.97795 z m -44.484646,-0.53935 c -0.688118,-0.20899 -0.948182,-1.13169 -0.444184,-1.57595 0.5347,-0.47132 1.564707,-0.0811 1.564707,0.59277 0,0.23797 -0.09338,0.27285 -0.730342,0.27285 -0.684791,0 -0.715623,0.0143 -0.494362,0.22985 0.205294,0.19995 0.282022,0.20584 0.590065,0.0453 0.403021,-0.21009 0.615659,-0.10412 0.369879,0.18433 -0.19652,0.23064 -0.565885,0.33892 -0.855763,0.25088 z m 0.498474,-1.32858 c -0.340538,-0.25087 -0.421548,-0.25032 -0.63854,0.004 -0.149961,0.176 -0.09845,0.20403 0.368031,0.2003 0.507307,-0.004 0.524807,-0.0173 0.270509,-0.20464 z m 13.508071,1.32858 c -0.425149,-0.12912 -0.700327,-0.48864 -0.700327,-0.91497 0,-0.73107 0.713646,-1.10845 1.409862,-0.74553 0.447582,0.23331 0.307659,0.38951 -0.324355,0.36209 -0.544117,-0.0236 -0.598896,0.004 -0.637376,0.32691 -0.05966,0.49987 0.257133,0.72457 0.72734,0.51589 0.420997,-0.18683 0.622094,-0.0787 0.380619,0.20473 -0.19652,0.23064 -0.565885,0.33892 -0.855763,0.25088 z m 2.360247,-0.081 c -0.471564,-0.22899 -0.653314,-0.82813 -0.390305,-1.28664 0.291658,-0.50846 1.124959,-0.58806 1.448352,-0.13835 0.430025,0.59798 0.304084,0.79565 -0.506934,0.79565 -0.683511,0 -0.715277,0.0147 -0.495403,0.22883 0.197615,0.19248 0.294263,0.20251 0.608377,0.0631 0.429508,-0.19061 0.591985,-0.11343 0.352607,0.16751 -0.240265,0.28198 -0.646185,0.34981 -1.016694,0.16989 z m 0.721193,-1.24325 c -0.216992,-0.25466 -0.298002,-0.25521 -0.63854,-0.004 -0.254298,0.18734 -0.236798,0.20058 0.270509,0.20464 0.46648,0.004 0.517992,-0.0243 0.368031,-0.2003 z m 9.433731,1.28785 c -0.16545,-0.06 -0.3398,-0.17057 -0.38746,-0.24568 -0.12785,-0.20148 0.1965,-0.34792 0.37833,-0.17081 0.21375,0.2082 0.66011,0.19156 0.66011,-0.0246 0,-0.097 -0.20471,-0.23516 -0.45492,-0.30695 -0.49047,-0.14074 -0.65524,-0.49606 -0.37989,-0.81921 0.3014,-0.35373 1.42613,-0.16887 1.19442,0.1963 -0.0686,0.10808 -0.17586,0.11067 -0.371,0.009 -0.27778,-0.1448 -0.54887,-0.0759 -0.54887,0.13957 0,0.0647 0.19335,0.1589 0.42966,0.20945 0.23631,0.0506 0.46695,0.18656 0.51252,0.30224 0.18112,0.45973 -0.47681,0.91246 -1.0329,0.71074 z m 2.53125,-0.0242 c -0.66249,-0.33922 -0.8042,-0.95112 -0.33409,-1.4426 0.54005,-0.56462 1.53526,-0.2427 1.53526,0.49661 0,0.26545 -0.0745,0.29621 -0.71748,0.29621 -0.62187,0 -0.69424,0.0273 -0.54311,0.20464 0.19839,0.23282 0.64104,0.27202 0.77036,0.0682 0.12744,-0.20083 0.35017,-0.16594 0.35017,0.0549 0,0.27425 -0.72484,0.49425 -1.06111,0.32206 z m 0.78097,-1.18088 c 0,-0.20661 -0.42604,-0.294 -0.71047,-0.14573 -0.38889,0.20272 -0.33552,0.26756 0.22025,0.26756 0.26962,0 0.49022,-0.0548 0.49022,-0.12183 z m 10.49229,1.16444 c -0.81514,-0.39583 -0.63307,-1.61421 0.25385,-1.69867 0.30222,-0.0288 0.53405,0.0469 0.73097,0.23874 0.72448,0.70565 -0.0806,1.89904 -0.98482,1.45993 z m 0.70655,-0.42119 c 0.0924,-0.10842 0.14737,-0.33864 0.1222,-0.51159 -0.0362,-0.24855 -0.13385,-0.31447 -0.46596,-0.31447 -0.33212,0 -0.42979,0.0659 -0.46597,0.31447 -0.084,0.57677 0.46088,0.921 0.80973,0.51159 z m -53.778732,-0.68963 c 0,-1.39511 0.202287,-1.51829 0.783942,-0.47738 l 0.381229,0.68224 0.432889,-0.70217 c 0.238089,-0.38619 0.495918,-0.69357 0.572954,-0.68306 0.07717,0.0105 0.158239,0.5402 0.180535,1.17954 0.03385,0.97067 0.0052,1.16044 -0.175082,1.16044 -0.165865,0 -0.21698,-0.1651 -0.221751,-0.71623 l -0.0062,-0.71623 -0.308947,0.51025 c -0.169921,0.28064 -0.375345,0.51086 -0.456498,0.5116 -0.08115,7.3e-4 -0.28455,-0.22888 -0.451995,-0.51026 l -0.304444,-0.51159 -0.0032,0.71623 c -0.0024,0.5443 -0.05365,0.71623 -0.213316,0.71623 -0.170276,0 -0.210098,-0.2198 -0.210098,-1.15961 z m 3.837752,1.0552 c -0.717353,-0.46654 -0.354028,-1.66912 0.504277,-1.66912 0.767352,0 1.173336,1.02047 0.62029,1.55914 -0.228668,0.22273 -0.85676,0.28415 -1.124567,0.10998 z m 0.728389,-0.27285 c 0.406789,-0.26462 0.259658,-0.98699 -0.201027,-0.98699 -0.53317,0 -0.743153,0.50698 -0.363244,0.87701 0.244809,0.23845 0.338658,0.25674 0.564271,0.10998 z m 1.736804,-0.8843 c 0,-0.91238 0.04381,-1.20282 0.175082,-1.16083 0.0963,0.0308 0.194122,0.21096 0.217393,0.40036 0.03514,0.28603 0.101228,0.3334 0.390088,0.27962 0.479649,-0.0893 0.898222,0.30943 0.898222,0.85564 0,0.59857 -0.372213,0.89198 -1.096463,0.86434 l -0.584322,-0.0223 z m 1.175953,0.69477 c 0.277189,-0.38546 0.05713,-0.83226 -0.380054,-0.77163 -0.530552,0.0736 -0.464712,1.05194 0.07157,1.06348 0.05341,0.001 0.192227,-0.13019 0.308486,-0.29185 z m 1.54255,0.37892 c -0.132952,-0.33746 0.007,-1.49428 0.187855,-1.55226 0.128172,-0.0411 0.175082,0.1845 0.175082,0.842 0,0.83349 -0.177519,1.18089 -0.362937,0.71026 z m 1.576838,0.0969 c -0.05136,-0.05 -0.09338,-0.60255 -0.09338,-1.22783 0,-0.9196 0.04015,-1.13687 0.210098,-1.13687 0.169245,0 0.210098,0.21222 0.210098,1.0914 0,0.87918 0.04085,1.0914 0.210098,1.0914 0.115554,0 0.210098,0.0614 0.210098,0.13642 0,0.15175 -0.600387,0.18829 -0.747015,0.0455 z m 7.545561,-0.093 c -0.148745,-0.10594 -0.214206,-0.25338 -0.154366,-0.34769 0.077,-0.12134 0.152708,-0.12429 0.292379,-0.0114 0.225467,0.18226 1.127532,0.12375 1.093004,-0.0709 -0.02694,-0.15188 -0.188501,-0.24394 -0.837871,-0.4774 -0.535001,-0.19234 -0.668611,-0.57982 -0.337333,-0.9783 0.278179,-0.33461 0.986246,-0.39872 1.330465,-0.12047 0.328366,0.26543 0.129313,0.41134 -0.330536,0.24227 -0.314814,-0.11574 -0.45946,-0.10882 -0.631415,0.0302 -0.301721,0.24389 -0.07129,0.49893 0.554048,0.61319 1.044526,0.19086 0.882459,1.30444 -0.189844,1.30444 -0.291645,0 -0.646484,-0.0828 -0.788531,-0.18394 z m 5.390685,-0.0825 c -0.18599,-0.33849 -0.183644,-0.35722 0.0765,-0.6106 0.121056,-0.11791 0.412406,-0.21438 0.647444,-0.21438 0.356859,0 0.399622,-0.0325 0.259277,-0.19725 -0.122287,-0.14351 -0.259138,-0.16351 -0.502421,-0.0734 -0.219266,0.0812 -0.366345,0.0734 -0.42729,-0.0226 -0.122441,-0.19296 0.202089,-0.38411 0.656587,-0.38672 0.5338,-0.003 0.827085,0.39279 0.827085,1.11634 v 0.61945 l -0.69679,0.0153 c -0.553214,0.0121 -0.726382,-0.0386 -0.840393,-0.24606 z m 0.95985,-0.12969 c 0.247656,-0.15279 0.07974,-0.42244 -0.263059,-0.42244 -0.300647,0 -0.478188,0.20751 -0.350164,0.40927 0.105905,0.16691 0.355341,0.17226 0.613223,0.0132 z m 8.7648,0.0613 c -0.72382,-0.70501 -0.21687,-2.02984 0.77672,-2.02984 0.99359,0 1.50055,1.32483 0.77673,2.02984 -0.21672,0.21108 -0.50383,0.33486 -0.77673,0.33486 -0.2729,0 -0.56001,-0.12378 -0.77672,-0.33486 z m 1.30897,-0.23813 c 0.27065,-0.26361 0.20123,-0.99261 -0.12162,-1.27719 -0.26437,-0.23303 -0.32255,-0.23749 -0.66531,-0.051 -0.42039,0.22873 -0.58764,0.95623 -0.29799,1.29617 0.2027,0.23788 0.85383,0.25709 1.08492,0.032 z m 1.64256,0.44255 c -0.1103,-0.17385 -0.0558,-1.99643 0.0654,-2.18747 0.15802,-0.24903 0.30327,-0.11599 0.33001,0.30229 0.0173,0.27073 0.0821,0.31252 0.41147,0.26543 0.80036,-0.11441 1.29436,0.98639 0.68407,1.52434 -0.24805,0.21865 -1.3673,0.29027 -1.49095,0.0954 z m 1.18036,-0.33954 c 0.29301,-0.34387 0.12362,-0.82077 -0.30874,-0.86923 -0.24214,-0.0271 -0.39118,0.0235 -0.40134,0.13643 -0.009,0.0988 -0.0256,0.27168 -0.0372,0.38423 -0.0498,0.4841 0.43796,0.71163 0.74731,0.34857 z m 6.58948,-0.40314 v -0.87312 h 0.49023 c 0.53677,0 0.6864,0.3002 0.2101,0.42152 -0.22885,0.0583 -0.28013,0.18608 -0.28013,0.69803 0,0.46611 -0.0538,0.62669 -0.2101,0.62669 -0.16487,0 -0.2101,-0.18797 -0.2101,-0.87312 z m 1.99522,0.0833 c -0.36761,-0.9234 -0.37538,-0.9837 -0.12676,-0.9837 0.10323,0 0.27089,0.24557 0.37259,0.5457 0.10169,0.30014 0.22775,0.5457 0.28013,0.5457 0.0524,0 0.17843,-0.24556 0.28013,-0.5457 0.1017,-0.30013 0.26936,-0.5457 0.37258,-0.5457 0.24646,0 0.24161,0.037 -0.12747,0.97152 -0.18977,0.48055 -0.39901,0.7988 -0.52596,0.8 -0.12803,10e-4 -0.33427,-0.30811 -0.52524,-0.78782 z m 2.21028,0.52341 c -0.18599,-0.33849 -0.18364,-0.35722 0.0765,-0.6106 0.12106,-0.11791 0.41241,-0.21438 0.64744,-0.21438 0.35686,0 0.39963,-0.0325 0.25928,-0.19725 -0.12229,-0.14351 -0.25914,-0.16351 -0.50242,-0.0734 -0.21927,0.0812 -0.36635,0.0734 -0.42729,-0.0226 -0.12383,-0.19515 0.20375,-0.38413 0.67035,-0.38672 0.49725,-0.003 0.81332,0.45195 0.81332,1.17006 v 0.56573 l -0.69679,0.0153 c -0.55321,0.0121 -0.72638,-0.0386 -0.84039,-0.24606 z m 0.95856,-0.18952 c 0.18358,-0.21545 0.0712,-0.36261 -0.27685,-0.36261 -0.2876,0 -0.46066,0.21137 -0.33508,0.40927 0.12221,0.19261 0.42791,0.1693 0.61193,-0.0467 z m 1.79252,0.36499 c -0.0514,-0.05 -0.0934,-0.35698 -0.0934,-0.68213 0,-0.32514 -0.063,-0.59117 -0.14006,-0.59117 -0.077,0 -0.14007,-0.0921 -0.14007,-0.20464 0,-0.11255 0.063,-0.20464 0.14007,-0.20464 0.077,0 0.14006,-0.12278 0.14006,-0.27285 0,-0.15158 0.0934,-0.27285 0.2101,-0.27285 0.11672,0 0.2101,0.12127 0.2101,0.27285 0,0.15159 0.0934,0.27285 0.2101,0.27285 0.11555,0 0.2101,0.0633 0.2101,0.14071 0,0.0774 -0.0945,0.17604 -0.2101,0.21923 -0.13657,0.0511 -0.2101,0.26292 -0.2101,0.60535 0,0.41224 0.0457,0.50974 0.2101,0.4483 0.13304,-0.0497 0.2101,0.002 0.2101,0.1407 0,0.22004 -0.55498,0.31534 -0.74702,0.12829 z m 4.38872,-0.78217 v -0.87312 h 0.49023 c 0.53678,0 0.6864,0.3002 0.2101,0.42152 -0.22885,0.0583 -0.28013,0.18608 -0.28013,0.69803 0,0.46611 -0.0538,0.62669 -0.2101,0.62669 -0.16487,0 -0.2101,-0.18797 -0.2101,-0.87312 z m -46.291631,-1.17326 c -0.102136,-0.16096 0.03035,-0.40927 0.218365,-0.40927 0.07249,0 0.131799,0.12278 0.131799,0.27285 0,0.28773 -0.203779,0.36712 -0.350164,0.13642 z"
       id="path13316" />
  </g>
</svg>
