<?xml version="1.0" encoding="UTF-8" standalone="no"?>
<!-- Created with Inkscape (http://www.inkscape.org/) -->

<svg
   version="1.1"
   id="svg16269"
   xml:space="preserve"
   width="643.89331"
   height="544.32001"
   viewBox="0 0 643.89331 544.32001"
   sodipodi:docname="Formes-Antoine-1.svg"
   inkscape:version="1.1.2 (0a00cf5339, 2022-02-04)"
   xmlns:inkscape="http://www.inkscape.org/namespaces/inkscape"
   xmlns:sodipodi="http://sodipodi.sourceforge.net/DTD/sodipodi-0.dtd"
   xmlns="http://www.w3.org/2000/svg"
   xmlns:svg="http://www.w3.org/2000/svg"><defs
     id="defs16273" /><sodipodi:namedview
     id="namedview16271"
     pagecolor="#ffffff"
     bordercolor="#666666"
     borderopacity="1.0"
     inkscape:pageshadow="2"
     inkscape:pageopacity="0.0"
     inkscape:pagecheckerboard="0"
     showgrid="false"
     inkscape:zoom="1.3209142"
     inkscape:cx="322.1254"
     inkscape:cy="271.78148"
     inkscape:window-width="1920"
     inkscape:window-height="1011"
     inkscape:window-x="0"
     inkscape:window-y="32"
     inkscape:window-maximized="1"
     inkscape:current-layer="g16275" /><g
     id="g16275"
     inkscape:groupmode="layer"
     inkscape:label="ink_ext_XXXXXX"
     transform="matrix(1.3333333,0,0,-1.3333333,0,544.32)"><g
       id="g16277"
       transform="scale(0.1)"><path
         d="m 779.621,2691.71 c 0,0 -176.441,420.47 -67.574,795.88 0,0 22.527,30.03 -45.047,116.37 -67.574,86.35 -131.395,382.93 -127.641,435.49 3.754,52.55 777.101,127.64 927.271,-533.09 225.25,-259.04 386.67,-255.28 386.67,-255.28 0,0 247.78,-165.19 319.1,-732.06 71.33,-566.87 -101.36,-720.79 -101.36,-720.79 0,0 97.61,-195.22 75.09,-326.61 0,0 161.42,-330.36 -255.29,-705.78 l -191.46,-93.848 c 0,0 -146.41,-473.023 -270.29,-356.64 -123.89,116.378 -172.69,108.867 -71.33,416.707 0,0 -138.9,18.773 -138.9,289.061 l -232.758,304.09 -649.465,67.57 c 0,0 -304.0862,-15.01 -274.055,307.84 30.0352,322.86 -52.5547,837.17 -52.5547,837.17 0,0 -7.50777,499.3 232.7537,255.28 0,0 146.41,-67.57 262.789,-56.31 116.379,11.26 274.051,-45.05 274.051,-45.05 z"
         style="fill:none;stroke:#c41e25;stroke-width:20;stroke-linecap:butt;stroke-linejoin:miter;stroke-miterlimit:10;stroke-dasharray:none;stroke-opacity:1"
         id="path16279" /><path
         d="m 3157.86,3350.56 225.25,405.45 185.83,-67.58 304.08,-968.56 884.1,-112.63 c 0,0 101.36,-1227.6 45.05,-1430.32 5.63,-28.16 -709.53,140.78 -709.53,140.78 L 4284.1,11.2617 3461.95,95.7305 c 0,0 -180.2,501.1795 -157.68,551.8595 22.53,50.68 -703.89,275.93 -703.89,275.93 0,0 -118.26,1875.18 152.04,2218.69 z"
         style="fill:none;stroke:#c41e25;stroke-width:20;stroke-linecap:butt;stroke-linejoin:miter;stroke-miterlimit:10;stroke-dasharray:none;stroke-opacity:1"
         id="path16281" /></g></g></svg>
