<?xml version="1.0" encoding="UTF-8" standalone="no"?>
<!-- Created with Inkscape (http://www.inkscape.org/) -->

<svg
   width="210mm"
   height="297mm"
   viewBox="0 0 210 297"
   version="1.1"
   id="svg5"
   inkscape:version="1.1.2 (0a00cf5339, 2022-02-04)"
   sodipodi:docname="hello_kitty_head_contour.svg"
   xmlns:inkscape="http://www.inkscape.org/namespaces/inkscape"
   xmlns:sodipodi="http://sodipodi.sourceforge.net/DTD/sodipodi-0.dtd"
   xmlns="http://www.w3.org/2000/svg"
   xmlns:svg="http://www.w3.org/2000/svg">
  <sodipodi:namedview
     id="namedview7"
     pagecolor="#ffffff"
     bordercolor="#666666"
     borderopacity="1.0"
     inkscape:pageshadow="2"
     inkscape:pageopacity="0.0"
     inkscape:pagecheckerboard="0"
     inkscape:document-units="mm"
     showgrid="false"
     inkscape:zoom="2.1997092"
     inkscape:cx="403.68972"
     inkscape:cy="184.79715"
     inkscape:window-width="1709"
     inkscape:window-height="1144"
     inkscape:window-x="1624"
     inkscape:window-y="172"
     inkscape:window-maximized="0"
     inkscape:current-layer="layer1" />
  <defs
     id="defs2" />
  <g
     inkscape:label="Layer 1"
     inkscape:groupmode="layer"
     id="layer1">
    <rect
       style="fill:#ffffff;fill-opacity:1;stroke:#ffffff;stroke-width:0.846667;stroke-miterlimit:10"
       id="rect3078"
       width="2.3496928"
       height="4.317287"
       x="120.63287"
       y="97.691841"
       ry="0" />
    <rect
       style="fill:#ffffff;fill-opacity:1;stroke:#ffffff;stroke-width:0.846667;stroke-miterlimit:10"
       id="rect3082"
       width="0.5106402"
       height="1.4182872"
       x="122.52853"
       y="98.931137" />
    <path
       style="fill:none;stroke:#000000;stroke-width:1"
       d="m 132.07022,11.563617 c -4.86101,0.0902 -9.88849,0.995224 -14.3153,3.031211 -2.10048,0.966068 -4.38084,3.27754 -6.47644,3.875013 -0.82123,0.234149 -1.96936,-0.339771 -2.78677,-0.499791 -2.32107,-0.454374 -4.67357,-1.032134 -7.02162,-1.31555 -3.616567,-0.436522 -7.433137,-0.37676 -11.049208,0.02984 -1.730551,0.194609 -3.820535,1.052031 -5.544298,0.824106 -1.547197,-0.204585 -3.273427,-1.601388 -4.683835,-2.274551 -3.402961,-1.624131 -7.35801,-3.385686 -11.16477,-3.600441 -1.693788,-0.09555 -3.71184,-0.398877 -5.099946,0.82739 -1.493711,1.319549 -2.28327,4.039497 -2.653194,5.92929 -0.793815,4.054001 -1.858469,8.16381 -1.809593,12.314456 0.01784,1.520407 0.91028,3.667709 0.592159,5.075544 -0.513673,2.273408 -2.428583,4.579576 -3.283381,6.801377 -1.996099,5.188664 -2.790922,10.715033 -2.293365,16.262486 2.069485,23.066329 28.820046,31.149143 48.432401,30.730487 19.78244,-0.422028 38.15453,-14.095707 37.23157,-35.129495 -0.3098,-7.054228 -3.84413,-12.071778 -6.13705,-18.409382 -0.51816,-1.432147 1.23243,-3.638002 1.61168,-5.079643 1.18544,-4.505801 2.24338,-9.961317 1.2238,-14.581035 -0.54636,-2.476078 -1.95404,-4.863619 -4.77284,-4.811312"
       id="path3324"
       sodipodi:nodetypes="csssscscsscccccccsccc" />
    <text
       xml:space="preserve"
       style="font-style:normal;font-weight:normal;font-size:10.5833px;line-height:1.25;font-family:sans-serif;fill:#000000;fill-opacity:1;stroke:none;stroke-width:0.264583"
       x="91.775719"
       y="101.39282"
       id="text6836"><tspan
         sodipodi:role="line"
         id="tspan6834"
         style="stroke-width:0.264583"
         x="91.775719"
         y="101.39282">25cm</tspan></text>
  </g>
</svg>
