<?xml version="1.0" encoding="UTF-8" standalone="no"?>
<!-- Created with Inkscape (http://www.inkscape.org/) -->

<svg
   width="210mm"
   height="297mm"
   viewBox="0 0 210 297"
   version="1.1"
   id="svg5"
   xml:space="preserve"
   inkscape:version="1.2.2 (b0a8486541, 2022-12-01)"
   sodipodi:docname="le_sang_des_pirates.svg"
   xmlns:inkscape="http://www.inkscape.org/namespaces/inkscape"
   xmlns:sodipodi="http://sodipodi.sourceforge.net/DTD/sodipodi-0.dtd"
   xmlns="http://www.w3.org/2000/svg"
   xmlns:svg="http://www.w3.org/2000/svg"><sodipodi:namedview
     id="namedview7"
     pagecolor="#ffffff"
     bordercolor="#666666"
     borderopacity="1.0"
     inkscape:showpageshadow="2"
     inkscape:pageopacity="0.0"
     inkscape:pagecheckerboard="0"
     inkscape:deskcolor="#d1d1d1"
     inkscape:document-units="mm"
     showgrid="false"
     inkscape:zoom="1.6819304"
     inkscape:cx="197.09496"
     inkscape:cy="378.73148"
     inkscape:window-width="3440"
     inkscape:window-height="1371"
     inkscape:window-x="0"
     inkscape:window-y="32"
     inkscape:window-maximized="1"
     inkscape:current-layer="layer1" /><defs
     id="defs2" /><g
     inkscape:label="Layer 1"
     inkscape:groupmode="layer"
     id="layer1"><path
       style="fill:#000000;stroke-width:1"
       d="m 181.34148,143.87903 c -2.71309,-1.31728 -5.89068,-4.68232 -7.74662,-8.20359 -0.76379,-1.44912 -2.05356,-4.53977 -2.86617,-6.86811 l -1.47747,-4.23333 -6.14345,-0.096 -6.14345,-0.0961 -1.67556,4.34282 c -1.05806,2.74233 -1.58461,4.57983 -1.42876,4.98597 0.13574,0.35373 0.73898,0.85742 1.34053,1.11929 0.98235,0.42764 0.55484,0.47733 -4.19793,0.48797 -8.37361,0.0187 -9.42716,-0.51993 -14.11292,-7.21573 -3.84473,-5.49398 -5.25639,-7.13429 -6.67635,-7.75771 -1.07732,-0.47298 -1.07268,-0.47561 0.89288,-0.50424 3.55695,-0.0518 5.97263,-1.31833 7.05336,-3.69804 1.23845,-2.727 0.71133,-6.46666 -1.20567,-8.55352 -1.31245,-1.42876 -2.83076,-1.86783 -6.50061,-1.87991 l -2.55764,-0.008 v 13.6909 c 0,10.47238 0.10477,13.83419 0.44564,14.30036 0.24511,0.3352 1.07854,0.83482 1.85209,1.11028 1.32894,0.47322 1.12456,0.49992 -3.70884,0.48449 -3.72217,-0.0119 -4.80907,-0.10492 -3.99094,-0.34163 0.61838,-0.17891 1.45182,-0.74163 1.85208,-1.25048 0.70517,-0.89647 0.72775,-1.32755 0.72775,-13.8913 0,-14.48491 0.0466,-14.20654 -2.47793,-14.80032 -0.77602,-0.18252 1.46552,-0.30167 6.10524,-0.32453 7.98916,-0.0393 8.97547,0.14148 10.96926,2.01108 2.41659,2.26607 3.05932,6.46399 1.49599,9.77087 -1.04746,2.21567 -2.45751,3.55133 -4.61288,4.36949 -1.15993,0.4403 -1.50883,0.70602 -1.12199,0.85446 0.30879,0.1185 1.9348,2.0872 3.61335,4.37491 4.79183,6.53081 6.98711,8.5692 9.22877,8.5692 1.90176,0 2.68476,-1.39653 8.23068,-14.68007 2.90713,-6.96312 5.36917,-12.98967 5.47121,-13.39234 0.13629,-0.53785 -0.18937,-1.07081 -1.22732,-2.00853 -1.60926,-1.45387 -3.09157,-1.84407 -5.98756,-1.57617 l -1.99376,0.18444 1.23472,-0.53083 c 1.99344,-0.85702 5.0487,-0.99348 6.84907,-0.30592 1.92068,0.73352 4.0566,2.98909 5.42915,5.73328 0.56615,1.13195 2.65457,6.66183 4.64091,12.28864 5.06073,14.33575 6.68714,17.58389 10.53835,21.04646 1.93509,1.73981 3.68093,2.41326 6.25608,2.41326 2.6833,0 1.39919,0.72255 -1.65208,0.92961 -2.35392,0.15973 -2.80821,0.0778 -4.72121,-0.85097 z M 168.4651,122.61212 c 0,-0.55399 -4.12535,-12.51531 -4.68443,-13.58234 -0.50449,-0.96286 -0.3715,-1.25612 -6.19289,13.6555 -0.0647,0.16567 2.35626,0.30122 5.37986,0.30122 3.64127,0 5.49746,-0.12641 5.49746,-0.37438 z M 51.458027,139.21911 c -4.328276,-0.91606 -7.046552,-3.89504 -7.431895,-8.14467 -0.212806,-2.3469 0.465268,-4.71803 1.879423,-6.57209 1.281787,-1.68051 1.406215,-1.2579 0.239004,0.81175 -0.844236,1.49697 -0.97529,2.11616 -0.97529,4.60803 0,2.62514 0.0934,3.01354 1.060517,4.40972 1.488902,2.14949 4.174733,3.47132 7.053372,3.47132 5.145644,0 8.811435,-3.95298 8.148827,-8.78724 -0.38409,-2.80223 -1.656867,-4.36261 -7.063898,-8.6601 -2.769775,-2.20141 -5.376749,-4.43581 -5.793274,-4.96533 -2.637469,-3.353 -1.122412,-8.95047 2.9195,-10.78626 1.524956,-0.69262 3.332635,-0.80898 6.852373,-0.4411 l 2.168415,0.22665 -0.02783,2.68377 c -0.0242,2.33191 -0.07649,2.54502 -0.398812,1.62544 -0.784891,-2.23927 -2.633436,-3.4328 -5.316713,-3.4328 -1.876933,0 -3.004608,0.61364 -4.288991,2.33394 -0.929537,1.24501 -0.981886,3.91642 -0.103025,5.25773 0.34338,0.52407 2.88338,2.7562 5.644444,4.9603 2.761065,2.2041 5.362603,4.38771 5.781198,4.85247 2.716986,3.01665 3.474466,8.18948 1.701327,11.61835 -0.893293,1.72744 -3.231528,3.76193 -5.032942,4.37913 -2.096897,0.71845 -5.107372,0.95488 -7.015709,0.55099 z m 184.387623,-0.19862 c -3.64635,-1.01596 -5.793,-3.22693 -6.71216,-6.91324 -0.54279,-2.17688 0.0376,-4.98208 1.48206,-7.16275 0.59599,-0.89978 1.15998,-1.5596 1.25332,-1.46626 0.0933,0.0933 -0.23206,1.01306 -0.7231,2.04384 -1.24355,2.61041 -1.46735,4.46016 -0.81229,6.71349 0.97042,3.33814 4.05974,5.56948 7.70569,5.56563 2.58242,-0.003 4.31323,-0.55303 5.7744,-1.83596 3.4382,-3.01878 3.61317,-8.14845 0.39267,-11.51152 -0.62076,-0.64823 -3.23482,-2.84273 -5.80903,-4.87666 -5.47104,-4.32276 -6.24,-5.41969 -6.0117,-8.57586 0.18615,-2.57353 1.21169,-4.51057 3.08661,-5.82998 1.47067,-1.03494 1.59312,-1.05737 5.53919,-1.01458 2.21939,0.0241 4.08622,0.10344 4.1485,0.17639 0.30688,0.35943 0.48415,5.24791 0.19031,5.24791 -0.18274,0 -0.33225,-0.23065 -0.33225,-0.51257 0,-2.9223 -4.59444,-4.82914 -7.72946,-3.20796 -2.17365,1.12404 -3.1688,4.33855 -2.08174,6.72439 0.23065,0.50621 2.88971,2.89157 5.90903,5.30079 3.01932,2.40922 5.91172,4.98425 6.42755,5.72229 3.75359,5.37048 2.06275,12.36265 -3.59444,14.86417 -2.22975,0.98596 -5.69189,1.22029 -8.10316,0.54844 z m -250.935375,-4.0757 c 0.618383,-0.17891 1.45182,-0.74163 1.852083,-1.25048 0.706499,-0.89816 0.72775,-1.32142 0.72775,-14.49419 v -13.56901 l -2.204861,0.24984 c -1.212673,0.13741 -2.809188,0.45504 -3.547811,0.70583 -1.290015,0.43802 -1.338684,0.42606 -1.234722,-0.30339 0.198499,-1.39278 2.664878,-1.74892 12.2790604,-1.77306 9.201369,-0.0231 10.769688,0.19418 14.2768817,1.97798 4.8583799,2.47101 7.5953379,7.32587 7.5953379,13.47271 0,4.84444 -1.396699,8.2983 -4.54758,11.24558 -3.8141859,3.56772 -6.2242196,4.12534 -17.6774176,4.09009 -5.8936184,-0.0181 -8.2853944,-0.13008 -7.5187214,-0.3519 z m 18.5816844,-1.7395 c 4.9157377,-1.83921 7.9870356,-7.0356 7.9870356,-13.51343 0,-5.86798 -2.7924949,-10.72335 -7.4083326,-12.88101 -1.788152,-0.83587 -2.40357,-0.91815 -7.849305,-1.04943 l -5.909027,-0.14245 v 14.15182 14.15182 h 5.63121 c 4.79822101,0 5.914811,-0.10611 7.548419,-0.71732 z m 16.7577356,1.64556 c 2.21519,-0.80166 2.16541,-0.45438 2.16541,-15.10678 0,-12.86776 -0.02487,-13.36301 -0.705556,-14.04368 -0.388055,-0.38806 -1.142118,-0.73351 -1.675694,-0.76768 -0.533576,-0.0341 2.442986,-0.17045 6.614583,-0.30286 4.171597,-0.13241 8.259409,-0.36287 9.084027,-0.51213 l 1.499305,-0.2714 -0.03611,2.77912 c -0.0284,2.1855 -0.09594,2.52588 -0.316202,1.59357 -0.522898,-2.21327 -0.87805,-2.34223 -6.450425,-2.34223 h -5.015317 l -0.09581,6.79097 -0.09582,6.79097 h 4.186276 c 4.513957,0 4.871924,-0.13419 5.665801,-2.12392 0.262929,-0.65899 0.347028,0.0388 0.341031,2.82948 -0.0055,2.57426 -0.09886,3.40136 -0.30594,2.71147 -0.578524,-1.92732 -0.794251,-2.00592 -5.505404,-2.00592 h -4.366527 v 6.52639 6.52639 h 4.244664 c 5.7932,0 7.851076,-0.93752 9.348928,-4.25916 1.195482,-2.65111 1.116534,-1.36229 -0.131244,2.14249 l -1.25596,3.52778 -9.190001,-0.0268 c -7.654624,-0.0224 -8.991857,-0.0985 -8.004019,-0.45604 z m 60.677773,0 c 2.212749,-0.80078 2.165409,-0.47533 2.165409,-14.88719 0,-14.39804 0.0644,-13.97232 -2.125401,-14.0498 -2.133603,-0.0755 -0.911877,-0.41215 4.330262,-1.19322 9.310219,-1.38721 12.347429,-0.91346 15.152382,2.3635 3.70058,4.32329 2.25098,12.40854 -2.632343,14.68208 -3.387138,1.57695 -7.560785,0.80881 -9.071848,-1.66963 -1.082407,-1.77535 -0.853835,-2.37918 0.348474,-0.92057 2.643021,3.20644 7.602634,2.26009 9.417254,-1.79693 0.89282,-1.99613 0.79878,-6.53805 -0.17383,-8.39507 -1.87234,-3.5749 -5.398789,-4.51169 -11.644638,-3.09336 l -0.809413,0.18381 0.103858,13.5347 c 0.09797,12.76772 0.142211,13.57705 0.780718,14.28217 0.372272,0.41112 1.166022,0.88952 1.763889,1.06312 0.76745,0.22284 -0.364959,0.31709 -3.851864,0.32061 -4.289869,0.004 -4.783038,-0.0514 -3.752909,-0.42422 z m 26.712162,0.10361 c 0.59786,-0.1736 1.39161,-0.65201 1.76388,-1.06314 0.63705,-0.70354 0.68279,-1.50239 0.7776,-13.58054 0.11098,-14.13811 0.0351,-14.72586 -1.95923,-15.16531 -0.53005,-0.11679 -1.12247,-0.26531 -1.3165,-0.33003 -0.19403,-0.0647 1.86972,-0.1086 4.58611,-0.0975 2.71639,0.0111 4.54201,0.0919 4.05694,0.17946 -0.48507,0.0876 -1.23913,0.49053 -1.67569,0.8954 l -0.79375,0.73612 v 13.27664 c 0,14.58503 -0.0491,14.24386 2.16541,15.04528 1.03013,0.37279 0.53696,0.42854 -3.75291,0.42422 -3.48691,-0.004 -4.61931,-0.0978 -3.85186,-0.32061 z m 76.91148,-0.29281 c 0.79516,-0.36112 1.54922,-0.92624 1.6757,-1.25583 0.12647,-0.32959 0.22995,-6.69814 0.22995,-14.15234 v -13.55309 h -4.54703 c -5.11643,0 -5.72698,0.23783 -6.33939,2.46944 -0.2937,1.07026 -0.34307,0.852 -0.37065,-1.63854 l -0.0318,-2.87327 1.32292,0.30721 c 1.7803,0.41343 21.48934,0.4099 22.93288,-0.004 l 1.1442,-0.32815 -0.0361,2.88579 c -0.0289,2.31154 -0.0935,2.64178 -0.32452,1.65955 -0.51656,-2.19623 -1.24203,-2.47794 -6.38123,-2.47794 h -4.54703 v 13.53437 c 0,13.13778 0.0213,13.56148 0.72775,14.45955 0.40027,0.50885 1.2337,1.07157 1.85208,1.25048 0.82514,0.23873 -0.18996,0.3317 -3.81455,0.34937 l -4.93889,0.0241 1.44574,-0.65658 z m 20.49248,0.28626 c 0.61838,-0.18063 1.45182,-0.74475 1.85209,-1.2536 0.70529,-0.89663 0.72775,-1.32699 0.72775,-13.94642 v -13.02124 l -0.86592,-0.86591 c -0.47625,-0.47625 -1.23031,-0.89386 -1.67569,-0.92803 -0.44538,-0.0341 2.60334,-0.17045 6.77494,-0.30286 4.1716,-0.13241 8.25941,-0.36287 9.08403,-0.51213 l 1.4993,-0.2714 -0.0268,2.77912 c -0.0253,2.6183 -0.0518,2.71017 -0.45784,1.58775 -0.81881,-2.26329 -1.49267,-2.5128 -6.78633,-2.5128 h -4.72342 v 6.87916 6.87917 h 3.97844 c 4.41743,0 5.39192,-0.35071 5.64703,-2.03232 0.0806,-0.53146 0.14876,0.70058 0.15141,2.73788 0.003,2.03729 -0.0674,3.30729 -0.1557,2.82222 -0.34551,-1.89843 -0.90666,-2.11667 -5.44253,-2.11667 h -4.17865 v 6.52639 6.52639 h 4.35423 c 5.49598,0 6.82723,-0.5597 8.66328,-3.64233 0.65971,-1.10761 1.25685,-1.95645 1.32699,-1.88631 0.0701,0.0701 -0.41219,1.62058 -1.07185,3.44544 l -1.19937,3.31792 -9.29983,0.0595 c -6.21704,0.0398 -8.92713,-0.0494 -8.17551,-0.26891 z M 93.569667,81.57648 C 88.701789,79.761756 85.038259,74.764775 81.832187,65.566793 l -1.385143,-3.973865 -6.135461,0.09331 -6.135461,0.09331 -1.517985,3.880556 c -0.834894,2.134306 -1.526748,4.213139 -1.537455,4.61963 -0.01962,0.744678 0.765916,1.649475 1.744419,2.009262 0.291042,0.107016 -1.534583,0.200138 -4.056944,0.20694 -4.376487,0.01182 -4.521613,-0.01044 -3.175,-0.486869 0.776111,-0.274577 1.736813,-0.874859 2.134898,-1.333959 0.398081,-0.4591 2.968269,-6.220289 5.711525,-12.802644 2.743256,-6.582354 5.230914,-12.547478 5.52813,-13.255832 0.508366,-1.211595 0.497187,-1.342835 -0.188624,-2.214703 -0.400956,-0.509734 -1.382613,-1.260232 -2.181461,-1.667773 -1.22254,-0.623693 -1.873398,-0.712212 -4.11179,-0.559217 -2.551042,0.174364 -2.611064,0.161152 -1.473849,-0.324419 0.652021,-0.278402 2.179302,-0.598989 3.393951,-0.712415 1.876502,-0.175231 2.496319,-0.07444 4.123609,0.670557 3.568907,1.633901 4.558879,3.454168 9.454902,17.384775 1.977587,5.626806 4.37196,11.821509 5.32083,13.766007 3.297396,6.757272 6.975164,10.046494 11.233249,10.046494 1.441663,0 1.839083,0.102493 1.543503,0.398075 -0.630703,0.630696 -5.013723,0.746065 -6.552363,0.172469 z M 79.917878,60.090629 c 0,-0.217714 -3.488023,-10.419193 -4.217162,-12.334 -0.424832,-1.11566 -0.892729,-2.028472 -1.03977,-2.028472 -0.238153,0 -5.679178,13.626155 -5.679178,14.222577 0,0.132722 2.460624,0.241312 5.468055,0.241312 3.00743,0 5.468055,-0.04564 5.468055,-0.101417 z M 6.7164951,81.123111 C 3.7676204,80.480474 0.24600941,79.146395 -4.7487816,76.779771 -10.36725,74.117632 -14.585429,72.547676 -16.163024,72.531522 c -0.534664,-0.0055 -0.33252,-0.200339 0.689151,-0.664326 0.795157,-0.361118 1.54922,-0.926241 1.675694,-1.255828 0.126475,-0.329587 0.229954,-6.438607 0.229954,-13.5756 0,-12.489243 -0.02678,-13.010391 -0.713318,-13.883186 -0.392324,-0.49876 -1.146387,-0.972633 -1.675694,-1.053052 -0.529307,-0.08042 1.260123,-0.15375 3.976512,-0.162961 3.1633764,-0.01073 4.5126884,0.08395 3.7533404,0.263345 -2.4317524,0.574514 -2.3315084,-0.0534 -2.4419914,15.296286 -0.09786,13.595318 -0.08569,13.87806 0.636511,14.796195 0.5779464,0.734738 1.9269664,1.321912 6.2733724,2.730536 8.8823027,2.878659 11.8115577,3.559475 16.1204316,3.746708 3.147001,0.136744 4.330693,0.03957 6.261805,-0.514057 1.309687,-0.375476 2.38125,-0.567366 2.38125,-0.426424 0,0.419051 -3.908361,2.360285 -5.973057,2.966741 -1.778209,0.522309 -6.5563309,0.71035 -8.3144419,0.327212 z M 44.049694,76.424658 c -4.328276,-0.916062 -7.046552,-3.895041 -7.431895,-8.144673 -0.212806,-2.346894 0.465268,-4.718032 1.879424,-6.572087 1.281786,-1.680507 1.406214,-1.257898 0.239003,0.811752 -0.844236,1.496961 -0.975289,2.116164 -0.975289,4.608027 0,2.625142 0.0934,3.013534 1.060517,4.409722 1.488902,2.149485 4.174733,3.471315 7.053371,3.471315 5.145644,0 8.811436,-3.95298 8.148827,-8.787232 -0.38409,-2.802233 -1.656866,-4.362615 -7.063898,-8.660104 -2.769774,-2.201407 -5.376749,-4.435807 -5.793274,-4.965333 -2.637468,-3.352999 -1.122412,-8.950461 2.919501,-10.786257 1.524956,-0.692621 3.332635,-0.808984 6.852372,-0.441098 l 2.168416,0.226644 -0.02783,2.683772 c -0.0242,2.331912 -0.07649,2.545018 -0.398812,1.62544 -0.784892,-2.239265 -2.633437,-3.4328 -5.316714,-3.4328 -1.876932,0 -3.004608,0.613645 -4.28899,2.333939 -0.929538,1.245015 -0.981887,3.916427 -0.103026,5.257736 0.34338,0.524065 2.88338,2.756198 5.644444,4.960296 2.761065,2.204097 5.362603,4.38771 5.781199,4.852473 2.716985,3.016649 3.474465,8.189477 1.701327,11.61835 -0.893293,1.727439 -3.231529,3.761923 -5.032943,4.379132 -2.096897,0.718446 -5.107371,0.954878 -7.015708,0.550986 z M 110.00477,60.521204 98.085927,47.797582 l -0.0932,11.385922 c -0.0881,10.77107 -0.0571,11.421993 0.57482,12.053921 0.3674,0.367399 1.20308,0.794363 1.857063,0.948812 0.78976,0.18651 -0.41026,0.287737 -3.573433,0.301438 -4.526334,0.01962 -4.692753,-0.0042 -3.356054,-0.480201 0.773543,-0.275455 1.616204,-0.784425 1.872574,-1.131044 0.37286,-0.504126 0.44438,-3.541772 0.35744,-15.182488 -0.0598,-8.003749 -0.0293,-14.547528 0.0677,-14.541731 0.097,0.0058 5.494523,5.70398 11.994453,12.66263 l 11.81805,12.65209 0.0932,-11.311502 c 0.0917,-11.132235 0.0812,-11.324224 -0.66091,-12.114173 -0.41473,-0.441469 -1.25041,-0.865236 -1.85705,-0.941705 -0.60664,-0.07647 1.04015,-0.139035 3.65952,-0.139035 2.61938,0 4.26616,0.06257 3.65952,0.139035 -0.60664,0.07647 -1.44677,0.504983 -1.86696,0.952253 -0.76177,0.810868 -0.76368,0.855668 -0.66091,15.503298 0.0567,8.079544 0.069,14.689998 0.0275,14.689903 -0.0416,-9.9e-5 -5.43908,-5.72581 -11.99444,-12.723801 z m 31.64922,12.340906 c -9.99381,-1.755408 -15.18352,-12.233915 -11.25691,-22.728732 1.07845,-2.88242 3.96069,-5.837274 7.30702,-7.491123 l 2.67857,-1.323821 4.60441,0.01245 c 3.98401,0.01077 4.88961,0.124445 6.72107,0.843668 3.53129,1.386748 3.92738,1.795063 4.20833,4.338196 0.13453,1.217713 0.31885,2.610899 0.4096,3.095968 0.0908,0.48507 -0.26644,0.02383 -0.79376,-1.024987 -1.79085,-3.561869 -4.49164,-5.466104 -8.54387,-6.023986 -5.30282,-0.730054 -9.99345,1.458809 -12.58028,5.870539 -2.86077,4.878911 -2.54579,13.677164 0.65596,18.32322 3.90932,5.672798 12.35669,6.692449 18.60202,2.245376 l 1.04061,-0.740983 v -4.518893 c 0,-4.876718 -0.071,-5.076966 -2.00592,-5.657774 -0.66463,-0.199505 0.46459,-0.299129 3.41703,-0.301461 3.83251,-0.003 4.25734,0.05173 3.24556,0.418368 -0.64029,0.232019 -1.31255,0.656504 -1.4939,0.9433 -0.18136,0.286797 -0.33217,2.368289 -0.33514,4.625538 l -0.005,4.104089 -1.39004,1.255815 c -3.43046,3.099211 -9.37655,4.632531 -14.48496,3.735237 z M 1.9052544,72.056394 c 2.215187,-0.801658 2.165408,-0.45438 2.165408,-15.106774 0,-12.86776 -0.02488,-13.363012 -0.705556,-14.043686 -0.388055,-0.388055 -1.142117,-0.733508 -1.675694,-0.767673 -0.533576,-0.03416 2.442986,-0.170452 6.6145827,-0.302861 4.1715969,-0.13241 8.2594089,-0.362871 9.0840269,-0.512138 l 1.499305,-0.271392 -0.03611,2.779115 c -0.0284,2.185504 -0.09594,2.525886 -0.316202,1.593568 -0.522898,-2.21327 -0.878049,-2.34223 -6.450424,-2.34223 H 7.0692731 l -0.09581,6.790973 -0.09581,6.790972 h 4.1862739 c 4.513959,0 4.871925,-0.13419 5.665802,-2.123921 0.262928,-0.658989 0.347027,0.03877 0.34103,2.829477 -0.0055,2.574265 -0.09886,3.40136 -0.30594,2.711474 C 16.186296,58.153981 15.970568,58.07538 11.259414,58.07538 H 6.8928881 v 6.526389 6.526389 h 4.2446639 c 5.7932,0 7.851076,-0.937522 9.348928,-4.259164 1.195483,-2.65111 1.116534,-1.36229 -0.131244,2.142497 l -1.255959,3.527778 -9.1900009,-0.02685 C 2.2546524,72.490049 0.91741941,72.413869 1.9052584,72.056383 Z"
       id="path332" /></g></svg>
