  0
SECTION
  2
HEADER
  9
$ACADVER
  1
AC1014
  9
$HANDSEED
  5
FFFF
  9
$MEASUREMENT
 70
     1
  0
ENDSEC
  0
SECTION
  2
TABLES
  0
TABLE
  2
VPORT
  5
8
330
0
100
AcDbSymbolTable
 70
     4
  0
VPORT
  5
2E
330
8
100
AcDbSymbolTableRecord
100
AcDbViewportTableRecord
  2
*ACTIVE
 70
     0
 10
0.0
 20
0.0
 11
1.0
 21
1.0
 12
210.0
 22
148.5
 13
0.0
 23
0.0
 14
10.0
 24
10.0
 15
10.0
 25
10.0
 16
0.0
 26
0.0
 36
1.0
 17
0.0
 27
0.0
 37
0.0
 40
341.0
 41
1.24
 42
50.0
 43
0.0
 44
0.0
 50
0.0
 51
0.0
 71
     0
 72
   100
 73
     1
 74
     3
 75
     0
 76
     0
 77
     0
 78
     0
  0
ENDTAB
  0
TABLE
  2
LTYPE
  5
5
330
0
100
AcDbSymbolTable
 70
     1
  0
LTYPE
  5
14
330
5
100
AcDbSymbolTableRecord
100
AcDbLinetypeTableRecord
  2
BYBLOCK
 70
     0
  3

 72
    65
 73
     0
 40
0.0
  0
LTYPE
  5
15
330
5
100
AcDbSymbolTableRecord
100
AcDbLinetypeTableRecord
  2
BYLAYER
 70
     0
  3

 72
    65
 73
     0
 40
0.0
  0
LTYPE
  5
16
330
5
100
AcDbSymbolTableRecord
100
AcDbLinetypeTableRecord
  2
CONTINUOUS
 70
     0
  3
Solid line
 72
    65
 73
     0
 40
0.0
  0
ENDTAB
  0
TABLE
  2
LAYER
  5
2
100
AcDbSymbolTable
 70
1
  0
LAYER
  5
50
100
AcDbSymbolTableRecord
100
AcDbLayerTableRecord
  2
0
 70
0
  6
CONTINUOUS
  0
ENDTAB
  0
TABLE
  2
STYLE
  5
3
330
0
100
AcDbSymbolTable
 70
     1
  0
STYLE
  5
11
330
3
100
AcDbSymbolTableRecord
100
AcDbTextStyleTableRecord
  2
STANDARD
 70
     0
 40
0.0
 41
1.0
 50
0.0
 71
     0
 42
2.5
  3
txt
  4

  0
ENDTAB
  0
TABLE
  2
VIEW
  5
6
330
0
100
AcDbSymbolTable
 70
     0
  0
ENDTAB
  0
TABLE
  2
UCS
  5
7
330
0
100
AcDbSymbolTable
 70
     0
  0
ENDTAB
  0
TABLE
  2
APPID
  5
9
330
0
100
AcDbSymbolTable
 70
     2
  0
APPID
  5
12
330
9
100
AcDbSymbolTableRecord
100
AcDbRegAppTableRecord
  2
ACAD
 70
     0
  0
ENDTAB
  0
TABLE
  2
DIMSTYLE
  5
A
330
0
100
AcDbSymbolTable
 70
     1
  0
DIMSTYLE
105
27
330
A
100
AcDbSymbolTableRecord
100
AcDbDimStyleTableRecord
  2
ISO-25
 70
     0
  3

  4

  5

  6

  7

 40
1.0
 41
2.5
 42
0.625
 43
3.75
 44
1.25
 45
0.0
 46
0.0
 47
0.0
 48
0.0
140
2.5
141
2.5
142
0.0
143
0.03937007874016
144
1.0
145
0.0
146
1.0
147
0.625
 71
     0
 72
     0
 73
     0
 74
     0
 75
     0
 76
     0
 77
     1
 78
     8
170
     0
171
     3
172
     1
173
     0
174
     0
175
     0
176
     0
177
     0
178
     0
270
     2
271
     2
272
     2
273
     2
274
     3
340
11
275
     0
280
     0
281
     0
282
     0
283
     0
284
     8
285
     0
286
     0
287
     3
288
     0
  0
ENDTAB
  0
TABLE
  2
BLOCK_RECORD
  5
1
330
0
100
AcDbSymbolTable
 70
     1
  0
BLOCK_RECORD
  5
1F
330
1
100
AcDbSymbolTableRecord
100
AcDbBlockTableRecord
  2
*MODEL_SPACE
  0
BLOCK_RECORD
  5
1B
330
1
100
AcDbSymbolTableRecord
100
AcDbBlockTableRecord
  2
*PAPER_SPACE
  0
ENDTAB
  0
ENDSEC
  0
SECTION
  2
BLOCKS
  0
BLOCK
  5
20
330
1F
100
AcDbEntity
  8
0
100
AcDbBlockBegin
  2
*MODEL_SPACE
 70
     0
 10
0.0
 20
0.0
 30
0.0
  3
*MODEL_SPACE
  1

  0
ENDBLK
  5
21
330
1F
100
AcDbEntity
  8
0
100
AcDbBlockEnd
  0
BLOCK
  5
1C
330
1B
100
AcDbEntity
 67
     1
  8
0
100
AcDbBlockBegin
  2
*PAPER_SPACE
  1

  0
ENDBLK
  5
1D
330
1B
100
AcDbEntity
 67
     1
  8
0
100
AcDbBlockEnd
  0
ENDSEC
  0
SECTION
  2
ENTITIES
  0
SPLINE
  5
100
100
AcDbEntity
  8
0
 62
7
100
AcDbSpline
 70
8
 71
3
 72
8
 73
4
 74
0
 40
0
 40
0
 40
0
 40
0
 40
1
 40
1
 40
1
 40
1
 10
88.529583
 20
312.155417
 30
0.0
 10
88.529583
 20
312.949167
 30
0.0
 10
88.952917
 20
313.663542
 30
0.0
 10
89.640833
 20
314.060417
 30
0.0
  0
SPLINE
  5
101
100
AcDbEntity
  8
0
 62
7
100
AcDbSpline
 70
8
 71
3
 72
8
 73
4
 74
0
 40
0
 40
0
 40
0
 40
0
 40
1
 40
1
 40
1
 40
1
 10
89.640833
 20
314.060417
 30
0.0
 10
96.387708
 20
317.817500
 30
0.0
 10
132.688542
 20
335.967917
 30
0.0
 10
166.846250
 20
311.917292
 30
0.0
  0
SPLINE
  5
102
100
AcDbEntity
  8
0
 62
7
100
AcDbSpline
 70
8
 71
3
 72
8
 73
4
 74
0
 40
0
 40
0
 40
0
 40
0
 40
1
 40
1
 40
1
 40
1
 10
166.846250
 20
311.917292
 30
0.0
 10
167.428333
 20
311.520417
 30
0.0
 10
167.772292
 20
310.832500
 30
0.0
 10
167.772292
 20
310.144583
 30
0.0
  0
LWPOLYLINE
  5
103
100
AcDbEntity
  8
0
 62
7
100
AcDbPolyline
 90
2
 70
0
 10
88.529583
 20
189.256458
 30
0.0
 10
88.529583
 20
312.155417
 30
0.0
  0
SPLINE
  5
104
100
AcDbEntity
  8
0
 62
7
100
AcDbSpline
 70
8
 71
3
 72
8
 73
4
 74
0
 40
0
 40
0
 40
0
 40
0
 40
1
 40
1
 40
1
 40
1
 10
167.772292
 20
189.256458
 30
0.0
 10
167.772292
 20
188.780208
 30
0.0
 10
167.375417
 20
188.383333
 30
0.0
 10
166.899167
 20
188.383333
 30
0.0
  0
LWPOLYLINE
  5
105
100
AcDbEntity
  8
0
 62
7
100
AcDbPolyline
 90
2
 70
0
 10
167.772292
 20
310.144583
 30
0.0
 10
167.772292
 20
189.256458
 30
0.0
  0
SPLINE
  5
106
100
AcDbEntity
  8
0
 62
7
100
AcDbSpline
 70
8
 71
3
 72
8
 73
4
 74
0
 40
0
 40
0
 40
0
 40
0
 40
1
 40
1
 40
1
 40
1
 10
163.644792
 20
188.383333
 30
0.0
 10
163.168542
 20
188.383333
 30
0.0
 10
162.771667
 20
188.780208
 30
0.0
 10
162.771667
 20
189.256458
 30
0.0
  0
LWPOLYLINE
  5
107
100
AcDbEntity
  8
0
 62
7
100
AcDbPolyline
 90
2
 70
0
 10
166.899167
 20
188.383333
 30
0.0
 10
163.644792
 20
188.383333
 30
0.0
  0
SPLINE
  5
108
100
AcDbEntity
  8
0
 62
7
100
AcDbSpline
 70
8
 71
3
 72
8
 73
4
 74
0
 40
0
 40
0
 40
0
 40
0
 40
1
 40
1
 40
1
 40
1
 10
163.618333
 20
309.694792
 30
0.0
 10
163.618333
 20
310.409167
 30
0.0
 10
163.274375
 20
311.097083
 30
0.0
 10
162.665833
 20
311.493958
 30
0.0
  0
SPLINE
  5
109
100
AcDbEntity
  8
0
 62
7
100
AcDbSpline
 70
8
 71
3
 72
8
 73
4
 74
0
 40
0
 40
0
 40
0
 40
0
 40
1
 40
1
 40
1
 40
1
 10
162.665833
 20
311.493958
 30
0.0
 10
157.374167
 20
315.118750
 30
0.0
 10
130.492500
 20
331.205417
 30
0.0
 10
94.667917
 20
313.372500
 30
0.0
  0
SPLINE
  5
10a
100
AcDbEntity
  8
0
 62
7
100
AcDbSpline
 70
8
 71
3
 72
8
 73
4
 74
0
 40
0
 40
0
 40
0
 40
0
 40
1
 40
1
 40
1
 40
1
 10
94.667917
 20
313.372500
 30
0.0
 10
93.927083
 20
313.002083
 30
0.0
 10
93.450833
 20
312.261250
 30
0.0
 10
93.450833
 20
311.441042
 30
0.0
  0
LWPOLYLINE
  5
10b
100
AcDbEntity
  8
0
 62
7
100
AcDbPolyline
 90
2
 70
0
 10
162.771667
 20
189.256458
 30
0.0
 10
163.618333
 20
309.694792
 30
0.0
  0
SPLINE
  5
10c
100
AcDbEntity
  8
0
 62
7
100
AcDbSpline
 70
8
 71
3
 72
8
 73
4
 74
0
 40
0
 40
0
 40
0
 40
0
 40
1
 40
1
 40
1
 40
1
 10
92.815833
 20
189.256458
 30
0.0
 10
92.815833
 20
188.780208
 30
0.0
 10
92.418958
 20
188.383333
 30
0.0
 10
91.942708
 20
188.383333
 30
0.0
  0
LWPOLYLINE
  5
10d
100
AcDbEntity
  8
0
 62
7
100
AcDbPolyline
 90
2
 70
0
 10
93.450833
 20
311.441042
 30
0.0
 10
92.815833
 20
189.256458
 30
0.0
  0
SPLINE
  5
10e
100
AcDbEntity
  8
0
 62
7
100
AcDbSpline
 70
8
 71
3
 72
8
 73
4
 74
0
 40
0
 40
0
 40
0
 40
0
 40
1
 40
1
 40
1
 40
1
 10
89.349792
 20
188.383333
 30
0.0
 10
88.926458
 20
188.383333
 30
0.0
 10
88.529583
 20
188.780208
 30
0.0
 10
88.529583
 20
189.256458
 30
0.0
  0
LWPOLYLINE
  5
10f
100
AcDbEntity
  8
0
 62
7
100
AcDbPolyline
 90
2
 70
0
 10
91.942708
 20
188.383333
 30
0.0
 10
89.349792
 20
188.383333
 30
0.0
  0
SPLINE
  5
110
100
AcDbEntity
  8
0
 62
7
100
AcDbSpline
 70
8
 71
3
 72
8
 73
4
 74
0
 40
0
 40
0
 40
0
 40
0
 40
1
 40
1
 40
1
 40
1
 10
215.317917
 20
320.675000
 30
0.0
 10
215.317917
 20
319.960625
 30
0.0
 10
119.644583
 20
348.720833
 30
0.0
 10
87.788750
 20
314.827708
 30
0.0
  0
SPLINE
  5
111
100
AcDbEntity
  8
0
 62
7
100
AcDbSpline
 70
8
 71
3
 72
8
 73
4
 74
0
 40
0
 40
0
 40
0
 40
0
 40
1
 40
1
 40
1
 40
1
 10
87.788750
 20
314.827708
 30
0.0
 10
87.709375
 20
314.086875
 30
0.0
 10
126.365000
 20
341.894583
 30
0.0
 10
167.243125
 20
312.869792
 30
0.0
  0
SPLINE
  5
112
100
AcDbEntity
  8
0
 62
7
100
AcDbSpline
 70
8
 71
3
 72
8
 73
4
 74
0
 40
0
 40
0
 40
0
 40
0
 40
1
 40
1
 40
1
 40
1
 10
104.140000
 20
238.416042
 30
0.0
 10
104.140000
 20
238.416042
 30
0.0
 10
104.775000
 20
239.103958
 30
0.0
 10
104.907292
 20
240.082917
 30
0.0
  0
SPLINE
  5
113
100
AcDbEntity
  8
0
 62
7
100
AcDbSpline
 70
8
 71
3
 72
8
 73
4
 74
0
 40
0
 40
0
 40
0
 40
0
 40
1
 40
1
 40
1
 40
1
 10
104.907292
 20
240.082917
 30
0.0
 10
105.039583
 20
241.061875
 30
0.0
 10
105.753958
 20
237.966250
 30
0.0
 10
104.854375
 20
237.516458
 30
0.0
  0
SPLINE
  5
114
100
AcDbEntity
  8
0
 62
7
100
AcDbSpline
 70
8
 71
3
 72
8
 73
4
 74
0
 40
0
 40
0
 40
0
 40
0
 40
1
 40
1
 40
1
 40
1
 10
104.854375
 20
237.516458
 30
0.0
 10
103.928333
 20
237.066667
 30
0.0
 10
103.187500
 20
236.881458
 30
0.0
 10
103.187500
 20
236.881458
 30
0.0
  0
LWPOLYLINE
  5
115
100
AcDbEntity
  8
0
 62
7
100
AcDbPolyline
 90
1
 70
1
 10
88.529583
 20
189.256458
 30
0.0
  0
SPLINE
  5
116
100
AcDbEntity
  8
0
 62
7
100
AcDbSpline
 70
8
 71
3
 72
8
 73
4
 74
0
 40
0
 40
0
 40
0
 40
0
 40
1
 40
1
 40
1
 40
1
 10
99.906667
 20
244.660208
 30
0.0
 10
99.906667
 20
244.660208
 30
0.0
 10
99.509792
 20
245.506875
 30
0.0
 10
99.642083
 20
246.485833
 30
0.0
  0
SPLINE
  5
117
100
AcDbEntity
  8
0
 62
7
100
AcDbSpline
 70
8
 71
3
 72
8
 73
4
 74
0
 40
0
 40
0
 40
0
 40
0
 40
1
 40
1
 40
1
 40
1
 10
99.642083
 20
246.485833
 30
0.0
 10
99.774375
 20
247.464792
 30
0.0
 10
98.319167
 20
244.660208
 30
0.0
 10
99.033542
 20
243.998750
 30
0.0
  0
SPLINE
  5
118
100
AcDbEntity
  8
0
 62
7
100
AcDbSpline
 70
8
 71
3
 72
8
 73
4
 74
0
 40
0
 40
0
 40
0
 40
0
 40
1
 40
1
 40
1
 40
1
 10
99.033542
 20
243.998750
 30
0.0
 10
99.747917
 20
243.337292
 30
0.0
 10
100.382917
 20
242.966875
 30
0.0
 10
100.382917
 20
242.966875
 30
0.0
  0
LWPOLYLINE
  5
119
100
AcDbEntity
  8
0
 62
7
100
AcDbPolyline
 90
3
 70
0
 10
103.187500
 20
236.881458
 30
0.0
 10
104.140000
 20
238.416042
 30
0.0
 10
104.140000
 20
238.416042
 30
0.0
  0
SPLINE
  5
11a
100
AcDbEntity
  8
0
 62
7
100
AcDbSpline
 70
8
 71
3
 72
8
 73
4
 74
0
 40
0
 40
0
 40
0
 40
0
 40
1
 40
1
 40
1
 40
1
 10
129.513542
 20
244.739583
 30
0.0
 10
129.513542
 20
244.739583
 30
0.0
 10
128.825625
 20
245.533333
 30
0.0
 10
128.772708
 20
246.565208
 30
0.0
  0
SPLINE
  5
11b
100
AcDbEntity
  8
0
 62
7
100
AcDbSpline
 70
8
 71
3
 72
8
 73
4
 74
0
 40
0
 40
0
 40
0
 40
0
 40
1
 40
1
 40
1
 40
1
 10
128.772708
 20
246.565208
 30
0.0
 10
128.719792
 20
247.597083
 30
0.0
 10
127.476250
 20
244.422083
 30
0.0
 10
128.561042
 20
243.892917
 30
0.0
  0
SPLINE
  5
11c
100
AcDbEntity
  8
0
 62
7
100
AcDbSpline
 70
8
 71
3
 72
8
 73
4
 74
0
 40
0
 40
0
 40
0
 40
0
 40
1
 40
1
 40
1
 40
1
 10
128.561042
 20
243.892917
 30
0.0
 10
129.645833
 20
243.363750
 30
0.0
 10
130.518958
 20
243.099167
 30
0.0
 10
130.518958
 20
243.099167
 30
0.0
  0
LWPOLYLINE
  5
11d
100
AcDbEntity
  8
0
 62
7
100
AcDbPolyline
 90
3
 70
0
 10
100.382917
 20
242.966875
 30
0.0
 10
99.906667
 20
244.660208
 30
0.0
 10
99.906667
 20
244.660208
 30
0.0
  0
SPLINE
  5
11e
100
AcDbEntity
  8
0
 62
7
100
AcDbSpline
 70
8
 71
3
 72
8
 73
4
 74
0
 40
0
 40
0
 40
0
 40
0
 40
1
 40
1
 40
1
 40
1
 10
123.639792
 20
301.942500
 30
0.0
 10
123.639792
 20
301.942500
 30
0.0
 10
122.978333
 20
302.207083
 30
0.0
 10
122.607917
 20
302.815625
 30
0.0
  0
SPLINE
  5
11f
100
AcDbEntity
  8
0
 62
7
100
AcDbSpline
 70
8
 71
3
 72
8
 73
4
 74
0
 40
0
 40
0
 40
0
 40
0
 40
1
 40
1
 40
1
 40
1
 10
122.607917
 20
302.815625
 30
0.0
 10
122.263958
 20
303.424167
 30
0.0
 10
122.475625
 20
301.095833
 30
0.0
 10
123.322292
 20
301.122292
 30
0.0
  0
SPLINE
  5
120
100
AcDbEntity
  8
0
 62
7
100
AcDbSpline
 70
8
 71
3
 72
8
 73
4
 74
0
 40
0
 40
0
 40
0
 40
0
 40
1
 40
1
 40
1
 40
1
 10
123.322292
 20
301.122292
 30
0.0
 10
124.142500
 20
301.122292
 30
0.0
 10
124.751042
 20
301.254583
 30
0.0
 10
124.751042
 20
301.254583
 30
0.0
  0
LWPOLYLINE
  5
121
100
AcDbEntity
  8
0
 62
7
100
AcDbPolyline
 90
3
 70
0
 10
130.518958
 20
243.099167
 30
0.0
 10
129.513542
 20
244.739583
 30
0.0
 10
129.513542
 20
244.739583
 30
0.0
  0
SPLINE
  5
122
100
AcDbEntity
  8
0
 62
7
100
AcDbSpline
 70
8
 71
3
 72
8
 73
4
 74
0
 40
0
 40
0
 40
0
 40
0
 40
1
 40
1
 40
1
 40
1
 10
142.054792
 20
290.009792
 30
0.0
 10
142.054792
 20
290.009792
 30
0.0
 10
141.366875
 20
290.803542
 30
0.0
 10
141.313958
 20
291.835417
 30
0.0
  0
SPLINE
  5
123
100
AcDbEntity
  8
0
 62
7
100
AcDbSpline
 70
8
 71
3
 72
8
 73
4
 74
0
 40
0
 40
0
 40
0
 40
0
 40
1
 40
1
 40
1
 40
1
 10
141.313958
 20
291.835417
 30
0.0
 10
141.261042
 20
292.867292
 30
0.0
 10
140.017500
 20
289.692292
 30
0.0
 10
141.102292
 20
289.163125
 30
0.0
  0
SPLINE
  5
124
100
AcDbEntity
  8
0
 62
7
100
AcDbSpline
 70
8
 71
3
 72
8
 73
4
 74
0
 40
0
 40
0
 40
0
 40
0
 40
1
 40
1
 40
1
 40
1
 10
141.102292
 20
289.163125
 30
0.0
 10
142.187083
 20
288.607500
 30
0.0
 10
143.060208
 20
288.369375
 30
0.0
 10
143.060208
 20
288.369375
 30
0.0
  0
LWPOLYLINE
  5
125
100
AcDbEntity
  8
0
 62
7
100
AcDbPolyline
 90
3
 70
0
 10
124.751042
 20
301.254583
 30
0.0
 10
123.639792
 20
301.942500
 30
0.0
 10
123.639792
 20
301.942500
 30
0.0
  0
SPLINE
  5
126
100
AcDbEntity
  8
0
 62
7
100
AcDbSpline
 70
8
 71
3
 72
8
 73
4
 74
0
 40
0
 40
0
 40
0
 40
0
 40
1
 40
1
 40
1
 40
1
 10
117.766042
 20
278.394583
 30
0.0
 10
117.766042
 20
278.394583
 30
0.0
 10
116.892917
 20
278.712083
 30
0.0
 10
116.284375
 20
279.479375
 30
0.0
  0
SPLINE
  5
127
100
AcDbEntity
  8
0
 62
7
100
AcDbSpline
 70
8
 71
3
 72
8
 73
4
 74
0
 40
0
 40
0
 40
0
 40
0
 40
1
 40
1
 40
1
 40
1
 10
116.284375
 20
279.479375
 30
0.0
 10
115.675833
 20
280.273125
 30
0.0
 10
116.628333
 20
277.256875
 30
0.0
 10
117.607292
 20
277.283333
 30
0.0
  0
SPLINE
  5
128
100
AcDbEntity
  8
0
 62
7
100
AcDbSpline
 70
8
 71
3
 72
8
 73
4
 74
0
 40
0
 40
0
 40
0
 40
0
 40
1
 40
1
 40
1
 40
1
 10
117.607292
 20
277.283333
 30
0.0
 10
118.586250
 20
277.309792
 30
0.0
 10
119.300625
 20
277.495000
 30
0.0
 10
119.300625
 20
277.495000
 30
0.0
  0
LWPOLYLINE
  5
129
100
AcDbEntity
  8
0
 62
7
100
AcDbPolyline
 90
3
 70
0
 10
143.060208
 20
288.369375
 30
0.0
 10
142.054792
 20
290.009792
 30
0.0
 10
142.054792
 20
290.009792
 30
0.0
  0
SPLINE
  5
12a
100
AcDbEntity
  8
0
 62
7
100
AcDbSpline
 70
8
 71
3
 72
8
 73
4
 74
0
 40
0
 40
0
 40
0
 40
0
 40
1
 40
1
 40
1
 40
1
 10
108.690833
 20
250.110625
 30
0.0
 10
108.690833
 20
250.110625
 30
0.0
 10
109.325833
 20
250.798542
 30
0.0
 10
109.458125
 20
251.777500
 30
0.0
  0
SPLINE
  5
12b
100
AcDbEntity
  8
0
 62
7
100
AcDbSpline
 70
8
 71
3
 72
8
 73
4
 74
0
 40
0
 40
0
 40
0
 40
0
 40
1
 40
1
 40
1
 40
1
 10
109.458125
 20
251.777500
 30
0.0
 10
109.590417
 20
252.756458
 30
0.0
 10
110.304792
 20
249.660833
 30
0.0
 10
109.405208
 20
249.211042
 30
0.0
  0
SPLINE
  5
12c
100
AcDbEntity
  8
0
 62
7
100
AcDbSpline
 70
8
 71
3
 72
8
 73
4
 74
0
 40
0
 40
0
 40
0
 40
0
 40
1
 40
1
 40
1
 40
1
 10
109.405208
 20
249.211042
 30
0.0
 10
108.479167
 20
248.761250
 30
0.0
 10
107.738333
 20
248.576042
 30
0.0
 10
107.738333
 20
248.576042
 30
0.0
  0
LWPOLYLINE
  5
12d
100
AcDbEntity
  8
0
 62
7
100
AcDbPolyline
 90
3
 70
0
 10
119.300625
 20
277.495000
 30
0.0
 10
117.766042
 20
278.394583
 30
0.0
 10
117.766042
 20
278.394583
 30
0.0
  0
SPLINE
  5
12e
100
AcDbEntity
  8
0
 62
7
100
AcDbSpline
 70
8
 71
3
 72
8
 73
4
 74
0
 40
0
 40
0
 40
0
 40
0
 40
1
 40
1
 40
1
 40
1
 10
103.690208
 20
290.036250
 30
0.0
 10
103.690208
 20
290.036250
 30
0.0
 10
104.563333
 20
290.406667
 30
0.0
 10
105.092500
 20
291.226875
 30
0.0
  0
SPLINE
  5
12f
100
AcDbEntity
  8
0
 62
7
100
AcDbSpline
 70
8
 71
3
 72
8
 73
4
 74
0
 40
0
 40
0
 40
0
 40
0
 40
1
 40
1
 40
1
 40
1
 10
105.092500
 20
291.226875
 30
0.0
 10
105.621667
 20
292.047083
 30
0.0
 10
104.986667
 20
288.951458
 30
0.0
 10
103.954792
 20
288.925000
 30
0.0
  0
SPLINE
  5
130
100
AcDbEntity
  8
0
 62
7
100
AcDbSpline
 70
8
 71
3
 72
8
 73
4
 74
0
 40
0
 40
0
 40
0
 40
0
 40
1
 40
1
 40
1
 40
1
 10
103.954792
 20
288.925000
 30
0.0
 10
102.949375
 20
288.898542
 30
0.0
 10
102.182083
 20
289.057292
 30
0.0
 10
102.182083
 20
289.057292
 30
0.0
  0
LWPOLYLINE
  5
131
100
AcDbEntity
  8
0
 62
7
100
AcDbPolyline
 90
3
 70
0
 10
107.738333
 20
248.576042
 30
0.0
 10
108.690833
 20
250.110625
 30
0.0
 10
108.690833
 20
250.110625
 30
0.0
  0
SPLINE
  5
132
100
AcDbEntity
  8
0
 62
7
100
AcDbSpline
 70
8
 71
3
 72
8
 73
4
 74
0
 40
0
 40
0
 40
0
 40
0
 40
1
 40
1
 40
1
 40
1
 10
131.683125
 20
227.091875
 30
0.0
 10
131.683125
 20
227.091875
 30
0.0
 10
132.132917
 20
227.912083
 30
0.0
 10
132.027083
 20
228.891042
 30
0.0
  0
SPLINE
  5
133
100
AcDbEntity
  8
0
 62
7
100
AcDbSpline
 70
8
 71
3
 72
8
 73
4
 74
0
 40
0
 40
0
 40
0
 40
0
 40
1
 40
1
 40
1
 40
1
 10
132.027083
 20
228.891042
 30
0.0
 10
131.921250
 20
229.870000
 30
0.0
 10
133.350000
 20
227.038958
 30
0.0
 10
132.582708
 20
226.403958
 30
0.0
  0
SPLINE
  5
134
100
AcDbEntity
  8
0
 62
7
100
AcDbSpline
 70
8
 71
3
 72
8
 73
4
 74
0
 40
0
 40
0
 40
0
 40
0
 40
1
 40
1
 40
1
 40
1
 10
132.582708
 20
226.403958
 30
0.0
 10
131.788958
 20
225.742500
 30
0.0
 10
131.127500
 20
225.398542
 30
0.0
 10
131.127500
 20
225.398542
 30
0.0
  0
LWPOLYLINE
  5
135
100
AcDbEntity
  8
0
 62
7
100
AcDbPolyline
 90
3
 70
0
 10
102.182083
 20
289.057292
 30
0.0
 10
103.690208
 20
290.036250
 30
0.0
 10
103.690208
 20
290.036250
 30
0.0
  0
SPLINE
  5
136
100
AcDbEntity
  8
0
 62
7
100
AcDbSpline
 70
8
 71
3
 72
8
 73
4
 74
0
 40
0
 40
0
 40
0
 40
0
 40
1
 40
1
 40
1
 40
1
 10
154.569583
 20
232.013125
 30
0.0
 10
154.569583
 20
232.013125
 30
0.0
 10
155.416250
 20
232.410000
 30
0.0
 10
155.918958
 20
233.256667
 30
0.0
  0
SPLINE
  5
137
100
AcDbEntity
  8
0
 62
7
100
AcDbSpline
 70
8
 71
3
 72
8
 73
4
 74
0
 40
0
 40
0
 40
0
 40
0
 40
1
 40
1
 40
1
 40
1
 10
155.918958
 20
233.256667
 30
0.0
 10
156.421667
 20
234.103333
 30
0.0
 10
155.892500
 20
230.981250
 30
0.0
 10
154.887083
 20
230.928333
 30
0.0
  0
SPLINE
  5
138
100
AcDbEntity
  8
0
 62
7
100
AcDbSpline
 70
8
 71
3
 72
8
 73
4
 74
0
 40
0
 40
0
 40
0
 40
0
 40
1
 40
1
 40
1
 40
1
 10
154.887083
 20
230.928333
 30
0.0
 10
153.881667
 20
230.875417
 30
0.0
 10
153.114375
 20
230.981250
 30
0.0
 10
153.114375
 20
230.981250
 30
0.0
  0
LWPOLYLINE
  5
139
100
AcDbEntity
  8
0
 62
7
100
AcDbPolyline
 90
3
 70
0
 10
131.127500
 20
225.398542
 30
0.0
 10
131.683125
 20
227.091875
 30
0.0
 10
131.683125
 20
227.091875
 30
0.0
  0
SPLINE
  5
13a
100
AcDbEntity
  8
0
 62
7
100
AcDbSpline
 70
8
 71
3
 72
8
 73
4
 74
0
 40
0
 40
0
 40
0
 40
0
 40
1
 40
1
 40
1
 40
1
 10
143.324792
 20
261.646458
 30
0.0
 10
143.324792
 20
261.646458
 30
0.0
 10
144.118542
 20
262.175625
 30
0.0
 10
144.462500
 20
263.075208
 30
0.0
  0
SPLINE
  5
13b
100
AcDbEntity
  8
0
 62
7
100
AcDbSpline
 70
8
 71
3
 72
8
 73
4
 74
0
 40
0
 40
0
 40
0
 40
0
 40
1
 40
1
 40
1
 40
1
 10
144.462500
 20
263.075208
 30
0.0
 10
144.806458
 20
263.974792
 30
0.0
 10
144.780000
 20
260.826250
 30
0.0
 10
143.774583
 20
260.614583
 30
0.0
  0
SPLINE
  5
13c
100
AcDbEntity
  8
0
 62
7
100
AcDbSpline
 70
8
 71
3
 72
8
 73
4
 74
0
 40
0
 40
0
 40
0
 40
0
 40
1
 40
1
 40
1
 40
1
 10
143.774583
 20
260.614583
 30
0.0
 10
142.769167
 20
260.402917
 30
0.0
 10
142.028333
 20
260.402917
 30
0.0
 10
142.028333
 20
260.402917
 30
0.0
  0
LWPOLYLINE
  5
13d
100
AcDbEntity
  8
0
 62
7
100
AcDbPolyline
 90
3
 70
0
 10
153.114375
 20
230.981250
 30
0.0
 10
154.569583
 20
232.013125
 30
0.0
 10
154.569583
 20
232.013125
 30
0.0
  0
SPLINE
  5
13e
100
AcDbEntity
  8
0
 62
7
100
AcDbSpline
 70
8
 71
3
 72
8
 73
4
 74
0
 40
0
 40
0
 40
0
 40
0
 40
1
 40
1
 40
1
 40
1
 10
119.750417
 20
268.710833
 30
0.0
 10
119.750417
 20
268.710833
 30
0.0
 10
120.385417
 20
269.398750
 30
0.0
 10
120.517708
 20
270.377708
 30
0.0
  0
SPLINE
  5
13f
100
AcDbEntity
  8
0
 62
7
100
AcDbSpline
 70
8
 71
3
 72
8
 73
4
 74
0
 40
0
 40
0
 40
0
 40
0
 40
1
 40
1
 40
1
 40
1
 10
120.517708
 20
270.377708
 30
0.0
 10
120.650000
 20
271.356667
 30
0.0
 10
121.364375
 20
268.261042
 30
0.0
 10
120.464792
 20
267.811250
 30
0.0
  0
SPLINE
  5
140
100
AcDbEntity
  8
0
 62
7
100
AcDbSpline
 70
8
 71
3
 72
8
 73
4
 74
0
 40
0
 40
0
 40
0
 40
0
 40
1
 40
1
 40
1
 40
1
 10
120.464792
 20
267.811250
 30
0.0
 10
119.538750
 20
267.361458
 30
0.0
 10
118.797917
 20
267.176250
 30
0.0
 10
118.797917
 20
267.176250
 30
0.0
  0
LWPOLYLINE
  5
141
100
AcDbEntity
  8
0
 62
7
100
AcDbPolyline
 90
3
 70
0
 10
142.028333
 20
260.402917
 30
0.0
 10
143.324792
 20
261.646458
 30
0.0
 10
143.324792
 20
261.646458
 30
0.0
  0
SPLINE
  5
142
100
AcDbEntity
  8
0
 62
7
100
AcDbSpline
 70
8
 71
3
 72
8
 73
4
 74
0
 40
0
 40
0
 40
0
 40
0
 40
1
 40
1
 40
1
 40
1
 10
196.162083
 20
303.000833
 30
0.0
 10
196.188542
 20
302.524583
 30
0.0
 10
196.294375
 20
302.207083
 30
0.0
 10
196.479583
 20
302.048333
 30
0.0
  0
SPLINE
  5
143
100
AcDbEntity
  8
0
 62
7
100
AcDbSpline
 70
8
 71
3
 72
8
 73
4
 74
0
 40
0
 40
0
 40
0
 40
0
 40
1
 40
1
 40
1
 40
1
 10
196.479583
 20
302.048333
 30
0.0
 10
196.664792
 20
301.863125
 30
0.0
 10
196.929375
 20
301.783750
 30
0.0
 10
197.273333
 20
301.757292
 30
0.0
  0
SPLINE
  5
144
100
AcDbEntity
  8
0
 62
7
100
AcDbSpline
 70
8
 71
3
 72
8
 73
4
 74
0
 40
0
 40
0
 40
0
 40
0
 40
1
 40
1
 40
1
 40
1
 10
197.273333
 20
301.757292
 30
0.0
 10
197.617292
 20
301.730833
 30
0.0
 10
197.987708
 20
301.730833
 30
0.0
 10
198.437500
 20
301.730833
 30
0.0
  0
LWPOLYLINE
  5
145
100
AcDbEntity
  8
0
 62
7
100
AcDbPolyline
 90
3
 70
0
 10
118.797917
 20
267.176250
 30
0.0
 10
119.750417
 20
268.710833
 30
0.0
 10
119.750417
 20
268.710833
 30
0.0
  0
SPLINE
  5
146
100
AcDbEntity
  8
0
 62
7
100
AcDbSpline
 70
8
 71
3
 72
8
 73
4
 74
0
 40
0
 40
0
 40
0
 40
0
 40
1
 40
1
 40
1
 40
1
 10
206.427917
 20
301.730833
 30
0.0
 10
206.666042
 20
301.730833
 30
0.0
 10
206.904167
 20
301.730833
 30
0.0
 10
207.142292
 20
301.704375
 30
0.0
  0
SPLINE
  5
147
100
AcDbEntity
  8
0
 62
7
100
AcDbSpline
 70
8
 71
3
 72
8
 73
4
 74
0
 40
0
 40
0
 40
0
 40
0
 40
1
 40
1
 40
1
 40
1
 10
207.142292
 20
301.704375
 30
0.0
 10
207.380417
 20
301.704375
 30
0.0
 10
207.565625
 20
301.677917
 30
0.0
 10
207.750833
 20
301.677917
 30
0.0
  0
SPLINE
  5
148
100
AcDbEntity
  8
0
 62
7
100
AcDbSpline
 70
8
 71
3
 72
8
 73
4
 74
0
 40
0
 40
0
 40
0
 40
0
 40
1
 40
1
 40
1
 40
1
 10
207.750833
 20
301.677917
 30
0.0
 10
207.750833
 20
301.889583
 30
0.0
 10
207.724375
 20
302.127708
 30
0.0
 10
207.724375
 20
302.339375
 30
0.0
  0
SPLINE
  5
149
100
AcDbEntity
  8
0
 62
7
100
AcDbSpline
 70
8
 71
3
 72
8
 73
4
 74
0
 40
0
 40
0
 40
0
 40
0
 40
1
 40
1
 40
1
 40
1
 10
207.724375
 20
302.339375
 30
0.0
 10
207.724375
 20
302.551042
 30
0.0
 10
207.697917
 20
302.789167
 30
0.0
 10
207.697917
 20
303.000833
 30
0.0
  0
LWPOLYLINE
  5
14a
100
AcDbEntity
  8
0
 62
7
100
AcDbPolyline
 90
2
 70
0
 10
198.437500
 20
301.730833
 30
0.0
 10
206.427917
 20
301.730833
 30
0.0
  0
SPLINE
  5
14b
100
AcDbEntity
  8
0
 62
7
100
AcDbSpline
 70
8
 71
3
 72
8
 73
4
 74
0
 40
0
 40
0
 40
0
 40
0
 40
1
 40
1
 40
1
 40
1
 10
208.544583
 20
298.635208
 30
0.0
 10
208.544583
 20
297.523958
 30
0.0
 10
208.412292
 20
296.518542
 30
0.0
 10
208.147708
 20
295.592500
 30
0.0
  0
SPLINE
  5
14c
100
AcDbEntity
  8
0
 62
7
100
AcDbSpline
 70
8
 71
3
 72
8
 73
4
 74
0
 40
0
 40
0
 40
0
 40
0
 40
1
 40
1
 40
1
 40
1
 10
208.147708
 20
295.592500
 30
0.0
 10
207.883125
 20
294.666458
 30
0.0
 10
207.486250
 20
293.872708
 30
0.0
 10
206.957083
 20
293.184792
 30
0.0
  0
SPLINE
  5
14d
100
AcDbEntity
  8
0
 62
7
100
AcDbSpline
 70
8
 71
3
 72
8
 73
4
 74
0
 40
0
 40
0
 40
0
 40
0
 40
1
 40
1
 40
1
 40
1
 10
206.957083
 20
293.184792
 30
0.0
 10
206.427917
 20
292.523333
 30
0.0
 10
205.740000
 20
291.994167
 30
0.0
 10
204.919792
 20
291.623750
 30
0.0
  0
SPLINE
  5
14e
100
AcDbEntity
  8
0
 62
7
100
AcDbSpline
 70
8
 71
3
 72
8
 73
4
 74
0
 40
0
 40
0
 40
0
 40
0
 40
1
 40
1
 40
1
 40
1
 10
204.919792
 20
291.623750
 30
0.0
 10
204.099583
 20
291.253333
 30
0.0
 10
203.120625
 20
291.068125
 30
0.0
 10
202.009375
 20
291.068125
 30
0.0
  0
SPLINE
  5
14f
100
AcDbEntity
  8
0
 62
7
100
AcDbSpline
 70
8
 71
3
 72
8
 73
4
 74
0
 40
0
 40
0
 40
0
 40
0
 40
1
 40
1
 40
1
 40
1
 10
202.009375
 20
291.068125
 30
0.0
 10
201.162708
 20
291.068125
 30
0.0
 10
200.342500
 20
291.226875
 30
0.0
 10
199.575208
 20
291.517917
 30
0.0
  0
SPLINE
  5
150
100
AcDbEntity
  8
0
 62
7
100
AcDbSpline
 70
8
 71
3
 72
8
 73
4
 74
0
 40
0
 40
0
 40
0
 40
0
 40
1
 40
1
 40
1
 40
1
 10
199.575208
 20
291.517917
 30
0.0
 10
198.807917
 20
291.808958
 30
0.0
 10
198.120000
 20
292.258750
 30
0.0
 10
197.511458
 20
292.840833
 30
0.0
  0
SPLINE
  5
151
100
AcDbEntity
  8
0
 62
7
100
AcDbSpline
 70
8
 71
3
 72
8
 73
4
 74
0
 40
0
 40
0
 40
0
 40
0
 40
1
 40
1
 40
1
 40
1
 10
197.511458
 20
292.840833
 30
0.0
 10
196.902917
 20
293.422917
 30
0.0
 10
196.426667
 20
294.163750
 30
0.0
 10
196.082708
 20
295.063333
 30
0.0
  0
SPLINE
  5
152
100
AcDbEntity
  8
0
 62
7
100
AcDbSpline
 70
8
 71
3
 72
8
 73
4
 74
0
 40
0
 40
0
 40
0
 40
0
 40
1
 40
1
 40
1
 40
1
 10
196.082708
 20
295.063333
 30
0.0
 10
195.738750
 20
295.936458
 30
0.0
 10
195.553542
 20
296.968333
 30
0.0
 10
195.553542
 20
298.132500
 30
0.0
  0
LWPOLYLINE
  5
153
100
AcDbEntity
  8
0
 62
7
100
AcDbPolyline
 90
3
 70
0
 10
207.697917
 20
303.000833
 30
0.0
 10
208.518125
 20
303.000833
 30
0.0
 10
208.544583
 20
298.635208
 30
0.0
  0
SPLINE
  5
154
100
AcDbEntity
  8
0
 62
7
100
AcDbSpline
 70
8
 71
3
 72
8
 73
4
 74
0
 40
0
 40
0
 40
0
 40
0
 40
1
 40
1
 40
1
 40
1
 10
197.749583
 20
300.116875
 30
0.0
 10
197.405625
 20
300.116875
 30
0.0
 10
197.141042
 20
300.116875
 30
0.0
 10
196.902917
 20
300.116875
 30
0.0
  0
SPLINE
  5
155
100
AcDbEntity
  8
0
 62
7
100
AcDbSpline
 70
8
 71
3
 72
8
 73
4
 74
0
 40
0
 40
0
 40
0
 40
0
 40
1
 40
1
 40
1
 40
1
 10
196.902917
 20
300.116875
 30
0.0
 10
196.664792
 20
300.116875
 30
0.0
 10
196.479583
 20
300.143333
 30
0.0
 10
196.320833
 20
300.169792
 30
0.0
  0
SPLINE
  5
156
100
AcDbEntity
  8
0
 62
7
100
AcDbSpline
 70
8
 71
3
 72
8
 73
4
 74
0
 40
0
 40
0
 40
0
 40
0
 40
1
 40
1
 40
1
 40
1
 10
196.320833
 20
300.169792
 30
0.0
 10
196.320833
 20
299.825833
 30
0.0
 10
196.294375
 20
299.534792
 30
0.0
 10
196.294375
 20
299.243750
 30
0.0
  0
SPLINE
  5
157
100
AcDbEntity
  8
0
 62
7
100
AcDbSpline
 70
8
 71
3
 72
8
 73
4
 74
0
 40
0
 40
0
 40
0
 40
0
 40
1
 40
1
 40
1
 40
1
 10
196.294375
 20
299.243750
 30
0.0
 10
196.294375
 20
298.952708
 30
0.0
 10
196.294375
 20
298.741042
 30
0.0
 10
196.294375
 20
298.529375
 30
0.0
  0
SPLINE
  5
158
100
AcDbEntity
  8
0
 62
7
100
AcDbSpline
 70
8
 71
3
 72
8
 73
4
 74
0
 40
0
 40
0
 40
0
 40
0
 40
1
 40
1
 40
1
 40
1
 10
196.294375
 20
298.529375
 30
0.0
 10
196.294375
 20
298.317708
 30
0.0
 10
196.294375
 20
298.211875
 30
0.0
 10
196.294375
 20
298.158958
 30
0.0
  0
SPLINE
  5
159
100
AcDbEntity
  8
0
 62
7
100
AcDbSpline
 70
8
 71
3
 72
8
 73
4
 74
0
 40
0
 40
0
 40
0
 40
0
 40
1
 40
1
 40
1
 40
1
 10
196.294375
 20
298.158958
 30
0.0
 10
196.294375
 20
297.365208
 30
0.0
 10
196.453125
 20
296.624375
 30
0.0
 10
196.744167
 20
295.989375
 30
0.0
  0
SPLINE
  5
15a
100
AcDbEntity
  8
0
 62
7
100
AcDbSpline
 70
8
 71
3
 72
8
 73
4
 74
0
 40
0
 40
0
 40
0
 40
0
 40
1
 40
1
 40
1
 40
1
 10
196.744167
 20
295.989375
 30
0.0
 10
197.035208
 20
295.327917
 30
0.0
 10
197.458542
 20
294.772292
 30
0.0
 10
197.987708
 20
294.322500
 30
0.0
  0
SPLINE
  5
15b
100
AcDbEntity
  8
0
 62
7
100
AcDbSpline
 70
8
 71
3
 72
8
 73
4
 74
0
 40
0
 40
0
 40
0
 40
0
 40
1
 40
1
 40
1
 40
1
 10
197.987708
 20
294.322500
 30
0.0
 10
198.516875
 20
293.846250
 30
0.0
 10
199.125417
 20
293.502292
 30
0.0
 10
199.839792
 20
293.237708
 30
0.0
  0
SPLINE
  5
15c
100
AcDbEntity
  8
0
 62
7
100
AcDbSpline
 70
8
 71
3
 72
8
 73
4
 74
0
 40
0
 40
0
 40
0
 40
0
 40
1
 40
1
 40
1
 40
1
 10
199.839792
 20
293.237708
 30
0.0
 10
200.554167
 20
292.973125
 30
0.0
 10
201.321458
 20
292.867292
 30
0.0
 10
202.141667
 20
292.867292
 30
0.0
  0
SPLINE
  5
15d
100
AcDbEntity
  8
0
 62
7
100
AcDbSpline
 70
8
 71
3
 72
8
 73
4
 74
0
 40
0
 40
0
 40
0
 40
0
 40
1
 40
1
 40
1
 40
1
 10
202.141667
 20
292.867292
 30
0.0
 10
203.305833
 20
292.867292
 30
0.0
 10
204.337708
 20
293.078958
 30
0.0
 10
205.184375
 20
293.502292
 30
0.0
  0
SPLINE
  5
15e
100
AcDbEntity
  8
0
 62
7
100
AcDbSpline
 70
8
 71
3
 72
8
 73
4
 74
0
 40
0
 40
0
 40
0
 40
0
 40
1
 40
1
 40
1
 40
1
 10
205.184375
 20
293.502292
 30
0.0
 10
206.031042
 20
293.925625
 30
0.0
 10
206.718958
 20
294.587083
 30
0.0
 10
207.195208
 20
295.460208
 30
0.0
  0
SPLINE
  5
15f
100
AcDbEntity
  8
0
 62
7
100
AcDbSpline
 70
8
 71
3
 72
8
 73
4
 74
0
 40
0
 40
0
 40
0
 40
0
 40
1
 40
1
 40
1
 40
1
 10
207.195208
 20
295.460208
 30
0.0
 10
207.671458
 20
296.333333
 30
0.0
 10
207.909583
 20
297.444583
 30
0.0
 10
207.909583
 20
298.820417
 30
0.0
  0
SPLINE
  5
160
100
AcDbEntity
  8
0
 62
7
100
AcDbSpline
 70
8
 71
3
 72
8
 73
4
 74
0
 40
0
 40
0
 40
0
 40
0
 40
1
 40
1
 40
1
 40
1
 10
207.909583
 20
298.820417
 30
0.0
 10
207.909583
 20
299.270208
 30
0.0
 10
207.803750
 20
299.587708
 30
0.0
 10
207.618542
 20
299.772917
 30
0.0
  0
SPLINE
  5
161
100
AcDbEntity
  8
0
 62
7
100
AcDbSpline
 70
8
 71
3
 72
8
 73
4
 74
0
 40
0
 40
0
 40
0
 40
0
 40
1
 40
1
 40
1
 40
1
 10
207.618542
 20
299.772917
 30
0.0
 10
207.433333
 20
299.958125
 30
0.0
 10
207.168750
 20
300.063958
 30
0.0
 10
206.851250
 20
300.063958
 30
0.0
  0
SPLINE
  5
162
100
AcDbEntity
  8
0
 62
7
100
AcDbSpline
 70
8
 71
3
 72
8
 73
4
 74
0
 40
0
 40
0
 40
0
 40
0
 40
1
 40
1
 40
1
 40
1
 10
206.851250
 20
300.063958
 30
0.0
 10
206.507292
 20
300.090417
 30
0.0
 10
206.136875
 20
300.090417
 30
0.0
 10
205.687083
 20
300.090417
 30
0.0
  0
LWPOLYLINE
  5
163
100
AcDbEntity
  8
0
 62
7
100
AcDbPolyline
 90
4
 70
0
 10
195.553542
 20
298.132500
 30
0.0
 10
195.553542
 20
303.000833
 30
0.0
 10
196.162083
 20
303.000833
 30
0.0
 10
196.162083
 20
303.000833
 30
0.0
  0
SPLINE
  5
164
100
AcDbEntity
  8
0
 62
7
100
AcDbSpline
 70
8
 71
3
 72
8
 73
4
 74
0
 40
0
 40
0
 40
0
 40
0
 40
1
 40
1
 40
1
 40
1
 10
200.368958
 20
282.945417
 30
0.0
 10
200.924583
 20
282.945417
 30
0.0
 10
201.295000
 20
283.024792
 30
0.0
 10
201.533125
 20
283.157083
 30
0.0
  0
SPLINE
  5
165
100
AcDbEntity
  8
0
 62
7
100
AcDbSpline
 70
8
 71
3
 72
8
 73
4
 74
0
 40
0
 40
0
 40
0
 40
0
 40
1
 40
1
 40
1
 40
1
 10
201.533125
 20
283.157083
 30
0.0
 10
201.771250
 20
283.315833
 30
0.0
 10
201.903542
 20
283.527500
 30
0.0
 10
201.956458
 20
283.871458
 30
0.0
  0
SPLINE
  5
166
100
AcDbEntity
  8
0
 62
7
100
AcDbSpline
 70
8
 71
3
 72
8
 73
4
 74
0
 40
0
 40
0
 40
0
 40
0
 40
1
 40
1
 40
1
 40
1
 10
201.956458
 20
283.871458
 30
0.0
 10
202.009375
 20
284.188958
 30
0.0
 10
202.009375
 20
284.612292
 30
0.0
 10
201.982917
 20
285.141458
 30
0.0
  0
LWPOLYLINE
  5
167
100
AcDbEntity
  8
0
 62
7
100
AcDbPolyline
 90
3
 70
0
 10
205.687083
 20
300.090417
 30
0.0
 10
197.749583
 20
300.090417
 30
0.0
 10
197.749583
 20
300.116875
 30
0.0
  0
SPLINE
  5
168
100
AcDbEntity
  8
0
 62
7
100
AcDbSpline
 70
8
 71
3
 72
8
 73
4
 74
0
 40
0
 40
0
 40
0
 40
0
 40
1
 40
1
 40
1
 40
1
 10
197.696667
 20
286.490833
 30
0.0
 10
197.352708
 20
286.490833
 30
0.0
 10
197.088125
 20
286.490833
 30
0.0
 10
196.850000
 20
286.490833
 30
0.0
  0
SPLINE
  5
169
100
AcDbEntity
  8
0
 62
7
100
AcDbSpline
 70
8
 71
3
 72
8
 73
4
 74
0
 40
0
 40
0
 40
0
 40
0
 40
1
 40
1
 40
1
 40
1
 10
196.850000
 20
286.490833
 30
0.0
 10
196.611875
 20
286.490833
 30
0.0
 10
196.426667
 20
286.517292
 30
0.0
 10
196.267917
 20
286.543750
 30
0.0
  0
LWPOLYLINE
  5
16a
100
AcDbEntity
  8
0
 62
7
100
AcDbPolyline
 90
3
 70
0
 10
201.982917
 20
285.141458
 30
0.0
 10
201.930000
 20
286.490833
 30
0.0
 10
197.696667
 20
286.490833
 30
0.0
  0
SPLINE
  5
16b
100
AcDbEntity
  8
0
 62
7
100
AcDbSpline
 70
8
 71
3
 72
8
 73
4
 74
0
 40
0
 40
0
 40
0
 40
0
 40
1
 40
1
 40
1
 40
1
 10
196.320833
 20
282.998333
 30
0.0
 10
196.320833
 20
282.442708
 30
0.0
 10
196.426667
 20
281.992917
 30
0.0
 10
196.585417
 20
281.596042
 30
0.0
  0
SPLINE
  5
16c
100
AcDbEntity
  8
0
 62
7
100
AcDbSpline
 70
8
 71
3
 72
8
 73
4
 74
0
 40
0
 40
0
 40
0
 40
0
 40
1
 40
1
 40
1
 40
1
 10
196.585417
 20
281.596042
 30
0.0
 10
196.744167
 20
281.199167
 30
0.0
 10
197.035208
 20
280.881667
 30
0.0
 10
197.458542
 20
280.670000
 30
0.0
  0
SPLINE
  5
16d
100
AcDbEntity
  8
0
 62
7
100
AcDbSpline
 70
8
 71
3
 72
8
 73
4
 74
0
 40
0
 40
0
 40
0
 40
0
 40
1
 40
1
 40
1
 40
1
 10
197.458542
 20
280.670000
 30
0.0
 10
197.881875
 20
280.458333
 30
0.0
 10
198.463958
 20
280.326042
 30
0.0
 10
199.178333
 20
280.326042
 30
0.0
  0
LWPOLYLINE
  5
16e
100
AcDbEntity
  8
0
 62
7
100
AcDbPolyline
 90
2
 70
0
 10
196.267917
 20
286.543750
 30
0.0
 10
196.320833
 20
282.998333
 30
0.0
  0
SPLINE
  5
16f
100
AcDbEntity
  8
0
 62
7
100
AcDbSpline
 70
8
 71
3
 72
8
 73
4
 74
0
 40
0
 40
0
 40
0
 40
0
 40
1
 40
1
 40
1
 40
1
 10
196.162083
 20
289.348333
 30
0.0
 10
196.188542
 20
288.872083
 30
0.0
 10
196.294375
 20
288.554583
 30
0.0
 10
196.479583
 20
288.395833
 30
0.0
  0
SPLINE
  5
170
100
AcDbEntity
  8
0
 62
7
100
AcDbSpline
 70
8
 71
3
 72
8
 73
4
 74
0
 40
0
 40
0
 40
0
 40
0
 40
1
 40
1
 40
1
 40
1
 10
196.479583
 20
288.395833
 30
0.0
 10
196.664792
 20
288.210625
 30
0.0
 10
196.929375
 20
288.131250
 30
0.0
 10
197.273333
 20
288.104792
 30
0.0
  0
SPLINE
  5
171
100
AcDbEntity
  8
0
 62
7
100
AcDbSpline
 70
8
 71
3
 72
8
 73
4
 74
0
 40
0
 40
0
 40
0
 40
0
 40
1
 40
1
 40
1
 40
1
 10
197.273333
 20
288.104792
 30
0.0
 10
197.617292
 20
288.078333
 30
0.0
 10
197.987708
 20
288.078333
 30
0.0
 10
198.437500
 20
288.078333
 30
0.0
  0
LWPOLYLINE
  5
172
100
AcDbEntity
  8
0
 62
7
100
AcDbPolyline
 90
5
 70
0
 10
199.178333
 20
280.326042
 30
0.0
 10
199.178333
 20
279.691042
 30
0.0
 10
195.553542
 20
279.796875
 30
0.0
 10
195.553542
 20
289.348333
 30
0.0
 10
196.162083
 20
289.348333
 30
0.0
  0
SPLINE
  5
173
100
AcDbEntity
  8
0
 62
7
100
AcDbSpline
 70
8
 71
3
 72
8
 73
4
 74
0
 40
0
 40
0
 40
0
 40
0
 40
1
 40
1
 40
1
 40
1
 10
206.427917
 20
288.078333
 30
0.0
 10
206.666042
 20
288.078333
 30
0.0
 10
206.904167
 20
288.078333
 30
0.0
 10
207.142292
 20
288.051875
 30
0.0
  0
SPLINE
  5
174
100
AcDbEntity
  8
0
 62
7
100
AcDbSpline
 70
8
 71
3
 72
8
 73
4
 74
0
 40
0
 40
0
 40
0
 40
0
 40
1
 40
1
 40
1
 40
1
 10
207.142292
 20
288.051875
 30
0.0
 10
207.380417
 20
288.051875
 30
0.0
 10
207.565625
 20
288.025417
 30
0.0
 10
207.750833
 20
288.025417
 30
0.0
  0
SPLINE
  5
175
100
AcDbEntity
  8
0
 62
7
100
AcDbSpline
 70
8
 71
3
 72
8
 73
4
 74
0
 40
0
 40
0
 40
0
 40
0
 40
1
 40
1
 40
1
 40
1
 10
207.750833
 20
288.025417
 30
0.0
 10
207.750833
 20
288.237083
 30
0.0
 10
207.724375
 20
288.475208
 30
0.0
 10
207.724375
 20
288.686875
 30
0.0
  0
SPLINE
  5
176
100
AcDbEntity
  8
0
 62
7
100
AcDbSpline
 70
8
 71
3
 72
8
 73
4
 74
0
 40
0
 40
0
 40
0
 40
0
 40
1
 40
1
 40
1
 40
1
 10
207.724375
 20
288.686875
 30
0.0
 10
207.724375
 20
288.898542
 30
0.0
 10
207.697917
 20
289.136667
 30
0.0
 10
207.697917
 20
289.348333
 30
0.0
  0
LWPOLYLINE
  5
177
100
AcDbEntity
  8
0
 62
7
100
AcDbPolyline
 90
2
 70
0
 10
198.437500
 20
288.078333
 30
0.0
 10
206.427917
 20
288.078333
 30
0.0
  0
SPLINE
  5
178
100
AcDbEntity
  8
0
 62
7
100
AcDbSpline
 70
8
 71
3
 72
8
 73
4
 74
0
 40
0
 40
0
 40
0
 40
0
 40
1
 40
1
 40
1
 40
1
 10
205.290208
 20
280.987500
 30
0.0
 10
206.031042
 20
280.987500
 30
0.0
 10
206.560208
 20
281.093333
 30
0.0
 10
206.957083
 20
281.331458
 30
0.0
  0
SPLINE
  5
179
100
AcDbEntity
  8
0
 62
7
100
AcDbSpline
 70
8
 71
3
 72
8
 73
4
 74
0
 40
0
 40
0
 40
0
 40
0
 40
1
 40
1
 40
1
 40
1
 10
206.957083
 20
281.331458
 30
0.0
 10
207.327500
 20
281.543125
 30
0.0
 10
207.592083
 20
281.860625
 30
0.0
 10
207.724375
 20
282.231042
 30
0.0
  0
SPLINE
  5
17a
100
AcDbEntity
  8
0
 62
7
100
AcDbSpline
 70
8
 71
3
 72
8
 73
4
 74
0
 40
0
 40
0
 40
0
 40
0
 40
1
 40
1
 40
1
 40
1
 10
207.724375
 20
282.231042
 30
0.0
 10
207.856667
 20
282.601458
 30
0.0
 10
207.909583
 20
283.024792
 30
0.0
 10
207.909583
 20
283.501042
 30
0.0
  0
LWPOLYLINE
  5
17b
100
AcDbEntity
  8
0
 62
7
100
AcDbPolyline
 90
5
 70
0
 10
207.697917
 20
289.348333
 30
0.0
 10
208.518125
 20
289.348333
 30
0.0
 10
208.518125
 20
280.431875
 30
0.0
 10
205.290208
 20
280.326042
 30
0.0
 10
205.290208
 20
280.987500
 30
0.0
  0
SPLINE
  5
17c
100
AcDbEntity
  8
0
 62
7
100
AcDbSpline
 70
8
 71
3
 72
8
 73
4
 74
0
 40
0
 40
0
 40
0
 40
0
 40
1
 40
1
 40
1
 40
1
 10
207.883125
 20
285.088542
 30
0.0
 10
207.883125
 20
285.538333
 30
0.0
 10
207.777292
 20
285.882292
 30
0.0
 10
207.618542
 20
286.067500
 30
0.0
  0
SPLINE
  5
17d
100
AcDbEntity
  8
0
 62
7
100
AcDbSpline
 70
8
 71
3
 72
8
 73
4
 74
0
 40
0
 40
0
 40
0
 40
0
 40
1
 40
1
 40
1
 40
1
 10
207.618542
 20
286.067500
 30
0.0
 10
207.459792
 20
286.252708
 30
0.0
 10
207.221667
 20
286.385000
 30
0.0
 10
206.904167
 20
286.437917
 30
0.0
  0
SPLINE
  5
17e
100
AcDbEntity
  8
0
 62
7
100
AcDbSpline
 70
8
 71
3
 72
8
 73
4
 74
0
 40
0
 40
0
 40
0
 40
0
 40
1
 40
1
 40
1
 40
1
 10
206.904167
 20
286.437917
 30
0.0
 10
206.586667
 20
286.490833
 30
0.0
 10
206.189792
 20
286.490833
 30
0.0
 10
205.660625
 20
286.490833
 30
0.0
  0
LWPOLYLINE
  5
17f
100
AcDbEntity
  8
0
 62
7
100
AcDbPolyline
 90
2
 70
0
 10
207.909583
 20
283.501042
 30
0.0
 10
207.883125
 20
285.088542
 30
0.0
  0
LWPOLYLINE
  5
180
100
AcDbEntity
  8
0
 62
7
100
AcDbPolyline
 90
8
 70
0
 10
205.660625
 20
286.490833
 30
0.0
 10
202.670833
 20
286.490833
 30
0.0
 10
202.644375
 20
282.998333
 30
0.0
 10
204.231875
 20
283.130625
 30
0.0
 10
204.231875
 20
282.310417
 30
0.0
 10
200.342500
 20
282.310417
 30
0.0
 10
200.342500
 20
282.945417
 30
0.0
 10
200.368958
 20
282.945417
 30
0.0
  0
SPLINE
  5
181
100
AcDbEntity
  8
0
 62
7
100
AcDbSpline
 70
8
 71
3
 72
8
 73
4
 74
0
 40
0
 40
0
 40
0
 40
0
 40
1
 40
1
 40
1
 40
1
 10
212.381042
 20
283.051250
 30
0.0
 10
212.592708
 20
282.813125
 30
0.0
 10
212.698542
 20
282.601458
 30
0.0
 10
212.725000
 20
282.416250
 30
0.0
  0
SPLINE
  5
182
100
AcDbEntity
  8
0
 62
7
100
AcDbSpline
 70
8
 71
3
 72
8
 73
4
 74
0
 40
0
 40
0
 40
0
 40
0
 40
1
 40
1
 40
1
 40
1
 10
212.725000
 20
282.416250
 30
0.0
 10
212.725000
 20
282.231042
 30
0.0
 10
212.698542
 20
282.098750
 30
0.0
 10
212.645625
 20
281.992917
 30
0.0
  0
SPLINE
  5
183
100
AcDbEntity
  8
0
 62
7
100
AcDbSpline
 70
8
 71
3
 72
8
 73
4
 74
0
 40
0
 40
0
 40
0
 40
0
 40
1
 40
1
 40
1
 40
1
 10
212.645625
 20
281.992917
 30
0.0
 10
212.566250
 20
281.887083
 30
0.0
 10
212.513333
 20
281.834167
 30
0.0
 10
212.486875
 20
281.807708
 30
0.0
  0
SPLINE
  5
184
100
AcDbEntity
  8
0
 62
7
100
AcDbSpline
 70
8
 71
3
 72
8
 73
4
 74
0
 40
0
 40
0
 40
0
 40
0
 40
1
 40
1
 40
1
 40
1
 10
212.486875
 20
281.807708
 30
0.0
 10
212.433958
 20
281.781250
 30
0.0
 10
212.354583
 20
281.728333
 30
0.0
 10
212.222292
 20
281.701875
 30
0.0
  0
SPLINE
  5
185
100
AcDbEntity
  8
0
 62
7
100
AcDbSpline
 70
8
 71
3
 72
8
 73
4
 74
0
 40
0
 40
0
 40
0
 40
0
 40
1
 40
1
 40
1
 40
1
 10
212.222292
 20
281.701875
 30
0.0
 10
212.090000
 20
281.675417
 30
0.0
 10
211.957708
 20
281.701875
 30
0.0
 10
211.798958
 20
281.754792
 30
0.0
  0
SPLINE
  5
186
100
AcDbEntity
  8
0
 62
7
100
AcDbSpline
 70
8
 71
3
 72
8
 73
4
 74
0
 40
0
 40
0
 40
0
 40
0
 40
1
 40
1
 40
1
 40
1
 10
211.798958
 20
281.754792
 30
0.0
 10
211.640208
 20
281.834167
 30
0.0
 10
211.481458
 20
281.992917
 30
0.0
 10
211.296250
 20
282.283958
 30
0.0
  0
LWPOLYLINE
  5
187
100
AcDbEntity
  8
0
 62
7
100
AcDbPolyline
 90
3
 70
0
 10
209.629375
 20
284.982708
 30
0.0
 10
210.158542
 20
285.379583
 30
0.0
 10
212.381042
 20
283.051250
 30
0.0
  0
SPLINE
  5
188
100
AcDbEntity
  8
0
 62
7
100
AcDbSpline
 70
8
 71
3
 72
8
 73
4
 74
0
 40
0
 40
0
 40
0
 40
0
 40
1
 40
1
 40
1
 40
1
 10
195.368333
 20
270.880417
 30
0.0
 10
196.611875
 20
271.436042
 30
0.0
 10
197.828958
 20
271.965208
 30
0.0
 10
199.072500
 20
272.520833
 30
0.0
  0
SPLINE
  5
189
100
AcDbEntity
  8
0
 62
7
100
AcDbSpline
 70
8
 71
3
 72
8
 73
4
 74
0
 40
0
 40
0
 40
0
 40
0
 40
1
 40
1
 40
1
 40
1
 10
199.072500
 20
272.520833
 30
0.0
 10
200.289583
 20
273.076458
 30
0.0
 10
201.533125
 20
273.632083
 30
0.0
 10
202.803125
 20
274.161250
 30
0.0
  0
SPLINE
  5
18a
100
AcDbEntity
  8
0
 62
7
100
AcDbSpline
 70
8
 71
3
 72
8
 73
4
 74
0
 40
0
 40
0
 40
0
 40
0
 40
1
 40
1
 40
1
 40
1
 10
202.803125
 20
274.161250
 30
0.0
 10
203.200000
 20
274.346458
 30
0.0
 10
203.596875
 20
274.505208
 30
0.0
 10
203.993750
 20
274.663958
 30
0.0
  0
SPLINE
  5
18b
100
AcDbEntity
  8
0
 62
7
100
AcDbSpline
 70
8
 71
3
 72
8
 73
4
 74
0
 40
0
 40
0
 40
0
 40
0
 40
1
 40
1
 40
1
 40
1
 10
203.993750
 20
274.663958
 30
0.0
 10
204.390625
 20
274.822708
 30
0.0
 10
204.787500
 20
274.981458
 30
0.0
 10
205.210833
 20
275.140208
 30
0.0
  0
SPLINE
  5
18c
100
AcDbEntity
  8
0
 62
7
100
AcDbSpline
 70
8
 71
3
 72
8
 73
4
 74
0
 40
0
 40
0
 40
0
 40
0
 40
1
 40
1
 40
1
 40
1
 10
205.210833
 20
275.140208
 30
0.0
 10
205.607708
 20
275.298958
 30
0.0
 10
206.031042
 20
275.457708
 30
0.0
 10
206.427917
 20
275.616458
 30
0.0
  0
SPLINE
  5
18d
100
AcDbEntity
  8
0
 62
7
100
AcDbSpline
 70
8
 71
3
 72
8
 73
4
 74
0
 40
0
 40
0
 40
0
 40
0
 40
1
 40
1
 40
1
 40
1
 10
206.427917
 20
275.616458
 30
0.0
 10
206.295625
 20
275.616458
 30
0.0
 10
206.163333
 20
275.616458
 30
0.0
 10
206.031042
 20
275.616458
 30
0.0
  0
SPLINE
  5
18e
100
AcDbEntity
  8
0
 62
7
100
AcDbSpline
 70
8
 71
3
 72
8
 73
4
 74
0
 40
0
 40
0
 40
0
 40
0
 40
1
 40
1
 40
1
 40
1
 10
206.031042
 20
275.616458
 30
0.0
 10
205.898750
 20
275.616458
 30
0.0
 10
205.766458
 20
275.616458
 30
0.0
 10
205.634167
 20
275.616458
 30
0.0
  0
SPLINE
  5
18f
100
AcDbEntity
  8
0
 62
7
100
AcDbSpline
 70
8
 71
3
 72
8
 73
4
 74
0
 40
0
 40
0
 40
0
 40
0
 40
1
 40
1
 40
1
 40
1
 10
205.634167
 20
275.616458
 30
0.0
 10
205.184375
 20
275.616458
 30
0.0
 10
204.655208
 20
275.642917
 30
0.0
 10
204.020208
 20
275.669375
 30
0.0
  0
SPLINE
  5
190
100
AcDbEntity
  8
0
 62
7
100
AcDbSpline
 70
8
 71
3
 72
8
 73
4
 74
0
 40
0
 40
0
 40
0
 40
0
 40
1
 40
1
 40
1
 40
1
 10
204.020208
 20
275.669375
 30
0.0
 10
203.385208
 20
275.695833
 30
0.0
 10
202.723750
 20
275.722292
 30
0.0
 10
202.009375
 20
275.722292
 30
0.0
  0
SPLINE
  5
191
100
AcDbEntity
  8
0
 62
7
100
AcDbSpline
 70
8
 71
3
 72
8
 73
4
 74
0
 40
0
 40
0
 40
0
 40
0
 40
1
 40
1
 40
1
 40
1
 10
202.009375
 20
275.722292
 30
0.0
 10
201.295000
 20
275.748750
 30
0.0
 10
200.580625
 20
275.775208
 30
0.0
 10
199.892708
 20
275.775208
 30
0.0
  0
SPLINE
  5
192
100
AcDbEntity
  8
0
 62
7
100
AcDbSpline
 70
8
 71
3
 72
8
 73
4
 74
0
 40
0
 40
0
 40
0
 40
0
 40
1
 40
1
 40
1
 40
1
 10
199.892708
 20
275.775208
 30
0.0
 10
199.178333
 20
275.775208
 30
0.0
 10
198.516875
 20
275.801667
 30
0.0
 10
197.881875
 20
275.801667
 30
0.0
  0
SPLINE
  5
193
100
AcDbEntity
  8
0
 62
7
100
AcDbSpline
 70
8
 71
3
 72
8
 73
4
 74
0
 40
0
 40
0
 40
0
 40
0
 40
1
 40
1
 40
1
 40
1
 10
197.881875
 20
275.801667
 30
0.0
 10
197.617292
 20
275.801667
 30
0.0
 10
197.326250
 20
275.828125
 30
0.0
 10
197.061667
 20
275.828125
 30
0.0
  0
SPLINE
  5
194
100
AcDbEntity
  8
0
 62
7
100
AcDbSpline
 70
8
 71
3
 72
8
 73
4
 74
0
 40
0
 40
0
 40
0
 40
0
 40
1
 40
1
 40
1
 40
1
 10
197.061667
 20
275.828125
 30
0.0
 10
196.797083
 20
275.828125
 30
0.0
 10
196.532500
 20
275.854583
 30
0.0
 10
196.294375
 20
275.881042
 30
0.0
  0
SPLINE
  5
195
100
AcDbEntity
  8
0
 62
7
100
AcDbSpline
 70
8
 71
3
 72
8
 73
4
 74
0
 40
0
 40
0
 40
0
 40
0
 40
1
 40
1
 40
1
 40
1
 10
196.294375
 20
275.881042
 30
0.0
 10
196.294375
 20
275.642917
 30
0.0
 10
196.320833
 20
275.404792
 30
0.0
 10
196.320833
 20
275.193125
 30
0.0
  0
SPLINE
  5
196
100
AcDbEntity
  8
0
 62
7
100
AcDbSpline
 70
8
 71
3
 72
8
 73
4
 74
0
 40
0
 40
0
 40
0
 40
0
 40
1
 40
1
 40
1
 40
1
 10
196.320833
 20
275.193125
 30
0.0
 10
196.320833
 20
274.955000
 30
0.0
 10
196.347292
 20
274.743333
 30
0.0
 10
196.347292
 20
274.505208
 30
0.0
  0
LWPOLYLINE
  5
197
100
AcDbEntity
  8
0
 62
7
100
AcDbPolyline
 90
3
 70
0
 10
211.296250
 20
282.283958
 30
0.0
 10
209.629375
 20
284.982708
 30
0.0
 10
209.629375
 20
284.982708
 30
0.0
  0
SPLINE
  5
198
100
AcDbEntity
  8
0
 62
7
100
AcDbSpline
 70
8
 71
3
 72
8
 73
4
 74
0
 40
0
 40
0
 40
0
 40
0
 40
1
 40
1
 40
1
 40
1
 10
196.135625
 20
278.077083
 30
0.0
 10
196.135625
 20
277.706667
 30
0.0
 10
196.241458
 20
277.415625
 30
0.0
 10
196.373750
 20
277.230417
 30
0.0
  0
SPLINE
  5
199
100
AcDbEntity
  8
0
 62
7
100
AcDbSpline
 70
8
 71
3
 72
8
 73
4
 74
0
 40
0
 40
0
 40
0
 40
0
 40
1
 40
1
 40
1
 40
1
 10
196.373750
 20
277.230417
 30
0.0
 10
196.532500
 20
277.045208
 30
0.0
 10
196.744167
 20
276.939375
 30
0.0
 10
196.982292
 20
276.886458
 30
0.0
  0
SPLINE
  5
19a
100
AcDbEntity
  8
0
 62
7
100
AcDbSpline
 70
8
 71
3
 72
8
 73
4
 74
0
 40
0
 40
0
 40
0
 40
0
 40
1
 40
1
 40
1
 40
1
 10
196.982292
 20
276.886458
 30
0.0
 10
197.246875
 20
276.833542
 30
0.0
 10
197.511458
 20
276.807083
 30
0.0
 10
197.828958
 20
276.807083
 30
0.0
  0
LWPOLYLINE
  5
19b
100
AcDbEntity
  8
0
 62
7
100
AcDbPolyline
 90
4
 70
0
 10
196.347292
 20
274.505208
 30
0.0
 10
195.527083
 20
274.505208
 30
0.0
 10
195.527083
 20
278.077083
 30
0.0
 10
196.135625
 20
278.077083
 30
0.0
  0
SPLINE
  5
19c
100
AcDbEntity
  8
0
 62
7
100
AcDbSpline
 70
8
 71
3
 72
8
 73
4
 74
0
 40
0
 40
0
 40
0
 40
0
 40
1
 40
1
 40
1
 40
1
 10
206.269167
 20
276.463125
 30
0.0
 10
206.507292
 20
276.463125
 30
0.0
 10
206.771875
 20
276.436667
 30
0.0
 10
207.010000
 20
276.436667
 30
0.0
  0
SPLINE
  5
19d
100
AcDbEntity
  8
0
 62
7
100
AcDbSpline
 70
8
 71
3
 72
8
 73
4
 74
0
 40
0
 40
0
 40
0
 40
0
 40
1
 40
1
 40
1
 40
1
 10
207.010000
 20
276.436667
 30
0.0
 10
207.248125
 20
276.436667
 30
0.0
 10
207.486250
 20
276.410208
 30
0.0
 10
207.724375
 20
276.410208
 30
0.0
  0
SPLINE
  5
19e
100
AcDbEntity
  8
0
 62
7
100
AcDbSpline
 70
8
 71
3
 72
8
 73
4
 74
0
 40
0
 40
0
 40
0
 40
0
 40
1
 40
1
 40
1
 40
1
 10
207.724375
 20
276.410208
 30
0.0
 10
207.724375
 20
276.621875
 30
0.0
 10
207.697917
 20
276.860000
 30
0.0
 10
207.697917
 20
277.071667
 30
0.0
  0
SPLINE
  5
19f
100
AcDbEntity
  8
0
 62
7
100
AcDbSpline
 70
8
 71
3
 72
8
 73
4
 74
0
 40
0
 40
0
 40
0
 40
0
 40
1
 40
1
 40
1
 40
1
 10
207.697917
 20
277.071667
 30
0.0
 10
207.697917
 20
277.283333
 30
0.0
 10
207.671458
 20
277.521458
 30
0.0
 10
207.671458
 20
277.733125
 30
0.0
  0
LWPOLYLINE
  5
1a0
100
AcDbEntity
  8
0
 62
7
100
AcDbPolyline
 90
2
 70
0
 10
197.828958
 20
276.807083
 30
0.0
 10
206.269167
 20
276.463125
 30
0.0
  0
SPLINE
  5
1a1
100
AcDbEntity
  8
0
 62
7
100
AcDbSpline
 70
8
 71
3
 72
8
 73
4
 74
0
 40
0
 40
0
 40
0
 40
0
 40
1
 40
1
 40
1
 40
1
 10
201.109792
 20
271.727083
 30
0.0
 10
200.739375
 20
271.568333
 30
0.0
 10
200.368958
 20
271.409583
 30
0.0
 10
199.998542
 20
271.250833
 30
0.0
  0
SPLINE
  5
1a2
100
AcDbEntity
  8
0
 62
7
100
AcDbSpline
 70
8
 71
3
 72
8
 73
4
 74
0
 40
0
 40
0
 40
0
 40
0
 40
1
 40
1
 40
1
 40
1
 10
199.998542
 20
271.250833
 30
0.0
 10
199.628125
 20
271.092083
 30
0.0
 10
199.257708
 20
270.933333
 30
0.0
 10
198.887292
 20
270.774583
 30
0.0
  0
SPLINE
  5
1a3
100
AcDbEntity
  8
0
 62
7
100
AcDbSpline
 70
8
 71
3
 72
8
 73
4
 74
0
 40
0
 40
0
 40
0
 40
0
 40
1
 40
1
 40
1
 40
1
 10
198.887292
 20
270.774583
 30
0.0
 10
198.516875
 20
270.615833
 30
0.0
 10
198.146458
 20
270.457083
 30
0.0
 10
197.749583
 20
270.271875
 30
0.0
  0
LWPOLYLINE
  5
1a4
100
AcDbEntity
  8
0
 62
7
100
AcDbPolyline
 90
4
 70
0
 10
207.671458
 20
277.733125
 30
0.0
 10
208.465208
 20
277.733125
 30
0.0
 10
208.465208
 20
274.902083
 30
0.0
 10
201.109792
 20
271.727083
 30
0.0
  0
SPLINE
  5
1a5
100
AcDbEntity
  8
0
 62
7
100
AcDbSpline
 70
8
 71
3
 72
8
 73
4
 74
0
 40
0
 40
0
 40
0
 40
0
 40
1
 40
1
 40
1
 40
1
 10
197.749583
 20
270.245417
 30
0.0
 10
198.093542
 20
270.113125
 30
0.0
 10
198.490417
 20
269.954375
 30
0.0
 10
198.940208
 20
269.769167
 30
0.0
  0
SPLINE
  5
1a6
100
AcDbEntity
  8
0
 62
7
100
AcDbSpline
 70
8
 71
3
 72
8
 73
4
 74
0
 40
0
 40
0
 40
0
 40
0
 40
1
 40
1
 40
1
 40
1
 10
198.940208
 20
269.769167
 30
0.0
 10
199.390000
 20
269.583958
 30
0.0
 10
199.813333
 20
269.425208
 30
0.0
 10
200.130833
 20
269.292917
 30
0.0
  0
SPLINE
  5
1a7
100
AcDbEntity
  8
0
 62
7
100
AcDbSpline
 70
8
 71
3
 72
8
 73
4
 74
0
 40
0
 40
0
 40
0
 40
0
 40
1
 40
1
 40
1
 40
1
 10
200.130833
 20
269.292917
 30
0.0
 10
201.480208
 20
268.737292
 30
0.0
 10
202.856042
 20
268.181667
 30
0.0
 10
204.205417
 20
267.599583
 30
0.0
  0
SPLINE
  5
1a8
100
AcDbEntity
  8
0
 62
7
100
AcDbSpline
 70
8
 71
3
 72
8
 73
4
 74
0
 40
0
 40
0
 40
0
 40
0
 40
1
 40
1
 40
1
 40
1
 10
204.205417
 20
267.599583
 30
0.0
 10
205.581250
 20
267.017500
 30
0.0
 10
206.983542
 20
266.435417
 30
0.0
 10
208.438750
 20
265.879792
 30
0.0
  0
LWPOLYLINE
  5
1a9
100
AcDbEntity
  8
0
 62
7
100
AcDbPolyline
 90
2
 70
0
 10
197.749583
 20
270.271875
 30
0.0
 10
197.749583
 20
270.245417
 30
0.0
  0
SPLINE
  5
1aa
100
AcDbEntity
  8
0
 62
7
100
AcDbSpline
 70
8
 71
3
 72
8
 73
4
 74
0
 40
0
 40
0
 40
0
 40
0
 40
1
 40
1
 40
1
 40
1
 10
207.830208
 20
263.128125
 30
0.0
 10
207.830208
 20
263.445625
 30
0.0
 10
207.777292
 20
263.683750
 30
0.0
 10
207.645000
 20
263.895417
 30
0.0
  0
SPLINE
  5
1ab
100
AcDbEntity
  8
0
 62
7
100
AcDbSpline
 70
8
 71
3
 72
8
 73
4
 74
0
 40
0
 40
0
 40
0
 40
0
 40
1
 40
1
 40
1
 40
1
 10
207.645000
 20
263.895417
 30
0.0
 10
207.512708
 20
264.080625
 30
0.0
 10
207.301042
 20
264.239375
 30
0.0
 10
207.010000
 20
264.318750
 30
0.0
  0
SPLINE
  5
1ac
100
AcDbEntity
  8
0
 62
7
100
AcDbSpline
 70
8
 71
3
 72
8
 73
4
 74
0
 40
0
 40
0
 40
0
 40
0
 40
1
 40
1
 40
1
 40
1
 10
207.010000
 20
264.318750
 30
0.0
 10
206.718958
 20
264.398125
 30
0.0
 10
206.322083
 20
264.424583
 30
0.0
 10
205.792917
 20
264.398125
 30
0.0
  0
LWPOLYLINE
  5
1ad
100
AcDbEntity
  8
0
 62
7
100
AcDbPolyline
 90
3
 70
0
 10
208.438750
 20
265.879792
 30
0.0
 10
208.438750
 20
263.128125
 30
0.0
 10
207.830208
 20
263.128125
 30
0.0
  0
SPLINE
  5
1ae
100
AcDbEntity
  8
0
 62
7
100
AcDbSpline
 70
8
 71
3
 72
8
 73
4
 74
0
 40
0
 40
0
 40
0
 40
0
 40
1
 40
1
 40
1
 40
1
 10
197.379167
 20
263.921875
 30
0.0
 10
197.167500
 20
263.895417
 30
0.0
 10
196.955833
 20
263.895417
 30
0.0
 10
196.770625
 20
263.895417
 30
0.0
  0
SPLINE
  5
1af
100
AcDbEntity
  8
0
 62
7
100
AcDbSpline
 70
8
 71
3
 72
8
 73
4
 74
0
 40
0
 40
0
 40
0
 40
0
 40
1
 40
1
 40
1
 40
1
 10
196.770625
 20
263.895417
 30
0.0
 10
196.585417
 20
263.895417
 30
0.0
 10
196.400208
 20
263.895417
 30
0.0
 10
196.241458
 20
263.895417
 30
0.0
  0
SPLINE
  5
1b0
100
AcDbEntity
  8
0
 62
7
100
AcDbSpline
 70
8
 71
3
 72
8
 73
4
 74
0
 40
0
 40
0
 40
0
 40
0
 40
1
 40
1
 40
1
 40
1
 10
196.241458
 20
263.895417
 30
0.0
 10
196.241458
 20
263.683750
 30
0.0
 10
196.267917
 20
263.445625
 30
0.0
 10
196.267917
 20
263.207500
 30
0.0
  0
SPLINE
  5
1b1
100
AcDbEntity
  8
0
 62
7
100
AcDbSpline
 70
8
 71
3
 72
8
 73
4
 74
0
 40
0
 40
0
 40
0
 40
0
 40
1
 40
1
 40
1
 40
1
 10
196.267917
 20
263.207500
 30
0.0
 10
196.267917
 20
262.969375
 30
0.0
 10
196.294375
 20
262.757708
 30
0.0
 10
196.294375
 20
262.519583
 30
0.0
  0
LWPOLYLINE
  5
1b2
100
AcDbEntity
  8
0
 62
7
100
AcDbPolyline
 90
2
 70
0
 10
205.792917
 20
264.398125
 30
0.0
 10
197.379167
 20
263.921875
 30
0.0
  0
SPLINE
  5
1b3
100
AcDbEntity
  8
0
 62
7
100
AcDbSpline
 70
8
 71
3
 72
8
 73
4
 74
0
 40
0
 40
0
 40
0
 40
0
 40
1
 40
1
 40
1
 40
1
 10
196.082708
 20
266.673542
 30
0.0
 10
196.082708
 20
266.303125
 30
0.0
 10
196.188542
 20
266.012083
 30
0.0
 10
196.373750
 20
265.826875
 30
0.0
  0
SPLINE
  5
1b4
100
AcDbEntity
  8
0
 62
7
100
AcDbSpline
 70
8
 71
3
 72
8
 73
4
 74
0
 40
0
 40
0
 40
0
 40
0
 40
1
 40
1
 40
1
 40
1
 10
196.373750
 20
265.826875
 30
0.0
 10
196.558958
 20
265.641667
 30
0.0
 10
196.797083
 20
265.535833
 30
0.0
 10
197.114583
 20
265.482917
 30
0.0
  0
SPLINE
  5
1b5
100
AcDbEntity
  8
0
 62
7
100
AcDbSpline
 70
8
 71
3
 72
8
 73
4
 74
0
 40
0
 40
0
 40
0
 40
0
 40
1
 40
1
 40
1
 40
1
 10
197.114583
 20
265.482917
 30
0.0
 10
197.432083
 20
265.430000
 30
0.0
 10
197.828958
 20
265.430000
 30
0.0
 10
198.305208
 20
265.456458
 30
0.0
  0
LWPOLYLINE
  5
1b6
100
AcDbEntity
  8
0
 62
7
100
AcDbPolyline
 90
4
 70
0
 10
196.294375
 20
262.519583
 30
0.0
 10
195.474167
 20
262.519583
 30
0.0
 10
195.474167
 20
266.673542
 30
0.0
 10
196.082708
 20
266.673542
 30
0.0
  0
SPLINE
  5
1b7
100
AcDbEntity
  8
0
 62
7
100
AcDbSpline
 70
8
 71
3
 72
8
 73
4
 74
0
 40
0
 40
0
 40
0
 40
0
 40
1
 40
1
 40
1
 40
1
 10
204.417083
 20
265.826875
 30
0.0
 10
204.602292
 20
265.826875
 30
0.0
 10
204.813958
 20
265.853333
 30
0.0
 10
204.999167
 20
265.853333
 30
0.0
  0
SPLINE
  5
1b8
100
AcDbEntity
  8
0
 62
7
100
AcDbSpline
 70
8
 71
3
 72
8
 73
4
 74
0
 40
0
 40
0
 40
0
 40
0
 40
1
 40
1
 40
1
 40
1
 10
204.999167
 20
265.853333
 30
0.0
 10
205.184375
 20
265.853333
 30
0.0
 10
205.396042
 20
265.879792
 30
0.0
 10
205.581250
 20
265.879792
 30
0.0
  0
SPLINE
  5
1b9
100
AcDbEntity
  8
0
 62
7
100
AcDbSpline
 70
8
 71
3
 72
8
 73
4
 74
0
 40
0
 40
0
 40
0
 40
0
 40
1
 40
1
 40
1
 40
1
 10
205.581250
 20
265.879792
 30
0.0
 10
205.766458
 20
265.879792
 30
0.0
 10
205.978125
 20
265.906250
 30
0.0
 10
206.163333
 20
265.906250
 30
0.0
  0
SPLINE
  5
1ba
100
AcDbEntity
  8
0
 62
7
100
AcDbSpline
 70
8
 71
3
 72
8
 73
4
 74
0
 40
0
 40
0
 40
0
 40
0
 40
1
 40
1
 40
1
 40
1
 10
206.163333
 20
265.906250
 30
0.0
 10
206.083958
 20
265.932708
 30
0.0
 10
205.978125
 20
265.985625
 30
0.0
 10
205.898750
 20
266.038542
 30
0.0
  0
SPLINE
  5
1bb
100
AcDbEntity
  8
0
 62
7
100
AcDbSpline
 70
8
 71
3
 72
8
 73
4
 74
0
 40
0
 40
0
 40
0
 40
0
 40
1
 40
1
 40
1
 40
1
 10
205.898750
 20
266.038542
 30
0.0
 10
205.792917
 20
266.091458
 30
0.0
 10
205.687083
 20
266.117917
 30
0.0
 10
205.581250
 20
266.170833
 30
0.0
  0
LWPOLYLINE
  5
1bc
100
AcDbEntity
  8
0
 62
7
100
AcDbPolyline
 90
2
 70
0
 10
198.305208
 20
265.456458
 30
0.0
 10
204.417083
 20
265.826875
 30
0.0
  0
SPLINE
  5
1bd
100
AcDbEntity
  8
0
 62
7
100
AcDbSpline
 70
8
 71
3
 72
8
 73
4
 74
0
 40
0
 40
0
 40
0
 40
0
 40
1
 40
1
 40
1
 40
1
 10
207.909583
 20
256.698750
 30
0.0
 10
207.909583
 20
257.148542
 30
0.0
 10
207.803750
 20
257.466042
 30
0.0
 10
207.592083
 20
257.651250
 30
0.0
  0
SPLINE
  5
1be
100
AcDbEntity
  8
0
 62
7
100
AcDbSpline
 70
8
 71
3
 72
8
 73
4
 74
0
 40
0
 40
0
 40
0
 40
0
 40
1
 40
1
 40
1
 40
1
 10
207.592083
 20
257.651250
 30
0.0
 10
207.406875
 20
257.836458
 30
0.0
 10
207.115833
 20
257.915833
 30
0.0
 10
206.798333
 20
257.942292
 30
0.0
  0
SPLINE
  5
1bf
100
AcDbEntity
  8
0
 62
7
100
AcDbSpline
 70
8
 71
3
 72
8
 73
4
 74
0
 40
0
 40
0
 40
0
 40
0
 40
1
 40
1
 40
1
 40
1
 10
206.798333
 20
257.942292
 30
0.0
 10
206.454375
 20
257.968750
 30
0.0
 10
206.083958
 20
257.968750
 30
0.0
 10
205.634167
 20
257.968750
 30
0.0
  0
LWPOLYLINE
  5
1c0
100
AcDbEntity
  8
0
 62
7
100
AcDbPolyline
 90
4
 70
0
 10
205.581250
 20
266.170833
 30
0.0
 10
195.288958
 20
270.351250
 30
0.0
 10
195.288958
 20
270.880417
 30
0.0
 10
195.368333
 20
270.880417
 30
0.0
  0
SPLINE
  5
1c1
100
AcDbEntity
  8
0
 62
7
100
AcDbSpline
 70
8
 71
3
 72
8
 73
4
 74
0
 40
0
 40
0
 40
0
 40
0
 40
1
 40
1
 40
1
 40
1
 10
197.749583
 20
257.968750
 30
0.0
 10
197.405625
 20
257.968750
 30
0.0
 10
197.141042
 20
257.968750
 30
0.0
 10
196.876458
 20
257.968750
 30
0.0
  0
SPLINE
  5
1c2
100
AcDbEntity
  8
0
 62
7
100
AcDbSpline
 70
8
 71
3
 72
8
 73
4
 74
0
 40
0
 40
0
 40
0
 40
0
 40
1
 40
1
 40
1
 40
1
 10
196.876458
 20
257.968750
 30
0.0
 10
196.638333
 20
257.968750
 30
0.0
 10
196.426667
 20
257.995208
 30
0.0
 10
196.267917
 20
258.021667
 30
0.0
  0
SPLINE
  5
1c3
100
AcDbEntity
  8
0
 62
7
100
AcDbSpline
 70
8
 71
3
 72
8
 73
4
 74
0
 40
0
 40
0
 40
0
 40
0
 40
1
 40
1
 40
1
 40
1
 10
196.267917
 20
258.021667
 30
0.0
 10
196.267917
 20
257.810000
 30
0.0
 10
196.294375
 20
257.571875
 30
0.0
 10
196.294375
 20
257.360208
 30
0.0
  0
SPLINE
  5
1c4
100
AcDbEntity
  8
0
 62
7
100
AcDbSpline
 70
8
 71
3
 72
8
 73
4
 74
0
 40
0
 40
0
 40
0
 40
0
 40
1
 40
1
 40
1
 40
1
 10
196.294375
 20
257.360208
 30
0.0
 10
196.294375
 20
257.148542
 30
0.0
 10
196.320833
 20
256.910417
 30
0.0
 10
196.320833
 20
256.698750
 30
0.0
  0
LWPOLYLINE
  5
1c5
100
AcDbEntity
  8
0
 62
7
100
AcDbPolyline
 90
2
 70
0
 10
205.634167
 20
257.968750
 30
0.0
 10
197.749583
 20
257.968750
 30
0.0
  0
SPLINE
  5
1c6
100
AcDbEntity
  8
0
 62
7
100
AcDbSpline
 70
8
 71
3
 72
8
 73
4
 74
0
 40
0
 40
0
 40
0
 40
0
 40
1
 40
1
 40
1
 40
1
 10
196.109167
 20
260.879167
 30
0.0
 10
196.135625
 20
260.402917
 30
0.0
 10
196.241458
 20
260.085417
 30
0.0
 10
196.426667
 20
259.926667
 30
0.0
  0
SPLINE
  5
1c7
100
AcDbEntity
  8
0
 62
7
100
AcDbSpline
 70
8
 71
3
 72
8
 73
4
 74
0
 40
0
 40
0
 40
0
 40
0
 40
1
 40
1
 40
1
 40
1
 10
196.426667
 20
259.926667
 30
0.0
 10
196.611875
 20
259.741458
 30
0.0
 10
196.876458
 20
259.662083
 30
0.0
 10
197.220417
 20
259.635625
 30
0.0
  0
SPLINE
  5
1c8
100
AcDbEntity
  8
0
 62
7
100
AcDbSpline
 70
8
 71
3
 72
8
 73
4
 74
0
 40
0
 40
0
 40
0
 40
0
 40
1
 40
1
 40
1
 40
1
 10
197.220417
 20
259.635625
 30
0.0
 10
197.564375
 20
259.609167
 30
0.0
 10
197.934792
 20
259.609167
 30
0.0
 10
198.384583
 20
259.609167
 30
0.0
  0
LWPOLYLINE
  5
1c9
100
AcDbEntity
  8
0
 62
7
100
AcDbPolyline
 90
4
 70
0
 10
196.320833
 20
256.698750
 30
0.0
 10
195.500625
 20
256.698750
 30
0.0
 10
195.500625
 20
260.879167
 30
0.0
 10
196.109167
 20
260.879167
 30
0.0
  0
SPLINE
  5
1ca
100
AcDbEntity
  8
0
 62
7
100
AcDbSpline
 70
8
 71
3
 72
8
 73
4
 74
0
 40
0
 40
0
 40
0
 40
0
 40
1
 40
1
 40
1
 40
1
 10
206.375000
 20
259.609167
 30
0.0
 10
206.613125
 20
259.609167
 30
0.0
 10
206.851250
 20
259.609167
 30
0.0
 10
207.089375
 20
259.582708
 30
0.0
  0
SPLINE
  5
1cb
100
AcDbEntity
  8
0
 62
7
100
AcDbSpline
 70
8
 71
3
 72
8
 73
4
 74
0
 40
0
 40
0
 40
0
 40
0
 40
1
 40
1
 40
1
 40
1
 10
207.089375
 20
259.582708
 30
0.0
 10
207.327500
 20
259.582708
 30
0.0
 10
207.512708
 20
259.556250
 30
0.0
 10
207.697917
 20
259.556250
 30
0.0
  0
SPLINE
  5
1cc
100
AcDbEntity
  8
0
 62
7
100
AcDbSpline
 70
8
 71
3
 72
8
 73
4
 74
0
 40
0
 40
0
 40
0
 40
0
 40
1
 40
1
 40
1
 40
1
 10
207.697917
 20
259.556250
 30
0.0
 10
207.697917
 20
259.767917
 30
0.0
 10
207.671458
 20
260.006042
 30
0.0
 10
207.671458
 20
260.217708
 30
0.0
  0
SPLINE
  5
1cd
100
AcDbEntity
  8
0
 62
7
100
AcDbSpline
 70
8
 71
3
 72
8
 73
4
 74
0
 40
0
 40
0
 40
0
 40
0
 40
1
 40
1
 40
1
 40
1
 10
207.671458
 20
260.217708
 30
0.0
 10
207.671458
 20
260.429375
 30
0.0
 10
207.645000
 20
260.667500
 30
0.0
 10
207.645000
 20
260.879167
 30
0.0
  0
LWPOLYLINE
  5
1ce
100
AcDbEntity
  8
0
 62
7
100
AcDbPolyline
 90
2
 70
0
 10
198.384583
 20
259.609167
 30
0.0
 10
206.375000
 20
259.609167
 30
0.0
  0
SPLINE
  5
1cf
100
AcDbEntity
  8
0
 62
7
100
AcDbSpline
 70
8
 71
3
 72
8
 73
4
 74
0
 40
0
 40
0
 40
0
 40
0
 40
1
 40
1
 40
1
 40
1
 10
207.909583
 20
250.957292
 30
0.0
 10
207.909583
 20
251.354167
 30
0.0
 10
207.830208
 20
251.645208
 30
0.0
 10
207.645000
 20
251.830417
 30
0.0
  0
SPLINE
  5
1d0
100
AcDbEntity
  8
0
 62
7
100
AcDbSpline
 70
8
 71
3
 72
8
 73
4
 74
0
 40
0
 40
0
 40
0
 40
0
 40
1
 40
1
 40
1
 40
1
 10
207.645000
 20
251.830417
 30
0.0
 10
207.459792
 20
252.015625
 30
0.0
 10
207.274583
 20
252.121458
 30
0.0
 10
207.036458
 20
252.147917
 30
0.0
  0
SPLINE
  5
1d1
100
AcDbEntity
  8
0
 62
7
100
AcDbSpline
 70
8
 71
3
 72
8
 73
4
 74
0
 40
0
 40
0
 40
0
 40
0
 40
1
 40
1
 40
1
 40
1
 10
207.036458
 20
252.147917
 30
0.0
 10
206.798333
 20
252.174375
 30
0.0
 10
206.613125
 20
252.200833
 30
0.0
 10
206.427917
 20
252.200833
 30
0.0
  0
LWPOLYLINE
  5
1d2
100
AcDbEntity
  8
0
 62
7
100
AcDbPolyline
 90
5
 70
0
 10
207.645000
 20
260.879167
 30
0.0
 10
208.465208
 20
260.879167
 30
0.0
 10
208.465208
 20
256.698750
 30
0.0
 10
207.909583
 20
256.698750
 30
0.0
 10
207.909583
 20
256.698750
 30
0.0
  0
SPLINE
  5
1d3
100
AcDbEntity
  8
0
 62
7
100
AcDbSpline
 70
8
 71
3
 72
8
 73
4
 74
0
 40
0
 40
0
 40
0
 40
0
 40
1
 40
1
 40
1
 40
1
 10
201.771250
 20
252.200833
 30
0.0
 10
201.083333
 20
252.200833
 30
0.0
 10
200.421875
 20
252.147917
 30
0.0
 10
199.760417
 20
252.068542
 30
0.0
  0
SPLINE
  5
1d4
100
AcDbEntity
  8
0
 62
7
100
AcDbSpline
 70
8
 71
3
 72
8
 73
4
 74
0
 40
0
 40
0
 40
0
 40
0
 40
1
 40
1
 40
1
 40
1
 10
199.760417
 20
252.068542
 30
0.0
 10
199.098958
 20
251.989167
 30
0.0
 10
198.516875
 20
251.803958
 30
0.0
 10
198.014167
 20
251.539375
 30
0.0
  0
SPLINE
  5
1d5
100
AcDbEntity
  8
0
 62
7
100
AcDbSpline
 70
8
 71
3
 72
8
 73
4
 74
0
 40
0
 40
0
 40
0
 40
0
 40
1
 40
1
 40
1
 40
1
 10
198.014167
 20
251.539375
 30
0.0
 10
197.485000
 20
251.274792
 30
0.0
 10
197.088125
 20
250.904375
 30
0.0
 10
196.770625
 20
250.375208
 30
0.0
  0
SPLINE
  5
1d6
100
AcDbEntity
  8
0
 62
7
100
AcDbSpline
 70
8
 71
3
 72
8
 73
4
 74
0
 40
0
 40
0
 40
0
 40
0
 40
1
 40
1
 40
1
 40
1
 10
196.770625
 20
250.375208
 30
0.0
 10
196.453125
 20
249.872500
 30
0.0
 10
196.294375
 20
249.184583
 30
0.0
 10
196.294375
 20
248.364375
 30
0.0
  0
SPLINE
  5
1d7
100
AcDbEntity
  8
0
 62
7
100
AcDbSpline
 70
8
 71
3
 72
8
 73
4
 74
0
 40
0
 40
0
 40
0
 40
0
 40
1
 40
1
 40
1
 40
1
 10
196.294375
 20
248.364375
 30
0.0
 10
196.294375
 20
247.464792
 30
0.0
 10
196.506042
 20
246.750417
 30
0.0
 10
196.929375
 20
246.194792
 30
0.0
  0
SPLINE
  5
1d8
100
AcDbEntity
  8
0
 62
7
100
AcDbSpline
 70
8
 71
3
 72
8
 73
4
 74
0
 40
0
 40
0
 40
0
 40
0
 40
1
 40
1
 40
1
 40
1
 10
196.929375
 20
246.194792
 30
0.0
 10
197.352708
 20
245.639167
 30
0.0
 10
197.934792
 20
245.215833
 30
0.0
 10
198.675625
 20
244.951250
 30
0.0
  0
SPLINE
  5
1d9
100
AcDbEntity
  8
0
 62
7
100
AcDbSpline
 70
8
 71
3
 72
8
 73
4
 74
0
 40
0
 40
0
 40
0
 40
0
 40
1
 40
1
 40
1
 40
1
 10
198.675625
 20
244.951250
 30
0.0
 10
199.416458
 20
244.686667
 30
0.0
 10
200.263125
 20
244.554375
 30
0.0
 10
201.242083
 20
244.527917
 30
0.0
  0
LWPOLYLINE
  5
1da
100
AcDbEntity
  8
0
 62
7
100
AcDbPolyline
 90
2
 70
0
 10
206.427917
 20
252.200833
 30
0.0
 10
201.771250
 20
252.200833
 30
0.0
  0
SPLINE
  5
1db
100
AcDbEntity
  8
0
 62
7
100
AcDbSpline
 70
8
 71
3
 72
8
 73
4
 74
0
 40
0
 40
0
 40
0
 40
0
 40
1
 40
1
 40
1
 40
1
 10
206.454375
 20
244.475000
 30
0.0
 10
206.692500
 20
244.475000
 30
0.0
 10
206.930625
 20
244.475000
 30
0.0
 10
207.168750
 20
244.448542
 30
0.0
  0
SPLINE
  5
1dc
100
AcDbEntity
  8
0
 62
7
100
AcDbSpline
 70
8
 71
3
 72
8
 73
4
 74
0
 40
0
 40
0
 40
0
 40
0
 40
1
 40
1
 40
1
 40
1
 10
207.168750
 20
244.448542
 30
0.0
 10
207.406875
 20
244.448542
 30
0.0
 10
207.592083
 20
244.422083
 30
0.0
 10
207.777292
 20
244.422083
 30
0.0
  0
SPLINE
  5
1dd
100
AcDbEntity
  8
0
 62
7
100
AcDbSpline
 70
8
 71
3
 72
8
 73
4
 74
0
 40
0
 40
0
 40
0
 40
0
 40
1
 40
1
 40
1
 40
1
 10
207.777292
 20
244.422083
 30
0.0
 10
207.777292
 20
244.633750
 30
0.0
 10
207.750833
 20
244.871875
 30
0.0
 10
207.750833
 20
245.083542
 30
0.0
  0
SPLINE
  5
1de
100
AcDbEntity
  8
0
 62
7
100
AcDbSpline
 70
8
 71
3
 72
8
 73
4
 74
0
 40
0
 40
0
 40
0
 40
0
 40
1
 40
1
 40
1
 40
1
 10
207.750833
 20
245.083542
 30
0.0
 10
207.750833
 20
245.295208
 30
0.0
 10
207.724375
 20
245.506875
 30
0.0
 10
207.724375
 20
245.745000
 30
0.0
  0
LWPOLYLINE
  5
1df
100
AcDbEntity
  8
0
 62
7
100
AcDbPolyline
 90
2
 70
0
 10
201.242083
 20
244.527917
 30
0.0
 10
206.454375
 20
244.475000
 30
0.0
  0
SPLINE
  5
1e0
100
AcDbEntity
  8
0
 62
7
100
AcDbSpline
 70
8
 71
3
 72
8
 73
4
 74
0
 40
0
 40
0
 40
0
 40
0
 40
1
 40
1
 40
1
 40
1
 10
207.936042
 20
242.305417
 30
0.0
 10
207.936042
 20
242.781667
 30
0.0
 10
207.830208
 20
243.099167
 30
0.0
 10
207.618542
 20
243.257917
 30
0.0
  0
SPLINE
  5
1e1
100
AcDbEntity
  8
0
 62
7
100
AcDbSpline
 70
8
 71
3
 72
8
 73
4
 74
0
 40
0
 40
0
 40
0
 40
0
 40
1
 40
1
 40
1
 40
1
 10
207.618542
 20
243.257917
 30
0.0
 10
207.433333
 20
243.443125
 30
0.0
 10
207.142292
 20
243.522500
 30
0.0
 10
206.824792
 20
243.548958
 30
0.0
  0
SPLINE
  5
1e2
100
AcDbEntity
  8
0
 62
7
100
AcDbSpline
 70
8
 71
3
 72
8
 73
4
 74
0
 40
0
 40
0
 40
0
 40
0
 40
1
 40
1
 40
1
 40
1
 10
206.824792
 20
243.548958
 30
0.0
 10
206.480833
 20
243.575417
 30
0.0
 10
206.110417
 20
243.575417
 30
0.0
 10
205.660625
 20
243.601875
 30
0.0
  0
LWPOLYLINE
  5
1e3
100
AcDbEntity
  8
0
 62
7
100
AcDbPolyline
 90
4
 70
0
 10
207.724375
 20
245.745000
 30
0.0
 10
208.544583
 20
245.745000
 30
0.0
 10
208.544583
 20
242.305417
 30
0.0
 10
207.936042
 20
242.305417
 30
0.0
  0
SPLINE
  5
1e4
100
AcDbEntity
  8
0
 62
7
100
AcDbSpline
 70
8
 71
3
 72
8
 73
4
 74
0
 40
0
 40
0
 40
0
 40
0
 40
1
 40
1
 40
1
 40
1
 10
201.374375
 20
243.628333
 30
0.0
 10
200.580625
 20
243.628333
 30
0.0
 10
199.813333
 20
243.707708
 30
0.0
 10
199.072500
 20
243.892917
 30
0.0
  0
SPLINE
  5
1e5
100
AcDbEntity
  8
0
 62
7
100
AcDbSpline
 70
8
 71
3
 72
8
 73
4
 74
0
 40
0
 40
0
 40
0
 40
0
 40
1
 40
1
 40
1
 40
1
 10
199.072500
 20
243.892917
 30
0.0
 10
198.331667
 20
244.078125
 30
0.0
 10
197.696667
 20
244.342708
 30
0.0
 10
197.114583
 20
244.739583
 30
0.0
  0
SPLINE
  5
1e6
100
AcDbEntity
  8
0
 62
7
100
AcDbSpline
 70
8
 71
3
 72
8
 73
4
 74
0
 40
0
 40
0
 40
0
 40
0
 40
1
 40
1
 40
1
 40
1
 10
197.114583
 20
244.739583
 30
0.0
 10
196.558958
 20
245.136458
 30
0.0
 10
196.109167
 20
245.639167
 30
0.0
 10
195.765208
 20
246.274167
 30
0.0
  0
SPLINE
  5
1e7
100
AcDbEntity
  8
0
 62
7
100
AcDbSpline
 70
8
 71
3
 72
8
 73
4
 74
0
 40
0
 40
0
 40
0
 40
0
 40
1
 40
1
 40
1
 40
1
 10
195.765208
 20
246.274167
 30
0.0
 10
195.447708
 20
246.909167
 30
0.0
 10
195.262500
 20
247.702917
 30
0.0
 10
195.262500
 20
248.628958
 30
0.0
  0
SPLINE
  5
1e8
100
AcDbEntity
  8
0
 62
7
100
AcDbSpline
 70
8
 71
3
 72
8
 73
4
 74
0
 40
0
 40
0
 40
0
 40
0
 40
1
 40
1
 40
1
 40
1
 10
195.262500
 20
248.628958
 30
0.0
 10
195.262500
 20
249.607917
 30
0.0
 10
195.394792
 20
250.454583
 30
0.0
 10
195.659375
 20
251.116042
 30
0.0
  0
SPLINE
  5
1e9
100
AcDbEntity
  8
0
 62
7
100
AcDbSpline
 70
8
 71
3
 72
8
 73
4
 74
0
 40
0
 40
0
 40
0
 40
0
 40
1
 40
1
 40
1
 40
1
 10
195.659375
 20
251.116042
 30
0.0
 10
195.923958
 20
251.777500
 30
0.0
 10
196.320833
 20
252.333125
 30
0.0
 10
196.876458
 20
252.730000
 30
0.0
  0
SPLINE
  5
1ea
100
AcDbEntity
  8
0
 62
7
100
AcDbSpline
 70
8
 71
3
 72
8
 73
4
 74
0
 40
0
 40
0
 40
0
 40
0
 40
1
 40
1
 40
1
 40
1
 10
196.876458
 20
252.730000
 30
0.0
 10
197.432083
 20
253.126875
 30
0.0
 10
198.093542
 20
253.417917
 30
0.0
 10
198.940208
 20
253.603125
 30
0.0
  0
SPLINE
  5
1eb
100
AcDbEntity
  8
0
 62
7
100
AcDbSpline
 70
8
 71
3
 72
8
 73
4
 74
0
 40
0
 40
0
 40
0
 40
0
 40
1
 40
1
 40
1
 40
1
 10
198.940208
 20
253.603125
 30
0.0
 10
199.760417
 20
253.788333
 30
0.0
 10
200.765833
 20
253.867708
 30
0.0
 10
201.903542
 20
253.867708
 30
0.0
  0
LWPOLYLINE
  5
1ec
100
AcDbEntity
  8
0
 62
7
100
AcDbPolyline
 90
2
 70
0
 10
205.660625
 20
243.601875
 30
0.0
 10
201.374375
 20
243.628333
 30
0.0
  0
SPLINE
  5
1ed
100
AcDbEntity
  8
0
 62
7
100
AcDbSpline
 70
8
 71
3
 72
8
 73
4
 74
0
 40
0
 40
0
 40
0
 40
0
 40
1
 40
1
 40
1
 40
1
 10
205.660625
 20
253.867708
 30
0.0
 10
205.978125
 20
253.867708
 30
0.0
 10
206.348542
 20
253.867708
 30
0.0
 10
206.798333
 20
253.841250
 30
0.0
  0
SPLINE
  5
1ee
100
AcDbEntity
  8
0
 62
7
100
AcDbSpline
 70
8
 71
3
 72
8
 73
4
 74
0
 40
0
 40
0
 40
0
 40
0
 40
1
 40
1
 40
1
 40
1
 10
206.798333
 20
253.841250
 30
0.0
 10
207.248125
 20
253.814792
 30
0.0
 10
207.565625
 20
253.814792
 30
0.0
 10
207.803750
 20
253.788333
 30
0.0
  0
SPLINE
  5
1ef
100
AcDbEntity
  8
0
 62
7
100
AcDbSpline
 70
8
 71
3
 72
8
 73
4
 74
0
 40
0
 40
0
 40
0
 40
0
 40
1
 40
1
 40
1
 40
1
 10
207.803750
 20
253.788333
 30
0.0
 10
207.803750
 20
254.000000
 30
0.0
 10
207.777292
 20
254.238125
 30
0.0
 10
207.777292
 20
254.449792
 30
0.0
  0
SPLINE
  5
1f0
100
AcDbEntity
  8
0
 62
7
100
AcDbSpline
 70
8
 71
3
 72
8
 73
4
 74
0
 40
0
 40
0
 40
0
 40
0
 40
1
 40
1
 40
1
 40
1
 10
207.777292
 20
254.449792
 30
0.0
 10
207.777292
 20
254.661458
 30
0.0
 10
207.750833
 20
254.899583
 30
0.0
 10
207.750833
 20
255.111250
 30
0.0
  0
LWPOLYLINE
  5
1f1
100
AcDbEntity
  8
0
 62
7
100
AcDbPolyline
 90
2
 70
0
 10
201.903542
 20
253.867708
 30
0.0
 10
205.660625
 20
253.867708
 30
0.0
  0
LWPOLYLINE
  5
1f2
100
AcDbEntity
  8
0
 62
7
100
AcDbPolyline
 90
5
 70
0
 10
207.750833
 20
255.111250
 30
0.0
 10
208.544583
 20
255.111250
 30
0.0
 10
208.544583
 20
250.957292
 30
0.0
 10
207.909583
 20
250.957292
 30
0.0
 10
207.909583
 20
250.957292
 30
0.0
  0
SPLINE
  5
1f3
100
AcDbEntity
  8
0
 62
7
100
AcDbSpline
 70
8
 71
3
 72
8
 73
4
 74
0
 40
0
 40
0
 40
0
 40
0
 40
1
 40
1
 40
1
 40
1
 10
196.162083
 20
240.717917
 30
0.0
 10
196.188542
 20
240.241667
 30
0.0
 10
196.294375
 20
239.924167
 30
0.0
 10
196.479583
 20
239.765417
 30
0.0
  0
SPLINE
  5
1f4
100
AcDbEntity
  8
0
 62
7
100
AcDbSpline
 70
8
 71
3
 72
8
 73
4
 74
0
 40
0
 40
0
 40
0
 40
0
 40
1
 40
1
 40
1
 40
1
 10
196.479583
 20
239.765417
 30
0.0
 10
196.664792
 20
239.580208
 30
0.0
 10
196.929375
 20
239.500833
 30
0.0
 10
197.273333
 20
239.474375
 30
0.0
  0
SPLINE
  5
1f5
100
AcDbEntity
  8
0
 62
7
100
AcDbSpline
 70
8
 71
3
 72
8
 73
4
 74
0
 40
0
 40
0
 40
0
 40
0
 40
1
 40
1
 40
1
 40
1
 10
197.273333
 20
239.474375
 30
0.0
 10
197.617292
 20
239.447917
 30
0.0
 10
197.987708
 20
239.447917
 30
0.0
 10
198.437500
 20
239.447917
 30
0.0
  0
LWPOLYLINE
  5
1f6
100
AcDbEntity
  8
0
 62
7
100
AcDbPolyline
 90
2
 70
0
 10
195.553542
 20
240.717917
 30
0.0
 10
196.162083
 20
240.717917
 30
0.0
  0
SPLINE
  5
1f7
100
AcDbEntity
  8
0
 62
7
100
AcDbSpline
 70
8
 71
3
 72
8
 73
4
 74
0
 40
0
 40
0
 40
0
 40
0
 40
1
 40
1
 40
1
 40
1
 10
206.427917
 20
239.447917
 30
0.0
 10
206.666042
 20
239.447917
 30
0.0
 10
206.904167
 20
239.447917
 30
0.0
 10
207.142292
 20
239.421458
 30
0.0
  0
SPLINE
  5
1f8
100
AcDbEntity
  8
0
 62
7
100
AcDbSpline
 70
8
 71
3
 72
8
 73
4
 74
0
 40
0
 40
0
 40
0
 40
0
 40
1
 40
1
 40
1
 40
1
 10
207.142292
 20
239.421458
 30
0.0
 10
207.380417
 20
239.421458
 30
0.0
 10
207.565625
 20
239.395000
 30
0.0
 10
207.750833
 20
239.395000
 30
0.0
  0
SPLINE
  5
1f9
100
AcDbEntity
  8
0
 62
7
100
AcDbSpline
 70
8
 71
3
 72
8
 73
4
 74
0
 40
0
 40
0
 40
0
 40
0
 40
1
 40
1
 40
1
 40
1
 10
207.750833
 20
239.395000
 30
0.0
 10
207.750833
 20
239.606667
 30
0.0
 10
207.724375
 20
239.844792
 30
0.0
 10
207.724375
 20
240.056458
 30
0.0
  0
SPLINE
  5
1fa
100
AcDbEntity
  8
0
 62
7
100
AcDbSpline
 70
8
 71
3
 72
8
 73
4
 74
0
 40
0
 40
0
 40
0
 40
0
 40
1
 40
1
 40
1
 40
1
 10
207.724375
 20
240.056458
 30
0.0
 10
207.724375
 20
240.268125
 30
0.0
 10
207.697917
 20
240.506250
 30
0.0
 10
207.697917
 20
240.717917
 30
0.0
  0
LWPOLYLINE
  5
1fb
100
AcDbEntity
  8
0
 62
7
100
AcDbPolyline
 90
2
 70
0
 10
198.437500
 20
239.447917
 30
0.0
 10
206.427917
 20
239.447917
 30
0.0
  0
SPLINE
  5
1fc
100
AcDbEntity
  8
0
 62
7
100
AcDbSpline
 70
8
 71
3
 72
8
 73
4
 74
0
 40
0
 40
0
 40
0
 40
0
 40
1
 40
1
 40
1
 40
1
 10
208.518125
 20
240.717917
 30
0.0
 10
208.518125
 20
240.030000
 30
0.0
 10
208.544583
 20
239.315625
 30
0.0
 10
208.544583
 20
238.627708
 30
0.0
  0
SPLINE
  5
1fd
100
AcDbEntity
  8
0
 62
7
100
AcDbSpline
 70
8
 71
3
 72
8
 73
4
 74
0
 40
0
 40
0
 40
0
 40
0
 40
1
 40
1
 40
1
 40
1
 10
208.544583
 20
238.627708
 30
0.0
 10
208.544583
 20
237.913333
 30
0.0
 10
208.544583
 20
237.198958
 30
0.0
 10
208.518125
 20
236.484583
 30
0.0
  0
SPLINE
  5
1fe
100
AcDbEntity
  8
0
 62
7
100
AcDbSpline
 70
8
 71
3
 72
8
 73
4
 74
0
 40
0
 40
0
 40
0
 40
0
 40
1
 40
1
 40
1
 40
1
 10
208.518125
 20
236.484583
 30
0.0
 10
208.518125
 20
235.293958
 30
0.0
 10
208.359375
 20
234.315000
 30
0.0
 10
208.094792
 20
233.574167
 30
0.0
  0
SPLINE
  5
1ff
100
AcDbEntity
  8
0
 62
7
100
AcDbSpline
 70
8
 71
3
 72
8
 73
4
 74
0
 40
0
 40
0
 40
0
 40
0
 40
1
 40
1
 40
1
 40
1
 10
208.094792
 20
233.574167
 30
0.0
 10
207.830208
 20
232.833333
 30
0.0
 10
207.459792
 20
232.304167
 30
0.0
 10
206.957083
 20
231.960208
 30
0.0
  0
SPLINE
  5
200
100
AcDbEntity
  8
0
 62
7
100
AcDbSpline
 70
8
 71
3
 72
8
 73
4
 74
0
 40
0
 40
0
 40
0
 40
0
 40
1
 40
1
 40
1
 40
1
 10
206.957083
 20
231.960208
 30
0.0
 10
206.480833
 20
231.616250
 30
0.0
 10
205.872292
 20
231.431042
 30
0.0
 10
205.184375
 20
231.431042
 30
0.0
  0
SPLINE
  5
201
100
AcDbEntity
  8
0
 62
7
100
AcDbSpline
 70
8
 71
3
 72
8
 73
4
 74
0
 40
0
 40
0
 40
0
 40
0
 40
1
 40
1
 40
1
 40
1
 10
205.184375
 20
231.431042
 30
0.0
 10
204.708125
 20
231.431042
 30
0.0
 10
204.205417
 20
231.510417
 30
0.0
 10
203.702708
 20
231.695625
 30
0.0
  0
SPLINE
  5
202
100
AcDbEntity
  8
0
 62
7
100
AcDbSpline
 70
8
 71
3
 72
8
 73
4
 74
0
 40
0
 40
0
 40
0
 40
0
 40
1
 40
1
 40
1
 40
1
 10
203.702708
 20
231.695625
 30
0.0
 10
203.200000
 20
231.880833
 30
0.0
 10
202.750208
 20
232.224792
 30
0.0
 10
202.353333
 20
232.727500
 30
0.0
  0
SPLINE
  5
203
100
AcDbEntity
  8
0
 62
7
100
AcDbSpline
 70
8
 71
3
 72
8
 73
4
 74
0
 40
0
 40
0
 40
0
 40
0
 40
1
 40
1
 40
1
 40
1
 10
202.353333
 20
232.727500
 30
0.0
 10
201.956458
 20
233.230208
 30
0.0
 10
201.665417
 20
233.944583
 30
0.0
 10
201.453750
 20
234.897083
 30
0.0
  0
SPLINE
  5
204
100
AcDbEntity
  8
0
 62
7
100
AcDbSpline
 70
8
 71
3
 72
8
 73
4
 74
0
 40
0
 40
0
 40
0
 40
0
 40
1
 40
1
 40
1
 40
1
 10
201.453750
 20
234.897083
 30
0.0
 10
201.268542
 20
234.658958
 30
0.0
 10
201.056875
 20
234.420833
 30
0.0
 10
200.792292
 20
234.235625
 30
0.0
  0
SPLINE
  5
205
100
AcDbEntity
  8
0
 62
7
100
AcDbSpline
 70
8
 71
3
 72
8
 73
4
 74
0
 40
0
 40
0
 40
0
 40
0
 40
1
 40
1
 40
1
 40
1
 10
200.792292
 20
234.235625
 30
0.0
 10
200.527708
 20
234.050417
 30
0.0
 10
200.210208
 20
233.838750
 30
0.0
 10
199.839792
 20
233.600625
 30
0.0
  0
LWPOLYLINE
  5
206
100
AcDbEntity
  8
0
 62
7
100
AcDbPolyline
 90
2
 70
0
 10
207.697917
 20
240.717917
 30
0.0
 10
208.518125
 20
240.717917
 30
0.0
  0
SPLINE
  5
207
100
AcDbEntity
  8
0
 62
7
100
AcDbSpline
 70
8
 71
3
 72
8
 73
4
 74
0
 40
0
 40
0
 40
0
 40
0
 40
1
 40
1
 40
1
 40
1
 10
197.855417
 20
232.330625
 30
0.0
 10
197.511458
 20
232.118958
 30
0.0
 10
197.220417
 20
231.907292
 30
0.0
 10
196.955833
 20
231.722083
 30
0.0
  0
SPLINE
  5
208
100
AcDbEntity
  8
0
 62
7
100
AcDbSpline
 70
8
 71
3
 72
8
 73
4
 74
0
 40
0
 40
0
 40
0
 40
0
 40
1
 40
1
 40
1
 40
1
 10
196.955833
 20
231.722083
 30
0.0
 10
196.691250
 20
231.536875
 30
0.0
 10
196.479583
 20
231.298750
 30
0.0
 10
196.320833
 20
231.034167
 30
0.0
  0
SPLINE
  5
209
100
AcDbEntity
  8
0
 62
7
100
AcDbSpline
 70
8
 71
3
 72
8
 73
4
 74
0
 40
0
 40
0
 40
0
 40
0
 40
1
 40
1
 40
1
 40
1
 10
196.320833
 20
231.034167
 30
0.0
 10
196.162083
 20
230.769583
 30
0.0
 10
196.082708
 20
230.452083
 30
0.0
 10
196.082708
 20
230.081667
 30
0.0
  0
LWPOLYLINE
  5
20a
100
AcDbEntity
  8
0
 62
7
100
AcDbPolyline
 90
2
 70
0
 10
199.839792
 20
233.600625
 30
0.0
 10
197.855417
 20
232.330625
 30
0.0
  0
SPLINE
  5
20b
100
AcDbEntity
  8
0
 62
7
100
AcDbSpline
 70
8
 71
3
 72
8
 73
4
 74
0
 40
0
 40
0
 40
0
 40
0
 40
1
 40
1
 40
1
 40
1
 10
195.474167
 20
232.410000
 30
0.0
 10
195.791667
 20
232.780417
 30
0.0
 10
196.109167
 20
233.071458
 30
0.0
 10
196.426667
 20
233.309583
 30
0.0
  0
SPLINE
  5
20c
100
AcDbEntity
  8
0
 62
7
100
AcDbSpline
 70
8
 71
3
 72
8
 73
4
 74
0
 40
0
 40
0
 40
0
 40
0
 40
1
 40
1
 40
1
 40
1
 10
196.426667
 20
233.309583
 30
0.0
 10
196.744167
 20
233.547708
 30
0.0
 10
197.114583
 20
233.812292
 30
0.0
 10
197.511458
 20
234.050417
 30
0.0
  0
LWPOLYLINE
  5
20d
100
AcDbEntity
  8
0
 62
7
100
AcDbPolyline
 90
3
 70
0
 10
196.082708
 20
230.081667
 30
0.0
 10
195.474167
 20
230.081667
 30
0.0
 10
195.474167
 20
232.410000
 30
0.0
  0
SPLINE
  5
20e
100
AcDbEntity
  8
0
 62
7
100
AcDbSpline
 70
8
 71
3
 72
8
 73
4
 74
0
 40
0
 40
0
 40
0
 40
0
 40
1
 40
1
 40
1
 40
1
 10
199.495833
 20
235.293958
 30
0.0
 10
199.760417
 20
235.452708
 30
0.0
 10
200.051458
 20
235.637917
 30
0.0
 10
200.395417
 20
235.849583
 30
0.0
  0
SPLINE
  5
20f
100
AcDbEntity
  8
0
 62
7
100
AcDbSpline
 70
8
 71
3
 72
8
 73
4
 74
0
 40
0
 40
0
 40
0
 40
0
 40
1
 40
1
 40
1
 40
1
 10
200.395417
 20
235.849583
 30
0.0
 10
200.739375
 20
236.061250
 30
0.0
 10
201.030417
 20
236.272917
 30
0.0
 10
201.268542
 20
236.537500
 30
0.0
  0
SPLINE
  5
210
100
AcDbEntity
  8
0
 62
7
100
AcDbSpline
 70
8
 71
3
 72
8
 73
4
 74
0
 40
0
 40
0
 40
0
 40
0
 40
1
 40
1
 40
1
 40
1
 10
201.268542
 20
236.537500
 30
0.0
 10
201.268542
 20
236.722708
 30
0.0
 10
201.242083
 20
236.934375
 30
0.0
 10
201.242083
 20
237.146042
 30
0.0
  0
SPLINE
  5
211
100
AcDbEntity
  8
0
 62
7
100
AcDbSpline
 70
8
 71
3
 72
8
 73
4
 74
0
 40
0
 40
0
 40
0
 40
0
 40
1
 40
1
 40
1
 40
1
 10
201.242083
 20
237.146042
 30
0.0
 10
201.242083
 20
237.357708
 30
0.0
 10
201.242083
 20
237.569375
 30
0.0
 10
201.268542
 20
237.781042
 30
0.0
  0
LWPOLYLINE
  5
212
100
AcDbEntity
  8
0
 62
7
100
AcDbPolyline
 90
2
 70
0
 10
197.511458
 20
234.050417
 30
0.0
 10
199.495833
 20
235.293958
 30
0.0
  0
SPLINE
  5
213
100
AcDbEntity
  8
0
 62
7
100
AcDbSpline
 70
8
 71
3
 72
8
 73
4
 74
0
 40
0
 40
0
 40
0
 40
0
 40
1
 40
1
 40
1
 40
1
 10
197.670208
 20
237.781042
 30
0.0
 10
197.326250
 20
237.781042
 30
0.0
 10
197.061667
 20
237.781042
 30
0.0
 10
196.797083
 20
237.781042
 30
0.0
  0
SPLINE
  5
214
100
AcDbEntity
  8
0
 62
7
100
AcDbSpline
 70
8
 71
3
 72
8
 73
4
 74
0
 40
0
 40
0
 40
0
 40
0
 40
1
 40
1
 40
1
 40
1
 10
196.797083
 20
237.781042
 30
0.0
 10
196.558958
 20
237.781042
 30
0.0
 10
196.347292
 20
237.807500
 30
0.0
 10
196.188542
 20
237.833958
 30
0.0
  0
SPLINE
  5
215
100
AcDbEntity
  8
0
 62
7
100
AcDbSpline
 70
8
 71
3
 72
8
 73
4
 74
0
 40
0
 40
0
 40
0
 40
0
 40
1
 40
1
 40
1
 40
1
 10
196.188542
 20
237.833958
 30
0.0
 10
196.188542
 20
237.675208
 30
0.0
 10
196.215000
 20
237.542917
 30
0.0
 10
196.215000
 20
237.384167
 30
0.0
  0
SPLINE
  5
216
100
AcDbEntity
  8
0
 62
7
100
AcDbSpline
 70
8
 71
3
 72
8
 73
4
 74
0
 40
0
 40
0
 40
0
 40
0
 40
1
 40
1
 40
1
 40
1
 10
196.215000
 20
237.384167
 30
0.0
 10
196.215000
 20
237.225417
 30
0.0
 10
196.241458
 20
237.093125
 30
0.0
 10
196.241458
 20
236.934375
 30
0.0
  0
SPLINE
  5
217
100
AcDbEntity
  8
0
 62
7
100
AcDbSpline
 70
8
 71
3
 72
8
 73
4
 74
0
 40
0
 40
0
 40
0
 40
0
 40
1
 40
1
 40
1
 40
1
 10
196.241458
 20
236.934375
 30
0.0
 10
196.241458
 20
236.775625
 30
0.0
 10
196.267917
 20
236.643333
 30
0.0
 10
196.267917
 20
236.484583
 30
0.0
  0
LWPOLYLINE
  5
218
100
AcDbEntity
  8
0
 62
7
100
AcDbPolyline
 90
2
 70
0
 10
201.268542
 20
237.781042
 30
0.0
 10
197.670208
 20
237.781042
 30
0.0
  0
SPLINE
  5
219
100
AcDbEntity
  8
0
 62
7
100
AcDbSpline
 70
8
 71
3
 72
8
 73
4
 74
0
 40
0
 40
0
 40
0
 40
0
 40
1
 40
1
 40
1
 40
1
 10
202.035833
 20
236.696250
 30
0.0
 10
202.062292
 20
236.008333
 30
0.0
 10
202.168125
 20
235.426250
 30
0.0
 10
202.379792
 20
234.897083
 30
0.0
  0
SPLINE
  5
21a
100
AcDbEntity
  8
0
 62
7
100
AcDbSpline
 70
8
 71
3
 72
8
 73
4
 74
0
 40
0
 40
0
 40
0
 40
0
 40
1
 40
1
 40
1
 40
1
 10
202.379792
 20
234.897083
 30
0.0
 10
202.565000
 20
234.394375
 30
0.0
 10
202.882500
 20
233.971042
 30
0.0
 10
203.332292
 20
233.680000
 30
0.0
  0
SPLINE
  5
21b
100
AcDbEntity
  8
0
 62
7
100
AcDbSpline
 70
8
 71
3
 72
8
 73
4
 74
0
 40
0
 40
0
 40
0
 40
0
 40
1
 40
1
 40
1
 40
1
 10
203.332292
 20
233.680000
 30
0.0
 10
203.755625
 20
233.388958
 30
0.0
 10
204.337708
 20
233.230208
 30
0.0
 10
205.025625
 20
233.230208
 30
0.0
  0
SPLINE
  5
21c
100
AcDbEntity
  8
0
 62
7
100
AcDbSpline
 70
8
 71
3
 72
8
 73
4
 74
0
 40
0
 40
0
 40
0
 40
0
 40
1
 40
1
 40
1
 40
1
 10
205.025625
 20
233.230208
 30
0.0
 10
205.501875
 20
233.230208
 30
0.0
 10
205.898750
 20
233.283125
 30
0.0
 10
206.269167
 20
233.415417
 30
0.0
  0
SPLINE
  5
21d
100
AcDbEntity
  8
0
 62
7
100
AcDbSpline
 70
8
 71
3
 72
8
 73
4
 74
0
 40
0
 40
0
 40
0
 40
0
 40
1
 40
1
 40
1
 40
1
 10
206.269167
 20
233.415417
 30
0.0
 10
206.613125
 20
233.547708
 30
0.0
 10
206.904167
 20
233.732917
 30
0.0
 10
207.142292
 20
234.023958
 30
0.0
  0
SPLINE
  5
21e
100
AcDbEntity
  8
0
 62
7
100
AcDbSpline
 70
8
 71
3
 72
8
 73
4
 74
0
 40
0
 40
0
 40
0
 40
0
 40
1
 40
1
 40
1
 40
1
 10
207.142292
 20
234.023958
 30
0.0
 10
207.380417
 20
234.288542
 30
0.0
 10
207.565625
 20
234.632500
 30
0.0
 10
207.671458
 20
235.055833
 30
0.0
  0
SPLINE
  5
21f
100
AcDbEntity
  8
0
 62
7
100
AcDbSpline
 70
8
 71
3
 72
8
 73
4
 74
0
 40
0
 40
0
 40
0
 40
0
 40
1
 40
1
 40
1
 40
1
 10
207.671458
 20
235.055833
 30
0.0
 10
207.777292
 20
235.479167
 30
0.0
 10
207.856667
 20
235.981875
 30
0.0
 10
207.856667
 20
236.537500
 30
0.0
  0
SPLINE
  5
220
100
AcDbEntity
  8
0
 62
7
100
AcDbSpline
 70
8
 71
3
 72
8
 73
4
 74
0
 40
0
 40
0
 40
0
 40
0
 40
1
 40
1
 40
1
 40
1
 10
207.856667
 20
236.537500
 30
0.0
 10
207.856667
 20
236.987292
 30
0.0
 10
207.750833
 20
237.304792
 30
0.0
 10
207.592083
 20
237.490000
 30
0.0
  0
SPLINE
  5
221
100
AcDbEntity
  8
0
 62
7
100
AcDbSpline
 70
8
 71
3
 72
8
 73
4
 74
0
 40
0
 40
0
 40
0
 40
0
 40
1
 40
1
 40
1
 40
1
 10
207.592083
 20
237.490000
 30
0.0
 10
207.406875
 20
237.675208
 30
0.0
 10
207.142292
 20
237.754583
 30
0.0
 10
206.824792
 20
237.781042
 30
0.0
  0
SPLINE
  5
222
100
AcDbEntity
  8
0
 62
7
100
AcDbSpline
 70
8
 71
3
 72
8
 73
4
 74
0
 40
0
 40
0
 40
0
 40
0
 40
1
 40
1
 40
1
 40
1
 10
206.824792
 20
237.781042
 30
0.0
 10
206.507292
 20
237.807500
 30
0.0
 10
206.110417
 20
237.807500
 30
0.0
 10
205.660625
 20
237.807500
 30
0.0
  0
LWPOLYLINE
  5
223
100
AcDbEntity
  8
0
 62
7
100
AcDbPolyline
 90
4
 70
0
 10
196.267917
 20
236.484583
 30
0.0
 10
195.447708
 20
236.484583
 30
0.0
 10
195.447708
 20
240.717917
 30
0.0
 10
195.553542
 20
240.717917
 30
0.0
  0
SPLINE
  5
224
100
AcDbEntity
  8
0
 62
7
100
AcDbSpline
 70
8
 71
3
 72
8
 73
4
 74
0
 40
0
 40
0
 40
0
 40
0
 40
1
 40
1
 40
1
 40
1
 10
202.115208
 20
237.807500
 30
0.0
 10
202.115208
 20
237.622292
 30
0.0
 10
202.088750
 20
237.410625
 30
0.0
 10
202.088750
 20
237.251875
 30
0.0
  0
SPLINE
  5
225
100
AcDbEntity
  8
0
 62
7
100
AcDbSpline
 70
8
 71
3
 72
8
 73
4
 74
0
 40
0
 40
0
 40
0
 40
0
 40
1
 40
1
 40
1
 40
1
 10
202.088750
 20
237.251875
 30
0.0
 10
202.035833
 20
237.093125
 30
0.0
 10
202.035833
 20
236.907917
 30
0.0
 10
202.035833
 20
236.696250
 30
0.0
  0
LWPOLYLINE
  5
226
100
AcDbEntity
  8
0
 62
7
100
AcDbPolyline
 90
2
 70
0
 10
205.660625
 20
237.807500
 30
0.0
 10
202.115208
 20
237.807500
 30
0.0
  0
SPLINE
  5
227
100
AcDbEntity
  8
0
 62
7
100
AcDbSpline
 70
8
 71
3
 72
8
 73
4
 74
0
 40
0
 40
0
 40
0
 40
0
 40
1
 40
1
 40
1
 40
1
 10
195.262500
 20
222.937917
 30
0.0
 10
195.262500
 20
224.181458
 30
0.0
 10
195.527083
 20
225.266250
 30
0.0
 10
196.029792
 20
226.218750
 30
0.0
  0
SPLINE
  5
228
100
AcDbEntity
  8
0
 62
7
100
AcDbSpline
 70
8
 71
3
 72
8
 73
4
 74
0
 40
0
 40
0
 40
0
 40
0
 40
1
 40
1
 40
1
 40
1
 10
196.029792
 20
226.218750
 30
0.0
 10
196.558958
 20
227.171250
 30
0.0
 10
197.299792
 20
227.912083
 30
0.0
 10
198.278750
 20
228.441250
 30
0.0
  0
SPLINE
  5
229
100
AcDbEntity
  8
0
 62
7
100
AcDbSpline
 70
8
 71
3
 72
8
 73
4
 74
0
 40
0
 40
0
 40
0
 40
0
 40
1
 40
1
 40
1
 40
1
 10
198.278750
 20
228.441250
 30
0.0
 10
199.257708
 20
228.970417
 30
0.0
 10
200.421875
 20
229.235000
 30
0.0
 10
201.771250
 20
229.235000
 30
0.0
  0
SPLINE
  5
22a
100
AcDbEntity
  8
0
 62
7
100
AcDbSpline
 70
8
 71
3
 72
8
 73
4
 74
0
 40
0
 40
0
 40
0
 40
0
 40
1
 40
1
 40
1
 40
1
 10
201.771250
 20
229.235000
 30
0.0
 10
202.644375
 20
229.235000
 30
0.0
 10
203.491042
 20
229.102708
 30
0.0
 10
204.337708
 20
228.838125
 30
0.0
  0
SPLINE
  5
22b
100
AcDbEntity
  8
0
 62
7
100
AcDbSpline
 70
8
 71
3
 72
8
 73
4
 74
0
 40
0
 40
0
 40
0
 40
0
 40
1
 40
1
 40
1
 40
1
 10
204.337708
 20
228.838125
 30
0.0
 10
205.184375
 20
228.573542
 30
0.0
 10
205.925208
 20
228.176667
 30
0.0
 10
206.613125
 20
227.647500
 30
0.0
  0
SPLINE
  5
22c
100
AcDbEntity
  8
0
 62
7
100
AcDbSpline
 70
8
 71
3
 72
8
 73
4
 74
0
 40
0
 40
0
 40
0
 40
0
 40
1
 40
1
 40
1
 40
1
 10
206.613125
 20
227.647500
 30
0.0
 10
207.301042
 20
227.118333
 30
0.0
 10
207.830208
 20
226.430417
 30
0.0
 10
208.227083
 20
225.636667
 30
0.0
  0
SPLINE
  5
22d
100
AcDbEntity
  8
0
 62
7
100
AcDbSpline
 70
8
 71
3
 72
8
 73
4
 74
0
 40
0
 40
0
 40
0
 40
0
 40
1
 40
1
 40
1
 40
1
 10
208.227083
 20
225.636667
 30
0.0
 10
208.623958
 20
224.842917
 30
0.0
 10
208.835625
 20
223.890417
 30
0.0
 10
208.835625
 20
222.805625
 30
0.0
  0
SPLINE
  5
22e
100
AcDbEntity
  8
0
 62
7
100
AcDbSpline
 70
8
 71
3
 72
8
 73
4
 74
0
 40
0
 40
0
 40
0
 40
0
 40
1
 40
1
 40
1
 40
1
 10
208.835625
 20
222.805625
 30
0.0
 10
208.835625
 20
222.355833
 30
0.0
 10
208.782708
 20
221.906042
 30
0.0
 10
208.703333
 20
221.456250
 30
0.0
  0
SPLINE
  5
22f
100
AcDbEntity
  8
0
 62
7
100
AcDbSpline
 70
8
 71
3
 72
8
 73
4
 74
0
 40
0
 40
0
 40
0
 40
0
 40
1
 40
1
 40
1
 40
1
 10
208.703333
 20
221.456250
 30
0.0
 10
208.623958
 20
221.006458
 30
0.0
 10
208.518125
 20
220.556667
 30
0.0
 10
208.359375
 20
220.133333
 30
0.0
  0
SPLINE
  5
230
100
AcDbEntity
  8
0
 62
7
100
AcDbSpline
 70
8
 71
3
 72
8
 73
4
 74
0
 40
0
 40
0
 40
0
 40
0
 40
1
 40
1
 40
1
 40
1
 10
208.359375
 20
220.133333
 30
0.0
 10
208.200625
 20
219.710000
 30
0.0
 10
208.015417
 20
219.313125
 30
0.0
 10
207.803750
 20
218.969167
 30
0.0
  0
LWPOLYLINE
  5
231
100
AcDbEntity
  8
0
 62
7
100
AcDbPolyline
 90
1
 70
1
 10
202.035833
 20
236.696250
 30
0.0
  0
SPLINE
  5
232
100
AcDbEntity
  8
0
 62
7
100
AcDbSpline
 70
8
 71
3
 72
8
 73
4
 74
0
 40
0
 40
0
 40
0
 40
0
 40
1
 40
1
 40
1
 40
1
 10
204.470000
 20
218.704583
 30
0.0
 10
205.237292
 20
218.757500
 30
0.0
 10
205.898750
 20
218.969167
 30
0.0
 10
206.454375
 20
219.313125
 30
0.0
  0
SPLINE
  5
233
100
AcDbEntity
  8
0
 62
7
100
AcDbSpline
 70
8
 71
3
 72
8
 73
4
 74
0
 40
0
 40
0
 40
0
 40
0
 40
1
 40
1
 40
1
 40
1
 10
206.454375
 20
219.313125
 30
0.0
 10
206.983542
 20
219.683542
 30
0.0
 10
207.406875
 20
220.159792
 30
0.0
 10
207.697917
 20
220.741875
 30
0.0
  0
SPLINE
  5
234
100
AcDbEntity
  8
0
 62
7
100
AcDbSpline
 70
8
 71
3
 72
8
 73
4
 74
0
 40
0
 40
0
 40
0
 40
0
 40
1
 40
1
 40
1
 40
1
 10
207.697917
 20
220.741875
 30
0.0
 10
207.988958
 20
221.323958
 30
0.0
 10
208.121250
 20
221.958958
 30
0.0
 10
208.121250
 20
222.699792
 30
0.0
  0
SPLINE
  5
235
100
AcDbEntity
  8
0
 62
7
100
AcDbSpline
 70
8
 71
3
 72
8
 73
4
 74
0
 40
0
 40
0
 40
0
 40
0
 40
1
 40
1
 40
1
 40
1
 10
208.121250
 20
222.699792
 30
0.0
 10
208.121250
 20
223.361250
 30
0.0
 10
207.988958
 20
223.969792
 30
0.0
 10
207.697917
 20
224.551875
 30
0.0
  0
SPLINE
  5
236
100
AcDbEntity
  8
0
 62
7
100
AcDbSpline
 70
8
 71
3
 72
8
 73
4
 74
0
 40
0
 40
0
 40
0
 40
0
 40
1
 40
1
 40
1
 40
1
 10
207.697917
 20
224.551875
 30
0.0
 10
207.406875
 20
225.133958
 30
0.0
 10
207.010000
 20
225.636667
 30
0.0
 10
206.480833
 20
226.060000
 30
0.0
  0
SPLINE
  5
237
100
AcDbEntity
  8
0
 62
7
100
AcDbSpline
 70
8
 71
3
 72
8
 73
4
 74
0
 40
0
 40
0
 40
0
 40
0
 40
1
 40
1
 40
1
 40
1
 10
206.480833
 20
226.060000
 30
0.0
 10
205.951667
 20
226.483333
 30
0.0
 10
205.343125
 20
226.853750
 30
0.0
 10
204.628750
 20
227.091875
 30
0.0
  0
SPLINE
  5
238
100
AcDbEntity
  8
0
 62
7
100
AcDbSpline
 70
8
 71
3
 72
8
 73
4
 74
0
 40
0
 40
0
 40
0
 40
0
 40
1
 40
1
 40
1
 40
1
 10
204.628750
 20
227.091875
 30
0.0
 10
203.914375
 20
227.330000
 30
0.0
 10
203.120625
 20
227.462292
 30
0.0
 10
202.247500
 20
227.462292
 30
0.0
  0
SPLINE
  5
239
100
AcDbEntity
  8
0
 62
7
100
AcDbSpline
 70
8
 71
3
 72
8
 73
4
 74
0
 40
0
 40
0
 40
0
 40
0
 40
1
 40
1
 40
1
 40
1
 10
202.247500
 20
227.462292
 30
0.0
 10
201.083333
 20
227.462292
 30
0.0
 10
200.051458
 20
227.250625
 30
0.0
 10
199.125417
 20
226.827292
 30
0.0
  0
SPLINE
  5
23a
100
AcDbEntity
  8
0
 62
7
100
AcDbSpline
 70
8
 71
3
 72
8
 73
4
 74
0
 40
0
 40
0
 40
0
 40
0
 40
1
 40
1
 40
1
 40
1
 10
199.125417
 20
226.827292
 30
0.0
 10
198.199375
 20
226.403958
 30
0.0
 10
197.485000
 20
225.821875
 30
0.0
 10
196.982292
 20
225.081042
 30
0.0
  0
SPLINE
  5
23b
100
AcDbEntity
  8
0
 62
7
100
AcDbSpline
 70
8
 71
3
 72
8
 73
4
 74
0
 40
0
 40
0
 40
0
 40
0
 40
1
 40
1
 40
1
 40
1
 10
196.982292
 20
225.081042
 30
0.0
 10
196.479583
 20
224.340208
 30
0.0
 10
196.215000
 20
223.467083
 30
0.0
 10
196.215000
 20
222.488125
 30
0.0
  0
SPLINE
  5
23c
100
AcDbEntity
  8
0
 62
7
100
AcDbSpline
 70
8
 71
3
 72
8
 73
4
 74
0
 40
0
 40
0
 40
0
 40
0
 40
1
 40
1
 40
1
 40
1
 10
196.215000
 20
222.488125
 30
0.0
 10
196.215000
 20
222.144167
 30
0.0
 10
196.241458
 20
221.800208
 30
0.0
 10
196.294375
 20
221.429792
 30
0.0
  0
SPLINE
  5
23d
100
AcDbEntity
  8
0
 62
7
100
AcDbSpline
 70
8
 71
3
 72
8
 73
4
 74
0
 40
0
 40
0
 40
0
 40
0
 40
1
 40
1
 40
1
 40
1
 10
196.294375
 20
221.429792
 30
0.0
 10
196.347292
 20
221.059375
 30
0.0
 10
196.453125
 20
220.688958
 30
0.0
 10
196.611875
 20
220.345000
 30
0.0
  0
SPLINE
  5
23e
100
AcDbEntity
  8
0
 62
7
100
AcDbSpline
 70
8
 71
3
 72
8
 73
4
 74
0
 40
0
 40
0
 40
0
 40
0
 40
1
 40
1
 40
1
 40
1
 10
196.611875
 20
220.345000
 30
0.0
 10
196.744167
 20
219.974583
 30
0.0
 10
196.929375
 20
219.630625
 30
0.0
 10
197.141042
 20
219.313125
 30
0.0
  0
LWPOLYLINE
  5
23f
100
AcDbEntity
  8
0
 62
7
100
AcDbPolyline
 90
5
 70
0
 10
207.803750
 20
218.969167
 30
0.0
 10
208.703333
 20
219.048542
 30
0.0
 10
208.703333
 20
218.043125
 30
0.0
 10
204.470000
 20
218.043125
 30
0.0
 10
204.470000
 20
218.704583
 30
0.0
  0
SPLINE
  5
240
100
AcDbEntity
  8
0
 62
7
100
AcDbSpline
 70
8
 71
3
 72
8
 73
4
 74
0
 40
0
 40
0
 40
0
 40
0
 40
1
 40
1
 40
1
 40
1
 10
199.390000
 20
219.313125
 30
0.0
 10
199.681042
 20
219.313125
 30
0.0
 10
199.998542
 20
219.313125
 30
0.0
 10
200.289583
 20
219.313125
 30
0.0
  0
SPLINE
  5
241
100
AcDbEntity
  8
0
 62
7
100
AcDbSpline
 70
8
 71
3
 72
8
 73
4
 74
0
 40
0
 40
0
 40
0
 40
0
 40
1
 40
1
 40
1
 40
1
 10
200.289583
 20
219.313125
 30
0.0
 10
200.580625
 20
219.313125
 30
0.0
 10
200.898125
 20
219.313125
 30
0.0
 10
201.189167
 20
219.313125
 30
0.0
  0
SPLINE
  5
242
100
AcDbEntity
  8
0
 62
7
100
AcDbSpline
 70
8
 71
3
 72
8
 73
4
 74
0
 40
0
 40
0
 40
0
 40
0
 40
1
 40
1
 40
1
 40
1
 10
201.189167
 20
219.313125
 30
0.0
 10
201.189167
 20
219.524792
 30
0.0
 10
201.162708
 20
219.736458
 30
0.0
 10
201.162708
 20
219.974583
 30
0.0
  0
SPLINE
  5
243
100
AcDbEntity
  8
0
 62
7
100
AcDbSpline
 70
8
 71
3
 72
8
 73
4
 74
0
 40
0
 40
0
 40
0
 40
0
 40
1
 40
1
 40
1
 40
1
 10
201.162708
 20
219.974583
 30
0.0
 10
201.162708
 20
220.186250
 30
0.0
 10
201.136250
 20
220.424375
 30
0.0
 10
201.136250
 20
220.609583
 30
0.0
  0
LWPOLYLINE
  5
244
100
AcDbEntity
  8
0
 62
7
100
AcDbPolyline
 90
2
 70
0
 10
197.141042
 20
219.313125
 30
0.0
 10
199.390000
 20
219.313125
 30
0.0
  0
SPLINE
  5
245
100
AcDbEntity
  8
0
 62
7
100
AcDbSpline
 70
8
 71
3
 72
8
 73
4
 74
0
 40
0
 40
0
 40
0
 40
0
 40
1
 40
1
 40
1
 40
1
 10
201.347917
 20
216.429167
 30
0.0
 10
201.347917
 20
216.773125
 30
0.0
 10
201.268542
 20
217.037708
 30
0.0
 10
201.083333
 20
217.222917
 30
0.0
  0
SPLINE
  5
246
100
AcDbEntity
  8
0
 62
7
100
AcDbSpline
 70
8
 71
3
 72
8
 73
4
 74
0
 40
0
 40
0
 40
0
 40
0
 40
1
 40
1
 40
1
 40
1
 10
201.083333
 20
217.222917
 30
0.0
 10
200.898125
 20
217.408125
 30
0.0
 10
200.686458
 20
217.540417
 30
0.0
 10
200.421875
 20
217.619792
 30
0.0
  0
SPLINE
  5
247
100
AcDbEntity
  8
0
 62
7
100
AcDbSpline
 70
8
 71
3
 72
8
 73
4
 74
0
 40
0
 40
0
 40
0
 40
0
 40
1
 40
1
 40
1
 40
1
 10
200.421875
 20
217.619792
 30
0.0
 10
200.157292
 20
217.699167
 30
0.0
 10
199.919167
 20
217.725625
 30
0.0
 10
199.681042
 20
217.752083
 30
0.0
  0
SPLINE
  5
248
100
AcDbEntity
  8
0
 62
7
100
AcDbSpline
 70
8
 71
3
 72
8
 73
4
 74
0
 40
0
 40
0
 40
0
 40
0
 40
1
 40
1
 40
1
 40
1
 10
199.681042
 20
217.752083
 30
0.0
 10
199.442917
 20
217.752083
 30
0.0
 10
199.257708
 20
217.778542
 30
0.0
 10
199.125417
 20
217.778542
 30
0.0
  0
LWPOLYLINE
  5
249
100
AcDbEntity
  8
0
 62
7
100
AcDbPolyline
 90
4
 70
0
 10
201.136250
 20
220.609583
 30
0.0
 10
201.956458
 20
220.609583
 30
0.0
 10
201.956458
 20
216.429167
 30
0.0
 10
201.347917
 20
216.429167
 30
0.0
  0
SPLINE
  5
24a
100
AcDbEntity
  8
0
 62
7
100
AcDbSpline
 70
8
 71
3
 72
8
 73
4
 74
0
 40
0
 40
0
 40
0
 40
0
 40
1
 40
1
 40
1
 40
1
 10
196.294375
 20
218.281250
 30
0.0
 10
196.294375
 20
218.466458
 30
0.0
 10
196.267917
 20
218.757500
 30
0.0
 10
196.188542
 20
219.101458
 30
0.0
  0
SPLINE
  5
24b
100
AcDbEntity
  8
0
 62
7
100
AcDbSpline
 70
8
 71
3
 72
8
 73
4
 74
0
 40
0
 40
0
 40
0
 40
0
 40
1
 40
1
 40
1
 40
1
 10
196.188542
 20
219.101458
 30
0.0
 10
196.109167
 20
219.445417
 30
0.0
 10
196.003333
 20
219.842292
 30
0.0
 10
195.818125
 20
220.292083
 30
0.0
  0
SPLINE
  5
24c
100
AcDbEntity
  8
0
 62
7
100
AcDbSpline
 70
8
 71
3
 72
8
 73
4
 74
0
 40
0
 40
0
 40
0
 40
0
 40
1
 40
1
 40
1
 40
1
 10
195.818125
 20
220.292083
 30
0.0
 10
195.659375
 20
220.662500
 30
0.0
 10
195.553542
 20
221.112292
 30
0.0
 10
195.474167
 20
221.615000
 30
0.0
  0
SPLINE
  5
24d
100
AcDbEntity
  8
0
 62
7
100
AcDbSpline
 70
8
 71
3
 72
8
 73
4
 74
0
 40
0
 40
0
 40
0
 40
0
 40
1
 40
1
 40
1
 40
1
 10
195.474167
 20
221.615000
 30
0.0
 10
195.315417
 20
222.091250
 30
0.0
 10
195.262500
 20
222.541042
 30
0.0
 10
195.262500
 20
222.937917
 30
0.0
  0
LWPOLYLINE
  5
24e
100
AcDbEntity
  8
0
 62
7
100
AcDbPolyline
 90
3
 70
0
 10
199.125417
 20
217.778542
 30
0.0
 10
196.294375
 20
217.778542
 30
0.0
 10
196.294375
 20
218.281250
 30
0.0
  0
SPLINE
  5
24f
100
AcDbEntity
  8
0
 62
7
100
AcDbSpline
 70
8
 71
3
 72
8
 73
4
 74
0
 40
0
 40
0
 40
0
 40
0
 40
1
 40
1
 40
1
 40
1
 10
200.368958
 20
208.571042
 30
0.0
 10
200.924583
 20
208.571042
 30
0.0
 10
201.295000
 20
208.650417
 30
0.0
 10
201.533125
 20
208.782708
 30
0.0
  0
SPLINE
  5
250
100
AcDbEntity
  8
0
 62
7
100
AcDbSpline
 70
8
 71
3
 72
8
 73
4
 74
0
 40
0
 40
0
 40
0
 40
0
 40
1
 40
1
 40
1
 40
1
 10
201.533125
 20
208.782708
 30
0.0
 10
201.771250
 20
208.941458
 30
0.0
 10
201.903542
 20
209.153125
 30
0.0
 10
201.956458
 20
209.497083
 30
0.0
  0
SPLINE
  5
251
100
AcDbEntity
  8
0
 62
7
100
AcDbSpline
 70
8
 71
3
 72
8
 73
4
 74
0
 40
0
 40
0
 40
0
 40
0
 40
1
 40
1
 40
1
 40
1
 10
201.956458
 20
209.497083
 30
0.0
 10
202.009375
 20
209.814583
 30
0.0
 10
202.009375
 20
210.237917
 30
0.0
 10
201.982917
 20
210.767083
 30
0.0
  0
LWPOLYLINE
  5
252
100
AcDbEntity
  8
0
 62
7
100
AcDbPolyline
 90
1
 70
1
 10
195.262500
 20
222.937917
 30
0.0
  0
SPLINE
  5
253
100
AcDbEntity
  8
0
 62
7
100
AcDbSpline
 70
8
 71
3
 72
8
 73
4
 74
0
 40
0
 40
0
 40
0
 40
0
 40
1
 40
1
 40
1
 40
1
 10
197.696667
 20
212.116458
 30
0.0
 10
197.352708
 20
212.116458
 30
0.0
 10
197.088125
 20
212.116458
 30
0.0
 10
196.850000
 20
212.116458
 30
0.0
  0
SPLINE
  5
254
100
AcDbEntity
  8
0
 62
7
100
AcDbSpline
 70
8
 71
3
 72
8
 73
4
 74
0
 40
0
 40
0
 40
0
 40
0
 40
1
 40
1
 40
1
 40
1
 10
196.850000
 20
212.116458
 30
0.0
 10
196.611875
 20
212.116458
 30
0.0
 10
196.426667
 20
212.142917
 30
0.0
 10
196.267917
 20
212.169375
 30
0.0
  0
LWPOLYLINE
  5
255
100
AcDbEntity
  8
0
 62
7
100
AcDbPolyline
 90
3
 70
0
 10
201.982917
 20
210.767083
 30
0.0
 10
201.930000
 20
212.116458
 30
0.0
 10
197.696667
 20
212.116458
 30
0.0
  0
SPLINE
  5
256
100
AcDbEntity
  8
0
 62
7
100
AcDbSpline
 70
8
 71
3
 72
8
 73
4
 74
0
 40
0
 40
0
 40
0
 40
0
 40
1
 40
1
 40
1
 40
1
 10
196.320833
 20
208.623958
 30
0.0
 10
196.320833
 20
208.068333
 30
0.0
 10
196.426667
 20
207.618542
 30
0.0
 10
196.585417
 20
207.221667
 30
0.0
  0
SPLINE
  5
257
100
AcDbEntity
  8
0
 62
7
100
AcDbSpline
 70
8
 71
3
 72
8
 73
4
 74
0
 40
0
 40
0
 40
0
 40
0
 40
1
 40
1
 40
1
 40
1
 10
196.585417
 20
207.221667
 30
0.0
 10
196.744167
 20
206.824792
 30
0.0
 10
197.035208
 20
206.507292
 30
0.0
 10
197.458542
 20
206.295625
 30
0.0
  0
SPLINE
  5
258
100
AcDbEntity
  8
0
 62
7
100
AcDbSpline
 70
8
 71
3
 72
8
 73
4
 74
0
 40
0
 40
0
 40
0
 40
0
 40
1
 40
1
 40
1
 40
1
 10
197.458542
 20
206.295625
 30
0.0
 10
197.881875
 20
206.083958
 30
0.0
 10
198.463958
 20
205.951667
 30
0.0
 10
199.178333
 20
205.951667
 30
0.0
  0
LWPOLYLINE
  5
259
100
AcDbEntity
  8
0
 62
7
100
AcDbPolyline
 90
2
 70
0
 10
196.267917
 20
212.169375
 30
0.0
 10
196.320833
 20
208.623958
 30
0.0
  0
SPLINE
  5
25a
100
AcDbEntity
  8
0
 62
7
100
AcDbSpline
 70
8
 71
3
 72
8
 73
4
 74
0
 40
0
 40
0
 40
0
 40
0
 40
1
 40
1
 40
1
 40
1
 10
196.162083
 20
214.973958
 30
0.0
 10
196.188542
 20
214.497708
 30
0.0
 10
196.294375
 20
214.180208
 30
0.0
 10
196.479583
 20
214.021458
 30
0.0
  0
SPLINE
  5
25b
100
AcDbEntity
  8
0
 62
7
100
AcDbSpline
 70
8
 71
3
 72
8
 73
4
 74
0
 40
0
 40
0
 40
0
 40
0
 40
1
 40
1
 40
1
 40
1
 10
196.479583
 20
214.021458
 30
0.0
 10
196.664792
 20
213.836250
 30
0.0
 10
196.929375
 20
213.756875
 30
0.0
 10
197.273333
 20
213.730417
 30
0.0
  0
SPLINE
  5
25c
100
AcDbEntity
  8
0
 62
7
100
AcDbSpline
 70
8
 71
3
 72
8
 73
4
 74
0
 40
0
 40
0
 40
0
 40
0
 40
1
 40
1
 40
1
 40
1
 10
197.273333
 20
213.730417
 30
0.0
 10
197.617292
 20
213.703958
 30
0.0
 10
197.987708
 20
213.703958
 30
0.0
 10
198.437500
 20
213.703958
 30
0.0
  0
LWPOLYLINE
  5
25d
100
AcDbEntity
  8
0
 62
7
100
AcDbPolyline
 90
5
 70
0
 10
199.178333
 20
205.951667
 30
0.0
 10
199.178333
 20
205.316667
 30
0.0
 10
195.553542
 20
205.422500
 30
0.0
 10
195.553542
 20
214.973958
 30
0.0
 10
196.162083
 20
214.973958
 30
0.0
  0
SPLINE
  5
25e
100
AcDbEntity
  8
0
 62
7
100
AcDbSpline
 70
8
 71
3
 72
8
 73
4
 74
0
 40
0
 40
0
 40
0
 40
0
 40
1
 40
1
 40
1
 40
1
 10
206.427917
 20
213.703958
 30
0.0
 10
206.666042
 20
213.703958
 30
0.0
 10
206.904167
 20
213.703958
 30
0.0
 10
207.142292
 20
213.677500
 30
0.0
  0
SPLINE
  5
25f
100
AcDbEntity
  8
0
 62
7
100
AcDbSpline
 70
8
 71
3
 72
8
 73
4
 74
0
 40
0
 40
0
 40
0
 40
0
 40
1
 40
1
 40
1
 40
1
 10
207.142292
 20
213.677500
 30
0.0
 10
207.380417
 20
213.677500
 30
0.0
 10
207.565625
 20
213.651042
 30
0.0
 10
207.750833
 20
213.651042
 30
0.0
  0
SPLINE
  5
260
100
AcDbEntity
  8
0
 62
7
100
AcDbSpline
 70
8
 71
3
 72
8
 73
4
 74
0
 40
0
 40
0
 40
0
 40
0
 40
1
 40
1
 40
1
 40
1
 10
207.750833
 20
213.651042
 30
0.0
 10
207.750833
 20
213.862708
 30
0.0
 10
207.724375
 20
214.100833
 30
0.0
 10
207.724375
 20
214.312500
 30
0.0
  0
SPLINE
  5
261
100
AcDbEntity
  8
0
 62
7
100
AcDbSpline
 70
8
 71
3
 72
8
 73
4
 74
0
 40
0
 40
0
 40
0
 40
0
 40
1
 40
1
 40
1
 40
1
 10
207.724375
 20
214.312500
 30
0.0
 10
207.724375
 20
214.524167
 30
0.0
 10
207.697917
 20
214.762292
 30
0.0
 10
207.697917
 20
214.973958
 30
0.0
  0
LWPOLYLINE
  5
262
100
AcDbEntity
  8
0
 62
7
100
AcDbPolyline
 90
2
 70
0
 10
198.437500
 20
213.703958
 30
0.0
 10
206.427917
 20
213.703958
 30
0.0
  0
SPLINE
  5
263
100
AcDbEntity
  8
0
 62
7
100
AcDbSpline
 70
8
 71
3
 72
8
 73
4
 74
0
 40
0
 40
0
 40
0
 40
0
 40
1
 40
1
 40
1
 40
1
 10
205.290208
 20
206.560208
 30
0.0
 10
206.031042
 20
206.560208
 30
0.0
 10
206.560208
 20
206.666042
 30
0.0
 10
206.957083
 20
206.904167
 30
0.0
  0
SPLINE
  5
264
100
AcDbEntity
  8
0
 62
7
100
AcDbSpline
 70
8
 71
3
 72
8
 73
4
 74
0
 40
0
 40
0
 40
0
 40
0
 40
1
 40
1
 40
1
 40
1
 10
206.957083
 20
206.904167
 30
0.0
 10
207.327500
 20
207.115833
 30
0.0
 10
207.592083
 20
207.433333
 30
0.0
 10
207.724375
 20
207.803750
 30
0.0
  0
SPLINE
  5
265
100
AcDbEntity
  8
0
 62
7
100
AcDbSpline
 70
8
 71
3
 72
8
 73
4
 74
0
 40
0
 40
0
 40
0
 40
0
 40
1
 40
1
 40
1
 40
1
 10
207.724375
 20
207.803750
 30
0.0
 10
207.856667
 20
208.174167
 30
0.0
 10
207.909583
 20
208.597500
 30
0.0
 10
207.909583
 20
209.073750
 30
0.0
  0
LWPOLYLINE
  5
266
100
AcDbEntity
  8
0
 62
7
100
AcDbPolyline
 90
5
 70
0
 10
207.697917
 20
214.973958
 30
0.0
 10
208.518125
 20
214.973958
 30
0.0
 10
208.518125
 20
206.057500
 30
0.0
 10
205.290208
 20
205.951667
 30
0.0
 10
205.290208
 20
206.560208
 30
0.0
  0
SPLINE
  5
267
100
AcDbEntity
  8
0
 62
7
100
AcDbSpline
 70
8
 71
3
 72
8
 73
4
 74
0
 40
0
 40
0
 40
0
 40
0
 40
1
 40
1
 40
1
 40
1
 10
207.883125
 20
210.661250
 30
0.0
 10
207.883125
 20
211.111042
 30
0.0
 10
207.777292
 20
211.455000
 30
0.0
 10
207.618542
 20
211.640208
 30
0.0
  0
SPLINE
  5
268
100
AcDbEntity
  8
0
 62
7
100
AcDbSpline
 70
8
 71
3
 72
8
 73
4
 74
0
 40
0
 40
0
 40
0
 40
0
 40
1
 40
1
 40
1
 40
1
 10
207.618542
 20
211.640208
 30
0.0
 10
207.459792
 20
211.825417
 30
0.0
 10
207.221667
 20
211.957708
 30
0.0
 10
206.904167
 20
212.010625
 30
0.0
  0
SPLINE
  5
269
100
AcDbEntity
  8
0
 62
7
100
AcDbSpline
 70
8
 71
3
 72
8
 73
4
 74
0
 40
0
 40
0
 40
0
 40
0
 40
1
 40
1
 40
1
 40
1
 10
206.904167
 20
212.010625
 30
0.0
 10
206.586667
 20
212.063542
 30
0.0
 10
206.189792
 20
212.063542
 30
0.0
 10
205.660625
 20
212.063542
 30
0.0
  0
LWPOLYLINE
  5
26a
100
AcDbEntity
  8
0
 62
7
100
AcDbPolyline
 90
2
 70
0
 10
207.909583
 20
209.073750
 30
0.0
 10
207.883125
 20
210.661250
 30
0.0
  0
SPLINE
  5
26b
100
AcDbEntity
  8
0
 62
7
100
AcDbSpline
 70
8
 71
3
 72
8
 73
4
 74
0
 40
0
 40
0
 40
0
 40
0
 40
1
 40
1
 40
1
 40
1
 10
176.821042
 20
290.988750
 30
0.0
 10
177.376667
 20
290.988750
 30
0.0
 10
177.747083
 20
291.068125
 30
0.0
 10
177.985208
 20
291.200417
 30
0.0
  0
SPLINE
  5
26c
100
AcDbEntity
  8
0
 62
7
100
AcDbSpline
 70
8
 71
3
 72
8
 73
4
 74
0
 40
0
 40
0
 40
0
 40
0
 40
1
 40
1
 40
1
 40
1
 10
177.985208
 20
291.200417
 30
0.0
 10
178.223333
 20
291.359167
 30
0.0
 10
178.355625
 20
291.570833
 30
0.0
 10
178.408542
 20
291.914792
 30
0.0
  0
SPLINE
  5
26d
100
AcDbEntity
  8
0
 62
7
100
AcDbSpline
 70
8
 71
3
 72
8
 73
4
 74
0
 40
0
 40
0
 40
0
 40
0
 40
1
 40
1
 40
1
 40
1
 10
178.408542
 20
291.914792
 30
0.0
 10
178.461458
 20
292.232292
 30
0.0
 10
178.461458
 20
292.655625
 30
0.0
 10
178.435000
 20
293.184792
 30
0.0
  0
LWPOLYLINE
  5
26e
100
AcDbEntity
  8
0
 62
7
100
AcDbPolyline
 90
8
 70
0
 10
205.660625
 20
212.063542
 30
0.0
 10
202.670833
 20
212.063542
 30
0.0
 10
202.644375
 20
208.571042
 30
0.0
 10
204.231875
 20
208.703333
 30
0.0
 10
204.231875
 20
207.883125
 30
0.0
 10
200.342500
 20
207.883125
 30
0.0
 10
200.342500
 20
208.571042
 30
0.0
 10
200.368958
 20
208.571042
 30
0.0
  0
SPLINE
  5
26f
100
AcDbEntity
  8
0
 62
7
100
AcDbSpline
 70
8
 71
3
 72
8
 73
4
 74
0
 40
0
 40
0
 40
0
 40
0
 40
1
 40
1
 40
1
 40
1
 10
174.148750
 20
294.534167
 30
0.0
 10
173.804792
 20
294.534167
 30
0.0
 10
173.540208
 20
294.534167
 30
0.0
 10
173.302083
 20
294.534167
 30
0.0
  0
SPLINE
  5
270
100
AcDbEntity
  8
0
 62
7
100
AcDbSpline
 70
8
 71
3
 72
8
 73
4
 74
0
 40
0
 40
0
 40
0
 40
0
 40
1
 40
1
 40
1
 40
1
 10
173.302083
 20
294.534167
 30
0.0
 10
173.063958
 20
294.534167
 30
0.0
 10
172.878750
 20
294.560625
 30
0.0
 10
172.720000
 20
294.587083
 30
0.0
  0
LWPOLYLINE
  5
271
100
AcDbEntity
  8
0
 62
7
100
AcDbPolyline
 90
3
 70
0
 10
178.435000
 20
293.184792
 30
0.0
 10
178.382083
 20
294.534167
 30
0.0
 10
174.148750
 20
294.534167
 30
0.0
  0
SPLINE
  5
272
100
AcDbEntity
  8
0
 62
7
100
AcDbSpline
 70
8
 71
3
 72
8
 73
4
 74
0
 40
0
 40
0
 40
0
 40
0
 40
1
 40
1
 40
1
 40
1
 10
172.772917
 20
291.041667
 30
0.0
 10
172.772917
 20
290.486042
 30
0.0
 10
172.878750
 20
290.036250
 30
0.0
 10
173.037500
 20
289.639375
 30
0.0
  0
SPLINE
  5
273
100
AcDbEntity
  8
0
 62
7
100
AcDbSpline
 70
8
 71
3
 72
8
 73
4
 74
0
 40
0
 40
0
 40
0
 40
0
 40
1
 40
1
 40
1
 40
1
 10
173.037500
 20
289.639375
 30
0.0
 10
173.196250
 20
289.242500
 30
0.0
 10
173.487292
 20
288.925000
 30
0.0
 10
173.910625
 20
288.713333
 30
0.0
  0
SPLINE
  5
274
100
AcDbEntity
  8
0
 62
7
100
AcDbSpline
 70
8
 71
3
 72
8
 73
4
 74
0
 40
0
 40
0
 40
0
 40
0
 40
1
 40
1
 40
1
 40
1
 10
173.910625
 20
288.713333
 30
0.0
 10
174.333958
 20
288.501667
 30
0.0
 10
174.916042
 20
288.369375
 30
0.0
 10
175.630417
 20
288.369375
 30
0.0
  0
LWPOLYLINE
  5
275
100
AcDbEntity
  8
0
 62
7
100
AcDbPolyline
 90
2
 70
0
 10
172.720000
 20
294.587083
 30
0.0
 10
172.772917
 20
291.041667
 30
0.0
  0
SPLINE
  5
276
100
AcDbEntity
  8
0
 62
7
100
AcDbSpline
 70
8
 71
3
 72
8
 73
4
 74
0
 40
0
 40
0
 40
0
 40
0
 40
1
 40
1
 40
1
 40
1
 10
172.614167
 20
297.391667
 30
0.0
 10
172.640625
 20
296.915417
 30
0.0
 10
172.746458
 20
296.597917
 30
0.0
 10
172.931667
 20
296.439167
 30
0.0
  0
SPLINE
  5
277
100
AcDbEntity
  8
0
 62
7
100
AcDbSpline
 70
8
 71
3
 72
8
 73
4
 74
0
 40
0
 40
0
 40
0
 40
0
 40
1
 40
1
 40
1
 40
1
 10
172.931667
 20
296.439167
 30
0.0
 10
173.116875
 20
296.253958
 30
0.0
 10
173.381458
 20
296.174583
 30
0.0
 10
173.725417
 20
296.148125
 30
0.0
  0
SPLINE
  5
278
100
AcDbEntity
  8
0
 62
7
100
AcDbSpline
 70
8
 71
3
 72
8
 73
4
 74
0
 40
0
 40
0
 40
0
 40
0
 40
1
 40
1
 40
1
 40
1
 10
173.725417
 20
296.148125
 30
0.0
 10
174.069375
 20
296.121667
 30
0.0
 10
174.439792
 20
296.121667
 30
0.0
 10
174.889583
 20
296.121667
 30
0.0
  0
LWPOLYLINE
  5
279
100
AcDbEntity
  8
0
 62
7
100
AcDbPolyline
 90
5
 70
0
 10
175.630417
 20
288.369375
 30
0.0
 10
175.630417
 20
287.734375
 30
0.0
 10
172.005625
 20
287.840208
 30
0.0
 10
172.005625
 20
297.391667
 30
0.0
 10
172.614167
 20
297.391667
 30
0.0
  0
SPLINE
  5
27a
100
AcDbEntity
  8
0
 62
7
100
AcDbSpline
 70
8
 71
3
 72
8
 73
4
 74
0
 40
0
 40
0
 40
0
 40
0
 40
1
 40
1
 40
1
 40
1
 10
182.880000
 20
296.121667
 30
0.0
 10
183.118125
 20
296.121667
 30
0.0
 10
183.356250
 20
296.121667
 30
0.0
 10
183.594375
 20
296.095208
 30
0.0
  0
SPLINE
  5
27b
100
AcDbEntity
  8
0
 62
7
100
AcDbSpline
 70
8
 71
3
 72
8
 73
4
 74
0
 40
0
 40
0
 40
0
 40
0
 40
1
 40
1
 40
1
 40
1
 10
183.594375
 20
296.095208
 30
0.0
 10
183.832500
 20
296.095208
 30
0.0
 10
184.017708
 20
296.068750
 30
0.0
 10
184.202917
 20
296.068750
 30
0.0
  0
SPLINE
  5
27c
100
AcDbEntity
  8
0
 62
7
100
AcDbSpline
 70
8
 71
3
 72
8
 73
4
 74
0
 40
0
 40
0
 40
0
 40
0
 40
1
 40
1
 40
1
 40
1
 10
184.202917
 20
296.068750
 30
0.0
 10
184.202917
 20
296.280417
 30
0.0
 10
184.176458
 20
296.518542
 30
0.0
 10
184.176458
 20
296.730208
 30
0.0
  0
SPLINE
  5
27d
100
AcDbEntity
  8
0
 62
7
100
AcDbSpline
 70
8
 71
3
 72
8
 73
4
 74
0
 40
0
 40
0
 40
0
 40
0
 40
1
 40
1
 40
1
 40
1
 10
184.176458
 20
296.730208
 30
0.0
 10
184.176458
 20
296.941875
 30
0.0
 10
184.150000
 20
297.180000
 30
0.0
 10
184.150000
 20
297.391667
 30
0.0
  0
LWPOLYLINE
  5
27e
100
AcDbEntity
  8
0
 62
7
100
AcDbPolyline
 90
2
 70
0
 10
174.889583
 20
296.121667
 30
0.0
 10
182.880000
 20
296.121667
 30
0.0
  0
SPLINE
  5
27f
100
AcDbEntity
  8
0
 62
7
100
AcDbSpline
 70
8
 71
3
 72
8
 73
4
 74
0
 40
0
 40
0
 40
0
 40
0
 40
1
 40
1
 40
1
 40
1
 10
181.742292
 20
289.004375
 30
0.0
 10
182.483125
 20
289.004375
 30
0.0
 10
183.012292
 20
289.110208
 30
0.0
 10
183.409167
 20
289.348333
 30
0.0
  0
SPLINE
  5
280
100
AcDbEntity
  8
0
 62
7
100
AcDbSpline
 70
8
 71
3
 72
8
 73
4
 74
0
 40
0
 40
0
 40
0
 40
0
 40
1
 40
1
 40
1
 40
1
 10
183.409167
 20
289.348333
 30
0.0
 10
183.779583
 20
289.560000
 30
0.0
 10
184.044167
 20
289.877500
 30
0.0
 10
184.176458
 20
290.247917
 30
0.0
  0
SPLINE
  5
281
100
AcDbEntity
  8
0
 62
7
100
AcDbSpline
 70
8
 71
3
 72
8
 73
4
 74
0
 40
0
 40
0
 40
0
 40
0
 40
1
 40
1
 40
1
 40
1
 10
184.176458
 20
290.247917
 30
0.0
 10
184.308750
 20
290.618333
 30
0.0
 10
184.361667
 20
291.041667
 30
0.0
 10
184.361667
 20
291.517917
 30
0.0
  0
LWPOLYLINE
  5
282
100
AcDbEntity
  8
0
 62
7
100
AcDbPolyline
 90
5
 70
0
 10
184.150000
 20
297.391667
 30
0.0
 10
184.970208
 20
297.391667
 30
0.0
 10
184.970208
 20
288.475208
 30
0.0
 10
181.742292
 20
288.395833
 30
0.0
 10
181.742292
 20
289.004375
 30
0.0
  0
SPLINE
  5
283
100
AcDbEntity
  8
0
 62
7
100
AcDbSpline
 70
8
 71
3
 72
8
 73
4
 74
0
 40
0
 40
0
 40
0
 40
0
 40
1
 40
1
 40
1
 40
1
 10
184.335208
 20
293.105417
 30
0.0
 10
184.335208
 20
293.555208
 30
0.0
 10
184.229375
 20
293.899167
 30
0.0
 10
184.070625
 20
294.084375
 30
0.0
  0
SPLINE
  5
284
100
AcDbEntity
  8
0
 62
7
100
AcDbSpline
 70
8
 71
3
 72
8
 73
4
 74
0
 40
0
 40
0
 40
0
 40
0
 40
1
 40
1
 40
1
 40
1
 10
184.070625
 20
294.084375
 30
0.0
 10
183.911875
 20
294.269583
 30
0.0
 10
183.673750
 20
294.401875
 30
0.0
 10
183.356250
 20
294.454792
 30
0.0
  0
SPLINE
  5
285
100
AcDbEntity
  8
0
 62
7
100
AcDbSpline
 70
8
 71
3
 72
8
 73
4
 74
0
 40
0
 40
0
 40
0
 40
0
 40
1
 40
1
 40
1
 40
1
 10
183.356250
 20
294.454792
 30
0.0
 10
183.038750
 20
294.507708
 30
0.0
 10
182.641875
 20
294.507708
 30
0.0
 10
182.112708
 20
294.507708
 30
0.0
  0
LWPOLYLINE
  5
286
100
AcDbEntity
  8
0
 62
7
100
AcDbPolyline
 90
2
 70
0
 10
184.361667
 20
291.517917
 30
0.0
 10
184.335208
 20
293.105417
 30
0.0
  0
LWPOLYLINE
  5
287
100
AcDbEntity
  8
0
 62
7
100
AcDbPolyline
 90
8
 70
0
 10
182.112708
 20
294.507708
 30
0.0
 10
179.122917
 20
294.507708
 30
0.0
 10
179.096458
 20
291.015208
 30
0.0
 10
180.683958
 20
291.147500
 30
0.0
 10
180.683958
 20
290.327292
 30
0.0
 10
176.794583
 20
290.327292
 30
0.0
 10
176.794583
 20
290.988750
 30
0.0
 10
176.821042
 20
290.988750
 30
0.0
  0
SPLINE
  5
288
100
AcDbEntity
  8
0
 62
7
100
AcDbSpline
 70
8
 71
3
 72
8
 73
4
 74
0
 40
0
 40
0
 40
0
 40
0
 40
1
 40
1
 40
1
 40
1
 10
188.833125
 20
291.121042
 30
0.0
 10
189.044792
 20
290.882917
 30
0.0
 10
189.150625
 20
290.671250
 30
0.0
 10
189.177083
 20
290.486042
 30
0.0
  0
SPLINE
  5
289
100
AcDbEntity
  8
0
 62
7
100
AcDbSpline
 70
8
 71
3
 72
8
 73
4
 74
0
 40
0
 40
0
 40
0
 40
0
 40
1
 40
1
 40
1
 40
1
 10
189.177083
 20
290.486042
 30
0.0
 10
189.177083
 20
290.300833
 30
0.0
 10
189.150625
 20
290.168542
 30
0.0
 10
189.097708
 20
290.062708
 30
0.0
  0
SPLINE
  5
28a
100
AcDbEntity
  8
0
 62
7
100
AcDbSpline
 70
8
 71
3
 72
8
 73
4
 74
0
 40
0
 40
0
 40
0
 40
0
 40
1
 40
1
 40
1
 40
1
 10
189.097708
 20
290.062708
 30
0.0
 10
189.018333
 20
289.956875
 30
0.0
 10
188.965417
 20
289.903958
 30
0.0
 10
188.938958
 20
289.877500
 30
0.0
  0
SPLINE
  5
28b
100
AcDbEntity
  8
0
 62
7
100
AcDbSpline
 70
8
 71
3
 72
8
 73
4
 74
0
 40
0
 40
0
 40
0
 40
0
 40
1
 40
1
 40
1
 40
1
 10
188.938958
 20
289.877500
 30
0.0
 10
188.886042
 20
289.851042
 30
0.0
 10
188.806667
 20
289.798125
 30
0.0
 10
188.674375
 20
289.771667
 30
0.0
  0
SPLINE
  5
28c
100
AcDbEntity
  8
0
 62
7
100
AcDbSpline
 70
8
 71
3
 72
8
 73
4
 74
0
 40
0
 40
0
 40
0
 40
0
 40
1
 40
1
 40
1
 40
1
 10
188.674375
 20
289.771667
 30
0.0
 10
188.542083
 20
289.745208
 30
0.0
 10
188.409792
 20
289.771667
 30
0.0
 10
188.251042
 20
289.824583
 30
0.0
  0
SPLINE
  5
28d
100
AcDbEntity
  8
0
 62
7
100
AcDbSpline
 70
8
 71
3
 72
8
 73
4
 74
0
 40
0
 40
0
 40
0
 40
0
 40
1
 40
1
 40
1
 40
1
 10
188.251042
 20
289.824583
 30
0.0
 10
188.092292
 20
289.903958
 30
0.0
 10
187.933542
 20
290.062708
 30
0.0
 10
187.748333
 20
290.353750
 30
0.0
  0
LWPOLYLINE
  5
28e
100
AcDbEntity
  8
0
 62
7
100
AcDbPolyline
 90
3
 70
0
 10
186.081458
 20
293.052500
 30
0.0
 10
186.610625
 20
293.449375
 30
0.0
 10
188.833125
 20
291.121042
 30
0.0
  0
SPLINE
  5
28f
100
AcDbEntity
  8
0
 62
7
100
AcDbSpline
 70
8
 71
3
 72
8
 73
4
 74
0
 40
0
 40
0
 40
0
 40
0
 40
1
 40
1
 40
1
 40
1
 10
172.614167
 20
285.908750
 30
0.0
 10
172.640625
 20
285.432500
 30
0.0
 10
172.746458
 20
285.115000
 30
0.0
 10
172.931667
 20
284.956250
 30
0.0
  0
SPLINE
  5
290
100
AcDbEntity
  8
0
 62
7
100
AcDbSpline
 70
8
 71
3
 72
8
 73
4
 74
0
 40
0
 40
0
 40
0
 40
0
 40
1
 40
1
 40
1
 40
1
 10
172.931667
 20
284.956250
 30
0.0
 10
173.116875
 20
284.771042
 30
0.0
 10
173.381458
 20
284.691667
 30
0.0
 10
173.725417
 20
284.665208
 30
0.0
  0
SPLINE
  5
291
100
AcDbEntity
  8
0
 62
7
100
AcDbSpline
 70
8
 71
3
 72
8
 73
4
 74
0
 40
0
 40
0
 40
0
 40
0
 40
1
 40
1
 40
1
 40
1
 10
173.725417
 20
284.665208
 30
0.0
 10
174.069375
 20
284.638750
 30
0.0
 10
174.439792
 20
284.638750
 30
0.0
 10
174.889583
 20
284.638750
 30
0.0
  0
LWPOLYLINE
  5
292
100
AcDbEntity
  8
0
 62
7
100
AcDbPolyline
 90
3
 70
0
 10
187.748333
 20
290.353750
 30
0.0
 10
186.081458
 20
293.052500
 30
0.0
 10
186.081458
 20
293.052500
 30
0.0
  0
SPLINE
  5
293
100
AcDbEntity
  8
0
 62
7
100
AcDbSpline
 70
8
 71
3
 72
8
 73
4
 74
0
 40
0
 40
0
 40
0
 40
0
 40
1
 40
1
 40
1
 40
1
 10
182.880000
 20
284.638750
 30
0.0
 10
183.118125
 20
284.638750
 30
0.0
 10
183.356250
 20
284.638750
 30
0.0
 10
183.594375
 20
284.612292
 30
0.0
  0
SPLINE
  5
294
100
AcDbEntity
  8
0
 62
7
100
AcDbSpline
 70
8
 71
3
 72
8
 73
4
 74
0
 40
0
 40
0
 40
0
 40
0
 40
1
 40
1
 40
1
 40
1
 10
183.594375
 20
284.612292
 30
0.0
 10
183.832500
 20
284.612292
 30
0.0
 10
184.017708
 20
284.585833
 30
0.0
 10
184.202917
 20
284.585833
 30
0.0
  0
SPLINE
  5
295
100
AcDbEntity
  8
0
 62
7
100
AcDbSpline
 70
8
 71
3
 72
8
 73
4
 74
0
 40
0
 40
0
 40
0
 40
0
 40
1
 40
1
 40
1
 40
1
 10
184.202917
 20
284.585833
 30
0.0
 10
184.202917
 20
284.797500
 30
0.0
 10
184.176458
 20
285.035625
 30
0.0
 10
184.176458
 20
285.247292
 30
0.0
  0
SPLINE
  5
296
100
AcDbEntity
  8
0
 62
7
100
AcDbSpline
 70
8
 71
3
 72
8
 73
4
 74
0
 40
0
 40
0
 40
0
 40
0
 40
1
 40
1
 40
1
 40
1
 10
184.176458
 20
285.247292
 30
0.0
 10
184.176458
 20
285.458958
 30
0.0
 10
184.150000
 20
285.697083
 30
0.0
 10
184.150000
 20
285.908750
 30
0.0
  0
LWPOLYLINE
  5
297
100
AcDbEntity
  8
0
 62
7
100
AcDbPolyline
 90
2
 70
0
 10
174.889583
 20
284.638750
 30
0.0
 10
182.880000
 20
284.638750
 30
0.0
  0
SPLINE
  5
298
100
AcDbEntity
  8
0
 62
7
100
AcDbSpline
 70
8
 71
3
 72
8
 73
4
 74
0
 40
0
 40
0
 40
0
 40
0
 40
1
 40
1
 40
1
 40
1
 10
184.996667
 20
281.543125
 30
0.0
 10
184.996667
 20
280.431875
 30
0.0
 10
184.864375
 20
279.426458
 30
0.0
 10
184.599792
 20
278.500417
 30
0.0
  0
SPLINE
  5
299
100
AcDbEntity
  8
0
 62
7
100
AcDbSpline
 70
8
 71
3
 72
8
 73
4
 74
0
 40
0
 40
0
 40
0
 40
0
 40
1
 40
1
 40
1
 40
1
 10
184.599792
 20
278.500417
 30
0.0
 10
184.335208
 20
277.574375
 30
0.0
 10
183.938333
 20
276.780625
 30
0.0
 10
183.409167
 20
276.092708
 30
0.0
  0
SPLINE
  5
29a
100
AcDbEntity
  8
0
 62
7
100
AcDbSpline
 70
8
 71
3
 72
8
 73
4
 74
0
 40
0
 40
0
 40
0
 40
0
 40
1
 40
1
 40
1
 40
1
 10
183.409167
 20
276.092708
 30
0.0
 10
182.880000
 20
275.431250
 30
0.0
 10
182.192083
 20
274.902083
 30
0.0
 10
181.371875
 20
274.531667
 30
0.0
  0
SPLINE
  5
29b
100
AcDbEntity
  8
0
 62
7
100
AcDbSpline
 70
8
 71
3
 72
8
 73
4
 74
0
 40
0
 40
0
 40
0
 40
0
 40
1
 40
1
 40
1
 40
1
 10
181.371875
 20
274.531667
 30
0.0
 10
180.551667
 20
274.161250
 30
0.0
 10
179.572708
 20
273.976042
 30
0.0
 10
178.461458
 20
273.976042
 30
0.0
  0
SPLINE
  5
29c
100
AcDbEntity
  8
0
 62
7
100
AcDbSpline
 70
8
 71
3
 72
8
 73
4
 74
0
 40
0
 40
0
 40
0
 40
0
 40
1
 40
1
 40
1
 40
1
 10
178.461458
 20
273.976042
 30
0.0
 10
177.614792
 20
273.976042
 30
0.0
 10
176.794583
 20
274.134792
 30
0.0
 10
176.027292
 20
274.425833
 30
0.0
  0
SPLINE
  5
29d
100
AcDbEntity
  8
0
 62
7
100
AcDbSpline
 70
8
 71
3
 72
8
 73
4
 74
0
 40
0
 40
0
 40
0
 40
0
 40
1
 40
1
 40
1
 40
1
 10
176.027292
 20
274.425833
 30
0.0
 10
175.260000
 20
274.716875
 30
0.0
 10
174.572083
 20
275.166667
 30
0.0
 10
173.963542
 20
275.748750
 30
0.0
  0
SPLINE
  5
29e
100
AcDbEntity
  8
0
 62
7
100
AcDbSpline
 70
8
 71
3
 72
8
 73
4
 74
0
 40
0
 40
0
 40
0
 40
0
 40
1
 40
1
 40
1
 40
1
 10
173.963542
 20
275.748750
 30
0.0
 10
173.355000
 20
276.330833
 30
0.0
 10
172.878750
 20
277.071667
 30
0.0
 10
172.534792
 20
277.971250
 30
0.0
  0
SPLINE
  5
29f
100
AcDbEntity
  8
0
 62
7
100
AcDbSpline
 70
8
 71
3
 72
8
 73
4
 74
0
 40
0
 40
0
 40
0
 40
0
 40
1
 40
1
 40
1
 40
1
 10
172.534792
 20
277.971250
 30
0.0
 10
172.190833
 20
278.844375
 30
0.0
 10
172.005625
 20
279.876250
 30
0.0
 10
172.005625
 20
281.040417
 30
0.0
  0
LWPOLYLINE
  5
2a0
100
AcDbEntity
  8
0
 62
7
100
AcDbPolyline
 90
3
 70
0
 10
184.150000
 20
285.908750
 30
0.0
 10
184.970208
 20
285.908750
 30
0.0
 10
184.996667
 20
281.543125
 30
0.0
  0
SPLINE
  5
2a1
100
AcDbEntity
  8
0
 62
7
100
AcDbSpline
 70
8
 71
3
 72
8
 73
4
 74
0
 40
0
 40
0
 40
0
 40
0
 40
1
 40
1
 40
1
 40
1
 10
174.201667
 20
283.024792
 30
0.0
 10
173.857708
 20
283.024792
 30
0.0
 10
173.593125
 20
283.024792
 30
0.0
 10
173.355000
 20
283.024792
 30
0.0
  0
SPLINE
  5
2a2
100
AcDbEntity
  8
0
 62
7
100
AcDbSpline
 70
8
 71
3
 72
8
 73
4
 74
0
 40
0
 40
0
 40
0
 40
0
 40
1
 40
1
 40
1
 40
1
 10
173.355000
 20
283.024792
 30
0.0
 10
173.116875
 20
283.024792
 30
0.0
 10
172.931667
 20
283.051250
 30
0.0
 10
172.772917
 20
283.077708
 30
0.0
  0
SPLINE
  5
2a3
100
AcDbEntity
  8
0
 62
7
100
AcDbSpline
 70
8
 71
3
 72
8
 73
4
 74
0
 40
0
 40
0
 40
0
 40
0
 40
1
 40
1
 40
1
 40
1
 10
172.772917
 20
283.077708
 30
0.0
 10
172.772917
 20
282.733750
 30
0.0
 10
172.746458
 20
282.442708
 30
0.0
 10
172.746458
 20
282.151667
 30
0.0
  0
SPLINE
  5
2a4
100
AcDbEntity
  8
0
 62
7
100
AcDbSpline
 70
8
 71
3
 72
8
 73
4
 74
0
 40
0
 40
0
 40
0
 40
0
 40
1
 40
1
 40
1
 40
1
 10
172.746458
 20
282.151667
 30
0.0
 10
172.746458
 20
281.860625
 30
0.0
 10
172.746458
 20
281.648958
 30
0.0
 10
172.746458
 20
281.437292
 30
0.0
  0
SPLINE
  5
2a5
100
AcDbEntity
  8
0
 62
7
100
AcDbSpline
 70
8
 71
3
 72
8
 73
4
 74
0
 40
0
 40
0
 40
0
 40
0
 40
1
 40
1
 40
1
 40
1
 10
172.746458
 20
281.437292
 30
0.0
 10
172.746458
 20
281.225625
 30
0.0
 10
172.746458
 20
281.119792
 30
0.0
 10
172.746458
 20
281.066875
 30
0.0
  0
SPLINE
  5
2a6
100
AcDbEntity
  8
0
 62
7
100
AcDbSpline
 70
8
 71
3
 72
8
 73
4
 74
0
 40
0
 40
0
 40
0
 40
0
 40
1
 40
1
 40
1
 40
1
 10
172.746458
 20
281.066875
 30
0.0
 10
172.746458
 20
280.273125
 30
0.0
 10
172.905208
 20
279.532292
 30
0.0
 10
173.196250
 20
278.897292
 30
0.0
  0
SPLINE
  5
2a7
100
AcDbEntity
  8
0
 62
7
100
AcDbSpline
 70
8
 71
3
 72
8
 73
4
 74
0
 40
0
 40
0
 40
0
 40
0
 40
1
 40
1
 40
1
 40
1
 10
173.196250
 20
278.897292
 30
0.0
 10
173.487292
 20
278.235833
 30
0.0
 10
173.910625
 20
277.680208
 30
0.0
 10
174.439792
 20
277.230417
 30
0.0
  0
SPLINE
  5
2a8
100
AcDbEntity
  8
0
 62
7
100
AcDbSpline
 70
8
 71
3
 72
8
 73
4
 74
0
 40
0
 40
0
 40
0
 40
0
 40
1
 40
1
 40
1
 40
1
 10
174.439792
 20
277.230417
 30
0.0
 10
174.968958
 20
276.754167
 30
0.0
 10
175.577500
 20
276.410208
 30
0.0
 10
176.291875
 20
276.145625
 30
0.0
  0
SPLINE
  5
2a9
100
AcDbEntity
  8
0
 62
7
100
AcDbSpline
 70
8
 71
3
 72
8
 73
4
 74
0
 40
0
 40
0
 40
0
 40
0
 40
1
 40
1
 40
1
 40
1
 10
176.291875
 20
276.145625
 30
0.0
 10
177.006250
 20
275.881042
 30
0.0
 10
177.773542
 20
275.775208
 30
0.0
 10
178.593750
 20
275.775208
 30
0.0
  0
SPLINE
  5
2aa
100
AcDbEntity
  8
0
 62
7
100
AcDbSpline
 70
8
 71
3
 72
8
 73
4
 74
0
 40
0
 40
0
 40
0
 40
0
 40
1
 40
1
 40
1
 40
1
 10
178.593750
 20
275.775208
 30
0.0
 10
179.757917
 20
275.775208
 30
0.0
 10
180.789792
 20
275.986875
 30
0.0
 10
181.636458
 20
276.410208
 30
0.0
  0
SPLINE
  5
2ab
100
AcDbEntity
  8
0
 62
7
100
AcDbSpline
 70
8
 71
3
 72
8
 73
4
 74
0
 40
0
 40
0
 40
0
 40
0
 40
1
 40
1
 40
1
 40
1
 10
181.636458
 20
276.410208
 30
0.0
 10
182.483125
 20
276.833542
 30
0.0
 10
183.171042
 20
277.495000
 30
0.0
 10
183.647292
 20
278.368125
 30
0.0
  0
SPLINE
  5
2ac
100
AcDbEntity
  8
0
 62
7
100
AcDbSpline
 70
8
 71
3
 72
8
 73
4
 74
0
 40
0
 40
0
 40
0
 40
0
 40
1
 40
1
 40
1
 40
1
 10
183.647292
 20
278.368125
 30
0.0
 10
184.123542
 20
279.241250
 30
0.0
 10
184.361667
 20
280.352500
 30
0.0
 10
184.361667
 20
281.728333
 30
0.0
  0
SPLINE
  5
2ad
100
AcDbEntity
  8
0
 62
7
100
AcDbSpline
 70
8
 71
3
 72
8
 73
4
 74
0
 40
0
 40
0
 40
0
 40
0
 40
1
 40
1
 40
1
 40
1
 10
184.361667
 20
281.728333
 30
0.0
 10
184.361667
 20
282.178125
 30
0.0
 10
184.255833
 20
282.495625
 30
0.0
 10
184.070625
 20
282.680833
 30
0.0
  0
SPLINE
  5
2ae
100
AcDbEntity
  8
0
 62
7
100
AcDbSpline
 70
8
 71
3
 72
8
 73
4
 74
0
 40
0
 40
0
 40
0
 40
0
 40
1
 40
1
 40
1
 40
1
 10
184.070625
 20
282.680833
 30
0.0
 10
183.885417
 20
282.866042
 30
0.0
 10
183.620833
 20
282.971875
 30
0.0
 10
183.303333
 20
282.971875
 30
0.0
  0
SPLINE
  5
2af
100
AcDbEntity
  8
0
 62
7
100
AcDbSpline
 70
8
 71
3
 72
8
 73
4
 74
0
 40
0
 40
0
 40
0
 40
0
 40
1
 40
1
 40
1
 40
1
 10
183.303333
 20
282.971875
 30
0.0
 10
182.959375
 20
282.998333
 30
0.0
 10
182.588958
 20
282.998333
 30
0.0
 10
182.139167
 20
282.998333
 30
0.0
  0
LWPOLYLINE
  5
2b0
100
AcDbEntity
  8
0
 62
7
100
AcDbPolyline
 90
4
 70
0
 10
172.005625
 20
281.040417
 30
0.0
 10
172.005625
 20
285.908750
 30
0.0
 10
172.614167
 20
285.908750
 30
0.0
 10
172.614167
 20
285.908750
 30
0.0
  0
SPLINE
  5
2b1
100
AcDbEntity
  8
0
 62
7
100
AcDbSpline
 70
8
 71
3
 72
8
 73
4
 74
0
 40
0
 40
0
 40
0
 40
0
 40
1
 40
1
 40
1
 40
1
 10
184.361667
 20
268.128750
 30
0.0
 10
184.361667
 20
268.578542
 30
0.0
 10
184.255833
 20
268.896042
 30
0.0
 10
184.044167
 20
269.081250
 30
0.0
  0
SPLINE
  5
2b2
100
AcDbEntity
  8
0
 62
7
100
AcDbSpline
 70
8
 71
3
 72
8
 73
4
 74
0
 40
0
 40
0
 40
0
 40
0
 40
1
 40
1
 40
1
 40
1
 10
184.044167
 20
269.081250
 30
0.0
 10
183.858958
 20
269.266458
 30
0.0
 10
183.567917
 20
269.372292
 30
0.0
 10
183.250417
 20
269.372292
 30
0.0
  0
SPLINE
  5
2b3
100
AcDbEntity
  8
0
 62
7
100
AcDbSpline
 70
8
 71
3
 72
8
 73
4
 74
0
 40
0
 40
0
 40
0
 40
0
 40
1
 40
1
 40
1
 40
1
 10
183.250417
 20
269.372292
 30
0.0
 10
182.906458
 20
269.398750
 30
0.0
 10
182.536042
 20
269.398750
 30
0.0
 10
182.086250
 20
269.398750
 30
0.0
  0
LWPOLYLINE
  5
2b4
100
AcDbEntity
  8
0
 62
7
100
AcDbPolyline
 90
3
 70
0
 10
182.139167
 20
282.998333
 30
0.0
 10
174.201667
 20
282.998333
 30
0.0
 10
174.201667
 20
283.024792
 30
0.0
  0
SPLINE
  5
2b5
100
AcDbEntity
  8
0
 62
7
100
AcDbSpline
 70
8
 71
3
 72
8
 73
4
 74
0
 40
0
 40
0
 40
0
 40
0
 40
1
 40
1
 40
1
 40
1
 10
174.201667
 20
269.398750
 30
0.0
 10
173.857708
 20
269.398750
 30
0.0
 10
173.593125
 20
269.398750
 30
0.0
 10
173.328542
 20
269.398750
 30
0.0
  0
SPLINE
  5
2b6
100
AcDbEntity
  8
0
 62
7
100
AcDbSpline
 70
8
 71
3
 72
8
 73
4
 74
0
 40
0
 40
0
 40
0
 40
0
 40
1
 40
1
 40
1
 40
1
 10
173.328542
 20
269.398750
 30
0.0
 10
173.063958
 20
269.398750
 30
0.0
 10
172.878750
 20
269.425208
 30
0.0
 10
172.720000
 20
269.451667
 30
0.0
  0
SPLINE
  5
2b7
100
AcDbEntity
  8
0
 62
7
100
AcDbSpline
 70
8
 71
3
 72
8
 73
4
 74
0
 40
0
 40
0
 40
0
 40
0
 40
1
 40
1
 40
1
 40
1
 10
172.720000
 20
269.451667
 30
0.0
 10
172.720000
 20
269.240000
 30
0.0
 10
172.746458
 20
269.001875
 30
0.0
 10
172.746458
 20
268.790208
 30
0.0
  0
SPLINE
  5
2b8
100
AcDbEntity
  8
0
 62
7
100
AcDbSpline
 70
8
 71
3
 72
8
 73
4
 74
0
 40
0
 40
0
 40
0
 40
0
 40
1
 40
1
 40
1
 40
1
 10
172.746458
 20
268.790208
 30
0.0
 10
172.746458
 20
268.578542
 30
0.0
 10
172.772917
 20
268.340417
 30
0.0
 10
172.772917
 20
268.128750
 30
0.0
  0
LWPOLYLINE
  5
2b9
100
AcDbEntity
  8
0
 62
7
100
AcDbPolyline
 90
2
 70
0
 10
182.086250
 20
269.398750
 30
0.0
 10
174.201667
 20
269.398750
 30
0.0
  0
SPLINE
  5
2ba
100
AcDbEntity
  8
0
 62
7
100
AcDbSpline
 70
8
 71
3
 72
8
 73
4
 74
0
 40
0
 40
0
 40
0
 40
0
 40
1
 40
1
 40
1
 40
1
 10
172.561250
 20
272.309167
 30
0.0
 10
172.587708
 20
271.832917
 30
0.0
 10
172.693542
 20
271.515417
 30
0.0
 10
172.878750
 20
271.356667
 30
0.0
  0
SPLINE
  5
2bb
100
AcDbEntity
  8
0
 62
7
100
AcDbSpline
 70
8
 71
3
 72
8
 73
4
 74
0
 40
0
 40
0
 40
0
 40
0
 40
1
 40
1
 40
1
 40
1
 10
172.878750
 20
271.356667
 30
0.0
 10
173.063958
 20
271.171458
 30
0.0
 10
173.328542
 20
271.092083
 30
0.0
 10
173.672500
 20
271.065625
 30
0.0
  0
SPLINE
  5
2bc
100
AcDbEntity
  8
0
 62
7
100
AcDbSpline
 70
8
 71
3
 72
8
 73
4
 74
0
 40
0
 40
0
 40
0
 40
0
 40
1
 40
1
 40
1
 40
1
 10
173.672500
 20
271.065625
 30
0.0
 10
174.016458
 20
271.039167
 30
0.0
 10
174.386875
 20
271.039167
 30
0.0
 10
174.836667
 20
271.039167
 30
0.0
  0
LWPOLYLINE
  5
2bd
100
AcDbEntity
  8
0
 62
7
100
AcDbPolyline
 90
4
 70
0
 10
172.772917
 20
268.128750
 30
0.0
 10
171.952708
 20
268.128750
 30
0.0
 10
171.952708
 20
272.309167
 30
0.0
 10
172.561250
 20
272.309167
 30
0.0
  0
SPLINE
  5
2be
100
AcDbEntity
  8
0
 62
7
100
AcDbSpline
 70
8
 71
3
 72
8
 73
4
 74
0
 40
0
 40
0
 40
0
 40
0
 40
1
 40
1
 40
1
 40
1
 10
182.827083
 20
271.039167
 30
0.0
 10
183.065208
 20
271.039167
 30
0.0
 10
183.303333
 20
271.039167
 30
0.0
 10
183.541458
 20
271.012708
 30
0.0
  0
SPLINE
  5
2bf
100
AcDbEntity
  8
0
 62
7
100
AcDbSpline
 70
8
 71
3
 72
8
 73
4
 74
0
 40
0
 40
0
 40
0
 40
0
 40
1
 40
1
 40
1
 40
1
 10
183.541458
 20
271.012708
 30
0.0
 10
183.779583
 20
271.012708
 30
0.0
 10
183.964792
 20
270.986250
 30
0.0
 10
184.150000
 20
270.986250
 30
0.0
  0
SPLINE
  5
2c0
100
AcDbEntity
  8
0
 62
7
100
AcDbSpline
 70
8
 71
3
 72
8
 73
4
 74
0
 40
0
 40
0
 40
0
 40
0
 40
1
 40
1
 40
1
 40
1
 10
184.150000
 20
270.986250
 30
0.0
 10
184.150000
 20
271.197917
 30
0.0
 10
184.123542
 20
271.436042
 30
0.0
 10
184.123542
 20
271.647708
 30
0.0
  0
SPLINE
  5
2c1
100
AcDbEntity
  8
0
 62
7
100
AcDbSpline
 70
8
 71
3
 72
8
 73
4
 74
0
 40
0
 40
0
 40
0
 40
0
 40
1
 40
1
 40
1
 40
1
 10
184.123542
 20
271.647708
 30
0.0
 10
184.123542
 20
271.859375
 30
0.0
 10
184.097083
 20
272.097500
 30
0.0
 10
184.097083
 20
272.309167
 30
0.0
  0
LWPOLYLINE
  5
2c2
100
AcDbEntity
  8
0
 62
7
100
AcDbPolyline
 90
2
 70
0
 10
174.836667
 20
271.039167
 30
0.0
 10
182.827083
 20
271.039167
 30
0.0
  0
SPLINE
  5
2c3
100
AcDbEntity
  8
0
 62
7
100
AcDbSpline
 70
8
 71
3
 72
8
 73
4
 74
0
 40
0
 40
0
 40
0
 40
0
 40
1
 40
1
 40
1
 40
1
 10
181.080833
 20
256.381250
 30
0.0
 10
181.821667
 20
256.381250
 30
0.0
 10
182.403750
 20
256.460625
 30
0.0
 10
182.906458
 20
256.592917
 30
0.0
  0
SPLINE
  5
2c4
100
AcDbEntity
  8
0
 62
7
100
AcDbSpline
 70
8
 71
3
 72
8
 73
4
 74
0
 40
0
 40
0
 40
0
 40
0
 40
1
 40
1
 40
1
 40
1
 10
182.906458
 20
256.592917
 30
0.0
 10
183.409167
 20
256.725208
 30
0.0
 10
183.753125
 20
256.963333
 30
0.0
 10
183.991250
 20
257.307292
 30
0.0
  0
SPLINE
  5
2c5
100
AcDbEntity
  8
0
 62
7
100
AcDbSpline
 70
8
 71
3
 72
8
 73
4
 74
0
 40
0
 40
0
 40
0
 40
0
 40
1
 40
1
 40
1
 40
1
 10
183.991250
 20
257.307292
 30
0.0
 10
184.229375
 20
257.651250
 30
0.0
 10
184.335208
 20
258.127500
 30
0.0
 10
184.335208
 20
258.788958
 30
0.0
  0
LWPOLYLINE
  5
2c6
100
AcDbEntity
  8
0
 62
7
100
AcDbPolyline
 90
5
 70
0
 10
184.097083
 20
272.309167
 30
0.0
 10
184.917292
 20
272.309167
 30
0.0
 10
184.917292
 20
268.128750
 30
0.0
 10
184.361667
 20
268.128750
 30
0.0
 10
184.361667
 20
268.128750
 30
0.0
  0
SPLINE
  5
2c7
100
AcDbEntity
  8
0
 62
7
100
AcDbSpline
 70
8
 71
3
 72
8
 73
4
 74
0
 40
0
 40
0
 40
0
 40
0
 40
1
 40
1
 40
1
 40
1
 10
174.228125
 20
260.402917
 30
0.0
 10
173.884167
 20
260.402917
 30
0.0
 10
173.619583
 20
260.402917
 30
0.0
 10
173.355000
 20
260.402917
 30
0.0
  0
SPLINE
  5
2c8
100
AcDbEntity
  8
0
 62
7
100
AcDbSpline
 70
8
 71
3
 72
8
 73
4
 74
0
 40
0
 40
0
 40
0
 40
0
 40
1
 40
1
 40
1
 40
1
 10
173.355000
 20
260.402917
 30
0.0
 10
173.116875
 20
260.402917
 30
0.0
 10
172.905208
 20
260.429375
 30
0.0
 10
172.746458
 20
260.455833
 30
0.0
  0
SPLINE
  5
2c9
100
AcDbEntity
  8
0
 62
7
100
AcDbSpline
 70
8
 71
3
 72
8
 73
4
 74
0
 40
0
 40
0
 40
0
 40
0
 40
1
 40
1
 40
1
 40
1
 10
172.746458
 20
260.455833
 30
0.0
 10
172.746458
 20
260.191250
 30
0.0
 10
172.772917
 20
259.953125
 30
0.0
 10
172.772917
 20
259.688542
 30
0.0
  0
SPLINE
  5
2ca
100
AcDbEntity
  8
0
 62
7
100
AcDbSpline
 70
8
 71
3
 72
8
 73
4
 74
0
 40
0
 40
0
 40
0
 40
0
 40
1
 40
1
 40
1
 40
1
 10
172.772917
 20
259.688542
 30
0.0
 10
172.772917
 20
259.423958
 30
0.0
 10
172.799375
 20
259.185833
 30
0.0
 10
172.799375
 20
258.921250
 30
0.0
  0
LWPOLYLINE
  5
2cb
100
AcDbEntity
  8
0
 62
7
100
AcDbPolyline
 90
3
 70
0
 10
184.335208
 20
258.788958
 30
0.0
 10
184.335208
 20
260.376458
 30
0.0
 10
174.228125
 20
260.402917
 30
0.0
  0
SPLINE
  5
2cc
100
AcDbEntity
  8
0
 62
7
100
AcDbSpline
 70
8
 71
3
 72
8
 73
4
 74
0
 40
0
 40
0
 40
0
 40
0
 40
1
 40
1
 40
1
 40
1
 10
172.587708
 20
263.260417
 30
0.0
 10
172.614167
 20
262.784167
 30
0.0
 10
172.720000
 20
262.466667
 30
0.0
 10
172.931667
 20
262.307917
 30
0.0
  0
SPLINE
  5
2cd
100
AcDbEntity
  8
0
 62
7
100
AcDbSpline
 70
8
 71
3
 72
8
 73
4
 74
0
 40
0
 40
0
 40
0
 40
0
 40
1
 40
1
 40
1
 40
1
 10
172.931667
 20
262.307917
 30
0.0
 10
173.116875
 20
262.149167
 30
0.0
 10
173.407917
 20
262.043333
 30
0.0
 10
173.725417
 20
262.043333
 30
0.0
  0
SPLINE
  5
2ce
100
AcDbEntity
  8
0
 62
7
100
AcDbSpline
 70
8
 71
3
 72
8
 73
4
 74
0
 40
0
 40
0
 40
0
 40
0
 40
1
 40
1
 40
1
 40
1
 10
173.725417
 20
262.043333
 30
0.0
 10
174.069375
 20
262.016875
 30
0.0
 10
174.439792
 20
262.016875
 30
0.0
 10
174.863125
 20
262.016875
 30
0.0
  0
LWPOLYLINE
  5
2cf
100
AcDbEntity
  8
0
 62
7
100
AcDbPolyline
 90
4
 70
0
 10
172.799375
 20
258.921250
 30
0.0
 10
171.979167
 20
258.921250
 30
0.0
 10
171.979167
 20
263.260417
 30
0.0
 10
172.587708
 20
263.260417
 30
0.0
  0
SPLINE
  5
2d0
100
AcDbEntity
  8
0
 62
7
100
AcDbSpline
 70
8
 71
3
 72
8
 73
4
 74
0
 40
0
 40
0
 40
0
 40
0
 40
1
 40
1
 40
1
 40
1
 10
184.229375
 20
263.895417
 30
0.0
 10
184.229375
 20
264.662708
 30
0.0
 10
183.964792
 20
265.218333
 30
0.0
 10
183.462083
 20
265.535833
 30
0.0
  0
SPLINE
  5
2d1
100
AcDbEntity
  8
0
 62
7
100
AcDbSpline
 70
8
 71
3
 72
8
 73
4
 74
0
 40
0
 40
0
 40
0
 40
0
 40
1
 40
1
 40
1
 40
1
 10
183.462083
 20
265.535833
 30
0.0
 10
182.932917
 20
265.853333
 30
0.0
 10
182.139167
 20
266.012083
 30
0.0
 10
181.027917
 20
266.012083
 30
0.0
  0
LWPOLYLINE
  5
2d2
100
AcDbEntity
  8
0
 62
7
100
AcDbPolyline
 90
3
 70
0
 10
174.863125
 20
262.016875
 30
0.0
 10
184.255833
 20
261.990417
 30
0.0
 10
184.229375
 20
263.895417
 30
0.0
  0
SPLINE
  5
2d3
100
AcDbEntity
  8
0
 62
7
100
AcDbSpline
 70
8
 71
3
 72
8
 73
4
 74
0
 40
0
 40
0
 40
0
 40
0
 40
1
 40
1
 40
1
 40
1
 10
184.361667
 20
250.084167
 30
0.0
 10
184.361667
 20
250.533958
 30
0.0
 10
184.255833
 20
250.851458
 30
0.0
 10
184.044167
 20
251.036667
 30
0.0
  0
SPLINE
  5
2d4
100
AcDbEntity
  8
0
 62
7
100
AcDbSpline
 70
8
 71
3
 72
8
 73
4
 74
0
 40
0
 40
0
 40
0
 40
0
 40
1
 40
1
 40
1
 40
1
 10
184.044167
 20
251.036667
 30
0.0
 10
183.858958
 20
251.221875
 30
0.0
 10
183.567917
 20
251.327708
 30
0.0
 10
183.250417
 20
251.327708
 30
0.0
  0
SPLINE
  5
2d5
100
AcDbEntity
  8
0
 62
7
100
AcDbSpline
 70
8
 71
3
 72
8
 73
4
 74
0
 40
0
 40
0
 40
0
 40
0
 40
1
 40
1
 40
1
 40
1
 10
183.250417
 20
251.327708
 30
0.0
 10
182.906458
 20
251.354167
 30
0.0
 10
182.536042
 20
251.354167
 30
0.0
 10
182.086250
 20
251.354167
 30
0.0
  0
LWPOLYLINE
  5
2d6
100
AcDbEntity
  8
0
 62
7
100
AcDbPolyline
 90
7
 70
0
 10
181.027917
 20
266.012083
 30
0.0
 10
181.027917
 20
266.700000
 30
0.0
 10
184.943750
 20
266.594167
 30
0.0
 10
184.943750
 20
255.799167
 30
0.0
 10
181.027917
 20
255.693333
 30
0.0
 10
181.027917
 20
256.381250
 30
0.0
 10
181.080833
 20
256.381250
 30
0.0
  0
SPLINE
  5
2d7
100
AcDbEntity
  8
0
 62
7
100
AcDbSpline
 70
8
 71
3
 72
8
 73
4
 74
0
 40
0
 40
0
 40
0
 40
0
 40
1
 40
1
 40
1
 40
1
 10
174.201667
 20
251.354167
 30
0.0
 10
173.857708
 20
251.354167
 30
0.0
 10
173.593125
 20
251.354167
 30
0.0
 10
173.328542
 20
251.354167
 30
0.0
  0
SPLINE
  5
2d8
100
AcDbEntity
  8
0
 62
7
100
AcDbSpline
 70
8
 71
3
 72
8
 73
4
 74
0
 40
0
 40
0
 40
0
 40
0
 40
1
 40
1
 40
1
 40
1
 10
173.328542
 20
251.354167
 30
0.0
 10
173.063958
 20
251.354167
 30
0.0
 10
172.878750
 20
251.380625
 30
0.0
 10
172.720000
 20
251.407083
 30
0.0
  0
SPLINE
  5
2d9
100
AcDbEntity
  8
0
 62
7
100
AcDbSpline
 70
8
 71
3
 72
8
 73
4
 74
0
 40
0
 40
0
 40
0
 40
0
 40
1
 40
1
 40
1
 40
1
 10
172.720000
 20
251.407083
 30
0.0
 10
172.720000
 20
251.195417
 30
0.0
 10
172.746458
 20
250.957292
 30
0.0
 10
172.746458
 20
250.745625
 30
0.0
  0
SPLINE
  5
2da
100
AcDbEntity
  8
0
 62
7
100
AcDbSpline
 70
8
 71
3
 72
8
 73
4
 74
0
 40
0
 40
0
 40
0
 40
0
 40
1
 40
1
 40
1
 40
1
 10
172.746458
 20
250.745625
 30
0.0
 10
172.746458
 20
250.533958
 30
0.0
 10
172.772917
 20
250.295833
 30
0.0
 10
172.772917
 20
250.084167
 30
0.0
  0
LWPOLYLINE
  5
2db
100
AcDbEntity
  8
0
 62
7
100
AcDbPolyline
 90
2
 70
0
 10
182.086250
 20
251.354167
 30
0.0
 10
174.201667
 20
251.354167
 30
0.0
  0
SPLINE
  5
2dc
100
AcDbEntity
  8
0
 62
7
100
AcDbSpline
 70
8
 71
3
 72
8
 73
4
 74
0
 40
0
 40
0
 40
0
 40
0
 40
1
 40
1
 40
1
 40
1
 10
172.561250
 20
254.264583
 30
0.0
 10
172.587708
 20
253.788333
 30
0.0
 10
172.693542
 20
253.470833
 30
0.0
 10
172.878750
 20
253.312083
 30
0.0
  0
SPLINE
  5
2dd
100
AcDbEntity
  8
0
 62
7
100
AcDbSpline
 70
8
 71
3
 72
8
 73
4
 74
0
 40
0
 40
0
 40
0
 40
0
 40
1
 40
1
 40
1
 40
1
 10
172.878750
 20
253.312083
 30
0.0
 10
173.063958
 20
253.126875
 30
0.0
 10
173.328542
 20
253.047500
 30
0.0
 10
173.672500
 20
253.021042
 30
0.0
  0
SPLINE
  5
2de
100
AcDbEntity
  8
0
 62
7
100
AcDbSpline
 70
8
 71
3
 72
8
 73
4
 74
0
 40
0
 40
0
 40
0
 40
0
 40
1
 40
1
 40
1
 40
1
 10
173.672500
 20
253.021042
 30
0.0
 10
174.016458
 20
252.994583
 30
0.0
 10
174.386875
 20
252.994583
 30
0.0
 10
174.836667
 20
252.994583
 30
0.0
  0
LWPOLYLINE
  5
2df
100
AcDbEntity
  8
0
 62
7
100
AcDbPolyline
 90
4
 70
0
 10
172.772917
 20
250.084167
 30
0.0
 10
171.952708
 20
250.084167
 30
0.0
 10
171.952708
 20
254.264583
 30
0.0
 10
172.561250
 20
254.264583
 30
0.0
  0
SPLINE
  5
2e0
100
AcDbEntity
  8
0
 62
7
100
AcDbSpline
 70
8
 71
3
 72
8
 73
4
 74
0
 40
0
 40
0
 40
0
 40
0
 40
1
 40
1
 40
1
 40
1
 10
182.827083
 20
252.994583
 30
0.0
 10
183.065208
 20
252.994583
 30
0.0
 10
183.303333
 20
252.994583
 30
0.0
 10
183.541458
 20
252.968125
 30
0.0
  0
SPLINE
  5
2e1
100
AcDbEntity
  8
0
 62
7
100
AcDbSpline
 70
8
 71
3
 72
8
 73
4
 74
0
 40
0
 40
0
 40
0
 40
0
 40
1
 40
1
 40
1
 40
1
 10
183.541458
 20
252.968125
 30
0.0
 10
183.779583
 20
252.968125
 30
0.0
 10
183.964792
 20
252.941667
 30
0.0
 10
184.150000
 20
252.941667
 30
0.0
  0
SPLINE
  5
2e2
100
AcDbEntity
  8
0
 62
7
100
AcDbSpline
 70
8
 71
3
 72
8
 73
4
 74
0
 40
0
 40
0
 40
0
 40
0
 40
1
 40
1
 40
1
 40
1
 10
184.150000
 20
252.941667
 30
0.0
 10
184.150000
 20
253.153333
 30
0.0
 10
184.123542
 20
253.391458
 30
0.0
 10
184.123542
 20
253.603125
 30
0.0
  0
SPLINE
  5
2e3
100
AcDbEntity
  8
0
 62
7
100
AcDbSpline
 70
8
 71
3
 72
8
 73
4
 74
0
 40
0
 40
0
 40
0
 40
0
 40
1
 40
1
 40
1
 40
1
 10
184.123542
 20
253.603125
 30
0.0
 10
184.123542
 20
253.814792
 30
0.0
 10
184.097083
 20
254.052917
 30
0.0
 10
184.097083
 20
254.264583
 30
0.0
  0
LWPOLYLINE
  5
2e4
100
AcDbEntity
  8
0
 62
7
100
AcDbPolyline
 90
2
 70
0
 10
174.836667
 20
252.994583
 30
0.0
 10
182.827083
 20
252.994583
 30
0.0
  0
SPLINE
  5
2e5
100
AcDbEntity
  8
0
 62
7
100
AcDbSpline
 70
8
 71
3
 72
8
 73
4
 74
0
 40
0
 40
0
 40
0
 40
0
 40
1
 40
1
 40
1
 40
1
 10
171.714583
 20
241.776250
 30
0.0
 10
171.714583
 20
242.940417
 30
0.0
 10
171.899792
 20
243.945833
 30
0.0
 10
172.296667
 20
244.792500
 30
0.0
  0
SPLINE
  5
2e6
100
AcDbEntity
  8
0
 62
7
100
AcDbSpline
 70
8
 71
3
 72
8
 73
4
 74
0
 40
0
 40
0
 40
0
 40
0
 40
1
 40
1
 40
1
 40
1
 10
172.296667
 20
244.792500
 30
0.0
 10
172.693542
 20
245.639167
 30
0.0
 10
173.222708
 20
246.327083
 30
0.0
 10
173.884167
 20
246.829792
 30
0.0
  0
SPLINE
  5
2e7
100
AcDbEntity
  8
0
 62
7
100
AcDbSpline
 70
8
 71
3
 72
8
 73
4
 74
0
 40
0
 40
0
 40
0
 40
0
 40
1
 40
1
 40
1
 40
1
 10
173.884167
 20
246.829792
 30
0.0
 10
174.545625
 20
247.358958
 30
0.0
 10
175.286458
 20
247.729375
 30
0.0
 10
176.080208
 20
247.993958
 30
0.0
  0
SPLINE
  5
2e8
100
AcDbEntity
  8
0
 62
7
100
AcDbSpline
 70
8
 71
3
 72
8
 73
4
 74
0
 40
0
 40
0
 40
0
 40
0
 40
1
 40
1
 40
1
 40
1
 10
176.080208
 20
247.993958
 30
0.0
 10
176.873958
 20
248.232083
 30
0.0
 10
177.694167
 20
248.364375
 30
0.0
 10
178.487917
 20
248.364375
 30
0.0
  0
SPLINE
  5
2e9
100
AcDbEntity
  8
0
 62
7
100
AcDbSpline
 70
8
 71
3
 72
8
 73
4
 74
0
 40
0
 40
0
 40
0
 40
0
 40
1
 40
1
 40
1
 40
1
 10
178.487917
 20
248.364375
 30
0.0
 10
179.255208
 20
248.364375
 30
0.0
 10
180.048958
 20
248.232083
 30
0.0
 10
180.842708
 20
247.967500
 30
0.0
  0
SPLINE
  5
2ea
100
AcDbEntity
  8
0
 62
7
100
AcDbSpline
 70
8
 71
3
 72
8
 73
4
 74
0
 40
0
 40
0
 40
0
 40
0
 40
1
 40
1
 40
1
 40
1
 10
180.842708
 20
247.967500
 30
0.0
 10
181.636458
 20
247.702917
 30
0.0
 10
182.377292
 20
247.306042
 30
0.0
 10
183.038750
 20
246.776875
 30
0.0
  0
SPLINE
  5
2eb
100
AcDbEntity
  8
0
 62
7
100
AcDbSpline
 70
8
 71
3
 72
8
 73
4
 74
0
 40
0
 40
0
 40
0
 40
0
 40
1
 40
1
 40
1
 40
1
 10
183.038750
 20
246.776875
 30
0.0
 10
183.700208
 20
246.247708
 30
0.0
 10
184.229375
 20
245.559792
 30
0.0
 10
184.652708
 20
244.766042
 30
0.0
  0
SPLINE
  5
2ec
100
AcDbEntity
  8
0
 62
7
100
AcDbSpline
 70
8
 71
3
 72
8
 73
4
 74
0
 40
0
 40
0
 40
0
 40
0
 40
1
 40
1
 40
1
 40
1
 10
184.652708
 20
244.766042
 30
0.0
 10
185.049583
 20
243.945833
 30
0.0
 10
185.261250
 20
243.019792
 30
0.0
 10
185.261250
 20
241.935000
 30
0.0
  0
SPLINE
  5
2ed
100
AcDbEntity
  8
0
 62
7
100
AcDbSpline
 70
8
 71
3
 72
8
 73
4
 74
0
 40
0
 40
0
 40
0
 40
0
 40
1
 40
1
 40
1
 40
1
 10
185.261250
 20
241.935000
 30
0.0
 10
185.261250
 20
240.797292
 30
0.0
 10
185.049583
 20
239.818333
 30
0.0
 10
184.652708
 20
238.998125
 30
0.0
  0
SPLINE
  5
2ee
100
AcDbEntity
  8
0
 62
7
100
AcDbSpline
 70
8
 71
3
 72
8
 73
4
 74
0
 40
0
 40
0
 40
0
 40
0
 40
1
 40
1
 40
1
 40
1
 10
184.652708
 20
238.998125
 30
0.0
 10
184.255833
 20
238.177917
 30
0.0
 10
183.700208
 20
237.490000
 30
0.0
 10
183.038750
 20
236.960833
 30
0.0
  0
SPLINE
  5
2ef
100
AcDbEntity
  8
0
 62
7
100
AcDbSpline
 70
8
 71
3
 72
8
 73
4
 74
0
 40
0
 40
0
 40
0
 40
0
 40
1
 40
1
 40
1
 40
1
 10
183.038750
 20
236.960833
 30
0.0
 10
182.377292
 20
236.431667
 30
0.0
 10
181.636458
 20
236.034792
 30
0.0
 10
180.842708
 20
235.770208
 30
0.0
  0
SPLINE
  5
2f0
100
AcDbEntity
  8
0
 62
7
100
AcDbSpline
 70
8
 71
3
 72
8
 73
4
 74
0
 40
0
 40
0
 40
0
 40
0
 40
1
 40
1
 40
1
 40
1
 10
180.842708
 20
235.770208
 30
0.0
 10
180.048958
 20
235.505625
 30
0.0
 10
179.281667
 20
235.373333
 30
0.0
 10
178.487917
 20
235.373333
 30
0.0
  0
SPLINE
  5
2f1
100
AcDbEntity
  8
0
 62
7
100
AcDbSpline
 70
8
 71
3
 72
8
 73
4
 74
0
 40
0
 40
0
 40
0
 40
0
 40
1
 40
1
 40
1
 40
1
 10
178.487917
 20
235.373333
 30
0.0
 10
177.720625
 20
235.373333
 30
0.0
 10
176.953333
 20
235.505625
 30
0.0
 10
176.133125
 20
235.770208
 30
0.0
  0
SPLINE
  5
2f2
100
AcDbEntity
  8
0
 62
7
100
AcDbSpline
 70
8
 71
3
 72
8
 73
4
 74
0
 40
0
 40
0
 40
0
 40
0
 40
1
 40
1
 40
1
 40
1
 10
176.133125
 20
235.770208
 30
0.0
 10
175.339375
 20
236.034792
 30
0.0
 10
174.598542
 20
236.431667
 30
0.0
 10
173.937083
 20
236.960833
 30
0.0
  0
SPLINE
  5
2f3
100
AcDbEntity
  8
0
 62
7
100
AcDbSpline
 70
8
 71
3
 72
8
 73
4
 74
0
 40
0
 40
0
 40
0
 40
0
 40
1
 40
1
 40
1
 40
1
 10
173.937083
 20
236.960833
 30
0.0
 10
173.275625
 20
237.490000
 30
0.0
 10
172.720000
 20
238.177917
 30
0.0
 10
172.323125
 20
238.971667
 30
0.0
  0
SPLINE
  5
2f4
100
AcDbEntity
  8
0
 62
7
100
AcDbSpline
 70
8
 71
3
 72
8
 73
4
 74
0
 40
0
 40
0
 40
0
 40
0
 40
1
 40
1
 40
1
 40
1
 10
172.323125
 20
238.971667
 30
0.0
 10
171.926250
 20
239.738958
 30
0.0
 10
171.714583
 20
240.665000
 30
0.0
 10
171.714583
 20
241.776250
 30
0.0
  0
LWPOLYLINE
  5
2f5
100
AcDbEntity
  8
0
 62
7
100
AcDbPolyline
 90
5
 70
0
 10
184.097083
 20
254.264583
 30
0.0
 10
184.917292
 20
254.264583
 30
0.0
 10
184.917292
 20
250.084167
 30
0.0
 10
184.361667
 20
250.084167
 30
0.0
 10
184.361667
 20
250.084167
 30
0.0
  0
SPLINE
  5
2f6
100
AcDbEntity
  8
0
 62
7
100
AcDbSpline
 70
8
 71
3
 72
8
 73
4
 74
0
 40
0
 40
0
 40
0
 40
0
 40
1
 40
1
 40
1
 40
1
 10
172.481875
 20
241.749792
 30
0.0
 10
172.481875
 20
240.982500
 30
0.0
 10
172.640625
 20
240.321042
 30
0.0
 10
172.984583
 20
239.738958
 30
0.0
  0
SPLINE
  5
2f7
100
AcDbEntity
  8
0
 62
7
100
AcDbSpline
 70
8
 71
3
 72
8
 73
4
 74
0
 40
0
 40
0
 40
0
 40
0
 40
1
 40
1
 40
1
 40
1
 10
172.984583
 20
239.738958
 30
0.0
 10
173.302083
 20
239.183333
 30
0.0
 10
173.751875
 20
238.707083
 30
0.0
 10
174.307500
 20
238.310208
 30
0.0
  0
SPLINE
  5
2f8
100
AcDbEntity
  8
0
 62
7
100
AcDbSpline
 70
8
 71
3
 72
8
 73
4
 74
0
 40
0
 40
0
 40
0
 40
0
 40
1
 40
1
 40
1
 40
1
 10
174.307500
 20
238.310208
 30
0.0
 10
174.863125
 20
237.939792
 30
0.0
 10
175.471667
 20
237.648750
 30
0.0
 10
176.133125
 20
237.463542
 30
0.0
  0
SPLINE
  5
2f9
100
AcDbEntity
  8
0
 62
7
100
AcDbSpline
 70
8
 71
3
 72
8
 73
4
 74
0
 40
0
 40
0
 40
0
 40
0
 40
1
 40
1
 40
1
 40
1
 10
176.133125
 20
237.463542
 30
0.0
 10
176.794583
 20
237.278333
 30
0.0
 10
177.482500
 20
237.172500
 30
0.0
 10
178.170417
 20
237.172500
 30
0.0
  0
SPLINE
  5
2fa
100
AcDbEntity
  8
0
 62
7
100
AcDbSpline
 70
8
 71
3
 72
8
 73
4
 74
0
 40
0
 40
0
 40
0
 40
0
 40
1
 40
1
 40
1
 40
1
 10
178.170417
 20
237.172500
 30
0.0
 10
178.937708
 20
237.172500
 30
0.0
 10
179.705000
 20
237.278333
 30
0.0
 10
180.445833
 20
237.490000
 30
0.0
  0
SPLINE
  5
2fb
100
AcDbEntity
  8
0
 62
7
100
AcDbSpline
 70
8
 71
3
 72
8
 73
4
 74
0
 40
0
 40
0
 40
0
 40
0
 40
1
 40
1
 40
1
 40
1
 10
180.445833
 20
237.490000
 30
0.0
 10
181.186667
 20
237.701667
 30
0.0
 10
181.874583
 20
238.019167
 30
0.0
 10
182.509583
 20
238.416042
 30
0.0
  0
SPLINE
  5
2fc
100
AcDbEntity
  8
0
 62
7
100
AcDbSpline
 70
8
 71
3
 72
8
 73
4
 74
0
 40
0
 40
0
 40
0
 40
0
 40
1
 40
1
 40
1
 40
1
 10
182.509583
 20
238.416042
 30
0.0
 10
183.118125
 20
238.812917
 30
0.0
 10
183.620833
 20
239.315625
 30
0.0
 10
183.991250
 20
239.924167
 30
0.0
  0
SPLINE
  5
2fd
100
AcDbEntity
  8
0
 62
7
100
AcDbSpline
 70
8
 71
3
 72
8
 73
4
 74
0
 40
0
 40
0
 40
0
 40
0
 40
1
 40
1
 40
1
 40
1
 10
183.991250
 20
239.924167
 30
0.0
 10
184.361667
 20
240.532708
 30
0.0
 10
184.546875
 20
241.194167
 30
0.0
 10
184.546875
 20
241.961458
 30
0.0
  0
SPLINE
  5
2fe
100
AcDbEntity
  8
0
 62
7
100
AcDbSpline
 70
8
 71
3
 72
8
 73
4
 74
0
 40
0
 40
0
 40
0
 40
0
 40
1
 40
1
 40
1
 40
1
 10
184.546875
 20
241.961458
 30
0.0
 10
184.546875
 20
242.728750
 30
0.0
 10
184.388125
 20
243.390208
 30
0.0
 10
184.044167
 20
243.972292
 30
0.0
  0
SPLINE
  5
2ff
100
AcDbEntity
  8
0
 62
7
100
AcDbSpline
 70
8
 71
3
 72
8
 73
4
 74
0
 40
0
 40
0
 40
0
 40
0
 40
1
 40
1
 40
1
 40
1
 10
184.044167
 20
243.972292
 30
0.0
 10
183.700208
 20
244.554375
 30
0.0
 10
183.276875
 20
245.030625
 30
0.0
 10
182.721250
 20
245.401042
 30
0.0
  0
SPLINE
  5
300
100
AcDbEntity
  8
0
 62
7
100
AcDbSpline
 70
8
 71
3
 72
8
 73
4
 74
0
 40
0
 40
0
 40
0
 40
0
 40
1
 40
1
 40
1
 40
1
 10
182.721250
 20
245.401042
 30
0.0
 10
182.165625
 20
245.771458
 30
0.0
 10
181.557083
 20
246.062500
 30
0.0
 10
180.895625
 20
246.247708
 30
0.0
  0
SPLINE
  5
301
100
AcDbEntity
  8
0
 62
7
100
AcDbSpline
 70
8
 71
3
 72
8
 73
4
 74
0
 40
0
 40
0
 40
0
 40
0
 40
1
 40
1
 40
1
 40
1
 10
180.895625
 20
246.247708
 30
0.0
 10
180.234167
 20
246.432917
 30
0.0
 10
179.546250
 20
246.538750
 30
0.0
 10
178.858333
 20
246.538750
 30
0.0
  0
SPLINE
  5
302
100
AcDbEntity
  8
0
 62
7
100
AcDbSpline
 70
8
 71
3
 72
8
 73
4
 74
0
 40
0
 40
0
 40
0
 40
0
 40
1
 40
1
 40
1
 40
1
 10
178.858333
 20
246.538750
 30
0.0
 10
178.170417
 20
246.538750
 30
0.0
 10
177.482500
 20
246.432917
 30
0.0
 10
176.741667
 20
246.247708
 30
0.0
  0
SPLINE
  5
303
100
AcDbEntity
  8
0
 62
7
100
AcDbSpline
 70
8
 71
3
 72
8
 73
4
 74
0
 40
0
 40
0
 40
0
 40
0
 40
1
 40
1
 40
1
 40
1
 10
176.741667
 20
246.247708
 30
0.0
 10
176.000833
 20
246.062500
 30
0.0
 10
175.312917
 20
245.771458
 30
0.0
 10
174.677917
 20
245.374583
 30
0.0
  0
SPLINE
  5
304
100
AcDbEntity
  8
0
 62
7
100
AcDbSpline
 70
8
 71
3
 72
8
 73
4
 74
0
 40
0
 40
0
 40
0
 40
0
 40
1
 40
1
 40
1
 40
1
 10
174.677917
 20
245.374583
 30
0.0
 10
174.042917
 20
244.977708
 30
0.0
 10
173.513750
 20
244.475000
 30
0.0
 10
173.116875
 20
243.866458
 30
0.0
  0
SPLINE
  5
305
100
AcDbEntity
  8
0
 62
7
100
AcDbSpline
 70
8
 71
3
 72
8
 73
4
 74
0
 40
0
 40
0
 40
0
 40
0
 40
1
 40
1
 40
1
 40
1
 10
173.116875
 20
243.866458
 30
0.0
 10
172.667083
 20
243.284375
 30
0.0
 10
172.481875
 20
242.570000
 30
0.0
 10
172.481875
 20
241.749792
 30
0.0
  0
LWPOLYLINE
  5
306
100
AcDbEntity
  8
0
 62
7
100
AcDbPolyline
 90
1
 70
1
 10
171.714583
 20
241.776250
 30
0.0
  0
LWPOLYLINE
  5
307
100
AcDbEntity
  8
0
 62
7
100
AcDbPolyline
 90
1
 70
1
 10
172.481875
 20
241.749792
 30
0.0
  0
SPLINE
  5
308
100
AcDbEntity
  8
0
 62
7
100
AcDbSpline
 70
8
 71
3
 72
8
 73
4
 74
0
 40
0
 40
0
 40
0
 40
0
 40
1
 40
1
 40
1
 40
1
 10
181.636458
 20
230.901875
 30
0.0
 10
181.795208
 20
231.007708
 30
0.0
 10
181.927500
 20
231.113542
 30
0.0
 10
182.059792
 20
231.219375
 30
0.0
  0
SPLINE
  5
309
100
AcDbEntity
  8
0
 62
7
100
AcDbSpline
 70
8
 71
3
 72
8
 73
4
 74
0
 40
0
 40
0
 40
0
 40
0
 40
1
 40
1
 40
1
 40
1
 10
182.059792
 20
231.219375
 30
0.0
 10
182.192083
 20
231.325208
 30
0.0
 10
182.350833
 20
231.431042
 30
0.0
 10
182.483125
 20
231.536875
 30
0.0
  0
LWPOLYLINE
  5
30a
100
AcDbEntity
  8
0
 62
7
100
AcDbPolyline
 90
2
 70
0
 10
171.714583
 20
223.520000
 30
0.0
 10
181.636458
 20
230.901875
 30
0.0
  0
SPLINE
  5
30b
100
AcDbEntity
  8
0
 62
7
100
AcDbSpline
 70
8
 71
3
 72
8
 73
4
 74
0
 40
0
 40
0
 40
0
 40
0
 40
1
 40
1
 40
1
 40
1
 10
174.545625
 20
231.510417
 30
0.0
 10
174.228125
 20
231.510417
 30
0.0
 10
173.937083
 20
231.510417
 30
0.0
 10
173.619583
 20
231.510417
 30
0.0
  0
SPLINE
  5
30c
100
AcDbEntity
  8
0
 62
7
100
AcDbSpline
 70
8
 71
3
 72
8
 73
4
 74
0
 40
0
 40
0
 40
0
 40
0
 40
1
 40
1
 40
1
 40
1
 10
173.619583
 20
231.510417
 30
0.0
 10
173.302083
 20
231.510417
 30
0.0
 10
173.011042
 20
231.510417
 30
0.0
 10
172.720000
 20
231.536875
 30
0.0
  0
SPLINE
  5
30d
100
AcDbEntity
  8
0
 62
7
100
AcDbSpline
 70
8
 71
3
 72
8
 73
4
 74
0
 40
0
 40
0
 40
0
 40
0
 40
1
 40
1
 40
1
 40
1
 10
172.720000
 20
231.536875
 30
0.0
 10
172.720000
 20
231.325208
 30
0.0
 10
172.746458
 20
231.087083
 30
0.0
 10
172.746458
 20
230.875417
 30
0.0
  0
SPLINE
  5
30e
100
AcDbEntity
  8
0
 62
7
100
AcDbSpline
 70
8
 71
3
 72
8
 73
4
 74
0
 40
0
 40
0
 40
0
 40
0
 40
1
 40
1
 40
1
 40
1
 10
172.746458
 20
230.875417
 30
0.0
 10
172.746458
 20
230.663750
 30
0.0
 10
172.772917
 20
230.425625
 30
0.0
 10
172.772917
 20
230.213958
 30
0.0
  0
LWPOLYLINE
  5
30f
100
AcDbEntity
  8
0
 62
7
100
AcDbPolyline
 90
3
 70
0
 10
182.483125
 20
231.536875
 30
0.0
 10
182.483125
 20
231.563333
 30
0.0
 10
174.545625
 20
231.510417
 30
0.0
  0
SPLINE
  5
310
100
AcDbEntity
  8
0
 62
7
100
AcDbSpline
 70
8
 71
3
 72
8
 73
4
 74
0
 40
0
 40
0
 40
0
 40
0
 40
1
 40
1
 40
1
 40
1
 10
172.561250
 20
233.627083
 30
0.0
 10
172.561250
 20
233.256667
 30
0.0
 10
172.640625
 20
232.965625
 30
0.0
 10
172.799375
 20
232.806875
 30
0.0
  0
SPLINE
  5
311
100
AcDbEntity
  8
0
 62
7
100
AcDbSpline
 70
8
 71
3
 72
8
 73
4
 74
0
 40
0
 40
0
 40
0
 40
0
 40
1
 40
1
 40
1
 40
1
 10
172.799375
 20
232.806875
 30
0.0
 10
172.958125
 20
232.648125
 30
0.0
 10
173.169792
 20
232.542292
 30
0.0
 10
173.381458
 20
232.489375
 30
0.0
  0
SPLINE
  5
312
100
AcDbEntity
  8
0
 62
7
100
AcDbSpline
 70
8
 71
3
 72
8
 73
4
 74
0
 40
0
 40
0
 40
0
 40
0
 40
1
 40
1
 40
1
 40
1
 10
173.381458
 20
232.489375
 30
0.0
 10
173.619583
 20
232.436458
 30
0.0
 10
173.804792
 20
232.410000
 30
0.0
 10
173.990000
 20
232.410000
 30
0.0
  0
LWPOLYLINE
  5
313
100
AcDbEntity
  8
0
 62
7
100
AcDbPolyline
 90
4
 70
0
 10
172.772917
 20
230.213958
 30
0.0
 10
171.952708
 20
230.213958
 30
0.0
 10
171.952708
 20
233.627083
 30
0.0
 10
172.561250
 20
233.627083
 30
0.0
  0
SPLINE
  5
314
100
AcDbEntity
  8
0
 62
7
100
AcDbSpline
 70
8
 71
3
 72
8
 73
4
 74
0
 40
0
 40
0
 40
0
 40
0
 40
1
 40
1
 40
1
 40
1
 10
182.906458
 20
232.383542
 30
0.0
 10
183.118125
 20
232.383542
 30
0.0
 10
183.329792
 20
232.383542
 30
0.0
 10
183.541458
 20
232.383542
 30
0.0
  0
SPLINE
  5
315
100
AcDbEntity
  8
0
 62
7
100
AcDbSpline
 70
8
 71
3
 72
8
 73
4
 74
0
 40
0
 40
0
 40
0
 40
0
 40
1
 40
1
 40
1
 40
1
 10
183.541458
 20
232.383542
 30
0.0
 10
183.753125
 20
232.383542
 30
0.0
 10
183.964792
 20
232.383542
 30
0.0
 10
184.150000
 20
232.383542
 30
0.0
  0
SPLINE
  5
316
100
AcDbEntity
  8
0
 62
7
100
AcDbSpline
 70
8
 71
3
 72
8
 73
4
 74
0
 40
0
 40
0
 40
0
 40
0
 40
1
 40
1
 40
1
 40
1
 10
184.150000
 20
232.383542
 30
0.0
 10
184.150000
 20
232.568750
 30
0.0
 10
184.123542
 20
232.780417
 30
0.0
 10
184.123542
 20
232.992083
 30
0.0
  0
SPLINE
  5
317
100
AcDbEntity
  8
0
 62
7
100
AcDbSpline
 70
8
 71
3
 72
8
 73
4
 74
0
 40
0
 40
0
 40
0
 40
0
 40
1
 40
1
 40
1
 40
1
 10
184.123542
 20
232.992083
 30
0.0
 10
184.123542
 20
233.203750
 30
0.0
 10
184.097083
 20
233.415417
 30
0.0
 10
184.097083
 20
233.627083
 30
0.0
  0
LWPOLYLINE
  5
318
100
AcDbEntity
  8
0
 62
7
100
AcDbPolyline
 90
2
 70
0
 10
173.990000
 20
232.410000
 30
0.0
 10
182.906458
 20
232.383542
 30
0.0
  0
SPLINE
  5
319
100
AcDbEntity
  8
0
 62
7
100
AcDbSpline
 70
8
 71
3
 72
8
 73
4
 74
0
 40
0
 40
0
 40
0
 40
0
 40
1
 40
1
 40
1
 40
1
 10
175.630417
 20
224.498958
 30
0.0
 10
175.418750
 20
224.340208
 30
0.0
 10
175.207083
 20
224.181458
 30
0.0
 10
174.995417
 20
224.022708
 30
0.0
  0
SPLINE
  5
31a
100
AcDbEntity
  8
0
 62
7
100
AcDbSpline
 70
8
 71
3
 72
8
 73
4
 74
0
 40
0
 40
0
 40
0
 40
0
 40
1
 40
1
 40
1
 40
1
 10
174.995417
 20
224.022708
 30
0.0
 10
174.783750
 20
223.863958
 30
0.0
 10
174.572083
 20
223.705208
 30
0.0
 10
174.360417
 20
223.546458
 30
0.0
  0
LWPOLYLINE
  5
31b
100
AcDbEntity
  8
0
 62
7
100
AcDbPolyline
 90
4
 70
0
 10
184.097083
 20
233.627083
 30
0.0
 10
184.917292
 20
233.627083
 30
0.0
 10
184.917292
 20
231.431042
 30
0.0
 10
175.630417
 20
224.498958
 30
0.0
  0
SPLINE
  5
31c
100
AcDbEntity
  8
0
 62
7
100
AcDbSpline
 70
8
 71
3
 72
8
 73
4
 74
0
 40
0
 40
0
 40
0
 40
0
 40
1
 40
1
 40
1
 40
1
 10
182.853542
 20
223.493542
 30
0.0
 10
183.091667
 20
223.493542
 30
0.0
 10
183.329792
 20
223.493542
 30
0.0
 10
183.567917
 20
223.467083
 30
0.0
  0
SPLINE
  5
31d
100
AcDbEntity
  8
0
 62
7
100
AcDbSpline
 70
8
 71
3
 72
8
 73
4
 74
0
 40
0
 40
0
 40
0
 40
0
 40
1
 40
1
 40
1
 40
1
 10
183.567917
 20
223.467083
 30
0.0
 10
183.806042
 20
223.467083
 30
0.0
 10
183.991250
 20
223.440625
 30
0.0
 10
184.176458
 20
223.440625
 30
0.0
  0
SPLINE
  5
31e
100
AcDbEntity
  8
0
 62
7
100
AcDbSpline
 70
8
 71
3
 72
8
 73
4
 74
0
 40
0
 40
0
 40
0
 40
0
 40
1
 40
1
 40
1
 40
1
 10
184.176458
 20
223.440625
 30
0.0
 10
184.176458
 20
223.652292
 30
0.0
 10
184.150000
 20
223.890417
 30
0.0
 10
184.150000
 20
224.102083
 30
0.0
  0
SPLINE
  5
31f
100
AcDbEntity
  8
0
 62
7
100
AcDbSpline
 70
8
 71
3
 72
8
 73
4
 74
0
 40
0
 40
0
 40
0
 40
0
 40
1
 40
1
 40
1
 40
1
 10
184.150000
 20
224.102083
 30
0.0
 10
184.150000
 20
224.313750
 30
0.0
 10
184.123542
 20
224.551875
 30
0.0
 10
184.123542
 20
224.763542
 30
0.0
  0
LWPOLYLINE
  5
320
100
AcDbEntity
  8
0
 62
7
100
AcDbPolyline
 90
3
 70
0
 10
174.360417
 20
223.546458
 30
0.0
 10
174.360417
 20
223.520000
 30
0.0
 10
182.853542
 20
223.493542
 30
0.0
  0
SPLINE
  5
321
100
AcDbEntity
  8
0
 62
7
100
AcDbSpline
 70
8
 71
3
 72
8
 73
4
 74
0
 40
0
 40
0
 40
0
 40
0
 40
1
 40
1
 40
1
 40
1
 10
184.335208
 20
221.350417
 30
0.0
 10
184.335208
 20
221.800208
 30
0.0
 10
184.229375
 20
222.117708
 30
0.0
 10
184.017708
 20
222.302917
 30
0.0
  0
SPLINE
  5
322
100
AcDbEntity
  8
0
 62
7
100
AcDbSpline
 70
8
 71
3
 72
8
 73
4
 74
0
 40
0
 40
0
 40
0
 40
0
 40
1
 40
1
 40
1
 40
1
 10
184.017708
 20
222.302917
 30
0.0
 10
183.832500
 20
222.488125
 30
0.0
 10
183.541458
 20
222.567500
 30
0.0
 10
183.223958
 20
222.567500
 30
0.0
  0
SPLINE
  5
323
100
AcDbEntity
  8
0
 62
7
100
AcDbSpline
 70
8
 71
3
 72
8
 73
4
 74
0
 40
0
 40
0
 40
0
 40
0
 40
1
 40
1
 40
1
 40
1
 10
183.223958
 20
222.567500
 30
0.0
 10
182.880000
 20
222.567500
 30
0.0
 10
182.509583
 20
222.593958
 30
0.0
 10
182.059792
 20
222.593958
 30
0.0
  0
LWPOLYLINE
  5
324
100
AcDbEntity
  8
0
 62
7
100
AcDbPolyline
 90
4
 70
0
 10
184.123542
 20
224.763542
 30
0.0
 10
184.943750
 20
224.763542
 30
0.0
 10
184.943750
 20
221.350417
 30
0.0
 10
184.335208
 20
221.350417
 30
0.0
  0
SPLINE
  5
325
100
AcDbEntity
  8
0
 62
7
100
AcDbSpline
 70
8
 71
3
 72
8
 73
4
 74
0
 40
0
 40
0
 40
0
 40
0
 40
1
 40
1
 40
1
 40
1
 10
181.054375
 20
212.275208
 30
0.0
 10
181.636458
 20
212.301667
 30
0.0
 10
182.218542
 20
212.460417
 30
0.0
 10
182.747708
 20
212.698542
 30
0.0
  0
SPLINE
  5
326
100
AcDbEntity
  8
0
 62
7
100
AcDbSpline
 70
8
 71
3
 72
8
 73
4
 74
0
 40
0
 40
0
 40
0
 40
0
 40
1
 40
1
 40
1
 40
1
 10
182.747708
 20
212.698542
 30
0.0
 10
183.276875
 20
212.936667
 30
0.0
 10
183.700208
 20
213.307083
 30
0.0
 10
184.044167
 20
213.783333
 30
0.0
  0
SPLINE
  5
327
100
AcDbEntity
  8
0
 62
7
100
AcDbSpline
 70
8
 71
3
 72
8
 73
4
 74
0
 40
0
 40
0
 40
0
 40
0
 40
1
 40
1
 40
1
 40
1
 10
184.044167
 20
213.783333
 30
0.0
 10
184.388125
 20
214.259583
 30
0.0
 10
184.546875
 20
214.841667
 30
0.0
 10
184.546875
 20
215.582500
 30
0.0
  0
SPLINE
  5
328
100
AcDbEntity
  8
0
 62
7
100
AcDbSpline
 70
8
 71
3
 72
8
 73
4
 74
0
 40
0
 40
0
 40
0
 40
0
 40
1
 40
1
 40
1
 40
1
 10
184.546875
 20
215.582500
 30
0.0
 10
184.546875
 20
216.349792
 30
0.0
 10
184.335208
 20
216.931875
 30
0.0
 10
183.885417
 20
217.355208
 30
0.0
  0
SPLINE
  5
329
100
AcDbEntity
  8
0
 62
7
100
AcDbSpline
 70
8
 71
3
 72
8
 73
4
 74
0
 40
0
 40
0
 40
0
 40
0
 40
1
 40
1
 40
1
 40
1
 10
183.885417
 20
217.355208
 30
0.0
 10
183.462083
 20
217.752083
 30
0.0
 10
182.959375
 20
217.963750
 30
0.0
 10
182.377292
 20
217.963750
 30
0.0
  0
SPLINE
  5
32a
100
AcDbEntity
  8
0
 62
7
100
AcDbSpline
 70
8
 71
3
 72
8
 73
4
 74
0
 40
0
 40
0
 40
0
 40
0
 40
1
 40
1
 40
1
 40
1
 10
182.377292
 20
217.963750
 30
0.0
 10
181.848125
 20
217.963750
 30
0.0
 10
181.424792
 20
217.805000
 30
0.0
 10
181.080833
 20
217.513958
 30
0.0
  0
SPLINE
  5
32b
100
AcDbEntity
  8
0
 62
7
100
AcDbSpline
 70
8
 71
3
 72
8
 73
4
 74
0
 40
0
 40
0
 40
0
 40
0
 40
1
 40
1
 40
1
 40
1
 10
181.080833
 20
217.513958
 30
0.0
 10
180.736875
 20
217.222917
 30
0.0
 10
180.419375
 20
216.826042
 30
0.0
 10
180.154792
 20
216.349792
 30
0.0
  0
SPLINE
  5
32c
100
AcDbEntity
  8
0
 62
7
100
AcDbSpline
 70
8
 71
3
 72
8
 73
4
 74
0
 40
0
 40
0
 40
0
 40
0
 40
1
 40
1
 40
1
 40
1
 10
180.154792
 20
216.349792
 30
0.0
 10
179.890208
 20
215.873542
 30
0.0
 10
179.625625
 20
215.370833
 30
0.0
 10
179.387500
 20
214.841667
 30
0.0
  0
SPLINE
  5
32d
100
AcDbEntity
  8
0
 62
7
100
AcDbSpline
 70
8
 71
3
 72
8
 73
4
 74
0
 40
0
 40
0
 40
0
 40
0
 40
1
 40
1
 40
1
 40
1
 10
179.387500
 20
214.841667
 30
0.0
 10
179.175833
 20
214.365417
 30
0.0
 10
178.964167
 20
213.915625
 30
0.0
 10
178.699583
 20
213.439375
 30
0.0
  0
SPLINE
  5
32e
100
AcDbEntity
  8
0
 62
7
100
AcDbSpline
 70
8
 71
3
 72
8
 73
4
 74
0
 40
0
 40
0
 40
0
 40
0
 40
1
 40
1
 40
1
 40
1
 10
178.699583
 20
213.439375
 30
0.0
 10
178.461458
 20
212.963125
 30
0.0
 10
178.196875
 20
212.539792
 30
0.0
 10
177.879375
 20
212.169375
 30
0.0
  0
SPLINE
  5
32f
100
AcDbEntity
  8
0
 62
7
100
AcDbSpline
 70
8
 71
3
 72
8
 73
4
 74
0
 40
0
 40
0
 40
0
 40
0
 40
1
 40
1
 40
1
 40
1
 10
177.879375
 20
212.169375
 30
0.0
 10
177.561875
 20
211.798958
 30
0.0
 10
177.191458
 20
211.481458
 30
0.0
 10
176.768125
 20
211.243333
 30
0.0
  0
SPLINE
  5
330
100
AcDbEntity
  8
0
 62
7
100
AcDbSpline
 70
8
 71
3
 72
8
 73
4
 74
0
 40
0
 40
0
 40
0
 40
0
 40
1
 40
1
 40
1
 40
1
 10
176.768125
 20
211.243333
 30
0.0
 10
176.344792
 20
211.005208
 30
0.0
 10
175.842083
 20
210.899375
 30
0.0
 10
175.233542
 20
210.899375
 30
0.0
  0
SPLINE
  5
331
100
AcDbEntity
  8
0
 62
7
100
AcDbSpline
 70
8
 71
3
 72
8
 73
4
 74
0
 40
0
 40
0
 40
0
 40
0
 40
1
 40
1
 40
1
 40
1
 10
175.233542
 20
210.899375
 30
0.0
 10
174.545625
 20
210.899375
 30
0.0
 10
173.937083
 20
211.058125
 30
0.0
 10
173.407917
 20
211.402083
 30
0.0
  0
SPLINE
  5
332
100
AcDbEntity
  8
0
 62
7
100
AcDbSpline
 70
8
 71
3
 72
8
 73
4
 74
0
 40
0
 40
0
 40
0
 40
0
 40
1
 40
1
 40
1
 40
1
 10
173.407917
 20
211.402083
 30
0.0
 10
172.878750
 20
211.746042
 30
0.0
 10
172.455417
 20
212.222292
 30
0.0
 10
172.164375
 20
212.883750
 30
0.0
  0
SPLINE
  5
333
100
AcDbEntity
  8
0
 62
7
100
AcDbSpline
 70
8
 71
3
 72
8
 73
4
 74
0
 40
0
 40
0
 40
0
 40
0
 40
1
 40
1
 40
1
 40
1
 10
172.164375
 20
212.883750
 30
0.0
 10
171.873333
 20
213.518750
 30
0.0
 10
171.714583
 20
214.312500
 30
0.0
 10
171.714583
 20
215.238542
 30
0.0
  0
SPLINE
  5
334
100
AcDbEntity
  8
0
 62
7
100
AcDbSpline
 70
8
 71
3
 72
8
 73
4
 74
0
 40
0
 40
0
 40
0
 40
0
 40
1
 40
1
 40
1
 40
1
 10
171.714583
 20
215.238542
 30
0.0
 10
171.714583
 20
215.794167
 30
0.0
 10
171.793958
 20
216.376250
 30
0.0
 10
171.952708
 20
216.958333
 30
0.0
  0
SPLINE
  5
335
100
AcDbEntity
  8
0
 62
7
100
AcDbSpline
 70
8
 71
3
 72
8
 73
4
 74
0
 40
0
 40
0
 40
0
 40
0
 40
1
 40
1
 40
1
 40
1
 10
171.952708
 20
216.958333
 30
0.0
 10
172.111458
 20
217.540417
 30
0.0
 10
172.349583
 20
218.069583
 30
0.0
 10
172.667083
 20
218.545833
 30
0.0
  0
LWPOLYLINE
  5
336
100
AcDbEntity
  8
0
 62
7
100
AcDbPolyline
 90
4
 70
0
 10
182.059792
 20
222.593958
 30
0.0
 10
171.688125
 20
222.620417
 30
0.0
 10
171.688125
 20
223.520000
 30
0.0
 10
171.714583
 20
223.520000
 30
0.0
  0
SPLINE
  5
337
100
AcDbEntity
  8
0
 62
7
100
AcDbSpline
 70
8
 71
3
 72
8
 73
4
 74
0
 40
0
 40
0
 40
0
 40
0
 40
1
 40
1
 40
1
 40
1
 10
175.815625
 20
218.783958
 30
0.0
 10
174.730833
 20
218.731042
 30
0.0
 10
173.910625
 20
218.334167
 30
0.0
 10
173.355000
 20
217.646250
 30
0.0
  0
SPLINE
  5
338
100
AcDbEntity
  8
0
 62
7
100
AcDbSpline
 70
8
 71
3
 72
8
 73
4
 74
0
 40
0
 40
0
 40
0
 40
0
 40
1
 40
1
 40
1
 40
1
 10
173.355000
 20
217.646250
 30
0.0
 10
172.799375
 20
216.958333
 30
0.0
 10
172.508333
 20
216.111667
 30
0.0
 10
172.508333
 20
215.132708
 30
0.0
  0
SPLINE
  5
339
100
AcDbEntity
  8
0
 62
7
100
AcDbSpline
 70
8
 71
3
 72
8
 73
4
 74
0
 40
0
 40
0
 40
0
 40
0
 40
1
 40
1
 40
1
 40
1
 10
172.508333
 20
215.132708
 30
0.0
 10
172.508333
 20
214.656458
 30
0.0
 10
172.587708
 20
214.206667
 30
0.0
 10
172.772917
 20
213.809792
 30
0.0
  0
SPLINE
  5
33a
100
AcDbEntity
  8
0
 62
7
100
AcDbSpline
 70
8
 71
3
 72
8
 73
4
 74
0
 40
0
 40
0
 40
0
 40
0
 40
1
 40
1
 40
1
 40
1
 10
172.772917
 20
213.809792
 30
0.0
 10
172.958125
 20
213.412917
 30
0.0
 10
173.222708
 20
213.068958
 30
0.0
 10
173.566667
 20
212.830833
 30
0.0
  0
SPLINE
  5
33b
100
AcDbEntity
  8
0
 62
7
100
AcDbSpline
 70
8
 71
3
 72
8
 73
4
 74
0
 40
0
 40
0
 40
0
 40
0
 40
1
 40
1
 40
1
 40
1
 10
173.566667
 20
212.830833
 30
0.0
 10
173.910625
 20
212.592708
 30
0.0
 10
174.333958
 20
212.460417
 30
0.0
 10
174.836667
 20
212.460417
 30
0.0
  0
SPLINE
  5
33c
100
AcDbEntity
  8
0
 62
7
100
AcDbSpline
 70
8
 71
3
 72
8
 73
4
 74
0
 40
0
 40
0
 40
0
 40
0
 40
1
 40
1
 40
1
 40
1
 10
174.836667
 20
212.460417
 30
0.0
 10
175.392292
 20
212.460417
 30
0.0
 10
175.842083
 20
212.619167
 30
0.0
 10
176.212500
 20
212.910208
 30
0.0
  0
SPLINE
  5
33d
100
AcDbEntity
  8
0
 62
7
100
AcDbSpline
 70
8
 71
3
 72
8
 73
4
 74
0
 40
0
 40
0
 40
0
 40
0
 40
1
 40
1
 40
1
 40
1
 10
176.212500
 20
212.910208
 30
0.0
 10
176.582917
 20
213.201250
 30
0.0
 10
176.900417
 20
213.598125
 30
0.0
 10
177.165000
 20
214.047917
 30
0.0
  0
SPLINE
  5
33e
100
AcDbEntity
  8
0
 62
7
100
AcDbSpline
 70
8
 71
3
 72
8
 73
4
 74
0
 40
0
 40
0
 40
0
 40
0
 40
1
 40
1
 40
1
 40
1
 10
177.165000
 20
214.047917
 30
0.0
 10
177.429583
 20
214.524167
 30
0.0
 10
177.694167
 20
215.026875
 30
0.0
 10
177.932292
 20
215.556042
 30
0.0
  0
SPLINE
  5
33f
100
AcDbEntity
  8
0
 62
7
100
AcDbSpline
 70
8
 71
3
 72
8
 73
4
 74
0
 40
0
 40
0
 40
0
 40
0
 40
1
 40
1
 40
1
 40
1
 10
177.932292
 20
215.556042
 30
0.0
 10
178.143958
 20
216.032292
 30
0.0
 10
178.355625
 20
216.482083
 30
0.0
 10
178.593750
 20
216.931875
 30
0.0
  0
SPLINE
  5
340
100
AcDbEntity
  8
0
 62
7
100
AcDbSpline
 70
8
 71
3
 72
8
 73
4
 74
0
 40
0
 40
0
 40
0
 40
0
 40
1
 40
1
 40
1
 40
1
 10
178.593750
 20
216.931875
 30
0.0
 10
178.831875
 20
217.381667
 30
0.0
 10
179.096458
 20
217.805000
 30
0.0
 10
179.387500
 20
218.175417
 30
0.0
  0
SPLINE
  5
341
100
AcDbEntity
  8
0
 62
7
100
AcDbSpline
 70
8
 71
3
 72
8
 73
4
 74
0
 40
0
 40
0
 40
0
 40
0
 40
1
 40
1
 40
1
 40
1
 10
179.387500
 20
218.175417
 30
0.0
 10
179.678542
 20
218.545833
 30
0.0
 10
180.048958
 20
218.863333
 30
0.0
 10
180.472292
 20
219.075000
 30
0.0
  0
SPLINE
  5
342
100
AcDbEntity
  8
0
 62
7
100
AcDbSpline
 70
8
 71
3
 72
8
 73
4
 74
0
 40
0
 40
0
 40
0
 40
0
 40
1
 40
1
 40
1
 40
1
 10
180.472292
 20
219.075000
 30
0.0
 10
180.895625
 20
219.313125
 30
0.0
 10
181.398333
 20
219.418958
 30
0.0
 10
181.980417
 20
219.418958
 30
0.0
  0
SPLINE
  5
343
100
AcDbEntity
  8
0
 62
7
100
AcDbSpline
 70
8
 71
3
 72
8
 73
4
 74
0
 40
0
 40
0
 40
0
 40
0
 40
1
 40
1
 40
1
 40
1
 10
181.980417
 20
219.418958
 30
0.0
 10
182.297917
 20
219.418958
 30
0.0
 10
182.641875
 20
219.366042
 30
0.0
 10
183.012292
 20
219.260208
 30
0.0
  0
SPLINE
  5
344
100
AcDbEntity
  8
0
 62
7
100
AcDbSpline
 70
8
 71
3
 72
8
 73
4
 74
0
 40
0
 40
0
 40
0
 40
0
 40
1
 40
1
 40
1
 40
1
 10
183.012292
 20
219.260208
 30
0.0
 10
183.382708
 20
219.154375
 30
0.0
 10
183.726667
 20
218.942708
 30
0.0
 10
184.070625
 20
218.678125
 30
0.0
  0
SPLINE
  5
345
100
AcDbEntity
  8
0
 62
7
100
AcDbSpline
 70
8
 71
3
 72
8
 73
4
 74
0
 40
0
 40
0
 40
0
 40
0
 40
1
 40
1
 40
1
 40
1
 10
184.070625
 20
218.678125
 30
0.0
 10
184.414583
 20
218.413542
 30
0.0
 10
184.679167
 20
218.016667
 30
0.0
 10
184.890833
 20
217.540417
 30
0.0
  0
SPLINE
  5
346
100
AcDbEntity
  8
0
 62
7
100
AcDbSpline
 70
8
 71
3
 72
8
 73
4
 74
0
 40
0
 40
0
 40
0
 40
0
 40
1
 40
1
 40
1
 40
1
 10
184.890833
 20
217.540417
 30
0.0
 10
185.102500
 20
217.064167
 30
0.0
 10
185.208333
 20
216.429167
 30
0.0
 10
185.208333
 20
215.688333
 30
0.0
  0
SPLINE
  5
347
100
AcDbEntity
  8
0
 62
7
100
AcDbSpline
 70
8
 71
3
 72
8
 73
4
 74
0
 40
0
 40
0
 40
0
 40
0
 40
1
 40
1
 40
1
 40
1
 10
185.208333
 20
215.688333
 30
0.0
 10
185.208333
 20
215.212083
 30
0.0
 10
185.155417
 20
214.682917
 30
0.0
 10
185.023125
 20
214.100833
 30
0.0
  0
SPLINE
  5
348
100
AcDbEntity
  8
0
 62
7
100
AcDbSpline
 70
8
 71
3
 72
8
 73
4
 74
0
 40
0
 40
0
 40
0
 40
0
 40
1
 40
1
 40
1
 40
1
 10
185.023125
 20
214.100833
 30
0.0
 10
184.890833
 20
213.518750
 30
0.0
 10
184.652708
 20
212.963125
 30
0.0
 10
184.282292
 20
212.460417
 30
0.0
  0
LWPOLYLINE
  5
349
100
AcDbEntity
  8
0
 62
7
100
AcDbPolyline
 90
5
 70
0
 10
172.667083
 20
218.545833
 30
0.0
 10
171.873333
 20
218.440000
 30
0.0
 10
171.873333
 20
219.392500
 30
0.0
 10
175.815625
 20
219.498333
 30
0.0
 10
175.815625
 20
218.783958
 30
0.0
  0
LWPOLYLINE
  5
34a
100
AcDbEntity
  8
0
 62
7
100
AcDbPolyline
 90
6
 70
0
 10
184.282292
 20
212.460417
 30
0.0
 10
185.076042
 20
212.539792
 30
0.0
 10
185.076042
 20
211.587292
 30
0.0
 10
181.001458
 20
211.587292
 30
0.0
 10
181.001458
 20
212.275208
 30
0.0
 10
181.054375
 20
212.275208
 30
0.0
  0
SPLINE
  5
34b
100
AcDbEntity
  8
0
 62
1
100
AcDbSpline
 70
8
 71
3
 72
8
 73
4
 74
0
 40
0
 40
0
 40
0
 40
0
 40
1
 40
1
 40
1
 40
1
 10
231.553509
 20
366.785671
 30
0.0
 10
231.557925
 20
366.785671
 30
0.0
 10
231.562160
 20
366.783916
 30
0.0
 10
231.565283
 20
366.780794
 30
0.0
  0
SPLINE
  5
34c
100
AcDbEntity
  8
0
 62
1
100
AcDbSpline
 70
8
 71
3
 72
8
 73
4
 74
0
 40
0
 40
0
 40
0
 40
0
 40
1
 40
1
 40
1
 40
1
 10
231.565283
 20
366.780794
 30
0.0
 10
231.568405
 20
366.777671
 30
0.0
 10
231.570160
 20
366.773436
 30
0.0
 10
231.570160
 20
366.769019
 30
0.0
  0
LWPOLYLINE
  5
34d
100
AcDbEntity
  8
0
 62
1
100
AcDbPolyline
 90
2
 70
0
 10
67.438803
 20
366.785671
 30
0.0
 10
231.553509
 20
366.785671
 30
0.0
  0
SPLINE
  5
34e
100
AcDbEntity
  8
0
 62
1
100
AcDbSpline
 70
8
 71
3
 72
8
 73
4
 74
0
 40
0
 40
0
 40
0
 40
0
 40
1
 40
1
 40
1
 40
1
 10
231.570160
 20
151.310680
 30
0.0
 10
231.570160
 20
151.306263
 30
0.0
 10
231.568405
 20
151.302028
 30
0.0
 10
231.565283
 20
151.298905
 30
0.0
  0
SPLINE
  5
34f
100
AcDbEntity
  8
0
 62
1
100
AcDbSpline
 70
8
 71
3
 72
8
 73
4
 74
0
 40
0
 40
0
 40
0
 40
0
 40
1
 40
1
 40
1
 40
1
 10
231.565283
 20
151.298905
 30
0.0
 10
231.562160
 20
151.295783
 30
0.0
 10
231.557925
 20
151.294028
 30
0.0
 10
231.553509
 20
151.294028
 30
0.0
  0
LWPOLYLINE
  5
350
100
AcDbEntity
  8
0
 62
1
100
AcDbPolyline
 90
2
 70
0
 10
231.570160
 20
366.769019
 30
0.0
 10
231.570160
 20
151.310680
 30
0.0
  0
SPLINE
  5
351
100
AcDbEntity
  8
0
 62
1
100
AcDbSpline
 70
8
 71
3
 72
8
 73
4
 74
0
 40
0
 40
0
 40
0
 40
0
 40
1
 40
1
 40
1
 40
1
 10
67.438803
 20
151.294028
 30
0.0
 10
67.434387
 20
151.294028
 30
0.0
 10
67.430151
 20
151.295783
 30
0.0
 10
67.427029
 20
151.298905
 30
0.0
  0
SPLINE
  5
352
100
AcDbEntity
  8
0
 62
1
100
AcDbSpline
 70
8
 71
3
 72
8
 73
4
 74
0
 40
0
 40
0
 40
0
 40
0
 40
1
 40
1
 40
1
 40
1
 10
67.427029
 20
151.298905
 30
0.0
 10
67.423906
 20
151.302028
 30
0.0
 10
67.422152
 20
151.306263
 30
0.0
 10
67.422152
 20
151.310680
 30
0.0
  0
LWPOLYLINE
  5
353
100
AcDbEntity
  8
0
 62
1
100
AcDbPolyline
 90
2
 70
0
 10
231.553509
 20
151.294028
 30
0.0
 10
67.438803
 20
151.294028
 30
0.0
  0
SPLINE
  5
354
100
AcDbEntity
  8
0
 62
1
100
AcDbSpline
 70
8
 71
3
 72
8
 73
4
 74
0
 40
0
 40
0
 40
0
 40
0
 40
1
 40
1
 40
1
 40
1
 10
67.422152
 20
366.769019
 30
0.0
 10
67.422152
 20
366.773436
 30
0.0
 10
67.423906
 20
366.777671
 30
0.0
 10
67.427029
 20
366.780794
 30
0.0
  0
SPLINE
  5
355
100
AcDbEntity
  8
0
 62
1
100
AcDbSpline
 70
8
 71
3
 72
8
 73
4
 74
0
 40
0
 40
0
 40
0
 40
0
 40
1
 40
1
 40
1
 40
1
 10
67.427029
 20
366.780794
 30
0.0
 10
67.430151
 20
366.783916
 30
0.0
 10
67.434387
 20
366.785671
 30
0.0
 10
67.438803
 20
366.785671
 30
0.0
  0
LWPOLYLINE
  5
356
100
AcDbEntity
  8
0
 62
1
100
AcDbPolyline
 90
2
 70
0
 10
67.422152
 20
151.310680
 30
0.0
 10
67.422152
 20
366.769019
 30
0.0
  0
LWPOLYLINE
  5
357
100
AcDbEntity
  8
0
 62
1
100
AcDbPolyline
 90
1
 70
1
 10
67.438803
 20
366.785671
 30
0.0
  0
ENDSEC
  0
SECTION
  2
OBJECTS
  0
DICTIONARY
  5
C
330
0
100
AcDbDictionary
  3
ACAD_GROUP
350
D
  3
ACAD_MLINESTYLE
350
17
  0
DICTIONARY
  5
D
330
C
100
AcDbDictionary
  0
DICTIONARY
  5
1A
330
C
100
AcDbDictionary
  0
DICTIONARY
  5
17
330
C
100
AcDbDictionary
  3
STANDARD
350
18
  0
DICTIONARY
  5
19
330
C
100
AcDbDictionary
  0
ENDSEC
  0
EOF
