<?xml version="1.0" encoding="UTF-8" standalone="no"?>
<!-- Generator: Adobe Illustrator 27.0.0, SVG Export Plug-In . SVG Version: 6.00 Build 0)  -->

<svg
   version="1.1"
   id="Calque_1"
   x="0px"
   y="0px"
   viewBox="0 0 1080 1920"
   style="enable-background:new 0 0 1080 1920;"
   xml:space="preserve"
   sodipodi:docname="Logo_Demiurge.svg"
   inkscape:version="1.1.2 (0a00cf5339, 2022-02-04)"
   xmlns:inkscape="http://www.inkscape.org/namespaces/inkscape"
   xmlns:sodipodi="http://sodipodi.sourceforge.net/DTD/sodipodi-0.dtd"
   xmlns:xlink="http://www.w3.org/1999/xlink"
   xmlns="http://www.w3.org/2000/svg"
   xmlns:svg="http://www.w3.org/2000/svg"><defs
   id="defs7012" /><sodipodi:namedview
   id="namedview7010"
   pagecolor="#ffffff"
   bordercolor="#666666"
   borderopacity="1.0"
   inkscape:pageshadow="2"
   inkscape:pageopacity="0.0"
   inkscape:pagecheckerboard="0"
   showgrid="false"
   inkscape:zoom="0.4546875"
   inkscape:cx="539.93127"
   inkscape:cy="961.09966"
   inkscape:window-width="3440"
   inkscape:window-height="1371"
   inkscape:window-x="0"
   inkscape:window-y="32"
   inkscape:window-maximized="1"
   inkscape:current-layer="Calque_1" />
<style
   type="text/css"
   id="style6915">
	.st0{fill:#FFFFFF;}
</style>
<image
   style="display:none;overflow:visible;"
   width="1080"
   height="847"
   xlink:href="../../Downloads/PHOTO-2022-11-22-15-21-13.png"
   transform="matrix(1 0 0 1 17 457)"
   id="image6917">
</image>
<polygon
   points="393.2,1205.5 378.4,1205.5 378,738.6 393.6,733 "
   id="polygon6919" />
<polygon
   points="367.4,1161.8 360,1161.8 360,746.9 368.2,742.7 "
   id="polygon6921" />
<polygon
   points="410.7,1147 403.4,1147 403.4,730.5 411.6,728 "
   id="polygon6923" />
<polygon
   points="427.1,1142.9 421.4,1142.9 421.4,725.6 427.9,723.9 "
   id="polygon6925" />
<polygon
   points="452.5,1154.8 445.1,1154.8 445.1,721.5 453.3,720.6 "
   id="polygon6927" />
<polygon
   points="496.7,1142.5 489.3,1142.5 489.3,719.1 497.5,719.9 "
   id="polygon6929" />
<polygon
   points="519.6,1161.4 512.2,1161.4 512.2,720.7 520.4,721.6 "
   id="polygon6931" />
<polygon
   points="540.9,1141.3 536.8,1141.3 536.8,724 541.7,724.9 "
   id="polygon6933" />
<polygon
   points="563.8,1133.5 552.3,1133.5 552.3,727.2 564.6,730.5 "
   id="polygon6935" />
<polygon
   points="585,1172 577.7,1172 577.7,734.6 585.9,738.1 "
   id="polygon6937" />
<polygon
   points="608,1159.3 598.1,1159.3 598.1,742.8 608.8,748.5 "
   id="polygon6939" />
<polygon
   points="471.3,1138 466.4,1138 466.4,719.1 472.1,719 "
   id="polygon6941" />
<path
   d="M334.6,1204.7V740.2c0-3,1.6-5.7,4.2-7.2c25.5-14.2,162.7-82.8,291.8,8.1c2.2,1.5,3.5,4.1,3.5,6.7v456.9  c0,1.8-1.5,3.3-3.3,3.3h-12.3c-1.8,0-3.3-1.5-3.3-3.3l3.2-455.2c0-2.7-1.3-5.3-3.6-6.8c-20-13.7-121.6-74.5-257-7.1  c-2.8,1.4-4.6,4.2-4.6,7.3l-2.4,461.8c0,1.8-1.5,3.3-3.3,3.3h-9.8C336.1,1208,334.6,1206.5,334.6,1204.7z"
   id="path6943" />
<polygon
   points="816.2,1172 625.6,1208 625.6,742.4 816.2,710.5 "
   id="polygon6945" />
<path
   d="M813.8,708c0,2.7-361.6-106-482,22.1c-0.3,2.8,145.8-102.3,300.3,7.4"
   id="path6947" />
<path
   d="M393.6,1018.9c0,0,2.4-2.6,2.9-6.3c0.5-3.7,3.2,8-0.2,9.7c-3.5,1.7-6.3,2.4-6.3,2.4L393.6,1018.9z"
   id="path6949" />
<path
   d="M377.6,995.3c0,0-1.5-3.2-1-6.9s-5,6.9-2.3,9.4c2.7,2.5,5.1,3.9,5.1,3.9L377.6,995.3z"
   id="path6951" />
<path
   d="M489.5,995c0,0-2.6-3-2.8-6.9c-0.2-3.9-4.9,8.1-0.8,10.1s7.4,3,7.4,3L489.5,995z"
   id="path6953" />
<path
   d="M467.3,778.8c0,0-2.5-1-3.9-3.3c-1.3-2.3-0.5,6.5,2.7,6.4c3.1,0,5.4-0.5,5.4-0.5L467.3,778.8z"
   id="path6955" />
<path
   d="M536.9,823.9c0,0-2.6-3-2.8-6.9c-0.2-3.9-4.9,8.1-0.8,10.1c4.1,2.1,7.4,3,7.4,3L536.9,823.9z"
   id="path6957" />
<path
   d="M445.1,867.8c0,0-3.3-1.2-5.6-4.1c-2.3-3,1.3,8.4,5,8.3s6.4-0.8,6.4-0.8L445.1,867.8z"
   id="path6959" />
<path
   d="M410.8,974.7c0,0,2.4-2.6,2.9-6.3s3.2,8-0.2,9.7c-3.5,1.7-6.3,2.4-6.3,2.4L410.8,974.7z"
   id="path6961" />
<path
   d="M391.9,823.8c0,0,3.3-1.4,5.3-4.5s-0.4,8.6-4.3,8.7c-3.8,0.1-6.7-0.5-6.7-0.5L391.9,823.8z"
   id="path6963" />
<path
   d="M497.7,1061.7c0,0,1.7-3.1,1.3-6.8c-0.4-3.7,5,7,2.1,9.4c-3,2.5-5.5,3.8-5.5,3.8L497.7,1061.7z"
   id="path6965" />
<path
   d="M584.2,1043.1c0,0,3.2-1.5,5.1-4.7c1.9-3.2-0.1,8.6-3.9,8.8c-3.8,0.2-6.7-0.2-6.7-0.2L584.2,1043.1z"
   id="path6967" />
<path
   d="M541.7,931.1c0,0,3-2,4.3-5.4s1.2,8.5-2.6,9.3c-3.8,0.8-6.6,0.8-6.6,0.8L541.7,931.1z"
   id="path6969" />
<path
   d="M452.6,904.4c0,0,2.4-2.6,2.9-6.3s3.2,8-0.2,9.7c-3.5,1.7-6.3,2.4-6.3,2.4L452.6,904.4z"
   id="path6971" />
<g
   id="g6989">
	<path
   class="st0"
   d="M741.4,774.8c0.1,1.8,0.5,3,1.2,3.6c0.7,0.7,1.7,1,3,1.1c1.3,0.1,2.7,0.1,4.4,0.1h30.2c0.9,0,1.8,0,2.7,0.1   c0.9,0,1.6,0.1,2.3,0.1c0-0.8-0.1-1.7-0.1-2.5c0-0.8-0.1-1.7-0.1-2.5h3.1l0.1,16.5c0,4.2-0.5,8-1.5,11.5c-1,3.5-2.5,6.5-4.5,9.1   c-2,2.5-4.6,4.5-7.7,5.9c-3.1,1.4-6.8,2.1-11,2.1c-3.2,0-6.3-0.6-9.2-1.7c-2.9-1.1-5.5-2.8-7.8-5s-4.1-5-5.4-8.4   c-1.3-3.3-2-7.2-2-11.6v-18.4H741.4z M747.4,785.7c-1.3,0-2.3,0-3.2,0c-0.9,0-1.6-0.1-2.2-0.2c0,1.3-0.1,2.4-0.1,3.5   c0,1.1,0,1.9,0,2.7s0,1.2,0,1.4c0,3,0.6,5.8,1.7,8.2c1.1,2.5,2.7,4.6,4.7,6.3c2,1.8,4.3,3.1,7,4.1c2.7,1,5.6,1.4,8.7,1.4   c4.4,0,8.3-0.8,11.5-2.4c3.2-1.6,5.8-4.1,7.6-7.4c1.8-3.3,2.7-7.5,2.7-12.7c0-1.7-0.4-2.9-1.1-3.6c-0.7-0.7-1.7-1.1-2.9-1.1   c-1.3-0.1-2.7-0.1-4.4-0.1H747.4z"
   id="path6973" />
	<path
   class="st0"
   d="M757.3,850.6c2.1,0,3.5-0.3,4.4-0.8c0.9-0.6,1.4-1.4,1.6-2.7c0.2-1.2,0.2-2.8,0.1-4.8l-0.2-5.1h-16   c-1.3,0-2.3,0-3.2,0c-0.9,0-1.6-0.1-2.2-0.2l0.2,13.4c0,2.1,0.4,3.8,1,5.3c0.6,1.5,1.7,2.7,3.3,3.5c1.6,0.8,3.8,1.3,6.5,1.3v2.4   l-13.7-0.4v-36.1h2.3c0.1,1.8,0.5,3,1.2,3.6c0.7,0.7,1.7,1,3,1.1c1.3,0.1,2.7,0.1,4.4,0.1h30.2c0.9,0,1.8,0,2.7,0.1   c0.9,0,1.6,0.1,2.3,0.1c0-0.8-0.1-1.7-0.1-2.5c0-0.8-0.1-1.7-0.1-2.5h3.1v33.7l-12.2,0.4V858c2.8,0,4.8-0.4,6.3-1.3   c1.4-0.8,2.4-2,2.9-3.4s0.7-3,0.7-4.8l-0.1-6c0-1.7-0.4-3-1-3.7c-0.6-0.7-1.5-1.2-2.7-1.4c-1.2-0.2-2.7-0.2-4.7-0.2H766l-0.1,13.2   l6-0.5v3.1h-14.7V850.6z M792.3,842.9l2-1.5l8.4,8.8c0.8,0.9,1.2,1.7,1.3,2.4c0,0.7-0.1,1.2-0.3,1.6c-0.3,0.4-0.5,0.6-0.6,0.7   c-0.2,0.1-0.5,0.3-1,0.4c-0.5,0.1-1,0-1.6-0.2c-0.6-0.3-1.2-0.9-1.9-2L792.3,842.9z"
   id="path6975" />
	<path
   class="st0"
   d="M738.4,896.2c4.7-2.1,9.3-4.1,14-6.2c4.6-2.1,9.3-4.2,14.1-6.2c1.5-0.7,3-1.3,4.5-1.9c1.5-0.6,3-1.2,4.6-1.8   c1.5-0.6,3.1-1.2,4.6-1.8c-0.5,0-1,0-1.5,0c-0.5,0-1,0-1.5,0c-1.7,0-3.7-0.1-6.1-0.2c-2.4-0.1-4.9-0.2-7.6-0.2   c-2.7-0.1-5.4-0.2-8-0.2c-2.7,0-5.2-0.1-7.6-0.1c-1,0-2.1-0.1-3.1-0.1c-1,0-2-0.1-2.9-0.2c0,0.9,0.1,1.8,0.1,2.6   c0,0.9,0.1,1.7,0.1,2.6h-3.1V869h2.3c0,1.4,0.4,2.5,0.9,3.2c0.6,0.7,1.4,1.1,2.3,1.3c1,0.2,2,0.3,3.2,0.3l31.9,1.3   c0.9,0,1.9,0.1,2.8,0.1c0.9,0,1.8,0.1,2.7,0.1c0-0.8-0.1-1.7-0.1-2.5c0-0.8-0.1-1.7-0.1-2.5h3v10.7l-27.8,12   c-1.4,0.6-2.8,1.2-4.2,1.8c-1.4,0.6-2.8,1.2-4.2,1.8c-1.4,0.6-2.8,1.2-4.3,1.9v0.1c1.3,0.5,2.8,1.1,4.5,1.8s3.3,1.3,4.5,1.8   c5.1,2.1,10.3,4.2,15.4,6.4c5.2,2.2,10.5,4.4,16,6.5v10.4h-2.3c0-1.2-0.2-2.1-0.7-2.9c-0.5-0.7-1.3-1.3-2.4-1.6   c-1.1-0.3-2.6-0.4-4.6-0.3l-31.8,1.8c-0.8,0.1-1.6,0.1-2.3,0.1c-0.7,0-1.4,0-2,0c0,0.8,0.1,1.7,0.1,2.6c0,0.9,0.1,1.7,0.1,2.6h-3.1   v-15.7h2.3c0,1.4,0.4,2.5,1.1,3.2c0.7,0.7,1.6,1.1,2.8,1.3c1.2,0.2,2.7,0.2,4.5,0.1l23.1-1.4c0.7,0,1.5-0.1,2.2-0.1   c0.7,0,1.5-0.1,2.2-0.1c0.7,0,1.5-0.1,2.2-0.1c-0.3-0.1-0.7-0.3-1-0.5c-0.4-0.2-0.8-0.3-1.2-0.5l-38.9-15.8V896.2z"
   id="path6977" />
	<path
   class="st0"
   d="M785.8,949.8c0-1.7-0.4-2.9-1.2-3.6c-0.7-0.7-1.8-1-3-1.1c-1.3-0.1-2.7-0.1-4.4-0.1h-29.8c-1.3,0-2.3,0-3.3,0   c-0.9,0-1.7-0.1-2.3-0.2c0,0.8,0.1,1.7,0.1,2.5c0,0.8,0.1,1.7,0.1,2.5h-3.1v-15.8h2.3c0.1,1.8,0.5,3,1.2,3.6c0.7,0.7,1.7,1,3,1.1   c1.3,0.1,2.7,0.1,4.4,0.1h30.2c0.9,0,1.8,0,2.7,0.1c0.9,0,1.6,0.1,2.3,0.1c0-0.8-0.1-1.7-0.1-2.5c0-0.8-0.1-1.7-0.1-2.5h3.1v15.8   H785.8z"
   id="path6979" />
	<path
   class="st0"
   d="M785.8,971.5c0-1.5-0.3-2.6-1-3.3c-0.7-0.7-1.4-1.1-2.3-1.2c-0.9-0.1-1.6-0.2-2.3-0.2h-17.6   c-2.6,0-5.1,0.2-7.6,0.5s-4.7,1-6.6,2c-2,1-3.5,2.4-4.7,4.4c-1.2,1.9-1.8,4.5-1.8,7.6c0,3.4,0.8,6.1,2.4,8.2   c1.6,2.1,3.8,3.7,6.6,4.7c2.8,1,6,1.5,9.7,1.6l19.7,0.2c0.9,0,1.8,0,2.7,0.1c0.9,0,1.6,0.1,2.3,0.1c0-0.8-0.1-1.7-0.1-2.5   c0-0.8-0.1-1.6-0.1-2.5h3.1v13h-2.3c0-1.8-0.4-3-1.2-3.6c-0.7-0.7-1.8-1-3-1.1c-1.3-0.1-2.7-0.1-4.4-0.2l-16.2-0.1   c-3,0-5.9-0.3-8.7-1c-2.8-0.7-5.2-1.7-7.4-3.2c-2.1-1.5-3.8-3.4-5.1-5.8c-1.2-2.4-1.9-5.4-1.9-8.9c0-3.7,0.5-6.9,1.5-9.4   c1-2.5,2.5-4.6,4.6-6.1c2.1-1.5,4.6-2.6,7.8-3.3c3.1-0.7,6.9-1,11.2-1h14.2c1.2,0,2.6,0,4.3,0.1c1.7,0.1,2.9,0.1,3.8,0.2   c0-0.8-0.1-1.7-0.1-2.5s-0.1-1.7-0.1-2.5h3v15.7H785.8z"
   id="path6981" />
	<path
   class="st0"
   d="M739.1,1010.2h2.3c0.1,1.8,0.5,3,1.2,3.6c0.7,0.7,1.7,1,3,1.1c1.3,0.1,2.7,0.1,4.4,0.1h30.2   c0.9,0,1.8,0,2.7,0.1c0.9,0,1.6,0.1,2.3,0.1c0-0.8-0.1-1.7-0.1-2.5c0-0.8-0.1-1.7-0.1-2.5h3.1c0,2.6,0.1,5.3,0.1,7.9   c0,2.7,0,5.4-0.1,8.1c0,4.5-0.6,8.2-1.6,11c-1,2.8-2.4,4.8-4.3,6.1c-1.8,1.3-4.1,2-6.7,2c-1.8,0-3.7-0.3-5.6-1   c-1.9-0.7-3.6-2-5.1-3.9c-1.5-1.9-2.6-4.6-3.4-8.2c-0.7,0.9-1.5,1.8-2.5,2.5s-2.2,1.5-3.6,2.4l-7.5,4.8c-1.3,0.8-2.4,1.6-3.4,2.3   c-1,0.7-1.8,1.6-2.4,2.6c-0.6,1-0.9,2.2-0.9,3.6h-2.3v-8.8c1.2-1.4,2.4-2.5,3.6-3.4c1.2-0.9,2.6-1.9,4.1-2.8l7.5-4.7   c1-0.6,2.1-1.3,3.4-2.1c1.3-0.8,2.4-1.6,3.3-2.6c0-0.7-0.1-1.5-0.1-2.3s0-1.6,0.1-2.4h-13.6c-1.3,0-2.3,0-3.3,0   c-0.9,0-1.7-0.1-2.3-0.2c0,0.6,0.1,1.1,0.1,1.7c0,0.6,0.1,1.1,0.1,1.7c0,0.6,0.1,1.1,0.1,1.7h-3.1V1010.2z M763.6,1025.4   c0.1,2.6,0.5,4.8,1.3,6.8c0.7,1.9,1.9,3.5,3.6,4.6c1.6,1.1,3.8,1.7,6.4,1.7c1.8,0,3.3-0.2,4.7-0.7c1.3-0.5,2.4-1.2,3.3-2.3   c0.9-1,1.6-2.3,2-3.9c0.4-1.6,0.7-3.5,0.7-5.6c0-1.7-0.4-2.9-1-3.6c-0.7-0.7-1.7-1-2.9-1.1c-1.2-0.1-2.7-0.1-4.4-0.1h-13.4   c0,0.7-0.1,1.5-0.1,2.1C763.6,1023.9,763.6,1024.6,763.6,1025.4z"
   id="path6983" />
	<path
   class="st0"
   d="M738,1077.4c0-4.7,1-8.8,2.9-12.4c2-3.6,4.8-6.4,8.5-8.4c3.7-2,8.1-3,13.2-3c3.3,0,6.5,0.5,9.7,1.5   c3.2,1,6,2.5,8.6,4.5c2.6,2,4.6,4.6,6.1,7.6s2.3,6.6,2.3,10.7c0,1.7-0.2,3.4-0.5,5.1c-0.3,1.7-0.7,3.4-1.3,5   c-0.6,1.6-1.3,3.1-2.1,4.4l3.4-0.3v3.8h-16v-2.5c2.9-0.2,5.4-1,7.5-2.3c2-1.4,3.6-3.2,4.7-5.4c1.1-2.2,1.6-4.6,1.6-7.4   c0-2.5-0.5-4.8-1.6-7c-1.1-2.2-2.6-4.1-4.6-5.7s-4.3-3-7-3.9c-2.7-0.9-5.7-1.4-9-1.4c-4.4,0-8.3,0.8-11.8,2.4   c-3.5,1.6-6.2,3.8-8.1,6.6s-2.9,6.1-2.9,9.8c0,1.3,0.1,2.6,0.3,4c0.2,1.4,0.6,2.8,1.2,4.1c0.5,1.4,1.2,2.7,2,3.9h8.5   c1.1,0,2.3,0,3.4,0s2.3,0,3.4,0c0-0.8-0.1-1.6-0.1-2.5c0-0.8-0.1-1.7-0.1-2.4h3.1v15.8h-2.3c0-1.3-0.3-2.3-1-3   c-0.7-0.7-1.5-1.2-2.5-1.5c-1-0.3-1.9-0.4-2.8-0.5c-0.9,0-1.6-0.1-2.1-0.1h-10.7v-1.9c0-0.7-0.1-1.8-0.4-3.1   c-0.3-1.3-0.7-2.8-1.4-4.5c-0.6-1.4-1-3.1-1.3-5C738.2,1080.6,738,1078.9,738,1077.4z"
   id="path6985" />
	<path
   class="st0"
   d="M757.3,1131.7c2.1,0,3.5-0.3,4.4-0.8c0.9-0.6,1.4-1.4,1.6-2.7c0.2-1.2,0.2-2.8,0.1-4.8l-0.2-5.1h-16   c-1.3,0-2.3,0-3.2,0c-0.9,0-1.6-0.1-2.2-0.2l0.2,13.4c0,2.1,0.4,3.8,1,5.3c0.6,1.5,1.7,2.7,3.3,3.5c1.6,0.8,3.8,1.3,6.5,1.3v2.4   l-13.7-0.4v-36.1h2.3c0.1,1.8,0.5,3,1.2,3.6c0.7,0.7,1.7,1,3,1.1c1.3,0.1,2.7,0.1,4.4,0.1h30.2c0.9,0,1.8,0,2.7,0.1   c0.9,0,1.6,0.1,2.3,0.1c0-0.8-0.1-1.7-0.1-2.5c0-0.8-0.1-1.7-0.1-2.5h3.1v33.7l-12.2,0.4v-2.3c2.8,0,4.8-0.4,6.3-1.3   c1.4-0.8,2.4-2,2.9-3.4c0.5-1.4,0.7-3,0.7-4.8l-0.1-6c0-1.7-0.4-3-1-3.7c-0.6-0.7-1.5-1.2-2.7-1.4c-1.2-0.2-2.7-0.2-4.7-0.2H766   l-0.1,13.2l6-0.5v3.1h-14.7V1131.7z"
   id="path6987" />
</g>
<g
   id="g7007">
	<path
   class="st0"
   d="M668.3,820.2c2.1,0,3.5-0.3,4.4-0.8c0.9-0.6,1.4-1.4,1.6-2.7c0.2-1.2,0.2-2.8,0.1-4.8l-0.2-5.1h-16   c-1.3,0-2.3,0-3.2,0c-0.9,0-1.6-0.1-2.2-0.2l0.2,13.4c0,2.1,0.4,3.8,1,5.3c0.6,1.5,1.7,2.7,3.3,3.5c1.6,0.8,3.8,1.3,6.5,1.3v2.4   l-13.7-0.4v-36.1h2.3c0.1,1.8,0.5,3,1.2,3.6c0.7,0.7,1.7,1,3,1.1c1.3,0.1,2.7,0.1,4.4,0.1h30.2c0.9,0,1.8,0,2.7,0.1   c0.9,0,1.6,0.1,2.3,0.1c0-0.8-0.1-1.7-0.1-2.5c0-0.8-0.1-1.7-0.1-2.5h3.1v33.7l-12.2,0.3v-2.3c2.8,0,4.8-0.4,6.3-1.3   c1.4-0.8,2.4-2,2.9-3.4c0.5-1.4,0.7-3,0.7-4.8l-0.1-6c0-1.7-0.4-3-1-3.7c-0.6-0.7-1.5-1.2-2.7-1.4c-1.2-0.2-2.7-0.2-4.7-0.2H677   l-0.1,13.2l6-0.5v3.1h-14.7V820.2z M703.3,812.4l2-1.5l8.4,8.8c0.8,0.9,1.2,1.7,1.3,2.4c0,0.7-0.1,1.2-0.3,1.6   c-0.3,0.4-0.5,0.6-0.6,0.7c-0.2,0.1-0.5,0.3-1,0.4c-0.5,0.1-1,0-1.6-0.2c-0.6-0.3-1.2-0.9-1.9-2L703.3,812.4z"
   id="path6991" />
	<path
   class="st0"
   d="M652.4,839.4c0.1,1.8,0.5,3,1.2,3.6c0.7,0.7,1.7,1,3,1.1c1.3,0.1,2.7,0.1,4.4,0.1h30.2c0.9,0,1.8,0,2.7,0.1   c0.9,0,1.6,0.1,2.3,0.1c0-0.8-0.1-1.7-0.1-2.5c0-0.8-0.1-1.7-0.1-2.5h3.1l0.1,16.5c0,4.2-0.5,8-1.5,11.5c-1,3.5-2.5,6.5-4.5,9.1   c-2,2.5-4.6,4.5-7.7,5.9c-3.1,1.4-6.8,2.1-11,2.1c-3.2,0-6.3-0.6-9.2-1.7c-2.9-1.1-5.5-2.8-7.8-5s-4.1-5-5.4-8.4   c-1.3-3.3-2-7.2-2-11.6v-18.4H652.4z M658.4,850.3c-1.3,0-2.3,0-3.2,0c-0.9,0-1.6-0.1-2.2-0.2c0,1.3-0.1,2.4-0.1,3.5   c0,1.1,0,1.9,0,2.7s0,1.2,0,1.4c0,3,0.6,5.8,1.7,8.2c1.1,2.5,2.7,4.6,4.7,6.3c2,1.8,4.3,3.1,7,4.1c2.7,1,5.6,1.4,8.7,1.4   c4.4,0,8.3-0.8,11.5-2.4c3.2-1.6,5.8-4.1,7.6-7.4c1.8-3.3,2.7-7.5,2.7-12.7c0-1.7-0.4-2.9-1.1-3.6c-0.7-0.7-1.7-1.1-2.9-1.1   c-1.3-0.1-2.7-0.1-4.4-0.1H658.4z"
   id="path6993" />
	<path
   class="st0"
   d="M696.8,906.6c0-1.7-0.4-2.9-1.2-3.6c-0.7-0.7-1.8-1.1-3-1.1c-1.3-0.1-2.7-0.1-4.4-0.1h-29.8   c-1.3,0-2.3,0-3.3,0s-1.7-0.1-2.3-0.2c0,0.8,0.1,1.7,0.1,2.5c0,0.8,0.1,1.7,0.1,2.5h-3.1v-15.8h2.3c0.1,1.8,0.5,3,1.2,3.6   c0.7,0.7,1.7,1,3,1.1c1.3,0.1,2.7,0.1,4.4,0.1h30.2c0.9,0,1.8,0,2.7,0.1c0.9,0,1.6,0.1,2.3,0.1c0-0.8-0.1-1.7-0.1-2.5   c0-0.8-0.1-1.7-0.1-2.5h3.1v15.8H696.8z"
   id="path6995" />
	<path
   class="st0"
   d="M684.4,951c2.8,0,5-0.3,6.9-0.8s3.2-1.4,4.1-2.7c0.9-1.3,1.3-3.1,1.3-5.6v-6l-38.2-0.1c-1.3,0-2.3,0-3.3,0   c-0.9,0-1.7-0.1-2.3-0.2c0,1,0.1,1.9,0.1,2.9c0,1,0.1,1.9,0.1,2.9h-3.1V925h2.3c0.1,1.8,0.5,3,1.3,3.6c0.7,0.6,1.8,1,3,1   c1.3,0.1,2.7,0.1,4.3,0.1l35.5,0.1l-0.1-7.2c0-2.9-1-5-2.9-6.2c-2-1.2-5-1.8-9.2-1.8V912l14.8,0.4v40.8l-14.8,0.4V951z"
   id="path6997" />
	<path
   class="st0"
   d="M696.8,974.8c0-1.7-0.4-2.9-1.2-3.6c-0.7-0.7-1.8-1.1-3-1.1c-1.3-0.1-2.7-0.1-4.4-0.1h-29.8   c-1.3,0-2.3,0-3.3,0s-1.7-0.1-2.3-0.2c0,0.8,0.1,1.7,0.1,2.5c0,0.8,0.1,1.7,0.1,2.5h-3.1v-15.8h2.3c0.1,1.8,0.5,3,1.2,3.6   c0.7,0.7,1.7,1,3,1.1c1.3,0.1,2.7,0.1,4.4,0.1h30.2c0.9,0,1.8,0,2.7,0.1c0.9,0,1.6,0.1,2.3,0.1c0-0.8-0.1-1.7-0.1-2.5   c0-0.8-0.1-1.7-0.1-2.5h3.1v15.8H696.8z"
   id="path6999" />
	<path
   class="st0"
   d="M649,1006.2c0-4.4,0.7-8.2,2.2-11.4c1.5-3.2,3.5-5.8,6-7.7c2.5-2,5.3-3.4,8.3-4.4c3-0.9,6.1-1.4,9.1-1.4   c2.9,0,5.9,0.5,8.9,1.5c3,1,5.8,2.5,8.3,4.5c2.5,2,4.5,4.6,6.1,7.6c1.5,3.1,2.3,6.6,2.3,10.7c0,4.3-0.8,8-2.3,11.1   c-1.5,3.1-3.6,5.7-6.1,7.7c-2.5,2-5.3,3.5-8.3,4.5c-3,1-5.9,1.5-8.9,1.5c-2.9,0-5.8-0.5-8.9-1.5c-3-1-5.8-2.5-8.3-4.5   c-2.5-2-4.6-4.6-6.1-7.6C649.8,1013.9,649,1010.4,649,1006.2z M651.9,1006.3c0,2.9,0.6,5.4,1.9,7.6c1.2,2.1,2.9,3.9,5,5.4   c2.1,1.4,4.4,2.5,6.9,3.2c2.5,0.7,5.1,1.1,7.7,1.1c2.9,0,5.8-0.4,8.6-1.2c2.8-0.8,5.4-2,7.8-3.5c2.3-1.5,4.2-3.4,5.6-5.7   s2.1-4.8,2.1-7.7c0-2.9-0.6-5.4-1.9-7.6c-1.3-2.2-2.9-4-5-5.4c-2.1-1.4-4.4-2.5-6.9-3.2c-2.5-0.7-5.1-1.1-7.7-1.1   c-2.6,0-5.2,0.4-8,1.1c-2.8,0.7-5.4,1.8-7.8,3.3c-2.4,1.5-4.4,3.4-5.9,5.7C652.6,1000.5,651.9,1003.2,651.9,1006.3z"
   id="path7001" />
	<path
   class="st0"
   d="M649,1075.2l37.5-27.9c0.6-0.4,1.1-0.8,1.6-1.2c0.5-0.4,1.1-0.8,1.6-1.2v-0.1l-30,0.2c-1.2,0-2.3,0-3.5,0   c-1.2,0-2.3,0-3.4-0.1c0,0.8,0.1,1.7,0.1,2.5c0,0.8,0.1,1.7,0.1,2.5h-3.1V1037h2.3c0,1.4,0.3,2.5,0.9,3.1c0.6,0.6,1.4,1,2.2,1.2   c0.9,0.2,1.6,0.3,2.3,0.3l33.7,0.1c0.8,0,1.6,0,2.4,0c0.8,0,1.6,0,2.3,0c0-0.7-0.1-1.5-0.1-2.3c0-0.8-0.1-1.6-0.1-2.4h3.1v8.3   l-35.1,26.2c-0.8,0.6-1.6,1.2-2.4,1.8c-0.8,0.6-1.6,1.2-2.4,1.8v0.1l32.1,0.1c0.9,0,1.8,0,2.7,0.1c0.9,0,1.6,0.1,2.3,0.1   c0-0.8-0.1-1.7-0.1-2.5c0-0.8-0.1-1.7-0.1-2.5h3.1v12.9h-2.3c0-1.7-0.4-2.9-1.2-3.6c-0.7-0.7-1.8-1-3-1c-1.3,0-2.7-0.1-4.4-0.1   l-39.2-0.1V1075.2z"
   id="path7003" />
	<path
   class="st0"
   d="M684.3,1117.7c2.2-0.1,4.4-0.7,6.4-1.6c2-0.9,3.6-2.3,4.9-4.1c1.3-1.8,1.9-4,1.9-6.8c0-2.9-0.8-5.1-2.5-6.7   c-1.6-1.5-3.5-2.3-5.7-2.3c-2,0-3.6,0.6-4.9,1.7s-2.5,2.6-3.5,4.4c-1,1.8-2,3.7-2.9,5.7c-0.8,1.8-1.6,3.5-2.6,5.3   c-0.9,1.8-1.9,3.4-3.1,4.8c-1.2,1.4-2.6,2.6-4.2,3.5c-1.6,0.9-3.5,1.3-5.8,1.3c-2.6,0-4.9-0.6-6.9-1.9c-2-1.3-3.6-3.1-4.7-5.6   c-1.1-2.4-1.7-5.4-1.7-8.9c0-2.1,0.3-4.3,0.9-6.5c0.6-2.2,1.5-4.2,2.7-6l-3,0.4v-3.6l14.9-0.4v2.7c-4.1,0.2-7.2,1.7-9.3,4.3   c-2.1,2.6-3.2,5.8-3.2,9.5c0,1.8,0.3,3.5,1,5c0.7,1.5,1.7,2.8,3,3.7c1.3,0.9,2.9,1.4,4.8,1.4c2.1,0,3.8-0.6,5.2-1.7   c1.4-1.1,2.6-2.6,3.6-4.3c1-1.8,2-3.7,2.9-5.7c0.8-1.8,1.6-3.5,2.5-5.2c0.9-1.7,1.9-3.3,3-4.7c1.1-1.4,2.5-2.6,4.1-3.4   c1.6-0.9,3.5-1.3,5.7-1.3c1.2,0,2.5,0.2,3.9,0.6c1.4,0.4,2.7,1.2,4,2.2c1.3,1,2.3,2.5,3.1,4.3c0.8,1.8,1.2,4.2,1.2,7   c0,1.8-0.2,3.8-0.7,6s-1.4,4.3-2.8,6.2l3-0.3v3.6h-15.4V1117.7z"
   id="path7005" />
</g>
<rect
   style="fill:none;stroke:#ff0000;stroke-width:3.2;stroke-miterlimit:10;stroke-dasharray:none"
   id="rect7115"
   width="620.40192"
   height="814.4566"
   x="254.82388"
   y="533.72345"
   ry="0.062933199" /></svg>
