  0
SECTION
  2
HEADER
  9
$ACADVER
  1
AC1014
  9
$HANDSEED
  5
FFFF
  9
$MEASUREMENT
 70
     1
  0
ENDSEC
  0
SECTION
  2
TABLES
  0
TABLE
  2
VPORT
  5
8
330
0
100
AcDbSymbolTable
 70
     4
  0
VPORT
  5
2E
330
8
100
AcDbSymbolTableRecord
100
AcDbViewportTableRecord
  2
*ACTIVE
 70
     0
 10
0.0
 20
0.0
 11
1.0
 21
1.0
 12
210.0
 22
148.5
 13
0.0
 23
0.0
 14
10.0
 24
10.0
 15
10.0
 25
10.0
 16
0.0
 26
0.0
 36
1.0
 17
0.0
 27
0.0
 37
0.0
 40
341.0
 41
1.24
 42
50.0
 43
0.0
 44
0.0
 50
0.0
 51
0.0
 71
     0
 72
   100
 73
     1
 74
     3
 75
     0
 76
     0
 77
     0
 78
     0
  0
ENDTAB
  0
TABLE
  2
LTYPE
  5
5
330
0
100
AcDbSymbolTable
 70
     1
  0
LTYPE
  5
14
330
5
100
AcDbSymbolTableRecord
100
AcDbLinetypeTableRecord
  2
BYBLOCK
 70
     0
  3

 72
    65
 73
     0
 40
0.0
  0
LTYPE
  5
15
330
5
100
AcDbSymbolTableRecord
100
AcDbLinetypeTableRecord
  2
BYLAYER
 70
     0
  3

 72
    65
 73
     0
 40
0.0
  0
LTYPE
  5
16
330
5
100
AcDbSymbolTableRecord
100
AcDbLinetypeTableRecord
  2
CONTINUOUS
 70
     0
  3
Solid line
 72
    65
 73
     0
 40
0.0
  0
ENDTAB
  0
TABLE
  2
LAYER
  5
2
100
AcDbSymbolTable
 70
1
  0
LAYER
  5
50
100
AcDbSymbolTableRecord
100
AcDbLayerTableRecord
  2
0
 70
0
  6
CONTINUOUS
  0
ENDTAB
  0
TABLE
  2
STYLE
  5
3
330
0
100
AcDbSymbolTable
 70
     1
  0
STYLE
  5
11
330
3
100
AcDbSymbolTableRecord
100
AcDbTextStyleTableRecord
  2
STANDARD
 70
     0
 40
0.0
 41
1.0
 50
0.0
 71
     0
 42
2.5
  3
txt
  4

  0
ENDTAB
  0
TABLE
  2
VIEW
  5
6
330
0
100
AcDbSymbolTable
 70
     0
  0
ENDTAB
  0
TABLE
  2
UCS
  5
7
330
0
100
AcDbSymbolTable
 70
     0
  0
ENDTAB
  0
TABLE
  2
APPID
  5
9
330
0
100
AcDbSymbolTable
 70
     2
  0
APPID
  5
12
330
9
100
AcDbSymbolTableRecord
100
AcDbRegAppTableRecord
  2
ACAD
 70
     0
  0
ENDTAB
  0
TABLE
  2
DIMSTYLE
  5
A
330
0
100
AcDbSymbolTable
 70
     1
  0
DIMSTYLE
105
27
330
A
100
AcDbSymbolTableRecord
100
AcDbDimStyleTableRecord
  2
ISO-25
 70
     0
  3

  4

  5

  6

  7

 40
1.0
 41
2.5
 42
0.625
 43
3.75
 44
1.25
 45
0.0
 46
0.0
 47
0.0
 48
0.0
140
2.5
141
2.5
142
0.0
143
0.03937007874016
144
1.0
145
0.0
146
1.0
147
0.625
 71
     0
 72
     0
 73
     0
 74
     0
 75
     0
 76
     0
 77
     1
 78
     8
170
     0
171
     3
172
     1
173
     0
174
     0
175
     0
176
     0
177
     0
178
     0
270
     2
271
     2
272
     2
273
     2
274
     3
340
11
275
     0
280
     0
281
     0
282
     0
283
     0
284
     8
285
     0
286
     0
287
     3
288
     0
  0
ENDTAB
  0
TABLE
  2
BLOCK_RECORD
  5
1
330
0
100
AcDbSymbolTable
 70
     1
  0
BLOCK_RECORD
  5
1F
330
1
100
AcDbSymbolTableRecord
100
AcDbBlockTableRecord
  2
*MODEL_SPACE
  0
BLOCK_RECORD
  5
1B
330
1
100
AcDbSymbolTableRecord
100
AcDbBlockTableRecord
  2
*PAPER_SPACE
  0
ENDTAB
  0
ENDSEC
  0
SECTION
  2
BLOCKS
  0
BLOCK
  5
20
330
1F
100
AcDbEntity
  8
0
100
AcDbBlockBegin
  2
*MODEL_SPACE
 70
     0
 10
0.0
 20
0.0
 30
0.0
  3
*MODEL_SPACE
  1

  0
ENDBLK
  5
21
330
1F
100
AcDbEntity
  8
0
100
AcDbBlockEnd
  0
BLOCK
  5
1C
330
1B
100
AcDbEntity
 67
     1
  8
0
100
AcDbBlockBegin
  2
*PAPER_SPACE
  1

  0
ENDBLK
  5
1D
330
1B
100
AcDbEntity
 67
     1
  8
0
100
AcDbBlockEnd
  0
ENDSEC
  0
SECTION
  2
ENTITIES
  0
SPLINE
  5
100
100
AcDbEntity
  8
0
 62
7
100
AcDbSpline
 70
8
 71
3
 72
8
 73
4
 74
0
 40
0
 40
0
 40
0
 40
0
 40
1
 40
1
 40
1
 40
1
 10
40.807481
 20
501.604227
 30
0.0
 10
40.807481
 20
502.080477
 30
0.0
 10
40.410606
 20
502.477352
 30
0.0
 10
39.934356
 20
502.477352
 30
0.0
  0
LWPOLYLINE
  5
101
100
AcDbEntity
  8
0
 62
7
100
AcDbPolyline
 90
93
 70
0
 10
38.114700
 20
411.787415
 30
0.0
 10
38.664356
 20
412.915894
 30
0.0
 10
39.511023
 20
414.979644
 30
0.0
 10
40.463523
 20
417.096310
 30
0.0
 10
41.521856
 20
419.292352
 30
0.0
 10
42.659565
 20
421.514852
 30
0.0
 10
43.903106
 20
423.737352
 30
0.0
 10
45.199565
 20
425.933394
 30
0.0
 10
46.548940
 20
428.076519
 30
0.0
 10
47.924773
 20
430.140269
 30
0.0
 10
49.327065
 20
432.071727
 30
0.0
 10
50.729356
 20
433.870894
 30
0.0
 10
52.105190
 20
435.537769
 30
0.0
 10
53.481023
 20
437.045894
 30
0.0
 10
54.830398
 20
438.421727
 30
0.0
 10
54.830398
 20
438.448185
 30
0.0
 10
52.316856
 20
439.136102
 30
0.0
 10
52.316856
 20
439.136102
 30
0.0
 10
48.612690
 20
439.876935
 30
0.0
 10
48.612690
 20
439.876935
 30
0.0
 10
46.284356
 20
440.326727
 30
0.0
 10
46.257898
 20
440.326727
 30
0.0
 10
46.945815
 20
441.517352
 30
0.0
 10
47.713106
 20
442.787352
 30
0.0
 10
48.533315
 20
444.110269
 30
0.0
 10
49.432898
 20
445.512560
 30
0.0
 10
50.411856
 20
446.994227
 30
0.0
 10
51.470190
 20
448.528810
 30
0.0
 10
52.581440
 20
450.089852
 30
0.0
 10
53.745606
 20
451.677352
 30
0.0
 10
56.126856
 20
454.825894
 30
0.0
 10
57.343940
 20
456.360477
 30
0.0
 10
58.561023
 20
457.842144
 30
0.0
 10
59.778106
 20
459.270894
 30
0.0
 10
60.968731
 20
460.620269
 30
0.0
 10
62.159356
 20
461.916727
 30
0.0
 10
63.323523
 20
463.133810
 30
0.0
 10
63.349981
 20
463.133810
 30
0.0
 10
61.921231
 20
463.583602
 30
0.0
 10
60.492481
 20
464.006935
 30
0.0
 10
59.063731
 20
464.403810
 30
0.0
 10
57.634981
 20
464.774227
 30
0.0
 10
56.259148
 20
465.091727
 30
0.0
 10
55.597690
 20
465.224019
 30
0.0
 10
54.962690
 20
465.329852
 30
0.0
 10
54.354148
 20
465.435685
 30
0.0
 10
53.772065
 20
465.515060
 30
0.0
 10
53.216440
 20
465.567977
 30
0.0
 10
52.687273
 20
465.620894
 30
0.0
 10
52.687273
 20
465.620894
 30
0.0
 10
52.898940
 20
465.991310
 30
0.0
 10
53.163523
 20
466.441102
 30
0.0
 10
53.481023
 20
466.970269
 30
0.0
 10
53.851440
 20
467.578810
 30
0.0
 10
54.274773
 20
468.240269
 30
0.0
 10
54.751023
 20
468.954644
 30
0.0
 10
55.782898
 20
470.489227
 30
0.0
 10
56.867690
 20
472.076727
 30
0.0
 10
57.952481
 20
473.584852
 30
0.0
 10
60.122065
 20
476.442352
 30
0.0
 10
61.286231
 20
477.897560
 30
0.0
 10
62.556231
 20
479.458602
 30
0.0
 10
63.905606
 20
481.099019
 30
0.0
 10
65.281440
 20
482.765894
 30
0.0
 10
66.657273
 20
484.379852
 30
0.0
 10
67.953731
 20
485.861519
 30
0.0
 10
68.562273
 20
486.549435
 30
0.0
 10
69.170815
 20
487.184435
 30
0.0
 10
69.752898
 20
487.792977
 30
0.0
 10
70.308523
 20
488.348602
 30
0.0
 10
70.334981
 20
488.348602
 30
0.0
 10
68.906231
 20
488.851310
 30
0.0
 10
67.318731
 20
489.327560
 30
0.0
 10
65.572481
 20
489.803810
 30
0.0
 10
63.667481
 20
490.253602
 30
0.0
 10
61.603731
 20
490.703394
 30
0.0
 10
59.407690
 20
491.126727
 30
0.0
 10
54.777481
 20
491.894019
 30
0.0
 10
52.449148
 20
492.237977
 30
0.0
 10
50.200190
 20
492.529019
 30
0.0
 10
48.083523
 20
492.793602
 30
0.0
 10
46.152065
 20
493.005269
 30
0.0
 10
45.278940
 20
493.084644
 30
0.0
 10
44.458731
 20
493.164019
 30
0.0
 10
43.691440
 20
493.216935
 30
0.0
 10
42.977065
 20
493.269852
 30
0.0
 10
42.342065
 20
493.296310
 30
0.0
 10
41.759981
 20
493.322769
 30
0.0
 10
41.230815
 20
493.322769
 30
0.0
 10
40.781023
 20
493.322769
 30
0.0
 10
40.807481
 20
493.322769
 30
0.0
 10
40.807481
 20
501.604227
 30
0.0
 10
40.807481
 20
501.604227
 30
0.0
  0
SPLINE
  5
102
100
AcDbEntity
  8
0
 62
7
100
AcDbSpline
 70
8
 71
3
 72
8
 73
4
 74
0
 40
0
 40
0
 40
0
 40
0
 40
1
 40
1
 40
1
 40
1
 10
31.441231
 20
502.477352
 30
0.0
 10
30.964981
 20
502.477352
 30
0.0
 10
30.568106
 20
502.080477
 30
0.0
 10
30.568106
 20
501.604227
 30
0.0
  0
LWPOLYLINE
  5
103
100
AcDbEntity
  8
0
 62
7
100
AcDbPolyline
 90
8
 70
0
 10
39.934356
 20
502.477352
 30
0.0
 10
39.934356
 20
502.477352
 30
0.0
 10
36.547690
 20
502.477352
 30
0.0
 10
36.547690
 20
502.477352
 30
0.0
 10
34.880815
 20
502.477352
 30
0.0
 10
34.880815
 20
502.477352
 30
0.0
 10
31.467690
 20
502.477352
 30
0.0
 10
31.441231
 20
502.477352
 30
0.0
  0
SPLINE
  5
104
100
AcDbEntity
  8
0
 62
7
100
AcDbSpline
 70
8
 71
3
 72
8
 73
4
 74
0
 40
0
 40
0
 40
0
 40
0
 40
1
 40
1
 40
1
 40
1
 10
34.648733
 20
452.491367
 30
0.0
 10
34.648733
 20
452.491367
 30
0.0
 10
36.163946
 20
452.473772
 30
0.0
 10
37.553106
 20
452.497558
 30
0.0
  0
SPLINE
  5
105
100
AcDbEntity
  8
0
 62
7
100
AcDbSpline
 70
8
 71
3
 72
8
 73
4
 74
0
 40
0
 40
0
 40
0
 40
0
 40
1
 40
1
 40
1
 40
1
 10
37.553106
 20
452.497558
 30
0.0
 10
37.689004
 20
452.499939
 30
0.0
 10
37.960850
 20
452.494912
 30
0.0
 10
37.960850
 20
452.494912
 30
0.0
  0
LWPOLYLINE
  5
106
100
AcDbEntity
  8
0
 62
7
100
AcDbPolyline
 90
98
 70
0
 10
30.568106
 20
501.604227
 30
0.0
 10
30.568106
 20
501.604227
 30
0.0
 10
30.594565
 20
501.604227
 30
0.0
 10
30.594565
 20
493.296310
 30
0.0
 10
30.594565
 20
493.296310
 30
0.0
 10
30.144773
 20
493.296310
 30
0.0
 10
29.615606
 20
493.296310
 30
0.0
 10
29.033523
 20
493.269852
 30
0.0
 10
28.398523
 20
493.243394
 30
0.0
 10
27.684148
 20
493.190477
 30
0.0
 10
26.916856
 20
493.137560
 30
0.0
 10
26.096648
 20
493.058185
 30
0.0
 10
25.223523
 20
492.978810
 30
0.0
 10
23.292065
 20
492.767144
 30
0.0
 10
21.175398
 20
492.502560
 30
0.0
 10
18.926440
 20
492.211519
 30
0.0
 10
16.598106
 20
491.867560
 30
0.0
 10
11.967898
 20
491.100269
 30
0.0
 10
9.771856
 20
490.676935
 30
0.0
 10
7.708106
 20
490.227144
 30
0.0
 10
5.803106
 20
489.777352
 30
0.0
 10
4.056856
 20
489.301102
 30
0.0
 10
2.469356
 20
488.824852
 30
0.0
 10
1.040606
 20
488.322144
 30
0.0
 10
1.040606
 20
488.348602
 30
0.0
 10
1.596231
 20
487.792977
 30
0.0
 10
2.178315
 20
487.184435
 30
0.0
 10
2.786856
 20
486.549435
 30
0.0
 10
3.395398
 20
485.861519
 30
0.0
 10
4.691856
 20
484.379852
 30
0.0
 10
6.067690
 20
482.765894
 30
0.0
 10
7.443523
 20
481.099019
 30
0.0
 10
8.792898
 20
479.458602
 30
0.0
 10
10.062898
 20
477.897560
 30
0.0
 10
11.227065
 20
476.442352
 30
0.0
 10
13.396648
 20
473.584852
 30
0.0
 10
14.481440
 20
472.076727
 30
0.0
 10
15.566231
 20
470.489227
 30
0.0
 10
16.598106
 20
468.954644
 30
0.0
 10
17.074356
 20
468.240269
 30
0.0
 10
17.497690
 20
467.578810
 30
0.0
 10
17.868106
 20
466.970269
 30
0.0
 10
18.185606
 20
466.441102
 30
0.0
 10
18.450190
 20
465.991310
 30
0.0
 10
18.661856
 20
465.620894
 30
0.0
 10
18.661856
 20
465.620894
 30
0.0
 10
18.106231
 20
465.567977
 30
0.0
 10
17.550606
 20
465.515060
 30
0.0
 10
16.968523
 20
465.435685
 30
0.0
 10
16.359981
 20
465.329852
 30
0.0
 10
15.724981
 20
465.224019
 30
0.0
 10
15.063523
 20
465.091727
 30
0.0
 10
13.687690
 20
464.774227
 30
0.0
 10
12.258940
 20
464.403810
 30
0.0
 10
10.830190
 20
464.006935
 30
0.0
 10
9.401440
 20
463.583602
 30
0.0
 10
7.972690
 20
463.133810
 30
0.0
 10
7.946231
 20
463.133810
 30
0.0
 10
9.136856
 20
461.916727
 30
0.0
 10
10.327481
 20
460.620269
 30
0.0
 10
11.518106
 20
459.270894
 30
0.0
 10
12.735190
 20
457.842144
 30
0.0
 10
13.952273
 20
456.360477
 30
0.0
 10
15.089981
 20
454.799435
 30
0.0
 10
17.471231
 20
451.650894
 30
0.0
 10
18.635398
 20
450.063394
 30
0.0
 10
19.746648
 20
448.502352
 30
0.0
 10
20.804981
 20
446.967769
 30
0.0
 10
21.783940
 20
445.486102
 30
0.0
 10
22.683523
 20
444.083810
 30
0.0
 10
23.503731
 20
442.760894
 30
0.0
 10
24.271023
 20
441.490894
 30
0.0
 10
24.958940
 20
440.300269
 30
0.0
 10
24.985398
 20
440.300269
 30
0.0
 10
22.657065
 20
439.850477
 30
0.0
 10
22.657065
 20
439.850477
 30
0.0
 10
18.952898
 20
439.109644
 30
0.0
 10
18.952898
 20
439.109644
 30
0.0
 10
16.439356
 20
438.421727
 30
0.0
 10
16.439356
 20
438.395269
 30
0.0
 10
17.788731
 20
437.019435
 30
0.0
 10
19.164565
 20
435.511310
 30
0.0
 10
20.540398
 20
433.844435
 30
0.0
 10
21.942690
 20
432.045269
 30
0.0
 10
23.344981
 20
430.113810
 30
0.0
 10
24.720815
 20
428.050060
 30
0.0
 10
26.070190
 20
425.906935
 30
0.0
 10
27.366648
 20
423.710894
 30
0.0
 10
28.610190
 20
421.488394
 30
0.0
 10
29.747898
 20
419.265894
 30
0.0
 10
30.806231
 20
417.069852
 30
0.0
 10
31.758731
 20
414.953185
 30
0.0
 10
32.605398
 20
412.889435
 30
0.0
 10
33.117719
 20
411.774962
 30
0.0
 10
33.117719
 20
411.774962
 30
0.0
 10
33.117719
 20
411.774962
 30
0.0
 10
33.260850
 20
452.495044
 30
0.0
 10
34.648733
 20
452.491367
 30
0.0
  0
LWPOLYLINE
  5
107
100
AcDbEntity
  8
0
 62
7
100
AcDbPolyline
 90
2
 70
0
 10
37.960850
 20
452.494912
 30
0.0
 10
38.114700
 20
411.787415
 30
0.0
  0
SPLINE
  5
108
100
AcDbEntity
  8
0
 62
7
100
AcDbSpline
 70
8
 71
3
 72
8
 73
4
 74
0
 40
0
 40
0
 40
0
 40
0
 40
1
 40
1
 40
1
 40
1
 10
83.603835
 20
401.449646
 30
0.0
 10
84.080085
 20
401.449646
 30
0.0
 10
84.476960
 20
401.846521
 30
0.0
 10
84.476960
 20
402.322771
 30
0.0
  0
LWPOLYLINE
  5
109
100
AcDbEntity
  8
0
 62
7
100
AcDbPolyline
 90
7
 70
0
 10
76.998206
 20
451.311568
 30
0.0
 10
81.275502
 20
451.323604
 30
0.0
 10
81.698206
 20
451.311566
 30
0.0
 10
81.683601
 20
401.455780
 30
0.0
 10
82.178718
 20
401.465602
 30
0.0
 10
83.603835
 20
401.449646
 30
0.0
 10
83.603835
 20
401.449646
 30
0.0
  0
SPLINE
  5
10a
100
AcDbEntity
  8
0
 62
7
100
AcDbSpline
 70
8
 71
3
 72
8
 73
4
 74
0
 40
0
 40
0
 40
0
 40
0
 40
1
 40
1
 40
1
 40
1
 10
74.184669
 20
402.322771
 30
0.0
 10
74.184669
 20
401.846521
 30
0.0
 10
74.581544
 20
401.449646
 30
0.0
 10
75.057794
 20
401.449646
 30
0.0
  0
LWPOLYLINE
  5
10b
100
AcDbEntity
  8
0
 62
7
100
AcDbPolyline
 90
191
 70
0
 10
84.476960
 20
402.322771
 30
0.0
 10
84.476960
 20
402.322771
 30
0.0
 10
84.476960
 20
402.322771
 30
0.0
 10
84.476960
 20
410.604229
 30
0.0
 10
84.450502
 20
410.577771
 30
0.0
 10
84.900294
 20
410.577771
 30
0.0
 10
85.429460
 20
410.577771
 30
0.0
 10
86.011544
 20
410.604229
 30
0.0
 10
86.646544
 20
410.630688
 30
0.0
 10
87.360919
 20
410.683604
 30
0.0
 10
88.128210
 20
410.736521
 30
0.0
 10
88.948419
 20
410.815896
 30
0.0
 10
89.821544
 20
410.895271
 30
0.0
 10
91.753002
 20
411.106938
 30
0.0
 10
93.869669
 20
411.371521
 30
0.0
 10
96.118627
 20
411.662562
 30
0.0
 10
98.446960
 20
412.006521
 30
0.0
 10
103.077169
 20
412.773813
 30
0.0
 10
105.273210
 20
413.197146
 30
0.0
 10
107.336960
 20
413.646938
 30
0.0
 10
109.241960
 20
414.096729
 30
0.0
 10
110.988210
 20
414.572979
 30
0.0
 10
112.575710
 20
415.049229
 30
0.0
 10
114.004460
 20
415.551938
 30
0.0
 10
114.004460
 20
415.551938
 30
0.0
 10
113.448835
 20
416.107563
 30
0.0
 10
112.866752
 20
416.716104
 30
0.0
 10
112.258210
 20
417.351104
 30
0.0
 10
111.649669
 20
418.039021
 30
0.0
 10
110.353210
 20
419.520688
 30
0.0
 10
108.977377
 20
421.134646
 30
0.0
 10
107.601544
 20
422.801521
 30
0.0
 10
106.252169
 20
424.441937
 30
0.0
 10
104.982169
 20
426.002979
 30
0.0
 10
103.818002
 20
427.458188
 30
0.0
 10
101.648419
 20
430.315687
 30
0.0
 10
100.563627
 20
431.823813
 30
0.0
 10
99.452377
 20
433.411313
 30
0.0
 10
98.420502
 20
434.945896
 30
0.0
 10
97.944252
 20
435.660271
 30
0.0
 10
97.520919
 20
436.321729
 30
0.0
 10
97.150502
 20
436.930271
 30
0.0
 10
96.833002
 20
437.459437
 30
0.0
 10
96.568419
 20
437.909229
 30
0.0
 10
96.356752
 20
438.279646
 30
0.0
 10
96.356752
 20
438.253188
 30
0.0
 10
96.885919
 20
438.306104
 30
0.0
 10
97.441544
 20
438.385479
 30
0.0
 10
98.023627
 20
438.464854
 30
0.0
 10
98.632169
 20
438.570688
 30
0.0
 10
99.267169
 20
438.676521
 30
0.0
 10
99.928627
 20
438.808812
 30
0.0
 10
101.304460
 20
439.126312
 30
0.0
 10
102.733210
 20
439.496729
 30
0.0
 10
104.161960
 20
439.893604
 30
0.0
 10
105.590710
 20
440.316937
 30
0.0
 10
107.019460
 20
440.766729
 30
0.0
 10
107.019460
 20
440.766729
 30
0.0
 10
105.855294
 20
442.010271
 30
0.0
 10
104.664669
 20
443.306729
 30
0.0
 10
103.474044
 20
444.656104
 30
0.0
 10
102.256960
 20
446.084854
 30
0.0
 10
101.039877
 20
447.566521
 30
0.0
 10
99.822794
 20
449.101104
 30
0.0
 10
97.441544
 20
452.249646
 30
0.0
 10
96.277377
 20
453.837146
 30
0.0
 10
95.166127
 20
455.398188
 30
0.0
 10
94.107794
 20
456.932771
 30
0.0
 10
93.128835
 20
458.414438
 30
0.0
 10
92.229252
 20
459.816729
 30
0.0
 10
91.382585
 20
461.139646
 30
0.0
 10
90.641752
 20
462.409646
 30
0.0
 10
89.953835
 20
463.600271
 30
0.0
 10
89.953835
 20
463.600271
 30
0.0
 10
92.282169
 20
464.050063
 30
0.0
 10
92.282169
 20
464.076521
 30
0.0
 10
95.986335
 20
464.817354
 30
0.0
 10
95.986335
 20
464.790896
 30
0.0
 10
98.499877
 20
465.478813
 30
0.0
 10
98.499877
 20
465.505271
 30
0.0
 10
96.912377
 20
467.119229
 30
0.0
 10
95.298419
 20
468.944854
 30
0.0
 10
93.658002
 20
470.955688
 30
0.0
 10
92.017585
 20
473.151729
 30
0.0
 10
90.403627
 20
475.532979
 30
0.0
 10
88.816127
 20
478.020062
 30
0.0
 10
87.281544
 20
480.612979
 30
0.0
 10
85.852794
 20
483.232354
 30
0.0
 10
84.556335
 20
485.825271
 30
0.0
 10
83.392169
 20
488.338813
 30
0.0
 10
82.386752
 20
490.772979
 30
0.0
 10
81.513627
 20
493.101313
 30
0.0
 10
80.772794
 20
495.323813
 30
0.0
 10
80.137794
 20
497.414021
 30
0.0
 10
79.635085
 20
499.398396
 30
0.0
 10
79.238210
 20
501.276938
 30
0.0
 10
79.211752
 20
501.250479
 30
0.0
 10
78.814877
 20
499.371938
 30
0.0
 10
78.312169
 20
497.387563
 30
0.0
 10
77.703627
 20
495.297354
 30
0.0
 10
76.962794
 20
493.074854
 30
0.0
 10
76.089669
 20
490.746521
 30
0.0
 10
75.084252
 20
488.312354
 30
0.0
 10
73.920085
 20
485.798812
 30
0.0
 10
72.623627
 20
483.205896
 30
0.0
 10
71.194877
 20
480.586521
 30
0.0
 10
69.660294
 20
477.993604
 30
0.0
 10
68.072794
 20
475.480063
 30
0.0
 10
66.458835
 20
473.098813
 30
0.0
 10
64.818419
 20
470.902771
 30
0.0
 10
63.178002
 20
468.891937
 30
0.0
 10
61.564044
 20
467.066312
 30
0.0
 10
59.976544
 20
465.452354
 30
0.0
 10
59.976544
 20
465.452354
 30
0.0
 10
62.675294
 20
464.737979
 30
0.0
 10
62.675294
 20
464.737979
 30
0.0
 10
66.379460
 20
464.023604
 30
0.0
 10
66.379460
 20
464.023604
 30
0.0
 10
68.707794
 20
463.573813
 30
0.0
 10
68.707794
 20
463.573813
 30
0.0
 10
68.019877
 20
462.383188
 30
0.0
 10
67.252585
 20
461.113187
 30
0.0
 10
66.432377
 20
459.790271
 30
0.0
 10
65.532794
 20
458.387979
 30
0.0
 10
64.553835
 20
456.906313
 30
0.0
 10
63.495502
 20
455.371729
 30
0.0
 10
62.384252
 20
453.810687
 30
0.0
 10
61.220085
 20
452.223187
 30
0.0
 10
58.838835
 20
449.074646
 30
0.0
 10
57.621752
 20
447.540062
 30
0.0
 10
56.404669
 20
446.058396
 30
0.0
 10
55.187585
 20
444.629646
 30
0.0
 10
53.996960
 20
443.280271
 30
0.0
 10
52.806335
 20
441.983812
 30
0.0
 10
51.615710
 20
440.740271
 30
0.0
 10
51.615710
 20
440.740271
 30
0.0
 10
53.044460
 20
440.290479
 30
0.0
 10
54.473210
 20
439.867146
 30
0.0
 10
55.901960
 20
439.470271
 30
0.0
 10
57.330710
 20
439.099854
 30
0.0
 10
58.706544
 20
438.782354
 30
0.0
 10
59.368002
 20
438.650062
 30
0.0
 10
60.003002
 20
438.544229
 30
0.0
 10
60.611544
 20
438.438396
 30
0.0
 10
61.193627
 20
438.359021
 30
0.0
 10
61.749252
 20
438.279646
 30
0.0
 10
62.278419
 20
438.226729
 30
0.0
 10
62.278419
 20
438.226729
 30
0.0
 10
62.066752
 20
437.856313
 30
0.0
 10
61.802169
 20
437.406521
 30
0.0
 10
61.484669
 20
436.877354
 30
0.0
 10
61.114252
 20
436.268812
 30
0.0
 10
60.690919
 20
435.607354
 30
0.0
 10
60.214669
 20
434.892979
 30
0.0
 10
59.182794
 20
433.358396
 30
0.0
 10
58.071544
 20
431.797354
 30
0.0
 10
56.986752
 20
430.289229
 30
0.0
 10
54.817169
 20
427.431729
 30
0.0
 10
53.653002
 20
425.976521
 30
0.0
 10
52.383002
 20
424.415479
 30
0.0
 10
51.033627
 20
422.775062
 30
0.0
 10
49.657794
 20
421.108187
 30
0.0
 10
48.281960
 20
419.494229
 30
0.0
 10
46.985502
 20
418.012563
 30
0.0
 10
46.376960
 20
417.324646
 30
0.0
 10
45.768419
 20
416.689646
 30
0.0
 10
45.186335
 20
416.081104
 30
0.0
 10
44.630710
 20
415.525479
 30
0.0
 10
44.630710
 20
415.551938
 30
0.0
 10
46.059460
 20
415.049229
 30
0.0
 10
47.646960
 20
414.572979
 30
0.0
 10
49.393210
 20
414.096729
 30
0.0
 10
51.298210
 20
413.646937
 30
0.0
 10
53.361960
 20
413.197146
 30
0.0
 10
55.558002
 20
412.773812
 30
0.0
 10
60.188210
 20
412.006521
 30
0.0
 10
62.516544
 20
411.662562
 30
0.0
 10
64.765502
 20
411.371521
 30
0.0
 10
66.882169
 20
411.106938
 30
0.0
 10
68.813627
 20
410.895271
 30
0.0
 10
69.686752
 20
410.815896
 30
0.0
 10
70.506960
 20
410.736521
 30
0.0
 10
71.274252
 20
410.683604
 30
0.0
 10
71.988627
 20
410.630688
 30
0.0
 10
72.623627
 20
410.604229
 30
0.0
 10
73.205710
 20
410.577771
 30
0.0
 10
73.734877
 20
410.577771
 30
0.0
 10
74.184669
 20
410.577771
 30
0.0
 10
74.184669
 20
410.551312
 30
0.0
 10
74.184669
 20
402.322771
 30
0.0
 10
74.184669
 20
402.322771
 30
0.0
  0
LWPOLYLINE
  5
10c
100
AcDbEntity
  8
0
 62
7
100
AcDbPolyline
 90
5
 70
0
 10
75.057794
 20
401.449646
 30
0.0
 10
75.057794
 20
401.449646
 30
0.0
 10
76.890639
 20
401.459576
 30
0.0
 10
76.890639
 20
401.459576
 30
0.0
 10
76.998206
 20
451.311568
 30
0.0
  0
ENDSEC
  0
SECTION
  2
OBJECTS
  0
DICTIONARY
  5
C
330
0
100
AcDbDictionary
  3
ACAD_GROUP
350
D
  3
ACAD_MLINESTYLE
350
17
  0
DICTIONARY
  5
D
330
C
100
AcDbDictionary
  0
DICTIONARY
  5
1A
330
C
100
AcDbDictionary
  0
DICTIONARY
  5
17
330
C
100
AcDbDictionary
  3
STANDARD
350
18
  0
DICTIONARY
  5
19
330
C
100
AcDbDictionary
  0
ENDSEC
  0
EOF
