<?xml version="1.0" encoding="UTF-8" standalone="no"?>
<svg
   width="1023.20mm"
   height="1538.30mm"
   viewBox="0.0 0.0 1023.20 1538.30"
   version="1.1"
   id="svg1299"
   sodipodi:docname="caisse_imprimante3d.svg"
   inkscape:version="1.1.2 (0a00cf5339, 2022-02-04)"
   xmlns:inkscape="http://www.inkscape.org/namespaces/inkscape"
   xmlns:sodipodi="http://sodipodi.sourceforge.net/DTD/sodipodi-0.dtd"
   xmlns="http://www.w3.org/2000/svg"
   xmlns:svg="http://www.w3.org/2000/svg"
   xmlns:rdf="http://www.w3.org/1999/02/22-rdf-syntax-ns#"
   xmlns:cc="http://creativecommons.org/ns#"
   xmlns:dc="http://purl.org/dc/elements/1.1/">
  <defs
     id="defs1303" />
  <sodipodi:namedview
     id="namedview1301"
     pagecolor="#ffffff"
     bordercolor="#666666"
     borderopacity="1.0"
     inkscape:pageshadow="2"
     inkscape:pageopacity="0.0"
     inkscape:pagecheckerboard="0"
     inkscape:document-units="mm"
     showgrid="false"
     inkscape:zoom="0.13690979"
     inkscape:cx="3458.4817"
     inkscape:cy="2928.936"
     inkscape:window-width="1920"
     inkscape:window-height="1011"
     inkscape:window-x="0"
     inkscape:window-y="32"
     inkscape:window-maximized="1"
     inkscape:current-layer="svg1299" />
  <!--
ABox - A simple Box


This box is kept simple on purpose. If you need more features have a look at the UniversalBox.


Created with Boxes.py (https://festi.info/boxes.py)
Creation date: 2022-12-08 17:22:24
Command line (remove spaces between dashes): boxes ABox - -FingerJoint_angle=90.0 - -FingerJoint_style=rectangular - -FingerJoint_surroundingspaces=2.0 - -FingerJoint_edge_width=1.0 - -FingerJoint_extra_length=0.0 - -FingerJoint_finger=2.0 - -FingerJoint_play=0.0 - -FingerJoint_space=2.0 - -FingerJoint_width=1.0 - -x=500.0 - -y=500.0 - -h=500.0 - -outside=0 - -outside=1 - -bottom_edge=h - -thickness=5.0 - -format=svg - -tabs=0.0 - -debug=0 - -labels=0 - -labels=1 - -reference=100 - -inner_corners=loop - -burn=0.1
Url: http://www.festi.info/ABox?FingerJoint_angle=90.0&FingerJoint_style=rectangular&FingerJoint_surroundingspaces=2.0&FingerJoint_edge_width=1.0&FingerJoint_extra_length=0.0&FingerJoint_finger=2.0&FingerJoint_play=0.0&FingerJoint_space=2.0&FingerJoint_width=1.0&x=500.0&y=500.0&h=500.0&outside=0&outside=1&bottom_edge=h&thickness=5.0&format=svg&tabs=0.0&debug=0&labels=0&labels=1&reference=100&inner_corners=loop&burn=0.1&render=1
SettingsUrl: http://www.festi.info/ABox?FingerJoint_angle=90.0&FingerJoint_style=rectangular&FingerJoint_surroundingspaces=2.0&FingerJoint_edge_width=1.0&FingerJoint_extra_length=0.0&FingerJoint_finger=2.0&FingerJoint_play=0.0&FingerJoint_space=2.0&FingerJoint_width=1.0&x=500.0&y=500.0&h=500.0&outside=0&outside=1&bottom_edge=h&thickness=5.0&format=svg&tabs=0.0&debug=0&labels=0&labels=1&reference=100&inner_corners=loop&burn=0.1
-->
  <title
     id="title1083">ABox</title>
  <metadata
     id="metadata1085">
    <rdf:RDF>
      <cc:Work>
        <dc:title>Box - ABox</dc:title>
        <dc:date>2022-12-08 17:22:24</dc:date>
        <dc:source>http://www.festi.info/ABox?FingerJoint_angle=90.0&amp;FingerJoint_style=rectangular&amp;FingerJoint_surroundingspaces=2.0&amp;FingerJoint_edge_width=1.0&amp;FingerJoint_extra_length=0.0&amp;FingerJoint_finger=2.0&amp;FingerJoint_play=0.0&amp;FingerJoint_space=2.0&amp;FingerJoint_width=1.0&amp;x=500.0&amp;y=500.0&amp;h=500.0&amp;outside=0&amp;outside=1&amp;bottom_edge=h&amp;thickness=5.0&amp;format=svg&amp;tabs=0.0&amp;debug=0&amp;labels=0&amp;labels=1&amp;reference=100&amp;inner_corners=loop&amp;burn=0.1&amp;render=1</dc:source>
        <dc:description>A simple Box

This box is kept simple on purpose. If you need more features have a look at the UniversalBox.

Created with Boxes.py (https://festi.info/boxes.py)
Command line: boxes ABox --FingerJoint_angle=90.0 --FingerJoint_style=rectangular --FingerJoint_surroundingspaces=2.0 --FingerJoint_edge_width=1.0 --FingerJoint_extra_length=0.0 --FingerJoint_finger=2.0 --FingerJoint_play=0.0 --FingerJoint_space=2.0 --FingerJoint_width=1.0 --x=500.0 --y=500.0 --h=500.0 --outside=0 --outside=1 --bottom_edge=h --thickness=5.0 --format=svg --tabs=0.0 --debug=0 --labels=0 --labels=1 --reference=100 --inner_corners=loop --burn=0.1
Url: http://www.festi.info/ABox?FingerJoint_angle=90.0&amp;FingerJoint_style=rectangular&amp;FingerJoint_surroundingspaces=2.0&amp;FingerJoint_edge_width=1.0&amp;FingerJoint_extra_length=0.0&amp;FingerJoint_finger=2.0&amp;FingerJoint_play=0.0&amp;FingerJoint_space=2.0&amp;FingerJoint_width=1.0&amp;x=500.0&amp;y=500.0&amp;h=500.0&amp;outside=0&amp;outside=1&amp;bottom_edge=h&amp;thickness=5.0&amp;format=svg&amp;tabs=0.0&amp;debug=0&amp;labels=0&amp;labels=1&amp;reference=100&amp;inner_corners=loop&amp;burn=0.1&amp;render=1
SettingsUrl: http://www.festi.info/ABox?FingerJoint_angle=90.0&amp;FingerJoint_style=rectangular&amp;FingerJoint_surroundingspaces=2.0&amp;FingerJoint_edge_width=1.0&amp;FingerJoint_extra_length=0.0&amp;FingerJoint_finger=2.0&amp;FingerJoint_play=0.0&amp;FingerJoint_space=2.0&amp;FingerJoint_width=1.0&amp;x=500.0&amp;y=500.0&amp;h=500.0&amp;outside=0&amp;outside=1&amp;bottom_edge=h&amp;thickness=5.0&amp;format=svg&amp;tabs=0.0&amp;debug=0&amp;labels=0&amp;labels=1&amp;reference=100&amp;inner_corners=loop&amp;burn=0.1
</dc:description>
      </cc:Work>
    </rdf:RDF>
  </metadata>
  <g
     id="p-0"
     style="fill:none;stroke-linecap:round;stroke-linejoin:round;">
    <path
       d="M 10.400 1528.300 H 110.400 V 1518.300 H 10.400 V 1528.300 Z"
       stroke="rgb(0,0,0)"
       stroke-width="0.20"
       id="path1087" />
    <text
       transform="matrix( 1.000 0.000 0.000 1.000 60.400 1519.300 )"
       style="font-family: sans-serif ; font-weight: normal; font-style: normal; fill: rgb(255,0,0)"
       font-size="8px"
       text-anchor="middle"
       dominant-baseline="hanging"
       id="text1089">100mm, burn:0.10mm</text>
  </g>
  <g
     id="p-1"
     style="fill:none;stroke-linecap:round;stroke-linejoin:round"
     transform="translate(0,-502.7)">
    <path
       d="m 30.4,1510.4 h -4.9 c -0.1,0 0,0.1 0,0 v -4.8 c 0,-0.1 -0.1,0 0,0 h 9.8 c 0.1,0 0,-0.1 0,0 v 4.8 c 0,0.1 0.1,0 0,0 z"
       stroke="#0000ff"
       stroke-width="0.2"
       id="path1092" />
    <path
       d="m 50.4,1510.4 h -4.9 c -0.1,0 0,0.1 0,0 v -4.8 c 0,-0.1 -0.1,0 0,0 h 9.8 c 0.1,0 0,-0.1 0,0 v 4.8 c 0,0.1 0.1,0 0,0 z"
       stroke="#0000ff"
       stroke-width="0.2"
       id="path1094" />
    <path
       d="m 70.4,1510.4 h -4.9 c -0.1,0 0,0.1 0,0 v -4.8 c 0,-0.1 -0.1,0 0,0 h 9.8 c 0.1,0 0,-0.1 0,0 v 4.8 c 0,0.1 0.1,0 0,0 z"
       stroke="#0000ff"
       stroke-width="0.2"
       id="path1096" />
    <path
       d="m 90.4,1510.4 h -4.9 c -0.1,0 0,0.1 0,0 v -4.8 c 0,-0.1 -0.1,0 0,0 h 9.8 c 0.1,0 0,-0.1 0,0 v 4.8 c 0,0.1 0.1,0 0,0 z"
       stroke="#0000ff"
       stroke-width="0.2"
       id="path1098" />
    <path
       d="m 110.4,1510.4 h -4.9 c -0.1,0 0,0.1 0,0 v -4.8 c 0,-0.1 -0.1,0 0,0 h 9.8 c 0.1,0 0,-0.1 0,0 v 4.8 c 0,0.1 0.1,0 0,0 z"
       stroke="#0000ff"
       stroke-width="0.2"
       id="path1100" />
    <path
       d="m 130.4,1510.4 h -4.9 c -0.1,0 0,0.1 0,0 v -4.8 c 0,-0.1 -0.1,0 0,0 h 9.8 c 0.1,0 0,-0.1 0,0 v 4.8 c 0,0.1 0.1,0 0,0 z"
       stroke="#0000ff"
       stroke-width="0.2"
       id="path1102" />
    <path
       d="m 150.4,1510.4 h -4.9 c -0.1,0 0,0.1 0,0 v -4.8 c 0,-0.1 -0.1,0 0,0 h 9.8 c 0.1,0 0,-0.1 0,0 v 4.8 c 0,0.1 0.1,0 0,0 z"
       stroke="#0000ff"
       stroke-width="0.2"
       id="path1104" />
    <path
       d="m 170.4,1510.4 h -4.9 c -0.1,0 0,0.1 0,0 v -4.8 c 0,-0.1 -0.1,0 0,0 h 9.8 c 0.1,0 0,-0.1 0,0 v 4.8 c 0,0.1 0.1,0 0,0 z"
       stroke="#0000ff"
       stroke-width="0.2"
       id="path1106" />
    <path
       d="m 190.4,1510.4 h -4.9 c -0.1,0 0,0.1 0,0 v -4.8 c 0,-0.1 -0.1,0 0,0 h 9.8 c 0.1,0 0,-0.1 0,0 v 4.8 c 0,0.1 0.1,0 0,0 z"
       stroke="#0000ff"
       stroke-width="0.2"
       id="path1108" />
    <path
       d="m 210.4,1510.4 h -4.9 c -0.1,0 0,0.1 0,0 v -4.8 c 0,-0.1 -0.1,0 0,0 h 9.8 c 0.1,0 0,-0.1 0,0 v 4.8 c 0,0.1 0.1,0 0,0 z"
       stroke="#0000ff"
       stroke-width="0.2"
       id="path1110" />
    <path
       d="m 230.4,1510.4 h -4.9 c -0.1,0 0,0.1 0,0 v -4.8 c 0,-0.1 -0.1,0 0,0 h 9.8 c 0.1,0 0,-0.1 0,0 v 4.8 c 0,0.1 0.1,0 0,0 z"
       stroke="#0000ff"
       stroke-width="0.2"
       id="path1112" />
    <path
       d="m 250.4,1510.4 h -4.9 c -0.1,0 0,0.1 0,0 v -4.8 c 0,-0.1 -0.1,0 0,0 h 9.8 c 0.1,0 0,-0.1 0,0 v 4.8 c 0,0.1 0.1,0 0,0 z"
       stroke="#0000ff"
       stroke-width="0.2"
       id="path1114" />
    <path
       d="m 270.4,1510.4 h -4.9 c -0.1,0 0,0.1 0,0 v -4.8 c 0,-0.1 -0.1,0 0,0 h 9.8 c 0.1,0 0,-0.1 0,0 v 4.8 c 0,0.1 0.1,0 0,0 z"
       stroke="#0000ff"
       stroke-width="0.2"
       id="path1116" />
    <path
       d="m 290.4,1510.4 h -4.9 c -0.1,0 0,0.1 0,0 v -4.8 c 0,-0.1 -0.1,0 0,0 h 9.8 c 0.1,0 0,-0.1 0,0 v 4.8 c 0,0.1 0.1,0 0,0 z"
       stroke="#0000ff"
       stroke-width="0.2"
       id="path1118" />
    <path
       d="m 310.4,1510.4 h -4.9 c -0.1,0 0,0.1 0,0 v -4.8 c 0,-0.1 -0.1,0 0,0 h 9.8 c 0.1,0 0,-0.1 0,0 v 4.8 c 0,0.1 0.1,0 0,0 z"
       stroke="#0000ff"
       stroke-width="0.2"
       id="path1120" />
    <path
       d="m 330.4,1510.4 h -4.9 c -0.1,0 0,0.1 0,0 v -4.8 c 0,-0.1 -0.1,0 0,0 h 9.8 c 0.1,0 0,-0.1 0,0 v 4.8 c 0,0.1 0.1,0 0,0 z"
       stroke="#0000ff"
       stroke-width="0.2"
       id="path1122" />
    <path
       d="m 350.4,1510.4 h -4.9 c -0.1,0 0,0.1 0,0 v -4.8 c 0,-0.1 -0.1,0 0,0 h 9.8 c 0.1,0 0,-0.1 0,0 v 4.8 c 0,0.1 0.1,0 0,0 z"
       stroke="#0000ff"
       stroke-width="0.2"
       id="path1124" />
    <path
       d="m 370.4,1510.4 h -4.9 c -0.1,0 0,0.1 0,0 v -4.8 c 0,-0.1 -0.1,0 0,0 h 9.8 c 0.1,0 0,-0.1 0,0 v 4.8 c 0,0.1 0.1,0 0,0 z"
       stroke="#0000ff"
       stroke-width="0.2"
       id="path1126" />
    <path
       d="m 390.4,1510.4 h -4.9 c -0.1,0 0,0.1 0,0 v -4.8 c 0,-0.1 -0.1,0 0,0 h 9.8 c 0.1,0 0,-0.1 0,0 v 4.8 c 0,0.1 0.1,0 0,0 z"
       stroke="#0000ff"
       stroke-width="0.2"
       id="path1128" />
    <path
       d="m 410.4,1510.4 h -4.9 c -0.1,0 0,0.1 0,0 v -4.8 c 0,-0.1 -0.1,0 0,0 h 9.8 c 0.1,0 0,-0.1 0,0 v 4.8 c 0,0.1 0.1,0 0,0 z"
       stroke="#0000ff"
       stroke-width="0.2"
       id="path1130" />
    <path
       d="m 430.4,1510.4 h -4.9 c -0.1,0 0,0.1 0,0 v -4.8 c 0,-0.1 -0.1,0 0,0 h 9.8 c 0.1,0 0,-0.1 0,0 v 4.8 c 0,0.1 0.1,0 0,0 z"
       stroke="#0000ff"
       stroke-width="0.2"
       id="path1132" />
    <path
       d="m 450.4,1510.4 h -4.9 c -0.1,0 0,0.1 0,0 v -4.8 c 0,-0.1 -0.1,0 0,0 h 9.8 c 0.1,0 0,-0.1 0,0 v 4.8 c 0,0.1 0.1,0 0,0 z"
       stroke="#0000ff"
       stroke-width="0.2"
       id="path1134" />
    <path
       d="m 470.4,1510.4 h -4.9 c -0.1,0 0,0.1 0,0 v -4.8 c 0,-0.1 -0.1,0 0,0 h 9.8 c 0.1,0 0,-0.1 0,0 v 4.8 c 0,0.1 0.1,0 0,0 z"
       stroke="#0000ff"
       stroke-width="0.2"
       id="path1136" />
    <path
       d="m 490.4,1510.4 h -4.9 c -0.1,0 0,0.1 0,0 v -4.8 c 0,-0.1 -0.1,0 0,0 h 9.8 c 0.1,0 0,-0.1 0,0 v 4.8 c 0,0.1 0.1,0 0,0 z"
       stroke="#0000ff"
       stroke-width="0.2"
       id="path1138" />
    <path
       d="m 15.4,1515.6 h 490 5 c 0.055,0 0.1,-0.045 0.1,-0.1 v -15 c 0,-0.055 -0.045,-0.1 -0.1,-0.1 h -4.9 c -0.1,0 0,0.1 0,0 v -9.8 c 0,-0.1 -0.1,0 0,0 h 4.9 c 0.055,0 0.1,-0.045 0.1,-0.1 v -10 c 0,-0.055 -0.045,-0.1 -0.1,-0.1 h -4.9 c -0.1,0 0,0.1 0,0 v -9.8 c 0,-0.1 -0.1,0 0,0 h 4.9 c 0.055,0 0.1,-0.045 0.1,-0.1 v -10 c 0,-0.055 -0.045,-0.1 -0.1,-0.1 h -4.9 c -0.1,0 0,0.1 0,0 v -9.8 c 0,-0.1 -0.1,0 0,0 h 4.9 c 0.055,0 0.1,-0.045 0.1,-0.1 v -10 c 0,-0.055 -0.045,-0.1 -0.1,-0.1 h -4.9 c -0.1,0 0,0.1 0,0 v -9.8 c 0,-0.1 -0.1,0 0,0 h 4.9 c 0.055,0 0.1,-0.045 0.1,-0.1 v -10 c 0,-0.055 -0.045,-0.1 -0.1,-0.1 h -4.9 c -0.1,0 0,0.1 0,0 v -9.8 c 0,-0.1 -0.1,0 0,0 h 4.9 c 0.055,0 0.1,-0.045 0.1,-0.1 v -10 c 0,-0.055 -0.045,-0.1 -0.1,-0.1 h -4.9 c -0.1,0 0,0.1 0,0 v -9.8 c 0,-0.1 -0.1,0 0,0 h 4.9 c 0.055,0 0.1,-0.045 0.1,-0.1 v -10 c 0,-0.055 -0.045,-0.1 -0.1,-0.1 h -4.9 c -0.1,0 0,0.1 0,0 v -9.8 c 0,-0.1 -0.1,0 0,0 h 4.9 c 0.055,0 0.1,-0.045 0.1,-0.1 v -10 c 0,-0.055 -0.045,-0.1 -0.1,-0.1 h -4.9 c -0.1,0 0,0.1 0,0 v -9.8 c 0,-0.1 -0.1,0 0,0 h 4.9 c 0.055,0 0.1,-0.045 0.1,-0.1 v -10 c 0,-0.055 -0.045,-0.1 -0.1,-0.1 h -4.9 c -0.1,0 0,0.1 0,0 v -9.8 c 0,-0.1 -0.1,0 0,0 h 4.9 c 0.055,0 0.1,-0.045 0.1,-0.1 v -10 c 0,-0.055 -0.045,-0.1 -0.1,-0.1 h -4.9 c -0.1,0 0,0.1 0,0 v -9.8 c 0,-0.1 -0.1,0 0,0 h 4.9 c 0.055,0 0.1,-0.045 0.1,-0.1 v -10 c 0,-0.055 -0.045,-0.1 -0.1,-0.1 h -4.9 c -0.1,0 0,0.1 0,0 v -9.8 c 0,-0.1 -0.1,0 0,0 h 4.9 c 0.055,0 0.1,-0.045 0.1,-0.1 v -10 c 0,-0.055 -0.045,-0.1 -0.1,-0.1 h -4.9 c -0.1,0 0,0.1 0,0 v -9.8 c 0,-0.1 -0.1,0 0,0 h 4.9 c 0.055,0 0.1,-0.045 0.1,-0.1 v -10 c 0,-0.055 -0.045,-0.1 -0.1,-0.1 h -4.9 c -0.1,0 0,0.1 0,0 v -9.8 c 0,-0.1 -0.1,0 0,0 h 4.9 c 0.055,0 0.1,-0.045 0.1,-0.1 v -10 c 0,-0.055 -0.045,-0.1 -0.1,-0.1 h -4.9 c -0.1,0 0,0.1 0,0 v -9.8 c 0,-0.1 -0.1,0 0,0 h 4.9 c 0.055,0 0.1,-0.045 0.1,-0.1 v -10 c 0,-0.055 -0.045,-0.1 -0.1,-0.1 h -4.9 c -0.1,0 0,0.1 0,0 v -9.8 c 0,-0.1 -0.1,0 0,0 h 4.9 c 0.055,0 0.1,-0.045 0.1,-0.1 v -10 c 0,-0.055 -0.045,-0.1 -0.1,-0.1 h -4.9 c -0.1,0 0,0.1 0,0 v -9.8 c 0,-0.1 -0.1,0 0,0 h 4.9 c 0.055,0 0.1,-0.045 0.1,-0.1 v -10 c 0,-0.055 -0.045,-0.1 -0.1,-0.1 h -4.9 c -0.1,0 0,0.1 0,0 v -9.8 c 0,-0.1 -0.1,0 0,0 h 4.9 c 0.055,0 0.1,-0.045 0.1,-0.1 v -10 c 0,-0.055 -0.045,-0.1 -0.1,-0.1 h -4.9 c -0.1,0 0,0.1 0,0 v -9.8 c 0,-0.1 -0.1,0 0,0 h 4.9 c 0.055,0 0.1,-0.045 0.1,-0.1 v -10 c 0,-0.055 -0.045,-0.1 -0.1,-0.1 h -4.9 c -0.1,0 0,0.1 0,0 v -9.8 c 0,-0.1 -0.1,0 0,0 h 4.9 c 0.055,0 0.1,-0.045 0.1,-0.1 v -10 c 0,-0.055 -0.045,-0.1 -0.1,-0.1 h -4.9 c -0.1,0 0,0.1 0,0 v -9.8 c 0,-0.1 -0.1,0 0,0 h 4.9 c 0.055,0 0.1,-0.045 0.1,-0.1 v -10 c 0,-0.055 -0.045,-0.1 -0.1,-0.1 h -4.9 c -0.1,0 0,0.1 0,0 v -9.8 c 0,-0.1 -0.1,0 0,0 h 4.9 c 0.055,0 0.1,-0.045 0.1,-0.1 v -10 c 0,-0.055 -0.045,-0.1 -0.1,-0.1 h -4.9 c -0.1,0 0,0.1 0,0 v -9.8 c 0,-0.1 -0.1,0 0,0 h 4.9 c 0.055,0 0.1,-0.045 0.1,-0.1 v -10 c 0,-0.055 -0.045,-0.1 -0.1,-0.1 h -4.9 c -0.1,0 0,0.1 0,0 v -9.8 c 0,-0.1 -0.1,0 0,0 h 4.9 c 0.055,0 0.1,-0.045 0.1,-0.1 v -10 c 0,-0.055 -0.045,-0.1 -0.1,-0.1 h -4.9 c -0.1,0 0,0.1 0,0 v -9.8 c 0,-0.1 -0.1,0 0,0 h 4.9 c 0.055,0 0.1,-0.045 0.1,-0.1 v -15 c 0,-0.055 -0.045,-0.1 -0.1,-0.1 h -5 -490 -5 c -0.055,0 -0.1,0.045 -0.1,0.1 v 15 c 0,0.055 0.045,0.1 0.1,0.1 h 4.9 c 0.1,0 0,-0.1 0,0 v 9.8 c 0,0.1 0.1,0 0,0 h -4.9 c -0.055,0 -0.1,0.045 -0.1,0.1 v 10 c 0,0.055 0.045,0.1 0.1,0.1 h 4.9 c 0.1,0 0,-0.1 0,0 v 9.8 c 0,0.1 0.1,0 0,0 h -4.9 c -0.055,0 -0.1,0.045 -0.1,0.1 v 10 c 0,0.055 0.045,0.1 0.1,0.1 h 4.9 c 0.1,0 0,-0.1 0,0 v 9.8 c 0,0.1 0.1,0 0,0 h -4.9 c -0.055,0 -0.1,0.045 -0.1,0.1 v 10 c 0,0.055 0.045,0.1 0.1,0.1 h 4.9 c 0.1,0 0,-0.1 0,0 v 9.8 c 0,0.1 0.1,0 0,0 h -4.9 c -0.055,0 -0.1,0.045 -0.1,0.1 v 10 c 0,0.055 0.045,0.1 0.1,0.1 h 4.9 c 0.1,0 0,-0.1 0,0 v 9.8 c 0,0.1 0.1,0 0,0 h -4.9 c -0.055,0 -0.1,0.045 -0.1,0.1 v 10 c 0,0.055 0.045,0.1 0.1,0.1 h 4.9 c 0.1,0 0,-0.1 0,0 v 9.8 c 0,0.1 0.1,0 0,0 h -4.9 c -0.055,0 -0.1,0.045 -0.1,0.1 v 10 c 0,0.055 0.045,0.1 0.1,0.1 h 4.9 c 0.1,0 0,-0.1 0,0 v 9.8 c 0,0.1 0.1,0 0,0 h -4.9 c -0.055,0 -0.1,0.045 -0.1,0.1 v 10 c 0,0.055 0.045,0.1 0.1,0.1 h 4.9 c 0.1,0 0,-0.1 0,0 v 9.8 c 0,0.1 0.1,0 0,0 h -4.9 c -0.055,0 -0.1,0.045 -0.1,0.1 v 10 c 0,0.055 0.045,0.1 0.1,0.1 h 4.9 c 0.1,0 0,-0.1 0,0 v 9.8 c 0,0.1 0.1,0 0,0 h -4.9 c -0.055,0 -0.1,0.045 -0.1,0.1 v 10 c 0,0.055 0.045,0.1 0.1,0.1 h 4.9 c 0.1,0 0,-0.1 0,0 v 9.8 c 0,0.1 0.1,0 0,0 h -4.9 c -0.055,0 -0.1,0.045 -0.1,0.1 v 10 c 0,0.055 0.045,0.1 0.1,0.1 h 4.9 c 0.1,0 0,-0.1 0,0 v 9.8 c 0,0.1 0.1,0 0,0 h -4.9 c -0.055,0 -0.1,0.045 -0.1,0.1 v 10 c 0,0.055 0.045,0.1 0.1,0.1 h 4.9 c 0.1,0 0,-0.1 0,0 v 9.8 c 0,0.1 0.1,0 0,0 h -4.9 c -0.055,0 -0.1,0.045 -0.1,0.1 v 10 c 0,0.055 0.045,0.1 0.1,0.1 h 4.9 c 0.1,0 0,-0.1 0,0 v 9.8 c 0,0.1 0.1,0 0,0 h -4.9 c -0.055,0 -0.1,0.045 -0.1,0.1 v 10 c 0,0.055 0.045,0.1 0.1,0.1 h 4.9 c 0.1,0 0,-0.1 0,0 v 9.8 c 0,0.1 0.1,0 0,0 h -4.9 c -0.055,0 -0.1,0.045 -0.1,0.1 v 10 c 0,0.055 0.045,0.1 0.1,0.1 h 4.9 c 0.1,0 0,-0.1 0,0 v 9.8 c 0,0.1 0.1,0 0,0 h -4.9 c -0.055,0 -0.1,0.045 -0.1,0.1 v 10 c 0,0.055 0.045,0.1 0.1,0.1 h 4.9 c 0.1,0 0,-0.1 0,0 v 9.8 c 0,0.1 0.1,0 0,0 h -4.9 c -0.055,0 -0.1,0.045 -0.1,0.1 v 10 c 0,0.055 0.045,0.1 0.1,0.1 h 4.9 c 0.1,0 0,-0.1 0,0 v 9.8 c 0,0.1 0.1,0 0,0 h -4.9 c -0.055,0 -0.1,0.045 -0.1,0.1 v 10 c 0,0.055 0.045,0.1 0.1,0.1 h 4.9 c 0.1,0 0,-0.1 0,0 v 9.8 c 0,0.1 0.1,0 0,0 h -4.9 c -0.055,0 -0.1,0.045 -0.1,0.1 v 10 c 0,0.055 0.045,0.1 0.1,0.1 h 4.9 c 0.1,0 0,-0.1 0,0 v 9.8 c 0,0.1 0.1,0 0,0 h -4.9 c -0.055,0 -0.1,0.045 -0.1,0.1 v 10 c 0,0.055 0.045,0.1 0.1,0.1 h 4.9 c 0.1,0 0,-0.1 0,0 v 9.8 c 0,0.1 0.1,0 0,0 h -4.9 c -0.055,0 -0.1,0.045 -0.1,0.1 v 10 c 0,0.055 0.045,0.1 0.1,0.1 h 4.9 c 0.1,0 0,-0.1 0,0 v 9.8 c 0,0.1 0.1,0 0,0 h -4.9 c -0.055,0 -0.1,0.045 -0.1,0.1 v 10 c 0,0.055 0.045,0.1 0.1,0.1 h 4.9 c 0.1,0 0,-0.1 0,0 v 9.8 c 0,0.1 0.1,0 0,0 h -4.9 c -0.055,0 -0.1,0.045 -0.1,0.1 v 10 c 0,0.055 0.045,0.1 0.1,0.1 h 4.9 c 0.1,0 0,-0.1 0,0 v 9.8 c 0,0.1 0.1,0 0,0 h -4.9 c -0.055,0 -0.1,0.045 -0.1,0.1 v 10 c 0,0.055 0.045,0.1 0.1,0.1 h 4.9 c 0.1,0 0,-0.1 0,0 v 9.8 c 0,0.1 0.1,0 0,0 h -4.9 c -0.055,0 -0.1,0.045 -0.1,0.1 v 15 c 0,0.055 0.045,0.1 0.1,0.1 z"
       stroke="#000000"
       stroke-width="0.2"
       id="path1140" />
  </g>
  <g
     id="p-2"
     style="fill:none;stroke-linecap:round;stroke-linejoin:round"
     transform="translate(0,510.6)">
    <path
       d="m 30.4,1007.7 h -4.9 c -0.1,0 0,0.1 0,0 v -4.8 c 0,-0.1 -0.1,0 0,0 h 9.8 c 0.1,0 0,-0.1 0,0 v 4.8 c 0,0.1 0.1,0 0,0 z"
       stroke="#0000ff"
       stroke-width="0.2"
       id="path1143" />
    <path
       d="m 50.4,1007.7 h -4.9 c -0.1,0 0,0.1 0,0 v -4.8 c 0,-0.1 -0.1,0 0,0 h 9.8 c 0.1,0 0,-0.1 0,0 v 4.8 c 0,0.1 0.1,0 0,0 z"
       stroke="#0000ff"
       stroke-width="0.2"
       id="path1145" />
    <path
       d="m 70.4,1007.7 h -4.9 c -0.1,0 0,0.1 0,0 v -4.8 c 0,-0.1 -0.1,0 0,0 h 9.8 c 0.1,0 0,-0.1 0,0 v 4.8 c 0,0.1 0.1,0 0,0 z"
       stroke="#0000ff"
       stroke-width="0.2"
       id="path1147" />
    <path
       d="m 90.4,1007.7 h -4.9 c -0.1,0 0,0.1 0,0 v -4.8 c 0,-0.1 -0.1,0 0,0 h 9.8 c 0.1,0 0,-0.1 0,0 v 4.8 c 0,0.1 0.1,0 0,0 z"
       stroke="#0000ff"
       stroke-width="0.2"
       id="path1149" />
    <path
       d="m 110.4,1007.7 h -4.9 c -0.1,0 0,0.1 0,0 v -4.8 c 0,-0.1 -0.1,0 0,0 h 9.8 c 0.1,0 0,-0.1 0,0 v 4.8 c 0,0.1 0.1,0 0,0 z"
       stroke="#0000ff"
       stroke-width="0.2"
       id="path1151" />
    <path
       d="m 130.4,1007.7 h -4.9 c -0.1,0 0,0.1 0,0 v -4.8 c 0,-0.1 -0.1,0 0,0 h 9.8 c 0.1,0 0,-0.1 0,0 v 4.8 c 0,0.1 0.1,0 0,0 z"
       stroke="#0000ff"
       stroke-width="0.2"
       id="path1153" />
    <path
       d="m 150.4,1007.7 h -4.9 c -0.1,0 0,0.1 0,0 v -4.8 c 0,-0.1 -0.1,0 0,0 h 9.8 c 0.1,0 0,-0.1 0,0 v 4.8 c 0,0.1 0.1,0 0,0 z"
       stroke="#0000ff"
       stroke-width="0.2"
       id="path1155" />
    <path
       d="m 170.4,1007.7 h -4.9 c -0.1,0 0,0.1 0,0 v -4.8 c 0,-0.1 -0.1,0 0,0 h 9.8 c 0.1,0 0,-0.1 0,0 v 4.8 c 0,0.1 0.1,0 0,0 z"
       stroke="#0000ff"
       stroke-width="0.2"
       id="path1157" />
    <path
       d="m 190.4,1007.7 h -4.9 c -0.1,0 0,0.1 0,0 v -4.8 c 0,-0.1 -0.1,0 0,0 h 9.8 c 0.1,0 0,-0.1 0,0 v 4.8 c 0,0.1 0.1,0 0,0 z"
       stroke="#0000ff"
       stroke-width="0.2"
       id="path1159" />
    <path
       d="m 210.4,1007.7 h -4.9 c -0.1,0 0,0.1 0,0 v -4.8 c 0,-0.1 -0.1,0 0,0 h 9.8 c 0.1,0 0,-0.1 0,0 v 4.8 c 0,0.1 0.1,0 0,0 z"
       stroke="#0000ff"
       stroke-width="0.2"
       id="path1161" />
    <path
       d="m 230.4,1007.7 h -4.9 c -0.1,0 0,0.1 0,0 v -4.8 c 0,-0.1 -0.1,0 0,0 h 9.8 c 0.1,0 0,-0.1 0,0 v 4.8 c 0,0.1 0.1,0 0,0 z"
       stroke="#0000ff"
       stroke-width="0.2"
       id="path1163" />
    <path
       d="m 250.4,1007.7 h -4.9 c -0.1,0 0,0.1 0,0 v -4.8 c 0,-0.1 -0.1,0 0,0 h 9.8 c 0.1,0 0,-0.1 0,0 v 4.8 c 0,0.1 0.1,0 0,0 z"
       stroke="#0000ff"
       stroke-width="0.2"
       id="path1165" />
    <path
       d="m 270.4,1007.7 h -4.9 c -0.1,0 0,0.1 0,0 v -4.8 c 0,-0.1 -0.1,0 0,0 h 9.8 c 0.1,0 0,-0.1 0,0 v 4.8 c 0,0.1 0.1,0 0,0 z"
       stroke="#0000ff"
       stroke-width="0.2"
       id="path1167" />
    <path
       d="m 290.4,1007.7 h -4.9 c -0.1,0 0,0.1 0,0 v -4.8 c 0,-0.1 -0.1,0 0,0 h 9.8 c 0.1,0 0,-0.1 0,0 v 4.8 c 0,0.1 0.1,0 0,0 z"
       stroke="#0000ff"
       stroke-width="0.2"
       id="path1169" />
    <path
       d="m 310.4,1007.7 h -4.9 c -0.1,0 0,0.1 0,0 v -4.8 c 0,-0.1 -0.1,0 0,0 h 9.8 c 0.1,0 0,-0.1 0,0 v 4.8 c 0,0.1 0.1,0 0,0 z"
       stroke="#0000ff"
       stroke-width="0.2"
       id="path1171" />
    <path
       d="m 330.4,1007.7 h -4.9 c -0.1,0 0,0.1 0,0 v -4.8 c 0,-0.1 -0.1,0 0,0 h 9.8 c 0.1,0 0,-0.1 0,0 v 4.8 c 0,0.1 0.1,0 0,0 z"
       stroke="#0000ff"
       stroke-width="0.2"
       id="path1173" />
    <path
       d="m 350.4,1007.7 h -4.9 c -0.1,0 0,0.1 0,0 v -4.8 c 0,-0.1 -0.1,0 0,0 h 9.8 c 0.1,0 0,-0.1 0,0 v 4.8 c 0,0.1 0.1,0 0,0 z"
       stroke="#0000ff"
       stroke-width="0.2"
       id="path1175" />
    <path
       d="m 370.4,1007.7 h -4.9 c -0.1,0 0,0.1 0,0 v -4.8 c 0,-0.1 -0.1,0 0,0 h 9.8 c 0.1,0 0,-0.1 0,0 v 4.8 c 0,0.1 0.1,0 0,0 z"
       stroke="#0000ff"
       stroke-width="0.2"
       id="path1177" />
    <path
       d="m 390.4,1007.7 h -4.9 c -0.1,0 0,0.1 0,0 v -4.8 c 0,-0.1 -0.1,0 0,0 h 9.8 c 0.1,0 0,-0.1 0,0 v 4.8 c 0,0.1 0.1,0 0,0 z"
       stroke="#0000ff"
       stroke-width="0.2"
       id="path1179" />
    <path
       d="m 410.4,1007.7 h -4.9 c -0.1,0 0,0.1 0,0 v -4.8 c 0,-0.1 -0.1,0 0,0 h 9.8 c 0.1,0 0,-0.1 0,0 v 4.8 c 0,0.1 0.1,0 0,0 z"
       stroke="#0000ff"
       stroke-width="0.2"
       id="path1181" />
    <path
       d="m 430.4,1007.7 h -4.9 c -0.1,0 0,0.1 0,0 v -4.8 c 0,-0.1 -0.1,0 0,0 h 9.8 c 0.1,0 0,-0.1 0,0 v 4.8 c 0,0.1 0.1,0 0,0 z"
       stroke="#0000ff"
       stroke-width="0.2"
       id="path1183" />
    <path
       d="m 450.4,1007.7 h -4.9 c -0.1,0 0,0.1 0,0 v -4.8 c 0,-0.1 -0.1,0 0,0 h 9.8 c 0.1,0 0,-0.1 0,0 v 4.8 c 0,0.1 0.1,0 0,0 z"
       stroke="#0000ff"
       stroke-width="0.2"
       id="path1185" />
    <path
       d="m 470.4,1007.7 h -4.9 c -0.1,0 0,0.1 0,0 v -4.8 c 0,-0.1 -0.1,0 0,0 h 9.8 c 0.1,0 0,-0.1 0,0 v 4.8 c 0,0.1 0.1,0 0,0 z"
       stroke="#0000ff"
       stroke-width="0.2"
       id="path1187" />
    <path
       d="m 490.4,1007.7 h -4.9 c -0.1,0 0,0.1 0,0 v -4.8 c 0,-0.1 -0.1,0 0,0 h 9.8 c 0.1,0 0,-0.1 0,0 v 4.8 c 0,0.1 0.1,0 0,0 z"
       stroke="#0000ff"
       stroke-width="0.2"
       id="path1189" />
    <path
       d="m 15.4,1012.9 h 490 5 c 0.055,0 0.1,-0.045 0.1,-0.1 v -15 c 0,-0.055 -0.045,-0.1 -0.1,-0.1 h -4.9 c -0.1,0 0,0.1 0,0 v -9.8 c 0,-0.1 -0.1,0 0,0 h 4.9 c 0.055,0 0.1,-0.045 0.1,-0.1 v -10 c 0,-0.055 -0.045,-0.1 -0.1,-0.1 h -4.9 c -0.1,0 0,0.1 0,0 v -9.8 c 0,-0.1 -0.1,0 0,0 h 4.9 c 0.055,0 0.1,-0.045 0.1,-0.1 v -10 c 0,-0.055 -0.045,-0.1 -0.1,-0.1 h -4.9 c -0.1,0 0,0.1 0,0 v -9.8 c 0,-0.1 -0.1,0 0,0 h 4.9 c 0.055,0 0.1,-0.045 0.1,-0.1 v -10 c 0,-0.055 -0.045,-0.1 -0.1,-0.1 h -4.9 c -0.1,0 0,0.1 0,0 v -9.8 c 0,-0.1 -0.1,0 0,0 h 4.9 c 0.055,0 0.1,-0.045 0.1,-0.1 v -10 c 0,-0.055 -0.045,-0.1 -0.1,-0.1 h -4.9 c -0.1,0 0,0.1 0,0 v -9.8 c 0,-0.1 -0.1,0 0,0 h 4.9 c 0.055,0 0.1,-0.045 0.1,-0.1 v -10 c 0,-0.055 -0.045,-0.1 -0.1,-0.1 h -4.9 c -0.1,0 0,0.1 0,0 v -9.8 c 0,-0.1 -0.1,0 0,0 h 4.9 c 0.055,0 0.1,-0.045 0.1,-0.1 v -10 c 0,-0.055 -0.045,-0.1 -0.1,-0.1 h -4.9 c -0.1,0 0,0.1 0,0 v -9.8 c 0,-0.1 -0.1,0 0,0 h 4.9 c 0.055,0 0.1,-0.045 0.1,-0.1 v -10 c 0,-0.055 -0.045,-0.1 -0.1,-0.1 h -4.9 c -0.1,0 0,0.1 0,0 v -9.8 c 0,-0.1 -0.1,0 0,0 h 4.9 c 0.055,0 0.1,-0.045 0.1,-0.1 v -10 c 0,-0.055 -0.045,-0.1 -0.1,-0.1 h -4.9 c -0.1,0 0,0.1 0,0 v -9.8 c 0,-0.1 -0.1,0 0,0 h 4.9 c 0.055,0 0.1,-0.045 0.1,-0.1 v -10 c 0,-0.055 -0.045,-0.1 -0.1,-0.1 h -4.9 c -0.1,0 0,0.1 0,0 v -9.8 c 0,-0.1 -0.1,0 0,0 h 4.9 c 0.055,0 0.1,-0.045 0.1,-0.1 v -10 c 0,-0.055 -0.045,-0.1 -0.1,-0.1 h -4.9 c -0.1,0 0,0.1 0,0 v -9.8 c 0,-0.1 -0.1,0 0,0 h 4.9 c 0.055,0 0.1,-0.045 0.1,-0.1 v -10 c 0,-0.055 -0.045,-0.1 -0.1,-0.1 h -4.9 c -0.1,0 0,0.1 0,0 v -9.8 c 0,-0.1 -0.1,0 0,0 h 4.9 c 0.055,0 0.1,-0.045 0.1,-0.1 v -10 c 0,-0.055 -0.045,-0.1 -0.1,-0.1 h -4.9 c -0.1,0 0,0.1 0,0 v -9.8 c 0,-0.1 -0.1,0 0,0 h 4.9 c 0.055,0 0.1,-0.045 0.1,-0.1 v -10 c 0,-0.055 -0.045,-0.1 -0.1,-0.1 h -4.9 c -0.1,0 0,0.1 0,0 v -9.8 c 0,-0.1 -0.1,0 0,0 h 4.9 c 0.055,0 0.1,-0.045 0.1,-0.1 v -10 c 0,-0.055 -0.045,-0.1 -0.1,-0.1 h -4.9 c -0.1,0 0,0.1 0,0 v -9.8 c 0,-0.1 -0.1,0 0,0 h 4.9 c 0.055,0 0.1,-0.045 0.1,-0.1 v -10 c 0,-0.055 -0.045,-0.1 -0.1,-0.1 h -4.9 c -0.1,0 0,0.1 0,0 v -9.8 c 0,-0.1 -0.1,0 0,0 h 4.9 c 0.055,0 0.1,-0.045 0.1,-0.1 v -10 c 0,-0.055 -0.045,-0.1 -0.1,-0.1 h -4.9 c -0.1,0 0,0.1 0,0 v -9.8 c 0,-0.1 -0.1,0 0,0 h 4.9 c 0.055,0 0.1,-0.045 0.1,-0.1 v -10 c 0,-0.055 -0.045,-0.1 -0.1,-0.1 h -4.9 c -0.1,0 0,0.1 0,0 v -9.8 c 0,-0.1 -0.1,0 0,0 h 4.9 c 0.055,0 0.1,-0.045 0.1,-0.1 v -10 c 0,-0.055 -0.045,-0.1 -0.1,-0.1 h -4.9 c -0.1,0 0,0.1 0,0 v -9.8 c 0,-0.1 -0.1,0 0,0 h 4.9 c 0.055,0 0.1,-0.045 0.1,-0.1 v -10 c 0,-0.055 -0.045,-0.1 -0.1,-0.1 h -4.9 c -0.1,0 0,0.1 0,0 v -9.8 c 0,-0.1 -0.1,0 0,0 h 4.9 c 0.055,0 0.1,-0.045 0.1,-0.1 v -10 c 0,-0.055 -0.045,-0.1 -0.1,-0.1 h -4.9 c -0.1,0 0,0.1 0,0 v -9.8 c 0,-0.1 -0.1,0 0,0 h 4.9 c 0.055,0 0.1,-0.045 0.1,-0.1 v -10 c 0,-0.055 -0.045,-0.1 -0.1,-0.1 h -4.9 c -0.1,0 0,0.1 0,0 v -9.8 c 0,-0.1 -0.1,0 0,0 h 4.9 c 0.055,0 0.1,-0.045 0.1,-0.1 v -10 c 0,-0.055 -0.045,-0.1 -0.1,-0.1 h -4.9 c -0.1,0 0,0.1 0,0 v -9.8 c 0,-0.1 -0.1,0 0,0 h 4.9 c 0.055,0 0.1,-0.045 0.1,-0.1 v -10 c 0,-0.055 -0.045,-0.1 -0.1,-0.1 h -4.9 c -0.1,0 0,0.1 0,0 v -9.8 c 0,-0.1 -0.1,0 0,0 h 4.9 c 0.055,0 0.1,-0.045 0.1,-0.1 v -15 c 0,-0.055 -0.045,-0.1 -0.1,-0.1 h -5 -490 -5 c -0.055,0 -0.1,0.045 -0.1,0.1 v 15 c 0,0.055 0.045,0.1 0.1,0.1 h 4.9 c 0.1,0 0,-0.1 0,0 v 9.8 c 0,0.1 0.1,0 0,0 h -4.9 c -0.055,0 -0.1,0.045 -0.1,0.1 v 10 c 0,0.055 0.045,0.1 0.1,0.1 h 4.9 c 0.1,0 0,-0.1 0,0 v 9.8 c 0,0.1 0.1,0 0,0 h -4.9 c -0.055,0 -0.1,0.045 -0.1,0.1 v 10 c 0,0.055 0.045,0.1 0.1,0.1 h 4.9 c 0.1,0 0,-0.1 0,0 v 9.8 c 0,0.1 0.1,0 0,0 h -4.9 c -0.055,0 -0.1,0.045 -0.1,0.1 v 10 c 0,0.055 0.045,0.1 0.1,0.1 h 4.9 c 0.1,0 0,-0.1 0,0 v 9.8 c 0,0.1 0.1,0 0,0 h -4.9 c -0.055,0 -0.1,0.045 -0.1,0.1 v 10 c 0,0.055 0.045,0.1 0.1,0.1 h 4.9 c 0.1,0 0,-0.1 0,0 v 9.8 c 0,0.1 0.1,0 0,0 h -4.9 c -0.055,0 -0.1,0.045 -0.1,0.1 v 10 c 0,0.055 0.045,0.1 0.1,0.1 h 4.9 c 0.1,0 0,-0.1 0,0 v 9.8 c 0,0.1 0.1,0 0,0 h -4.9 c -0.055,0 -0.1,0.045 -0.1,0.1 v 10 c 0,0.055 0.045,0.1 0.1,0.1 h 4.9 c 0.1,0 0,-0.1 0,0 v 9.8 c 0,0.1 0.1,0 0,0 h -4.9 c -0.055,0 -0.1,0.045 -0.1,0.1 v 10 c 0,0.055 0.045,0.1 0.1,0.1 h 4.9 c 0.1,0 0,-0.1 0,0 v 9.8 c 0,0.1 0.1,0 0,0 h -4.9 c -0.055,0 -0.1,0.045 -0.1,0.1 v 10 c 0,0.055 0.045,0.1 0.1,0.1 h 4.9 c 0.1,0 0,-0.1 0,0 v 9.8 c 0,0.1 0.1,0 0,0 h -4.9 c -0.055,0 -0.1,0.045 -0.1,0.1 v 10 c 0,0.055 0.045,0.1 0.1,0.1 h 4.9 c 0.1,0 0,-0.1 0,0 v 9.8 c 0,0.1 0.1,0 0,0 h -4.9 c -0.055,0 -0.1,0.045 -0.1,0.1 v 10 c 0,0.055 0.045,0.1 0.1,0.1 h 4.9 c 0.1,0 0,-0.1 0,0 v 9.8 c 0,0.1 0.1,0 0,0 h -4.9 c -0.055,0 -0.1,0.045 -0.1,0.1 v 10 c 0,0.055 0.045,0.1 0.1,0.1 h 4.9 c 0.1,0 0,-0.1 0,0 v 9.8 c 0,0.1 0.1,0 0,0 h -4.9 c -0.055,0 -0.1,0.045 -0.1,0.1 v 10 c 0,0.055 0.045,0.1 0.1,0.1 h 4.9 c 0.1,0 0,-0.1 0,0 v 9.8 c 0,0.1 0.1,0 0,0 h -4.9 c -0.055,0 -0.1,0.045 -0.1,0.1 v 10 c 0,0.055 0.045,0.1 0.1,0.1 h 4.9 c 0.1,0 0,-0.1 0,0 v 9.8 c 0,0.1 0.1,0 0,0 h -4.9 c -0.055,0 -0.1,0.045 -0.1,0.1 v 10 c 0,0.055 0.045,0.1 0.1,0.1 h 4.9 c 0.1,0 0,-0.1 0,0 v 9.8 c 0,0.1 0.1,0 0,0 h -4.9 c -0.055,0 -0.1,0.045 -0.1,0.1 v 10 c 0,0.055 0.045,0.1 0.1,0.1 h 4.9 c 0.1,0 0,-0.1 0,0 v 9.8 c 0,0.1 0.1,0 0,0 h -4.9 c -0.055,0 -0.1,0.045 -0.1,0.1 v 10 c 0,0.055 0.045,0.1 0.1,0.1 h 4.9 c 0.1,0 0,-0.1 0,0 v 9.8 c 0,0.1 0.1,0 0,0 h -4.9 c -0.055,0 -0.1,0.045 -0.1,0.1 v 10 c 0,0.055 0.045,0.1 0.1,0.1 h 4.9 c 0.1,0 0,-0.1 0,0 v 9.8 c 0,0.1 0.1,0 0,0 h -4.9 c -0.055,0 -0.1,0.045 -0.1,0.1 v 10 c 0,0.055 0.045,0.1 0.1,0.1 h 4.9 c 0.1,0 0,-0.1 0,0 v 9.8 c 0,0.1 0.1,0 0,0 h -4.9 c -0.055,0 -0.1,0.045 -0.1,0.1 v 10 c 0,0.055 0.045,0.1 0.1,0.1 h 4.9 c 0.1,0 0,-0.1 0,0 v 9.8 c 0,0.1 0.1,0 0,0 h -4.9 c -0.055,0 -0.1,0.045 -0.1,0.1 v 10 c 0,0.055 0.045,0.1 0.1,0.1 h 4.9 c 0.1,0 0,-0.1 0,0 v 9.8 c 0,0.1 0.1,0 0,0 h -4.9 c -0.055,0 -0.1,0.045 -0.1,0.1 v 10 c 0,0.055 0.045,0.1 0.1,0.1 h 4.9 c 0.1,0 0,-0.1 0,0 v 9.8 c 0,0.1 0.1,0 0,0 h -4.9 c -0.055,0 -0.1,0.045 -0.1,0.1 v 10 c 0,0.055 0.045,0.1 0.1,0.1 h 4.9 c 0.1,0 0,-0.1 0,0 v 9.8 c 0,0.1 0.1,0 0,0 h -4.9 c -0.055,0 -0.1,0.045 -0.1,0.1 v 10 c 0,0.055 0.045,0.1 0.1,0.1 h 4.9 c 0.1,0 0,-0.1 0,0 v 9.8 c 0,0.1 0.1,0 0,0 h -4.9 c -0.055,0 -0.1,0.045 -0.1,0.1 v 15 c 0,0.055 0.045,0.1 0.1,0.1 z"
       stroke="#000000"
       stroke-width="0.2"
       id="path1191" />
  </g>
  <g
     id="p-3"
     style="fill:none;stroke-linecap:round;stroke-linejoin:round;">
    <path
       d="M 15.400 505.200 H 25.300 C 25.400 505.200 25.300 505.100 25.300 505.200 V 510.100 C 25.300 510.155 25.345 510.200 25.400 510.200 H 35.400 C 35.455 510.200 35.500 510.155 35.500 510.100 V 505.200 C 35.500 505.100 35.400 505.200 35.500 505.200 H 45.300 C 45.400 505.200 45.300 505.100 45.300 505.200 V 510.100 C 45.300 510.155 45.345 510.200 45.400 510.200 H 55.400 C 55.455 510.200 55.500 510.155 55.500 510.100 V 505.200 C 55.500 505.100 55.400 505.200 55.500 505.200 H 65.300 C 65.400 505.200 65.300 505.100 65.300 505.200 V 510.100 C 65.300 510.155 65.345 510.200 65.400 510.200 H 75.400 C 75.455 510.200 75.500 510.155 75.500 510.100 V 505.200 C 75.500 505.100 75.400 505.200 75.500 505.200 H 85.300 C 85.400 505.200 85.300 505.100 85.300 505.200 V 510.100 C 85.300 510.155 85.345 510.200 85.400 510.200 H 95.400 C 95.455 510.200 95.500 510.155 95.500 510.100 V 505.200 C 95.500 505.100 95.400 505.200 95.500 505.200 H 105.300 C 105.400 505.200 105.300 505.100 105.300 505.200 V 510.100 C 105.300 510.155 105.345 510.200 105.400 510.200 H 115.400 C 115.455 510.200 115.500 510.155 115.500 510.100 V 505.200 C 115.500 505.100 115.400 505.200 115.500 505.200 H 125.300 C 125.400 505.200 125.300 505.100 125.300 505.200 V 510.100 C 125.300 510.155 125.345 510.200 125.400 510.200 H 135.400 C 135.455 510.200 135.500 510.155 135.500 510.100 V 505.200 C 135.500 505.100 135.400 505.200 135.500 505.200 H 145.300 C 145.400 505.200 145.300 505.100 145.300 505.200 V 510.100 C 145.300 510.155 145.345 510.200 145.400 510.200 H 155.400 C 155.455 510.200 155.500 510.155 155.500 510.100 V 505.200 C 155.500 505.100 155.400 505.200 155.500 505.200 H 165.300 C 165.400 505.200 165.300 505.100 165.300 505.200 V 510.100 C 165.300 510.155 165.345 510.200 165.400 510.200 H 175.400 C 175.455 510.200 175.500 510.155 175.500 510.100 V 505.200 C 175.500 505.100 175.400 505.200 175.500 505.200 H 185.300 C 185.400 505.200 185.300 505.100 185.300 505.200 V 510.100 C 185.300 510.155 185.345 510.200 185.400 510.200 H 195.400 C 195.455 510.200 195.500 510.155 195.500 510.100 V 505.200 C 195.500 505.100 195.400 505.200 195.500 505.200 H 205.300 C 205.400 505.200 205.300 505.100 205.300 505.200 V 510.100 C 205.300 510.155 205.345 510.200 205.400 510.200 H 215.400 C 215.455 510.200 215.500 510.155 215.500 510.100 V 505.200 C 215.500 505.100 215.400 505.200 215.500 505.200 H 225.300 C 225.400 505.200 225.300 505.100 225.300 505.200 V 510.100 C 225.300 510.155 225.345 510.200 225.400 510.200 H 235.400 C 235.455 510.200 235.500 510.155 235.500 510.100 V 505.200 C 235.500 505.100 235.400 505.200 235.500 505.200 H 245.300 C 245.400 505.200 245.300 505.100 245.300 505.200 V 510.100 C 245.300 510.155 245.345 510.200 245.400 510.200 H 255.400 C 255.455 510.200 255.500 510.155 255.500 510.100 V 505.200 C 255.500 505.100 255.400 505.200 255.500 505.200 H 265.300 C 265.400 505.200 265.300 505.100 265.300 505.200 V 510.100 C 265.300 510.155 265.345 510.200 265.400 510.200 H 275.400 C 275.455 510.200 275.500 510.155 275.500 510.100 V 505.200 C 275.500 505.100 275.400 505.200 275.500 505.200 H 285.300 C 285.400 505.200 285.300 505.100 285.300 505.200 V 510.100 C 285.300 510.155 285.345 510.200 285.400 510.200 H 295.400 C 295.455 510.200 295.500 510.155 295.500 510.100 V 505.200 C 295.500 505.100 295.400 505.200 295.500 505.200 H 305.300 C 305.400 505.200 305.300 505.100 305.300 505.200 V 510.100 C 305.300 510.155 305.345 510.200 305.400 510.200 H 315.400 C 315.455 510.200 315.500 510.155 315.500 510.100 V 505.200 C 315.500 505.100 315.400 505.200 315.500 505.200 H 325.300 C 325.400 505.200 325.300 505.100 325.300 505.200 V 510.100 C 325.300 510.155 325.345 510.200 325.400 510.200 H 335.400 C 335.455 510.200 335.500 510.155 335.500 510.100 V 505.200 C 335.500 505.100 335.400 505.200 335.500 505.200 H 345.300 C 345.400 505.200 345.300 505.100 345.300 505.200 V 510.100 C 345.300 510.155 345.345 510.200 345.400 510.200 H 355.400 C 355.455 510.200 355.500 510.155 355.500 510.100 V 505.200 C 355.500 505.100 355.400 505.200 355.500 505.200 H 365.300 C 365.400 505.200 365.300 505.100 365.300 505.200 V 510.100 C 365.300 510.155 365.345 510.200 365.400 510.200 H 375.400 C 375.455 510.200 375.500 510.155 375.500 510.100 V 505.200 C 375.500 505.100 375.400 505.200 375.500 505.200 H 385.300 C 385.400 505.200 385.300 505.100 385.300 505.200 V 510.100 C 385.300 510.155 385.345 510.200 385.400 510.200 H 395.400 C 395.455 510.200 395.500 510.155 395.500 510.100 V 505.200 C 395.500 505.100 395.400 505.200 395.500 505.200 H 405.300 C 405.400 505.200 405.300 505.100 405.300 505.200 V 510.100 C 405.300 510.155 405.345 510.200 405.400 510.200 H 415.400 C 415.455 510.200 415.500 510.155 415.500 510.100 V 505.200 C 415.500 505.100 415.400 505.200 415.500 505.200 H 425.300 C 425.400 505.200 425.300 505.100 425.300 505.200 V 510.100 C 425.300 510.155 425.345 510.200 425.400 510.200 H 435.400 C 435.455 510.200 435.500 510.155 435.500 510.100 V 505.200 C 435.500 505.100 435.400 505.200 435.500 505.200 H 445.300 C 445.400 505.200 445.300 505.100 445.300 505.200 V 510.100 C 445.300 510.155 445.345 510.200 445.400 510.200 H 455.400 C 455.455 510.200 455.500 510.155 455.500 510.100 V 505.200 C 455.500 505.100 455.400 505.200 455.500 505.200 H 465.300 C 465.400 505.200 465.300 505.100 465.300 505.200 V 510.100 C 465.300 510.155 465.345 510.200 465.400 510.200 H 475.400 C 475.455 510.200 475.500 510.155 475.500 510.100 V 505.200 C 475.500 505.100 475.400 505.200 475.500 505.200 H 485.300 C 485.400 505.200 485.300 505.100 485.300 505.200 V 510.100 C 485.300 510.155 485.345 510.200 485.400 510.200 H 495.400 C 495.455 510.200 495.500 510.155 495.500 510.100 V 505.200 C 495.500 505.100 495.400 505.200 495.500 505.200 H 505.400 C 505.455 505.200 505.500 505.155 505.500 505.100 V 495.200 C 505.500 495.100 505.400 495.200 505.500 495.200 H 510.400 C 510.455 495.200 510.500 495.155 510.500 495.100 V 485.100 C 510.500 485.045 510.455 485.000 510.400 485.000 H 505.500 C 505.400 485.000 505.500 485.100 505.500 485.000 V 475.200 C 505.500 475.100 505.400 475.200 505.500 475.200 H 510.400 C 510.455 475.200 510.500 475.155 510.500 475.100 V 465.100 C 510.500 465.045 510.455 465.000 510.400 465.000 H 505.500 C 505.400 465.000 505.500 465.100 505.500 465.000 V 455.200 C 505.500 455.100 505.400 455.200 505.500 455.200 H 510.400 C 510.455 455.200 510.500 455.155 510.500 455.100 V 445.100 C 510.500 445.045 510.455 445.000 510.400 445.000 H 505.500 C 505.400 445.000 505.500 445.100 505.500 445.000 V 435.200 C 505.500 435.100 505.400 435.200 505.500 435.200 H 510.400 C 510.455 435.200 510.500 435.155 510.500 435.100 V 425.100 C 510.500 425.045 510.455 425.000 510.400 425.000 H 505.500 C 505.400 425.000 505.500 425.100 505.500 425.000 V 415.200 C 505.500 415.100 505.400 415.200 505.500 415.200 H 510.400 C 510.455 415.200 510.500 415.155 510.500 415.100 V 405.100 C 510.500 405.045 510.455 405.000 510.400 405.000 H 505.500 C 505.400 405.000 505.500 405.100 505.500 405.000 V 395.200 C 505.500 395.100 505.400 395.200 505.500 395.200 H 510.400 C 510.455 395.200 510.500 395.155 510.500 395.100 V 385.100 C 510.500 385.045 510.455 385.000 510.400 385.000 H 505.500 C 505.400 385.000 505.500 385.100 505.500 385.000 V 375.200 C 505.500 375.100 505.400 375.200 505.500 375.200 H 510.400 C 510.455 375.200 510.500 375.155 510.500 375.100 V 365.100 C 510.500 365.045 510.455 365.000 510.400 365.000 H 505.500 C 505.400 365.000 505.500 365.100 505.500 365.000 V 355.200 C 505.500 355.100 505.400 355.200 505.500 355.200 H 510.400 C 510.455 355.200 510.500 355.155 510.500 355.100 V 345.100 C 510.500 345.045 510.455 345.000 510.400 345.000 H 505.500 C 505.400 345.000 505.500 345.100 505.500 345.000 V 335.200 C 505.500 335.100 505.400 335.200 505.500 335.200 H 510.400 C 510.455 335.200 510.500 335.155 510.500 335.100 V 325.100 C 510.500 325.045 510.455 325.000 510.400 325.000 H 505.500 C 505.400 325.000 505.500 325.100 505.500 325.000 V 315.200 C 505.500 315.100 505.400 315.200 505.500 315.200 H 510.400 C 510.455 315.200 510.500 315.155 510.500 315.100 V 305.100 C 510.500 305.045 510.455 305.000 510.400 305.000 H 505.500 C 505.400 305.000 505.500 305.100 505.500 305.000 V 295.200 C 505.500 295.100 505.400 295.200 505.500 295.200 H 510.400 C 510.455 295.200 510.500 295.155 510.500 295.100 V 285.100 C 510.500 285.045 510.455 285.000 510.400 285.000 H 505.500 C 505.400 285.000 505.500 285.100 505.500 285.000 V 275.200 C 505.500 275.100 505.400 275.200 505.500 275.200 H 510.400 C 510.455 275.200 510.500 275.155 510.500 275.100 V 265.100 C 510.500 265.045 510.455 265.000 510.400 265.000 H 505.500 C 505.400 265.000 505.500 265.100 505.500 265.000 V 255.200 C 505.500 255.100 505.400 255.200 505.500 255.200 H 510.400 C 510.455 255.200 510.500 255.155 510.500 255.100 V 245.100 C 510.500 245.045 510.455 245.000 510.400 245.000 H 505.500 C 505.400 245.000 505.500 245.100 505.500 245.000 V 235.200 C 505.500 235.100 505.400 235.200 505.500 235.200 H 510.400 C 510.455 235.200 510.500 235.155 510.500 235.100 V 225.100 C 510.500 225.045 510.455 225.000 510.400 225.000 H 505.500 C 505.400 225.000 505.500 225.100 505.500 225.000 V 215.200 C 505.500 215.100 505.400 215.200 505.500 215.200 H 510.400 C 510.455 215.200 510.500 215.155 510.500 215.100 V 205.100 C 510.500 205.045 510.455 205.000 510.400 205.000 H 505.500 C 505.400 205.000 505.500 205.100 505.500 205.000 V 195.200 C 505.500 195.100 505.400 195.200 505.500 195.200 H 510.400 C 510.455 195.200 510.500 195.155 510.500 195.100 V 185.100 C 510.500 185.045 510.455 185.000 510.400 185.000 H 505.500 C 505.400 185.000 505.500 185.100 505.500 185.000 V 175.200 C 505.500 175.100 505.400 175.200 505.500 175.200 H 510.400 C 510.455 175.200 510.500 175.155 510.500 175.100 V 165.100 C 510.500 165.045 510.455 165.000 510.400 165.000 H 505.500 C 505.400 165.000 505.500 165.100 505.500 165.000 V 155.200 C 505.500 155.100 505.400 155.200 505.500 155.200 H 510.400 C 510.455 155.200 510.500 155.155 510.500 155.100 V 145.100 C 510.500 145.045 510.455 145.000 510.400 145.000 H 505.500 C 505.400 145.000 505.500 145.100 505.500 145.000 V 135.200 C 505.500 135.100 505.400 135.200 505.500 135.200 H 510.400 C 510.455 135.200 510.500 135.155 510.500 135.100 V 125.100 C 510.500 125.045 510.455 125.000 510.400 125.000 H 505.500 C 505.400 125.000 505.500 125.100 505.500 125.000 V 115.200 C 505.500 115.100 505.400 115.200 505.500 115.200 H 510.400 C 510.455 115.200 510.500 115.155 510.500 115.100 V 105.100 C 510.500 105.045 510.455 105.000 510.400 105.000 H 505.500 C 505.400 105.000 505.500 105.100 505.500 105.000 V 95.200 C 505.500 95.100 505.400 95.200 505.500 95.200 H 510.400 C 510.455 95.200 510.500 95.155 510.500 95.100 V 85.100 C 510.500 85.045 510.455 85.000 510.400 85.000 H 505.500 C 505.400 85.000 505.500 85.100 505.500 85.000 V 75.200 C 505.500 75.100 505.400 75.200 505.500 75.200 H 510.400 C 510.455 75.200 510.500 75.155 510.500 75.100 V 65.100 C 510.500 65.045 510.455 65.000 510.400 65.000 H 505.500 C 505.400 65.000 505.500 65.100 505.500 65.000 V 55.200 C 505.500 55.100 505.400 55.200 505.500 55.200 H 510.400 C 510.455 55.200 510.500 55.155 510.500 55.100 V 45.100 C 510.500 45.045 510.455 45.000 510.400 45.000 H 505.500 C 505.400 45.000 505.500 45.100 505.500 45.000 V 35.200 C 505.500 35.100 505.400 35.200 505.500 35.200 H 510.400 C 510.455 35.200 510.500 35.155 510.500 35.100 V 25.100 C 510.500 25.045 510.455 25.000 510.400 25.000 H 505.500 C 505.400 25.000 505.500 25.100 505.500 25.000 V 15.100 C 505.500 15.045 505.455 15.000 505.400 15.000 H 495.500 C 495.400 15.000 495.500 15.100 495.500 15.000 V 10.100 C 495.500 10.045 495.455 10.000 495.400 10.000 H 485.400 C 485.345 10.000 485.300 10.045 485.300 10.100 V 15.000 C 485.300 15.100 485.400 15.000 485.300 15.000 H 475.500 C 475.400 15.000 475.500 15.100 475.500 15.000 V 10.100 C 475.500 10.045 475.455 10.000 475.400 10.000 H 465.400 C 465.345 10.000 465.300 10.045 465.300 10.100 V 15.000 C 465.300 15.100 465.400 15.000 465.300 15.000 H 455.500 C 455.400 15.000 455.500 15.100 455.500 15.000 V 10.100 C 455.500 10.045 455.455 10.000 455.400 10.000 H 445.400 C 445.345 10.000 445.300 10.045 445.300 10.100 V 15.000 C 445.300 15.100 445.400 15.000 445.300 15.000 H 435.500 C 435.400 15.000 435.500 15.100 435.500 15.000 V 10.100 C 435.500 10.045 435.455 10.000 435.400 10.000 H 425.400 C 425.345 10.000 425.300 10.045 425.300 10.100 V 15.000 C 425.300 15.100 425.400 15.000 425.300 15.000 H 415.500 C 415.400 15.000 415.500 15.100 415.500 15.000 V 10.100 C 415.500 10.045 415.455 10.000 415.400 10.000 H 405.400 C 405.345 10.000 405.300 10.045 405.300 10.100 V 15.000 C 405.300 15.100 405.400 15.000 405.300 15.000 H 395.500 C 395.400 15.000 395.500 15.100 395.500 15.000 V 10.100 C 395.500 10.045 395.455 10.000 395.400 10.000 H 385.400 C 385.345 10.000 385.300 10.045 385.300 10.100 V 15.000 C 385.300 15.100 385.400 15.000 385.300 15.000 H 375.500 C 375.400 15.000 375.500 15.100 375.500 15.000 V 10.100 C 375.500 10.045 375.455 10.000 375.400 10.000 H 365.400 C 365.345 10.000 365.300 10.045 365.300 10.100 V 15.000 C 365.300 15.100 365.400 15.000 365.300 15.000 H 355.500 C 355.400 15.000 355.500 15.100 355.500 15.000 V 10.100 C 355.500 10.045 355.455 10.000 355.400 10.000 H 345.400 C 345.345 10.000 345.300 10.045 345.300 10.100 V 15.000 C 345.300 15.100 345.400 15.000 345.300 15.000 H 335.500 C 335.400 15.000 335.500 15.100 335.500 15.000 V 10.100 C 335.500 10.045 335.455 10.000 335.400 10.000 H 325.400 C 325.345 10.000 325.300 10.045 325.300 10.100 V 15.000 C 325.300 15.100 325.400 15.000 325.300 15.000 H 315.500 C 315.400 15.000 315.500 15.100 315.500 15.000 V 10.100 C 315.500 10.045 315.455 10.000 315.400 10.000 H 305.400 C 305.345 10.000 305.300 10.045 305.300 10.100 V 15.000 C 305.300 15.100 305.400 15.000 305.300 15.000 H 295.500 C 295.400 15.000 295.500 15.100 295.500 15.000 V 10.100 C 295.500 10.045 295.455 10.000 295.400 10.000 H 285.400 C 285.345 10.000 285.300 10.045 285.300 10.100 V 15.000 C 285.300 15.100 285.400 15.000 285.300 15.000 H 275.500 C 275.400 15.000 275.500 15.100 275.500 15.000 V 10.100 C 275.500 10.045 275.455 10.000 275.400 10.000 H 265.400 C 265.345 10.000 265.300 10.045 265.300 10.100 V 15.000 C 265.300 15.100 265.400 15.000 265.300 15.000 H 255.500 C 255.400 15.000 255.500 15.100 255.500 15.000 V 10.100 C 255.500 10.045 255.455 10.000 255.400 10.000 H 245.400 C 245.345 10.000 245.300 10.045 245.300 10.100 V 15.000 C 245.300 15.100 245.400 15.000 245.300 15.000 H 235.500 C 235.400 15.000 235.500 15.100 235.500 15.000 V 10.100 C 235.500 10.045 235.455 10.000 235.400 10.000 H 225.400 C 225.345 10.000 225.300 10.045 225.300 10.100 V 15.000 C 225.300 15.100 225.400 15.000 225.300 15.000 H 215.500 C 215.400 15.000 215.500 15.100 215.500 15.000 V 10.100 C 215.500 10.045 215.455 10.000 215.400 10.000 H 205.400 C 205.345 10.000 205.300 10.045 205.300 10.100 V 15.000 C 205.300 15.100 205.400 15.000 205.300 15.000 H 195.500 C 195.400 15.000 195.500 15.100 195.500 15.000 V 10.100 C 195.500 10.045 195.455 10.000 195.400 10.000 H 185.400 C 185.345 10.000 185.300 10.045 185.300 10.100 V 15.000 C 185.300 15.100 185.400 15.000 185.300 15.000 H 175.500 C 175.400 15.000 175.500 15.100 175.500 15.000 V 10.100 C 175.500 10.045 175.455 10.000 175.400 10.000 H 165.400 C 165.345 10.000 165.300 10.045 165.300 10.100 V 15.000 C 165.300 15.100 165.400 15.000 165.300 15.000 H 155.500 C 155.400 15.000 155.500 15.100 155.500 15.000 V 10.100 C 155.500 10.045 155.455 10.000 155.400 10.000 H 145.400 C 145.345 10.000 145.300 10.045 145.300 10.100 V 15.000 C 145.300 15.100 145.400 15.000 145.300 15.000 H 135.500 C 135.400 15.000 135.500 15.100 135.500 15.000 V 10.100 C 135.500 10.045 135.455 10.000 135.400 10.000 H 125.400 C 125.345 10.000 125.300 10.045 125.300 10.100 V 15.000 C 125.300 15.100 125.400 15.000 125.300 15.000 H 115.500 C 115.400 15.000 115.500 15.100 115.500 15.000 V 10.100 C 115.500 10.045 115.455 10.000 115.400 10.000 H 105.400 C 105.345 10.000 105.300 10.045 105.300 10.100 V 15.000 C 105.300 15.100 105.400 15.000 105.300 15.000 H 95.500 C 95.400 15.000 95.500 15.100 95.500 15.000 V 10.100 C 95.500 10.045 95.455 10.000 95.400 10.000 H 85.400 C 85.345 10.000 85.300 10.045 85.300 10.100 V 15.000 C 85.300 15.100 85.400 15.000 85.300 15.000 H 75.500 C 75.400 15.000 75.500 15.100 75.500 15.000 V 10.100 C 75.500 10.045 75.455 10.000 75.400 10.000 H 65.400 C 65.345 10.000 65.300 10.045 65.300 10.100 V 15.000 C 65.300 15.100 65.400 15.000 65.300 15.000 H 55.500 C 55.400 15.000 55.500 15.100 55.500 15.000 V 10.100 C 55.500 10.045 55.455 10.000 55.400 10.000 H 45.400 C 45.345 10.000 45.300 10.045 45.300 10.100 V 15.000 C 45.300 15.100 45.400 15.000 45.300 15.000 H 35.500 C 35.400 15.000 35.500 15.100 35.500 15.000 V 10.100 C 35.500 10.045 35.455 10.000 35.400 10.000 H 25.400 C 25.345 10.000 25.300 10.045 25.300 10.100 V 15.000 C 25.300 15.100 25.400 15.000 25.300 15.000 H 15.400 C 15.345 15.000 15.300 15.045 15.300 15.100 V 25.000 C 15.300 25.100 15.400 25.000 15.300 25.000 H 10.400 C 10.345 25.000 10.300 25.045 10.300 25.100 V 35.100 C 10.300 35.155 10.345 35.200 10.400 35.200 H 15.300 C 15.400 35.200 15.300 35.100 15.300 35.200 V 45.000 C 15.300 45.100 15.400 45.000 15.300 45.000 H 10.400 C 10.345 45.000 10.300 45.045 10.300 45.100 V 55.100 C 10.300 55.155 10.345 55.200 10.400 55.200 H 15.300 C 15.400 55.200 15.300 55.100 15.300 55.200 V 65.000 C 15.300 65.100 15.400 65.000 15.300 65.000 H 10.400 C 10.345 65.000 10.300 65.045 10.300 65.100 V 75.100 C 10.300 75.155 10.345 75.200 10.400 75.200 H 15.300 C 15.400 75.200 15.300 75.100 15.300 75.200 V 85.000 C 15.300 85.100 15.400 85.000 15.300 85.000 H 10.400 C 10.345 85.000 10.300 85.045 10.300 85.100 V 95.100 C 10.300 95.155 10.345 95.200 10.400 95.200 H 15.300 C 15.400 95.200 15.300 95.100 15.300 95.200 V 105.000 C 15.300 105.100 15.400 105.000 15.300 105.000 H 10.400 C 10.345 105.000 10.300 105.045 10.300 105.100 V 115.100 C 10.300 115.155 10.345 115.200 10.400 115.200 H 15.300 C 15.400 115.200 15.300 115.100 15.300 115.200 V 125.000 C 15.300 125.100 15.400 125.000 15.300 125.000 H 10.400 C 10.345 125.000 10.300 125.045 10.300 125.100 V 135.100 C 10.300 135.155 10.345 135.200 10.400 135.200 H 15.300 C 15.400 135.200 15.300 135.100 15.300 135.200 V 145.000 C 15.300 145.100 15.400 145.000 15.300 145.000 H 10.400 C 10.345 145.000 10.300 145.045 10.300 145.100 V 155.100 C 10.300 155.155 10.345 155.200 10.400 155.200 H 15.300 C 15.400 155.200 15.300 155.100 15.300 155.200 V 165.000 C 15.300 165.100 15.400 165.000 15.300 165.000 H 10.400 C 10.345 165.000 10.300 165.045 10.300 165.100 V 175.100 C 10.300 175.155 10.345 175.200 10.400 175.200 H 15.300 C 15.400 175.200 15.300 175.100 15.300 175.200 V 185.000 C 15.300 185.100 15.400 185.000 15.300 185.000 H 10.400 C 10.345 185.000 10.300 185.045 10.300 185.100 V 195.100 C 10.300 195.155 10.345 195.200 10.400 195.200 H 15.300 C 15.400 195.200 15.300 195.100 15.300 195.200 V 205.000 C 15.300 205.100 15.400 205.000 15.300 205.000 H 10.400 C 10.345 205.000 10.300 205.045 10.300 205.100 V 215.100 C 10.300 215.155 10.345 215.200 10.400 215.200 H 15.300 C 15.400 215.200 15.300 215.100 15.300 215.200 V 225.000 C 15.300 225.100 15.400 225.000 15.300 225.000 H 10.400 C 10.345 225.000 10.300 225.045 10.300 225.100 V 235.100 C 10.300 235.155 10.345 235.200 10.400 235.200 H 15.300 C 15.400 235.200 15.300 235.100 15.300 235.200 V 245.000 C 15.300 245.100 15.400 245.000 15.300 245.000 H 10.400 C 10.345 245.000 10.300 245.045 10.300 245.100 V 255.100 C 10.300 255.155 10.345 255.200 10.400 255.200 H 15.300 C 15.400 255.200 15.300 255.100 15.300 255.200 V 265.000 C 15.300 265.100 15.400 265.000 15.300 265.000 H 10.400 C 10.345 265.000 10.300 265.045 10.300 265.100 V 275.100 C 10.300 275.155 10.345 275.200 10.400 275.200 H 15.300 C 15.400 275.200 15.300 275.100 15.300 275.200 V 285.000 C 15.300 285.100 15.400 285.000 15.300 285.000 H 10.400 C 10.345 285.000 10.300 285.045 10.300 285.100 V 295.100 C 10.300 295.155 10.345 295.200 10.400 295.200 H 15.300 C 15.400 295.200 15.300 295.100 15.300 295.200 V 305.000 C 15.300 305.100 15.400 305.000 15.300 305.000 H 10.400 C 10.345 305.000 10.300 305.045 10.300 305.100 V 315.100 C 10.300 315.155 10.345 315.200 10.400 315.200 H 15.300 C 15.400 315.200 15.300 315.100 15.300 315.200 V 325.000 C 15.300 325.100 15.400 325.000 15.300 325.000 H 10.400 C 10.345 325.000 10.300 325.045 10.300 325.100 V 335.100 C 10.300 335.155 10.345 335.200 10.400 335.200 H 15.300 C 15.400 335.200 15.300 335.100 15.300 335.200 V 345.000 C 15.300 345.100 15.400 345.000 15.300 345.000 H 10.400 C 10.345 345.000 10.300 345.045 10.300 345.100 V 355.100 C 10.300 355.155 10.345 355.200 10.400 355.200 H 15.300 C 15.400 355.200 15.300 355.100 15.300 355.200 V 365.000 C 15.300 365.100 15.400 365.000 15.300 365.000 H 10.400 C 10.345 365.000 10.300 365.045 10.300 365.100 V 375.100 C 10.300 375.155 10.345 375.200 10.400 375.200 H 15.300 C 15.400 375.200 15.300 375.100 15.300 375.200 V 385.000 C 15.300 385.100 15.400 385.000 15.300 385.000 H 10.400 C 10.345 385.000 10.300 385.045 10.300 385.100 V 395.100 C 10.300 395.155 10.345 395.200 10.400 395.200 H 15.300 C 15.400 395.200 15.300 395.100 15.300 395.200 V 405.000 C 15.300 405.100 15.400 405.000 15.300 405.000 H 10.400 C 10.345 405.000 10.300 405.045 10.300 405.100 V 415.100 C 10.300 415.155 10.345 415.200 10.400 415.200 H 15.300 C 15.400 415.200 15.300 415.100 15.300 415.200 V 425.000 C 15.300 425.100 15.400 425.000 15.300 425.000 H 10.400 C 10.345 425.000 10.300 425.045 10.300 425.100 V 435.100 C 10.300 435.155 10.345 435.200 10.400 435.200 H 15.300 C 15.400 435.200 15.300 435.100 15.300 435.200 V 445.000 C 15.300 445.100 15.400 445.000 15.300 445.000 H 10.400 C 10.345 445.000 10.300 445.045 10.300 445.100 V 455.100 C 10.300 455.155 10.345 455.200 10.400 455.200 H 15.300 C 15.400 455.200 15.300 455.100 15.300 455.200 V 465.000 C 15.300 465.100 15.400 465.000 15.300 465.000 H 10.400 C 10.345 465.000 10.300 465.045 10.300 465.100 V 475.100 C 10.300 475.155 10.345 475.200 10.400 475.200 H 15.300 C 15.400 475.200 15.300 475.100 15.300 475.200 V 485.000 C 15.300 485.100 15.400 485.000 15.300 485.000 H 10.400 C 10.345 485.000 10.300 485.045 10.300 485.100 V 495.100 C 10.300 495.155 10.345 495.200 10.400 495.200 H 15.300 C 15.400 495.200 15.300 495.100 15.300 495.200 V 505.100 C 15.300 505.155 15.345 505.200 15.400 505.200 Z"
       stroke="rgb(0,0,0)"
       stroke-width="0.20"
       id="path1194" />
  </g>
  <g
     id="p-5"
     style="fill:none;stroke-linecap:round;stroke-linejoin:round"
     transform="translate(4.7577038,-0.34713238)">
    <path
       d="m 533.1,1007.7 h -4.9 c -0.1,0 0,0.1 0,0 v -4.8 c 0,-0.1 -0.1,0 0,0 h 9.8 c 0.1,0 0,-0.1 0,0 v 4.8 c 0,0.1 0.1,0 0,0 z"
       stroke="#0000ff"
       stroke-width="0.2"
       id="path1248" />
    <path
       d="m 553.1,1007.7 h -4.9 c -0.1,0 0,0.1 0,0 v -4.8 c 0,-0.1 -0.1,0 0,0 h 9.8 c 0.1,0 0,-0.1 0,0 v 4.8 c 0,0.1 0.1,0 0,0 z"
       stroke="#0000ff"
       stroke-width="0.2"
       id="path1250" />
    <path
       d="m 573.1,1007.7 h -4.9 c -0.1,0 0,0.1 0,0 v -4.8 c 0,-0.1 -0.1,0 0,0 h 9.8 c 0.1,0 0,-0.1 0,0 v 4.8 c 0,0.1 0.1,0 0,0 z"
       stroke="#0000ff"
       stroke-width="0.2"
       id="path1252" />
    <path
       d="m 593.1,1007.7 h -4.9 c -0.1,0 0,0.1 0,0 v -4.8 c 0,-0.1 -0.1,0 0,0 h 9.8 c 0.1,0 0,-0.1 0,0 v 4.8 c 0,0.1 0.1,0 0,0 z"
       stroke="#0000ff"
       stroke-width="0.2"
       id="path1254" />
    <path
       d="m 613.1,1007.7 h -4.9 c -0.1,0 0,0.1 0,0 v -4.8 c 0,-0.1 -0.1,0 0,0 h 9.8 c 0.1,0 0,-0.1 0,0 v 4.8 c 0,0.1 0.1,0 0,0 z"
       stroke="#0000ff"
       stroke-width="0.2"
       id="path1256" />
    <path
       d="m 633.1,1007.7 h -4.9 c -0.1,0 0,0.1 0,0 v -4.8 c 0,-0.1 -0.1,0 0,0 h 9.8 c 0.1,0 0,-0.1 0,0 v 4.8 c 0,0.1 0.1,0 0,0 z"
       stroke="#0000ff"
       stroke-width="0.2"
       id="path1258" />
    <path
       d="m 653.1,1007.7 h -4.9 c -0.1,0 0,0.1 0,0 v -4.8 c 0,-0.1 -0.1,0 0,0 h 9.8 c 0.1,0 0,-0.1 0,0 v 4.8 c 0,0.1 0.1,0 0,0 z"
       stroke="#0000ff"
       stroke-width="0.2"
       id="path1260" />
    <path
       d="m 673.1,1007.7 h -4.9 c -0.1,0 0,0.1 0,0 v -4.8 c 0,-0.1 -0.1,0 0,0 h 9.8 c 0.1,0 0,-0.1 0,0 v 4.8 c 0,0.1 0.1,0 0,0 z"
       stroke="#0000ff"
       stroke-width="0.2"
       id="path1262" />
    <path
       d="m 693.1,1007.7 h -4.9 c -0.1,0 0,0.1 0,0 v -4.8 c 0,-0.1 -0.1,0 0,0 h 9.8 c 0.1,0 0,-0.1 0,0 v 4.8 c 0,0.1 0.1,0 0,0 z"
       stroke="#0000ff"
       stroke-width="0.2"
       id="path1264" />
    <path
       d="m 713.1,1007.7 h -4.9 c -0.1,0 0,0.1 0,0 v -4.8 c 0,-0.1 -0.1,0 0,0 h 9.8 c 0.1,0 0,-0.1 0,0 v 4.8 c 0,0.1 0.1,0 0,0 z"
       stroke="#0000ff"
       stroke-width="0.2"
       id="path1266" />
    <path
       d="m 733.1,1007.7 h -4.9 c -0.1,0 0,0.1 0,0 v -4.8 c 0,-0.1 -0.1,0 0,0 h 9.8 c 0.1,0 0,-0.1 0,0 v 4.8 c 0,0.1 0.1,0 0,0 z"
       stroke="#0000ff"
       stroke-width="0.2"
       id="path1268" />
    <path
       d="m 753.1,1007.7 h -4.9 c -0.1,0 0,0.1 0,0 v -4.8 c 0,-0.1 -0.1,0 0,0 h 9.8 c 0.1,0 0,-0.1 0,0 v 4.8 c 0,0.1 0.1,0 0,0 z"
       stroke="#0000ff"
       stroke-width="0.2"
       id="path1270" />
    <path
       d="m 773.1,1007.7 h -4.9 c -0.1,0 0,0.1 0,0 v -4.8 c 0,-0.1 -0.1,0 0,0 h 9.8 c 0.1,0 0,-0.1 0,0 v 4.8 c 0,0.1 0.1,0 0,0 z"
       stroke="#0000ff"
       stroke-width="0.2"
       id="path1272" />
    <path
       d="m 793.1,1007.7 h -4.9 c -0.1,0 0,0.1 0,0 v -4.8 c 0,-0.1 -0.1,0 0,0 h 9.8 c 0.1,0 0,-0.1 0,0 v 4.8 c 0,0.1 0.1,0 0,0 z"
       stroke="#0000ff"
       stroke-width="0.2"
       id="path1274" />
    <path
       d="m 813.1,1007.7 h -4.9 c -0.1,0 0,0.1 0,0 v -4.8 c 0,-0.1 -0.1,0 0,0 h 9.8 c 0.1,0 0,-0.1 0,0 v 4.8 c 0,0.1 0.1,0 0,0 z"
       stroke="#0000ff"
       stroke-width="0.2"
       id="path1276" />
    <path
       d="m 833.1,1007.7 h -4.9 c -0.1,0 0,0.1 0,0 v -4.8 c 0,-0.1 -0.1,0 0,0 h 9.8 c 0.1,0 0,-0.1 0,0 v 4.8 c 0,0.1 0.1,0 0,0 z"
       stroke="#0000ff"
       stroke-width="0.2"
       id="path1278" />
    <path
       d="m 853.1,1007.7 h -4.9 c -0.1,0 0,0.1 0,0 v -4.8 c 0,-0.1 -0.1,0 0,0 h 9.8 c 0.1,0 0,-0.1 0,0 v 4.8 c 0,0.1 0.1,0 0,0 z"
       stroke="#0000ff"
       stroke-width="0.2"
       id="path1280" />
    <path
       d="m 873.1,1007.7 h -4.9 c -0.1,0 0,0.1 0,0 v -4.8 c 0,-0.1 -0.1,0 0,0 h 9.8 c 0.1,0 0,-0.1 0,0 v 4.8 c 0,0.1 0.1,0 0,0 z"
       stroke="#0000ff"
       stroke-width="0.2"
       id="path1282" />
    <path
       d="m 893.1,1007.7 h -4.9 c -0.1,0 0,0.1 0,0 v -4.8 c 0,-0.1 -0.1,0 0,0 h 9.8 c 0.1,0 0,-0.1 0,0 v 4.8 c 0,0.1 0.1,0 0,0 z"
       stroke="#0000ff"
       stroke-width="0.2"
       id="path1284" />
    <path
       d="m 913.1,1007.7 h -4.9 c -0.1,0 0,0.1 0,0 v -4.8 c 0,-0.1 -0.1,0 0,0 h 9.8 c 0.1,0 0,-0.1 0,0 v 4.8 c 0,0.1 0.1,0 0,0 z"
       stroke="#0000ff"
       stroke-width="0.2"
       id="path1286" />
    <path
       d="m 933.1,1007.7 h -4.9 c -0.1,0 0,0.1 0,0 v -4.8 c 0,-0.1 -0.1,0 0,0 h 9.8 c 0.1,0 0,-0.1 0,0 v 4.8 c 0,0.1 0.1,0 0,0 z"
       stroke="#0000ff"
       stroke-width="0.2"
       id="path1288" />
    <path
       d="m 953.1,1007.7 h -4.9 c -0.1,0 0,0.1 0,0 v -4.8 c 0,-0.1 -0.1,0 0,0 h 9.8 c 0.1,0 0,-0.1 0,0 v 4.8 c 0,0.1 0.1,0 0,0 z"
       stroke="#0000ff"
       stroke-width="0.2"
       id="path1290" />
    <path
       d="m 973.1,1007.7 h -4.9 c -0.1,0 0,0.1 0,0 v -4.8 c 0,-0.1 -0.1,0 0,0 h 9.8 c 0.1,0 0,-0.1 0,0 v 4.8 c 0,0.1 0.1,0 0,0 z"
       stroke="#0000ff"
       stroke-width="0.2"
       id="path1292" />
    <path
       d="m 993.1,1007.7 h -4.9 c -0.1,0 0,0.1 0,0 v -4.8 c 0,-0.1 -0.1,0 0,0 h 9.8 c 0.1,0 0,-0.1 0,0 v 4.8 c 0,0.1 0.1,0 0,0 z"
       stroke="#0000ff"
       stroke-width="0.2"
       id="path1294" />
    <path
       d="m 518.1,1012.9 h 490 c 0.055,0 0.1,-0.045 0.1,-0.1 v -14.9 c 0,-0.1 -0.1,0 0,0 h 4.9 c 0.055,0 0.1,-0.045 0.1,-0.1 v -10 c 0,-0.055 -0.045,-0.1 -0.1,-0.1 h -4.9 c -0.1,0 0,0.1 0,0 v -9.8 c 0,-0.1 -0.1,0 0,0 h 4.9 c 0.055,0 0.1,-0.045 0.1,-0.1 v -10 c 0,-0.055 -0.045,-0.1 -0.1,-0.1 h -4.9 c -0.1,0 0,0.1 0,0 v -9.8 c 0,-0.1 -0.1,0 0,0 h 4.9 c 0.055,0 0.1,-0.045 0.1,-0.1 v -10 c 0,-0.055 -0.045,-0.1 -0.1,-0.1 h -4.9 c -0.1,0 0,0.1 0,0 v -9.8 c 0,-0.1 -0.1,0 0,0 h 4.9 c 0.055,0 0.1,-0.045 0.1,-0.1 v -10 c 0,-0.055 -0.045,-0.1 -0.1,-0.1 h -4.9 c -0.1,0 0,0.1 0,0 v -9.8 c 0,-0.1 -0.1,0 0,0 h 4.9 c 0.055,0 0.1,-0.045 0.1,-0.1 v -10 c 0,-0.055 -0.045,-0.1 -0.1,-0.1 h -4.9 c -0.1,0 0,0.1 0,0 v -9.8 c 0,-0.1 -0.1,0 0,0 h 4.9 c 0.055,0 0.1,-0.045 0.1,-0.1 v -10 c 0,-0.055 -0.045,-0.1 -0.1,-0.1 h -4.9 c -0.1,0 0,0.1 0,0 v -9.8 c 0,-0.1 -0.1,0 0,0 h 4.9 c 0.055,0 0.1,-0.045 0.1,-0.1 v -10 c 0,-0.055 -0.045,-0.1 -0.1,-0.1 h -4.9 c -0.1,0 0,0.1 0,0 v -9.8 c 0,-0.1 -0.1,0 0,0 h 4.9 c 0.055,0 0.1,-0.045 0.1,-0.1 v -10 c 0,-0.055 -0.045,-0.1 -0.1,-0.1 h -4.9 c -0.1,0 0,0.1 0,0 v -9.8 c 0,-0.1 -0.1,0 0,0 h 4.9 c 0.055,0 0.1,-0.045 0.1,-0.1 v -10 c 0,-0.055 -0.045,-0.1 -0.1,-0.1 h -4.9 c -0.1,0 0,0.1 0,0 v -9.8 c 0,-0.1 -0.1,0 0,0 h 4.9 c 0.055,0 0.1,-0.045 0.1,-0.1 v -10 c 0,-0.055 -0.045,-0.1 -0.1,-0.1 h -4.9 c -0.1,0 0,0.1 0,0 v -9.8 c 0,-0.1 -0.1,0 0,0 h 4.9 c 0.055,0 0.1,-0.045 0.1,-0.1 v -10 c 0,-0.055 -0.045,-0.1 -0.1,-0.1 h -4.9 c -0.1,0 0,0.1 0,0 v -9.8 c 0,-0.1 -0.1,0 0,0 h 4.9 c 0.055,0 0.1,-0.045 0.1,-0.1 v -10 c 0,-0.055 -0.045,-0.1 -0.1,-0.1 h -4.9 c -0.1,0 0,0.1 0,0 v -9.8 c 0,-0.1 -0.1,0 0,0 h 4.9 c 0.055,0 0.1,-0.045 0.1,-0.1 v -10 c 0,-0.055 -0.045,-0.1 -0.1,-0.1 h -4.9 c -0.1,0 0,0.1 0,0 v -9.8 c 0,-0.1 -0.1,0 0,0 h 4.9 c 0.055,0 0.1,-0.045 0.1,-0.1 v -10 c 0,-0.055 -0.045,-0.1 -0.1,-0.1 h -4.9 c -0.1,0 0,0.1 0,0 v -9.8 c 0,-0.1 -0.1,0 0,0 h 4.9 c 0.055,0 0.1,-0.045 0.1,-0.1 v -10 c 0,-0.055 -0.045,-0.1 -0.1,-0.1 h -4.9 c -0.1,0 0,0.1 0,0 v -9.8 c 0,-0.1 -0.1,0 0,0 h 4.9 c 0.055,0 0.1,-0.045 0.1,-0.1 v -10 c 0,-0.055 -0.045,-0.1 -0.1,-0.1 h -4.9 c -0.1,0 0,0.1 0,0 v -9.8 c 0,-0.1 -0.1,0 0,0 h 4.9 c 0.055,0 0.1,-0.045 0.1,-0.1 v -10 c 0,-0.055 -0.045,-0.1 -0.1,-0.1 h -4.9 c -0.1,0 0,0.1 0,0 v -9.8 c 0,-0.1 -0.1,0 0,0 h 4.9 c 0.055,0 0.1,-0.045 0.1,-0.1 v -10 c 0,-0.055 -0.045,-0.1 -0.1,-0.1 h -4.9 c -0.1,0 0,0.1 0,0 v -9.8 c 0,-0.1 -0.1,0 0,0 h 4.9 c 0.055,0 0.1,-0.045 0.1,-0.1 v -10 c 0,-0.055 -0.045,-0.1 -0.1,-0.1 h -4.9 c -0.1,0 0,0.1 0,0 v -9.8 c 0,-0.1 -0.1,0 0,0 h 4.9 c 0.055,0 0.1,-0.045 0.1,-0.1 v -10 c 0,-0.055 -0.045,-0.1 -0.1,-0.1 h -4.9 c -0.1,0 0,0.1 0,0 v -9.8 c 0,-0.1 -0.1,0 0,0 h 4.9 c 0.055,0 0.1,-0.045 0.1,-0.1 v -10 c 0,-0.055 -0.045,-0.1 -0.1,-0.1 h -4.9 c -0.1,0 0,0.1 0,0 v -9.8 c 0,-0.1 -0.1,0 0,0 h 4.9 c 0.055,0 0.1,-0.045 0.1,-0.1 v -10 c 0,-0.055 -0.045,-0.1 -0.1,-0.1 h -4.9 c -0.1,0 0,0.1 0,0 v -9.8 c 0,-0.1 -0.1,0 0,0 h 4.9 c 0.055,0 0.1,-0.045 0.1,-0.1 v -10 c 0,-0.055 -0.045,-0.1 -0.1,-0.1 h -4.9 c -0.1,0 0,0.1 0,0 v -9.8 c 0,-0.1 -0.1,0 0,0 h 4.9 c 0.055,0 0.1,-0.045 0.1,-0.1 v -10 c 0,-0.055 -0.045,-0.1 -0.1,-0.1 h -4.9 c -0.1,0 0,0.1 0,0 v -14.9 c 0,-0.055 -0.045,-0.1 -0.1,-0.1 h -490 c -0.055,0 -0.1,0.045 -0.1,0.1 v 14.9 c 0,0.1 0.1,0 0,0 h -4.9 c -0.055,0 -0.1,0.045 -0.1,0.1 v 10 c 0,0.055 0.045,0.1 0.1,0.1 h 4.9 c 0.1,0 0,-0.1 0,0 v 9.8 c 0,0.1 0.1,0 0,0 h -4.9 c -0.055,0 -0.1,0.045 -0.1,0.1 v 10 c 0,0.055 0.045,0.1 0.1,0.1 h 4.9 c 0.1,0 0,-0.1 0,0 v 9.8 c 0,0.1 0.1,0 0,0 h -4.9 c -0.055,0 -0.1,0.045 -0.1,0.1 v 10 c 0,0.055 0.045,0.1 0.1,0.1 h 4.9 c 0.1,0 0,-0.1 0,0 v 9.8 c 0,0.1 0.1,0 0,0 h -4.9 c -0.055,0 -0.1,0.045 -0.1,0.1 v 10 c 0,0.055 0.045,0.1 0.1,0.1 h 4.9 c 0.1,0 0,-0.1 0,0 v 9.8 c 0,0.1 0.1,0 0,0 h -4.9 c -0.055,0 -0.1,0.045 -0.1,0.1 v 10 c 0,0.055 0.045,0.1 0.1,0.1 h 4.9 c 0.1,0 0,-0.1 0,0 v 9.8 c 0,0.1 0.1,0 0,0 h -4.9 c -0.055,0 -0.1,0.045 -0.1,0.1 v 10 c 0,0.055 0.045,0.1 0.1,0.1 h 4.9 c 0.1,0 0,-0.1 0,0 v 9.8 c 0,0.1 0.1,0 0,0 h -4.9 c -0.055,0 -0.1,0.045 -0.1,0.1 v 10 c 0,0.055 0.045,0.1 0.1,0.1 h 4.9 c 0.1,0 0,-0.1 0,0 v 9.8 c 0,0.1 0.1,0 0,0 h -4.9 c -0.055,0 -0.1,0.045 -0.1,0.1 v 10 c 0,0.055 0.045,0.1 0.1,0.1 h 4.9 c 0.1,0 0,-0.1 0,0 v 9.8 c 0,0.1 0.1,0 0,0 h -4.9 c -0.055,0 -0.1,0.045 -0.1,0.1 v 10 c 0,0.055 0.045,0.1 0.1,0.1 h 4.9 c 0.1,0 0,-0.1 0,0 v 9.8 c 0,0.1 0.1,0 0,0 h -4.9 c -0.055,0 -0.1,0.045 -0.1,0.1 v 10 c 0,0.055 0.045,0.1 0.1,0.1 h 4.9 c 0.1,0 0,-0.1 0,0 v 9.8 c 0,0.1 0.1,0 0,0 h -4.9 c -0.055,0 -0.1,0.045 -0.1,0.1 v 10 c 0,0.055 0.045,0.1 0.1,0.1 h 4.9 c 0.1,0 0,-0.1 0,0 v 9.8 c 0,0.1 0.1,0 0,0 h -4.9 c -0.055,0 -0.1,0.045 -0.1,0.1 v 10 c 0,0.055 0.045,0.1 0.1,0.1 h 4.9 c 0.1,0 0,-0.1 0,0 v 9.8 c 0,0.1 0.1,0 0,0 h -4.9 c -0.055,0 -0.1,0.045 -0.1,0.1 v 10 c 0,0.055 0.045,0.1 0.1,0.1 h 4.9 c 0.1,0 0,-0.1 0,0 v 9.8 c 0,0.1 0.1,0 0,0 h -4.9 c -0.055,0 -0.1,0.045 -0.1,0.1 v 10 c 0,0.055 0.045,0.1 0.1,0.1 h 4.9 c 0.1,0 0,-0.1 0,0 v 9.8 c 0,0.1 0.1,0 0,0 h -4.9 c -0.055,0 -0.1,0.045 -0.1,0.1 v 10 c 0,0.055 0.045,0.1 0.1,0.1 h 4.9 c 0.1,0 0,-0.1 0,0 v 9.8 c 0,0.1 0.1,0 0,0 h -4.9 c -0.055,0 -0.1,0.045 -0.1,0.1 v 10 c 0,0.055 0.045,0.1 0.1,0.1 h 4.9 c 0.1,0 0,-0.1 0,0 v 9.8 c 0,0.1 0.1,0 0,0 h -4.9 c -0.055,0 -0.1,0.045 -0.1,0.1 v 10 c 0,0.055 0.045,0.1 0.1,0.1 h 4.9 c 0.1,0 0,-0.1 0,0 v 9.8 c 0,0.1 0.1,0 0,0 h -4.9 c -0.055,0 -0.1,0.045 -0.1,0.1 v 10 c 0,0.055 0.045,0.1 0.1,0.1 h 4.9 c 0.1,0 0,-0.1 0,0 v 9.8 c 0,0.1 0.1,0 0,0 h -4.9 c -0.055,0 -0.1,0.045 -0.1,0.1 v 10 c 0,0.055 0.045,0.1 0.1,0.1 h 4.9 c 0.1,0 0,-0.1 0,0 v 9.8 c 0,0.1 0.1,0 0,0 h -4.9 c -0.055,0 -0.1,0.045 -0.1,0.1 v 10 c 0,0.055 0.045,0.1 0.1,0.1 h 4.9 c 0.1,0 0,-0.1 0,0 v 9.8 c 0,0.1 0.1,0 0,0 h -4.9 c -0.055,0 -0.1,0.045 -0.1,0.1 v 10 c 0,0.055 0.045,0.1 0.1,0.1 h 4.9 c 0.1,0 0,-0.1 0,0 v 9.8 c 0,0.1 0.1,0 0,0 h -4.9 c -0.055,0 -0.1,0.045 -0.1,0.1 v 10 c 0,0.055 0.045,0.1 0.1,0.1 h 4.9 c 0.1,0 0,-0.1 0,0 v 9.8 c 0,0.1 0.1,0 0,0 h -4.9 c -0.055,0 -0.1,0.045 -0.1,0.1 v 10 c 0,0.055 0.045,0.1 0.1,0.1 h 4.9 c 0.1,0 0,-0.1 0,0 v 9.8 c 0,0.1 0.1,0 0,0 h -4.9 c -0.055,0 -0.1,0.045 -0.1,0.1 v 10 c 0,0.055 0.045,0.1 0.1,0.1 h 4.9 c 0.1,0 0,-0.1 0,0 v 14.9 c 0,0.055 0.045,0.1 0.1,0.1 z"
       stroke="#000000"
       stroke-width="0.2"
       id="path1296" />
  </g>
  <rect
     style="fill:#ffffff;stroke:#ffffff;stroke-width:0.846667;stroke-miterlimit:10"
     id="rect7397"
     width="431.37869"
     height="69.787537"
     x="552.16833"
     y="737.56531"
     rx="23.5" />
</svg>
